<svg xmlns="http://www.w3.org/2000/svg" viewBox="-50 0 100 99.877"><style>path{fill:none;stroke:#969696;stroke-width:.5;stroke-linejoin:bevel}</style><path d="M-20.971 31.649l-2.651-4.671-2.466 4.792zM-7.411 99.386l4.935.491-2.343-4.857zM-7.411 99.386l-2.278-4.552-2.745 3.534z"/><path d="M-9.689 94.834l2.278 4.552 2.592-4.366zM22.959 89.705l5.865 1.09-2.118-4.43z"/><path d="M28.824 90.795l-5.865-1.09L25 93.24zM22.959 89.705l-1.989 5.624L25 93.24zM2.658 72.694l2.614-4.534H0zM-18.42 27.061l-2.551 4.588 5.204.027z"/><path d="M-20.971 31.649l2.551-4.588-5.202-.083zM-37.221 58.97l-2.532-4.262-3.348 4.606z"/><path d="M-39.753 54.708l-5.146.146 1.798 4.46zM-26.432 77.657l-2.211-5.019-2.589 4.379z"/><path d="M-24.006 81.981l2.863-4.541-5.289.217zM-21.143 77.44l-2.863 4.541 5.625-.206zM-15.767 68.201l-5.204.027 2.551 4.588z"/><path d="M-20.971 68.228l5.204-.027-2.611-4.583zM-2.571 90.487l-5.263.039 3.015 4.494zM-7.834 90.526l-1.855 4.308 4.87.186zM32.453 11.902l-3.629-2.819-2.118 4.429zM2.63 54.495L0 59.051l5.261-.001zM20.779 85.928l2.18 3.777 3.747-3.34zM23.622 72.899l-2.479 4.541 5.289.217z"/><path d="M21.143 77.44l2.479-4.541-5.202-.083zM10.525 68.168L7.89 63.605 5.272 68.16zM7.89 63.605l2.635 4.563 2.619-4.553zM2.63 54.495l2.631-4.556H0zM7.89 63.605l2.632-4.554-5.261-.001z"/><path d="M10.522 59.051L7.89 63.605l5.254.01zM-12.434 1.509l-4.28 1.306 3.282 5.109zM9.689 5.043l2.745-3.534L7.411.491zM-22.959 10.172l1.989-5.623L-25 6.637zM-28.824 9.083l5.865 1.089L-25 6.637zM-39.067 36.43l1.846 4.477 3.242-4.424zM-23.575 36.328l2.604-4.679-5.117.121zM-44.899 45.023l3.342 4.916 1.804-4.769z"/><path d="M-39.753 54.708l-1.804-4.769-3.342 4.915zM-34.388 54.499l-5.365.209 2.532 4.262zM-20.971 68.228l-2.604-4.678-2.513 4.557z"/><path d="M-23.575 63.55l2.604 4.678 2.593-4.61zM-28.643 72.638l5.021.261-2.466-4.792z"/><path d="M-23.622 72.899l2.651-4.671-5.117-.121zM-20.971 68.228l-2.651 4.671 5.202-.083zM-23.622 72.899l-5.021-.261 2.211 5.019z"/><path d="M-21.143 77.44l-2.479-4.541-2.81 4.758z"/><path d="M-23.622 72.899l2.479 4.541 2.723-4.624zM-10.603 77.329l5.249-.084-2.578-4.52zM2.658 72.694h-5.316L0 77.161zM-5.272 68.16l2.614 4.534L0 68.16z"/><path d="M-2.658 72.694h5.316L0 68.16zM-2.658 72.694l-2.614-4.534-2.66 4.565zM-5.354 77.245l2.696-4.551-5.274.031zM-2.658 72.694l-2.696 4.551L0 77.161zM-13.144 63.615l-2.636-4.566-2.598 4.569z"/><path d="M-15.767 68.201l2.623-4.586-5.234.003zM-2.69 81.616h5.38L0 77.161z"/><path d="M-5.354 77.245l2.664 4.371L0 77.161zM18.193 91.28l2.777 4.049 1.989-5.624zM20.779 85.928l-2.586 5.352 4.766-1.575z"/><path d="M18.193 91.28l2.586-5.352-5.033.822zM48.158 36.492l-1.63-4.859-2.803 4.248z"/><path d="M41.451 31.572l5.077.061-2.042-4.519zM46.528 31.633l-5.077-.061 2.274 4.309zM35.724 14.956L34.036 19.1l5.082-.303z"/><path d="M29.67 17.299l6.054-2.343-3.271-3.054zM-2.63 54.495h-5.262l2.631 4.555zM-2.63 54.495h5.26L0 49.939zM0 59.051l-2.63-4.556-2.631 4.555zM-2.63 54.495L0 59.051l2.63-4.556z"/><path d="M-2.631 63.607l-2.63-4.557-2.629 4.555zM-2.631 63.607l-2.641 4.553H0zM-5.272 68.16l2.641-4.553-5.259-.002z"/><path d="M-2.631 63.607L0 59.051l-5.261-.001zM39.118 81.08l-5.082-.303 1.688 4.144zM28.824 90.795l3.629-2.82-5.747-1.61zM32.453 87.975l-2.783-5.397-2.964 3.787z"/><path d="M29.67 82.578l2.783 5.397 3.271-3.054z"/><path d="M29.67 82.578l6.054 2.343-1.688-4.144zM29.67 82.578l-5.664-.597 2.7 4.384zM24.006 81.981l5.664.597-3.238-4.921z"/><path d="M21.143 77.44l2.863 4.541 2.426-4.324zM24.006 81.981l-3.227 3.947 5.927.437zM39.067 63.448l-1.846-4.478-3.242 4.424z"/><path d="M37.221 58.97l1.846 4.478 4.034-4.134zM15.767 68.201l2.611-4.583-5.234-.003zM10.525 68.168l5.242.033-2.623-4.586zM7.892 54.495l-2.631-4.556-2.631 4.556zM7.892 54.495H2.63l2.631 4.555zM10.522 59.051l-2.63-4.556-2.631 4.555zM15.802 22.568l-2.636 4.566 5.254-.073zM0 4.706l-4.819.151 2.248 4.534z"/><path d="M-4.819 4.857L0 4.706-2.476 0zM-5.336 13.784L0 13.872l-2.571-4.481zM-12.434 1.509l-.998 6.415 3.743-2.881zM13.432 7.924l-.998-6.415-2.745 3.534zM5.336 13.784L0 13.872l2.69 4.39zM8.074 18.001l-2.738-4.217-2.646 4.478zM-13.144 36.262l2.619-4.552-5.242-.034zM0 40.826l-2.631-4.556-2.63 4.557zM2.658 27.183h-5.316L0 31.718zM-7.932 27.152l2.578-4.52-5.249-.084z"/><path d="M-2.658 27.183l-2.696-4.551-2.578 4.52zM-22.959 10.172l-3.747 3.34 5.927.437z"/><path d="M-26.706 13.512l3.747-3.34-5.865-1.089zM-26.432 22.22l-2.211 5.02 5.021-.262zM-23.622 26.978l-5.021.262 2.555 4.53zM-13.245 17.878l-2.557 4.69 5.199-.02zM-13.166 27.134l5.234.018-2.671-4.604zM-13.166 27.134l-5.254-.073 2.653 4.615zM-10.525 31.71l-2.641-4.576-2.601 4.542z"/><path d="M-13.166 27.134l2.641 4.576 2.593-4.558zM-13.166 27.134l-2.636-4.566-2.618 4.493z"/><path d="M-15.802 22.568l2.636 4.566 2.563-4.586zM-15.802 22.568l-5.341-.131 2.723 4.624z"/><path d="M-18.42 27.061l-2.723-4.624-2.479 4.541zM-21.143 22.437l-5.289-.217 2.81 4.758zM-49.167 40.852l-.627 4.553 4.895-.382zM-48.158 36.492l-1.009 4.36 6.066-.288zM-28.778 36.43l5.203-.102-2.513-4.558zM-7.892 54.495l-2.629-4.556-2.632 4.556zM-46.528 68.245l2.803-4.249-4.433-.611zM-49.794 54.473l.627 4.553 4.268-4.172z"/><path d="M-44.899 54.854l-4.268 4.172 6.066.288zM-43.101 59.314l-5.057 4.071 4.433.611z"/><path d="M-43.101 59.314l-6.066-.288 1.009 4.359zM-45.918 49.939l-3.876-4.534-.206 4.534zM-49.794 54.473l3.876-4.534H-50zM-45.918 49.939l-3.876 4.534 4.895.381z"/><path d="M-49.794 45.405l3.876 4.534 1.019-4.916zM-45.918 49.939h4.361l-3.342-4.916zM-41.557 49.939h-4.361l1.019 4.915zM18.416 54.484l2.633-4.545h-5.268zM21.049 49.939l-2.633-4.545-2.635 4.545zM28.778 36.43l-5.203-.102 2.75 4.594z"/><path d="M28.778 36.43l-2.69-4.66-2.513 4.558zM26.088 31.77l2.69 4.66 2.456-4.525zM31.605 49.939l-2.583 4.513 5.366.047zM29.022 54.452l2.583-4.513h-5.273zM29.022 45.425l2.583 4.514 2.783-4.56z"/><path d="M31.605 49.939l-2.583-4.514-2.69 4.514zM49.167 59.026l-4.268-4.172-1.798 4.46zM39.753 45.17l-2.532-4.263-2.833 4.472zM-43.725 63.996l4.658-.548-4.034-4.134z"/><path d="M-39.067 63.448l1.846-4.478-5.88.344zM-39.067 63.448l5.088-.054-3.242-4.424zM-18.416 54.484l2.636 4.565 2.627-4.554z"/><path d="M-33.979 63.394l2.284-4.479-5.526.055z"/><path d="M-31.695 58.915l-2.693-4.416-2.833 4.471zM-21.143 77.44l5.341-.131-2.618-4.493zM-15.802 77.309l-5.341.131 2.762 4.335zM-10.522 59.051l2.63-4.556h-5.261z"/><path d="M-5.261 59.05l-5.261.001 2.632 4.554zM-15.78 59.049l5.258.002-2.631-4.556z"/><path d="M-7.892 54.495l-2.63 4.556 5.261-.001zM-13.144 63.615l2.622-4.564-5.258-.002zM-10.522 59.051l-2.622 4.564 5.254-.01zM-10.525 68.168l5.253-.008-2.618-4.555z"/><path d="M-5.272 68.16l-5.253.008 2.593 4.557zM-10.525 68.168l-2.619-4.553-2.623 4.586z"/><path d="M-13.144 63.615l2.619 4.553 2.635-4.563zM15.802 77.309l5.341.131-2.723-4.624zM7.932 72.725l-2.66-4.565-2.614 4.534z"/><path d="M7.932 72.725l2.593-4.557-5.253-.008zM-7.834 90.526l2.498-4.433-5.453.596zM-5.336 86.093l-2.498 4.433 5.263-.039zM12.434 98.368l4.28-1.306-3.282-5.109zM18.193 91.28l-1.479 5.782 4.256-1.733zM-13.432 91.953l5.598-1.427-2.955-3.837zM-7.834 90.526l-5.598 1.427 3.743 2.881zM-13.432 91.953l-2.314-5.203-2.447 4.53z"/><path d="M-15.746 86.75l2.314 5.203 2.643-5.264zM41.451 31.572l-2.384 4.858 4.658-.549zM18.381 18.102l-5.136-.224 2.557 4.69zM29.67 17.299l4.366 1.801 1.688-4.144zM29.67 17.299l2.783-5.397-5.747 1.61zM29.67 17.299l-5.664.597 2.426 4.324z"/><path d="M24.006 17.896l5.664-.597-2.964-3.787zM26.088 31.77l-5.117-.121 2.604 4.679zM2.631 63.607l5.259-.002-2.629-4.555zM0 59.051l2.631 4.556 2.63-4.557zM5.272 68.16l-2.641-4.553L0 68.16z"/><path d="M7.89 63.605l-5.259.002 2.641 4.553z"/><path d="M-2.631 63.607h5.262L0 59.051zM2.631 63.607h-5.262L0 68.16zM28.778 63.447l-5.203.103 2.513 4.557zM23.575 63.55l5.203-.103-2.453-4.492zM43.101 59.314l.624 4.682 4.433-.611zM43.725 63.996l2.803 4.249 1.63-4.86zM43.101 59.314l5.057 4.071 1.009-4.359z"/><path d="M39.067 63.448l4.658.548-.624-4.682zM36.401 67.986l2.666-4.538-5.088-.054zM23.622 72.899l5.021-.261-2.555-4.531zM28.643 72.638l-5.021.261 2.81 4.758zM36.632 76.653l2.486 4.427 2.892-4.028z"/><path d="M39.118 81.08l-2.486-4.427-2.596 4.124zM23.622 72.899l-2.651-4.671-2.551 4.588zM23.575 63.55l-2.604 4.678 5.117-.121z"/><path d="M20.971 68.228l2.651 4.671 2.466-4.792zM20.971 68.228l2.604-4.678-5.197.068z"/><path d="M15.767 68.201l5.204.027-2.593-4.61zM20.971 68.228l-5.204-.027 2.653 4.615zM7.892 54.495l2.629-4.556h-5.26zM13.245 17.878l-2.642 4.67 5.199.02zM10.603 22.548l2.642-4.67-5.171.123zM13.166 27.134l-2.563-4.586-2.671 4.604z"/><path d="M10.603 22.548l2.563 4.586 2.636-4.566zM-2.631 36.27h5.262L0 31.718zM2.631 36.27h-5.262L0 40.826zM-4.819 4.857L-7.411.491l-2.278 4.552z"/><path d="M-9.689 5.043L-7.411.491l-5.023 1.018zM-7.411.491l2.592 4.366L-2.476 0zM0 4.706L2.476 0h-4.952zM-18.193 8.597l1.479-5.782-4.256 1.734zM-18.193 8.597l-4.766 1.575 2.18 3.777z"/><path d="M-22.959 10.172l4.766-1.575-2.777-4.048z"/><path d="M-18.193 8.597l4.761-.673-3.282-5.109zM-7.834 9.352l2.498 4.432 2.765-4.393zM-4.819 4.857l-3.015 4.495 5.263.039z"/><path d="M-7.834 9.352l3.015-4.495-4.87.186zM-5.336 13.784l-2.498-4.432-2.955 3.837z"/><path d="M-7.834 9.352l-5.598-1.428 2.643 5.265z"/><path d="M-13.432 7.924l5.598 1.428-1.855-4.309zM13.432 7.924L9.689 5.043 7.834 9.352zM13.432 7.924l3.282-5.109-4.28-1.306zM2.571 9.391L0 4.706l-2.571 4.685zM0 13.872l2.571-4.481h-5.142zM5.336 13.784L2.571 9.391 0 13.872z"/><path d="M2.571 9.391l2.765 4.393 2.498-4.432zM-18.378 36.259l-5.197.069 2.539 4.535zM-20.971 31.649l2.593 4.61 2.611-4.583z"/><path d="M-23.575 36.328l5.197-.069-2.593-4.61zM-18.378 36.259l5.234.003-2.623-4.586zM-10.525 31.71l5.253.007-2.66-4.565zM-2.658 27.183l-2.614 4.534L0 31.718zM-5.272 31.717l2.614-4.534-5.274-.031zM-5.272 31.717l2.641 4.553L0 31.718zM2.658 27.183L0 22.717l-2.658 4.466z"/><path d="M0 22.717l-5.354-.085 2.696 4.551zM-46.528 31.633l-1.63 4.859 4.433-.611zM-32.453 11.902l5.747 1.61-2.118-4.429zM-36.401 31.891l-2.666 4.539 5.088.053zM-8.074 18.001l2.738-4.217-5.453-.595zM-5.354 22.632l-2.72-4.631-2.529 4.547zM-8.074 18.001l-5.171-.123 2.642 4.67z"/><path d="M-13.245 17.878l5.171.123-2.715-4.812zM-26.706 13.512l2.7 4.384 3.227-3.947zM-21.143 22.437l-2.863-4.541-2.426 4.324zM-37.221 40.907l-5.88-.343 3.348 4.606zM-43.101 40.564l-1.798 4.459 5.146.147z"/><path d="M-43.101 40.564l4.034-4.134-4.658-.549zM-43.101 40.564l5.88.343-1.846-4.477zM-43.101 40.564l-6.066.288 4.268 4.171z"/><path d="M-48.158 36.492l5.057 4.072-.624-4.683zM-2.63 45.383L0 40.826l-5.261.001zM18.378 63.618l-2.598-4.569-2.636 4.566zM15.78 59.049l-5.258.002 2.622 4.564zM29.022 54.452l-5.322.01 2.625 4.493z"/><path d="M23.7 54.462l5.322-.01-2.69-4.513z"/><path d="M21.049 49.939l2.651 4.523 2.632-4.523zM18.416 54.484l5.284-.022-2.651-4.523zM23.7 45.415l-2.651 4.524h5.283zM23.7 45.415l5.322.01-2.697-4.503z"/><path d="M29.022 45.425l-5.322-.01 2.632 4.524zM23.7 45.415l-5.284-.021 2.633 4.545zM29.022 45.425l2.673-4.463-5.37-.04zM31.695 40.962l-2.673 4.463 5.366-.046z"/><path d="M37.221 40.907l-5.526.055 2.693 4.417zM31.695 40.962l-2.917-4.532-2.453 4.492zM44.899 54.854l1.019-4.915h-4.361zM37.221 58.97l2.532-4.262-5.365-.209zM39.753 54.708l-2.532 4.262 5.88.344z"/><path d="M39.753 54.708l5.146.146-3.342-4.915zM44.899 54.854l-5.146-.146 3.348 4.606zM-39.173 72.555l-5.313.209 2.476 4.288zM-23.7 54.462l5.284.022-2.633-4.545zM-10.521 49.939h-5.26l2.628 4.556zM-18.416 45.394l2.635 4.545 2.628-4.556z"/><path d="M-15.781 49.939h5.26l-2.632-4.556zM-15.781 49.939l-2.635-4.545-2.633 4.545zM-18.416 54.484l2.635-4.545h-5.268zM-15.781 49.939l-2.635 4.545 5.263.011zM-36.762 49.939h-4.795l1.804 4.769zM-41.557 49.939h4.795l-2.991-4.769zM-34.388 54.499l-2.374-4.56-2.991 4.769z"/><path d="M-31.605 49.939h-5.157l2.374 4.56zM-23.575 63.55l-5.203-.103 2.69 4.66z"/><path d="M-28.778 63.447l5.203.103-2.75-4.595zM-28.778 63.447l-2.917-4.532-2.284 4.479z"/><path d="M-31.695 58.915l2.917 4.532 2.453-4.492zM-34.036 80.777l-5.082.303 3.394 3.841zM-20.779 85.928l5.033.822-2.635-4.975zM-24.006 81.981l3.227 3.947 2.398-4.153zM-15.746 86.75l-5.033-.822 2.586 5.352z"/><path d="M-26.706 86.365l5.927-.437-3.227-3.947zM-15.746 86.75l2.501-4.75-5.136-.225zM-13.245 82l-2.501 4.75 4.957-.061zM-13.245 82l-2.557-4.691-2.579 4.466z"/><path d="M-15.802 77.309L-13.245 82l2.642-4.671zM-15.802 77.309l2.636-4.566-5.254.073zM-13.166 72.743l2.563 4.586 2.671-4.604z"/><path d="M-13.166 72.743l-2.601-4.542-2.653 4.615zM-13.166 72.743l-2.636 4.566 5.199.02z"/><path d="M-13.166 72.743l2.641-4.575-5.242.033zM-10.525 68.168l-2.641 4.575 5.234-.018zM20.779 85.928l-2.398-4.153-2.635 4.975z"/><path d="M18.381 81.775l5.625.206-2.863-4.541z"/><path d="M24.006 81.981l-5.625-.206 2.398 4.153zM15.802 77.309l2.579 4.466 2.762-4.335zM2.69 81.616l2.664-4.371L0 77.161z"/><path d="M5.354 77.245l-2.696-4.551L0 77.161zM8.074 81.876l-2.72-4.631-2.664 4.371zM5.354 77.245l2.72 4.631 2.529-4.547zM7.932 72.725l-2.578 4.52 5.249.084z"/><path d="M5.354 77.245l2.578-4.52-5.274-.031zM13.166 72.743l2.636 4.566 2.618-4.493zM15.767 68.201l-2.601 4.542 5.254.073z"/><path d="M13.166 72.743l2.601-4.542-5.242-.033zM15.802 77.309l-2.636-4.566-2.563 4.586z"/><path d="M7.932 72.725l5.234.018-2.641-4.575zM13.166 72.743l-5.234-.018 2.671 4.604zM5.336 86.093l2.738-4.217-5.384-.26zM0 95.172l-2.571-4.685-2.248 4.533z"/><path d="M-2.476 99.877L0 95.172l-4.819-.152zM0 95.172l2.571-4.685h-5.142zM2.571 90.487L0 95.172l4.819-.152zM0 95.172l2.476 4.705 2.343-4.857z"/><path d="M2.476 99.877L0 95.172l-2.476 4.705zM7.411 99.386l5.023-1.018-2.745-3.534z"/><path d="M4.819 95.02l2.592 4.366 2.278-4.552zM2.476 99.877l4.935-.491-2.592-4.366zM-12.434 98.368l2.745-3.534-3.743-2.881zM-20.97 95.329l4.256 1.733-1.479-5.782z"/><path d="M-16.714 97.062l3.282-5.109-4.761-.673z"/><path d="M-12.434 98.368l-.998-6.415-3.282 5.109zM36.401 31.891l2.666 4.539 2.384-4.858zM36.401 31.891l-2.571-4.453-2.596 4.467zM33.83 27.438l-5.187-.198 2.591 4.665z"/><path d="M28.643 27.24l-2.555 4.53 5.146.135zM24.006 17.896l-2.863 4.541 5.289-.217zM21.143 22.437l-5.341.131 2.618 4.493z"/><path d="M18.381 18.102l2.762 4.335 2.863-4.541z"/><path d="M21.143 22.437l-2.762-4.335-2.579 4.466zM15.767 31.676l5.204-.027-2.551-4.588z"/><path d="M13.166 27.134l2.601 4.542 2.653-4.615zM31.695 58.915l-2.673-4.463-2.697 4.503zM31.695 58.915l5.526.055-2.833-4.471z"/><path d="M29.022 54.452l2.673 4.463 2.693-4.416zM37.221 58.97l-5.526-.055 2.284 4.479z"/><path d="M28.778 63.447l2.917-4.532-5.37.04z"/><path d="M31.695 58.915l-2.917 4.532 5.201-.053z"/><path d="M31.234 67.972l5.167.014-2.422-4.592zM31.234 67.972l-2.456-4.525-2.69 4.66z"/><path d="M28.778 63.447l2.456 4.525 2.745-4.578zM36.401 67.986l-5.167-.014 2.596 4.467z"/><path d="M31.234 67.972l-2.591 4.666 5.187-.199z"/><path d="M28.643 72.638l2.591-4.666-5.146.135zM28.643 72.638l2.589 4.379 2.598-4.578z"/><path d="M29.67 82.578l1.562-5.561-4.8.64zM34.036 80.777l-2.804-3.76-1.562 5.561zM31.232 77.017l-2.589-4.379-2.211 5.019zM31.232 77.017l5.4-.364-2.802-4.214z"/><path d="M36.632 76.653l-5.4.364 2.804 3.76zM5.261 40.827l-2.63-4.557L0 40.826zM-13.432 7.924l-2.314 5.203 4.957.062zM-15.746 13.127l2.501 4.751 2.456-4.689zM-18.193 8.597l2.447 4.53 2.314-5.203z"/><path d="M-15.746 13.127l-2.447-4.53-2.586 5.352zM22.959 10.172l5.865-1.089L25 6.637zM28.824 9.083l-5.865 1.089 3.747 3.34z"/><path d="M20.97 4.549l1.989 5.623L25 6.637zM13.245 17.878l-2.456-4.689-2.715 4.812z"/><path d="M5.336 13.784l5.453-.595-2.955-3.837z"/><path d="M10.789 13.189l-5.453.595 2.738 4.217zM10.789 13.189l2.643-5.265-5.598 1.428zM2.476 0l2.343 4.857L7.411.491zM4.819 4.857l4.87.186L7.411.491z"/><path d="M9.689 5.043l-4.87-.186 3.015 4.495zM4.819 4.857L2.476 0 0 4.706z"/><path d="M2.571 9.391l2.248-4.534L0 4.706z"/><path d="M4.819 4.857L2.571 9.391l5.263-.039zM-18.416 45.394l2.636-4.566-5.256.035zM-15.78 40.828l2.627 4.555 2.631-4.557zM-13.144 36.262l-2.636 4.566 5.258-.002zM-15.78 40.828l-2.636 4.566 5.263-.011z"/><path d="M-18.378 36.259l2.598 4.569 2.636-4.566z"/><path d="M-15.78 40.828l-2.598-4.569-2.658 4.604zM-7.89 36.272l-5.254-.01 2.622 4.564z"/><path d="M-5.261 40.827l-2.629-4.555-2.632 4.554zM-13.144 36.262l5.254.01-2.635-4.562z"/><path d="M-2.631 36.27l-5.259.002 2.629 4.555zM-5.272 31.717l-2.618 4.555 5.259-.002z"/><path d="M-7.89 36.272l2.618-4.555-5.253-.007zM10.603 22.548l-5.249.084 2.578 4.52z"/><path d="M5.354 22.632l2.72-4.631-5.384.261zM5.354 22.632l-2.696 4.551 5.274-.031zM5.354 22.632l5.249-.084-2.529-4.547z"/><path d="M5.354 22.632L0 22.717l2.658 4.466zM0 22.717l5.354-.085-2.664-4.37zM-29.67 17.299l-6.054-2.343 1.688 4.144zM-44.486 27.114l5.313.208-2.837-4.497zM-31.234 31.905l2.456 4.525 2.69-4.66zM-28.643 27.24l-2.591 4.665 5.146-.135z"/><path d="M-28.778 36.43l-2.456-4.525-2.745 4.578zM-31.234 31.905l-5.167-.014 2.422 4.592zM-2.69 18.262L0 22.717l2.69-4.455zM0 13.872l-2.69 4.39h5.38z"/><path d="M-5.336 13.784l2.646 4.478L0 13.872zM0 22.717l-2.69-4.455-2.664 4.37z"/><path d="M-2.69 18.262l-5.384-.261 2.72 4.631z"/><path d="M-8.074 18.001l5.384.261-2.646-4.478zM-2.63 54.495l-2.631-4.556-2.631 4.556z"/><path d="M-5.261 49.939l2.631 4.556L0 49.939zM-5.261 49.939h-5.26l2.629 4.556zM-2.63 45.383l-2.631 4.556H0zM13.153 54.495H7.892l2.63 4.556zM13.153 54.495l5.263-.011-2.635-4.545z"/><path d="M10.521 49.939l2.632 4.556 2.628-4.556z"/><path d="M13.153 54.495l-2.632-4.556-2.629 4.556zM13.153 54.495l2.627 4.554 2.636-4.565z"/><path d="M15.78 59.049l-2.627-4.554-2.631 4.556zM23.575 63.55l-2.539-4.535-2.658 4.603zM21.036 59.015l2.539 4.535 2.75-4.595z"/><path d="M15.78 59.049l5.256-.034-2.62-4.531zM21.036 59.015l-5.256.034 2.598 4.569zM21.036 59.015l2.664-4.553-5.284.022z"/><path d="M23.7 54.462l-2.664 4.553 5.289-.06zM49.794 45.405l-3.876 4.534H50zM49.794 54.473l-4.895.381 4.268 4.172z"/><path d="M49.794 54.473l-3.876-4.534-1.019 4.915z"/><path d="M45.918 49.939l3.876 4.534.206-4.534zM36.762 49.939l2.991-4.769-5.365.209zM36.762 49.939h-5.157l2.783 4.56z"/><path d="M31.605 49.939h5.157l-2.374-4.56zM39.753 45.17l-2.991 4.769h4.795zM36.762 49.939l2.991 4.769 1.804-4.769z"/><path d="M39.753 54.708l-2.991-4.769-2.374 4.56zM-28.643 72.638l-5.187-.199 2.598 4.578zM-41.451 68.306l-5.077-.061 2.042 4.519zM-41.451 68.306l2.384-4.858-4.658.548z"/><path d="M-46.528 68.245l5.077.061-2.274-4.31zM-39.173 72.555l-2.278-4.249-3.035 4.458zM-15.78 59.049l-5.256-.034 2.658 4.603z"/><path d="M-21.036 59.015l-2.539 4.535 5.197.068z"/><path d="M-23.575 63.55l2.539-4.535-5.289-.06z"/><path d="M-18.416 54.484l-2.62 4.531 5.256.034z"/><path d="M-23.7 54.462l2.664 4.553 2.62-4.531zM-21.036 59.015l-2.664-4.553-2.625 4.493zM-29.022 54.452l-2.583-4.513-2.783 4.56zM-29.022 54.452l-2.673 4.463 5.37.04z"/><path d="M-31.695 58.915l2.673-4.463-5.366.047zM-23.7 54.462l-5.322-.01 2.697 4.503zM-23.7 45.415l5.284-.021-2.62-4.531zM-18.416 45.394l-5.284.021 2.651 4.524zM-31.695 40.962l2.917-4.532-5.201.053z"/><path d="M-37.221 40.907l5.526.055-2.284-4.479zM-29.67 82.578l2.964 3.787 2.7-4.384zM-29.67 82.578l3.238-4.921-4.8-.64z"/><path d="M-29.67 82.578l5.664-.597-2.426-4.324zM-34.036 80.777l4.366 1.801-1.562-5.561zM-22.959 89.705l1.989 5.624 2.777-4.049zM-22.959 89.705l-5.865 1.09L-25 93.24z"/><path d="M-20.97 95.329l-1.989-5.624L-25 93.24zM-22.959 89.705l-3.747-3.34-2.118 4.43z"/><path d="M-22.959 89.705l2.18-3.777-5.927.437zM-20.779 85.928l-2.18 3.777 4.766 1.575zM-8.074 81.876l5.384-.26-2.664-4.371z"/><path d="M-8.074 81.876l2.738 4.217 2.646-4.477zM-10.603 77.329l2.529 4.547 2.72-4.631z"/><path d="M-5.336 86.093l-2.738-4.217-2.715 4.813z"/><path d="M-13.245 82l5.171-.124-2.529-4.547z"/><path d="M-8.074 81.876l-5.171.124 2.456 4.689zM8.074 81.876l5.171.124-2.642-4.671z"/><path d="M13.245 82l2.557-4.691-5.199.02zM13.245 82l5.136-.225-2.579-4.466zM18.381 81.775L13.245 82l2.501 4.75zM13.432 91.953l4.761-.673-2.447-4.53z"/><path d="M13.432 91.953l3.282 5.109 1.479-5.782zM12.434 98.368l.998-6.415-3.743 2.881zM-2.69 81.616L0 86.005l2.69-4.389zM0 86.005l-5.336.088 2.765 4.394z"/><path d="M-5.336 86.093L0 86.005l-2.69-4.389zM2.571 90.487L0 86.005l-2.571 4.482z"/><path d="M5.336 86.093L0 86.005l2.571 4.482zM0 86.005l5.336.088-2.646-4.477zM36.632 23.224l5.378-.399-2.892-4.028z"/><path d="M34.036 19.1l2.596 4.124 2.486-4.427zM33.979 36.483l-2.284 4.479 5.526-.055z"/><path d="M39.067 36.43l-5.088.053 3.242 4.424zM28.778 36.43l5.201.053-2.745-4.578zM31.695 40.962l2.284-4.479-5.201-.053z"/><path d="M36.401 31.891l-2.422 4.592 5.088-.053zM33.979 36.483l2.422-4.592-5.167.014zM23.622 26.978l5.021.262-2.211-5.02zM20.971 31.649l2.651-4.671-5.202.083zM23.622 26.978l-2.651 4.671 5.117.121z"/><path d="M28.643 27.24l-5.021-.262 2.466 4.792z"/><path d="M21.143 22.437l2.479 4.541 2.81-4.758z"/><path d="M23.622 26.978l-2.479-4.541-2.723 4.624zM23.575 36.328l-2.539 4.535 5.289.059zM23.7 45.415l-2.664-4.552-2.62 4.531z"/><path d="M21.036 40.863l2.664 4.552 2.625-4.493zM2.658 27.183l2.614 4.534 2.66-4.565z"/><path d="M5.272 31.717l-2.614-4.534L0 31.718zM2.631 36.27l2.641-4.553L0 31.718zM41.451 68.306l2.274-4.31-4.658-.548zM43.725 63.996l-2.274 4.31 5.077-.061zM36.401 67.986l5.05.32-2.384-4.858zM41.451 68.306l3.035 4.458 2.042-4.519zM18.416 45.394l-5.263-.011 2.628 4.556zM13.153 45.383l-2.632 4.556h5.26zM-2.63 45.383h5.26L0 40.826zM2.63 45.383h-5.26L0 49.939zM5.261 49.939L2.63 45.383 0 49.939z"/><path d="M2.63 45.383l2.631-4.556L0 40.826zM-24.006 17.896l5.625.206-2.398-4.153zM-18.381 18.102l-2.762 4.335 5.341.131z"/><path d="M-13.245 17.878l-5.136.224 2.579 4.466zM-18.381 18.102l-5.625-.206 2.863 4.541zM-15.746 13.127l-2.635 4.975 5.136-.224z"/><path d="M-18.381 18.102l2.635-4.975-5.033.822zM18.381 18.102l-2.635-4.975-2.501 4.751zM10.789 13.189l4.957-.062-2.314-5.203z"/><path d="M15.746 13.127l-4.957.062 2.456 4.689zM-39.118 18.797l5.082.303-1.688-4.144zM-31.232 22.861l2.589 4.379 2.211-5.02zM-39.067 36.43l-2.384-4.858-2.274 4.309z"/><path d="M-41.451 31.572l-5.077.061 2.803 4.248z"/><path d="M-46.528 31.633l5.077-.061-3.035-4.458zM-36.401 31.891l-5.05-.319 2.384 4.858z"/><path d="M-39.173 27.322l-2.278 4.25 5.05.319z"/><path d="M-41.451 31.572l2.278-4.25-5.313-.208zM-13.153 45.383l5.261-.001-2.63-4.556zM-7.892 45.382l2.631-4.555-5.261-.001z"/><path d="M-10.521 49.939l2.629-4.557-5.261.001zM-7.892 45.382l5.262.001-2.631-4.556zM-7.892 45.382l2.631 4.557 2.631-4.556z"/><path d="M-5.261 49.939l-2.631-4.557-2.629 4.557zM48.158 36.492l-4.433-.611-.624 4.683zM-39.118 81.08l2.486-4.427-5.378.399z"/><path d="M-36.632 76.653l-2.541-4.098-2.837 4.497zM-36.632 76.653l2.596 4.124 2.804-3.76z"/><path d="M-34.036 80.777l-2.596-4.124-2.486 4.427zM-36.632 76.653l2.802-4.214-5.343.116z"/><path d="M-33.83 72.439l-2.802 4.214 5.4.364zM-28.778 63.447l-2.456 4.525 5.146.135z"/><path d="M-31.234 67.972l2.591 4.666 2.555-4.531zM-31.234 67.972l2.456-4.525-5.201-.053z"/><path d="M-31.234 67.972l-2.596 4.467 5.187.199zM-26.332 49.939l-2.69-4.514-2.583 4.514zM-29.022 54.452l2.69-4.513h-5.273z"/><path d="M-26.332 49.939l2.632 4.523 2.651-4.523z"/><path d="M-26.332 49.939l-2.69 4.513 5.322.01zM-26.332 49.939l2.632-4.524-5.322.01zM-23.7 45.415l-2.632 4.524h5.283z"/><path d="M-23.7 45.415l-2.625-4.493-2.697 4.503z"/><path d="M-23.575 36.328l-2.75 4.594 5.289-.059zM-28.778 36.43l2.453 4.492 2.75-4.594z"/><path d="M-26.325 40.922l2.625 4.493 2.664-4.552zM-26.325 40.922l-5.37.04 2.673 4.463z"/><path d="M-31.695 40.962l5.37-.04-2.453-4.492zM-29.022 45.425l-5.366-.046 2.783 4.56zM-36.762 49.939l2.374-4.56-5.365-.209z"/><path d="M-34.388 45.379l-2.833-4.472-2.532 4.263zM-34.388 45.379l-2.374 4.56h5.157z"/><path d="M-34.388 45.379l2.693-4.417-5.526-.055zM-31.695 40.962l-2.693 4.417 5.366.046zM-26.706 86.365l-5.747 1.61 3.629 2.82z"/><path d="M-35.724 84.921l3.271 3.054 2.783-5.397z"/><path d="M-35.724 84.921l6.054-2.343-4.366-1.801z"/><path d="M-29.67 82.578l-2.783 5.397 5.747-1.61zM7.834 90.526l-5.263-.039 2.248 4.533zM7.834 90.526L4.819 95.02l4.87-.186z"/><path d="M7.834 90.526l-2.498-4.433-2.765 4.394zM13.432 91.953l-5.598-1.427 1.855 4.308zM31.232 22.861l-1.562-5.562-3.238 4.921z"/><path d="M28.643 27.24l2.589-4.379-4.8-.641zM29.67 17.299l1.562 5.562 2.804-3.761zM31.232 22.861l-2.589 4.379 5.187.198z"/><path d="M36.632 23.224l-5.4-.363 2.598 4.577z"/><path d="M31.232 22.861l5.4.363-2.596-4.124zM42.01 22.825l-2.837 4.497 5.313-.208zM39.173 27.322l-2.772 4.569 5.05-.319z"/><path d="M39.173 27.322l2.278 4.25 3.035-4.458zM36.401 31.891l2.772-4.569-5.343.116zM36.632 23.224l2.541 4.098 2.837-4.497z"/><path d="M39.173 27.322l-2.541-4.098-2.802 4.214zM39.173 72.555l-2.772-4.569-2.571 4.453zM36.632 76.653l2.541-4.098-5.343-.116zM39.173 72.555l-2.541 4.098 5.378.399zM44.486 72.764l-5.313-.209 2.837 4.497zM41.451 68.306l-2.278 4.249 5.313.209z"/><path d="M39.173 72.555l2.278-4.249-5.05-.32zM13.153 45.383l-5.261-.001 2.629 4.557z"/><path d="M10.521 49.939l-2.629-4.557-2.631 4.557z"/><path d="M2.63 45.383l5.262-.001-2.631-4.555z"/><path d="M7.892 45.382l-5.262.001 2.631 4.556zM20.779 13.949l-2.398 4.153 5.625-.206z"/><path d="M20.779 13.949l3.227 3.947 2.7-4.384z"/><path d="M22.959 10.172l-2.18 3.777 5.927-.437zM20.779 13.949l-5.033-.822 2.635 4.975zM-24.006 17.896l-5.664-.597 3.238 4.921zM-32.453 11.902l2.783 5.397 2.964-3.787z"/><path d="M-29.67 17.299l5.664.597-2.7-4.384zM-29.67 17.299l-2.783-5.397-3.271 3.054z"/><path d="M-31.232 22.861l1.562-5.562-4.366 1.801z"/><path d="M-29.67 17.299l-1.562 5.562 4.8-.641zM-33.83 27.438l-5.343-.116 2.772 4.569zM-33.83 27.438l2.596 4.467 2.591-4.665zM-31.234 31.905l-2.596-4.467-2.571 4.453z"/><path d="M-31.232 22.861l-2.598 4.577 5.187-.198zM39.067 36.43l4.034 4.134.624-4.683zM39.753 45.17l3.348-4.606-5.88.343z"/><path d="M43.101 40.564l-4.034-4.134-1.846 4.477zM48.158 36.492l-5.057 4.072 6.066.288zM-33.83 72.439l-2.571-4.453-2.772 4.569z"/><path d="M-41.451 68.306l5.05-.32-2.666-4.538zM-39.067 63.448l2.666 4.538 2.422-4.592zM-36.401 67.986l-5.05.32 2.278 4.249z"/><path d="M-31.234 67.972l-5.167.014 2.571 4.453z"/><path d="M-36.401 67.986l5.167-.014-2.745-4.578zM5.336 86.093l5.453.596-2.715-4.813zM13.245 82l-2.456 4.689 4.957.061z"/><path d="M10.789 86.689L13.245 82l-5.171-.124zM10.789 86.689l2.643 5.264 2.314-5.203zM10.789 86.689l-2.955 3.837 5.598 1.427z"/><path d="M7.834 90.526l2.955-3.837-5.453-.596zM10.525 31.71l5.242-.034-2.601-4.542z"/><path d="M10.525 31.71l2.641-4.576-5.234.018z"/><path d="M5.272 31.717l5.253-.007-2.593-4.558zM10.525 31.71l2.619 4.552 2.623-4.586zM15.767 31.676l2.611 4.583 2.593-4.61zM20.971 31.649l-2.593 4.61 5.197.069z"/><path d="M18.378 36.259l2.658 4.604 2.539-4.535zM13.144 36.262l5.234-.003-2.611-4.583zM10.522 40.826l-2.63 4.556 5.261.001z"/><path d="M7.892 45.382l2.63-4.556-5.261.001zM13.432 7.924l4.761.673-1.479-5.782zM18.193 8.597l2.777-4.048-4.256-1.734z"/><path d="M18.193 8.597l4.766 1.575-1.989-5.623zM15.746 13.127l2.447-4.53-4.761-.673z"/><path d="M20.779 13.949l-2.586-5.352-2.447 4.53z"/><path d="M18.193 8.597l2.586 5.352 2.18-3.777zM-36.632 23.224l-2.486-4.427-2.892 4.028zM-39.173 27.322l2.541-4.098-5.378-.399z"/><path d="M-39.118 18.797l2.486 4.427 2.596-4.124zM-36.632 23.224l5.4-.363-2.804-3.761zM-36.632 23.224l2.802 4.214 2.598-4.577z"/><path d="M-33.83 27.438l-2.802-4.214-2.541 4.098zM44.899 45.023l-5.146.147 1.804 4.769z"/><path d="M45.918 49.939l-1.019-4.916-3.342 4.916z"/><path d="M49.794 45.405l-4.895-.382 1.019 4.916zM49.167 40.852l-4.268 4.171 4.895.382z"/><path d="M43.101 40.564l1.798 4.459 4.268-4.171zM44.899 45.023l-1.798-4.459-3.348 4.606zM18.378 36.259l-2.598 4.569 5.256.035zM21.036 40.863l-5.256-.035 2.636 4.566zM15.78 40.828l-2.627 4.555 5.263.011zM15.78 40.828l2.598-4.569-5.234.003z"/><path d="M10.522 40.826l5.258.002-2.636-4.566zM15.78 40.828l-5.258-.002 2.631 4.557zM7.89 36.272l2.635-4.562-5.253.007z"/><path d="M5.261 40.827l2.629-4.555-5.259-.002z"/><path d="M7.89 36.272l-2.618-4.555-2.641 4.553zM10.525 31.71L7.89 36.272l5.254-.01zM10.522 40.826L7.89 36.272l-2.629 4.555z"/><path d="M7.89 36.272l2.632 4.554 2.622-4.564z"/></svg>