<svg xmlns="http://www.w3.org/2000/svg" viewBox="-50 -49.939 100 99.877"><style>path{fill:#c8c5bd;stroke:navy;stroke-width:.5;stroke-linejoin:bevel}</style><path d="M-20.971-18.29l-2.651-4.671-2.466 4.793zM-7.411 49.448l4.935.491-2.343-4.858zM-7.411 49.448l-2.278-4.553-2.745 3.534z"/><path d="M-9.689 44.895l2.278 4.553 2.592-4.367zM22.959 39.766l5.865 1.09-2.118-4.43z"/><path d="M28.824 40.856l-5.865-1.09L25 43.301zM22.959 39.766L20.97 45.39 25 43.301zM2.658 22.755l2.614-4.534H0zM-18.42-22.878l-2.551 4.588 5.204.027z"/><path d="M-20.971-18.29l2.551-4.588-5.202-.083zM-37.221 9.032l-2.532-4.263-3.348 4.606z"/><path d="M-39.753 4.769l-5.146.146 1.798 4.46zM-26.432 27.719l-2.211-5.02-2.589 4.379z"/><path d="M-24.006 32.042l2.863-4.541-5.289.218zM-21.143 27.501l-2.863 4.541 5.625-.205zM-15.767 18.263l-5.204.027 2.551 4.588zM-20.971 18.29l5.204-.027-2.611-4.584zM-2.571 40.548l-5.263.039 3.015 4.494zM-7.834 40.587l-1.855 4.308 4.87.186zM32.453-38.037l-3.629-2.819-2.118 4.43zM2.63 4.556L0 9.113l5.261-.001zM20.779 35.99l2.18 3.776 3.747-3.34zM23.622 22.961l-2.479 4.54 5.289.218z"/><path d="M21.143 27.501l2.479-4.54-5.202-.083zM10.525 18.229L7.89 13.667l-2.618 4.554z"/><path d="M7.89 13.667l2.635 4.562 2.619-4.553zM2.63 4.556L5.261 0H0zM7.89 13.667l2.632-4.554-5.261-.001z"/><path d="M10.522 9.113L7.89 13.667l5.254.009zM-12.434-48.429l-4.28 1.305 3.282 5.11zM9.689-44.895l2.745-3.534-5.023-1.019zM-22.959-39.766l1.989-5.624-4.03 2.089zM-28.824-40.856l5.865 1.09L-25-43.301zM-39.067-13.509l1.846 4.477 3.242-4.424zM-23.575-13.611l2.604-4.679-5.117.122zM-44.899-4.915L-41.557 0l1.804-4.769zM-39.753 4.769L-41.557 0l-3.342 4.915zM-34.388 4.56l-5.365.209 2.532 4.263zM-20.971 18.29l-2.604-4.679-2.513 4.557z"/><path d="M-23.575 13.611l2.604 4.679 2.593-4.611zM-28.643 22.699l5.021.262-2.466-4.793zM-23.622 22.961l2.651-4.671-5.117-.122zM-20.971 18.29l-2.651 4.671 5.202-.083z"/><path d="M-23.622 22.961l-5.021-.262 2.211 5.02zM-21.143 27.501l-2.479-4.54-2.81 4.758zM-23.622 22.961l2.479 4.54 2.723-4.623zM-10.603 27.391l5.249-.085-2.578-4.52zM2.658 22.755h-5.316L0 27.222zM-5.272 18.221l2.614 4.534L0 18.221z"/><path d="M-2.658 22.755h5.316L0 18.221zM-2.658 22.755l-2.614-4.534-2.66 4.565zM-5.354 27.306l2.696-4.551-5.274.031z"/><path d="M-2.658 22.755l-2.696 4.551L0 27.222zM-13.144 13.676l-2.636-4.565-2.598 4.568zM-15.767 18.263l2.623-4.587-5.234.003zM-2.69 31.677h5.38L0 27.222z"/><path d="M-5.354 27.306l2.664 4.371L0 27.222zM18.193 41.341l2.777 4.049 1.989-5.624z"/><path d="M20.779 35.99l-2.586 5.351 4.766-1.575z"/><path d="M18.193 41.341l2.586-5.351-5.033.821zM48.158-13.447l-1.63-4.859-2.803 4.249zM41.451-18.367l5.077.061-2.042-4.519zM46.528-18.306l-5.077-.061 2.274 4.31zM35.724-34.983l-1.688 4.145 5.082-.304zM29.67-32.639l6.054-2.344-3.271-3.054zM-2.63 4.556h-5.262l2.631 4.556zM-2.63 4.556h5.26L0 0z"/><path d="M0 9.113l-2.63-4.557-2.631 4.556z"/><path d="M-2.63 4.556L0 9.113l2.63-4.557zM-2.631 13.669l-2.63-4.557-2.629 4.555zM-2.631 13.669l-2.641 4.552H0zM-5.272 18.221l2.641-4.552-5.259-.002z"/><path d="M-2.631 13.669L0 9.113l-5.261-.001zM39.118 31.142l-5.082-.304 1.688 4.145zM28.824 40.856l3.629-2.819-5.747-1.611zM32.453 38.037l-2.783-5.398-2.964 3.787z"/><path d="M29.67 32.639l2.783 5.398 3.271-3.054z"/><path d="M29.67 32.639l6.054 2.344-1.688-4.145zM29.67 32.639l-5.664-.597 2.7 4.384z"/><path d="M24.006 32.042l5.664.597-3.238-4.92z"/><path d="M21.143 27.501l2.863 4.541 2.426-4.323zM24.006 32.042l-3.227 3.948 5.927.436zM39.067 13.509l-1.846-4.477-3.242 4.424z"/><path d="M37.221 9.032l1.846 4.477 4.034-4.134zM15.767 18.263l2.611-4.584-5.234-.003z"/><path d="M10.525 18.229l5.242.034-2.623-4.587zM7.892 4.556L5.261 0 2.63 4.556zM7.892 4.556H2.63l2.631 4.556z"/><path d="M10.522 9.113l-2.63-4.557-2.631 4.556zM15.802-27.371l-2.636 4.567 5.254-.074zM0-45.233l-4.819.152 2.248 4.533zM-4.819-45.081L0-45.233l-2.476-4.706z"/><path d="M-5.336-36.155L0-36.066l-2.571-4.482zM-12.434-48.429l-.998 6.415 3.743-2.881zM13.432-42.014l-.998-6.415-2.745 3.534zM5.336-36.155L0-36.066l2.69 4.389zM8.074-31.937l-2.738-4.218-2.646 4.478zM-13.144-13.676l2.619-4.553-5.242-.034zM0-9.113l-2.631-4.556-2.63 4.557zM2.658-22.755h-5.316L0-18.221zM-7.932-22.786l2.578-4.52-5.249-.085zM-2.658-22.755l-2.696-4.551-2.578 4.52zM-22.959-39.766l-3.747 3.34 5.927.436zM-26.706-36.426l3.747-3.34-5.865-1.09zM-26.432-27.719l-2.211 5.02 5.021-.262zM-23.622-22.961l-5.021.262 2.555 4.531z"/><path d="M-13.245-32.061l-2.557 4.69 5.199-.02zM-13.166-22.804l5.234.018-2.671-4.605zM-13.166-22.804l-5.254-.074 2.653 4.615zM-10.525-18.229l-2.641-4.575-2.601 4.541z"/><path d="M-13.166-22.804l2.641 4.575 2.593-4.557zM-13.166-22.804l-2.636-4.567-2.618 4.493z"/><path d="M-15.802-27.371l2.636 4.567 2.563-4.587zM-15.802-27.371l-5.341-.13 2.723 4.623z"/><path d="M-18.42-22.878l-2.723-4.623-2.479 4.54zM-21.143-27.501l-5.289-.218 2.81 4.758zM-49.167-9.087l-.627 4.553 4.895-.381zM-48.158-13.447l-1.009 4.36 6.066-.288zM-28.778-13.509l5.203-.102-2.513-4.557zM-7.892 4.556L-10.521 0l-2.632 4.556zM-46.528 18.306l2.803-4.249-4.433-.61zM-49.794 4.534l.627 4.553 4.268-4.172z"/><path d="M-44.899 4.915l-4.268 4.172 6.066.288zM-43.101 9.375l-5.057 4.072 4.433.61z"/><path d="M-43.101 9.375l-6.066-.288 1.009 4.36zM-45.918 0l-3.876-4.534L-50 0zM-49.794 4.534L-45.918 0H-50zM-45.918 0l-3.876 4.534 4.895.381z"/><path d="M-49.794-4.534L-45.918 0l1.019-4.915zM-45.918 0h4.361l-3.342-4.915zM-41.557 0h-4.361l1.019 4.915zM18.416 4.545L21.049 0h-5.268zM21.049 0l-2.633-4.545L15.781 0zM28.778-13.509l-5.203-.102 2.75 4.594z"/><path d="M28.778-13.509l-2.69-4.659-2.513 4.557zM26.088-18.168l2.69 4.659 2.456-4.524zM31.605 0l-2.583 4.513 5.366.047z"/><path d="M29.022 4.513L31.605 0h-5.273zM29.022-4.513L31.605 0l2.783-4.56z"/><path d="M31.605 0l-2.583-4.513L26.332 0zM49.167 9.087l-4.268-4.172-1.798 4.46zM39.753-4.769l-2.532-4.263-2.833 4.472zM-43.725 14.057l4.658-.548-4.034-4.134z"/><path d="M-39.067 13.509l1.846-4.477-5.88.343zM-39.067 13.509l5.088-.053-3.242-4.424zM-18.416 4.545l2.636 4.566 2.627-4.555z"/><path d="M-33.979 13.456l2.284-4.479-5.526.055z"/><path d="M-31.695 8.977l-2.693-4.417-2.833 4.472zM-21.143 27.501l5.341-.13-2.618-4.493z"/><path d="M-15.802 27.371l-5.341.13 2.762 4.336zM-10.522 9.113l2.63-4.557h-5.261zM-5.261 9.112l-5.261.001 2.632 4.554z"/><path d="M-15.78 9.111l5.258.002-2.631-4.557z"/><path d="M-7.892 4.556l-2.63 4.557 5.261-.001zM-13.144 13.676l2.622-4.563-5.258-.002z"/><path d="M-10.522 9.113l-2.622 4.563 5.254-.009zM-10.525 18.229l5.253-.008-2.618-4.554zM-5.272 18.221l-5.253.008 2.593 4.557zM-10.525 18.229l-2.619-4.553-2.623 4.587z"/><path d="M-13.144 13.676l2.619 4.553 2.635-4.562zM15.802 27.371l5.341.13-2.723-4.623zM7.932 22.786l-2.66-4.565-2.614 4.534z"/><path d="M7.932 22.786l2.593-4.557-5.253-.008zM-7.834 40.587l2.498-4.432-5.453.595z"/><path d="M-5.336 36.155l-2.498 4.432 5.263-.039zM12.434 48.429l4.28-1.305-3.282-5.11zM18.193 41.341l-1.479 5.783 4.256-1.734zM-13.432 42.014l5.598-1.427-2.955-3.837zM-7.834 40.587l-5.598 1.427 3.743 2.881zM-13.432 42.014l-2.314-5.203-2.447 4.53z"/><path d="M-15.746 36.811l2.314 5.203 2.643-5.264zM41.451-18.367l-2.384 4.858 4.658-.548zM18.381-31.837l-5.136-.224 2.557 4.69zM29.67-32.639l4.366 1.801 1.688-4.145zM29.67-32.639l2.783-5.398-5.747 1.611zM29.67-32.639l-5.664.597 2.426 4.323z"/><path d="M24.006-32.042l5.664-.597-2.964-3.787zM26.088-18.168l-5.117-.122 2.604 4.679zM2.631 13.669l5.259-.002-2.629-4.555zM0 9.113l2.631 4.556 2.63-4.557zM5.272 18.221l-2.641-4.552L0 18.221z"/><path d="M7.89 13.667l-5.259.002 2.641 4.552z"/><path d="M-2.631 13.669h5.262L0 9.113zM2.631 13.669h-5.262L0 18.221zM28.778 13.509l-5.203.102 2.513 4.557z"/><path d="M23.575 13.611l5.203-.102-2.453-4.492zM43.101 9.375l.624 4.682 4.433-.61zM43.725 14.057l2.803 4.249 1.63-4.859zM43.101 9.375l5.057 4.072 1.009-4.36z"/><path d="M39.067 13.509l4.658.548-.624-4.682zM36.401 18.047l2.666-4.538-5.088-.053zM23.622 22.961l5.021-.262-2.555-4.531zM28.643 22.699l-5.021.262 2.81 4.758zM36.632 26.714l2.486 4.428 2.892-4.028z"/><path d="M39.118 31.142l-2.486-4.428-2.596 4.124zM23.622 22.961l-2.651-4.671-2.551 4.588zM23.575 13.611l-2.604 4.679 5.117-.122z"/><path d="M20.971 18.29l2.651 4.671 2.466-4.793zM20.971 18.29l2.604-4.679-5.197.068zM15.767 18.263l5.204.027-2.593-4.611z"/><path d="M20.971 18.29l-5.204-.027 2.653 4.615zM7.892 4.556L10.521 0h-5.26zM13.245-32.061l-2.642 4.67 5.199.02z"/><path d="M10.603-27.391l2.642-4.67-5.171.124zM13.166-22.804l-2.563-4.587-2.671 4.605z"/><path d="M10.603-27.391l2.563 4.587 2.636-4.567zM-2.631-13.669h5.262L0-18.221zM2.631-13.669h-5.262L0-9.113zM-4.819-45.081l-2.592-4.367-2.278 4.553z"/><path d="M-9.689-44.895l2.278-4.553-5.023 1.019zM-7.411-49.448l2.592 4.367 2.343-4.858z"/><path d="M0-45.233l2.476-4.706h-4.952zM-18.193-41.341l1.479-5.783-4.256 1.734zM-18.193-41.341l-4.766 1.575 2.18 3.776z"/><path d="M-22.959-39.766l4.766-1.575-2.777-4.049z"/><path d="M-18.193-41.341l4.761-.673-3.282-5.11zM-7.834-40.587l2.498 4.432 2.765-4.393z"/><path d="M-4.819-45.081l-3.015 4.494 5.263.039z"/><path d="M-7.834-40.587l3.015-4.494-4.87.186zM-5.336-36.155l-2.498-4.432-2.955 3.837z"/><path d="M-7.834-40.587l-5.598-1.427 2.643 5.264z"/><path d="M-13.432-42.014l5.598 1.427-1.855-4.308zM13.432-42.014l-3.743-2.881-1.855 4.308zM13.432-42.014l3.282-5.11-4.28-1.305zM2.571-40.548L0-45.233l-2.571 4.685z"/><path d="M0-36.066l2.571-4.482h-5.142zM5.336-36.155l-2.765-4.393L0-36.066z"/><path d="M2.571-40.548l2.765 4.393 2.498-4.432zM-18.378-13.679l-5.197.068 2.539 4.535z"/><path d="M-20.971-18.29l2.593 4.611 2.611-4.584z"/><path d="M-23.575-13.611l5.197-.068-2.593-4.611zM-18.378-13.679l5.234.003-2.623-4.587zM-10.525-18.229l5.253.008-2.66-4.565zM-2.658-22.755l-2.614 4.534H0z"/><path d="M-5.272-18.221l2.614-4.534-5.274-.031zM-5.272-18.221l2.641 4.552L0-18.221zM2.658-22.755L0-27.222l-2.658 4.467z"/><path d="M0-27.222l-5.354-.084 2.696 4.551zM-46.528-18.306l-1.63 4.859 4.433-.61zM-32.453-38.037l5.747 1.611-2.118-4.43zM-36.401-18.047l-2.666 4.538 5.088.053zM-8.074-31.937l2.738-4.218-5.453-.595zM-5.354-27.306l-2.72-4.631-2.529 4.546z"/><path d="M-8.074-31.937l-5.171-.124 2.642 4.67zM-13.245-32.061l5.171.124-2.715-4.813zM-26.706-36.426l2.7 4.384 3.227-3.948zM-21.143-27.501l-2.863-4.541-2.426 4.323zM-37.221-9.032l-5.88-.343 3.348 4.606z"/><path d="M-43.101-9.375l-1.798 4.46 5.146.146zM-43.101-9.375l4.034-4.134-4.658-.548zM-43.101-9.375l5.88.343-1.846-4.477z"/><path d="M-43.101-9.375l-6.066.288 4.268 4.172zM-48.158-13.447l5.057 4.072-.624-4.682zM-2.63-4.556L0-9.113l-5.261.001zM18.378 13.679L15.78 9.111l-2.636 4.565z"/><path d="M15.78 9.111l-5.258.002 2.622 4.563zM29.022 4.513l-5.322.011 2.625 4.493z"/><path d="M23.7 4.524l5.322-.011L26.332 0z"/><path d="M21.049 0L23.7 4.524 26.332 0z"/><path d="M18.416 4.545l5.284-.021L21.049 0zM23.7-4.524L21.049 0h5.283zM23.7-4.524l5.322.011-2.697-4.504z"/><path d="M29.022-4.513L23.7-4.524 26.332 0zM23.7-4.524l-5.284-.021L21.049 0zM29.022-4.513l2.673-4.464-5.37-.04zM31.695-8.977l-2.673 4.464 5.366-.047z"/><path d="M37.221-9.032l-5.526.055 2.693 4.417z"/><path d="M31.695-8.977l-2.917-4.532-2.453 4.492zM44.899 4.915L45.918 0h-4.361zM37.221 9.032l2.532-4.263-5.365-.209zM39.753 4.769l-2.532 4.263 5.88.343z"/><path d="M39.753 4.769l5.146.146L41.557 0zM44.899 4.915l-5.146-.146 3.348 4.606zM-39.173 22.616l-5.313.209 2.476 4.289zM-23.7 4.524l5.284.021L-21.049 0zM-10.521 0h-5.26l2.628 4.556zM-18.416-4.545L-15.781 0l2.628-4.556z"/><path d="M-15.781 0h5.26l-2.632-4.556zM-15.781 0l-2.635-4.545L-21.049 0zM-18.416 4.545L-15.781 0h-5.268zM-15.781 0l-2.635 4.545 5.263.011zM-36.762 0h-4.795l1.804 4.769zM-41.557 0h4.795l-2.991-4.769zM-34.388 4.56L-36.762 0l-2.991 4.769z"/><path d="M-31.605 0h-5.157l2.374 4.56zM-23.575 13.611l-5.203-.102 2.69 4.659z"/><path d="M-28.778 13.509l5.203.102-2.75-4.594zM-28.778 13.509l-2.917-4.532-2.284 4.479z"/><path d="M-31.695 8.977l2.917 4.532 2.453-4.492zM-34.036 30.838l-5.082.304 3.394 3.841zM-20.779 35.99l5.033.821-2.635-4.974z"/><path d="M-24.006 32.042l3.227 3.948 2.398-4.153zM-15.746 36.811l-5.033-.821 2.586 5.351z"/><path d="M-26.706 36.426l5.927-.436-3.227-3.948zM-15.746 36.811l2.501-4.75-5.136-.224zM-13.245 32.061l-2.501 4.75 4.957-.061zM-13.245 32.061l-2.557-4.69-2.579 4.466z"/><path d="M-15.802 27.371l2.557 4.69 2.642-4.67zM-15.802 27.371l2.636-4.567-5.254.074zM-13.166 22.804l2.563 4.587 2.671-4.605z"/><path d="M-13.166 22.804l-2.601-4.541-2.653 4.615zM-13.166 22.804l-2.636 4.567 5.199.02z"/><path d="M-13.166 22.804l2.641-4.575-5.242.034zM-10.525 18.229l-2.641 4.575 5.234-.018zM20.779 35.99l-2.398-4.153-2.635 4.974zM18.381 31.837l5.625.205-2.863-4.541z"/><path d="M24.006 32.042l-5.625-.205 2.398 4.153zM15.802 27.371l2.579 4.466 2.762-4.336zM2.69 31.677l2.664-4.371L0 27.222z"/><path d="M5.354 27.306l-2.696-4.551L0 27.222zM8.074 31.937l-2.72-4.631-2.664 4.371zM5.354 27.306l2.72 4.631 2.529-4.546zM7.932 22.786l-2.578 4.52 5.249.085zM5.354 27.306l2.578-4.52-5.274-.031zM13.166 22.804l2.636 4.567 2.618-4.493z"/><path d="M15.767 18.263l-2.601 4.541 5.254.074zM13.166 22.804l2.601-4.541-5.242-.034z"/><path d="M15.802 27.371l-2.636-4.567-2.563 4.587z"/><path d="M7.932 22.786l5.234.018-2.641-4.575z"/><path d="M13.166 22.804l-5.234-.018 2.671 4.605zM5.336 36.155l2.738-4.218-5.384-.26zM0 45.233l-2.571-4.685-2.248 4.533zM-2.476 49.939L0 45.233l-4.819-.152z"/><path d="M0 45.233l2.571-4.685h-5.142zM2.571 40.548L0 45.233l4.819-.152zM0 45.233l2.476 4.706 2.343-4.858z"/><path d="M2.476 49.939L0 45.233l-2.476 4.706zM7.411 49.448l5.023-1.019-2.745-3.534z"/><path d="M4.819 45.081l2.592 4.367 2.278-4.553zM2.476 49.939l4.935-.491-2.592-4.367zM-12.434 48.429l2.745-3.534-3.743-2.881zM-20.97 45.39l4.256 1.734-1.479-5.783z"/><path d="M-16.714 47.124l3.282-5.11-4.761-.673zM-12.434 48.429l-.998-6.415-3.282 5.11zM36.401-18.047l2.666 4.538 2.384-4.858zM36.401-18.047l-2.571-4.454-2.596 4.468zM33.83-22.501l-5.187-.198 2.591 4.666z"/><path d="M28.643-22.699l-2.555 4.531 5.146.135zM24.006-32.042l-2.863 4.541 5.289-.218zM21.143-27.501l-5.341.13 2.618 4.493z"/><path d="M18.381-31.837l2.762 4.336 2.863-4.541z"/><path d="M21.143-27.501l-2.762-4.336-2.579 4.466zM15.767-18.263l5.204-.027-2.551-4.588z"/><path d="M13.166-22.804l2.601 4.541 2.653-4.615zM31.695 8.977l-2.673-4.464-2.697 4.504zM31.695 8.977l5.526.055-2.833-4.472z"/><path d="M29.022 4.513l2.673 4.464 2.693-4.417zM37.221 9.032l-5.526-.055 2.284 4.479z"/><path d="M28.778 13.509l2.917-4.532-5.37.04zM31.695 8.977l-2.917 4.532 5.201-.053zM31.234 18.033l5.167.014-2.422-4.591zM31.234 18.033l-2.456-4.524-2.69 4.659z"/><path d="M28.778 13.509l2.456 4.524 2.745-4.577zM36.401 18.047l-5.167-.014 2.596 4.468z"/><path d="M31.234 18.033l-2.591 4.666 5.187-.198z"/><path d="M28.643 22.699l2.591-4.666-5.146.135zM28.643 22.699l2.589 4.379 2.598-4.577zM29.67 32.639l1.562-5.561-4.8.641zM34.036 30.838l-2.804-3.76-1.562 5.561z"/><path d="M31.232 27.078l-2.589-4.379-2.211 5.02zM31.232 27.078l5.4-.364-2.802-4.213zM36.632 26.714l-5.4.364 2.804 3.76zM5.261-9.112l-2.63-4.557L0-9.113zM-13.432-42.014l-2.314 5.203 4.957.061zM-15.746-36.811l2.501 4.75 2.456-4.689zM-18.193-41.341l2.447 4.53 2.314-5.203z"/><path d="M-15.746-36.811l-2.447-4.53-2.586 5.351zM22.959-39.766l5.865-1.09L25-43.301zM28.824-40.856l-5.865 1.09 3.747 3.34z"/><path d="M20.97-45.39l1.989 5.624L25-43.301zM13.245-32.061l-2.456-4.689-2.715 4.813z"/><path d="M5.336-36.155l5.453-.595-2.955-3.837z"/><path d="M10.789-36.75l-5.453.595 2.738 4.218zM10.789-36.75l2.643-5.264-5.598 1.427zM2.476-49.939l2.343 4.858 2.592-4.367zM4.819-45.081l4.87.186-2.278-4.553z"/><path d="M9.689-44.895l-4.87-.186 3.015 4.494zM4.819-45.081l-2.343-4.858L0-45.233z"/><path d="M2.571-40.548l2.248-4.533L0-45.233z"/><path d="M4.819-45.081l-2.248 4.533 5.263-.039zM-18.416-4.545l2.636-4.566-5.256.035zM-15.78-9.111l2.627 4.555 2.631-4.557zM-13.144-13.676l-2.636 4.565 5.258-.002zM-15.78-9.111l-2.636 4.566 5.263-.011zM-18.378-13.679l2.598 4.568 2.636-4.565z"/><path d="M-15.78-9.111l-2.598-4.568-2.658 4.603zM-7.89-13.667l-5.254-.009 2.622 4.563z"/><path d="M-5.261-9.112l-2.629-4.555-2.632 4.554zM-13.144-13.676l5.254.009-2.635-4.562z"/><path d="M-2.631-13.669l-5.259.002 2.629 4.555z"/><path d="M-5.272-18.221l-2.618 4.554 5.259-.002z"/><path d="M-7.89-13.667l2.618-4.554-5.253-.008zM10.603-27.391l-5.249.085 2.578 4.52zM5.354-27.306l2.72-4.631-5.384.26z"/><path d="M5.354-27.306l-2.696 4.551 5.274-.031zM5.354-27.306l5.249-.085-2.529-4.546z"/><path d="M5.354-27.306L0-27.222l2.658 4.467z"/><path d="M0-27.222l5.354-.084-2.664-4.371zM-29.67-32.639l-6.054-2.344 1.688 4.145zM-44.486-22.825l5.313.209-2.837-4.498zM-31.234-18.033l2.456 4.524 2.69-4.659zM-28.643-22.699l-2.591 4.666 5.146-.135z"/><path d="M-28.778-13.509l-2.456-4.524-2.745 4.577zM-31.234-18.033l-5.167-.014 2.422 4.591zM-2.69-31.677L0-27.222l2.69-4.455zM0-36.066l-2.69 4.389h5.38z"/><path d="M-5.336-36.155l2.646 4.478L0-36.066zM0-27.222l-2.69-4.455-2.664 4.371z"/><path d="M-2.69-31.677l-5.384-.26 2.72 4.631z"/><path d="M-8.074-31.937l5.384.26-2.646-4.478zM-2.63 4.556L-5.261 0l-2.631 4.556z"/><path d="M-5.261 0l2.631 4.556L0 0zM-5.261 0h-5.26l2.629 4.556zM-2.63-4.556L-5.261 0H0zM13.153 4.556H7.892l2.63 4.557zM13.153 4.556l5.263-.011L15.781 0z"/><path d="M10.521 0l2.632 4.556L15.781 0z"/><path d="M13.153 4.556L10.521 0 7.892 4.556zM13.153 4.556l2.627 4.555 2.636-4.566zM15.78 9.111l-2.627-4.555-2.631 4.557zM23.575 13.611l-2.539-4.535-2.658 4.603zM21.036 9.076l2.539 4.535 2.75-4.594z"/><path d="M15.78 9.111l5.256-.035-2.62-4.531zM21.036 9.076l-5.256.035 2.598 4.568zM21.036 9.076L23.7 4.524l-5.284.021z"/><path d="M23.7 4.524l-2.664 4.552 5.289-.059zM49.794-4.534L45.918 0H50zM49.794 4.534l-4.895.381 4.268 4.172z"/><path d="M49.794 4.534L45.918 0l-1.019 4.915z"/><path d="M45.918 0l3.876 4.534L50 0zM36.762 0l2.991-4.769-5.365.209zM36.762 0h-5.157l2.783 4.56z"/><path d="M31.605 0h5.157l-2.374-4.56zM39.753-4.769L36.762 0h4.795zM36.762 0l2.991 4.769L41.557 0z"/><path d="M39.753 4.769L36.762 0l-2.374 4.56zM-28.643 22.699l-5.187-.198 2.598 4.577zM-41.451 18.367l-5.077-.061 2.042 4.519zM-41.451 18.367l2.384-4.858-4.658.548z"/><path d="M-46.528 18.306l5.077.061-2.274-4.31zM-39.173 22.616l-2.278-4.249-3.035 4.458zM-15.78 9.111l-5.256-.035 2.658 4.603zM-21.036 9.076l-2.539 4.535 5.197.068z"/><path d="M-23.575 13.611l2.539-4.535-5.289-.059z"/><path d="M-18.416 4.545l-2.62 4.531 5.256.035z"/><path d="M-23.7 4.524l2.664 4.552 2.62-4.531zM-21.036 9.076L-23.7 4.524l-2.625 4.493zM-29.022 4.513L-31.605 0l-2.783 4.56zM-29.022 4.513l-2.673 4.464 5.37.04z"/><path d="M-31.695 8.977l2.673-4.464-5.366.047zM-23.7 4.524l-5.322-.011 2.697 4.504zM-23.7-4.524l5.284-.021-2.62-4.531zM-18.416-4.545l-5.284.021L-21.049 0zM-31.695-8.977l2.917-4.532-5.201.053z"/><path d="M-37.221-9.032l5.526.055-2.284-4.479zM-29.67 32.639l2.964 3.787 2.7-4.384zM-29.67 32.639l3.238-4.92-4.8-.641z"/><path d="M-29.67 32.639l5.664-.597-2.426-4.323zM-34.036 30.838l4.366 1.801-1.562-5.561zM-22.959 39.766l1.989 5.624 2.777-4.049zM-22.959 39.766l-5.865 1.09L-25 43.301z"/><path d="M-20.97 45.39l-1.989-5.624L-25 43.301zM-22.959 39.766l-3.747-3.34-2.118 4.43zM-22.959 39.766l2.18-3.776-5.927.436z"/><path d="M-20.779 35.99l-2.18 3.776 4.766 1.575zM-8.074 31.937l5.384-.26-2.664-4.371z"/><path d="M-8.074 31.937l2.738 4.218 2.646-4.478zM-10.603 27.391l2.529 4.546 2.72-4.631z"/><path d="M-5.336 36.155l-2.738-4.218-2.715 4.813z"/><path d="M-13.245 32.061l5.171-.124-2.529-4.546z"/><path d="M-8.074 31.937l-5.171.124 2.456 4.689zM8.074 31.937l5.171.124-2.642-4.67z"/><path d="M13.245 32.061l2.557-4.69-5.199.02zM13.245 32.061l5.136-.224-2.579-4.466zM18.381 31.837l-5.136.224 2.501 4.75zM13.432 42.014l4.761-.673-2.447-4.53z"/><path d="M13.432 42.014l3.282 5.11 1.479-5.783zM12.434 48.429l.998-6.415-3.743 2.881zM-2.69 31.677L0 36.066l2.69-4.389zM0 36.066l-5.336.089 2.765 4.393z"/><path d="M-5.336 36.155L0 36.066l-2.69-4.389zM2.571 40.548L0 36.066l-2.571 4.482z"/><path d="M5.336 36.155L0 36.066l2.571 4.482z"/><path d="M0 36.066l5.336.089-2.646-4.478zM36.632-26.714l5.378-.4-2.892-4.028z"/><path d="M34.036-30.838l2.596 4.124 2.486-4.428zM33.979-13.456l-2.284 4.479 5.526-.055z"/><path d="M39.067-13.509l-5.088.053 3.242 4.424zM28.778-13.509l5.201.053-2.745-4.577zM31.695-8.977l2.284-4.479-5.201-.053z"/><path d="M36.401-18.047l-2.422 4.591 5.088-.053zM33.979-13.456l2.422-4.591-5.167.014zM23.622-22.961l5.021.262-2.211-5.02zM20.971-18.29l2.651-4.671-5.202.083zM23.622-22.961l-2.651 4.671 5.117.122z"/><path d="M28.643-22.699l-5.021-.262 2.466 4.793zM21.143-27.501l2.479 4.54 2.81-4.758zM23.622-22.961l-2.479-4.54-2.723 4.623zM23.575-13.611l-2.539 4.535 5.289.059zM23.7-4.524l-2.664-4.552-2.62 4.531zM21.036-9.076L23.7-4.524l2.625-4.493zM2.658-22.755l2.614 4.534 2.66-4.565z"/><path d="M5.272-18.221l-2.614-4.534L0-18.221zM2.631-13.669l2.641-4.552H0zM41.451 18.367l2.274-4.31-4.658-.548z"/><path d="M43.725 14.057l-2.274 4.31 5.077-.061zM36.401 18.047l5.05.32-2.384-4.858zM41.451 18.367l3.035 4.458 2.042-4.519zM18.416-4.545l-5.263-.011L15.781 0z"/><path d="M13.153-4.556L10.521 0h5.26zM-2.63-4.556h5.26L0-9.113zM2.63-4.556h-5.26L0 0zM5.261 0L2.63-4.556 0 0z"/><path d="M2.63-4.556l2.631-4.556L0-9.113zM-24.006-32.042l5.625.205-2.398-4.153zM-18.381-31.837l-2.762 4.336 5.341.13z"/><path d="M-13.245-32.061l-5.136.224 2.579 4.466zM-18.381-31.837l-5.625-.205 2.863 4.541zM-15.746-36.811l-2.635 4.974 5.136-.224z"/><path d="M-18.381-31.837l2.635-4.974-5.033.821zM18.381-31.837l-2.635-4.974-2.501 4.75zM10.789-36.75l4.957-.061-2.314-5.203z"/><path d="M15.746-36.811l-4.957.061 2.456 4.689zM-39.118-31.142l5.082.304-1.688-4.145zM-31.232-27.078l2.589 4.379 2.211-5.02zM-39.067-13.509l-2.384-4.858-2.274 4.31z"/><path d="M-41.451-18.367l-5.077.061 2.803 4.249z"/><path d="M-46.528-18.306l5.077-.061-3.035-4.458zM-36.401-18.047l-5.05-.32 2.384 4.858z"/><path d="M-39.173-22.616l-2.278 4.249 5.05.32z"/><path d="M-41.451-18.367l2.278-4.249-5.313-.209zM-13.153-4.556h5.261l-2.63-4.557z"/><path d="M-7.892-4.556l2.631-4.556-5.261-.001zM-10.521 0l2.629-4.556h-5.261zM-7.892-4.556h5.262l-2.631-4.556zM-7.892-4.556L-5.261 0l2.631-4.556z"/><path d="M-5.261 0l-2.631-4.556L-10.521 0zM48.158-13.447l-4.433-.61-.624 4.682zM-39.118 31.142l2.486-4.428-5.378.4z"/><path d="M-36.632 26.714l-2.541-4.098-2.837 4.498zM-36.632 26.714l2.596 4.124 2.804-3.76zM-34.036 30.838l-2.596-4.124-2.486 4.428z"/><path d="M-36.632 26.714l2.802-4.213-5.343.115zM-33.83 22.501l-2.802 4.213 5.4.364zM-28.778 13.509l-2.456 4.524 5.146.135zM-31.234 18.033l2.591 4.666 2.555-4.531zM-31.234 18.033l2.456-4.524-5.201-.053z"/><path d="M-31.234 18.033l-2.596 4.468 5.187.198zM-26.332 0l-2.69-4.513L-31.605 0zM-29.022 4.513L-26.332 0h-5.273zM-26.332 0l2.632 4.524L-21.049 0z"/><path d="M-26.332 0l-2.69 4.513 5.322.011zM-26.332 0l2.632-4.524-5.322.011zM-23.7-4.524L-26.332 0h5.283z"/><path d="M-23.7-4.524l-2.625-4.493-2.697 4.504zM-23.575-13.611l-2.75 4.594 5.289-.059z"/><path d="M-28.778-13.509l2.453 4.492 2.75-4.594zM-26.325-9.017l2.625 4.493 2.664-4.552zM-26.325-9.017l-5.37.04 2.673 4.464z"/><path d="M-31.695-8.977l5.37-.04-2.453-4.492zM-29.022-4.513l-5.366-.047L-31.605 0zM-36.762 0l2.374-4.56-5.365-.209zM-34.388-4.56l-2.833-4.472-2.532 4.263z"/><path d="M-34.388-4.56L-36.762 0h5.157zM-34.388-4.56l2.693-4.417-5.526-.055z"/><path d="M-31.695-8.977l-2.693 4.417 5.366.047zM-26.706 36.426l-5.747 1.611 3.629 2.819z"/><path d="M-35.724 34.983l3.271 3.054 2.783-5.398z"/><path d="M-35.724 34.983l6.054-2.344-4.366-1.801zM-29.67 32.639l-2.783 5.398 5.747-1.611zM7.834 40.587l-5.263-.039 2.248 4.533z"/><path d="M7.834 40.587l-3.015 4.494 4.87-.186zM7.834 40.587l-2.498-4.432-2.765 4.393zM13.432 42.014l-5.598-1.427 1.855 4.308zM31.232-27.078l-1.562-5.561-3.238 4.92z"/><path d="M28.643-22.699l2.589-4.379-4.8-.641zM29.67-32.639l1.562 5.561 2.804-3.76zM31.232-27.078l-2.589 4.379 5.187.198z"/><path d="M36.632-26.714l-5.4-.364 2.598 4.577z"/><path d="M31.232-27.078l5.4.364-2.596-4.124zM42.01-27.114l-2.837 4.498 5.313-.209zM39.173-22.616l-2.772 4.569 5.05-.32z"/><path d="M39.173-22.616l2.278 4.249 3.035-4.458zM36.401-18.047l2.772-4.569-5.343.115zM36.632-26.714l2.541 4.098 2.837-4.498z"/><path d="M39.173-22.616l-2.541-4.098-2.802 4.213zM39.173 22.616l-2.772-4.569-2.571 4.454zM36.632 26.714l2.541-4.098-5.343-.115zM39.173 22.616l-2.541 4.098 5.378.4z"/><path d="M44.486 22.825l-5.313-.209 2.837 4.498zM41.451 18.367l-2.278 4.249 5.313.209z"/><path d="M39.173 22.616l2.278-4.249-5.05-.32zM13.153-4.556H7.892L10.521 0z"/><path d="M10.521 0L7.892-4.556 5.261 0zM2.63-4.556h5.262L5.261-9.112z"/><path d="M7.892-4.556H2.63L5.261 0zM20.779-35.99l-2.398 4.153 5.625-.205z"/><path d="M20.779-35.99l3.227 3.948 2.7-4.384z"/><path d="M22.959-39.766l-2.18 3.776 5.927-.436zM20.779-35.99l-5.033-.821 2.635 4.974zM-24.006-32.042l-5.664-.597 3.238 4.92z"/><path d="M-32.453-38.037l2.783 5.398 2.964-3.787z"/><path d="M-29.67-32.639l5.664.597-2.7-4.384zM-29.67-32.639l-2.783-5.398-3.271 3.054zM-31.232-27.078l1.562-5.561-4.366 1.801z"/><path d="M-29.67-32.639l-1.562 5.561 4.8-.641zM-33.83-22.501l-5.343-.115 2.772 4.569zM-33.83-22.501l2.596 4.468 2.591-4.666zM-31.234-18.033l-2.596-4.468-2.571 4.454z"/><path d="M-31.232-27.078l-2.598 4.577 5.187-.198zM39.067-13.509l4.034 4.134.624-4.682zM39.753-4.769l3.348-4.606-5.88.343z"/><path d="M43.101-9.375l-4.034-4.134-1.846 4.477zM48.158-13.447l-5.057 4.072 6.066.288zM-33.83 22.501l-2.571-4.454-2.772 4.569zM-41.451 18.367l5.05-.32-2.666-4.538z"/><path d="M-39.067 13.509l2.666 4.538 2.422-4.591zM-36.401 18.047l-5.05.32 2.278 4.249zM-31.234 18.033l-5.167.014 2.571 4.454z"/><path d="M-36.401 18.047l5.167-.014-2.745-4.577zM5.336 36.155l5.453.595-2.715-4.813z"/><path d="M13.245 32.061l-2.456 4.689 4.957.061z"/><path d="M10.789 36.75l2.456-4.689-5.171-.124zM10.789 36.75l2.643 5.264 2.314-5.203z"/><path d="M10.789 36.75l-2.955 3.837 5.598 1.427z"/><path d="M7.834 40.587l2.955-3.837-5.453-.595zM10.525-18.229l5.242-.034-2.601-4.541z"/><path d="M10.525-18.229l2.641-4.575-5.234.018z"/><path d="M5.272-18.221l5.253-.008-2.593-4.557zM10.525-18.229l2.619 4.553 2.623-4.587zM15.767-18.263l2.611 4.584 2.593-4.611zM20.971-18.29l-2.593 4.611 5.197.068z"/><path d="M18.378-13.679l2.658 4.603 2.539-4.535zM13.144-13.676l5.234-.003-2.611-4.584zM10.522-9.113l-2.63 4.557h5.261z"/><path d="M7.892-4.556l2.63-4.557-5.261.001zM13.432-42.014l4.761.673-1.479-5.783z"/><path d="M18.193-41.341l2.777-4.049-4.256-1.734zM18.193-41.341l4.766 1.575-1.989-5.624zM15.746-36.811l2.447-4.53-4.761-.673zM20.779-35.99l-2.586-5.351-2.447 4.53z"/><path d="M18.193-41.341l2.586 5.351 2.18-3.776zM-36.632-26.714l-2.486-4.428-2.892 4.028zM-39.173-22.616l2.541-4.098-5.378-.4z"/><path d="M-39.118-31.142l2.486 4.428 2.596-4.124zM-36.632-26.714l5.4-.364-2.804-3.76zM-36.632-26.714l2.802 4.213 2.598-4.577z"/><path d="M-33.83-22.501l-2.802-4.213-2.541 4.098zM44.899-4.915l-5.146.146L41.557 0zM45.918 0l-1.019-4.915L41.557 0z"/><path d="M49.794-4.534l-4.895-.381L45.918 0z"/><path d="M49.167-9.087l-4.268 4.172 4.895.381z"/><path d="M43.101-9.375l1.798 4.46 4.268-4.172z"/><path d="M44.899-4.915l-1.798-4.46-3.348 4.606zM18.378-13.679L15.78-9.111l5.256.035z"/><path d="M21.036-9.076l-5.256-.035 2.636 4.566zM15.78-9.111l-2.627 4.555 5.263.011zM15.78-9.111l2.598-4.568-5.234.003z"/><path d="M10.522-9.113l5.258.002-2.636-4.565z"/><path d="M15.78-9.111l-5.258-.002 2.631 4.557zM7.89-13.667l2.635-4.562-5.253.008z"/><path d="M5.261-9.112l2.629-4.555-5.259-.002z"/><path d="M7.89-13.667l-2.618-4.554-2.641 4.552zM10.525-18.229L7.89-13.667l5.254-.009zM10.522-9.113L7.89-13.667 5.261-9.112z"/><path d="M7.89-13.667l2.632 4.554 2.622-4.563z"/></svg>