<svg xmlns="http://www.w3.org/2000/svg" viewBox="-150 0 300 299.632"><style>path{fill:none;stroke:#000;stroke-width:1;stroke-linejoin:bevel}</style><path d="M-62.913 94.947l-7.952-14.013-7.399 14.378zm40.682 203.212l14.802 1.473-7.029-14.573zm0 0l-6.835-13.66-8.223 10.608z"/><path d="M-29.066 284.499l6.835 13.66 7.773-13.1zm97.944-15.383l17.598 3.264-6.356-13.285zm17.598 3.264l-17.598-3.264L75 279.72z"/><path d="M68.878 269.116l-5.973 16.872L75 279.72zM7.973 218.082l7.843-13.602L0 204.479zM-55.259 81.183l-7.654 13.764 15.611.081z"/><path d="M-62.913 94.947l7.654-13.764-15.606-.249zm-48.749 81.963l-7.596-12.788-10.045 13.819z"/><path d="M-119.258 164.122l-15.44.44 5.395 13.379zm39.963 68.849l-6.632-15.059-7.769 13.137zm7.276 12.972l8.59-13.623-15.866.651z"/><path d="M-63.429 232.32l-8.59 13.623 16.876-.616zm16.127-27.716l-15.611.081 7.654 13.764z"/><path d="M-62.913 204.685l15.611-.081-7.831-13.75zm55.2 66.774l-15.789.117 9.044 13.483zM-23.502 271.576l-5.564 12.923 14.608.56zM97.368 35.713l-10.892-8.461-6.356 13.285zM7.891 163.484L0 177.153l15.782-.003zm54.445 94.301l6.542 11.331 11.242-10.021zm8.529-39.087l-7.436 13.622 15.866.651zM63.429 232.32l7.436-13.622-15.606-.249zm-31.855-27.817l-7.903-13.687-7.855 13.664z"/><path d="M23.671 190.816l7.903 13.687 7.858-13.658zm-15.78-27.332l7.891-13.668H0zm15.78 27.332l7.895-13.662-15.784-.004zm7.895-13.662l-7.895 13.662 15.761.029zM-37.289 4.525l-12.843 3.916 9.837 15.333zm66.355 10.608l8.223-10.608-15.058-3.053zm-97.944 15.383l5.973-16.872L-75 19.912z"/><path d="M-86.476 27.252l17.598 3.264L-75 19.912zm-30.722 82.037l5.536 13.433 9.725-13.273zm46.473-.306l7.812-14.036-15.351.365zm-63.973 26.086l10.025 14.747 5.415-14.307zm15.44 29.053l-5.415-14.306-10.025 14.746zM-103.165 163.495l-16.093.627 7.596 12.788zm40.252 41.19l-7.812-14.036-7.539 13.671z"/><path d="M-70.725 190.649l7.812 14.036 7.78-13.831zm-15.202 27.263l15.062.786-7.399-14.378zm15.062.786l7.952-14.013-15.351-.365zm7.952-14.013l-7.952 14.013 15.606-.249zM-70.865 218.698l-15.062-.786 6.632 15.059z"/><path d="M-63.429 232.32l-7.436-13.622-8.43 14.273zm-7.436-13.622l7.436 13.622 8.17-13.871zm39.057 13.29l15.747-.254-7.736-13.559zm39.781-13.906H-7.973L0 231.482zm-23.789-13.602l7.843 13.602L0 204.479z"/><path d="M-7.973 218.082H7.973L0 204.479zm0 0l-7.843-13.602-7.981 13.695zm-8.088 13.652l8.088-13.652-15.824.093zM-7.973 218.082l-8.088 13.652L0 231.482zm-31.459-27.237l-7.907-13.698-7.794 13.707zm-7.87 13.759l7.87-13.759-15.701.009zm39.232 40.242H8.07L0 231.482z"/><path d="M-16.061 231.734l7.991 13.112L0 231.482zm70.639 42.107l8.327 12.147 5.973-16.872zm7.758-16.056l-7.758 16.056 14.3-4.725z"/><path d="M54.578 273.841l7.758-16.056-15.097 2.465zm89.892-164.378l-4.885-14.566-8.413 12.749zm-20.117-14.747l15.232.181-6.126-13.556z"/><path d="M139.585 94.897l-15.232-.181 6.819 12.93zm-32.403-50.02l-5.076 12.426 15.248-.912zm-18.174 7.022l18.174-7.022-9.814-9.164zM-7.891 163.484l-15.784.001 7.893 13.665zm0 0H7.891L0 149.816z"/><path d="M0 177.153l-7.891-13.669-7.891 13.666z"/><path d="M-7.891 163.484L0 177.153l7.891-13.669zm-.002 27.338l-7.889-13.672-7.889 13.666zm0 0l-7.923 13.658L0 204.479zm-7.923 13.658l7.923-13.658-15.778-.006z"/><path d="M-7.893 190.822L0 177.153l-15.782-.003zm125.247 52.418l-15.248-.911 5.076 12.426zm-30.878 29.14l10.892-8.461-17.248-4.824z"/><path d="M97.368 263.919l-8.36-16.186-8.888 11.362z"/><path d="M89.008 247.733l8.36 16.186 9.814-9.164z"/><path d="M89.008 247.733l18.174 7.022-5.076-12.426zm0 0l-16.989-1.79 8.101 13.152z"/><path d="M72.019 245.943l16.989 1.79-9.713-14.762zm-8.59-13.623l8.59 13.623 7.276-12.972zm8.59 13.623l-9.683 11.842 17.784 1.31zm45.179-55.6l-5.536-13.433-9.725 13.273zm-5.536-13.433l5.536 13.433 12.105-12.402zm-64.36 27.694l7.831-13.75-15.701-.009z"/><path d="M31.574 204.503l15.728.101-7.87-13.759zm-7.899-41.018l-7.893-13.669-7.891 13.668zm0 0l-15.784-.001 7.891 13.666z"/><path d="M31.566 177.154l-7.891-13.669-7.893 13.665zm15.841-109.45l-7.909 13.699 15.761-.22zM0 14.117l-14.458.456 6.745 13.6z"/><path d="M-14.458 14.573L0 14.117-7.429 0zm-1.551 26.78L0 41.617l-7.713-13.444zm-21.28-36.828l-3.006 19.249 11.229-8.641zm77.584 19.249L37.289 4.525l-8.223 10.608zM16.009 41.353L0 41.617l8.07 13.168z"/><path d="M24.221 54.004l-8.212-12.651L8.07 54.785zm-63.653 54.783l7.858-13.658-15.728-.101zM0 122.478l-7.893-13.668-7.889 13.671zM7.973 81.55H-7.973L0 95.153zm-31.77-.093l7.736-13.559-15.747-.254zm15.824.093l-8.088-13.652-7.736 13.559zm-60.905-51.034L-80.12 40.537l17.784 1.309z"/><path d="M-80.12 40.537l11.242-10.021-17.598-3.264zm.825 26.124l-6.632 15.059 15.062-.786zm8.43 14.273l-15.062.786 7.663 13.592zm31.129-27.301l-7.671 14.071 15.599-.06zm.238 27.77l15.701.054-8.011-13.813zm0 0l-15.761-.22 7.957 13.845z"/><path d="M-31.574 95.129l-7.924-13.726-7.804 13.625zm-7.924-13.726l7.924 13.726 7.777-13.672zm0 0l-7.909-13.699-7.852 13.479zm-7.909-13.699l7.909 13.699 7.69-13.759zm0 0l-16.022-.392 8.17 13.871zm-7.852 13.479l-8.17-13.871-7.436 13.622zm-8.17-13.871l-15.866-.651 8.43 14.273zm-84.071 55.232l-1.881 13.663 14.683-1.138zm3.03-13.081l-3.03 13.081 18.197-.853zm58.136-.173l15.609-.307-7.539-13.671zm62.659 54.195l-7.888-13.669-7.895 13.668zm-115.91 41.25l8.413-12.749-13.298-1.817zm-9.796-41.31l1.881 13.663 12.802-12.526zm14.683 1.137l-12.802 12.526 18.197.853z"/><path d="M-129.303 177.941l-15.167 12.228 13.298 1.817zm0 0l-18.197-.853 3.03 13.081zm-8.453-28.125l-11.625-13.609-.619 13.609zm-11.625 13.609l11.625-13.609H-150zm11.625-13.609l-11.625 13.609 14.683 1.137z"/><path d="M-149.381 136.207l11.625 13.609 3.058-14.747zm11.625 13.609h13.083l-10.025-14.747zm13.083 0h-13.083l3.058 14.746zM55.249 163.45l7.898-13.634H47.343z"/><path d="M63.147 149.816l-7.898-13.635-7.906 13.635zm23.187-40.526l-15.609-.307 8.249 13.783z"/><path d="M86.334 109.29l-8.07-13.978-7.539 13.671z"/><path d="M78.264 95.312l8.07 13.978 7.369-13.573zm16.551 54.504l-7.748 13.539 16.098.14z"/><path d="M87.067 163.355l7.748-13.539H78.996zm0-27.078l7.748 13.539 8.35-13.679z"/><path d="M94.815 149.816l-7.748-13.539-8.071 13.539zm52.685 27.272l-12.802-12.526-5.395 13.379zm-28.242-41.579l-7.596-12.787-8.497 13.415zm-250.43 56.477l13.974-1.643-12.105-12.402zM-117.198 190.343l5.536-13.433-17.641 1.031zm0 0l15.261-.16-9.725-13.273zm61.949-26.893l7.91 13.697 7.881-13.663zm-46.688 26.733l6.851-13.437-16.576.164z"/><path d="M-95.086 176.746l-8.079-13.251-8.497 13.415zm31.657 55.574l16.022-.392-7.852-13.479zm16.022-.392l-16.022.392 8.286 13.007zm15.841-54.774l7.891-13.669-15.783-.001zM-15.782 177.15l-15.784.004 7.895 13.662z"/><path d="M-47.339 177.147l15.773.007-7.892-13.67zm23.664-13.662l-7.891 13.669 15.784-.004zm-15.757 27.36l7.866-13.691-15.773-.007zM-31.566 177.154l-7.866 13.691 15.761-.029zm-.008 27.349l15.758-.023-7.855-13.664zm15.758-.023l-15.758.023 7.777 13.672zm-15.758.023l-7.858-13.658-7.87 13.759z"/><path d="M-39.432 190.845l7.858 13.658 7.903-13.687zm86.839 41.083l16.022.392-8.17-13.871zm-23.61-13.753l-7.981-13.695-7.843 13.602zm0 0l7.777-13.672-15.758-.023zm-47.299 53.401l7.493-13.297-16.358 1.786z"/><path d="M-16.009 258.279l-7.493 13.297 15.789-.117zm53.298 36.828l12.843-3.916-9.837-15.333zm17.289-21.266l-4.446 17.35 12.773-5.203zm-94.873 2.017l16.793-4.282-8.865-11.511zm16.793-4.282l-16.793 4.282 11.229 8.641zm-16.793 4.282l-6.944-15.608-7.339 13.591z"/><path d="M-47.239 260.25l6.944 15.608 7.928-15.793zM124.353 94.716l-7.155 14.573 13.974-1.643zm-69.21-40.411l-15.407-.672 7.671 14.071zm33.865-2.406l13.098 5.404 5.076-12.426zm0 0l8.36-16.186-17.248 4.824zm0 0l-16.989 1.79 7.276 12.972z"/><path d="M72.019 53.689l16.989-1.79-8.888-11.362zm6.245 41.623l-15.351-.365 7.812 14.036zm-70.371 95.51l15.778-.006-7.889-13.666zM0 177.153l7.893 13.669 7.889-13.672zm15.816 27.327l-7.923-13.658L0 204.479z"/><path d="M23.671 190.816l-15.778.006 7.923 13.658z"/><path d="M-7.893 190.822H7.893L0 177.153zm15.786 0H-7.893L0 204.479zm78.441-.48l-15.609.307 7.539 13.671zm-15.609.307l15.609-.307-7.36-13.477zm58.578-12.708l1.869 14.045 13.298-1.817zm1.869 14.045l8.413 12.749 4.885-14.566z"/><path d="M129.303 177.941l15.167 12.228 3.03-13.081zm-12.105 12.402l13.974 1.643-1.869-14.045z"/><path d="M109.203 203.958l7.995-13.615-15.261-.16zm-38.338 14.74l15.062-.786-7.663-13.592zm15.062-.786l-15.062.786 8.43 14.273zm23.968 12.047l7.459 13.281 8.676-12.083zM117.354 243.24l-7.459-13.281-7.789 12.37zm-46.489-24.542l-7.952-14.013-7.654 13.764zm-.14-28.049l-7.812 14.036 15.351-.365z"/><path d="M62.913 204.685l7.952 14.013 7.399-14.378zm0 0l7.812-14.036-15.592.205z"/><path d="M47.302 204.604l15.611.081-7.78-13.831zm15.611.081l-15.611-.081 7.957 13.845zm-39.238-41.2l7.888-13.669H15.782zM39.736 53.633l-7.928 14.011 15.599.06z"/><path d="M31.808 67.644l7.928-14.011-15.515.371zm7.69 13.759l-7.69-13.759-8.011 13.813zm-7.69-13.759l7.69 13.759 7.909-13.699zM-7.893 108.81H7.893L0 95.153zm15.786 0H-7.893L0 122.478zm-22.351-94.237l-7.773-13.101-6.835 13.661zM-29.066 15.133l6.835-13.661-15.058 3.053z"/><path d="M-22.231 1.472l7.773 13.101L-7.429 0zM0 14.117L7.429 0H-7.429zm-54.578 11.674l4.446-17.35-12.773 5.203zm0 0l-14.3 4.725 6.542 11.33z"/><path d="M-68.878 30.516l14.3-4.725-8.327-12.147zm14.3-4.725l14.283-2.017-9.837-15.333zm31.076 2.265l7.493 13.297 8.296-13.18z"/><path d="M-14.458 14.573l-9.044 13.483 15.789.117z"/><path d="M-23.502 28.056l9.044-13.483-14.608.56zm7.493 13.297l-7.493-13.297-8.865 11.51z"/><path d="M-23.502 28.056l-16.793-4.282 7.928 15.792z"/><path d="M-40.295 23.774l16.793 4.282-5.564-12.923zm80.59 0l-11.229-8.641-5.564 12.923zm0 0l9.837-15.333-12.843-3.916zM7.713 28.173L0 14.117l-7.713 14.056z"/><path d="M0 41.617l7.713-13.444H-7.713zm16.009-.264l-8.296-13.18L0 41.617zm-8.296-13.18l8.296 13.18 7.493-13.297zm-62.846 80.605l-15.592.205 7.619 13.605zm-7.78-13.831l7.78 13.831 7.831-13.75z"/><path d="M-70.725 108.983l15.592-.205-7.78-13.831z"/><path d="M-55.133 108.778l15.701.009-7.87-13.759zm23.559-13.649l15.758.023-7.981-13.695zM-7.973 81.55l-7.843 13.602L0 95.153zm-7.843 13.602l7.843-13.602-15.824-.093zm0 0l7.923 13.658L0 95.153z"/><path d="M7.973 81.55L0 68.15l-7.973 13.4z"/><path d="M0 68.15l-16.061-.252 8.088 13.652zm-139.585 26.747l-4.885 14.566 13.298-1.817zm42.217-59.184l17.248 4.824-6.356-13.285zm-11.835 59.961l-7.995 13.615 15.261.16zm84.982-41.67l8.212-12.651-16.358-1.787zm8.16 13.894l-8.16-13.894-7.587 13.64zm-8.16-13.894l-15.515-.371 7.928 14.011z"/><path d="M-39.736 53.633l15.515.371-8.146-14.438zM-80.12 40.537l8.101 13.152 9.683-11.843zm16.691 26.775l-8.59-13.623-7.276 12.972zm-48.233 55.41l-17.641-1.031 10.045 13.818zm-17.641-1.031l-5.395 13.378 15.44.44z"/><path d="M-129.303 121.691l12.105-12.402-13.974-1.643z"/><path d="M-129.303 121.691l17.641 1.031-5.536-13.433zm0 0l-18.197.853 12.802 12.525zm-15.167-12.228l15.167 12.228-1.869-14.045zm136.579 26.685L0 122.478l-15.782.003zm63.024 54.706l-7.794-13.707-7.907 13.698zm-7.794-13.707l-15.773.007 7.866 13.691zm39.728-13.792l-15.968.032 7.875 13.478z"/><path d="M71.099 163.387l15.968-.032-8.071-13.539z"/><path d="M63.147 149.816l7.952 13.571 7.897-13.571z"/><path d="M55.249 163.45l15.85-.063-7.952-13.571zm15.85-27.205l-7.952 13.571h15.849zm0 0l15.968.032-8.093-13.511z"/><path d="M87.067 136.277l-15.968-.032 7.897 13.571zm-15.968-.032l-15.85-.064 7.898 13.635zm15.968.032l8.019-13.391-16.112-.12zm8.019-13.391l-8.019 13.391 16.098-.14zm16.576-.164l-16.576.164 8.079 13.251z"/><path d="M95.086 122.886l-8.752-13.596-7.36 13.476zm39.612 41.676l3.058-14.746h-13.083zm-23.036 12.348l7.596-12.788-16.093-.627zm7.596-12.788l-7.596 12.788 17.641 1.031z"/><path d="M119.258 164.122l15.44.44-10.025-14.746z"/><path d="M134.698 164.562l-15.44-.44 10.045 13.819zm-252.217 53.103l-15.94.625 7.429 12.867zm46.42-54.278l15.85.063-7.898-13.634zm39.536-13.571h-15.78l7.885 13.668zm-23.686-13.635l7.906 13.635 7.885-13.668z"/><path d="M-47.343 149.816h15.78l-7.895-13.668zm0 0l-7.906-13.635-7.898 13.635z"/><path d="M-55.249 163.45l7.906-13.634h-15.804zm7.906-13.634l-7.906 13.634 15.791.034zm-62.943 0h-14.387l5.415 14.306zm-14.387 0h14.387l-8.972-14.307zm21.508 13.679l-7.121-13.679-8.972 14.306z"/><path d="M-94.815 149.816h-15.471l7.121 13.679zm24.09 40.833l-15.609-.307 8.07 13.978z"/><path d="M-86.334 190.342l15.609.307-8.249-13.784zm0 0l-8.752-13.596-6.851 13.437z"/><path d="M-95.086 176.746l8.752 13.596 7.36-13.477zm-7.02 65.583l-15.248.911 10.172 11.515zm39.77 15.456l15.097 2.465-7.904-14.923zM-72.019 245.943l9.683 11.842 7.193-12.458zm24.78 14.307l-15.097-2.465 7.758 16.056z"/><path d="M-80.12 259.095l17.784-1.31-9.683-11.842zm32.881 1.155l7.503-14.251-15.407-.672zm7.503-14.251l-7.503 14.251 14.872-.185zm0 0l-7.671-14.071-7.736 13.399zM-47.407 231.928l7.671 14.071 7.928-14.011zm0 0l7.909-13.699-15.761.22zm7.909-13.699l7.69 13.759 8.011-13.813z"/><path d="M-39.498 218.229l-7.804-13.625-7.957 13.845zm0 0l-7.909 13.699 15.599.06z"/><path d="M-39.498 218.229l7.924-13.726-15.728.101z"/><path d="M-31.574 204.503l-7.924 13.726 15.701-.054zm93.91 53.282l-7.193-12.458-7.904 14.923zm-7.193-12.458l16.876.616-8.59-13.623zm16.876.616l-16.876-.616 7.193 12.458zm-24.612-14.015l7.736 13.399 8.286-13.007zM8.07 244.846l7.991-13.112L0 231.482z"/><path d="M16.061 231.734l-8.088-13.652L0 231.482z"/><path d="M24.221 245.628l-8.16-13.894-7.991 13.112z"/><path d="M16.061 231.734l8.16 13.894 7.587-13.64z"/><path d="M23.797 218.175l-7.736 13.559 15.747.254z"/><path d="M16.061 231.734l7.736-13.559-15.824-.093zm23.437-13.505l7.909 13.699 7.852-13.479z"/><path d="M47.302 204.604l-7.804 13.625 15.761.22z"/><path d="M39.498 218.229l7.804-13.625-15.728-.101z"/><path d="M47.407 231.928l-7.909-13.699-7.69 13.759z"/><path d="M23.797 218.175l15.701.054-7.924-13.726zm15.701.054l-15.701-.054 8.011 13.813zm-23.489 40.05l8.212-12.651-16.151-.782zM0 285.515l-7.713-14.056-6.745 13.6z"/><path d="M-7.429 299.632L0 285.515l-14.458-.456zM0 285.515l7.713-14.056H-7.713zm7.713-14.056L0 285.515l14.458-.456zM0 285.515l7.429 14.117 7.029-14.573z"/><path d="M7.429 299.632L0 285.515l-7.429 14.117zm14.802-1.473l15.058-3.052-8.223-10.608z"/><path d="M14.458 285.059l7.773 13.1 6.835-13.66z"/><path d="M7.429 299.632l14.802-1.473-7.773-13.1zm-44.718-4.525l8.223-10.608-11.229-8.641zm-25.616-9.119l12.773 5.203-4.446-17.35zm12.773 5.203l9.837-15.333-14.283-2.017z"/><path d="M-37.289 295.107l-3.006-19.249-9.837 15.333zM109.203 95.674l7.995 13.615 7.155-14.573zm0 0l-7.713-13.36-7.787 13.403zm-7.713-13.36l-15.563-.594 7.776 13.997z"/><path d="M85.927 81.72l-7.663 13.592 15.439.405zM72.019 53.689l-8.59 13.623 15.866-.651zm-8.59 13.623l-16.022.392 7.852 13.479z"/><path d="M55.143 54.305l8.286 13.007 8.59-13.623z"/><path d="M63.429 67.312l-8.286-13.007-7.736 13.399zM47.302 95.028l15.611-.081-7.654-13.764z"/><path d="M39.498 81.403l7.804 13.625 7.957-13.845zm55.588 95.343l-8.019-13.391-8.093 13.51zm0 0l16.576.164-8.497-13.415zm-8.019-13.391l8.019 13.391 8.079-13.251z"/><path d="M111.662 176.91l-16.576-.164 6.851 13.437zm-25.328 13.432l8.752-13.596-16.112.119zm8.752-13.596l-8.752 13.596 15.603-.159z"/><path d="M93.703 203.915l15.5.043-7.266-13.775zm0 0l-7.369-13.573-8.07 13.978z"/><path d="M86.334 190.342l7.369 13.573 8.234-13.732z"/><path d="M109.203 203.958l-15.5-.043 7.787 13.403z"/><path d="M93.703 203.915l-7.776 13.997 15.563-.594z"/><path d="M85.927 217.912l7.776-13.997-15.439.405zm0 0l7.769 13.137 7.794-13.731zm3.081 29.821l4.688-16.684-14.401 1.922zm13.098-5.404l-8.41-11.28-4.688 16.684zm-8.41-11.28l-7.769-13.137-6.632 15.059z"/><path d="M93.696 231.049l16.199-1.09-8.405-12.641zm16.199-1.09l-16.199 1.09 8.41 11.28zM15.782 122.481L7.893 108.81 0 122.478zm-56.077-98.707l-6.944 15.608 14.872.184z"/><path d="M-47.239 39.382l7.503 14.251 7.369-14.067zm-7.339-13.591l7.339 13.591 6.944-15.608z"/><path d="M-47.239 39.382l-7.339-13.591-7.758 16.055zm116.117-8.866l17.598-3.264L75 19.912zm17.598-3.264l-17.598 3.264L80.12 40.537zM62.905 13.644l5.973 16.872L75 19.912zM39.736 53.633l-7.369-14.067-8.146 14.438z"/><path d="M16.009 41.353l16.358-1.787-8.865-11.51z"/><path d="M32.367 39.566l-16.358 1.787 8.212 12.651zm0 0l7.928-15.792-16.793 4.282zM7.429 0l7.029 14.573 7.773-13.101zm7.029 14.573l14.608.56-6.835-13.661z"/><path d="M29.066 15.133l-14.608-.56 9.044 13.483z"/><path d="M14.458 14.573L7.429 0 0 14.117z"/><path d="M7.713 28.173l6.745-13.6L0 14.117zm6.745-13.6l-6.745 13.6 15.789-.117zm-69.707 121.608l7.91-13.696-15.767.103zm7.91-13.696l7.881 13.663 7.892-13.67zM-39.432 108.787l-7.907 13.698 15.773-.007z"/><path d="M-47.339 122.485l-7.91 13.696 15.791-.033z"/><path d="M-55.133 108.778l7.794 13.707 7.907-13.698z"/><path d="M-47.339 122.485l-7.794-13.707-7.973 13.81zm23.668-13.669l-15.761-.029 7.866 13.691zm7.889 13.665l-7.889-13.665-7.895 13.662z"/><path d="M-39.432 108.787l15.761.029-7.903-13.687zm31.539.023l-15.778.006 7.889 13.665z"/><path d="M-15.816 95.152l-7.855 13.664 15.778-.006z"/><path d="M-23.671 108.816l7.855-13.664-15.758-.023zm55.479-41.172l-15.747.254 7.736 13.559zm-15.747.254l8.16-13.894-16.151.781z"/><path d="M16.061 67.898L7.973 81.55l15.824-.093zm0 0l15.747-.254-7.587-13.64z"/><path d="M16.061 67.898L0 68.15l7.973 13.4z"/><path d="M0 68.15l16.061-.252L8.07 54.785zm-89.008-16.251l-18.174-7.022 5.076 12.426zm-44.451 29.442l15.94.625-8.511-13.492zm39.756 14.376l7.369 13.573 8.07-13.978z"/><path d="M-85.927 81.72l-7.776 13.997 15.439-.405zm-.407 27.57l-7.369-13.573-8.234 13.732zm-7.369-13.573l-15.5-.043 7.266 13.775zM-8.07 54.785L0 68.15l8.07-13.365zM0 41.617l-8.07 13.168H8.07z"/><path d="M-16.009 41.353l7.939 13.432L0 41.617zM0 68.15l-8.07-13.365-7.991 13.113z"/><path d="M-8.07 54.785l-16.151-.781 8.16 13.894z"/><path d="M-24.221 54.004l16.151.781-7.939-13.432zm16.33 109.48l-7.891-13.668-7.893 13.669zM-15.782 149.816l7.891 13.668L0 149.816zm0 0h-15.781l7.888 13.669zm7.891-13.668l-7.891 13.668H0zm47.349 27.336l-15.783.001 7.891 13.669zm0 0l15.791-.034-7.906-13.634zm-7.895-13.668l7.895 13.668 7.885-13.668z"/><path d="M39.458 163.484l-7.895-13.668-7.888 13.669zm0 0l7.881 13.663 7.91-13.697z"/><path d="M47.339 177.147l-7.881-13.663-7.892 13.67zm23.386 13.502l-7.619-13.605-7.973 13.81zm-7.619-13.605l7.619 13.605 8.249-13.784zm-15.767.103l15.767-.103-7.857-13.594z"/><path d="M63.106 177.044l-15.767.103 7.794 13.707zm0 0l7.993-13.657-15.85.063zm7.993-13.657l-7.993 13.657 15.868-.179zm78.282-27.18l-11.625 13.609H150zm0 27.218l-14.683 1.137 12.802 12.526z"/><path d="M149.381 163.425l-11.625-13.609-3.058 14.746z"/><path d="M137.756 149.816l11.625 13.609.619-13.609zm-27.47 0l8.972-14.307-16.093.628zm0 0H94.815l8.35 13.679z"/><path d="M94.815 149.816h15.471l-7.121-13.679zm24.443-14.307l-8.972 14.307h14.387zm-8.972 14.307l8.972 14.306 5.415-14.306z"/><path d="M119.258 164.122l-8.972-14.306-7.121 13.679zm-205.185 53.79l-15.563-.594 7.794 13.731zm-38.426-12.996l-15.232-.181 6.126 13.555zm0 0l7.155-14.573-13.974 1.643z"/><path d="M-139.585 204.735l15.232.181-6.819-12.93z"/><path d="M-117.519 217.665l-6.834-12.749-9.106 13.374zm70.18-40.518l-15.767-.103 7.973 13.81zm-15.767-.103l-7.619 13.605 15.592.205z"/><path d="M-70.725 190.649l7.619-13.605-15.868-.179zm15.476-27.199l-7.857 13.594 15.767.103z"/><path d="M-71.099 163.387l7.993 13.657 7.857-13.594z"/><path d="M-63.106 177.044l-7.993-13.657-7.875 13.478zm-23.961-13.689l-7.748-13.539-8.35 13.679zm0 0l-8.019 13.391 16.112.119z"/><path d="M-95.086 176.746l8.019-13.391-16.098.14zm23.987-13.359l-15.968-.032 8.093 13.51zm0-27.142l15.85-.064-7.857-13.593zm15.85-.064l-15.85.064 7.952 13.571zm-39.837-13.295l8.752-13.596-15.603.159zm-16.576-.164l16.576.164-6.851-13.437zm22.654 125.011l8.888 11.362 8.101-13.152zm0 0l9.713-14.762-14.401-1.922zm0 0l16.989-1.79-7.276-12.972z"/><path d="M-102.106 242.329l13.098 5.404-4.688-16.684zm33.228 26.787l5.973 16.872 8.327-12.147zm0 0l-17.598 3.264L-75 279.72z"/><path d="M-62.905 285.988l-5.973-16.872L-75 279.72zm-5.973-16.872l-11.242-10.021-6.356 13.285z"/><path d="M-68.878 269.116l6.542-11.331-17.784 1.31zm6.542-11.331l-6.542 11.331 14.3 4.725zm38.115-12.157l16.151-.782-7.991-13.112zm0 0l8.212 12.651 7.939-13.433z"/><path d="M-31.808 231.988l7.587 13.64 8.16-13.894zm15.799 26.291l-8.212-12.651-8.146 14.437z"/><path d="M-39.736 245.999l15.515-.371-7.587-13.64z"/><path d="M-24.221 245.628l-15.515.371 7.369 14.066zm48.442 0l15.515.371-7.928-14.011z"/><path d="M39.736 245.999l7.671-14.071-15.599.06zm0 0l15.407-.672-7.736-13.399zm15.407-.672l-15.407.672 7.503 14.251zm-14.848 30.531l14.283-2.017-7.339-13.591zm0 0l9.837 15.333 4.446-17.35zm-3.006 19.249l3.006-19.249-11.229 8.641zM-8.07 244.846L0 258.015l8.07-13.169zM0 258.015l-16.009.264 8.296 13.18z"/><path d="M-16.009 258.279L0 258.015l-8.07-13.169zm23.722 13.18L0 258.015l-7.713 13.444z"/><path d="M16.009 258.279L0 258.015l7.713 13.444z"/><path d="M0 258.015l16.009.264-7.939-13.433zM109.895 69.673l16.135-1.199-8.676-12.083z"/><path d="M102.106 57.303l7.789 12.37 7.459-13.282zm-.169 52.146l-6.851 13.437 16.576-.164z"/><path d="M117.198 109.289l-15.261.16 9.725 13.273zm-30.864.001l15.603.159-8.234-13.732z"/><path d="M95.086 122.886l6.851-13.437-15.603-.159zm14.117-27.212l-7.266 13.775 15.261-.16zm-7.266 13.775l7.266-13.775-15.5.043zM70.865 80.934l15.062.786-6.632-15.059zm-7.952 14.013l7.952-14.013-15.606.249zm7.952-14.013l-7.952 14.013 15.351.365z"/><path d="M85.927 81.72l-15.062-.786 7.399 14.378zM63.429 67.312l7.436 13.622 8.43-14.273zm7.436 13.622l-7.436-13.622-8.17 13.871zm-.14 28.049l-7.619 13.605 15.868.178zM71.099 136.245l-7.993-13.657-7.857 13.593zm-7.993-13.657l7.993 13.657 7.875-13.479zM7.973 81.55l7.843 13.602 7.981-13.695z"/><path d="M15.816 95.152L7.973 81.55 0 95.153zM7.893 108.81l7.923-13.658L0 95.153zm116.46 96.106l6.819-12.93-13.974-1.643zm6.819-12.93l-6.819 12.93 15.232-.181z"/><path d="M109.203 203.958l15.15.958-7.155-14.573z"/><path d="M124.353 204.916l9.106 13.374 6.126-13.555zm-69.104-68.735l-15.791-.033 7.885 13.668z"/><path d="M39.458 136.148l-7.895 13.668h15.78zm-47.349 0H7.891L0 122.478zm15.782 0H-7.891L0 149.816zm7.891 13.668l-7.891-13.668L0 149.816z"/><path d="M7.891 136.148l7.891-13.667L0 122.478zm-79.91-82.459l16.876.616-7.193-12.459zm16.876.616l-8.286 13.007 16.022.392z"/><path d="M-39.736 53.633l-15.407.672 7.736 13.399zm-15.407.672l-16.876-.616 8.59 13.623zm7.904-14.923l-7.904 14.923 15.407-.672zm-7.904 14.923l7.904-14.923-15.097 2.464zm110.286 0l-7.904-14.923-7.503 14.251zM32.367 39.566l14.872-.184-6.944-15.608z"/><path d="M47.239 39.382l-14.872.184 7.369 14.067zm-164.593 17.009l15.248.912-5.076-12.426zm23.658 12.192l7.769 13.137 6.632-15.059zm-23.502 40.706l-7.155-14.573-6.819 12.93zM-124.353 94.716l-15.232.181 8.413 12.749z"/><path d="M-139.585 94.897l15.232-.181-9.106-13.375zm30.382.777l-15.15-.958 7.155 14.573zm-8.316-13.708l-6.834 12.75 15.15.958z"/><path d="M-124.353 94.716l6.834-12.75-15.94-.625zm84.895 41.432l15.783-.001-7.891-13.669z"/><path d="M-23.675 136.147l7.893-13.666-15.784-.003zm-7.888 13.669l7.888-13.669-15.783.001zM-23.675 136.147l15.784.001-7.891-13.667zm0 0l7.893 13.669 7.891-13.668z"/><path d="M-15.782 149.816l-7.893-13.669-7.888 13.669zm160.252-40.353l-13.298-1.817-1.869 14.045zM-117.354 243.24l7.459-13.281-16.135 1.198zm7.459-13.281l-7.624-12.294-8.511 13.492zm0 0l7.789 12.37 8.41-11.28z"/><path d="M-102.106 242.329l-7.789-12.37-7.459 13.281zm-7.789-12.37l8.405-12.641-16.029.347zm8.405-12.641l-8.405 12.641 16.199 1.09zm15.156-26.976l-7.369 13.573 15.439.405z"/><path d="M-93.703 203.915l7.776 13.997 7.663-13.592zm0 0l7.369-13.573-15.603-.159z"/><path d="M-93.703 203.915l-7.787 13.403 15.563.594zm14.707-54.099l-8.071-13.539-7.748 13.539zm-8.071 13.539l8.071-13.539h-15.819zm8.071-13.539l7.897 13.571 7.952-13.571z"/><path d="M-78.996 149.816l-8.071 13.539 15.968.032zm0 0l7.897-13.571-15.968.032z"/><path d="M-71.099 136.245l-7.897 13.571h15.849zm0 0l-7.875-13.479-8.093 13.511zm.374-27.262l-8.249 13.783 15.868-.178zm-15.609.307l7.36 13.476 8.249-13.783z"/><path d="M-78.974 122.766l7.875 13.479 7.993-13.657zm0 0l-16.112.12 8.019 13.391zm-16.112.12l16.112-.12-7.36-13.476z"/><path d="M-87.067 136.277l-16.098-.14 8.35 13.679zm-23.219 13.539l7.121-13.679-16.093-.628z"/><path d="M-103.165 136.137l-8.497-13.415-7.596 12.787zm0 0l-7.121 13.679h15.471zm0 0l8.079-13.251-16.576-.164zm8.079-13.251l-8.079 13.251 16.098.14zm14.966 136.209l-17.248 4.824 10.892 8.461zm-27.062-4.34l9.814 9.164 8.36-16.186z"/><path d="M-107.182 254.755l18.174-7.022-13.098-5.404zm18.174-7.022l-8.36 16.186 17.248-4.824zm112.51 23.843l-15.789-.117 6.745 13.6zm0 0l-9.044 13.483 14.608-.56zm0 0l-7.493-13.297-8.296 13.18zm16.793 4.282l-16.793-4.282 5.564 12.923zM93.696 68.583l-4.688-16.684-9.713 14.762z"/><path d="M85.927 81.72l7.769-13.137-14.401-1.922z"/><path d="M89.008 51.899l4.688 16.684 8.41-11.28zm4.688 16.684L85.927 81.72l15.563.594z"/><path d="M109.895 69.673l-16.199-1.09 7.794 13.731z"/><path d="M93.696 68.583l16.199 1.09-7.789-12.37zm32.334-.109l-8.511 13.492 15.94-.625z"/><path d="M117.519 81.966l-8.316 13.708 15.15-.958z"/><path d="M117.519 81.966l6.834 12.75 9.106-13.375zm-8.316 13.708l8.316-13.708-16.029.348zm.692-26.001l7.624 12.293 8.511-13.492z"/><path d="M117.519 81.966l-7.624-12.293-8.405 12.641zm0 135.699l-8.316-13.707-7.713 13.36zm-7.624 12.294l7.624-12.294-16.029-.347zm7.624-12.294l-7.624 12.294 16.135 1.198zm15.94.625l-15.94-.625 8.511 13.492zM124.353 204.916l-6.834 12.749 15.94.625z"/><path d="M117.519 217.665l6.834-12.749-15.15-.958zm-78.061-81.517l-15.783-.001 7.888 13.669z"/><path d="M31.563 149.816l-7.888-13.669-7.893 13.669z"/><path d="M7.891 136.148l15.784-.001-7.893-13.666zm15.784-.001l-15.784.001 7.891 13.668zm38.661-94.301l-7.193 12.459 16.876-.616z"/><path d="M62.336 41.846l9.683 11.843 8.101-13.152z"/><path d="M68.878 30.516l-6.542 11.33 17.784-1.309zm-6.542 11.33l-15.097-2.464 7.904 14.923zM-72.019 53.689l-16.989-1.79 9.713 14.762zm-25.349-17.976l8.36 16.186 8.888-11.362zm8.36 16.186l16.989 1.79-8.101-13.152z"/><path d="M-89.008 51.899l-8.36-16.186-9.814 9.164zm-4.688 16.684l4.688-16.684-13.098 5.404zm4.688-16.684l-4.688 16.684 14.401-1.922zm-12.482 30.415l-16.029-.348 8.316 13.708zm0 0l7.787 13.403 7.776-13.997z"/><path d="M-93.703 95.717l-7.787-13.403-7.713 13.36zm.007-27.134l-7.794 13.731 15.563-.594zm210.894 40.706l12.105 12.402 1.869-14.045z"/><path d="M119.258 135.509l10.045-13.818-17.641 1.031z"/><path d="M129.303 121.691l-12.105-12.402-5.536 13.433zm15.167-12.228l-15.167 12.228 18.197.853zm-245.96 107.855l-7.713-13.36-8.316 13.707zm-22.863-12.402l15.15-.958-7.995-13.615z"/><path d="M-117.198 190.343l7.995 13.615 7.266-13.775zm7.995 13.615l-15.15.958 6.834 12.749z"/><path d="M-93.703 203.915l-15.5.043 7.713 13.36z"/><path d="M-109.203 203.958l15.5-.043-8.234-13.732zm125.212 54.321l16.358 1.786-8.146-14.437z"/><path d="M39.736 245.999l-7.369 14.066 14.872.185z"/><path d="M32.367 260.065l7.369-14.066-15.515-.371zm0 0l7.928 15.793 6.944-15.608z"/><path d="M32.367 260.065l-8.865 11.511 16.793 4.282z"/><path d="M23.502 271.576l8.865-11.511-16.358-1.786zm8.072-176.447l15.728-.101-7.804-13.625z"/><path d="M31.574 95.129l7.924-13.726-15.701.054zm-15.758.023l15.758-.023-7.777-13.672zm15.758-.023l7.858 13.658 7.87-13.759zm15.728-.101l7.831 13.75 7.78-13.831z"/><path d="M62.913 94.947l-7.78 13.831 15.592.205z"/><path d="M55.133 108.778l7.973 13.81 7.619-13.605zm-15.701.009l15.701-.009-7.831-13.75zm-7.866 13.691l-7.891 13.669 15.783.001zM23.675 136.147l7.891-13.669-15.784.003zm16.62-112.373l14.283 2.017-4.446-17.35z"/><path d="M54.578 25.791l8.327-12.147-12.773-5.203zm0 0l14.3 4.725-5.973-16.872zm-7.339 13.591l7.339-13.591-14.283-2.017zm15.097 2.464l-7.758-16.055-7.339 13.591zm-7.758-16.055l7.758 16.055 6.542-11.33zm-164.473 43.882l-7.459-13.282-8.676 12.083zm-7.624 12.293l7.624-12.293-16.135-1.199zm.165-25.575l7.459 13.282 7.789-12.37z"/><path d="M-109.895 69.673l16.199-1.09-8.41-11.28zm0 0l8.405 12.641 7.794-13.731z"/><path d="M-101.49 82.314l-8.405-12.641-7.624 12.293zm236.188 52.755l-15.44.44 5.415 14.307zm3.058 14.747l-3.058-14.747-10.025 14.747zm11.625-13.609l-14.683-1.138 3.058 14.747z"/><path d="M147.5 122.544l-12.802 12.525 14.683 1.138z"/><path d="M129.303 121.691l5.395 13.378 12.802-12.525z"/><path d="M134.698 135.069l-5.395-13.378-10.045 13.818zm-79.565-26.291l-7.794 13.707 15.767.103zM63.106 122.588l-15.767-.103 7.91 13.696z"/><path d="M47.339 122.485l-7.881 13.663 15.791.033zm0 0l7.794-13.707-15.701.009z"/><path d="M31.566 122.478l15.773.007-7.907-13.698zm15.773.007l-15.773-.007 7.892 13.67zm-23.668-13.669l7.903-13.687-15.758.023zm-7.889 13.665l7.889-13.665-15.778-.006z"/><path d="M23.671 108.816l-7.855-13.664-7.923 13.658zm7.903-13.687l-7.903 13.687 15.761-.029z"/><path d="M31.566 122.478l-7.895-13.662-7.889 13.665z"/><path d="M23.671 108.816l7.895 13.662 7.866-13.691z"/></svg>