<svg xmlns="http://www.w3.org/2000/svg" viewBox="-150 0 300 292.699"><style>path{fill:none;stroke:#000;stroke-width:1;stroke-linejoin:bevel}</style><path d="M-128.003 243.937L-150 259.808l23.057 9.662zm18.455-67.4l-15.282-19.551-9.046 24.656zm-15.282-19.551l15.282 19.551 10.129-22.354zm148.812-3.659L0 153.225l11.942 23.247zm-12.284-23.463l12.284 23.463 12.415-21.95z"/><path d="M23.982 153.327l-12.284-23.463L0 153.225zM0 24.618V0l-21.044 16.079zm-48.994 45.509l-6.676-21.415-17.422 20.214zm77.537-10.351L39.407 32.3l-24.582 9.6zM12.088 222.92L0 246.328l24.166-.709zm96.133 33.421l-24.17 4.028 16.964 17.803zm-46.952-36.287l-12.818 23.543 24.7-3.092zm-175.478-86.582l-10.621 23.514 25.411-2.803zm4.661 43.065l23.901.078-13.772-22.432zm33.629-65.174L-88.31 89.427l-13.707 21.513zm0 0l13.72 20.771 13.158-21.626zm87.617 18.501h-23.396L0 153.225z"/><path d="M-11.698 129.864l-12.284 23.463L0 153.225zM-39.407 32.3L-55.67 48.712l27.127 11.064zm75.463 143.769l-12.074-22.742-12.04 23.145zM88.31 89.427L73.092 68.926 62.437 91.069zm-39.269 21.081l26.878.855-13.482-20.294zM88.31 89.427l-12.391 21.936 26.098-.423z"/><path d="M75.919 111.363L88.31 89.427l-25.873 1.642zM87.796 219.11l-26.527.944 11.882 20.451zm-3.745 41.259l-8.025 24.175 24.989-6.372zm-47.653-38.542l24.871-1.773-13.135-21.591zm0 0l-24.31 1.093 12.078 22.699zm0 0l12.053 21.77 12.818-23.543z"/><path d="M48.451 243.597l-12.053-21.77-12.232 23.792zm-22.973 48.195l-13.353-22.324L0 292.699zM0 246.328l12.125 23.14 12.041-23.849zm117.651-24.166l28.739 10.151-4.921-23.873zm9.292 47.308l1.06-25.533-19.782 12.404z"/><path d="M126.943 269.47l-18.722-13.129-7.206 21.831zM150 259.808l-3.61-27.495-18.387 11.624z"/><path d="M150 259.808l-21.997-15.871-1.06 25.533zm-248.216-60.025l12.569-23.168-23.901-.078zm-10.005 56.558l-18.722 13.129 25.928 8.702zm-5.988-122.869l25.905-1.061-13.713-21.471z"/><path d="M-88.304 132.411l12.385-21.048-26.098-.423zm0 0l-25.905 1.061 14.79 20.711zm0 0l26.105-.277-13.72-20.771zM14.825 41.9l6.219-25.821L0 24.618z"/><path d="M0 24.618l21.044-8.539L0 0z"/><path d="M14.825 41.9l24.582-9.6-18.363-16.221zm-35.869-25.821L-39.407 32.3l24.582 9.6z"/><path d="M-21.044 16.079l6.219 25.821L0 24.618z"/><path d="M-14.825 41.9L0 61.246 14.825 41.9zm-47.612 49.169l-13.482 20.294 26.878-.855zm0 0l13.443-20.942-24.098-1.201z"/><path d="M-88.31 89.427l25.873 1.642-10.655-22.143zm25.873 1.642l-25.873-1.642 12.391 21.936zm0 0l26.687-3.243-13.244-17.699z"/><path d="M-35.75 87.826l-26.687 3.243 13.396 19.439zm-13.244-17.699l20.451-10.351-27.127-11.064zm9.587-37.827l10.864 27.476L-14.825 41.9zm10.864 27.476l-7.207 28.05 22.738-5.635zm-7.207 28.05l7.207-28.05-20.451 10.351z"/><path d="M-35.75 87.826l12.158 20.337 10.58-25.972z"/><path d="M-23.592 108.163L-35.75 87.826l-13.291 22.682zm72.586-38.036l24.098-1.201L55.67 48.712zm24.098-1.201l-24.098 1.201 13.443 20.942zm-24.051 41.582l-25.449-2.345 12.805 23.214z"/><path d="M23.592 108.163l-11.894 21.701 24.699 1.513zm96.493 91.584l21.384 8.693-7.593-26.798zm-36.034 60.622l15.361-22.993-26.261 3.129z"/><path d="M128.003 243.937l-28.591-6.561 8.809 18.965z"/><path d="M99.412 237.376l-15.361 22.993 24.17-4.028zm0 0L87.796 219.11l-14.645 21.395zm-50.961 6.221l11.844 21.281 12.856-24.373z"/><path d="M60.295 264.878l23.756-4.509-10.9-19.864zm0 0l15.731 19.666 8.025-24.175zm15.731 19.666l-15.731-19.666-9.458 24.198zm-88.151-15.076L0 246.328l-24.166-.709zm0 0l-13.353 22.324L0 292.699zm0 0h24.25L0 246.328z"/><path d="M12.125 269.468h-24.25L0 292.699zm-36.063-70.065l-24.196-.94 11.736 23.364zm-117.531 9.037l21.384-8.693-13.791-18.105zm21.384-8.693l10.537-23.21-24.328 5.105zm0 0l-21.384 8.693 23.818 13.722z"/><path d="M-98.216 199.783l-21.869-.036 2.434 22.415z"/><path d="M-120.085 199.747l21.869.036-11.332-23.246zm36.034 60.622l-24.17-4.028 7.206 21.831zm-33.6-38.207l-23.818-13.722-4.921 23.873zm-10.352 21.775l-18.387-11.624-3.61 27.495z"/><path d="M-117.651 222.162l-28.739 10.151 18.387 11.624zm9.43 34.179l-19.782-12.404 1.06 25.533zm33.941-102.267l-11.367 22.541 24.921-.719zm25.388-.42l-25.388.42 13.554 21.822z"/><path d="M-85.647 176.615l11.367-22.541-25.139.109zm11.367-22.541l25.388-.42-13.307-21.52z"/><path d="M-88.304 132.411l14.024 21.663 12.081-21.94z"/><path d="M-74.28 154.074l-14.024-21.663-11.115 21.772zm50.298-.747l12.04 23.145L0 153.225z"/><path d="M0 153.225l-11.942 23.247h23.884zm0 46.592l-11.942-23.345-11.996 22.931z"/><path d="M-11.942 176.472L0 199.817l11.942-23.345zM0 246.328l-12.088-23.408-12.078 22.699zm-12.088-23.408l-24.31-1.093 12.232 23.792zm24.176 0h-24.176L0 246.328z"/><path d="M-12.088 222.92l-11.85-23.517-12.46 22.424zM0 199.817l-12.088 23.103h24.176z"/><path d="M-12.088 222.92L0 199.817l-23.938-.414zm36.026-23.517l12.118-23.334-24.114.403z"/><path d="M36.056 176.069l-12.118 23.334 24.196-.94zm-12.118 23.334l12.46 22.424 11.736-23.364z"/><path d="M36.398 221.827l-12.46-22.424-11.85 23.517z"/><path d="M23.938 199.403L0 199.817l12.088 23.103z"/><path d="M0 199.817l23.938-.414-11.996-22.931zM-14.825 41.9h29.65L0 24.618zm27.837 40.291L0 61.246l-13.012 20.945zm-41.555-22.415L0 61.246-14.825 41.9z"/><path d="M0 61.246l-28.543-1.47 15.531 22.415zm-48.892 92.408l12.495-22.277-25.802.757zm-13.307-21.52l25.802-.757-12.644-20.869zm50.501-2.27l-24.699 1.513 12.415 21.95z"/><path d="M-36.397 131.377l-12.495 22.277 24.91-.327zm12.805-23.214l-12.805 23.214 24.699-1.513z"/><path d="M-36.397 131.377l12.805-23.214-25.449 2.345zm97.123 44.519l-24.67.173 12.078 22.394zm27.578-43.485l25.905 1.061-12.192-22.532zm-12.385-21.048l12.385 21.048 13.713-21.471zM0 105.05l13.012-22.859h-26.024zm0 0l-11.698 24.814h23.396z"/><path d="M0 105.05l-23.592 3.113 11.894 21.701z"/><path d="M-23.592 108.163L0 105.05l-13.012-22.859zM0 105.05l23.592 3.113-10.58-25.972zm23.592 3.113L0 105.05l11.698 24.814zm25.402-38.036L35.75 87.826l26.687 3.243zM35.75 87.826l13.291 22.682 13.396-19.439z"/><path d="M35.75 87.826l-12.158 20.337 25.449 2.345z"/><path d="M23.592 108.163L35.75 87.826l-22.738-5.635zm101.238 48.823l-15.282 19.551 24.328 5.105zm-15.282 19.551l10.537 23.21 13.791-18.105zm10.537 23.21l-2.434 22.415 23.818-13.722zm-2.434 22.415l10.352 21.775 18.387-11.624zm-18.239 15.214l18.239-15.214-29.855-3.052zm18.239-15.214l-18.239 15.214 28.591 6.561zM12.125 269.468l24.175-1.567-12.134-22.282z"/><path d="M36.3 267.901l12.151-24.304-24.285 2.022zm0 0l-10.822 23.891 25.359-2.716zm0 0l-24.175 1.567 13.353 22.324z"/><path d="M36.3 267.901l23.995-3.023-11.844-21.281zm23.995-3.023L36.3 267.901l14.537 21.175zm-145.942-88.263l12.667 21.48 12.254-22.199zm-12.569 23.168l25.236-1.688-12.667-21.48zm25.236-1.688l24.846.368-12.592-22.567zm-3.046 86.449l-8.025-24.175-16.964 17.803zm15.731-19.666l-15.731 19.666 25.189 4.532z"/><path d="M-76.026 284.544l15.731-19.666-23.756-4.509zm-8.025-24.175l-15.361-22.993-8.809 18.965zm-15.361-22.993l-28.591 6.561 19.782 12.404z"/><path d="M-128.003 243.937l28.591-6.561-18.239-15.214zm79.869-45.474l12.078-22.394-24.67-.173zm-.758-44.809l12.836 22.415 12.074-22.742z"/><path d="M-36.056 176.069l-12.836-22.415-11.834 22.242zm0 0l-12.078 22.394 24.196.94z"/><path d="M-11.942 176.472l-24.114-.403 12.118 23.334zm-24.114-.403l24.114.403-12.04-23.145zm72.112 0l12.836-22.415-24.91-.327zm-12.074-22.742l24.91.327-12.495-22.277zm24.91.327l11.834 22.242 13.554-21.822zm11.834 22.242l-11.834-22.242-12.836 22.415zm27.07 43.214L72.98 198.095l-11.711 21.959zm-26.527.944l11.711-21.959-24.846.368z"/><path d="M72.98 198.095l-12.254-22.199-12.592 22.567zM28.543 59.776l20.451 10.351 6.676-21.415zm0 0L55.67 48.712 39.407 32.3zM0 61.246l28.543-1.47L14.825 41.9zm28.543-1.47L0 61.246l13.012 20.945z"/><path d="M28.543 59.776l7.207 28.05 13.244-17.699z"/><path d="M35.75 87.826l-7.207-28.05-15.531 22.415zm78.459 45.646l-14.79 20.711 25.411 2.803zm-14.79 20.711l-11.115-21.772-14.024 21.663z"/><path d="M88.304 132.411l11.115 21.772 14.79-20.711zm11.115 21.772l10.129 22.354 15.282-19.551zm-135.817 67.644l-12.053 21.77 24.285 2.022zm98.597-89.693l-13.158-21.626-12.644 20.869zm0 0l26.105.277-12.385-21.048z"/><path d="M62.199 132.134l13.72-20.771-26.878-.855zm26.105.277l-26.105-.277 12.081 21.94z"/><path d="M62.199 132.134l-13.307 21.52 25.388.42z"/><path d="M48.892 153.654l13.307-21.52-25.802-.757zm60.656 22.883l-11.332 23.246 21.869-.036zm8.103 45.625l-19.435-22.379-10.42 19.327z"/><path d="M98.216 199.783l19.435 22.379 2.434-22.415zm0 0l-25.236-1.688 14.816 21.015zm-171.196-1.688l11.711 21.959 13.135-21.591zm24.846.368l-13.135 21.591 24.871 1.773zm-13.135 21.591l12.818 23.543 12.053-21.77zm35.791 71.738L-36.3 267.901l-14.537 21.175zM-36.3 267.901l24.175 1.567-12.041-23.849zm24.175 1.567l-24.175-1.567 10.822 23.891zm-24.175-1.567l-23.995-3.023 9.458 24.198zm0 0l-12.151-24.304-11.844 21.281z"/><path d="M-48.451 243.597l12.151 24.304 12.134-22.282zM72.98 198.095l12.667-21.48-24.921-.719zm12.667-21.48l13.772-22.432-25.139-.109zm-24.921-.719l24.921.719-11.367-22.541z"/><path d="M99.419 154.183l-13.772 22.432 23.901-.078zm-1.203 45.6l-12.569-23.168-12.667 21.48z"/><path d="M85.647 176.615l12.569 23.168 11.332-23.246zM-87.796 219.11l14.816-21.015-25.236 1.688z"/><path d="M-87.796 219.11l-10.42-19.327-19.435 22.379zm-11.616 18.266l11.616-18.266-29.855 3.052zm11.616-18.266l26.527.944-11.711-21.959zm39.345 24.487l-24.7-3.092 12.856 24.373zm-11.844 21.281l-12.856-24.373-10.9 19.864z"/><path d="M-73.151 240.505l-26.261-3.129 15.361 22.993zm11.882-20.451l-11.882 20.451 24.7 3.092z"/><path d="M-87.796 219.11l14.645 21.395 11.882-20.451z"/><path d="M-73.151 240.505l-14.645-21.395-11.616 18.266z"/></svg>