<svg xmlns="http://www.w3.org/2000/svg" viewBox="-50 0 100 97.566"><style>path{fill:none;stroke:#969696;stroke-width:.5;stroke-linejoin:bevel}</style><path d="M-42.668 81.312L-50 86.603l7.686 3.22zM-36.516 58.846l-5.094-6.517-3.015 8.218z"/><path d="M-41.61 52.329l5.094 6.517 3.376-7.452zM7.994 51.109L0 51.075l3.981 7.749zM3.899 43.288l4.095 7.821 4.138-7.317z"/><path d="M7.994 51.109l-4.095-7.821L0 51.075zM0 8.206V0l-7.015 5.36zM-16.331 23.376l-2.226-7.139-5.807 6.738zM9.514 19.925l3.622-9.158-8.194 3.2zM4.029 74.307L0 82.109l8.055-.236zM36.074 85.447l-8.057 1.343 5.655 5.934zM20.423 73.351l-4.273 7.848 8.234-1.031zM-38.07 44.491l-3.54 7.838 8.47-.935zM-36.516 58.846l7.967.026-4.591-7.478zM-25.306 37.121l-4.131-7.312-4.569 7.171zM-25.306 37.121l4.573 6.924 4.386-7.209zM3.899 43.288h-7.798L0 51.075z"/><path d="M-3.899 43.288l-4.095 7.821L0 51.075zM-13.136 10.767l-5.421 5.47 9.043 3.688zM12.019 58.69l-4.025-7.581-4.013 7.715zM29.437 29.809l-5.073-6.834-3.552 7.381z"/><path d="M16.347 36.836l8.959.285-4.494-6.765zM29.437 29.809l-4.131 7.312 8.7-.141z"/><path d="M25.306 37.121l4.131-7.312-8.625.547zM29.265 73.037l-8.842.314 3.961 6.817zM28.017 86.79l-2.675 8.058 8.33-2.124zM12.133 73.942l8.29-.591-4.378-7.197zM12.133 73.942l-8.104.365 4.026 7.566zM12.133 73.942l4.017 7.257 4.273-7.848z"/><path d="M16.15 81.199l-4.017-7.257-4.078 7.931zM8.493 97.264l-4.451-7.441L0 97.566zM0 82.109l4.042 7.714 4.013-7.95zM39.217 74.054l9.58 3.384-1.641-7.958zM42.314 89.823l.354-8.511-6.594 4.135z"/><path d="M42.314 89.823l-6.24-4.376-2.402 7.277zM50 86.603l-1.203-9.165-6.129 3.874zM50 86.603l-7.332-5.291-.354 8.511zM-32.739 66.594l4.19-7.722-7.967-.026zM-36.074 85.447l-6.24 4.376 8.642 2.901zM-38.07 44.491l8.635-.354-4.571-7.157zM-29.435 44.137l4.129-7.016-8.7-.141zM-29.435 44.137l-8.635.354 4.93 6.903zM-29.435 44.137l8.702-.092-4.573-6.924zM4.942 13.967L7.015 5.36 0 8.206z"/><path d="M0 8.206L7.015 5.36 0 0zM4.942 13.967l8.194-3.2L7.015 5.36zM-7.015 5.36l-6.121 5.407 8.194 3.2z"/><path d="M-7.015 5.36l2.073 8.607L0 8.206zM-4.942 13.967L0 20.415l4.942-6.448zM-20.812 30.356l-4.494 6.765 8.959-.285zM-20.812 30.356l4.481-6.98-8.033-.401z"/><path d="M-29.437 29.809l8.625.547-3.552-7.381zM-20.812 30.356l-8.625-.547 4.131 7.312zM-20.812 30.356l8.895-1.081-4.414-5.899z"/><path d="M-11.917 29.275l-8.895 1.081 4.465 6.48zM-16.331 23.376l6.817-3.451-9.043-3.688zM-13.136 10.767l3.622 9.158 4.572-5.958zM-9.514 19.925l-2.403 9.35 7.58-1.878z"/><path d="M-11.917 29.275l2.403-9.35-6.817 3.451zM-11.917 29.275l4.053 6.779 3.527-8.657zM-7.864 36.054l-4.053-6.779-4.43 7.561zM16.331 23.376l8.033-.401-5.807-6.738zM24.364 22.975l-8.033.401 4.481 6.98zM16.347 36.836l-8.483-.782 4.268 7.738zM7.864 36.054l-3.965 7.234 8.233.504zM40.028 66.582l7.128 2.898-2.531-8.933zM28.017 86.79l5.12-7.665-8.753 1.043zM42.668 81.312l-9.531-2.187 2.937 6.322z"/><path d="M33.137 79.125l-5.12 7.665 8.057-1.343zM33.137 79.125l-3.872-6.088-4.881 7.131zM16.15 81.199l3.948 7.094 4.286-8.125zM20.098 88.293l7.919-1.503-3.633-6.622zM20.098 88.293l5.244 6.555 2.675-8.058z"/><path d="M25.342 94.848l-5.244-6.555-3.152 8.066zM-4.042 89.823L0 82.109l-8.055-.236zM-4.042 89.823l-4.451 7.441L0 97.566zM-4.042 89.823h8.084L0 82.109z"/><path d="M4.042 89.823h-8.084L0 97.566zM-7.979 66.468l-8.066-.314 3.912 7.788zM-47.156 69.48l7.128-2.898-4.597-6.035zM-40.028 66.582l3.512-7.736-8.109 1.701z"/><path d="M-40.028 66.582l-7.128 2.898 7.939 4.574z"/><path d="M-32.739 66.594l-7.289-.012.811 7.472z"/><path d="M-40.028 66.582l7.289.012-3.777-7.748zM-28.017 86.79l-8.057-1.343 2.402 7.277zM-39.217 74.054l-7.939-4.574-1.641 7.958zM-42.668 81.312l-6.129-3.874L-50 86.603z"/><path d="M-39.217 74.054l-9.58 3.384 6.129 3.874zM-36.074 85.447l-6.594-4.135.354 8.511zM-24.76 51.358l-3.789 7.514 8.307-.24zM-16.297 51.218l-8.463.14 4.518 7.274z"/><path d="M-28.549 58.872l3.789-7.514-8.38.036zM-24.76 51.358l8.463-.14-4.436-7.173z"/><path d="M-29.435 44.137l4.675 7.221 4.027-7.313zM-24.76 51.358l-4.675-7.221-3.705 7.257zM-7.994 51.109l4.013 7.715L0 51.075zM0 51.075l-3.981 7.749h7.962z"/><path d="M0 66.606l-3.981-7.782-3.998 7.644z"/><path d="M-3.981 58.824L0 66.606l3.981-7.782zM0 82.109l-4.029-7.802-4.026 7.566z"/><path d="M-4.029 74.307l-8.104-.365 4.078 7.931zM4.029 74.307h-8.058L0 82.109z"/><path d="M-4.029 74.307l-3.95-7.839-4.154 7.474zM0 66.606l-4.029 7.701h8.058z"/><path d="M-4.029 74.307L0 66.606l-7.979-.138zM7.979 66.468l4.04-7.778-8.038.134z"/><path d="M12.019 58.69l-4.04 7.778 8.066-.314z"/><path d="M7.979 66.468l4.154 7.474 3.912-7.788z"/><path d="M12.133 73.942l-4.154-7.474-3.95 7.839z"/><path d="M7.979 66.468L0 66.606l4.029 7.701zM0 66.606l7.979-.138-3.998-7.644zM-4.942 13.967h9.884L0 8.206zM4.337 27.397L0 20.415l-4.337 6.982z"/><path d="M-9.514 19.925l9.514.49-4.942-6.448zM0 20.415l-9.514-.49 5.177 7.472zM-16.297 51.218l4.165-7.426-8.601.253z"/><path d="M-20.733 44.045l8.601-.253-4.215-6.956zM-3.899 43.288l-8.233.504 4.138 7.317zM-12.132 43.792l-4.165 7.426 8.303-.109z"/><path d="M-7.864 36.054l-4.268 7.738 8.233-.504z"/><path d="M-12.132 43.792l4.268-7.738-8.483.782zM20.242 58.632l-8.223.058 4.026 7.464zM29.435 44.137l8.635.354-4.064-7.511z"/><path d="M25.306 37.121l4.129 7.016 4.571-7.157zM0 35.017l4.337-7.62h-8.674zM0 35.017l-3.899 8.271h7.798z"/><path d="M0 35.017l-7.864 1.037 3.965 7.234z"/><path d="M-7.864 36.054L0 35.017l-4.337-7.62zM0 35.017l7.864 1.037-3.527-8.657zM7.864 36.054L0 35.017l3.899 8.271zM16.331 23.376l-4.414 5.899 8.895 1.081z"/><path d="M11.917 29.275l4.43 7.561 4.465-6.48z"/><path d="M11.917 29.275l-4.053 6.779 8.483.782z"/><path d="M7.864 36.054l4.053-6.779-7.58-1.878zM41.61 52.329l-5.094 6.517 8.109 1.701z"/><path d="M36.516 58.846l3.512 7.736 4.597-6.035zM40.028 66.582l-.811 7.472 7.939-4.574zM39.217 74.054l3.451 7.258 6.129-3.874zM33.137 79.125l6.08-5.071-9.952-1.017z"/><path d="M39.217 74.054l-6.08 5.071 9.531 2.187zM4.042 89.823L12.1 89.3l-4.045-7.427z"/><path d="M12.1 89.3l4.05-8.101-8.095.674zM12.1 89.3l-3.607 7.964 8.453-.905z"/><path d="M12.1 89.3l-8.058.523 4.451 7.441zM12.1 89.3l7.998-1.007-3.948-7.094zM20.098 88.293L12.1 89.3l4.846 7.059zM-28.549 58.872l4.222 7.16 4.085-7.4z"/><path d="M-32.739 66.594l8.412-.562-4.222-7.16z"/><path d="M-24.327 66.032l8.282.122-4.197-7.522zM-25.342 94.848l-2.675-8.058-5.655 5.934zM-20.098 88.293l-5.244 6.555 8.396 1.511z"/><path d="M-25.342 94.848l5.244-6.555-7.919-1.503zM-28.017 86.79l-5.12-7.665-2.937 6.322z"/><path d="M-33.137 79.125l-9.531 2.187 6.594 4.135z"/><path d="M-42.668 81.312l9.531-2.187-6.08-5.071zM-16.045 66.154l4.026-7.464-8.223-.058z"/><path d="M-16.297 51.218l4.278 7.472 4.025-7.581z"/><path d="M-12.019 58.69l-4.278-7.472-3.945 7.414zM-12.019 58.69l-4.026 7.464 8.066.314z"/><path d="M-3.981 58.824l-8.038-.134 4.04 7.778z"/><path d="M-12.019 58.69l8.038.134-4.013-7.715zM12.019 58.69l4.278-7.472-8.303-.109z"/><path d="M7.994 51.109l8.303.109-4.165-7.426zM16.297 51.218l3.945 7.414 4.518-7.274z"/><path d="M20.242 58.632l-3.945-7.414-4.278 7.472zM29.265 73.037l-4.938-7.005-3.904 7.319zM20.423 73.351l3.904-7.319-8.282.122z"/><path d="M24.327 66.032l-4.085-7.4-4.197 7.522zM9.514 19.925l6.817 3.451 2.226-7.139z"/><path d="M9.514 19.925l9.043-3.688-5.421-5.47zM0 20.415l9.514-.49-4.572-5.958zM9.514 19.925L0 20.415l4.337 6.982zM9.514 19.925l2.403 9.35 4.414-5.899z"/><path d="M11.917 29.275l-2.403-9.35-5.177 7.472zM38.07 44.491l-4.93 6.903 8.47.935zM33.14 51.394l-3.705-7.257-4.675 7.221z"/><path d="M29.435 44.137l3.705 7.257 4.93-6.903zM33.14 51.394l3.376 7.452 5.094-6.517zM-12.133 73.942l-4.017 7.257 8.095.674zM20.733 44.045l-4.386-7.209-4.215 6.956zM20.733 44.045l8.702.092-4.129-7.016z"/><path d="M20.733 44.045l4.573-6.924-8.959-.285zM29.435 44.137l-8.702-.092 4.027 7.313z"/><path d="M20.733 44.045l-4.436 7.173 8.463.14z"/><path d="M16.297 51.218l4.436-7.173-8.601-.253zM36.516 58.846l-3.777 7.748 7.289-.012zM39.217 74.054l-6.478-7.46-3.474 6.443zM32.739 66.594l6.478 7.46.811-7.472zM32.739 66.594l-8.412-.562 4.938 7.005zM-24.327 66.032l3.904 7.319 4.378-7.197zM-16.045 66.154l-4.378 7.197 8.29.591z"/><path d="M-20.423 73.351l4.273 7.848 4.017-7.257zM-8.493 97.264L-12.1 89.3l-4.846 7.059zM-12.1 89.3l8.058.523-4.013-7.95zM-4.042 89.823L-12.1 89.3l3.607 7.964z"/><path d="M-12.1 89.3l-7.998-1.007 3.152 8.066z"/><path d="M-12.1 89.3l-4.05-8.101-3.948 7.094zM-16.15 81.199l4.05 8.101 4.045-7.427zM24.327 66.032l4.222-7.16-8.307-.24z"/><path d="M28.549 58.872l4.591-7.478-8.38-.036z"/><path d="M20.242 58.632l8.307.24-3.789-7.514zM33.14 51.394l-4.591 7.478 7.967-.026z"/><path d="M32.739 66.594l-4.19-7.722-4.222 7.16z"/><path d="M28.549 58.872l4.19 7.722 3.777-7.748zM-29.265 73.037l4.938-7.005-8.412.562z"/><path d="M-29.265 73.037l-3.474-6.443-6.478 7.46zM-33.137 79.125l3.872-6.088-9.952 1.017zM-29.265 73.037l8.842.314-3.904-7.319zM-16.15 81.199l-8.234-1.031 4.286 8.125zM-20.098 88.293l-4.286-8.125-3.633 6.622z"/><path d="M-24.384 80.168l-8.753-1.043 5.12 7.665zM-20.423 73.351l-3.961 6.817 8.234 1.031zM-29.265 73.037l4.881 7.131 3.961-6.817z"/><path d="M-24.384 80.168l-4.881-7.131-3.872 6.088z"/></svg>