<svg xmlns="http://www.w3.org/2000/svg" viewBox="-50 0 100 57.579"><style>path{fill:none;stroke:#969696;stroke-width:.5;stroke-linejoin:bevel}</style><path d="M-46.864 33.642l3.641-5.02-6.777.167zM-30.788 48.762l5.111 2.871-.506-6.396zM16.911 7.505l4.028-3.652-6.051-1.979zM-31.341 9.169l-4.381 3.131 5.15 4.183zM-16.911 7.505l2.023-5.631-6.051 1.979zM-26.009 6.112l-5.332 3.057 4.601 2.986zM-21.193 11.086l.254-7.233-5.07 2.259zM20.939 3.853l-4.028 3.652 4.282 3.581zM-8.98 34.248l3.014-5.452-6.134-.041zM-20.994 34.164l-3.192 5.569 5.812.373zM-8.692 45.407l5.794.472-3.018-5.913zM-21.085 46.212l-3.101-6.479-1.997 5.504z"/><path d="M-25.677 51.633l4.592-5.421-5.098-.975zM-24.186 39.733l3.101 6.479 2.711-6.106zM-35.74 18.808l.018-6.508-4.358 3.801zM-29.932 28.054l2.702-5.887-5.746 1.031zM-36.646 28.186l6.714-.132-3.044-4.856z"/><path d="M-27.23 22.167l-2.702 5.887 6.057-.223zM-11.157 6.744l-3.731-4.87-2.023 5.631zM20.939 3.853l.254 7.233 4.816-4.974zM39.871 33.506l3.352-4.884-6.577-.436zM43.223 28.622l3.641 5.02L50 28.789zM-2.898 45.879L0 40.178l-5.916-.212zM15.11 23.032l5.862-.333-2.808-5.579zM43.35 38.054l-7.386.179 3.68 3.661z"/><path d="M35.964 38.233l-.42 7.185 4.1-3.524zM26.183 45.237l-.506 6.396 5.111-2.871zM30.788 48.762l4.756-3.344-4.568-3.153zM-15.135 34.395l6.155-.147-3.12-5.493zM-15.135 34.395l-5.859-.231 2.62 5.942zM-14.779 55.733l5.837 1.227-2.303-6.197zM-14.779 55.733l-2.207-5.749-3.731 3.828z"/><path d="M-20.717 53.812l3.731-3.828-4.099-3.772zM-16.986 49.984l2.207 5.749 3.534-4.97z"/><path d="M-20.717 53.812l-.368-7.6-4.592 5.421zM-20.972 22.699L-24 17.184l-3.23 4.983zM-20.972 22.699l-6.258-.532 3.355 5.664zM-43.223 28.622l-3.756-4.525L-50 28.789zM-27.23 22.167l-3.342-5.684-2.404 6.715zM-31.341 9.169l.769 7.314 3.832-4.328zM-30.572 16.483l6.572.701-2.74-5.029z"/><path d="M-24 17.184l-6.572-.701 3.342 5.684zM-35.74 18.808l5.168-2.325-5.15-4.183zM-30.572 16.483l-5.168 2.325 2.764 4.39zM-35.964 38.233l-7.386-.179 3.706 3.84zM-11.157 6.744L-8.981.625l-5.907 1.249zM11.864 17.852l3.246 5.18 3.054-5.912zM11.157 6.744l5.754.761-2.023-5.631zM-2.957 23.167l-3.009 5.629L0 28.811z"/><path d="M2.957 23.167h-5.914L0 28.811zM2.964 34.446l3.002-5.65L0 28.811z"/><path d="M5.966 28.796l-3.009-5.629L0 28.811zM-2.964 34.446h5.928L0 28.811zM-2.964 34.446l-6.016-.198 3.064 5.718z"/><path d="M-5.966 28.796l3.002 5.65L0 28.811z"/><path d="M-8.98 34.248l6.016.198-3.002-5.65zM-2.964 34.446L0 40.178l2.964-5.732z"/><path d="M0 40.178l-2.964-5.732-2.952 5.52zM2.995 57.579l5.947-.619-3.286-5.415zM2.995 57.579L0 51.812l-2.995 5.767z"/><path d="M0 51.812l2.995 5.767 2.661-6.034zM0 40.178l5.916-.212-2.952-5.52zM20.994 34.164l5.507-1.053-2.626-5.28z"/><path d="M26.501 33.111l-5.507 1.053 3.192 5.569zM33.347 32.86l-3.415-4.806-3.431 5.057z"/><path d="M29.932 28.054l3.415 4.806 3.299-4.674z"/><path d="M26.501 33.111l3.431-5.057-6.057-.223zM33.347 32.86l-6.846.251 3.12 4.229zM39.871 33.506l3.479 4.548 3.514-4.412zM33.347 32.86l-3.726 4.48 6.343.893z"/><path d="M39.871 33.506l6.993.136-3.641-5.02zM33.347 32.86l6.524.646-3.225-5.32zM39.871 33.506l-3.907 4.727 7.386-.179zM33.347 32.86l2.617 5.373 3.907-4.727zM29.621 37.34l-5.435 2.393 6.79 2.532z"/><path d="M30.976 42.265l4.988-4.032-6.343-.893zM29.621 37.34l-3.12-4.229-2.315 6.622z"/><path d="M35.964 38.233l-4.988 4.032 4.568 3.153zM30.788 48.762l.188-6.497-4.793 2.972z"/><path d="M26.183 45.237l4.793-2.972-6.79-2.532zM-8.98 34.248l-2.981 5.391 6.045.327zM-11.961 39.639l3.269 5.768 2.776-5.441z"/><path d="M-15.135 34.395l3.174 5.244 2.981-5.391z"/><path d="M-11.961 39.639l-3.174-5.244-3.239 5.711zM-5.656 51.545l-3.036-6.138-2.553 5.356zM0 51.812l-5.656-.267 2.661 6.034zM-8.692 45.407l3.036 6.138 2.758-5.666z"/><path d="M-5.656 51.545L0 51.812l-2.898-5.933zM-8.942 56.96l3.286-5.415-5.589-.782zM-5.656 51.545l-3.286 5.415 5.947.619zM-5.966 28.796l-3-5.486-3.134 5.445z"/><path d="M-2.957 23.167l-6.009.143 3 5.486zM-8.966 23.31l6.009-.143-2.91-5.55zM-20.994 34.164l2.949-5.534-5.83-.799zM-18.045 28.63l2.91 5.765 3.035-5.64zM-15.135 34.395l-2.91-5.765-2.949 5.534zM-18.045 28.63l-2.927-5.931-2.903 5.132zM-40.08 16.101l-3.62 3.825 3.94 3.528zM-39.871 33.506l-3.352-4.884-3.641 5.02zM-43.223 28.622l6.577-.436-3.114-4.732zM-26.501 33.111l-6.846-.251 3.726 4.48zM-30.788 48.762l4.605-3.525-4.793-2.972zM-35.544 45.418l-.42-7.185-3.68 3.661zM0 5.76l-2.877 5.944h5.754zM5.867 17.617l2.772-5.48-5.762-.433zM5.867 17.617l5.997.235-3.225-5.715zM14.609 12.531l-2.745 5.321 6.3-.732zM21.193 11.086l-6.584 1.445 3.555 4.589zM14.609 12.531l6.584-1.445-4.282-3.581z"/><path d="M11.864 17.852l2.745-5.321-5.97-.394z"/><path d="M14.609 12.531l-3.452-5.787-2.518 5.393zM11.157 6.744l3.452 5.787 2.302-5.026zM24 17.184l-2.807-6.098-3.029 6.034zM20.972 22.699L24 17.184l-5.836-.064zM46.979 24.097l-3.756 4.525 6.777.167z"/><path d="M43.223 28.622l3.756-4.525-7.219-.643zM35.74 18.808l-5.168-2.325 2.404 6.715z"/><path d="M40.08 16.101l-4.34 2.707 4.02 4.646zM5.966 28.796l3.014 5.452 3.12-5.493z"/><path d="M8.98 34.248l-3.014-5.452-3.002 5.65zM8.98 34.248l-3.064 5.718 6.045-.327z"/><path d="M5.916 39.966l3.064-5.718-6.016.198zM2.898 45.879L0 51.812l5.656-.267zM2.898 45.879L0 40.178l-2.898 5.701z"/><path d="M0 51.812l2.898-5.933h-5.796zM2.898 45.879l3.018-5.913L0 40.178zM18.045 28.63l2.927-5.931-5.862.333zM18.045 28.63l-2.935-5.598-3.01 5.723zM20.972 22.699l-2.927 5.931 5.83-.799z"/><path d="M18.045 28.63l2.949 5.534 2.881-6.333zM21.085 46.212l5.098-.975-1.997-5.504zM26.183 45.237l-5.098.975 4.592 5.421zM-14.66 44.86l-2.326 5.124 5.741.779zM-8.692 45.407l-5.968-.547 3.415 5.903z"/><path d="M-21.085 46.212l6.425-1.352-3.714-4.754z"/><path d="M-16.986 49.984l2.326-5.124-6.425 1.352zM-11.961 39.639l-2.699 5.221 5.968.547zM-14.66 44.86l2.699-5.221-6.413.467zM-11.864 17.852l2.898 5.458 3.099-5.693zM-35.74 18.808l-4.02 4.646 6.784-.256z"/><path d="M-40.08 16.101l.32 7.353 4.02-4.646zM-36.646 28.186l3.67-4.988-6.784.256zM-39.76 23.454l-3.94-3.528-3.279 4.171zM-43.223 28.622l3.463-5.168-7.219.643zM-36.646 28.186l3.299 4.674 3.415-4.806zM-29.932 28.054l3.431 5.057 2.626-5.28z"/><path d="M-26.501 33.111l5.507 1.053-2.881-6.333zM-20.994 34.164l-5.507-1.053 2.315 6.622zM-26.501 33.111l-3.431-5.057-3.415 4.806zM-35.964 38.233l-3.907-4.727-3.479 4.548zM-43.35 38.054l3.479-4.548-6.993.136zM-39.871 33.506l3.225-5.32-6.577.436zM-36.646 28.186l-3.225 5.32 6.524-.646z"/><path d="M-33.347 32.86l-6.524.646 3.907 4.727z"/><path d="M-33.347 32.86l-2.617 5.373 6.343-.893zM-8.981.625l3.375 5.394L-3.005 0z"/><path d="M-5.606 6.019L-8.981.625l-2.176 6.119zM0 5.76l-5.606.259 2.729 5.685z"/><path d="M-5.606 6.019L0 5.76-3.005 0zM8.981.625l2.176 6.119 3.731-4.87zM0 17.427l-2.877-5.723-2.99 5.913zM-2.957 23.167L0 17.427l-5.867.19z"/><path d="M-2.877 11.704L0 17.427l2.877-5.723zM0 17.427l-2.957 5.74h5.914z"/><path d="M5.867 17.617L0 17.427l2.957 5.74z"/><path d="M0 17.427l5.867.19-2.99-5.913zM11.864 17.852L8.966 23.31l6.144-.278zM15.11 23.032l-6.144.278 3.134 5.445z"/><path d="M8.966 23.31l-3 5.486 6.134-.041z"/><path d="M5.966 28.796l3-5.486-6.009-.143z"/><path d="M5.867 17.617l3.099 5.693 2.898-5.458z"/><path d="M8.966 23.31l-3.099-5.693-2.91 5.55zM30.572 16.483l-3.342 5.684 5.746 1.031zM27.23 22.167l-6.258.532 2.903 5.132zM27.23 22.167l2.702 5.887 3.044-4.856z"/><path d="M29.932 28.054l-2.702-5.887-3.355 5.664zM24 17.184l3.23 4.983 3.342-5.684z"/><path d="M27.23 22.167L24 17.184l-3.028 5.515zM26.74 12.155l4.601-2.986-5.332-3.057z"/><path d="M21.193 11.086l5.547 1.069-.731-6.043zM24 17.184l2.74-5.029-5.547-1.069z"/><path d="M26.74 12.155L24 17.184l6.572-.701zM32.976 23.198l3.67 4.988 3.114-4.732z"/><path d="M29.932 28.054l6.714.132-3.67-4.988zM43.223 28.622l-3.463-5.168-3.114 4.732zM39.76 23.454l7.219.643-3.279-4.171zM40.08 16.101l-.32 7.353 3.94-3.528z"/><path d="M39.76 23.454l-4.02-4.646-2.764 4.39zM5.916 39.966l2.776 5.441 3.269-5.768z"/><path d="M8.692 45.407l5.968-.547-2.699-5.221zM2.898 45.879l5.794-.472-2.776-5.441zM8.692 45.407l-5.794.472 2.758 5.666zM8.98 34.248l6.155.147-3.035-5.64z"/><path d="M15.135 34.395l-6.155-.147 2.981 5.391zM18.045 28.63l-2.91 5.765 5.859-.231z"/><path d="M15.135 34.395l2.91-5.765-5.945.125zM16.986 49.984l-2.207 5.749 5.938-1.921zM20.717 53.812l4.96-2.179-4.592-5.421z"/><path d="M16.986 49.984l4.099-3.772-6.425-1.352z"/><path d="M20.717 53.812l.368-7.6-4.099 3.772zM-20.972 22.699l2.808-5.579-5.836.064zM-30.976 42.265l1.355-4.925-6.343.893zM-30.788 48.762l-.188-6.497-4.568 3.153zM-24.186 39.733l-6.79 2.532 4.793 2.972z"/><path d="M-35.544 45.418l4.568-3.153-4.988-4.032zM-24.186 39.733l-5.435-2.393-1.355 4.925z"/><path d="M-24.186 39.733l-2.315-6.622-3.12 4.229zM-8.639 12.137l-3.225 5.715 5.997-.235z"/><path d="M-2.877 11.704l-5.762.433 2.772 5.48z"/><path d="M-5.606 6.019l-3.033 6.118 5.762-.433z"/><path d="M-8.639 12.137l3.033-6.118-5.551.725zM0 5.76L3.005 0h-6.01zM35.722 12.3l.018 6.508 4.34-2.707z"/><path d="M35.74 18.808l-.018-6.508-5.15 4.183zM31.341 9.169l-4.601 2.986 3.832 4.328z"/><path d="M31.341 9.169l-.769 7.314 5.15-4.183zM14.66 44.86l3.714-4.754-6.413-.467zM20.994 34.164l-2.62 5.942 5.812-.373zM21.085 46.212l-2.711-6.106-3.714 4.754z"/><path d="M18.374 40.106l2.711 6.106 3.101-6.479zM15.135 34.395l3.239 5.711 2.62-5.942zM18.374 40.106l-3.239-5.711-3.174 5.244zM14.779 55.733l-3.534-4.97-2.303 6.197zM11.245 50.763l-2.553-5.356-3.036 6.138z"/><path d="M8.942 56.96l2.303-6.197-5.589.782zM8.692 45.407l2.553 5.356 3.415-5.903zM16.986 49.984l-5.741.779 3.534 4.97z"/><path d="M11.245 50.763l5.741-.779-2.326-5.124zM-24 17.184l2.807-6.098-5.547 1.069zM-21.193 11.086l-4.816-4.974-.731 6.043zM-21.193 11.086l4.282-3.581-4.028-3.652zM-18.164 17.12l-3.029-6.034L-24 17.184zM-15.11 23.032l-2.935 5.598 5.945.125z"/><path d="M-8.966 23.31l-6.144-.278 3.01 5.723zM-18.045 28.63l2.935-5.598-5.862-.333z"/><path d="M-11.864 17.852l-3.246 5.18 6.144.278z"/><path d="M-15.11 23.032l-3.054-5.912-2.808 5.579z"/><path d="M-18.164 17.12l3.054 5.912 3.246-5.18zM8.639 12.137L5.606 6.019l-2.729 5.685z"/><path d="M11.157 6.744l-5.551-.725 3.033 6.118zM5.606 6.019L0 5.76l2.877 5.944z"/><path d="M8.981.625L5.606 6.019l5.551.725zM5.606 6.019L3.005 0 0 5.76z"/><path d="M3.005 0l2.601 6.019L8.981.625zM-14.609 12.531l-3.555 4.589 6.3.732zM-14.609 12.531l5.97-.394-2.518-5.393z"/><path d="M-14.609 12.531l3.452-5.787-5.754.761zM-8.639 12.137l-5.97.394 2.745 5.321zM-14.609 12.531l-6.584-1.445 3.029 6.034z"/><path d="M-21.193 11.086l6.584 1.445-2.302-5.026z"/></svg>