<svg xmlns="http://www.w3.org/2000/svg" viewBox="-124.33 0 300 300.092"><style>path{fill:none;stroke:#000;stroke-width:1;stroke-linejoin:bevel}</style><path d="M154.701 259.329l7.844-16.523-19.854 2.221zm-31.16 15.441l-21.308 3.226 11.222 11.221zm11.935 13.073l-22.021 1.374 10.875 10.875zm-11.935-13.073l-10.086 14.447 22.021-1.374zm-8.634-49.347l-19.717-1.056 11.113 15.488zM96.964 251.96l15.4 8.78-6.061-20.885z"/><path d="M133.528 260.433l21.173-1.104-12.01-14.302zm0 0l-21.164.307 11.177 14.03zM-112.988 62.775l.56-22.2-11.902 10.858zm68.846 48.214L-54.921 96.19l-6.971 17.68zM-54.921 96.19l-19.63 5.022 12.659 12.658zM22.764 1.414L4.824 0l9.533 17.575z"/><path d="M4.824 0l-7.779 17.201 17.312.374zm-43.302 19.205l6.829-16.399-18.912 4.554zm6.829-16.399l-6.829 16.399 18.19-1.374zM69.495 145.378l10.084 14.865 9.938-15.657zm10.084 14.865l-10.084-14.865-9.993 16.363zM65.51 241.272l8.027-17.322-20.397 4.953zm8.027-17.322l21.653.417-6.489-15.543zm38.827 36.79l-21.361 6.026 11.23 11.23z"/><path d="M112.364 260.74l-10.131 17.256 21.308-3.226zm-15.4-8.78l-5.961 14.806 21.361-6.026z"/><path d="M91.003 266.766l5.961-14.806-18.889 1.877zm44.473 21.077l10.104-13.478-22.039.405zm-1.948-27.41l12.052 13.932 9.121-15.036z"/><path d="M145.58 274.365l-12.052-13.932-9.987 14.337zM45.447 28.107l-4.49-23.336-8.663 13.411zM22.764 1.414l9.53 16.768 8.663-13.411z"/><path d="M32.294 18.182l-9.53-16.768-8.407 16.161z"/><path d="M25.385 33.946l6.909-15.764-17.937-.607zm-56.033-.016l-7.83-14.725-13.412 9.632z"/><path d="M-38.478 19.205l7.83 14.725 10.36-16.099zm-36.073 82.007l2.879-17.906-16.548 4.236zm-23.223-47.863l-14.654-12.774-.56 22.2zm39.052-6.164l6.832-18.348-17.265 3.545zm11.004 15.885l-11.004-15.885-7.555 17.787zm-18.943-50.01l-16.534 7.802 14.04 11.52z"/><path d="M-51.89 28.837L-66.661 13.06l-2.494 19.322zm1.329-21.477l-1.329 21.477 13.412-9.632z"/><path d="M-50.561 7.36l-16.1 5.7 14.771 15.777zm47.606 9.841L-13.299.437l-6.989 17.394z"/><path d="M-13.299.437l10.344 16.764L4.824 0zm0 0l-18.35 2.369 11.361 15.025zm131.525 128.587l18.834.399-9.892-16.508zm-10.267-16.088l10.267 16.088 8.942-16.109zM1.947 177.709l11.692 11.692 7.413-21.096zm11.692 11.692l12.675 12.676 5.195-19.225zm39.501 39.502l3.54-17.254-17.263 3.531zm-13.338-64.51l10.51 14.084 9.19-16.736z"/><path d="M50.312 178.477l-10.51-14.084-8.293 18.459zm28.887-49.339l-9.704 16.24 20.022-.792zM96.964 251.96l-11.788-14.305-7.101 16.182zm-1.774-27.593l-10.014 13.288 21.127 2.2z"/><path d="M85.176 237.655l-19.666 3.617 12.565 12.565zm0 0l11.788 14.305 9.339-12.105zM73.537 223.95l11.639 13.705 10.014-13.288z"/><path d="M85.176 237.655L73.537 223.95l-8.027 17.322zm88.094-32.006l-15.662 6.222 11.154 13.239z"/><path d="M157.608 211.871l15.662-6.222-17.772-10.786zm-25.321 16.377l-7.488-18.677-9.892 15.852zm-19.923 32.492l10.93-15.919-16.991-4.966z"/><path d="M123.294 244.821l10.234 15.612 9.163-15.406zm0 0l-8.387-19.398-8.604 14.432z"/><path d="M133.528 260.433l-10.234-15.612-10.93 15.919zm-10.234-15.612l8.993-16.573-17.38-2.825zm8.993-16.573l-8.993 16.573 19.397.206zM22.961 98.843L3.457 100.24l9.104 15.145zM3.457 100.24L-3.882 84.4l-12.126 17.108z"/><path d="M3.457 100.24l-11.244 16.619 20.348-1.474z"/><path d="M-7.787 116.859L3.457 100.24l-19.465 1.268zm0 0l-20.444 2.128 10.477 14.121zm-20.444 2.128l20.444-2.128-8.221-15.351z"/><path d="M-33.591 98.757l5.36 20.23 12.223-17.479zm0 0l-21.33-2.567 10.779 14.799z"/><path d="M-28.231 118.987l-5.36-20.23-10.551 12.232zm34.162 41.961l-17.383 3.363 13.399 13.398zm-54.262-33.517l4.189-16.442-17.75 2.881zM56.592 9.29l5.658 20.676 9.966-14.517zm68.207 200.281l11.916-16.144-18.76-.956zm14.332-49.666l18.89.796-5.929-15.962z"/><path d="M158.021 160.701l15.889-10.842-21.818-5.12zm-49.788-79.957l10.006-14.018-15.49-5.975zm-209.329-6.077l3.322-21.318-15.214 9.426zm14.684-35.324l3.217-18.481-16.21 9.868zm0 0l17.257-6.961-14.04-11.52z"/><path d="M-99.405 30.73l-13.023 9.845 14.654 12.774z"/><path d="M-99.405 30.73l1.631 22.619 11.362-14.006zm44.484 65.46l-16.751-12.884-2.879 17.906z"/><path d="M-54.921 96.19l-.402-17.086-16.349 4.202z"/><path d="M-71.672 83.306l16.349-4.202-10.954-14.132z"/><path d="M-55.323 79.104l7.605-16.034-18.559 1.902zM99.168 192.146l-18.146-1.306 7.679 17.984z"/><path d="M81.022 190.84l18.146 1.306-9.286-16.911zm18.146 1.306l9.568-16.237-18.854-.674zm9.568-16.237l-9.568 16.237 18.787.325zm21.733-31.142l-20.627-.355 9.536 15.521zm8.662 15.138l-8.662-15.138-11.091 15.166zm-8.662-15.138l8.662 15.138 12.961-15.166zm-20.627-.355l20.627.355-12.243-15.743zm20.627.355l6.591-15.344-18.834-.399zm6.591-15.344l-6.591 15.344 21.623-.028zm.428-32.72l-19.782.317 9.462 15.895zm-19.782.317l-9.473-16.276-9.746 15.796zm-9.747 15.916l9.747-15.916-19.219-.48z"/><path d="M117.706 97.02l-9.747 15.916 19.209-.021zM26.314 202.077l17.714-5.305-12.519-13.92zm17.714-5.305l-17.714 5.305 13.103 13.103zm12.652 14.877l-12.652-14.877-4.611 18.408z"/><path d="M44.028 196.772l12.652 14.877 4.936-19.186zm0 0l6.284-18.295-18.803 4.375z"/><path d="M50.312 178.477l-6.284 18.295 17.588-4.309zm19.183-33.099l-19.562 1.52 9.569 14.843zm-19.562 1.52l-10.131 17.495 19.7-2.652zm-28.881 21.407l-6.79-21.111-8.331 13.754zm-19.105 9.404l19.105-9.404-15.121-7.357zm19.105-9.404l-7.413 21.096 17.87-6.549zm18.75-3.912l-18.75 3.912 10.457 14.547zm58.929-35.48l11.111 15.499 8.384-15.388z"/><path d="M109.842 144.412l-11.111-15.499-9.214 15.673zm-1.883-31.476l-9.228 15.977 19.495.111z"/><path d="M98.731 128.913l-19.532.225 10.318 15.448zm51.485 99.863l-17.929-.528 10.404 16.779z"/><path d="M162.545 242.806l-12.329-14.03-7.525 16.251zm-12.329-14.03l12.329 14.03 6.217-17.696zm7.392-16.905l-7.392 16.905 18.546-3.666zM95.19 224.367l11.695-15.659-18.184.116zm11.695-15.659L95.19 224.367l19.717 1.056z"/><path d="M106.885 208.708l-7.717-16.562-10.467 16.678z"/><path d="M99.168 192.146l7.717 16.562 11.07-16.237zm7.717 16.562l17.914.863-6.844-17.1zm17.914.863l-17.914-.863 8.022 16.715zM33.626 81.745L22.961 98.843l19.163-.949zm17.301 32.281l-18.861.615 8.836 16.682z"/><path d="M32.066 114.641l18.861-.615-8.803-16.132zm-9.424 16.498l9.424-16.498-19.505.744zm9.424-16.498l-9.424 16.498 18.26.184zm-9.105-15.798l9.105 15.798 10.058-16.747z"/><path d="M32.066 114.641l-9.105-15.798-10.4 16.542zm-9.424 16.498l-19.559.176 11.179 15.879zm-19.559.176l19.559-.176-10.081-15.754zm0 0l-10.87-14.456-9.967 16.249z"/><path d="M-7.787 116.859l10.87 14.456 9.478-15.93zM-3.882 84.4l-17.705-1.186 5.579 18.294zm-17.705-1.186l-12.004 15.543 17.583 2.751zm-26.744 44.217l20.1-8.444-15.911-7.998zm20.1-8.444l-8.367 20.178 18.844-6.057zm-8.367 20.178l12.436 12.436 6.408-18.493z"/><path d="M-48.331 127.431l11.733 11.734 8.367-20.178zm73.716-93.485l20.062-5.839-13.153-9.925zm20.062-5.839L56.592 9.29 40.957 4.771zm0 0l16.803 1.859L56.592 9.29zm33.831 7.765l21.632-4.099-13.884-8.792z"/><path d="M79.278 35.872l7.748-12.891-14.81-7.532zM62.25 29.966l17.028 5.906-7.062-20.423z"/><path d="M79.278 35.872L62.25 29.966l8.988 19.342zm13.604 11.4l-13.604-11.4-8.04 13.436z"/><path d="M79.278 35.872l13.604 11.4 8.028-15.499zM-2.955 17.201L6.59 34.31l7.767-16.735zM6.59 34.31l18.795-.364-11.028-16.371z"/><path d="M6.59 34.31l9.683 16.133 9.112-16.497z"/><path d="M16.273 50.443L6.59 34.31l-9.16 16.572z"/><path d="M6.517 67.314l9.756-16.871-18.843.439zm9.756-16.871L6.517 67.314l19.006-1.82zm-57.099-3.74l10.178-12.773-21.242-5.093zm0 0l-6.892 16.367 17.073 2.407z"/><path d="M-58.722 47.185l17.896-.482-11.064-17.866zm11.004 15.885l6.892-16.367-17.896.482zm26.195-12.721l-19.303-3.646 10.181 18.774zm-19.303-3.646l19.303 3.646-9.125-16.419zm198.847 113.998l17.649 7.597-1.76-18.439zm-12.943 16.284l-8.363 16.442 18.783 1.436zm0 0l12.943-16.284-18.89-.796zm9.019-48.621l-17.037 1.059 15.032 15.316zm16.471 4.712l-18.476 11.663 21.818 5.12z"/><path d="M170.568 133.076l-16.471-4.712-2.005 16.375zM92.882 47.272l21.215-5.291-13.187-10.208zm21.215-5.291l-21.215 5.291 9.867 13.479z"/><path d="M102.749 60.751l23.268-7.608-11.92-11.162zm0 0l15.49 5.975 7.778-13.583zm-187.615 7.403l13.194 15.152 5.395-18.334z"/><path d="M-71.672 83.306l-13.194-15.152-3.354 19.388zm-29.424-8.639l16.23-6.513-12.908-14.805z"/><path d="M-84.866 68.154l-16.23 6.513 12.876 12.875zm164.445 92.089l-9.501 15.879 19.804-.887z"/><path d="M70.078 176.122l9.501-15.879-20.077 1.498zm-19.766 2.355l19.766-2.355-10.576-14.381zm19.766-2.355l-19.766 2.355 11.304 13.986zm10.944 14.718l-10.944-14.718-8.462 16.341z"/><path d="M70.078 176.122l10.944 14.718 8.86-15.605zm2.361 30.493l1.098 17.335 15.164-15.126zm-15.759 5.034l15.759-5.034-10.823-14.152z"/><path d="M73.537 223.95l-1.098-17.335-15.759 5.034zm0 0L56.68 211.649l-3.54 17.254z"/><path d="M81.022 190.84l-8.583 15.775 16.262 2.209zm-8.583 15.775l8.583-15.775-19.406 1.623zm27.235-46.929l-20.095.557 10.303 14.992zm10.168-15.274l-10.168 15.274 19.704.247zm-30.263 15.831l20.095-.557-10.157-15.1z"/><path d="M99.674 159.686l10.168-15.274-20.325.174z"/><path d="M108.736 175.909l-9.062-16.223-9.792 15.549z"/><path d="M99.674 159.686l9.062 16.223 10.642-15.976zm28.445-77.783l-9.88-15.177-10.006 14.018z"/><path d="M117.706 97.02l10.413-15.117-19.886-1.159zm10.413-15.117L117.706 97.02l19.782-.317zm-68.184 47.961l19.264-.726-9.236-16.206z"/><path d="M50.927 114.026l9.008 15.838 10.028-16.932z"/><path d="M59.935 129.864l-9.008-15.838-10.025 17.297zm19.264-.726l-19.264.726 9.56 15.514z"/><path d="M59.935 129.864l-10.002 17.034 19.562-1.52z"/><path d="M49.933 146.898l10.002-17.034-19.033 1.459zm-18.834 2.365l-8.457-18.124-8.38 16.055z"/><path d="M22.642 131.139l8.457 18.124 9.803-17.94zm8.457 18.124l18.834-2.365-9.031-15.575zm18.834-2.365l-18.834 2.365 8.703 15.13z"/><path d="M31.099 149.263l-10.047 19.042 18.75-3.912z"/><path d="M21.052 168.305l10.047-19.042-16.837-2.069zm67.741-55.49l19.166.121-9.472-16.396zm-9.594 16.323l9.594-16.323-18.83.117zm19.532-.225l-9.938-16.098-9.594 16.323zm-9.938-16.098l9.938 16.098 9.228-15.977zm47.922 80.612l4.737 17.621 14.046-16.185zm4.737 17.621l16.156.823-2.11-17.008zm0 0l-16.653-1.477 7.488 18.677z"/><path d="M141.452 211.048l-4.737-17.621-11.916 16.144zm0 0l8.764 17.728 7.392-16.905z"/><path d="M150.216 228.776l-8.764-17.728-9.165 17.2zM33.626 81.745l10.179-17.442-18.282 1.191zm-39.377 64.713l-5.701 17.853 17.383-3.363zm20.013.736l-20.013-.736 11.682 14.49z"/><path d="M-24.162 151.601l18.411-5.143-12.003-13.35z"/><path d="M-11.452 164.311l5.701-17.853-18.411 5.143zm14.535-32.996l-8.834 15.143 20.013.736z"/><path d="M-5.751 146.458l8.834-15.143-20.837 1.793zm-27.84-47.701l-5.771-16.58-15.559 14.013zM-47.718 63.07l8.356 19.107 8.717-16.7z"/><path d="M-39.362 82.177l-15.961-3.073.402 17.086zm-15.961-3.073l15.961 3.073-8.356-19.107zm33.736 4.11l-17.775-1.037 5.771 16.58z"/><path d="M-39.362 82.177l17.775 1.037-9.058-17.737zM61.204 96.922l-10.277 17.104 19.036-1.094z"/><path d="M50.927 114.026l10.277-17.104-19.08.972zm41.955-66.754l-10.35 15.92 20.217-2.441zm-10.35 15.92l10.35-15.92-21.644 2.036zm-20.34 1.335l20.34-1.335-11.294-13.884zm9.529 15.351l10.811-16.686-20.34 1.335zm-83.48-45.487l-9.764 15.958 18.953.533zm0 0l8.804-17.19-17.333.63zm-18.889-.461l18.889.461-8.529-16.56z"/><path d="M-21.523 50.349l9.764-15.958-18.889-.461zm9.764-15.958L6.59 34.31l-9.545-17.109zM6.59 34.31l-18.349.081 9.189 16.491zm16.371 64.533l-8.07-15.781L3.457 100.24zm-8.07-15.781l18.735-1.317-8.103-16.251z"/><path d="M14.891 83.062L-3.882 84.4l7.339 15.84z"/><path d="M33.626 81.745l-18.735 1.317 8.07 15.781z"/><path d="M14.891 83.062L6.517 67.314-3.882 84.4zM6.517 67.314l8.374 15.748 10.632-17.568zm-28.04-16.965l9.522 16.767 9.431-16.234zm-.064 32.865l9.586-16.098-18.644-1.639z"/><path d="M-12.001 67.116l-9.522-16.767-9.122 15.128zm0 0l-9.586 16.098L-3.882 84.4zm0 0l18.518.198-9.087-16.432z"/><path d="M6.517 67.314l-18.518-.198L-3.882 84.4zm120.881 108.869l11.733-16.278-19.753.028zm9.317 17.244l-9.317-17.244-9.443 16.288z"/><path d="M108.736 175.909l18.662.274-8.02-16.25zm18.662.274l-18.662-.274 9.219 16.562zm17.68.802l-17.68-.802 9.317 17.244zm-17.68-.802l17.68.802-5.947-17.08zm47.993 11.974l-19.893 6.706 17.772 10.786z"/><path d="M175.391 188.157l-13.963-9.749-5.93 16.455z"/><path d="M175.67 168.298l-14.242 10.11 13.963 9.749zm-14.242 10.11l14.242-10.11-17.649-7.597zm-16.35-1.423l16.35 1.423-3.407-17.707z"/><path d="M161.428 178.408l-16.35-1.423 10.42 17.878zm3.323-64.069l-10.654 14.025 16.471 4.712zM-86.412 39.343l9.472 12.258 7.785-19.219zm9.472 12.258l18.218-4.416-10.433-14.803z"/><path d="M-58.722 47.185l-18.218 4.416 10.663 13.371zm-18.218 4.416l-9.472-12.258-11.362 14.006z"/><path d="M-84.866 68.154l7.926-16.553-20.834 1.748zm7.926-16.553l-7.926 16.553 18.589-3.182zm195.179 15.125l19.815.147-12.037-13.73zm9.88 15.177l9.935-15.03-19.815-.147zm-92.376-34.49l-19.47 3.03 9.25 15.051zm-19.47 3.03l19.47-3.03-10.358-13.467zm19.47-3.03l9.704-19.306-20.062 5.839zm8.062 16.89l-8.062-16.89-10.22 18.081zm0 0l8.554 16.745 9.833-16.521zm8.554 16.745l-18.733.697 8.498 16.149zm0 0l19.362-1.17-9.529-15.351z"/><path d="M52.359 81.048l-8.554-16.745-10.179 17.442zm0 0l8.845 15.874 10.517-17.044z"/><path d="M61.204 96.922l-8.845-15.874-10.235 16.846zm27.589 15.893l-8.595-16.967-10.235 17.084z"/><path d="M80.198 95.848l8.595 16.967 9.694-16.275zm0 0l-18.994 1.074 8.759 16.01z"/><path d="M61.204 96.922l18.994-1.074-8.477-15.97zm84.576 15.258l11.592-14.838-19.884-.639zm0 0l-8.292-15.477-10.32 16.212zm-8.72 17.243l8.72-17.243-18.612.735zm17.037-1.059l-8.317-16.184-8.72 17.243zm10.654-14.025l-18.971-2.159 8.317 16.184z"/><path d="M145.78 112.18l18.971 2.159-7.379-16.997zm11.592-14.838l-8.942-15.836-10.942 15.197zm-8.942-15.836l-20.311.397 9.369 14.8zm0 0l-10.376-14.633-9.935 15.03zm-86.18-51.54l-9.008 16.688 17.996 2.654zm-9.008 16.688l8.95 17.873 9.046-15.219zm-7.795-18.547l7.795 18.547 9.008-16.688zm7.795 18.547l-9.437 17.649 18.387.224zm0 0l-17.499.759 8.062 16.89zm-17.499.759l17.499-.759-7.795-18.547zm46.789 15.779l8.388 15.299 11.829-17.74zm8.388 15.299l17.313 2.253-5.484-19.993zm17.313 2.253L90.92 78.491l7.567 18.049z"/><path d="M90.92 78.491l-8.388-15.299-10.811 16.686zM80.198 95.848L90.92 78.491l-19.199 1.387zM90.92 78.491L80.198 95.848l18.289.692z"/></svg>