<svg xmlns="http://www.w3.org/2000/svg" viewBox="-150 0 300 292.699"><style>path{fill:none;stroke:#000;stroke-width:1;stroke-linejoin:bevel}</style><path d="M-128.003 243.937L-150 259.808l23.057 9.662zM-109.548 176.537l-15.282-19.551-9.046 24.656zM-124.83 156.986l15.282 19.551 10.129-22.354zM23.982 153.327L0 153.225l11.942 23.247zM11.698 129.864l12.284 23.463 12.415-21.95z"/><path d="M23.982 153.327l-12.284-23.463L0 153.225zM0 24.618V0l-21.044 16.079zM-48.994 70.127l-6.676-21.415-17.422 20.214zM28.543 59.776L39.407 32.3l-24.582 9.6zM12.088 222.92L0 246.328l24.166-.709zM108.221 256.341l-24.17 4.028 16.964 17.803zM61.269 220.054l-12.818 23.543 24.7-3.092zM-114.209 133.472l-10.621 23.514 25.411-2.803z"/><path d="M-109.548 176.537l23.901.078-13.772-22.432zM-75.919 111.363L-88.31 89.427l-13.707 21.513zM-75.919 111.363l13.72 20.771 13.158-21.626zM11.698 129.864h-23.396L0 153.225z"/><path d="M-11.698 129.864l-12.284 23.463L0 153.225zM-39.407 32.3L-55.67 48.712l27.127 11.064zM36.056 176.069l-12.074-22.742-12.04 23.145zM88.31 89.427L73.092 68.926 62.437 91.069zM49.041 110.508l26.878.855-13.482-20.294zM88.31 89.427l-12.391 21.936 26.098-.423z"/><path d="M75.919 111.363L88.31 89.427l-25.873 1.642zM87.796 219.11l-26.527.944 11.882 20.451zM84.051 260.369l-8.025 24.175 24.989-6.372zM36.398 221.827l24.871-1.773-13.135-21.591zM36.398 221.827l-24.31 1.093 12.078 22.699zM36.398 221.827l12.053 21.77 12.818-23.543z"/><path d="M48.451 243.597l-12.053-21.77-12.232 23.792zM25.478 291.792l-13.353-22.324L0 292.699z"/><path d="M0 246.328l12.125 23.14 12.041-23.849zM117.651 222.162l28.739 10.151-4.921-23.873zM126.943 269.47l1.06-25.533-19.782 12.404z"/><path d="M126.943 269.47l-18.722-13.129-7.206 21.831zM150 259.808l-3.61-27.495-18.387 11.624z"/><path d="M150 259.808l-21.997-15.871-1.06 25.533zM-98.216 199.783l12.569-23.168-23.901-.078zM-108.221 256.341l-18.722 13.129 25.928 8.702zM-114.209 133.472l25.905-1.061-13.713-21.471z"/><path d="M-88.304 132.411l12.385-21.048-26.098-.423zM-88.304 132.411l-25.905 1.061 14.79 20.711zM-88.304 132.411l26.105-.277-13.72-20.771zM14.825 41.9l6.219-25.821L0 24.618z"/><path d="M0 24.618l21.044-8.539L0 0z"/><path d="M14.825 41.9l24.582-9.6-18.363-16.221zM-21.044 16.079L-39.407 32.3l24.582 9.6z"/><path d="M-21.044 16.079l6.219 25.821L0 24.618z"/><path d="M-14.825 41.9L0 61.246 14.825 41.9zM-62.437 91.069l-13.482 20.294 26.878-.855zM-62.437 91.069l13.443-20.942-24.098-1.201z"/><path d="M-88.31 89.427l25.873 1.642-10.655-22.143zM-62.437 91.069l-25.873-1.642 12.391 21.936zM-62.437 91.069l26.687-3.243-13.244-17.699z"/><path d="M-35.75 87.826l-26.687 3.243 13.396 19.439zM-48.994 70.127l20.451-10.351-27.127-11.064zM-39.407 32.3l10.864 27.476L-14.825 41.9zM-28.543 59.776l-7.207 28.05 22.738-5.635zM-35.75 87.826l7.207-28.05-20.451 10.351z"/><path d="M-35.75 87.826l12.158 20.337 10.58-25.972z"/><path d="M-23.592 108.163L-35.75 87.826l-13.291 22.682zM48.994 70.127l24.098-1.201L55.67 48.712zM73.092 68.926l-24.098 1.201 13.443 20.942zM49.041 110.508l-25.449-2.345 12.805 23.214z"/><path d="M23.592 108.163l-11.894 21.701 24.699 1.513zM120.085 199.747l21.384 8.693-7.593-26.798zM84.051 260.369l15.361-22.993-26.261 3.129z"/><path d="M128.003 243.937l-28.591-6.561 8.809 18.965z"/><path d="M99.412 237.376l-15.361 22.993 24.17-4.028zM99.412 237.376L87.796 219.11l-14.645 21.395zM48.451 243.597l11.844 21.281 12.856-24.373z"/><path d="M60.295 264.878l23.756-4.509-10.9-19.864zM60.295 264.878l15.731 19.666 8.025-24.175zM76.026 284.544l-15.731-19.666-9.458 24.198zM-12.125 269.468L0 246.328l-24.166-.709zM-12.125 269.468l-13.353 22.324L0 292.699zM-12.125 269.468h24.25L0 246.328z"/><path d="M12.125 269.468h-24.25L0 292.699zM-23.938 199.403l-24.196-.94 11.736 23.364zM-141.469 208.44l21.384-8.693-13.791-18.105z"/><path d="M-120.085 199.747l10.537-23.21-24.328 5.105zM-120.085 199.747l-21.384 8.693 23.818 13.722z"/><path d="M-98.216 199.783l-21.869-.036 2.434 22.415z"/><path d="M-120.085 199.747l21.869.036-11.332-23.246zM-84.051 260.369l-24.17-4.028 7.206 21.831zM-117.651 222.162l-23.818-13.722-4.921 23.873zM-128.003 243.937l-18.387-11.624-3.61 27.495z"/><path d="M-117.651 222.162l-28.739 10.151 18.387 11.624zM-108.221 256.341l-19.782-12.404 1.06 25.533zM-74.28 154.074l-11.367 22.541 24.921-.719zM-48.892 153.654l-25.388.42 13.554 21.822z"/><path d="M-85.647 176.615l11.367-22.541-25.139.109zM-74.28 154.074l25.388-.42-13.307-21.52z"/><path d="M-88.304 132.411l14.024 21.663 12.081-21.94z"/><path d="M-74.28 154.074l-14.024-21.663-11.115 21.772zM-23.982 153.327l12.04 23.145L0 153.225z"/><path d="M0 153.225l-11.942 23.247h23.884zM0 199.817l-11.942-23.345-11.996 22.931z"/><path d="M-11.942 176.472L0 199.817l11.942-23.345zM0 246.328l-12.088-23.408-12.078 22.699zM-12.088 222.92l-24.31-1.093 12.232 23.792zM12.088 222.92h-24.176L0 246.328z"/><path d="M-12.088 222.92l-11.85-23.517-12.46 22.424zM0 199.817l-12.088 23.103h24.176z"/><path d="M-12.088 222.92L0 199.817l-23.938-.414zM23.938 199.403l12.118-23.334-24.114.403z"/><path d="M36.056 176.069l-12.118 23.334 24.196-.94zM23.938 199.403l12.46 22.424 11.736-23.364z"/><path d="M36.398 221.827l-12.46-22.424-11.85 23.517z"/><path d="M23.938 199.403L0 199.817l12.088 23.103z"/><path d="M0 199.817l23.938-.414-11.996-22.931zM-14.825 41.9h29.65L0 24.618zM13.012 82.191L0 61.246l-13.012 20.945zM-28.543 59.776L0 61.246-14.825 41.9z"/><path d="M0 61.246l-28.543-1.47 15.531 22.415zM-48.892 153.654l12.495-22.277-25.802.757zM-62.199 132.134l25.802-.757-12.644-20.869zM-11.698 129.864l-24.699 1.513 12.415 21.95z"/><path d="M-36.397 131.377l-12.495 22.277 24.91-.327zM-23.592 108.163l-12.805 23.214 24.699-1.513z"/><path d="M-36.397 131.377l12.805-23.214-25.449 2.345zM60.726 175.896l-24.67.173 12.078 22.394zM88.304 132.411l25.905 1.061-12.192-22.532zM75.919 111.363l12.385 21.048 13.713-21.471zM0 105.05l13.012-22.859h-26.024zM0 105.05l-11.698 24.814h23.396z"/><path d="M0 105.05l-23.592 3.113 11.894 21.701z"/><path d="M-23.592 108.163L0 105.05l-13.012-22.859zM0 105.05l23.592 3.113-10.58-25.972zM23.592 108.163L0 105.05l11.698 24.814zM48.994 70.127L35.75 87.826l26.687 3.243zM35.75 87.826l13.291 22.682 13.396-19.439z"/><path d="M35.75 87.826l-12.158 20.337 25.449 2.345z"/><path d="M23.592 108.163L35.75 87.826l-22.738-5.635zM124.83 156.986l-15.282 19.551 24.328 5.105zM109.548 176.537l10.537 23.21 13.791-18.105zM120.085 199.747l-2.434 22.415 23.818-13.722zM117.651 222.162l10.352 21.775 18.387-11.624z"/><path d="M99.412 237.376l18.239-15.214-29.855-3.052z"/><path d="M117.651 222.162l-18.239 15.214 28.591 6.561zM12.125 269.468l24.175-1.567-12.134-22.282z"/><path d="M36.3 267.901l12.151-24.304-24.285 2.022zM36.3 267.901l-10.822 23.891 25.359-2.716zM36.3 267.901l-24.175 1.567 13.353 22.324z"/><path d="M36.3 267.901l23.995-3.023-11.844-21.281zM60.295 264.878L36.3 267.901l14.537 21.175zM-85.647 176.615l12.667 21.48 12.254-22.199z"/><path d="M-98.216 199.783l25.236-1.688-12.667-21.48z"/><path d="M-72.98 198.095l24.846.368-12.592-22.567zM-76.026 284.544l-8.025-24.175-16.964 17.803zM-60.295 264.878l-15.731 19.666 25.189 4.532z"/><path d="M-76.026 284.544l15.731-19.666-23.756-4.509zM-84.051 260.369l-15.361-22.993-8.809 18.965zM-99.412 237.376l-28.591 6.561 19.782 12.404z"/><path d="M-128.003 243.937l28.591-6.561-18.239-15.214zM-48.134 198.463l12.078-22.394-24.67-.173z"/><path d="M-48.892 153.654l12.836 22.415 12.074-22.742z"/><path d="M-36.056 176.069l-12.836-22.415-11.834 22.242zM-36.056 176.069l-12.078 22.394 24.196.94z"/><path d="M-11.942 176.472l-24.114-.403 12.118 23.334zM-36.056 176.069l24.114.403-12.04-23.145zM36.056 176.069l12.836-22.415-24.91-.327zM23.982 153.327l24.91.327-12.495-22.277zM48.892 153.654l11.834 22.242 13.554-21.822zM60.726 175.896l-11.834-22.242-12.836 22.415zM87.796 219.11L72.98 198.095l-11.711 21.959zM61.269 220.054l11.711-21.959-24.846.368z"/><path d="M72.98 198.095l-12.254-22.199-12.592 22.567zM28.543 59.776l20.451 10.351 6.676-21.415zM28.543 59.776L55.67 48.712 39.407 32.3zM0 61.246l28.543-1.47L14.825 41.9zM28.543 59.776L0 61.246l13.012 20.945z"/><path d="M28.543 59.776l7.207 28.05 13.244-17.699z"/><path d="M35.75 87.826l-7.207-28.05-15.531 22.415zM114.209 133.472l-14.79 20.711 25.411 2.803zM99.419 154.183l-11.115-21.772-14.024 21.663z"/><path d="M88.304 132.411l11.115 21.772 14.79-20.711zM99.419 154.183l10.129 22.354 15.282-19.551zM-36.398 221.827l-12.053 21.77 24.285 2.022zM62.199 132.134l-13.158-21.626-12.644 20.869zM62.199 132.134l26.105.277-12.385-21.048z"/><path d="M62.199 132.134l13.72-20.771-26.878-.855zM88.304 132.411l-26.105-.277 12.081 21.94z"/><path d="M62.199 132.134l-13.307 21.52 25.388.42z"/><path d="M48.892 153.654l13.307-21.52-25.802-.757zM109.548 176.537l-11.332 23.246 21.869-.036zM117.651 222.162l-19.435-22.379-10.42 19.327z"/><path d="M98.216 199.783l19.435 22.379 2.434-22.415zM98.216 199.783l-25.236-1.688 14.816 21.015zM-72.98 198.095l11.711 21.959 13.135-21.591zM-48.134 198.463l-13.135 21.591 24.871 1.773zM-61.269 220.054l12.818 23.543 12.053-21.77zM-25.478 291.792L-36.3 267.901l-14.537 21.175zM-36.3 267.901l24.175 1.567-12.041-23.849z"/><path d="M-12.125 269.468l-24.175-1.567 10.822 23.891zM-36.3 267.901l-23.995-3.023 9.458 24.198zM-36.3 267.901l-12.151-24.304-11.844 21.281z"/><path d="M-48.451 243.597l12.151 24.304 12.134-22.282zM72.98 198.095l12.667-21.48-24.921-.719zM85.647 176.615l13.772-22.432-25.139-.109zM60.726 175.896l24.921.719-11.367-22.541z"/><path d="M99.419 154.183l-13.772 22.432 23.901-.078zM98.216 199.783l-12.569-23.168-12.667 21.48z"/><path d="M85.647 176.615l12.569 23.168 11.332-23.246zM-87.796 219.11l14.816-21.015-25.236 1.688z"/><path d="M-87.796 219.11l-10.42-19.327-19.435 22.379zM-99.412 237.376l11.616-18.266-29.855 3.052zM-87.796 219.11l26.527.944-11.711-21.959zM-48.451 243.597l-24.7-3.092 12.856 24.373zM-60.295 264.878l-12.856-24.373-10.9 19.864z"/><path d="M-73.151 240.505l-26.261-3.129 15.361 22.993zM-61.269 220.054l-11.882 20.451 24.7 3.092z"/><path d="M-87.796 219.11l14.645 21.395 11.882-20.451z"/><path d="M-73.151 240.505l-14.645-21.395-11.616 18.266z"/></svg>