<svg xmlns="http://www.w3.org/2000/svg" viewBox="-50 -39.831 100 97.566"><style>path{fill:#c8c5bd;stroke:navy;stroke-width:.5;stroke-linejoin:bevel}</style><path d="M-42.668 41.481L-50 46.771l7.686 3.221zM-36.516 19.014l-5.094-6.517-3.015 8.219z"/><path d="M-41.61 12.497l5.094 6.517 3.376-7.451zM7.994 11.278L0 11.244l3.981 7.749zM3.899 3.457l4.095 7.821 4.138-7.317z"/><path d="M7.994 11.278L3.899 3.457 0 11.244zM0-31.625v-8.206l-7.015 5.359zM-16.331-16.456l-2.226-7.138-5.807 6.738zM9.514-19.906l3.622-9.159-8.194 3.2zM4.029 34.475L0 42.278l8.055-.236zM36.074 45.616l-8.057 1.342 5.655 5.935zM20.423 33.52l-4.273 7.848 8.234-1.031zM-38.07 4.659l-3.54 7.838 8.47-.934z"/><path d="M-36.516 19.014l7.967.026-4.591-7.477zM-25.306-2.71l-4.131-7.312-4.569 7.171zM-25.306-2.71l4.573 6.923 4.386-7.208zM3.899 3.457h-7.798L0 11.244z"/><path d="M-3.899 3.457l-4.095 7.821L0 11.244zM-13.136-29.065l-5.421 5.471 9.043 3.688zM12.019 18.858l-4.025-7.58-4.013 7.715zM29.437-10.022l-5.073-6.834-3.552 7.381zM16.347-2.995l8.959.285-4.494-6.765zM29.437-10.022L25.306-2.71l8.7-.141z"/><path d="M25.306-2.71l4.131-7.312-8.625.547zM29.265 33.205l-8.842.315 3.961 6.817zM28.017 46.958l-2.675 8.059 8.33-2.124zM12.133 34.111l8.29-.591-4.378-7.197zM12.133 34.111l-8.104.364 4.026 7.567zM12.133 34.111l4.017 7.257 4.273-7.848zM16.15 41.368l-4.017-7.257-4.078 7.931zM8.493 57.433l-4.451-7.442L0 57.735zM0 42.278l4.042 7.713 4.013-7.949zM39.217 34.223l9.58 3.384-1.641-7.958zM42.314 49.992l.354-8.511-6.594 4.135zM42.314 49.992l-6.24-4.376-2.402 7.277zM50 46.771l-1.203-9.164-6.129 3.874z"/><path d="M50 46.771l-7.332-5.29-.354 8.511zM-32.739 26.763l4.19-7.723-7.967-.026zM-36.074 45.616l-6.24 4.376 8.642 2.901zM-38.07 4.659l8.635-.353-4.571-7.157zM-29.435 4.306l4.129-7.016-8.7-.141zM-29.435 4.306l-8.635.353 4.93 6.904zM-29.435 4.306l8.702-.093-4.573-6.923zM4.942-25.865l2.073-8.607L0-31.625zM0-31.625l7.015-2.847L0-39.831zM4.942-25.865l8.194-3.2-6.121-5.407zM-7.015-34.472l-6.121 5.407 8.194 3.2z"/><path d="M-7.015-34.472l2.073 8.607L0-31.625zM-4.942-25.865L0-19.416l4.942-6.449zM-20.812-9.475l-4.494 6.765 8.959-.285zM-20.812-9.475l4.481-6.981-8.033-.4z"/><path d="M-29.437-10.022l8.625.547-3.552-7.381zM-20.812-9.475l-8.625-.547 4.131 7.312zM-20.812-9.475l8.895-1.081-4.414-5.9zM-11.917-10.556l-8.895 1.081 4.465 6.48zM-16.331-16.456l6.817-3.45-9.043-3.688zM-13.136-29.065l3.622 9.159 4.572-5.959zM-9.514-19.906l-2.403 9.35 7.58-1.878z"/><path d="M-11.917-10.556l2.403-9.35-6.817 3.45zM-11.917-10.556l4.053 6.779 3.527-8.657z"/><path d="M-7.864-3.777l-4.053-6.779-4.43 7.561zM16.331-16.456l8.033-.4-5.807-6.738z"/><path d="M24.364-16.856l-8.033.4 4.481 6.981zM16.347-2.995l-8.483-.782 4.268 7.738z"/><path d="M7.864-3.777L3.899 3.457l8.233.504zM40.028 26.751l7.128 2.898-2.531-8.933zM28.017 46.958l5.12-7.664-8.753 1.043zM42.668 41.481l-9.531-2.187 2.937 6.322z"/><path d="M33.137 39.294l-5.12 7.664 8.057-1.342zM33.137 39.294l-3.872-6.089-4.881 7.132zM16.15 41.368l3.948 7.093 4.286-8.124zM20.098 48.461l7.919-1.503-3.633-6.621zM20.098 48.461l5.244 6.556 2.675-8.059zM25.342 55.017l-5.244-6.556-3.152 8.066zM-4.042 49.991L0 42.278l-8.055-.236zM-4.042 49.991l-4.451 7.442L0 57.735zM-4.042 49.991h8.084L0 42.278z"/><path d="M4.042 49.991h-8.084L0 57.735zM-7.979 26.636l-8.066-.313 3.912 7.788zM-47.156 29.649l7.128-2.898-4.597-6.035z"/><path d="M-40.028 26.751l3.512-7.737-8.109 1.702zM-40.028 26.751l-7.128 2.898 7.939 4.574z"/><path d="M-32.739 26.763l-7.289-.012.811 7.472z"/><path d="M-40.028 26.751l7.289.012-3.777-7.749zM-28.017 46.958l-8.057-1.342 2.402 7.277zM-39.217 34.223l-7.939-4.574-1.641 7.958zM-42.668 41.481l-6.129-3.874L-50 46.771z"/><path d="M-39.217 34.223l-9.58 3.384 6.129 3.874zM-36.074 45.616l-6.594-4.135.354 8.511zM-24.76 11.527l-3.789 7.513 8.307-.239zM-16.297 11.387l-8.463.14 4.518 7.274z"/><path d="M-28.549 19.04l3.789-7.513-8.38.036zM-24.76 11.527l8.463-.14-4.436-7.174z"/><path d="M-29.435 4.306l4.675 7.221 4.027-7.314zM-24.76 11.527l-4.675-7.221-3.705 7.257zM-7.994 11.278l4.013 7.715L0 11.244z"/><path d="M0 11.244l-3.981 7.749h7.962zM0 26.774l-3.981-7.781-3.998 7.643zM-3.981 18.993L0 26.774l3.981-7.781zM0 42.278l-4.029-7.803-4.026 7.567z"/><path d="M-4.029 34.475l-8.104-.364 4.078 7.931zM4.029 34.475h-8.058L0 42.278z"/><path d="M-4.029 34.475l-3.95-7.839-4.154 7.475zM0 26.774l-4.029 7.701h8.058z"/><path d="M-4.029 34.475L0 26.774l-7.979-.138zM7.979 26.636l4.04-7.778-8.038.135zM12.019 18.858l-4.04 7.778 8.066-.313z"/><path d="M7.979 26.636l4.154 7.475 3.912-7.788z"/><path d="M12.133 34.111l-4.154-7.475-3.95 7.839z"/><path d="M7.979 26.636L0 26.774l4.029 7.701z"/><path d="M0 26.774l7.979-.138-3.998-7.643zM-4.942-25.865h9.884L0-31.625zM4.337-12.434L0-19.416l-4.337 6.982z"/><path d="M-9.514-19.906l9.514.49-4.942-6.449zM0-19.416l-9.514-.49 5.177 7.472zM-16.297 11.387l4.165-7.426-8.601.252z"/><path d="M-20.733 4.213l8.601-.252-4.215-6.956z"/><path d="M-3.899 3.457l-8.233.504 4.138 7.317z"/><path d="M-12.132 3.961l-4.165 7.426 8.303-.109z"/><path d="M-7.864-3.777l-4.268 7.738 8.233-.504zM-12.132 3.961l4.268-7.738-8.483.782zM20.242 18.801l-8.223.057 4.026 7.465zM29.435 4.306l8.635.353-4.064-7.51z"/><path d="M25.306-2.71l4.129 7.016 4.571-7.157zM0-4.815l4.337-7.619h-8.674zM0-4.815l-3.899 8.272h7.798z"/><path d="M0-4.815l-7.864 1.038 3.965 7.234z"/><path d="M-7.864-3.777L0-4.815l-4.337-7.619zM0-4.815l7.864 1.038-3.527-8.657zM7.864-3.777L0-4.815l3.899 8.272zM16.331-16.456l-4.414 5.9 8.895 1.081z"/><path d="M11.917-10.556l4.43 7.561 4.465-6.48z"/><path d="M11.917-10.556L7.864-3.777l8.483.782zM7.864-3.777l4.053-6.779-7.58-1.878zM41.61 12.497l-5.094 6.517 8.109 1.702z"/><path d="M36.516 19.014l3.512 7.737 4.597-6.035zM40.028 26.751l-.811 7.472 7.939-4.574zM39.217 34.223l3.451 7.258 6.129-3.874zM33.137 39.294l6.08-5.071-9.952-1.018z"/><path d="M39.217 34.223l-6.08 5.071 9.531 2.187zM4.042 49.991l8.058-.522-4.045-7.427z"/><path d="M12.1 49.469l4.05-8.101-8.095.674zM12.1 49.469l-3.607 7.964 8.453-.906z"/><path d="M12.1 49.469l-8.058.522 4.451 7.442zM12.1 49.469l7.998-1.008-3.948-7.093zM20.098 48.461L12.1 49.469l4.846 7.058zM-28.549 19.04l4.222 7.16 4.085-7.399zM-32.739 26.763l8.412-.563-4.222-7.16z"/><path d="M-24.327 26.2l8.282.123-4.197-7.522zM-25.342 55.017l-2.675-8.059-5.655 5.935zM-20.098 48.461l-5.244 6.556 8.396 1.51z"/><path d="M-25.342 55.017l5.244-6.556-7.919-1.503zM-28.017 46.958l-5.12-7.664-2.937 6.322zM-33.137 39.294l-9.531 2.187 6.594 4.135z"/><path d="M-42.668 41.481l9.531-2.187-6.08-5.071zM-16.045 26.323l4.026-7.465-8.223-.057zM-16.297 11.387l4.278 7.471 4.025-7.58z"/><path d="M-12.019 18.858l-4.278-7.471-3.945 7.414zM-12.019 18.858l-4.026 7.465 8.066.313zM-3.981 18.993l-8.038-.135 4.04 7.778z"/><path d="M-12.019 18.858l8.038.135-4.013-7.715zM12.019 18.858l4.278-7.471-8.303-.109z"/><path d="M7.994 11.278l8.303.109-4.165-7.426zM16.297 11.387l3.945 7.414 4.518-7.274z"/><path d="M20.242 18.801l-3.945-7.414-4.278 7.471zM29.265 33.205L24.327 26.2l-3.904 7.32zM20.423 33.52l3.904-7.32-8.282.123zM24.327 26.2l-4.085-7.399-4.197 7.522zM9.514-19.906l6.817 3.45 2.226-7.138z"/><path d="M9.514-19.906l9.043-3.688-5.421-5.471zM0-19.416l9.514-.49-4.572-5.959zM9.514-19.906L0-19.416l4.337 6.982zM9.514-19.906l2.403 9.35 4.414-5.9z"/><path d="M11.917-10.556l-2.403-9.35-5.177 7.472zM38.07 4.659l-4.93 6.904 8.47.934zM33.14 11.563l-3.705-7.257-4.675 7.221z"/><path d="M29.435 4.306l3.705 7.257 4.93-6.904zM33.14 11.563l3.376 7.451 5.094-6.517zM-12.133 34.111l-4.017 7.257 8.095.674zM20.733 4.213l-4.386-7.208-4.215 6.956zM20.733 4.213l8.702.093-4.129-7.016z"/><path d="M20.733 4.213l4.573-6.923-8.959-.285zM29.435 4.306l-8.702-.093 4.027 7.314z"/><path d="M20.733 4.213l-4.436 7.174 8.463.14z"/><path d="M16.297 11.387l4.436-7.174-8.601-.252zM36.516 19.014l-3.777 7.749 7.289-.012zM39.217 34.223l-6.478-7.46-3.474 6.442z"/><path d="M32.739 26.763l6.478 7.46.811-7.472zM32.739 26.763l-8.412-.563 4.938 7.005zM-24.327 26.2l3.904 7.32 4.378-7.197zM-16.045 26.323l-4.378 7.197 8.29.591z"/><path d="M-20.423 33.52l4.273 7.848 4.017-7.257zM-8.493 57.433l-3.607-7.964-4.846 7.058zM-12.1 49.469l8.058.522-4.013-7.949zM-4.042 49.991l-8.058-.522 3.607 7.964z"/><path d="M-12.1 49.469l-7.998-1.008 3.152 8.066z"/><path d="M-12.1 49.469l-4.05-8.101-3.948 7.093zM-16.15 41.368l4.05 8.101 4.045-7.427zM24.327 26.2l4.222-7.16-8.307-.239z"/><path d="M28.549 19.04l4.591-7.477-8.38-.036z"/><path d="M20.242 18.801l8.307.239-3.789-7.513zM33.14 11.563l-4.591 7.477 7.967-.026zM32.739 26.763l-4.19-7.723-4.222 7.16zM28.549 19.04l4.19 7.723 3.777-7.749zM-29.265 33.205l4.938-7.005-8.412.563z"/><path d="M-29.265 33.205l-3.474-6.442-6.478 7.46zM-33.137 39.294l3.872-6.089-9.952 1.018zM-29.265 33.205l8.842.315-3.904-7.32zM-16.15 41.368l-8.234-1.031 4.286 8.124z"/><path d="M-20.098 48.461l-4.286-8.124-3.633 6.621z"/><path d="M-24.384 40.337l-8.753-1.043 5.12 7.664zM-20.423 33.52l-3.961 6.817 8.234 1.031zM-29.265 33.205l4.881 7.132 3.961-6.817z"/><path d="M-24.384 40.337l-4.881-7.132-3.872 6.089z"/></svg>