<svg xmlns="http://www.w3.org/2000/svg" viewBox="-41.442 -41.442 100 100.028"><style>path{fill:#c8c5bd;stroke:navy;stroke-width:.5;stroke-linejoin:bevel}</style><path d="M51.548 45.031l2.612-5.492-6.627.721zM41.163 50.144l-7.101 1.062 3.748 3.749zM45.151 54.511l-7.341.444 3.632 3.631zM41.163 50.144l-3.353 4.811 7.341-.444zM38.264 33.69l-6.575-.372 3.706 5.171zM32.283 42.514l5.141 2.943-2.029-6.968z"/><path d="M44.484 45.379l7.064-.348-4.015-4.771zM44.484 45.379l-7.06.078 3.739 4.687zM-37.663-20.518l.185-7.396-3.964 3.617zM-14.728-4.463l-3.59-4.927-2.328 5.888zM-18.318-9.39l-6.543 1.673 4.215 4.215zM7.565-40.973l-5.983-.469 3.176 5.852zM1.582-41.442l-2.594 5.731 5.77.121zM-12.85-35.035l2.275-5.466-6.3 1.52zM-10.575-40.501l-2.275 5.466 6.062-.462zM23.15 6.977l3.351 4.96 3.329-5.205z"/><path d="M26.501 11.937l-3.351-4.96-3.347 5.446zM21.797 38.941l2.669-5.777-6.798 1.649zM24.466 33.164l7.223.154-2.172-5.185zM37.424 45.457l-7.114 1.997 3.752 3.752zM37.424 45.457l-3.362 5.749 7.101-1.062z"/><path d="M32.283 42.514l-1.973 4.94 7.114-1.997zM30.31 47.454l1.973-4.94-6.291.622zM45.151 54.511l3.361-4.481-7.349.114zM44.484 45.379l4.028 4.651 3.036-4.999z"/><path d="M48.512 50.03l-4.028-4.651-3.321 4.765zM15.136-32.092l-1.5-7.763-2.899 4.467z"/><path d="M7.565-40.973l3.172 5.585 2.899-4.467z"/><path d="M10.737-35.388l-3.172-5.585-2.807 5.383z"/><path d="M8.444-30.139l2.293-5.249-5.979-.202zM-10.235-30.131l-2.615-4.904-4.464 3.21z"/><path d="M-12.85-35.035l2.615 4.904 3.447-5.366zM-24.861-7.717l.961-5.964-5.514 1.412zM-32.598-23.661l-4.88-4.253-.185 7.396zM-19.586-25.712l2.272-6.113-5.751 1.181zM-15.916-20.422l-3.67-5.29-2.515 5.925zM-22.237-37.081l-5.506 2.6 4.678 3.837z"/><path d="M-17.314-31.825l-4.923-5.256-.828 6.437zM-16.875-38.981l-.439 7.156 4.464-3.21z"/><path d="M-16.875-38.981l-5.362 1.9 4.923 5.256zM-1.012-35.711l-3.448-5.582-2.328 5.796z"/><path d="M-4.46-41.293l3.448 5.582 2.594-5.731zM-4.46-41.293l-6.115.792 3.787 5.004zM39.423 1.586l6.282.159-3.292-5.514z"/><path d="M36.005-3.786l3.418 5.372 2.99-5.355zM.606 17.751L4.5 21.645l2.48-7.034zM4.5 21.645l4.223 4.223 1.736-6.41zM17.668 34.813l1.176-5.754-5.753 1.177zM13.232 13.303l3.496 4.694 3.075-5.574z"/><path d="M16.728 17.997l-3.496-4.694-2.773 6.155zM26.401 1.575L23.15 6.977l6.68-.245zM32.283 42.514l-3.934-4.775-2.357 5.397zM31.689 33.318l-3.34 4.421 7.046.75zM28.349 37.739l-6.552 1.202 4.195 4.195zM28.349 37.739l3.934 4.775 3.112-4.025z"/><path d="M24.466 33.164l3.883 4.575 3.34-4.421z"/><path d="M28.349 37.739l-3.883-4.575-2.669 5.777zM57.742 27.18l-5.23 2.062 3.722 4.413z"/><path d="M52.512 29.242l5.23-2.062-5.928-3.607zM44.059 34.658l-2.496-6.236-3.299 5.268zM37.424 45.457l3.637-5.291-5.666-1.677zM41.061 40.166l3.423 5.213 3.049-5.119z"/><path d="M41.061 40.166l-2.797-6.476-2.869 4.799zM44.484 45.379l-3.423-5.213-3.637 5.291z"/><path d="M41.061 40.166l2.998-5.508-5.795-.968zM44.059 34.658l-2.998 5.508 6.472.094zM7.649-8.529l-6.505.472 3.034 5.041zM1.144-8.057l-2.445-5.273-4.044 5.703z"/><path d="M1.144-8.057l-3.753 5.54 6.787-.499z"/><path d="M-2.609-2.517l3.753-5.54-6.489.43zM-2.609-2.517l-6.817.715 3.486 4.698z"/><path d="M-9.426-1.802l6.817-.715-2.736-5.11z"/><path d="M-11.207-8.538l1.781 6.736 4.081-5.825zM-11.207-8.538l-7.111-.852 3.59 4.927z"/><path d="M-9.426-1.802l-1.781-6.736-3.521 4.075zM1.939 12.164l-5.795 1.125 4.462 4.462z"/><path d="M-16.131 1.013l1.403-5.476-5.918.961zM18.85-38.349l1.895 6.891 3.314-4.839zM41.563 28.422l3.981-5.359-6.261-.347zM46.373 11.902l6.304.292-1.971-5.327z"/><path d="M52.677 12.194L57.98 8.59l-7.274-1.723zM36.106-14.512l3.349-4.643-5.164-2.036zM-33.702-16.557l1.104-7.104-5.065 3.143zM-28.813-28.323l1.07-6.158-5.398 3.288zM-28.813-28.323l5.748-2.321-4.678-3.837zM-33.141-31.193l-4.337 3.279 4.88 4.253z"/><path d="M-33.141-31.193l.543 7.532 3.785-4.662zM-18.318-9.39l-5.582-4.291-.961 5.964z"/><path d="M-18.318-9.39l-.131-5.69-5.451 1.399z"/><path d="M-23.9-13.681l5.451-1.399-3.652-4.707z"/><path d="M-18.449-15.08l2.533-5.342-6.185.635zM33.014 22.585l-6.052-.454 2.555 6.002z"/><path d="M26.962 22.131l6.052.454-3.086-5.645zM33.014 22.585l3.204-5.397-6.29-.248z"/><path d="M36.218 17.188l-3.204 5.397 6.269.131zM43.493 6.848L36.612 6.7l3.169 5.182z"/><path d="M46.373 11.902l-2.88-5.054-3.712 5.034zM43.493 6.848l2.88 5.054 4.333-5.035z"/><path d="M36.612 6.7l6.881.148-4.07-5.262z"/><path d="M43.493 6.848l2.212-5.103-6.282-.159z"/><path d="M45.705 1.745l-2.212 5.103 7.213.019zM45.862-9.158l-6.601.081 3.152 5.308zM39.261-9.077l-3.155-5.435-3.254 5.25zM36.005-3.786l3.256-5.291-6.409-.185z"/><path d="M39.261-9.077l-3.256 5.291 6.408.017zM8.723 25.868l5.905-1.771-4.169-4.639zM14.628 24.097l-5.905 1.771 4.368 4.368zM18.844 29.059l-4.216-4.962-1.537 6.139z"/><path d="M14.628 24.097l4.216 4.962 1.646-6.398zM14.628 24.097l2.1-6.1-6.269 1.461z"/><path d="M16.728 17.997l-2.1 6.1 5.862-1.436zM23.15 6.977l-6.525.496 3.178 4.95z"/><path d="M16.625 7.473l-3.393 5.83 6.571-.88zM6.98 14.611l-2.249-7.03-2.792 4.583zM.606 17.751l6.374-3.14-5.041-2.447zM6.98 14.611L4.5 21.645l5.959-2.187z"/><path d="M13.232 13.303L6.98 14.611l3.479 4.847zM32.918 1.523L36.612 6.7l2.811-5.114z"/><path d="M36.612 6.7l-3.694-5.177-3.088 5.209zM36.005-3.786l-3.087 5.309 6.505.063z"/><path d="M32.918 1.523l-6.517.052 3.429 5.157zM50.041 34.861l-5.982-.203 3.474 5.602z"/><path d="M54.16 39.539l-4.119-4.678-2.508 5.399zM50.041 34.861l4.119 4.678 2.074-5.884z"/><path d="M52.512 29.242l-2.471 5.619 6.193-1.206zM31.689 33.318l3.897-5.207-6.069.022zM35.586 28.111l-3.897 5.207 6.575.372z"/><path d="M35.586 28.111l-2.572-5.526-3.497 5.548zM33.014 22.585l2.572 5.526 3.697-5.395z"/><path d="M35.586 28.111l5.977.311-2.28-5.706zM41.563 28.422l-5.977-.311 2.678 5.579zM11.208-14.225L7.649-8.529l6.395-.32zM16.978-3.478l-6.294.206 2.942 5.554z"/><path d="M10.684-3.272l6.294-.206-2.934-5.371zM7.535 2.227l3.149-5.499-6.506.256z"/><path d="M10.684-3.272L7.535 2.227l6.091.055zM7.649-8.529l3.035 5.257 3.36-5.577zM10.684-3.272L7.649-8.529 4.178-3.016zM7.535 2.227l-6.523.066 3.719 5.288z"/><path d="M1.012 2.293l6.523-.066-3.357-5.243zM1.012 2.293l-3.621-4.81-3.331 5.413zM-2.609-2.517l3.621 4.81 3.166-5.309zM-1.301-13.33l-5.903-.389 1.859 6.092zM-7.204-13.719l-4.003 5.181 5.862.911zM-16.131 1.013l6.705-2.815-5.302-2.661z"/><path d="M-9.426-1.802l-2.799 6.721 6.285-2.023z"/><path d="M-12.225 4.919l4.139 4.139 2.146-6.162z"/><path d="M-16.131 1.013l3.906 3.906 2.799-6.721zM8.444-30.139l6.692-1.953-4.399-3.296z"/><path d="M15.136-32.092l3.714-6.257-5.214-1.506zM15.136-32.092l5.609.634-1.895-6.891zM26.425-29.486l7.201-1.371-4.633-2.932z"/><path d="M26.425-29.486l2.568-4.303-4.934-2.508zM20.745-31.458l5.68 1.972-2.366-6.811z"/><path d="M26.425-29.486l-5.68-1.972 3.004 6.447zM30.966-25.679l-4.541-3.807-2.676 4.475zM26.425-29.486l4.541 3.807 2.66-5.178zM-1.012-35.711l3.189 5.697 2.581-5.576zM2.177-30.014l6.267-.125-3.686-5.451zM2.177-30.014l3.236 5.37 3.031-5.495z"/><path d="M5.413-24.644l-3.236-5.37-3.048 5.521z"/><path d="M2.165-19.024l3.248-5.62-6.284.151zM5.413-24.644l-3.248 5.62 6.339-.613zM-13.624-25.876l3.389-4.255-7.079-1.694zM-13.624-25.876l-2.292 5.454 5.69.799z"/><path d="M-19.586-25.712l5.962-.164-3.69-5.949z"/><path d="M-15.916-20.422l2.292-5.454-5.962.164zM-7.19-24.664l-6.434-1.212 3.398 6.253z"/><path d="M-13.624-25.876l6.434 1.212-3.045-5.467zM52.677 12.194l5.881 2.544-.578-6.148zM48.35 17.602l-2.806 5.461 6.27.51zM48.35 17.602l4.327-5.408-6.304-.292zM51.386 1.412l-5.681.333 5.001 5.122z"/><path d="M56.873 2.991l-6.167 3.876L57.98 8.59z"/><path d="M56.873 2.991l-5.487-1.579-.68 5.455zM30.966-25.679l7.06-1.773-4.4-3.405z"/><path d="M38.026-27.452l-7.06 1.773 3.325 4.488z"/><path d="M34.291-21.191l7.713-2.537-3.978-3.724zM34.291-21.191l5.164 2.036 2.549-4.573zM-28.297-18.729l4.397 5.048 1.799-6.106z"/><path d="M-23.9-13.681l-4.397-5.048-1.117 6.46zM-33.702-16.557l5.405-2.172-4.301-4.932z"/><path d="M-28.297-18.729l-5.405 2.172 4.288 4.288zM26.501 11.937l-3.18 5.282 6.607-.279z"/><path d="M23.321 17.219l3.18-5.282-6.698.486z"/><path d="M16.728 17.997l6.593-.778-3.518-4.796zM23.321 17.219l-6.593.778 3.762 4.664z"/><path d="M26.962 22.131l-3.641-4.912-2.831 5.442zM23.321 17.219l3.641 4.912 2.966-5.191zM24.094 27.381l.372 5.783 5.051-5.031zM18.844 29.059l5.25-1.678-3.604-4.72z"/><path d="M24.466 33.164l-.372-5.783-5.25 1.678z"/><path d="M24.466 33.164l-5.622-4.105-1.176 5.754zM26.962 22.131l-2.868 5.25 5.423.752z"/><path d="M24.094 27.381l2.868-5.25-6.472.53zM33.206 11.773l-6.705.164 3.427 5.003zM36.612 6.7l-3.406 5.073 6.575.109zM26.501 11.937l6.705-.164-3.376-5.041z"/><path d="M33.206 11.773L36.612 6.7l-6.782.032zM36.218 17.188l-3.012-5.415-3.278 5.167z"/><path d="M33.206 11.773l3.012 5.415 3.563-5.306zM42.743-14.096l-3.288-5.059-3.349 4.643zM39.261-9.077l3.482-5.019-6.637-.416zM42.743-14.096l-3.482 5.019 6.601-.081zM19.975 1.802l6.426-.227-3.07-5.408z"/><path d="M16.978-3.478l2.997 5.28 3.356-5.635z"/><path d="M19.975 1.802l-2.997-5.28-3.352 5.76zM26.401 1.575l-6.426.227 3.175 5.175zM19.975 1.802l-3.35 5.671 6.525-.496z"/><path d="M16.625 7.473l3.35-5.671-6.349.48zM10.345 8.26l-2.81-6.033-2.804 5.354z"/><path d="M7.535 2.227l2.81 6.033 3.281-5.978z"/><path d="M10.345 8.26l6.28-.787-2.999-5.191z"/><path d="M16.625 7.473l-6.28.787 2.887 5.043z"/><path d="M10.345 8.26L6.98 14.611l6.252-1.308z"/><path d="M6.98 14.611l3.365-6.351-5.614-.679zM29.612-3.852l6.393.066-3.153-5.476zM26.401 1.575l3.211-5.427-6.281.019z"/><path d="M32.918 1.523l-3.306-5.375-3.211 5.427z"/><path d="M29.612-3.852l3.306 5.375 3.087-5.309zM45.544 23.063l1.576 5.88 4.694-5.37zM47.12 28.943l5.392.299-.698-5.669zM47.12 28.943l-5.557-.521 2.496 6.236z"/><path d="M47.12 28.943l-1.576-5.88-3.981 5.359zM47.12 28.943l2.921 5.918 2.471-5.619z"/><path d="M50.041 34.861l-2.921-5.918-3.061 5.715zM11.208-14.225l3.394-5.808-6.098.396zM-1.945 7.337l-1.911 5.952 5.795-1.125z"/><path d="M4.731 7.581l-6.676-.244 3.884 4.827zM-8.086 9.058l6.141-1.721-3.995-4.441z"/><path d="M-3.856 13.289l1.911-5.952-6.141 1.721zM1.012 2.293l-2.957 5.044 6.676.244z"/><path d="M-1.945 7.337l2.957-5.044-6.952.603zM-11.207-8.538l-1.923-5.52-5.188 4.668zM-15.916-20.422l2.786 6.364 2.904-5.565z"/><path d="M-13.13-14.058l-5.319-1.022.131 5.69z"/><path d="M-18.449-15.08l5.319 1.022-2.786-6.364zM-7.204-13.719l-5.926-.339 1.923 5.52z"/><path d="M-13.13-14.058l5.926.339-3.022-5.904zM20.413-9.169l-3.435 5.691 6.353-.355z"/><path d="M16.978-3.478l3.435-5.691-6.369.32zM30.966-25.679l-3.435 5.292 6.76-.804zM27.531-20.387l3.435-5.292-7.217.668zM20.739-19.95l6.792-.437-3.782-4.624z"/><path d="M23.925-14.839l3.606-5.548-6.792.437zM-3.94-29.982l-3.25 5.318 6.319.171zM-3.94-29.982l2.928-5.729-5.776.214z"/><path d="M-10.235-30.131l6.295.149-2.848-5.515zM-7.19-24.664l3.25-5.318-6.295-.149z"/><path d="M-3.94-29.982l6.117-.032-3.189-5.697zM2.177-30.014l-6.117.032 3.069 5.489zM7.649-8.529l-2.69-5.254-3.815 5.726zM4.959-13.783l6.249-.442-2.704-5.412zM4.959-13.783l-6.26.453 2.445 5.273zM11.208-14.225l-6.249.442 2.69 5.254zM4.959-13.783l-2.794-5.241-3.466 5.694z"/><path d="M2.165-19.024l2.794 5.241 3.545-5.854zM-7.19-24.664l3.18 5.581 3.139-5.41zM-7.204-13.719l3.194-5.364-6.216-.54z"/><path d="M-4.01-19.083l-3.18-5.581-3.036 5.041zM-4.01-19.083l-3.194 5.364 5.903.389zM-4.01-19.083l6.175.059-3.036-5.469z"/><path d="M2.165-19.024l-6.175-.059 2.709 5.753zM42.448 17.306l3.925-5.404-6.592-.02zM45.544 23.063l-3.096-5.757-3.165 5.41z"/><path d="M36.218 17.188l6.23.118-2.667-5.424zM42.448 17.306l-6.23-.118 3.065 5.528zM48.35 17.602l-5.902-.296 3.096 5.757z"/><path d="M42.448 17.306l5.902.296-1.977-5.7zM58.456 21.356l-6.642 2.217 5.928 3.607z"/><path d="M58.456 21.356L53.803 18.1l-1.989 5.473z"/><path d="M58.558 14.738L53.803 18.1l4.653 3.256z"/><path d="M53.803 18.1l4.755-3.362-5.881-2.544z"/><path d="M48.35 17.602l5.453.498-1.126-5.906zM53.803 18.1l-5.453-.498 3.464 5.971zM54.94-3.264l-3.554 4.676 5.487 1.579zM-28.813-28.323l3.158 4.083 2.59-6.404z"/><path d="M-25.655-24.24l6.069-1.472-3.479-4.932zM-19.586-25.712l-6.069 1.472 3.554 4.453zM-25.655-24.24l-3.158-4.083-3.785 4.662zM-28.297-18.729l2.642-5.511-6.943.579zM-25.655-24.24l-2.642 5.511 6.196-1.058zM39.455-19.155l6.578.025-4.029-4.598zM42.743-14.096l3.29-5.034-6.578-.025zM11.908-25.661l-6.495 1.017 3.091 5.007z"/><path d="M5.413-24.644l6.495-1.017-3.464-4.478zM11.908-25.661l3.228-6.431-6.692 1.953z"/><path d="M14.602-20.033l-2.694-5.628-3.404 6.024zM14.602-20.033l2.858 5.578 3.279-5.495zM17.46-14.455l-6.252.23 2.836 5.376zM17.46-14.455l6.465-.384-3.186-5.111zM17.46-14.455l-2.858-5.578-3.394 5.808zM17.46-14.455l2.953 5.286 3.512-5.67z"/><path d="M20.413-9.169l-2.953-5.286-3.416 5.606zM29.612-3.852l-2.859-5.665-3.422 5.684zM26.753-9.517l2.859 5.665 3.24-5.41z"/><path d="M26.753-9.517l-6.34.348 2.918 5.336zM20.413-9.169l6.34-.348-2.828-5.322zM48.621-3.991l3.861-4.951-6.62-.216z"/><path d="M48.621-3.991l-2.759-5.167-3.449 5.389z"/><path d="M45.705 1.745l2.916-5.736-6.208.222zM51.386 1.412l-2.765-5.403-2.916 5.736z"/><path d="M54.94-3.264l-6.319-.727 2.765 5.403zM48.621-3.991l6.319.727-2.458-5.678zM52.482-8.942l-2.983-5.293-3.637 5.077zM49.499-14.235l-6.756.139 3.119 4.938z"/><path d="M49.499-14.235l-3.466-4.895-3.29 5.034zM20.745-31.458l-2.999 5.551 6.003.896z"/><path d="M17.746-25.907l2.993 5.957 3.01-5.061zM15.136-32.092l2.61 6.185 2.999-5.551z"/><path d="M17.746-25.907l-3.144 5.874 6.137.083zM17.746-25.907l-5.838.246 2.694 5.628z"/><path d="M11.908-25.661l5.838-.246-2.61-6.185zM27.531-20.387l2.805 5.096 3.955-5.9zM30.336-15.291l5.77.779-1.815-6.679z"/><path d="M36.106-14.512l-5.77-.779 2.516 6.029zM30.336-15.291l-2.805-5.096-3.606 5.548zM26.753-9.517l3.583-5.774-6.411.452zM30.336-15.291l-3.583 5.774 6.099.255z"/></svg>