<svg xmlns="http://www.w3.org/2000/svg" viewBox="-50 -28.79 100 57.579"><style>path{fill:#c8c5bd;stroke:navy;stroke-width:.5;stroke-linejoin:bevel}</style><path d="M-46.864 4.853l3.641-5.021L-50-.001zM-30.788 19.973l5.111 2.87-.506-6.395zM16.911-21.285l4.028-3.652-6.051-1.979zM-31.341-19.621l-4.381 3.131 5.15 4.183zM-16.911-21.285l2.023-5.631-6.051 1.979zM-26.009-22.678l-5.332 3.057 4.601 2.986zM-21.193-17.704l.254-7.233-5.07 2.259zM20.939-24.937l-4.028 3.652 4.282 3.581zM-8.98 5.458L-5.966.006-12.1-.035zM-20.994 5.375l-3.192 5.568 5.812.373zM-8.692 16.617l5.794.473-3.018-5.913zM-21.085 17.422l-3.101-6.479-1.997 5.505z"/><path d="M-25.677 22.843l4.592-5.421-5.098-.974zM-24.186 10.943l3.101 6.479 2.711-6.106zM-35.74-9.982l.018-6.508-4.358 3.801zM-29.932-.736l2.702-5.887-5.746 1.031zM-36.646-.604l6.714-.132-3.044-4.856z"/><path d="M-27.23-6.623l-2.702 5.887 6.057-.223zM-11.157-22.046l-3.731-4.87-2.023 5.631zM20.939-24.937l.254 7.233 4.816-4.974zM39.871 4.716l3.352-4.884-6.577-.436zM43.223-.168l3.641 5.021L50-.001zM-2.898 17.09L0 11.388l-5.916-.211zM15.11-5.758l5.862-.333-2.808-5.579zM43.35 9.264l-7.386.179 3.68 3.661z"/><path d="M35.964 9.443l-.42 7.186 4.1-3.525zM26.183 16.448l-.506 6.395 5.111-2.87zM30.788 19.973l4.756-3.344-4.568-3.153zM-15.135 5.605l6.155-.147-3.12-5.493zM-15.135 5.605l-5.859-.23 2.62 5.941zM-14.779 26.943l5.837 1.227-2.303-6.197zM-14.779 26.943l-2.207-5.749-3.731 3.828z"/><path d="M-20.717 25.022l3.731-3.828-4.099-3.772z"/><path d="M-16.986 21.194l2.207 5.749 3.534-4.97zM-20.717 25.022l-.368-7.6-4.592 5.421zM-20.972-6.091L-24-11.605l-3.23 4.982zM-20.972-6.091l-6.258-.532 3.355 5.664zM-43.223-.168l-3.756-4.525L-50-.001zM-27.23-6.623l-3.342-5.684-2.404 6.715zM-31.341-19.621l.769 7.314 3.832-4.328z"/><path d="M-30.572-12.307l6.572.702-2.74-5.03zM-24-11.605l-6.572-.702 3.342 5.684zM-35.74-9.982l5.168-2.325-5.15-4.183zM-30.572-12.307l-5.168 2.325 2.764 4.39zM-35.964 9.443l-7.386-.179 3.706 3.84zM-11.157-22.046l2.176-6.119-5.907 1.249zM11.864-10.938l3.246 5.18 3.054-5.912zM11.157-22.046l5.754.761-2.023-5.631zM-2.957-5.623L-5.966.006 0 .022z"/><path d="M2.957-5.623h-5.914L0 .022zM2.964 5.656L5.966.006 0 .022z"/><path d="M5.966.006L2.957-5.623 0 .022zM-2.964 5.656h5.928L0 .022zM-2.964 5.656l-6.016-.198 3.064 5.719z"/><path d="M-5.966.006l3.002 5.65L0 .022z"/><path d="M-8.98 5.458l6.016.198-3.002-5.65zM-2.964 5.656L0 11.388l2.964-5.732z"/><path d="M0 11.388l-2.964-5.732-2.952 5.521zM2.995 28.789l5.947-.619-3.286-5.414zM2.995 28.789L0 23.022l-2.995 5.767zM0 23.022l2.995 5.767 2.661-6.033zM0 11.388l5.916-.211-2.952-5.521zM20.994 5.375l5.507-1.053-2.626-5.281zM26.501 4.322l-5.507 1.053 3.192 5.568zM33.347 4.07L29.932-.736l-3.431 5.058z"/><path d="M29.932-.736l3.415 4.806 3.299-4.674z"/><path d="M26.501 4.322l3.431-5.058-6.057-.223zM33.347 4.07l-6.846.252 3.12 4.228zM39.871 4.716l3.479 4.548 3.514-4.411zM33.347 4.07l-3.726 4.48 6.343.893z"/><path d="M39.871 4.716l6.993.137-3.641-5.021zM33.347 4.07l6.524.646-3.225-5.32zM39.871 4.716l-3.907 4.727 7.386-.179zM33.347 4.07l2.617 5.373 3.907-4.727zM29.621 8.55l-5.435 2.393 6.79 2.533z"/><path d="M30.976 13.476l4.988-4.033-6.343-.893zM29.621 8.55l-3.12-4.228-2.315 6.621z"/><path d="M35.964 9.443l-4.988 4.033 4.568 3.153zM30.788 19.973l.188-6.497-4.793 2.972z"/><path d="M26.183 16.448l4.793-2.972-6.79-2.533zM-8.98 5.458l-2.981 5.391 6.045.328zM-11.961 10.849l3.269 5.768 2.776-5.44z"/><path d="M-15.135 5.605l3.174 5.244 2.981-5.391z"/><path d="M-11.961 10.849l-3.174-5.244-3.239 5.711zM-5.656 22.756l-3.036-6.139-2.553 5.356zM0 23.022l-5.656-.266 2.661 6.033z"/><path d="M-8.692 16.617l3.036 6.139 2.758-5.666z"/><path d="M-5.656 22.756L0 23.022l-2.898-5.932zM-8.942 28.17l3.286-5.414-5.589-.783zM-5.656 22.756l-3.286 5.414 5.947.619zM-5.966.006l-3-5.485L-12.1-.035z"/><path d="M-2.957-5.623l-6.009.144 3 5.485z"/><path d="M-8.966-5.479l6.009-.144-2.91-5.55zM-20.994 5.375l2.949-5.534-5.83-.8zM-18.045-.159l2.91 5.764 3.035-5.64z"/><path d="M-15.135 5.605l-2.91-5.764-2.949 5.534zM-18.045-.159l-2.927-5.932-2.903 5.132zM-40.08-12.689l-3.62 3.825 3.94 3.529zM-39.871 4.716l-3.352-4.884-3.641 5.021z"/><path d="M-43.223-.168l6.577-.436-3.114-4.731zM-26.501 4.322l-6.846-.252 3.726 4.48zM-30.788 19.973l4.605-3.525-4.793-2.972zM-35.544 16.629l-.42-7.186-3.68 3.661zM0-23.03l-2.877 5.944h5.754zM5.867-11.173l2.772-5.479-5.762-.434zM5.867-11.173l5.997.235-3.225-5.714zM14.609-16.259l-2.745 5.321 6.3-.732zM21.193-17.704l-6.584 1.445 3.555 4.589zM14.609-16.259l6.584-1.445-4.282-3.581z"/><path d="M11.864-10.938l2.745-5.321-5.97-.393z"/><path d="M14.609-16.259l-3.452-5.787-2.518 5.394z"/><path d="M11.157-22.046l3.452 5.787 2.302-5.026zM24-11.605l-2.807-6.099-3.029 6.034zM20.972-6.091L24-11.605l-5.836-.065zM46.979-4.693L43.223-.168 50-.001zM43.223-.168l3.756-4.525-7.219-.642zM35.74-9.982l-5.168-2.325 2.404 6.715z"/><path d="M40.08-12.689l-4.34 2.707 4.02 4.647zM5.966.006L8.98 5.458 12.1-.035z"/><path d="M8.98 5.458L5.966.006l-3.002 5.65zM8.98 5.458l-3.064 5.719 6.045-.328z"/><path d="M5.916 11.177L8.98 5.458l-6.016.198zM2.898 17.09L0 23.022l5.656-.266zM2.898 17.09L0 11.388l-2.898 5.702z"/><path d="M0 23.022l2.898-5.932h-5.796z"/><path d="M2.898 17.09l3.018-5.913L0 11.388zM18.045-.159l2.927-5.932-5.862.333zM18.045-.159L15.11-5.758 12.1-.035zM20.972-6.091L18.045-.159l5.83-.8zM18.045-.159l2.949 5.534 2.881-6.334zM21.085 17.422l5.098-.974-1.997-5.505zM26.183 16.448l-5.098.974 4.592 5.421zM-14.66 16.07l-2.326 5.124 5.741.779z"/><path d="M-8.692 16.617l-5.968-.547 3.415 5.903zM-21.085 17.422l6.425-1.352-3.714-4.754zM-16.986 21.194l2.326-5.124-6.425 1.352z"/><path d="M-11.961 10.849l-2.699 5.221 5.968.547z"/><path d="M-14.66 16.07l2.699-5.221-6.413.467zM-11.864-10.938l2.898 5.459 3.099-5.694zM-35.74-9.982l-4.02 4.647 6.784-.257z"/><path d="M-40.08-12.689l.32 7.354 4.02-4.647z"/><path d="M-36.646-.604l3.67-4.988-6.784.257zM-39.76-5.335l-3.94-3.529-3.279 4.171zM-43.223-.168l3.463-5.167-7.219.642zM-36.646-.604l3.299 4.674 3.415-4.806zM-29.932-.736l3.431 5.058 2.626-5.281z"/><path d="M-26.501 4.322l5.507 1.053-2.881-6.334z"/><path d="M-20.994 5.375l-5.507-1.053 2.315 6.621zM-26.501 4.322l-3.431-5.058-3.415 4.806zM-35.964 9.443l-3.907-4.727-3.479 4.548zM-43.35 9.264l3.479-4.548-6.993.137z"/><path d="M-39.871 4.716l3.225-5.32-6.577.436zM-36.646-.604l-3.225 5.32 6.524-.646zM-33.347 4.07l-6.524.646 3.907 4.727zM-33.347 4.07l-2.617 5.373 6.343-.893zM-8.981-28.165l3.375 5.394 2.601-6.019z"/><path d="M-5.606-22.771l-3.375-5.394-2.176 6.119zM0-23.03l-5.606.259 2.729 5.685z"/><path d="M-5.606-22.771L0-23.03l-3.005-5.76zM8.981-28.165l2.176 6.119 3.731-4.87zM0-11.363l-2.877-5.723-2.99 5.913z"/><path d="M-2.957-5.623L0-11.363l-5.867.19zM-2.877-17.086L0-11.363l2.877-5.723zM0-11.363l-2.957 5.74h5.914z"/><path d="M5.867-11.173L0-11.363l2.957 5.74z"/><path d="M0-11.363l5.867.19-2.99-5.913zM11.864-10.938L8.966-5.479l6.144-.279zM15.11-5.758l-6.144.279L12.1-.035z"/><path d="M8.966-5.479l-3 5.485L12.1-.035z"/><path d="M5.966.006l3-5.485-6.009-.144zM5.867-11.173l3.099 5.694 2.898-5.459z"/><path d="M8.966-5.479l-3.099-5.694-2.91 5.55zM30.572-12.307L27.23-6.623l5.746 1.031zM27.23-6.623l-6.258.532 2.903 5.132zM27.23-6.623l2.702 5.887 3.044-4.856zM29.932-.736L27.23-6.623 23.875-.959z"/><path d="M24-11.605l3.23 4.982 3.342-5.684z"/><path d="M27.23-6.623L24-11.605l-3.028 5.514zM26.74-16.635l4.601-2.986-5.332-3.057z"/><path d="M21.193-17.704l5.547 1.069-.731-6.043zM24-11.605l2.74-5.03-5.547-1.069z"/><path d="M26.74-16.635L24-11.605l6.572-.702zM32.976-5.592l3.67 4.988 3.114-4.731z"/><path d="M29.932-.736l6.714.132-3.67-4.988zM43.223-.168L39.76-5.335 36.646-.604zM39.76-5.335l7.219.642L43.7-8.864zM40.08-12.689l-.32 7.354 3.94-3.529z"/><path d="M39.76-5.335l-4.02-4.647-2.764 4.39zM5.916 11.177l2.776 5.44 3.269-5.768zM8.692 16.617l5.968-.547-2.699-5.221z"/><path d="M2.898 17.09l5.794-.473-2.776-5.44zM8.692 16.617l-5.794.473 2.758 5.666zM8.98 5.458l6.155.147L12.1-.035zM15.135 5.605L8.98 5.458l2.981 5.391zM18.045-.159l-2.91 5.764 5.859-.23z"/><path d="M15.135 5.605l2.91-5.764-5.945.124zM16.986 21.194l-2.207 5.749 5.938-1.921zM20.717 25.022l4.96-2.179-4.592-5.421zM16.986 21.194l4.099-3.772-6.425-1.352z"/><path d="M20.717 25.022l.368-7.6-4.099 3.772zM-20.972-6.091l2.808-5.579-5.836.065zM-30.976 13.476l1.355-4.926-6.343.893z"/><path d="M-30.788 19.973l-.188-6.497-4.568 3.153zM-24.186 10.943l-6.79 2.533 4.793 2.972z"/><path d="M-35.544 16.629l4.568-3.153-4.988-4.033zM-24.186 10.943l-5.435-2.393-1.355 4.926zM-24.186 10.943l-2.315-6.621-3.12 4.228zM-8.639-16.652l-3.225 5.714 5.997-.235z"/><path d="M-2.877-17.086l-5.762.434 2.772 5.479zM-5.606-22.771l-3.033 6.119 5.762-.434z"/><path d="M-8.639-16.652l3.033-6.119-5.551.725zM0-23.03l3.005-5.76h-6.01zM35.722-16.49l.018 6.508 4.34-2.707z"/><path d="M35.74-9.982l-.018-6.508-5.15 4.183zM31.341-19.621l-4.601 2.986 3.832 4.328z"/><path d="M31.341-19.621l-.769 7.314 5.15-4.183zM14.66 16.07l3.714-4.754-6.413-.467zM20.994 5.375l-2.62 5.941 5.812-.373zM21.085 17.422l-2.711-6.106-3.714 4.754z"/><path d="M18.374 11.316l2.711 6.106 3.101-6.479zM15.135 5.605l3.239 5.711 2.62-5.941zM18.374 11.316l-3.239-5.711-3.174 5.244zM14.779 26.943l-3.534-4.97-2.303 6.197zM11.245 21.973l-2.553-5.356-3.036 6.139z"/><path d="M8.942 28.17l2.303-6.197-5.589.783zM8.692 16.617l2.553 5.356 3.415-5.903zM16.986 21.194l-5.741.779 3.534 4.97z"/><path d="M11.245 21.973l5.741-.779-2.326-5.124zM-24-11.605l2.807-6.099-5.547 1.069z"/><path d="M-21.193-17.704l-4.816-4.974-.731 6.043zM-21.193-17.704l4.282-3.581-4.028-3.652zM-18.164-11.67l-3.029-6.034L-24-11.605zM-15.11-5.758l-2.935 5.599 5.945.124z"/><path d="M-8.966-5.479l-6.144-.279 3.01 5.723zM-18.045-.159l2.935-5.599-5.862-.333zM-11.864-10.938l-3.246 5.18 6.144.279z"/><path d="M-15.11-5.758l-3.054-5.912-2.808 5.579z"/><path d="M-18.164-11.67l3.054 5.912 3.246-5.18zM8.639-16.652l-3.033-6.119-2.729 5.685z"/><path d="M11.157-22.046l-5.551-.725 3.033 6.119zM5.606-22.771L0-23.03l2.877 5.944z"/><path d="M8.981-28.165l-3.375 5.394 5.551.725zM5.606-22.771L3.005-28.79 0-23.03z"/><path d="M3.005-28.79l2.601 6.019 3.375-5.394zM-14.609-16.259l-3.555 4.589 6.3.732zM-14.609-16.259l5.97-.393-2.518-5.394z"/><path d="M-14.609-16.259l3.452-5.787-5.754.761zM-8.639-16.652l-5.97.393 2.745 5.321zM-14.609-16.259l-6.584-1.445 3.029 6.034z"/><path d="M-21.193-17.704l6.584 1.445-2.302-5.026z"/></svg>