<svg xmlns="http://www.w3.org/2000/svg" viewBox="-41.442 0 100 100.028"><style>path{fill:none;stroke:#969696;stroke-width:.5;stroke-linejoin:bevel}</style><path d="M51.548 86.473l2.612-5.492-6.627.721zM41.163 91.586l-7.101 1.062 3.748 3.748zM45.151 95.953l-7.341.443 3.632 3.632zM41.163 91.586l-3.353 4.81 7.341-.443zM38.264 75.132l-6.575-.372 3.706 5.171z"/><path d="M32.283 83.956l5.141 2.943-2.029-6.968zM44.484 86.82l7.064-.347-4.015-4.771zM44.484 86.82l-7.06.079 3.739 4.687zM-37.663 20.924l.185-7.396-3.964 3.616zM-14.728 36.979l-3.59-4.927-2.328 5.888zM-18.318 32.052l-6.543 1.673 4.215 4.215zM7.565.469L1.582 0l3.176 5.852z"/><path d="M1.582 0l-2.594 5.731 5.77.121zM-12.85 6.407l2.275-5.466-6.3 1.52zM-10.575.941l-2.275 5.466 6.062-.463zM23.15 48.419l3.351 4.96 3.329-5.205z"/><path d="M26.501 53.379l-3.351-4.96-3.347 5.446zM21.797 80.383l2.669-5.777-6.798 1.649zM24.466 74.606l7.223.154-2.172-5.185zM37.424 86.899l-7.114 1.997 3.752 3.752zM37.424 86.899l-3.362 5.749 7.101-1.062z"/><path d="M32.283 83.956l-1.973 4.94 7.114-1.997zM30.31 88.896l1.973-4.94-6.291.622zM45.151 95.953l3.361-4.482-7.349.115zM44.484 86.82l4.028 4.651 3.036-4.998z"/><path d="M48.512 91.471l-4.028-4.651-3.321 4.766zM15.136 9.35l-1.5-7.763-2.899 4.467z"/><path d="M7.565.469l3.172 5.585 2.899-4.467z"/><path d="M10.737 6.054L7.565.469 4.758 5.852zM8.444 11.303l2.293-5.249-5.979-.202zM-10.235 11.31l-2.615-4.903-4.464 3.21zM-12.85 6.407l2.615 4.903 3.447-5.366zM-24.861 33.725l.961-5.965-5.514 1.413zM-32.598 17.781l-4.88-4.253-.185 7.396zM-19.586 15.73l2.272-6.113-5.751 1.181zM-15.916 21.02l-3.67-5.29-2.515 5.925zM-22.237 4.361l-5.506 2.6 4.678 3.837z"/><path d="M-17.314 9.617l-4.923-5.256-.828 6.437zM-16.875 2.461l-.439 7.156 4.464-3.21z"/><path d="M-16.875 2.461l-5.362 1.9 4.923 5.256zM-1.012 5.731L-4.46.149l-2.328 5.795z"/><path d="M-4.46.149l3.448 5.582L1.582 0zM-4.46.149l-6.115.792 3.787 5.003zM39.423 43.028l6.282.159-3.292-5.514z"/><path d="M36.005 37.655l3.418 5.373 2.99-5.355zM.606 59.193L4.5 63.086l2.48-7.033zM4.5 63.086l4.223 4.224 1.736-6.411zM17.668 76.255l1.176-5.754-5.753 1.176zM13.232 54.744l3.496 4.695 3.075-5.574z"/><path d="M16.728 59.439l-3.496-4.695-2.773 6.155zM26.401 43.017l-3.251 5.402 6.68-.245zM32.283 83.956l-3.934-4.775-2.357 5.397z"/><path d="M31.689 74.76l-3.34 4.421 7.046.75zM28.349 79.181l-6.552 1.202 4.195 4.195z"/><path d="M28.349 79.181l3.934 4.775 3.112-4.025zM24.466 74.606l3.883 4.575 3.34-4.421z"/><path d="M28.349 79.181l-3.883-4.575-2.669 5.777zM57.742 68.621l-5.23 2.063 3.722 4.413z"/><path d="M52.512 70.684l5.23-2.063-5.928-3.606zM44.059 76.1l-2.496-6.236-3.299 5.268zM37.424 86.899l3.637-5.291-5.666-1.677zM41.061 81.608l3.423 5.212 3.049-5.118z"/><path d="M41.061 81.608l-2.797-6.476-2.869 4.799z"/><path d="M44.484 86.82l-3.423-5.212-3.637 5.291z"/><path d="M41.061 81.608l2.998-5.508-5.795-.968z"/><path d="M44.059 76.1l-2.998 5.508 6.472.094zM7.649 32.912l-6.505.473 3.034 5.04zM1.144 33.385l-2.445-5.273-4.044 5.702z"/><path d="M1.144 33.385l-3.753 5.54 6.787-.5z"/><path d="M-2.609 38.925l3.753-5.54-6.489.429zM-2.609 38.925l-6.817.715 3.486 4.698z"/><path d="M-9.426 39.64l6.817-.715-2.736-5.111z"/><path d="M-11.207 32.904l1.781 6.736 4.081-5.826zM-11.207 32.904l-7.111-.852 3.59 4.927z"/><path d="M-9.426 39.64l-1.781-6.736-3.521 4.075zM1.939 53.605l-5.795 1.126 4.462 4.462zM-16.131 42.455l1.403-5.476-5.918.961zM18.85 3.093l1.895 6.891 3.314-4.84zM41.563 69.864l3.981-5.359-6.261-.347zM46.373 53.344l6.304.292-1.971-5.327z"/><path d="M52.677 53.636l5.303-3.604-7.274-1.723zM36.106 26.93l3.349-4.644-5.164-2.035zM-33.702 24.884l1.104-7.103-5.065 3.143zM-28.813 13.119l1.07-6.158-5.398 3.288zM-28.813 13.119l5.748-2.321-4.678-3.837zM-33.141 10.249l-4.337 3.279 4.88 4.253z"/><path d="M-33.141 10.249l.543 7.532 3.785-4.662zM-18.318 32.052L-23.9 27.76l-.961 5.965zM-18.318 32.052l-.131-5.69-5.451 1.398z"/><path d="M-23.9 27.76l5.451-1.398-3.652-4.707z"/><path d="M-18.449 26.362l2.533-5.342-6.185.635zM33.014 64.027l-6.052-.454 2.555 6.002z"/><path d="M26.962 63.573l6.052.454-3.086-5.645zM33.014 64.027l3.204-5.397-6.29-.248zM36.218 58.63l-3.204 5.397 6.269.131zM43.493 48.29l-6.881-.149 3.169 5.183z"/><path d="M46.373 53.344l-2.88-5.054-3.712 5.034zM43.493 48.29l2.88 5.054 4.333-5.035zM36.612 48.141l6.881.149-4.07-5.262z"/><path d="M43.493 48.29l2.212-5.103-6.282-.159z"/><path d="M45.705 43.187l-2.212 5.103 7.213.019zM45.862 32.284l-6.601.081 3.152 5.308zM39.261 32.365l-3.155-5.435-3.254 5.25z"/><path d="M36.005 37.655l3.256-5.29-6.409-.185zM39.261 32.365l-3.256 5.29 6.408.018zM8.723 67.31l5.905-1.771-4.169-4.64zM14.628 65.539L8.723 67.31l4.368 4.367zM18.844 70.501l-4.216-4.962-1.537 6.138z"/><path d="M14.628 65.539l4.216 4.962 1.646-6.399zM14.628 65.539l2.1-6.1-6.269 1.46z"/><path d="M16.728 59.439l-2.1 6.1 5.862-1.437zM23.15 48.419l-6.525.496 3.178 4.95zM16.625 48.915l-3.393 5.829 6.571-.879zM6.98 56.053l-2.249-7.03-2.792 4.582zM.606 59.193l6.374-3.14-5.041-2.448zM6.98 56.053L4.5 63.086l5.959-2.187z"/><path d="M13.232 54.744L6.98 56.053l3.479 4.846zM32.918 42.965l3.694 5.176 2.811-5.113z"/><path d="M36.612 48.141l-3.694-5.176-3.088 5.209z"/><path d="M36.005 37.655l-3.087 5.31 6.505.063zM32.918 42.965l-6.517.052 3.429 5.157zM50.041 76.302l-5.982-.202 3.474 5.602z"/><path d="M54.16 80.981l-4.119-4.679-2.508 5.4z"/><path d="M50.041 76.302l4.119 4.679 2.074-5.884zM52.512 70.684l-2.471 5.618 6.193-1.205zM31.689 74.76l3.897-5.207-6.069.022z"/><path d="M35.586 69.553l-3.897 5.207 6.575.372zM35.586 69.553l-2.572-5.526-3.497 5.548zM33.014 64.027l2.572 5.526 3.697-5.395z"/><path d="M35.586 69.553l5.977.311-2.28-5.706zM41.563 69.864l-5.977-.311 2.678 5.579zM11.208 27.217l-3.559 5.695 6.395-.319zM16.978 37.964l-6.294.206 2.942 5.554z"/><path d="M10.684 38.17l6.294-.206-2.934-5.371zM7.535 43.669l3.149-5.499-6.506.255zM10.684 38.17l-3.149 5.499 6.091.055z"/><path d="M7.649 32.912l3.035 5.258 3.36-5.577zM10.684 38.17l-3.035-5.258-3.471 5.513zM7.535 43.669l-6.523.066 3.719 5.288z"/><path d="M1.012 43.735l6.523-.066-3.357-5.244zM1.012 43.735l-3.621-4.81-3.331 5.413z"/><path d="M-2.609 38.925l3.621 4.81 3.166-5.31zM-1.301 28.112l-5.903-.389 1.859 6.091z"/><path d="M-7.204 27.723l-4.003 5.181 5.862.91zM-16.131 42.455l6.705-2.815-5.302-2.661zM-9.426 39.64l-2.799 6.721 6.285-2.023z"/><path d="M-12.225 46.361l4.139 4.139 2.146-6.162zM-16.131 42.455l3.906 3.906 2.799-6.721zM8.444 11.303l6.692-1.953-4.399-3.296zM15.136 9.35l3.714-6.257-5.214-1.506zM15.136 9.35l5.609.634-1.895-6.891zM26.425 11.956l7.201-1.371-4.633-2.933z"/><path d="M26.425 11.956l2.568-4.304-4.934-2.508z"/><path d="M20.745 9.984l5.68 1.972-2.366-6.812zM26.425 11.956l-5.68-1.972 3.004 6.447z"/><path d="M30.966 15.763l-4.541-3.807-2.676 4.475z"/><path d="M26.425 11.956l4.541 3.807 2.66-5.178zM-1.012 5.731l3.189 5.697 2.581-5.576zM2.177 11.428l6.267-.125-3.686-5.451zM2.177 11.428l3.236 5.369 3.031-5.494z"/><path d="M5.413 16.797l-3.236-5.369-3.048 5.521z"/><path d="M2.165 22.418l3.248-5.621-6.284.152zM5.413 16.797l-3.248 5.621 6.339-.613zM-13.624 15.566l3.389-4.256-7.079-1.693zM-13.624 15.566l-2.292 5.454 5.69.798z"/><path d="M-19.586 15.73l5.962-.164-3.69-5.949z"/><path d="M-15.916 21.02l2.292-5.454-5.962.164zM-7.19 16.778l-6.434-1.212 3.398 6.252z"/><path d="M-13.624 15.566l6.434 1.212-3.045-5.468zM52.677 53.636l5.881 2.544-.578-6.148zM48.35 59.044l-2.806 5.461 6.27.51zM48.35 59.044l4.327-5.408-6.304-.292zM51.386 42.854l-5.681.333 5.001 5.122z"/><path d="M56.873 44.433l-6.167 3.876 7.274 1.723z"/><path d="M56.873 44.433l-5.487-1.579-.68 5.455zM30.966 15.763l7.06-1.773-4.4-3.405zM38.026 13.99l-7.06 1.773 3.325 4.488z"/><path d="M34.291 20.251l7.713-2.537-3.978-3.724zM34.291 20.251l5.164 2.035 2.549-4.572zM-28.297 22.713l4.397 5.047 1.799-6.105z"/><path d="M-23.9 27.76l-4.397-5.047-1.117 6.46zM-33.702 24.884l5.405-2.171-4.301-4.932z"/><path d="M-28.297 22.713l-5.405 2.171 4.288 4.289zM26.501 53.379l-3.18 5.282 6.607-.279z"/><path d="M23.321 58.661l3.18-5.282-6.698.486z"/><path d="M16.728 59.439l6.593-.778-3.518-4.796zM23.321 58.661l-6.593.778 3.762 4.663z"/><path d="M26.962 63.573l-3.641-4.912-2.831 5.441zM23.321 58.661l3.641 4.912 2.966-5.191zM24.094 68.823l.372 5.783 5.051-5.031zM18.844 70.501l5.25-1.678-3.604-4.721z"/><path d="M24.466 74.606l-.372-5.783-5.25 1.678z"/><path d="M24.466 74.606l-5.622-4.105-1.176 5.754zM26.962 63.573l-2.868 5.25 5.423.752zM24.094 68.823l2.868-5.25-6.472.529zM33.206 53.214l-6.705.165 3.427 5.003zM36.612 48.141l-3.406 5.073 6.575.11zM26.501 53.379l6.705-.165-3.376-5.04z"/><path d="M33.206 53.214l3.406-5.073-6.782.033zM36.218 58.63l-3.012-5.416-3.278 5.168zM33.206 53.214l3.012 5.416 3.563-5.306zM42.743 27.346l-3.288-5.06-3.349 4.644zM39.261 32.365l3.482-5.019-6.637-.416z"/><path d="M42.743 27.346l-3.482 5.019 6.601-.081zM19.975 43.243l6.426-.226-3.07-5.408zM16.978 37.964l2.997 5.279 3.356-5.634zM19.975 43.243l-2.997-5.279-3.352 5.76z"/><path d="M26.401 43.017l-6.426.226 3.175 5.176z"/><path d="M19.975 43.243l-3.35 5.672 6.525-.496z"/><path d="M16.625 48.915l3.35-5.672-6.349.481zM10.345 49.702l-2.81-6.033-2.804 5.354z"/><path d="M7.535 43.669l2.81 6.033 3.281-5.978z"/><path d="M10.345 49.702l6.28-.787-2.999-5.191z"/><path d="M16.625 48.915l-6.28.787 2.887 5.042z"/><path d="M10.345 49.702L6.98 56.053l6.252-1.309z"/><path d="M6.98 56.053l3.365-6.351-5.614-.679zM29.612 37.59l6.393.065-3.153-5.475zM26.401 43.017l3.211-5.427-6.281.019zM32.918 42.965l-3.306-5.375-3.211 5.427z"/><path d="M29.612 37.59l3.306 5.375 3.087-5.31zM45.544 64.505l1.576 5.88 4.694-5.37zM47.12 70.385l5.392.299-.698-5.669zM47.12 70.385l-5.557-.521 2.496 6.236z"/><path d="M47.12 70.385l-1.576-5.88-3.981 5.359zM47.12 70.385l2.921 5.917 2.471-5.618z"/><path d="M50.041 76.302l-2.921-5.917-3.061 5.715zM11.208 27.217l3.394-5.808-6.098.396zM-1.945 48.779l-1.911 5.952 5.795-1.126z"/><path d="M4.731 49.023l-6.676-.244 3.884 4.826zM-8.086 50.5l6.141-1.721-3.995-4.441z"/><path d="M-3.856 54.731l1.911-5.952-6.141 1.721zM1.012 43.735l-2.957 5.044 6.676.244z"/><path d="M-1.945 48.779l2.957-5.044-6.952.603zM-11.207 32.904l-1.923-5.52-5.188 4.668zM-15.916 21.02l2.786 6.364 2.904-5.566zM-13.13 27.384l-5.319-1.022.131 5.69zM-18.449 26.362l5.319 1.022-2.786-6.364zM-7.204 27.723l-5.926-.339 1.923 5.52z"/><path d="M-13.13 27.384l5.926.339-3.022-5.905zM20.413 32.273l-3.435 5.691 6.353-.355zM16.978 37.964l3.435-5.691-6.369.32zM30.966 15.763l-3.435 5.292 6.76-.804zM27.531 21.055l3.435-5.292-7.217.668z"/><path d="M20.739 21.492l6.792-.437-3.782-4.624z"/><path d="M23.925 26.603l3.606-5.548-6.792.437zM-3.94 11.46l-3.25 5.318 6.319.171zM-3.94 11.46l2.928-5.729-5.776.213z"/><path d="M-10.235 11.31l6.295.15-2.848-5.516z"/><path d="M-7.19 16.778l3.25-5.318-6.295-.15zM-3.94 11.46l6.117-.032-3.189-5.697zM2.177 11.428l-6.117.032 3.069 5.489zM7.649 32.912l-2.69-5.253-3.815 5.726zM4.959 27.659l6.249-.442-2.704-5.412z"/><path d="M4.959 27.659l-6.26.453 2.445 5.273zM11.208 27.217l-6.249.442 2.69 5.253z"/><path d="M4.959 27.659l-2.794-5.241-3.466 5.694zM2.165 22.418l2.794 5.241 3.545-5.854zM-7.19 16.778l3.18 5.581 3.139-5.41zM-7.204 27.723l3.194-5.364-6.216-.541z"/><path d="M-4.01 22.359l-3.18-5.581-3.036 5.04zM-4.01 22.359l-3.194 5.364 5.903.389zM-4.01 22.359l6.175.059-3.036-5.469z"/><path d="M2.165 22.418l-6.175-.059 2.709 5.753zM42.448 58.748l3.925-5.404-6.592-.02zM45.544 64.505l-3.096-5.757-3.165 5.41z"/><path d="M36.218 58.63l6.23.118-2.667-5.424z"/><path d="M42.448 58.748l-6.23-.118 3.065 5.528zM48.35 59.044l-5.902-.296 3.096 5.757z"/><path d="M42.448 58.748l5.902.296-1.977-5.7zM58.456 62.797l-6.642 2.218 5.928 3.606z"/><path d="M58.456 62.797l-4.653-3.255-1.989 5.473z"/><path d="M58.558 56.18l-4.755 3.362 4.653 3.255z"/><path d="M53.803 59.542l4.755-3.362-5.881-2.544z"/><path d="M48.35 59.044l5.453.498-1.126-5.906zM53.803 59.542l-5.453-.498 3.464 5.971zM54.94 38.178l-3.554 4.676 5.487 1.579zM-28.813 13.119l3.158 4.082 2.59-6.403z"/><path d="M-25.655 17.201l6.069-1.471-3.479-4.932zM-19.586 15.73l-6.069 1.471 3.554 4.454zM-25.655 17.201l-3.158-4.082-3.785 4.662zM-28.297 22.713l2.642-5.512-6.943.58zM-25.655 17.201l-2.642 5.512 6.196-1.058zM39.455 22.286l6.578.026-4.029-4.598zM42.743 27.346l3.29-5.034-6.578-.026zM11.908 15.781l-6.495 1.016 3.091 5.008z"/><path d="M5.413 16.797l6.495-1.016-3.464-4.478z"/><path d="M11.908 15.781l3.228-6.431-6.692 1.953zM14.602 21.409l-2.694-5.628-3.404 6.024zM14.602 21.409l2.858 5.578 3.279-5.495zM17.46 26.987l-6.252.23 2.836 5.376zM17.46 26.987l6.465-.384-3.186-5.111z"/><path d="M17.46 26.987l-2.858-5.578-3.394 5.808zM17.46 26.987l2.953 5.286 3.512-5.67zM20.413 32.273l-2.953-5.286-3.416 5.606zM29.612 37.59l-2.859-5.665-3.422 5.684zM26.753 31.925l2.859 5.665 3.24-5.41zM26.753 31.925l-6.34.348 2.918 5.336z"/><path d="M20.413 32.273l6.34-.348-2.828-5.322zM48.621 37.45l3.861-4.95-6.62-.216zM48.621 37.45l-2.759-5.166-3.449 5.389z"/><path d="M45.705 43.187l2.916-5.737-6.208.223zM51.386 42.854l-2.765-5.404-2.916 5.737z"/><path d="M54.94 38.178l-6.319-.728 2.765 5.404z"/><path d="M48.621 37.45l6.319.728-2.458-5.678zM52.482 32.5l-2.983-5.293-3.637 5.077z"/><path d="M49.499 27.207l-6.756.139 3.119 4.938z"/><path d="M49.499 27.207l-3.466-4.895-3.29 5.034zM20.745 9.984l-2.999 5.551 6.003.896zM17.746 15.535l2.993 5.957 3.01-5.061zM15.136 9.35l2.61 6.185 2.999-5.551z"/><path d="M17.746 15.535l-3.144 5.874 6.137.083zM17.746 15.535l-5.838.246 2.694 5.628z"/><path d="M11.908 15.781l5.838-.246-2.61-6.185zM27.531 21.055l2.805 5.095 3.955-5.899zM30.336 26.15l5.77.78-1.815-6.679z"/><path d="M36.106 26.93l-5.77-.78 2.516 6.03zM30.336 26.15l-2.805-5.095-3.606 5.548z"/><path d="M26.753 31.925l3.583-5.775-6.411.453z"/><path d="M30.336 26.15l-3.583 5.775 6.099.255z"/></svg>