<svg xmlns="http://www.w3.org/2000/svg" viewBox="-150 0 300 172.737"><style>path{fill:none;stroke:#000;stroke-width:1;stroke-linejoin:bevel}</style><path d="M-140.592 100.927l10.922-15.061-20.33.502zm48.227 45.36l15.333 8.611-1.518-19.186zM50.732 22.514l12.084-10.956-18.153-5.935zm-144.756 4.993l-13.143 9.392 15.451 12.549zm43.292-4.993l6.069-16.891-18.153 5.935zm-27.296-4.178l-15.996 9.171 13.804 8.957zm14.448 14.921l.764-21.699-15.212 6.778zM62.816 11.558L50.732 22.514 63.58 33.257zm-89.755 91.185l9.041-16.356-18.402-.123zm-36.042-.25l-9.578 16.707 17.437 1.117zm36.904 33.729l17.382 1.416-9.054-17.739zm-37.179 2.414l-9.303-19.436-5.991 16.512z"/><path d="M-77.032 154.898l13.776-16.262-15.294-2.924zm4.473-35.698l9.303 19.436 8.134-18.319zm-34.661-62.776l.053-19.525-13.074 11.404zm17.425 27.737l8.104-17.661-17.238 3.093zm-20.143.397l20.143-.397-9.134-14.568zM-81.691 66.5l-8.104 17.661 18.171-.668zm48.221-46.267l-11.193-14.61-6.069 16.891zm96.286-8.675l.764 21.699 14.448-14.921zm56.797 88.961l10.057-14.653-19.732-1.308zm10.057-14.653l10.922 15.061L150 86.368zM-8.695 137.638L0 120.533l-17.749-.634zM45.33 69.096l17.587-1-8.424-16.736zm84.721 45.067l-22.16.536 11.041 10.983z"/><path d="M107.891 114.699l-1.258 21.556 12.299-10.573zM78.55 135.712l-1.518 19.186 15.333-8.611zm13.815 10.575l14.268-10.032-13.705-9.459zm-137.771-43.103l18.467-.441-9.361-16.479zm0 0l-17.575-.691 7.859 17.824zm1.069 64.016l17.509 3.68-6.906-18.592zm0 0l-6.62-17.248-11.195 11.483z"/><path d="M-62.152 161.435l11.195-11.483-12.299-11.316zm11.195-11.483l6.62 17.248 10.603-14.912z"/><path d="M-62.152 161.435l-1.104-22.799-13.776 16.262zm-.765-93.339l-9.082-16.543-9.692 14.947zm0 0L-81.691 66.5l10.067 16.993zm-66.753 17.77l-11.268-13.576L-150 86.368zM-81.691 66.5l-10.025-17.052-7.213 20.145zm-12.333-38.993l2.308 21.941 11.496-12.984zm2.308 21.941l19.717 2.105-8.221-15.089zm19.717 2.105l-19.717-2.105L-81.691 66.5z"/><path d="M-107.22 56.424l15.504-6.976-15.451-12.549zm15.504-6.976l-15.504 6.976 8.291 13.169zm-16.175 65.251l-22.16-.536 11.119 11.519zm74.421-94.466l6.527-18.359-17.72 3.749zm69.061 33.323l9.739 15.54 9.163-17.736zM33.47 20.233l17.262 2.281-6.069-16.891zM-8.871 69.502l-9.027 16.885L0 86.434z"/><path d="M8.871 69.502H-8.871L0 86.434zm.021 33.835l9.006-16.95L0 86.434z"/><path d="M17.898 86.387L8.871 69.502 0 86.434zm-26.79 16.95H8.892L0 86.434zm0 0l-18.047-.594 9.19 17.156z"/><path d="M-17.898 86.387l9.006 16.95L0 86.434z"/><path d="M-26.939 102.743l18.047.594-9.006-16.95zm18.047.594L0 120.533l8.892-17.196zM0 120.533l-8.892-17.196-8.857 16.562zm8.984 52.204l17.843-1.857-9.859-16.244zm0 0L0 155.435l-8.984 17.302z"/><path d="M0 155.435l8.984 17.302 7.984-18.101zm0-34.902l17.749-.634-8.857-16.562zm62.981-18.04l16.521-3.159-7.878-15.841zm16.521-3.159l-16.521 3.159 9.578 16.707z"/><path d="M100.042 98.579L89.795 84.161 79.502 99.334z"/><path d="M89.795 84.161l10.247 14.418 9.896-14.021zM79.502 99.334l10.293-15.173-18.171-.668z"/><path d="M100.042 98.579l-20.54.755 9.362 12.685zm19.571 1.94l10.438 13.644 10.541-13.236zm-19.571-1.94l-11.178 13.44 19.027 2.68z"/><path d="M119.613 100.519l20.979.408-10.922-15.061zm-19.571-1.94l19.571 1.94-9.675-15.961zm19.571 1.94l-11.722 14.18 22.16-.536zm-19.571-1.94l7.849 16.12 11.722-14.18zm-11.178 13.44L72.559 119.2l20.369 7.596z"/><path d="M92.928 126.796l14.963-12.097-19.027-2.68z"/><path d="M88.864 112.019l-9.362-12.685-6.943 19.866zm19.027 2.68l-14.963 12.097 13.705 9.459zm-15.526 31.588l.563-19.491-14.378 8.916z"/><path d="M78.55 135.712l14.378-8.916-20.369-7.596zm-105.489-32.969l-8.943 16.174 18.133.982zm-8.943 16.174l9.805 17.305 8.328-16.323z"/><path d="M-45.406 103.184l9.524 15.733 8.943-16.174z"/><path d="M-35.882 118.917l-9.524-15.733-9.716 17.133zm18.914 35.719l-9.109-18.414-7.657 16.066zM0 155.435l-16.968-.799 7.984 18.101z"/><path d="M-26.077 136.222l9.109 18.414 8.273-16.998z"/><path d="M-16.968 154.636L0 155.435l-8.695-17.797zm-9.86 16.244l9.86-16.244-16.766-2.348zm9.86-16.244l-9.86 16.244 17.844 1.857zm-.93-68.249l-8.999-16.456-9.403 16.333zm9.027-16.885l-18.026.429 8.999 16.456z"/><path d="M-26.897 69.931l18.026-.429-8.729-16.651zm-36.084 32.562l8.847-16.602-17.49-2.398zm8.847-16.602l8.728 17.293 9.106-16.92z"/><path d="M-45.406 103.184l-8.728-17.293-8.847 16.602z"/><path d="M-54.134 85.891l-8.783-17.795-8.707 15.397zm-66.107-37.588l-10.86 11.475 11.821 10.585zm.628 52.216l-10.057-14.653-10.922 15.061zm-10.057-14.653l19.732-1.308-9.342-14.195zm50.168 13.468l-20.54-.755 11.178 13.44zm-12.863 46.953l13.815-10.575-14.378-8.916zm-14.268-10.032l-1.258-21.556-11.041 10.983zM0 17.279l-8.631 17.833H8.631zm17.6 35.572l8.317-16.439-17.286-1.3zm0 0l17.991.705-9.674-17.144z"/><path d="M43.827 37.594l-8.236 15.962 18.902-2.196zm19.753-4.337l-19.753 4.337L54.493 51.36zm-19.753 4.337l19.753-4.337-12.848-10.743zm-8.236 15.962l8.236-15.962-17.91-1.182zm8.236-15.962L33.47 20.233l-7.553 16.179z"/><path d="M33.47 20.233l10.357 17.361 6.905-15.08zm38.529 31.32L63.58 33.257 54.493 51.36zm-9.082 16.543l9.082-16.543-17.506-.193zm78.021 4.194L129.67 85.866l20.33.502zM129.67 85.866l11.268-13.576-21.658-1.927zm-22.45-29.442l-15.504-6.976 7.213 20.145z"/><path d="M120.241 48.303l-13.021 8.121 12.06 13.939zM17.898 86.387l9.041 16.356L36.3 86.264z"/><path d="M26.939 102.743l-9.041-16.356-9.006 16.95zm0 0l-9.19 17.156 18.133-.982z"/><path d="M17.749 119.899l9.19-17.156-18.047.594zm-9.054 17.739L0 155.435l16.968-.799zm0 0L0 120.533l-8.695 17.105z"/><path d="M0 155.435l8.695-17.797h-17.39zm8.695-17.797l9.054-17.739L0 120.533zm45.439-51.747l8.783-17.795-17.587 1z"/><path d="M54.134 85.891L45.33 69.096 36.3 86.264zm8.783-17.795l-8.783 17.795 17.49-2.398zm-8.783 17.795l8.847 16.602 8.643-19zm9.122 52.745l15.294-2.924-5.991-16.512zm15.294-2.924l-15.294 2.924 13.776 16.262zm-122.529-1.132l-6.978 15.372 17.223 2.336z"/><path d="M-26.077 136.222l-17.902-1.642 10.245 17.708zm-37.179 2.414l19.277-4.056-11.143-14.263zm12.299 11.316l6.978-15.372-19.277 4.056z"/><path d="M-35.882 118.917l-8.097 15.663 17.902 1.642z"/><path d="M-43.979 134.58l8.097-15.663-19.24 1.4zm8.388-81.024l8.694 16.375 9.297-17.08zm-71.629 2.868l-12.06 13.939 20.351-.77z"/><path d="M-120.241 48.303l.961 22.06 12.06-13.939zm10.303 36.255l11.009-14.965-20.351.77zm-9.342-14.195l-11.821-10.585-9.837 12.512z"/><path d="M-129.67 85.866l10.39-15.503-21.658 1.927zm19.732-1.308l9.896 14.021 10.247-14.418zm20.143-.397l10.293 15.173 7.878-15.841zm10.293 15.173l16.521 3.159-8.643-19zm16.521 3.159l-16.521-3.159 6.943 19.866zm-16.521-3.159l-10.293-15.173-10.247 14.418zm-28.389 15.365l-11.722-14.18-10.438 13.644zm-22.16-.536l10.438-13.644-20.979.408z"/><path d="M-119.613 100.519l9.675-15.961-19.732 1.308zm9.675-15.961l-9.675 15.961 19.571-1.94z"/><path d="M-100.042 98.579l-19.571 1.94 11.722 14.18zm0 0l-7.849 16.12 19.027-2.68zm73.099-96.705l10.126 16.183L-9.014 0zm10.126 16.183L-26.943 1.874l-6.527 18.359zM0 17.279l-16.817.778 8.186 17.055z"/><path d="M-16.817 18.057L0 17.279-9.014 0zm43.76-16.183l6.527 18.359 11.193-14.61zM0 52.281l-8.631-17.169-8.969 17.739zm-8.871 17.221L0 52.281l-17.6.57z"/><path d="M-8.631 35.112L0 52.281l8.631-17.169zM0 52.281l-8.871 17.221H8.871z"/><path d="M17.6 52.851L0 52.281l8.871 17.221z"/><path d="M0 52.281l17.6.57-8.969-17.739zm35.591 1.275l-8.694 16.375 18.433-.835zm9.739 15.54l-18.433.835L36.3 86.264z"/><path d="M26.897 69.931l-8.999 16.456 18.402-.123z"/><path d="M17.898 86.387l8.999-16.456-18.026-.429zM17.6 52.851l9.297 17.08 8.694-16.375zm9.297 17.08L17.6 52.851 8.871 69.502zm64.819-20.483L81.691 66.5l17.238 3.093zM81.691 66.5l-18.774 1.596 8.707 15.397zm0 0l8.104 17.661 9.134-14.568z"/><path d="M89.795 84.161L81.691 66.5 71.624 83.493zM71.999 51.553L81.691 66.5l10.025-17.052z"/><path d="M81.691 66.5l-9.692-14.947-9.082 16.543zM80.22 36.464l13.804-8.957-15.996-9.171zm-16.64-3.207l16.64 3.207-2.192-18.128zm8.419 18.296l8.221-15.089-16.64-3.207zm8.221-15.089l-8.221 15.089 19.717-2.105zm18.709 33.129l11.009 14.965 9.342-14.195zm-9.134 14.568l20.143.397-11.009-14.965z"/><path d="M129.67 85.866l-10.39-15.503-9.342 14.195zm-10.39-15.503l21.658 1.927-9.837-12.512zm.961-22.06l-.961 22.06 11.821-10.585zm-.961 22.06l-12.06-13.939-8.291 13.169zM17.749 119.899l8.328 16.323 9.805-17.305zm8.328 16.323l17.902-1.642-8.097-15.663z"/><path d="M8.695 137.638l17.382-1.416-8.328-16.323zm17.382-1.416l-17.382 1.416 8.273 16.998zm.862-33.479l18.467.441-9.106-16.92zm18.467.441l-18.467-.441 8.943 16.174zm8.728-17.293l-8.728 17.293 17.575-.691zm-8.728 17.293l8.728-17.293-17.834.373zm5.551 46.768l-6.62 17.248 17.815-5.765zm11.195 11.483l14.88-6.537-13.776-16.262zm-11.195-11.483l12.299-11.316-19.277-4.056z"/><path d="M62.152 161.435l1.104-22.799-12.299 11.316zM-62.917 68.096l8.424-16.736-17.506.193zm-30.011 58.7l4.064-14.777-19.027 2.68zm.563 19.491l-.563-19.491-13.705 9.459zm19.806-27.087l-20.369 7.596 14.378 8.916z"/><path d="M-106.633 136.255l13.705-9.459-14.963-12.097zm34.074-17.055l-16.305-7.181-4.064 14.777zm0 0l-6.943-19.866-9.362 12.685zm46.642-82.788l-9.674 17.144 17.991-.705z"/><path d="M-8.631 35.112l-17.286 1.3 8.317 16.439z"/><path d="M-16.817 18.057l-9.1 18.355 17.286-1.3z"/><path d="M-25.917 36.412l9.1-18.355-16.653 2.176zM0 17.279L9.014 0H-9.014zm107.167 19.62l.053 19.525 13.021-8.121z"/><path d="M107.22 56.424l-.053-19.525-15.451 12.549zM94.024 27.507L80.22 36.464l11.496 12.984z"/><path d="M94.024 27.507l-2.308 21.941 15.451-12.549zM43.979 134.58l11.143-14.263-19.24-1.4zm19.002-32.087l-7.859 17.824 17.437-1.117z"/><path d="M63.256 138.636l-8.134-18.319-11.143 14.263z"/><path d="M55.122 120.317l8.134 18.319 9.303-19.436zm-9.716-17.133l9.716 17.133 7.859-17.824z"/><path d="M55.122 120.317l-9.716-17.133-9.524 15.733zM44.337 167.2l-10.603-14.912-6.907 18.592z"/><path d="M33.734 152.288l-7.657-16.066-9.109 18.414zm-6.907 18.592l6.907-18.592-16.766 2.348z"/><path d="M26.077 136.222l7.657 16.066 10.245-17.708zm24.88 13.73l-17.223 2.336L44.337 167.2z"/><path d="M33.734 152.288l17.223-2.336-6.978-15.372zM-71.999 51.553l8.419-18.296-16.64 3.207z"/><path d="M-63.58 33.257l-14.448-14.921-2.192 18.128zm0 0l12.848-10.743-12.084-10.956zm9.087 18.103l-9.087-18.103-8.419 18.296zm9.163 17.736l-8.804 16.795 17.834.373z"/><path d="M-26.897 69.931l-18.433-.835 9.03 17.168zm-27.237 15.96l8.804-16.795-17.587-1z"/><path d="M-35.591 53.556l-9.739 15.54 18.433.835zm-9.739 15.54l-9.163-17.736-8.424 16.736z"/><path d="M-54.493 51.36l9.163 17.736 9.739-15.54zm80.41-14.948l-9.1-18.355-8.186 17.055z"/><path d="M33.47 20.233l-16.653-2.176 9.1 18.355zm-16.653-2.176L0 17.279l8.631 17.833zM26.943 1.874L16.817 18.057l16.653 2.176zM16.817 18.057L9.014 0 0 17.279z"/><path d="M9.014 0l7.803 18.057L26.943 1.874zm-52.841 37.594L-54.493 51.36l18.902 2.196zm0 0l17.91-1.182-7.553-16.179z"/><path d="M-43.827 37.594l10.357-17.361-17.262 2.281zm17.91-1.182l-17.91 1.182 8.236 15.962zm-17.91 1.182l-19.753-4.337 9.087 18.103z"/><path d="M-63.58 33.257l19.753 4.337-6.905-15.08z"/></svg>