<svg xmlns="http://www.w3.org/2000/svg" viewBox="0 0 300 300"><style>path{fill:none;stroke:#000;stroke-width:1;stroke-linejoin:bevel}</style><path d="M271.251 25.304L300 30.508V0zM20.356 0L0 24.759l26.007-2.971z"/><path d="M20.356 0H0v24.759zm-.605 40.615l6.256-18.827L0 24.759zM20.356 0l5.651 21.788L40.79 0zm208.75 0l-9.959 21.857 25.018 1.727zm-22.018 0h-20.879l9.019 20.24zm68.66 0h-23.61l19.113 25.304z"/><path d="M271.251 25.304L300 0h-24.252zm-27.086-1.72L252.138 0h-23.032zm32.571 26.518L300 30.508l-28.749-5.204zM300 274.506L278.407 300H300zM19.751 40.615L0 24.759v24.572zm67.833 219.939l-22.276-3.26 7.82 21.502zm-14.567-59.696l13.53-11.252-16.011-6.911zm.111 77.938l-7.82-21.502-17.343 19.573zM57.695 300h26.046l-10.613-21.204zM207.088 0l-11.86 20.24 23.919 1.617zm69.648 50.102L300 59.215V30.508zm3.168 48.517L300 110.082v-24.46zm1.949 138.126L300 249.279v-24.09zm-1.745 22.348l-6.566 20.344L300 274.506z"/><path d="M281.853 236.745L300 225.189l-17.327-10.117zM300 201.795l-17.327 13.277L300 225.189zm-18.147 34.95l-1.745 22.348L300 249.279zm-152.72 27.327l-9.231 16.946 21.712.617zm-42.586-74.466l-3.978-17.336-12.033 10.425zm16.132 5.288l6.574-14.374-12.991-2.194zm-16.132-5.288l-13.53 11.252 17.177 5.943zM18.97 140.405L0 135.481v21.276z"/><path d="M68.295 165.24l14.274 7.03-1.744-16.24zm14.274 7.03l-14.274-7.03 2.241 17.455zM53.57 155.928l.939 18.211 13.786-8.899zm34.014 104.626l-14.456 18.242 24.007 1.373zm-6.892-20.064l19.895 4.031-6.456-18.674zm19.895 4.031l-19.895-4.031 6.892 20.064zm42.506-46.488l-10.238 11.379 13.684 1.659zm-10.238 11.379l-10.133 9.47 17.159 3.557zm-46.308-19.806l3.647 17.195 12.485-11.907zM229.106 0h-22.018l12.059 21.857zm23.738 46.187l3.617 22.638 20.275-18.723zm3.617 22.638l-20.601-4.142 2.769 21.536z"/><path d="M256.461 68.825l-3.617-22.638-16.984 18.496z"/><path d="M252.844 46.187l23.892 3.915-5.485-24.798zm-8.679-22.603l27.086 1.72L252.138 0zm27.086 1.72l-27.086-1.72 8.679 22.603zm8.653 73.315l1.645 22.535L300 110.082zM219.772 78.28l18.857 7.939-2.769-21.536zm45.633 73.186l16.194-9.518-17.495-10.355zm17.068 9.99l-17.068-9.99-.605 18.114z"/><path d="M281.599 141.948l.874 19.508 17.527-5.28zm-.05-20.794L300 133.624v-23.542zm.05 20.794l-.05-20.794-17.445 10.439zM300 133.624l-18.401 8.324L300 156.176z"/><path d="M300 133.624l-18.451-12.47.05 20.794zm-141.177 26.153l2.057-9.872-8.459 3.283zM300 178.852l-18.882-.424 1.337 16.851zm-51.886 101.577l-13.145-16.496-9.312 17.26zm-101.575-69.358l9.871 9.834-.429-15.443zm-13.684-1.659l7.026 13.027 6.658-11.368zM234.996 300l-9.339-18.807L213.931 300zm-115.093-52.769l9.23 16.841 9.246-15.802zM167.444 0l-16.962 18.329 21.691 1.809zm-15.023 153.188l-.016-9.221-8.735 3.497z"/><path d="M152.405 143.967l.016 9.221 8.459-3.283zM0 93.884l19.173-9.677L0 72.772zm0 0l19.131 9.003.042-18.68z"/><path d="M0 114.379l19.131-11.492L0 93.884zm0 21.102l18.97 4.924-.855-18.008zm0-21.102l18.115 8.018 1.016-19.51zm19.131-11.492l-1.016 19.51 15.957-9.217zm-1.646-39.318l2.266-22.954L0 49.331zM150.236 0h-16.6l16.846 18.329zM40.79 0L26.007 21.788l22.315-1.73zM26.007 21.788l-6.256 18.827 23.377-.591zm39.574 102.889l10.302-9.974-13.601-4.189zM53.57 155.928l14.725 9.312-.81-15.818z"/><path d="M67.485 149.422l-13.603-10.93-.312 17.436zm0 0l.81 15.818 12.53-9.21zm33.102 95.099l8.428 18.332 10.888-15.622zm11.464-14.134l-17.92-4.54 6.456 18.674zm10.671-11.505l-10.671 11.505 18.039 3.287z"/><path d="M112.051 230.387l-11.464 14.134 19.316 2.71zm17.606-32.823l-11.548-7.759-1.319 14.119zm-12.867 6.36l5.932 14.958 10.133-9.47zm-11.022 9.165l-3.089-18.195-12.485 11.907z"/><path d="M105.768 213.089l11.022-9.165-14.111-9.03zm29.706-38.389l8.798 10.357 2.317-11.536zm-79.776 18.299l17.319 7.859-2.481-18.163zm-1.189-18.86l-.939-18.211-15.28 9.422z"/><path d="M54.509 174.139l-16.413 9.894 17.602 8.966zm-16.413 9.894l.194-18.683-19.037 8.577zm-18.843-10.106l19.037-8.577-17.539-8.702zm19.06-26.737l-17.562 9.458 17.539 8.702zm-19.343-6.785L0 156.757l20.751-.109zM244.165 23.584l-14.45 19.555 23.129 3.048z"/><path d="M229.715 43.139l14.45-19.555-25.018-1.727zm-22.211-3.499l22.211 3.499-10.568-21.282zm0 0l11.643-17.783-23.919-1.617zm55.86 72.647l18.185 8.867-1.645-22.535zm18.185 8.867l-18.185-8.867.74 19.306zm-122.726 38.623l9.082-2.785-7.025-7.087zM300 178.852l-17.545 16.427L300 201.795zm-49.185-36.485l-11.597 11.768 11.492 7.399zm0 0l-.105 19.167 14.695-10.068zm-67.181 139.821L193.257 300l11.321-18.29zm79.905-37.721l-5.697 19.085 22.266-4.459zm10.003 34.97L278.407 300 300 274.506zm6.566-20.344L300 274.506v-25.227z"/><path d="M273.542 279.437L256.65 300h21.757z"/><path d="M273.542 279.437l-25.428.992L256.65 300zm-133.661-56.998l7.927 11.532 8.602-13.066zm-30.866 40.414l10.887 18.165 9.231-16.946z"/><path d="M109.015 262.853l20.118 1.219-9.23-16.841zm0 0l-11.88 17.316 22.767.849z"/><path d="M109.015 262.853l-21.431-2.299 9.551 19.615z"/><path d="M109.015 262.853l-8.428-18.332-13.003 16.033zM83.741 300l13.394-19.831-24.007-1.373zm13.394-19.831L83.741 300h24.13zm61.699-227.411l-4.941-17.702-11.006 15.224zm56.242 6.44l4.696 19.082 16.088-13.597zM200.714 72.9l19.058 5.38-4.696-19.082zm35.146-8.217l16.984-18.496-23.129-3.048zM124.165 177.808l-14.912 2.712 8.856 9.285zm14.92-13.008l-3.611 9.9 11.115-1.179zm-3.611 9.9l3.611-9.9-11.382-.661zm-99.96-99.769l1.731 18.543 14.37-13.714zm1.731 18.543l-18.114 9.413 14.941 10.293z"/><path d="M37.245 93.474l-18.072-9.267-.042 18.68zm-19.76-29.905l18.029 11.362-1.566-19.276zm0 0l1.688 20.638 16.341-9.276zm48.247 5.496l-15.478-7.882 1.361 18.577z"/><path d="M37.245 93.474l-1.731-18.543-16.341 9.276zm116.648-58.418l15.741 3.116 2.539-18.034zM53.882 138.492l-15.569 8.698 15.257 8.738zm13.603 10.93l2.034-13.141-15.637 2.211z"/><path d="M69.519 136.281l-3.938-11.604-11.699 13.815zm3.498 64.577l-15.143 12.471 18.494 6.749zm17.177 5.943l-13.826 13.277 17.763 5.769z"/><path d="M73.017 200.858l3.351 19.22 13.826-13.277zm3.351 19.22l-18.494-6.749 2.981 21.595zM24.02 270.261l19.426-18.52-21.256-9.611zm131.961-64.799l10.572 5.993-1.492-12.798zm-12.888-7.429l-13.436-.469 3.198 11.848zm0 0l3.446 13.038 9.442-5.609zm-9.958-11.297l11.137-1.679-8.798-10.357zm-3.478 10.828l3.478-10.828-15.026 3.069zM278.68 74.75l-1.944-24.648-20.275 18.723zM300 59.215L278.68 74.75 300 85.622z"/><path d="M300 59.215l-23.264-9.113 1.944 24.648zM220.801 168.13l6.194-12.53-12.64-.835zm-43.082-11.983l-2.81 9.022 9.51.567zm35.422-26.823l-12.284-9.483-2.271 13.222zm-9.613-39.942l-.327 15.498 17.104-8.626zm-.327 15.498l12.904 8.891 4.2-17.517z"/><path d="M203.201 104.88l-2.344 14.961 15.248-6.07z"/><path d="M200.857 119.841l2.344-14.961-15.156 8.356zm-48.436 33.347l-8.399 2.824 5.9 7.308z"/><path d="M152.421 153.188l-8.751-5.724.352 8.548zm-2.499 10.132l8.901-3.543-6.402-6.589zm-5.65 21.737l10.321-3.955-8.004-7.581zm19.23 2.272l-8.909-6.227-.62 12.014zM264.8 169.58l16.318 8.848 1.355-16.972zm17.673-8.124l-.874-19.508-16.194 9.518zM264.8 169.58l-14.09-8.046-1.45 16.468z"/><path d="M264.8 169.58l.605-18.114-14.695 10.068zm-29.269.308l-8.536-14.288-6.194 12.53zm-14.73-1.758l-6.446-13.365-5.823 11.057zm29.909-6.596l-11.492-7.399-3.687 15.753zM172.508 300l11.126-17.812-20.934-1.179z"/><path d="M172.508 300l-9.808-18.991L152.046 300zm-30.894-18.365L152.046 300l10.654-18.991z"/><path d="M141.614 281.635L130.475 300h21.571zm63.28-31.061l-17.49.418 8.865 14.94z"/><path d="M204.578 281.71l-8.309-15.778-12.635 16.256zm-20.944.478L172.508 300h20.749zm39.39-33.963l-7.708 16.505 19.653-.797zm11.945 15.708l-19.653.797 10.341 16.463z"/><path d="M225.657 281.193l-10.341-16.463-10.738 16.98zm-21.079.517L193.257 300h20.674z"/><path d="M204.578 281.71l9.353 18.29 11.726-18.807z"/><path d="M215.316 264.73l-19.047 1.202 8.309 15.778zm28.942-15.292l-21.234-1.213 11.945 15.708zm-21.234-1.213l21.234 1.213-10.058-12.641zM188.315 99.533l14.886 5.347.327-15.498zm12.542 20.308l-12.812-6.605-1.698 12.52zm-.143-46.941l-18.257-2.912 4.119 15.023zm-14.138 12.111l-13.078 10.633 14.817 3.889zm-21.599-17.35l17.48 2.327-5.928-15.463zm30.251-47.421l-23.055-.102 14.945 17.406zM167.444 0h-17.208l.246 18.329z"/><path d="M195.005 55.612l-12.548 14.376 18.257 2.912zm34.71-12.473l-22.211-3.499 7.572 19.558zM116.044 157.753l-10.989 8.592 11.846 2.945z"/><path d="M105.055 166.345l-8.793 11.981 12.991 2.194zm-2.376 28.549l-6.417-16.568-9.715 11.28zm31.936-40.174l-9.474-2.883 2.562 12.302zm0 0l4.47 10.08 4.937-8.788z"/><path d="M139.085 164.8l-4.47-10.08-6.912 9.419zm23.363-25.184l-10.043 4.351 8.475 5.938zm-81.272-11.74l7.083-11.413-12.376-1.76zm20.336-9.96l-5.494-9.934-7.759 8.481zM37.245 93.474l18.901 1.274-4.531-14.988zm43.931 34.402l13.146-2.134-6.063-9.279zm72.819-48.965l-5.377-13.363-9.857 11.385zm-17.473-44.523l6.365 15.892 11.006-15.224zm22.312 18.37l10.8-14.586-15.741-3.116zM19.751 40.615l14.197 15.04 9.18-15.631z"/><path d="M50.254 61.183l13.337-10.211-20.463-10.948zM40.79 0l7.532 20.058L60.866 0zm-4.593 130.803l17.685 7.689-3.325-15.633z"/><path d="M65.581 124.677l-15.024-1.818 3.325 15.633z"/><path d="M36.197 130.803l2.116 16.387 15.569-8.698zm-18.082-8.406l18.082 8.406-2.125-17.623zm75.316 13.339l-12.255-7.86.604 13.961z"/><path d="M93.431 135.736l.891-9.994-13.146 2.134zm-35.557 77.593l-16.906 13.959 19.887 7.636zm-14.428 38.412l-2.478-24.453L22.19 242.13z"/><path d="M65.308 257.294l-4.453-22.37-17.409 16.817z"/><path d="M43.446 251.741l17.409-16.817-19.887-7.636zm29.682 27.055l-25.163-1.929L57.695 300zm174.271-174.671l15.965 8.162-3.018-22.646z"/><path d="M260.346 89.641l-21.717-3.422 8.77 17.906zm0 0l3.018 22.646 16.54-13.668zm-3.885-20.816l-17.832 17.394 21.717 3.422z"/><path d="M260.346 89.641L278.68 74.75l-22.219-5.925zm-31.767 35.569l3.848-16.953-16.322 5.514zm0 0l-15.438 4.114 8.482 12.238zm-6.956 16.352l5.372 14.038 8.508-16.506zm5.372 14.038l-5.372-14.038-7.268 13.203zm-12.64-.835l-12.777.445 6.954 10.612zm18.072-46.508l13.707 15.519 1.265-19.651zm14.972-4.132l-1.265 19.651 17.23-11.489zM219.772 78.28l.533 17.974 18.324-10.035z"/><path d="M203.528 89.382l16.777 6.872-.533-17.974zm-32.834 57.124l-9.814 3.399 7.025 7.087zm29.368 78.427l3.786-13.522-11.846 2.053zm12.904-5.774l-9.118-7.748-3.786 13.522zm-54.143-59.382l-2.172 10.205 8.727-3.741z"/><path d="M149.922 163.32l6.729 6.662 2.172-10.205zm6.729 6.662l6.957 6.442 1.77-10.183zm18.258-4.813l5.68 9.947 3.83-9.38zm71.225-41.393l-17.555 1.434 6.924 13.884zm-24.511 17.786l13.88-2.468-6.924-13.884zm42.75 45.446l18.082 8.271-1.337-16.851zm-39.26-6.53l10.418-10.59-14.73-1.758zm-13.795-1.883l9.483-10.465-12.269-2.308zm-32.849 87.295l-15.445-2.489-.324 17.608zm17.8.042l-17.8-.042 5.165 16.298zm-17.8-.042l17.8.042-8.865-14.94zm-49.336-1.818l18.133.749-8.887-16.551zm33.567 16.937l-15.434-16.188-5.652 16.814zm87.265-50.052l-13.656-11.207-2.109 17.047zm-45.071 19.617l10.422 14.156 7.708-16.505zm5.589-14.609l12.541 12.26-.31-19.775z"/><path d="M204.894 250.574l-10.511-12.894-6.979 13.312zm10.422 14.156l-10.422-14.156-8.625 15.358z"/><path d="M210.483 235.965l-16.1 1.715 10.511 12.894z"/><path d="M210.483 235.965l-10.421-11.032-5.679 12.747zm12.231-7.515l.31 19.775 11.176-11.428zm-12.231 7.515l-5.589 14.609 18.13-2.349zm47.359 27.587l-22.873.381 13.145 16.496zm0 0l15.7 15.885 6.566-20.344zm-13.584-14.114l13.584 14.114 5.697-19.085zm19.281-4.971l16.569 14.626 1.745-22.348zm-107.558-39.005l-2.008-12.346-10.88 4.917zm10.572 5.993l-10.143 9.45 14.807 2.657zm-10.143 9.45l-8.602 13.066 15.41.61zm14.807 2.657l8.149-10.247-12.813-1.86zm-1.183-141.836l16.542 3.285-4.119-15.023zm16.542 3.285l1.739 14.522 15.213-10.151zm1.739 14.522l-.27 13.703 15.156-8.356zm-.27 13.703l-13.324 9.211 11.626 3.309zm7.183-92.996l-8.11 17.304 20.386 2.096zm19.848 38.958l-20.071-3.586 5.709 17.288zm-27.958-21.654l-10.589 16.981 18.476 1.087zm7.887 18.068l-18.476-1.087 5.928 15.463zm-80.065 79.795l9.851 5.906.44-9.159zm37.465 8.56l-9.26-4.79.525 8.287zm-18.1-8.184l8.84 3.394.135-9.145zm18.528-11.9l.023 10.496 10.594-5.506zm-1.393-11.291l-11.593-3.316 2.375 10.693zm-45.845 16.074l-11.273-2.924-.891 9.994zm-4.083-10.75l-13.253-1.453 6.063 9.279zm13.194 28.107l.234-10.616-10.708 4.812z"/><path d="M114.94 135.407l-.234 10.616 10.085-4.71zm0 0l1.441-9.458-10.786 2.717z"/><path d="M116.381 125.949l-1.441 9.458 10.291-3.253z"/><path d="M125.228 123.743l-8.847 2.206 8.85 6.205z"/><path d="M116.381 125.949l8.847-2.206-3.96-7.362zM71.445 99.736l-9.163 10.778 13.601 4.189z"/><path d="M71.445 99.736l-15.299-4.988 6.136 15.766zm72.978-10.686l-5.662-12.117-7.887 10.502zM129.64 18.303L133.636 0h-17.512z"/><path d="M129.64 18.303L116.124 0l-6.899 18.695z"/><path d="M98.093 0l11.132 18.695L116.124 0zm38.429 34.388l-6.882-16.085-11.261 15.729zm0 0l-18.143-.356 8.29 15.302zM70.737 19.587L60.866 0 48.322 20.058zM19.751 40.615l-2.266 22.954 16.463-7.914zm90.642 8.08L104.9 62.541l13.912.723z"/><path d="M126.669 49.334l-16.276-.639 8.419 14.569zM34.072 113.18l2.125 17.623 14.36-7.944z"/><path d="M34.072 113.18l16.485 9.679-2.741-15.865zm13.744-6.186l2.741 15.865 11.725-12.345z"/><path d="M56.146 94.748l-8.33 12.246 14.466 3.52zM20.892 216.826L0 201.391v23.646zm33.617-42.687L38.29 165.35l-.194 18.683zm-6.544 102.728L29.373 300h28.322zM188.65 155.6l-10.931.547 6.7 9.589zm5.561-10.092l-8.726-8.756-4.357 9.571zm-1.071 46.931l5.891 8.961 6.308-9.77zm-1.138 21.025l7.029-12.064-11.816 1.622zm-11.413-38.348l9.793-.662-5.963-8.718zm-9.28 73.772l7.16 17.002 8.935-14.898zm-16.398-.739l16.398.739-8.091-14.307zm-7.645 16.672l7.645-16.672-16.532.121zm24.043-15.933l-8.285 14.513 15.445 2.489zm-24.043 15.933l15.758-1.42-8.113-15.252z"/><path d="M163.024 263.401l8.285-14.513-16.398-.739zm86.941-32.444l16.142-6.818-14.977-11.194zm32.708-15.885l-.218-19.793-16.446 9.533zm0 0l-16.566 9.067 15.746 12.606z"/><path d="M266.107 224.139l-2.568 20.328 18.314-7.722z"/><path d="M266.107 224.139l-16.142 6.818 13.574 13.51zm-1.734-37.131l1.636 17.804 16.446-9.533zm-27.356-.307l.542 16.829 12.8-8.19zm14.113 26.244l-.771-17.605-12.8 8.19zm-35.156-23.396l9.139-9.071-13.795-1.883zm0 0l-4.656-10.954-5.979 13.035zm6.74 38.901l1.326-17.262-11.074 7.971zm0 0l11.486 8.347 2.109-17.047z"/><path d="M222.714 228.45l13.595-8.7-12.269-8.562zm1.326-17.262l13.519-7.658-11.641-7.291zm-32.038 2.276l-12.636-.149 6.42 11.608zm2.381 24.216l-8.597-12.757-6.928 11.488z"/><path d="M194.383 237.68l5.679-12.747-14.276-.01zM170.034 81.726l-16.039-2.815 4.778 12.831zm0 0l3.464 13.918 13.078-10.633zm.66 64.78l-8.246-6.89-1.568 10.289z"/><path d="M170.694 146.506l3.19-11.523-11.436 4.633zm16.424-108.962l-17.484.628 6.895 16.353zm0 0l7.887 18.068 12.499-15.972z"/><path d="M169.634 38.172l17.484-.628-14.945-17.406zm-15.741-3.116l18.28-14.918-21.691-1.809z"/><path d="M153.893 35.056l-3.411-16.727-13.96 16.059zM82.569 172.27l10.694-9.938-12.438-6.302zm45.796-64.485l-10.421.208 3.324 8.388zm-10.421.208l10.421-.208-3.844-10.09zm21.903 1.283l8.97-8.41-12.662-2.204zm8.97-8.41l-4.394-11.816-8.268 9.612zm2.623 11.726l-2.623-11.726-8.97 8.41zm-39.545 5.821l4.486 7.536 4.887-9.568z"/><path d="M117.944 107.993l-6.049 10.42 9.373-2.032zm-1.563 17.956l-4.486-7.536-6.3 10.253z"/><path d="M111.895 118.413l-10.383-.497 4.083 10.75zm-18.562 29.988l10.899-8.182-10.801-4.483zm.098-12.665l10.801 4.483 1.363-11.553z"/><path d="M105.595 128.666l-4.083-10.75-7.19 7.826zm-1.363 11.553l-10.899 8.182 11.28 4.627z"/><path d="M114.706 146.023l-10.474-5.804.381 12.809zm-10.474-5.804l10.708-4.812-9.345-6.741zm30.073-4.436l.079 9.052 8.761-5.658z"/><path d="M133.911 126.944l.394 8.839 8.975-5.751z"/><path d="M134.305 135.783l-9.514 5.53 9.593 3.522zm-9.514 5.53l9.514-5.53-9.074-3.629zm.44-9.159l8.68-5.21-8.683-3.201z"/><path d="M125.231 132.154l9.074 3.629-.394-8.839zm-11.269-34.065l3.982 9.904 6.577-10.298zm19.563-34.328l5.236 13.172 9.857-11.385zm5.236 13.172l-14.719-1.183 6.832 11.685zm-45.22 17.832l10.082 5.073 2-11.65z"/><path d="M142.887 50.28l-9.362 13.481 15.093 1.787zm0 0l-6.365-15.892-9.853 14.946z"/><path d="M142.887 50.28l-16.218-.946 6.856 14.427z"/><path d="M126.669 49.334l-7.857 13.93 14.713.497zM61.88 35.224l-18.752 4.8 20.463 10.948zm0 0l8.857-15.637-22.415.471z"/><path d="M80.45 38.856l-18.57-3.632 1.711 15.748zm24.45 23.685l-11.929 5.397 15.784 7.692zm-54.646-1.358l-14.74 13.748 16.101 4.829zm58.971-42.488l9.154 15.337 11.261-15.729zm17.444 30.639l-8.29-15.302-7.986 14.663zM70.737 19.587l9.713 19.269 9.115-18.635zM20.892 216.826l-.876-22.641L0 201.391zm18.37-12.157l18.612 8.66-2.176-20.33zm-19.246-10.484l18.08-10.152-18.843-10.106z"/><path d="M20.892 216.826l18.37-12.157-19.246-10.484zm18.37-12.157l1.706 22.619 16.906-13.959zm1.706 22.619l-1.706-22.619-18.37 12.157zm0 0l-20.076-10.462 1.298 25.304zM0 300l24.02-29.739L0 274.564z"/><path d="M0 249.645v24.919l24.02-4.303zm194.211-104.137l13.33-2.364-8.955-10.081zm18.93-16.184l2.964-15.553-15.248 6.07zm-17.699 35.198l5.419 9.018 7.671-7.718zm0 0l-6.792-8.922-4.231 10.136z"/><path d="M201.578 155.21l-6.136 9.312 13.09 1.3zm-12.928.39l6.792 8.922 6.136-9.312z"/><path d="M195.442 164.522l-5.06 9.932 10.479-.914z"/><path d="M190.382 174.454l5.06-9.932-11.023 1.214zm20.936 4.141l-12.132 4.501 6.153 8.534z"/><path d="M199.186 183.096l-6.046 9.343 12.199-.809zm0 0l12.132-4.501-10.457-5.055z"/><path d="M190.382 174.454l8.804 8.642 1.675-9.556zm60.748 38.491l14.977 11.194-.098-19.327zm-1.165 18.012l1.165-18.012-14.821 6.805z"/><path d="M251.13 212.945l14.879-8.133-15.65-9.472zm-14.113-26.244l13.342 8.639-1.099-17.338zm.542 16.829l-.542-16.829-11.099 9.538zm-11.641-7.291l-9.944-6.69-2.97 13.303zm-54.609 52.649l7.549-12.477-15.64-1.83zm7.549-12.477l-7.549 12.477 16.095 2.104zm15.525 1.269l-15.525-1.269 8.546 14.581zm-6.068-138.147l-13.369 9.798 13.099 3.905zm-25.867 40.083l1.002-10.743-10.594 5.506zm-9.615-15.733l10.617 4.99-.264-11.881zm10.617 4.99l11.271-6.426-11.535-5.455z"/><path d="M173.884 134.983l-10.434-6.11-1.002 10.743zm-41.888-17.985l-6.768 6.745 8.683 3.201zm-6.768 6.745l6.768-6.745-10.728-.617z"/><path d="M131.996 116.998l-3.631-9.213-7.097 8.596zm38.038-35.272l-11.261 10.016 14.725 3.902zm-21.217 19.14l9.956-9.124-14.35-2.692zm-47.305 17.05l6.663-8.673-12.157-1.261zm6.663-8.673l3.72 9.17 6.049-10.42z"/><path d="M111.895 118.413l-3.72-9.17-6.663 8.673zm2.067-20.324l-5.787 11.154 9.769-1.25zm-57.816-3.341l11.916-9.966-16.447-5.022zm15.299 4.988l-3.383-14.954-11.916 9.966zm-5.713-30.671L51.615 79.76l16.447 5.022zm-15.478-7.882l-16.306-5.528 1.566 19.276zM80.44 74.875l12.531-6.937-13.945-9.904zM99.416 35.41l18.963-1.378-9.154-15.337z"/><path d="M99.416 35.41l9.809-16.715-19.66 1.526zM80.45 38.856l18.966-3.446-9.851-15.189zm18.966-3.446l10.977 13.285 7.986-14.663z"/><path d="M99.416 35.41l-6.119 15.777 17.096-2.492zm-6.119 15.777l-.326 16.751 11.929-5.397z"/><path d="M99.416 35.41L80.45 38.856l12.847 12.331zM63.591 50.972l15.435 7.062 1.424-19.178z"/><path d="M63.591 50.972l2.141 18.093 13.294-11.031zM24.02 270.261l-1.83-28.131L0 249.645zm-1.83-28.131l-1.298-25.304L0 225.037z"/><path d="M22.19 242.13L0 225.037v24.608zm21.256 9.611l-19.426 18.52 23.945 6.606z"/><path d="M43.446 251.741l4.519 25.126 17.343-19.573zm178.177-110.179l-14.082 1.582 6.814 11.621z"/><path d="M207.541 143.144l14.082-1.582-8.482-12.238zm-13.33 2.364l4.375-12.445-13.101 3.689z"/><path d="M198.586 133.063l8.955 10.081 5.6-13.82zm-26.488 39.733l2.811-7.627-9.531 1.072z"/><path d="M163.608 176.424l8.49-3.628-6.72-6.555zm8.49-3.628l8.491 2.32-5.68-9.947z"/><path d="M172.012 181.571l8.577-6.455-8.491-2.32zm0 0l8.212 2.244.365-8.699z"/><path d="M172.012 181.571l.086-8.775-8.49 3.628zm27.174 1.525l-10.597.244 4.551 9.099zm-18.962.719l8.365-.475-8-8.224z"/><path d="M188.589 183.34l1.793-8.886-9.793.662zm0 0l10.597-.244-8.804-8.642zm-5.599 9.926l5.599-9.926-8.365.475zm5.599-9.926l-5.599 9.926 10.15-.827zm-22.036 28.115l9.084-8.999-10.576-3.799zm20.662-8.433l-7.849 10.293 12.636.149zm-25.368-98.47l-10.407 8.04 11.746 4.4zm0 0l-13.03-3.686 2.623 11.726zm0 0l-3.074-12.81-9.956 9.124z"/><path d="M158.773 91.742l3.074 12.81 11.651-8.908zm-90.711-6.96l13.997 4.575-1.619-14.482zm13.997 4.575l-13.997-4.575 3.383 14.954zm89.953 92.214l1.245 10.064 6.967-7.82z"/><path d="M173.257 191.635l-1.245-10.064-8.51 5.758zm0 0l9.733 1.631-2.766-9.451zm-43.6 5.929l-12.867 6.36 16.065 5.488zm-26.978-2.67l15.43-5.089-8.856-9.285zm14.111 9.03l1.319-14.119-15.43 5.089zM234.996 300h21.654l-8.536-19.571zm0 0l13.118-19.571-22.457.764zM17.485 63.569L0 49.331v23.441zm0 0L0 72.772l19.173 11.435zm105.237 155.313l-5.932-14.958-11.022 9.165z"/><path d="M122.722 218.882l-16.954-5.793 6.283 17.298zm-52.186-36.187l-16.027-8.556 1.189 18.86z"/><path d="M70.536 182.695l-2.241-17.455-13.786 8.899zm193.568-51.102l-.74-19.306-17.23 11.489zm-13.289 10.774l14.59 9.099-1.301-19.873zm13.289-10.774l-17.97-7.817 4.681 18.591zM300 178.852v-22.676l-17.527 5.28z"/><path d="M300 178.852l-17.527-17.396-1.355 16.972zm-17.327 36.22l-16.664-10.26.098 19.327zm-.218-19.793l.218 19.793L300 201.795zm-142.574 27.16l16.529-1.534-9.871-9.834zm0 0l-9.791 11.235 17.718.297zm-42.746 57.73L107.871 300l12.031-18.982zm79.394-225.644l-6.895-16.353-10.8 14.586zm0 0l-17.695-1.767 6.143 14.903zM200.714 72.9l-14.138 12.111 16.952 4.371z"/><path d="M200.714 72.9l2.814 16.482 16.244-11.102zM80.692 240.49l-4.324-20.412-15.513 14.846z"/><path d="M80.692 240.49l13.439-14.643-17.763-5.769zm9.502-33.689l3.937 19.046 11.637-12.758zm15.574 6.288l-11.637 12.758 17.92 4.54z"/><path d="M65.308 257.294l15.384-16.804-19.837-5.566zm0 0l22.276 3.26-6.892-20.064zm70.166-82.594l-7.771-10.561-3.538 13.669zm-11.309 3.108l8.97 8.928 2.339-12.036zm0 0l-6.056 11.997 15.026-3.069z"/><path d="M133.135 186.736l-3.478 10.828 13.436.469z"/><path d="M133.135 186.736l9.958 11.297 1.179-12.976zm99.292-78.479l-3.848 16.953 17.555-1.434zm13.707 15.519l-10.631 15.318 15.312 3.273zm-80.756 42.465l2.527-9.249-9.082 2.785zm9.531-1.072l-7.004-8.177-2.527 9.249z"/><path d="M174.909 165.169l2.81-9.022-9.814.845zm-30.637 19.888l-1.179 12.976 10.88-4.917zm0 0l9.701 8.059.62-12.014zm-24.37 95.961L130.475 300l11.139-18.365z"/><path d="M119.902 281.018L107.871 300h22.604zm52.271-260.88l23.055.102L186.209 0z"/><path d="M172.173 20.138L186.209 0h-18.765zm42.903 39.06l-7.572-19.558-12.499 15.972zm20.784 5.485l-6.145-21.544-14.639 16.059zm-119.816 93.07l11.659 6.386-2.562-12.302zm0 0l.857 11.537 10.802-5.151z"/><path d="M116.901 169.29l7.264 8.518 3.538-13.669zm-.857-11.537l-11.431-4.725.442 13.317z"/><path d="M116.044 157.753l-1.338-11.73-10.093 7.005zm-10.989 8.592l4.198 14.175 7.648-11.23zm4.198 14.175l14.912-2.712-7.264-8.518zm55.724-112.859l-10.982 11.25 16.039 2.815zm0 0l5.057 14.065 12.423-11.738zM129.64 18.303l6.882 16.085 13.96-16.059zM133.636 0l-3.996 18.303 20.842.026zm25.198 52.758l-10.216 12.79 16.359 2.113z"/><path d="M158.834 52.758l-15.947-2.478 5.731 15.268zm6.143 14.903l-16.359-2.113 5.377 13.363zM62.282 110.514l-11.725 12.345 15.024 1.818zm3.299 14.163l15.595 3.199-5.293-13.173zM38.29 165.35l15.28-9.422-15.257-8.738zm.023-18.16l-19.343-6.785 1.781 16.243z"/><path d="M18.97 140.405l19.343 6.785-2.116-16.387zM0 135.481l18.115-13.084L0 114.379z"/><path d="M18.97 140.405l17.227-9.602-18.082-8.406zm48.515 9.017l13.34 6.608.955-14.193z"/><path d="M67.485 149.422l14.295-7.585-12.261-5.556z"/><path d="M81.176 127.876l-15.595-3.199 3.938 11.604zm0 0l-11.657 8.405 12.261 5.556zM0 156.757v21.967l19.253-4.797z"/><path d="M0 156.757l19.253 17.17 1.498-17.279zm279.904-58.138L278.68 74.75l-18.334 14.891z"/><path d="M279.904 98.619L300 85.622 278.68 74.75zm-41.275-12.4l-6.202 22.038 14.972-4.132zm-6.202 22.038l-12.122-12.003-4.2 17.517z"/><path d="M228.579 125.21l-12.474-11.439-2.964 15.553zm3.848-16.953l6.202-22.038-18.324 10.035zm-54.708 47.89l3.409-9.824-10.434.183zm0 0l-7.025-9.641-2.789 10.486zm-27.797 7.173l-5.9-7.308-4.937 8.788zm-3.333 10.201l10.062-3.539-6.729-6.662z"/><path d="M149.922 163.32l-10.837 1.48 7.504 8.721zm6.729 6.662l-2.058 11.12 9.015-4.678zm0 0l-10.062 3.539 8.004 7.581zm82.567-15.847l11.597-11.768-15.312-3.273zm0 0l-3.715-15.041-8.508 16.506zm0 0l-12.223 1.465 8.536 14.288zM264.8 169.58l-15.54 8.422 15.113 9.006zm-14.09-8.046l-15.179 8.354 13.729 8.114zm-1.45 16.468l1.099 17.338 14.014-8.332zm15.113 9.006l-14.014 8.332 15.65 9.472z"/><path d="M281.118 178.428L264.8 169.58l-.427 17.428zm-69.8.167l-2.786-12.773-7.671 7.718zm0 0l13.795 1.883-4.312-12.348zm-63.51 55.376l-9.429 14.299 16.532-.121zm-18.675 30.101l12.481 17.563 5.652-16.814zm115.125-14.634l5.707-18.481-15.765 5.84z"/><path d="M244.258 249.438l19.281-4.971-13.574-13.51zm13.584 14.114l-13.584-14.114-9.289 14.495zm0 0l-9.728 16.877 25.428-.992zM125.141 151.837l-.35-10.524-10.085 4.71zm0 0l-10.435-5.814 1.338 11.73z"/><path d="M134.384 144.835l-9.593-3.522.35 10.524zm0 0l-9.243 7.002 9.474 2.883zm8.761-5.658l9.711-4.798-9.576-4.347z"/><path d="M143.145 139.177l9.26 4.79.451-9.588zm9.26 4.79l10.043-4.351-9.592-5.237zm-8.735 3.497l-9.055 7.256 9.407 1.292zm-9.286-2.629l9.286 2.629-.525-8.287z"/><path d="M134.384 144.835l.231 9.885 9.055-7.256zm7.838-24.866l1.058 10.063 9.553-6.149zm1.058 10.063l9.576 4.347-.023-10.496zM108.755 75.63l10.057-12.366-13.912-.723zm0 0l15.287.12-5.23-12.486zm-71.51 17.844l-3.173 19.706 13.744-6.186z"/><path d="M37.245 93.474l10.571 13.52 8.33-12.246zm20.629 119.855l15.143-12.471-17.319-7.859z"/><path d="M39.262 204.669l16.436-11.67-17.602-8.966zM0 178.724l20.016 15.461-.763-20.258z"/><path d="M0 178.724v22.667l20.016-7.206zm20.016 15.461l19.246 10.484-1.166-20.636zm161.112-47.862l7.522 9.277 5.561-10.092z"/><path d="M181.128 146.323l-3.409 9.824 10.931-.547zm-58.406 72.559l7.368 14.792 9.791-11.235zm7.368 14.792l-18.039-3.287 7.852 16.844zm-10.187 13.557l18.476 1.039-8.289-14.596zm35.008.918l8.307-13.568-15.41-.61z"/><path d="M147.808 233.971l-17.718-.297 8.289 14.596zm30.661 31.919L162.7 281.009l20.934 1.179zm-15.445-2.489l-15.758 1.42 15.434 16.188zm59.69-34.951l-9.748-9.291-2.483 16.806zm-12.231 7.515l2.483-16.806-12.904 5.774zm-54.502-30.503l9.08-6.805-11.088-5.541z"/><path d="M153.973 193.116l11.088 5.541-1.559-11.328zm12.58 18.339l12.813 1.86-3.729-10.859zm0 0l-10.572-5.993.429 15.443zm20.662-8.433l-11.578-.566 3.729 10.859zm-1.429 21.901l14.276.01-8.06-11.469zm-11.902-89.94l7.244 11.34 4.357-9.571zm0 0l-3.19 11.523 10.434-.183zm0 0l11.601 1.769.862-10.996zm-80.551 13.418l-11.553-6.564-.955 14.193z"/><path d="M93.333 148.401l.098-12.665-11.651 6.101zm0 0l-12.508 7.629 12.438 6.302zm-.07 13.931l2.999 15.994 8.793-11.981zm-10.694 9.938l3.978 17.336 9.715-11.28z"/><path d="M93.263 162.332l-10.694 9.938 13.693 6.056zm0 0l11.35-9.304-11.28-4.627zm0 0l11.792 4.013-.442-13.317zm35.102-54.547l7.79-9.123-11.634-.967z"/><path d="M130.874 87.435l-6.353 10.26 11.634.967z"/><path d="M128.365 107.785l11.482 1.491-3.692-10.614zm-44.208-4.031l-12.712-4.018 4.438 14.967zm0 0l-8.274 10.949 12.376 1.76zm9.384-8.989l12.082-6.577-10.892-6.859z"/><path d="M84.157 103.754l4.102 12.709 7.759-8.481zm9.384-8.989l-9.384 8.989 11.861 4.228zm37.333-7.33l-12.98-.8 6.627 11.06zm-12.98-.8l6.148-10.885-15.287-.12zm18.261 12.027l8.268-9.612-13.549-1.615zm-30.532-10.474l-2 11.65 10.339-1.749z"/><path d="M117.894 86.635l-3.932 11.454 10.559-.394z"/><path d="M117.894 86.635l-12.271 1.553 8.339 9.901zm0 0l12.98.8-6.832-11.685z"/><path d="M117.894 86.635l-9.139-11.005-3.132 12.558zm15.631-22.874l-9.483 11.989 14.719 1.183zm0 0l-14.713-.497 5.23 12.486zM70.737 19.587L80.084 0H60.866zm0 0L61.88 35.224l18.57 3.632zm-22.415.471l-5.194 19.966 18.752-4.8z"/><path d="M26.007 21.788l17.121 18.236 5.194-19.966zm68.724 59.541l14.024-5.699-15.784-7.692zm0 0l10.892 6.859 3.132-12.558zM98.093 0H80.084l9.481 20.221z"/><path d="M89.565 20.221L80.084 0l-9.347 19.587zM98.093 0l-8.528 20.221 19.66-1.526zm6.807 62.541l5.493-13.846-17.096 2.492zM93.297 51.187L80.45 38.856l-1.424 19.178z"/><path d="M93.297 51.187l-14.271 6.847 13.945 9.904zm93.05 74.569l12.239 7.307 2.271-13.222zm0 0l-.862 10.996 13.101-3.689zm-22.845 61.573l.106-10.905-9.015 4.678zm0 0l8.51-5.758-8.404-5.147zm23.713 15.693l11.816-1.622-5.891-8.961zm4.787 10.442l11.846-2.053-4.817-10.011zm1.138-21.025l-10.15.827 4.225 9.756zm43.169 27.311l1.25-16.22-13.519 7.658zm0 0l14.821-6.805-13.571-9.415zm-11.196-39.272l11.904 6.223-1.486-16.813zm11.904 6.223l12.243-8.699-13.729-8.114zm-24.013 16.151l2.97-13.303-10.635 2.081z"/><path d="M213.004 202.852l-7.665-11.222-6.308 9.77zm-9.156 8.559l9.118 7.748.038-16.307zm9.156-8.559l-13.973-1.452 4.817 10.011zm0 0l-.038 16.307 11.074-7.971z"/><path d="M213.004 202.852l11.036 8.336 1.878-14.949zm12.914-6.613l11.099-9.538-11.904-6.223zm0 0l-.805-15.761-9.139 9.071zm-62.7 38.342l15.64 1.83-7.641-12.849zm-6.808-13.676l6.808 13.676 7.999-11.019zm29.376 4.018l-6.42-11.608-8.149 10.247z"/><path d="M185.786 224.923l-14.569-1.361 7.641 12.849zM151.44 112.592l1.393 11.291 10.353-6.891z"/><path d="M161.847 104.552l1.339 12.44 11.76-7.661zm-9.014 19.331l-1.393-11.291-9.218 7.377zm22.113-14.552l-.225 13.116 13.324-9.211z"/><path d="M174.946 109.331l-11.76 7.661 11.535 5.455zm-1.062 25.652l.837-12.536-11.271 6.426zm0 0l12.463-9.227-11.626-3.309zm-31.662-15.014l-8.311 6.975 9.369 3.088z"/><path d="M133.911 126.944l8.311-6.975-10.226-2.971zm5.936-17.668l-11.482-1.491 3.631 9.213zm0 0l-7.851 7.722 10.226 2.971zm4.576-20.226l14.35 2.692-4.778-12.831zm0 0l9.572-10.139-15.234-1.978zm-50.882 5.715l2.477 13.217 7.605-8.144zm10.082 5.073l-7.605 8.144 12.157 1.261zm0 0l4.552 9.405 5.787-11.154zM80.44 74.875l14.291 6.454-1.76-13.391zm14.291 6.454L80.44 74.875l1.619 14.482zm-31.14-30.357L50.254 61.183l15.478 7.882zM50.254 61.183l-7.126-21.159-9.18 15.631zM29.373 300l18.592-23.133-23.945-6.606z"/><path d="M0 300h29.373l-5.353-29.739zm201.578-144.79l5.963-12.066-13.33 2.364zm5.963-12.066l-5.963 12.066 12.777-.445z"/><path d="M201.578 155.21l-7.367-9.702-5.561 10.092zm-26.632-45.879l13.369-9.798-14.817-3.889z"/><path d="M174.946 109.331l-1.448-13.687-11.651 8.908zM65.732 69.065l14.708 5.81-1.414-16.841zm2.33 15.717l12.378-9.907-14.708-5.81zm26.669-3.453l-12.672 8.028 11.482 5.408z"/><path d="M82.059 89.357l2.098 14.397 9.384-8.989z"/><path d="M82.059 89.357L71.445 99.736l12.712 4.018zm83.002 109.3l8.196-7.022-9.755-4.306zm10.576 3.799l-2.38-10.821-8.196 7.022zm7.353-9.19l-9.733-1.631 2.38 10.821zm0 0l-7.353 9.19 11.578.566z"/></svg>