<svg xmlns="http://www.w3.org/2000/svg" viewBox="0 0 100 100"><style>path{fill:none;stroke:#969696;stroke-width:.5;stroke-linejoin:bevel}</style><path d="M100 0h-8.09l-1.258 8.32zM6.252 6.304L0 0v8.847z"/><path d="M6.252 6.304L8.673 0H0zM7.801 13.073L6.252 6.304 0 8.847zM13.281 7.464L8.673 0 6.252 6.304zM77.723 100h6.913l-3.66-6.739zM76.432 0l-2.89 7.364 8.129.426zM69.151 0H62.26l3.896 7.047zM91.91 0h-7.828l6.57 8.32zM100 0l-9.348 8.32L100 10.197z"/><path d="M81.671 7.79L84.082 0h-7.65zM92.537 16.64L100 10.197 90.652 8.32zM100 90.159l-5.55 3.074L100 100z"/><path d="M100 100l-5.55-6.767L91.803 100zM7.801 13.073L0 8.847v7.356zM16.448 85.721l8.322.755-2.496-6.304zM24.637 63.693l4.931-2.829-6.026-2.392zM10.088 92.036L16.451 100l3.043-7.428zM16.451 100h8.007l-4.964-7.428zM69.151 0l-2.995 7.047 7.386.317zM92.537 16.64L100 19.895v-9.698zM93.469 33.21L100 36.888v-8.155zM93.632 78.883L100 82.298V74.41zM94.45 93.233l-2.019-7.341-4.716 6.668z"/><path d="M93.632 78.883L100 74.41l-6.005-2.299z"/><path d="M100 66.611l-6.005 5.5L100 74.41zM93.632 78.883l-1.201 7.009L100 82.298zM39.504 87.517l-3.996 5.722 7.013.262zM29.568 60.864l-1.321-4.268-4.705 1.876zM29.568 60.864l4.503 2.853 1.043-4.1zM29.568 60.864l-4.931 2.829 5.364 2.738zM6.337 49.321l-.333-5.964L0 44.612z"/><path d="M24.363 53.468l3.884 3.128 1.307-4.285z"/><path d="M28.247 56.596l-3.884-3.128-.821 5.004zM22.004 49.81l-5.089-.601 1.712 5.552zM24.77 86.476l-5.276 6.096 8.432.368zM22.274 80.172l7.525 1.01-2.337-5.711zM29.799 81.182l-7.525-1.01 2.496 6.304zM41.472 68.591l4.896-.814-2.781-3.211zM38.642 72.687l6.129-.026-3.299-4.07zM29.568 60.864l.433 5.567 4.07-2.714zM76.432 0h-7.281l4.391 7.364zM84.518 15.094l1.64 7.507 6.379-5.961zM86.158 22.601l-7.233-1.695 1.682 6.8z"/><path d="M86.158 22.601l-1.64-7.507-5.593 5.812zM84.518 15.094l8.019 1.546-1.885-8.32zM81.671 7.79l8.981.53L84.082 0z"/><path d="M90.652 8.32l-8.981-.53 2.847 7.304zM93.469 33.21l.213 7.524L100 36.888zM73.984 25.839l6.623 1.867-1.682-6.8zM87.718 50.747l5.886-3.009-5.617-3.496zM93.858 54.124l-6.14-3.377 1.09 6.396zM93.604 47.738l.254 6.386L100 51.776zM93.682 40.734L100 44.533v-7.645z"/><path d="M93.604 47.738l.078-7.004-5.695 3.508zM100 44.533l-6.396 3.205L100 51.776z"/><path d="M100 44.533l-6.318-3.799-.078 7.004zM53.334 54.454l.71-3.245-2.826 1.026zM100 66.611v-7.595l-5.71 1.616zM84.646 86.824l-3.67 6.437 6.739-.701zM44.771 72.661l5.163 1.781-.182-4.254zM40.92 77.159l3.851-4.498-6.129.026zM74.261 93.542L71.104 100h6.619zM39.504 87.517l6.558.423-2.823-5.437zM42.521 93.501L39.098 100h6.746zM49.371 0l3.58 6.683L55.688 0z"/><path d="M59.348 6.794L62.26 0h-6.572zM51.218 52.235l.406-3.28-2.504.966zM51.624 48.955l-.406 3.28 2.826-1.026zM0 30.824l6.273-4.308L0 23.716z"/><path d="M0 30.824l6.279 1.695-.006-6.003z"/><path d="M0 37.742l6.279-5.223L0 30.824zM6.004 43.357l5.87-2.612-5.526-2.85zM0 37.742l6.348.153-.069-5.376z"/><path d="M6.279 32.519l.069 5.376 5.914-2.665zM6.221 19.895l1.58-6.822L0 16.203zM49.371 0L46.83 6.11l6.121.573zM13.281 7.464L16 0H8.673zM13.281 7.464l-7.029-1.16 1.549 6.769zM21.867 40.69l3.441-2.728-3.939-2.649zM24.363 53.468l-2.359-3.658-3.377 4.951zM22.004 49.81l-1.315-4.501-3.774 3.9zM22.004 49.81l2.359 3.658 2.558-4.582zM29.799 81.182l2.696 5.831 4.394-5.183zM34.39 76.596l-6.928-1.125 2.337 5.711zM38.642 72.687l-4.252 3.909 6.53.563zM34.39 76.596l-4.591 4.586 7.09.648zM41.472 68.591l2.115-4.025-4.621-.78zM36.139 68.13l2.503 4.557 2.83-4.096zM30.001 66.431l6.138 1.699-2.068-4.413z"/><path d="M36.139 68.13l-6.138-1.699 2.114 5.094zM45.6 58.964l1.718 3.815 1.763-3.994zM18.649 60.906l5.988 2.787-1.095-5.221zM18.627 54.761l-1.712-5.552-4.444 3.29zM18.627 54.761l-5.541 3.452 5.563 2.693z"/><path d="M13.086 58.213l-.615-5.714-5.84 2.928z"/><path d="M6.631 55.427l5.84-2.928-6.134-3.178zM11.809 46.498l-5.472 2.823 6.134 3.178zM0 51.392l6.337-2.071L0 44.612zM81.671 7.79l-5.123 6.487 7.97.817zM76.548 14.277l5.123-6.487-8.129-.426zM69.192 13.623l7.356.654-3.006-6.913z"/><path d="M69.192 13.623l4.35-6.259-7.386-.317zM87.714 37.374l5.968 3.36-.213-7.524zM93.682 40.734l-5.968-3.36.273 6.868zM53.334 54.454l3.002-.977-2.292-2.268zM100 66.611l-5.71-5.979-.703 5.628zM87.718 50.747L82.7 46.652l-1.169 5.139z"/><path d="M87.718 50.747l-6.187 1.044 2.378 3.739zM61.448 93.586l3.26 6.414 3.037-6.344zM86.998 81.052l-2.352 5.772 7.785-.932zM92.431 85.892L100 90.159v-7.861zM94.45 93.233l5.55-3.074-7.569-4.267zM91.803 100l-4.088-7.44-3.079 7.44zM87.715 92.56l-6.739.701 3.66 6.739zM46.307 77.85l-5.387-.691 2.319 5.344zM32.495 87.013l3.013 6.226 3.996-5.722z"/><path d="M32.495 87.013l7.009.504-2.615-5.687zM32.495 87.013l-4.569 5.927 7.582.299zM32.495 87.013l-7.725-.537 3.156 6.464z"/><path d="M32.495 87.013l-2.696-5.831-5.029 5.294zM24.458 100l3.468-7.06-8.432-.368zM27.926 92.94L24.458 100h7.545zM52.838 17.701l-2.825-5.328-2.97 4.945zM71.643 19.951l2.341 5.888 4.941-4.933z"/><path d="M67.16 24.991l6.824.848-2.341-5.888zM78.925 20.906l5.593-5.812-7.97-.817zM39.233 59.048l-4.119.569 3.852 4.169zM46.346 55.622l-.746 3.342 3.481-.179z"/><path d="M45.6 58.964l.746-3.342-4.073.433zM12.139 23.759l.042 5.816 5.388-3.02zM12.181 29.575l-5.902 2.944 5.983 2.711z"/><path d="M12.181 29.575l-5.908-3.059.006 6.003zM6.221 19.895l5.918 3.864.413-6.076z"/><path d="M6.221 19.895l.052 6.621 5.866-2.757zM17.569 26.555l4.197 3.104 1.153-5.526zM12.181 29.575l-.042-5.816-5.866 2.757zM50.013 12.373l6.07.313-3.132-6.003zM16.915 49.209l3.774-3.9-4.04-2.026zM22.004 49.81l2.931-4.788-4.246.287zM24.935 45.022l-3.068-4.332-1.178 4.619zM24.637 63.693l-5.159 3.421 6.051 2.619z"/><path d="M30.001 66.431l-4.472 3.302 6.586 1.792z"/><path d="M24.637 63.693l.892 6.04 4.472-3.302zM25.529 69.733l-6.051-2.619.983 6.629zM7.918 84.382l8.53 1.339-1.77-7.035zM49.752 70.188l4.282 1.97-.306-4.2zM41.472 68.591l3.299 4.07 1.597-4.884zM46.368 67.777l-1.597 4.884 4.981-2.473zM42.744 60.716l4.574 2.063-1.718-3.815zM43.587 64.566l-.843-3.85-3.778 3.07zM93.088 25.184l-.551-8.544-6.379 5.961zM100 19.895l-6.912 5.289L100 28.733z"/><path d="M100 19.895l-7.463-3.255.551 8.544zM73.713 55.958l3.013-2.834-4.243-2.254zM59.701 52.398l-1.112 3.36 3.461-.8zM71.628 41.531l-4.709-2.844-.446 4.533zM71.44 35.977l-1.76-5.936-3.301 3.598zM71.44 35.977l-5.061-2.338.54 5.048zM71.44 35.977l4.227-3.957-5.987-1.979z"/><path d="M66.919 38.687l-.54-5.048-4.123 1.789zM51.218 52.235l-3.317.385 2.12 2.707z"/><path d="M51.218 52.235l-2.098-2.314-1.219 2.699zM50.021 55.327l3.313-.873-2.116-2.219zM47.318 62.779l3.943-1.16-2.18-2.834zM54.057 64.056l-2.796-2.437-.99 4.033zM88.808 57.143l5.482 3.489-.432-6.508z"/><path d="M93.858 54.124l-.254-6.386-5.886 3.009zM88.808 57.143l-4.899-1.613-.646 4.93z"/><path d="M88.808 57.143l-1.09-6.396-3.809 4.783zM78.809 57.354l-2.083-4.23-3.013 2.834zM73.713 55.958l-1.23-5.088-2.588 3.54zM78.809 57.354l4.454 3.106.646-4.93zM58.473 100l2.975-6.414-6.095-.07z"/><path d="M58.473 100l-3.12-6.484-3.11 6.484z"/><path d="M49.174 93.484L52.243 100l3.11-6.484z"/><path d="M49.174 93.484L45.844 100h6.399zM67.557 83.472l-6.115-.156 3.069 4.852zM67.745 93.656l-3.234-5.488-3.063 5.418z"/><path d="M61.448 93.586L58.473 100h6.235zM73.825 83.104l-2.901 5.017 6.699-.404zM77.623 87.717l-6.699.404 3.337 5.421zM74.261 93.542l-3.337-5.421-3.179 5.535zM67.745 93.656L64.708 100h6.396z"/><path d="M67.745 93.656L71.104 100l3.157-6.458zM70.924 88.121l-6.413.047 3.234 5.488zM80.203 82.221l-6.378.883 3.798 4.613z"/><path d="M73.825 83.104l6.378-.883-4.099-4.176zM66.379 33.639l3.301-3.598-6.648-.51zM66.919 38.687l-4.663-3.259.143 4.804zM67.16 24.991l-5.911-1.002 1.783 5.542zM57.57 27.948l.851 4.806 4.611-3.223zM52.838 17.701l-2.561 4.486 5.302.699zM62.409 13.096l3.747-6.049-6.808-.253zM52.951 6.683l6.397.111L55.688 0zM65.007 19.121l-3.758 4.868 5.911 1.002zM76.548 14.277l-7.356-.654 2.451 6.328zM37.815 51.233l-3.762.873 3.613 3.106zM34.053 52.106l-1.158 4.067 4.771-.961z"/><path d="M35.114 59.617l-2.219-3.444-3.327 4.691zM44.427 52.511l-3.345-.257 1.191 3.801zM44.427 52.511l1.919 3.111 1.555-3.002z"/><path d="M46.346 55.622l-1.919-3.111-2.154 3.544zM54.558 47.633l-2.934 1.322 2.42 2.254zM25.308 37.962l4.911 1.229-1.569-3.348zM30.219 39.191l4.158-.005-1.777-3.224zM12.181 29.575l5.045 2.78.343-5.8zM25.308 37.962l1.856 3.653 3.055-2.424zM50.277 22.187l-2.596 4.388 4.723.339zM44.447 11.203l2.596 6.115 2.97-4.945z"/><path d="M52.838 17.701l3.245-5.015-6.07-.313zM12.552 17.683l-4.751-4.61-1.58 6.822zM17.788 20.803l3.99-3.124-5.518-4.276zM16 0l-2.719 7.464 6.672-1.199zM16.915 49.209l-.266-5.926-4.84 3.215zM21.867 40.69l-5.218 2.593 4.04 2.026z"/><path d="M16.649 43.283l-4.775-2.538-.065 5.753zM6.348 37.895l5.526 2.85.388-5.515zM27.164 41.615l4.847.537-1.792-2.961zM27.164 41.615l2.423 3.515 2.424-2.978zM19.478 67.114l-5.659 4.347 6.642 2.282zM22.274 80.172l-7.596-1.486 1.77 7.035z"/><path d="M22.274 80.172l-1.813-6.429-5.783 4.943zM20.461 73.743l-6.642-2.282.859 7.225zM8.232 100l1.856-7.964L0 90.521zM81.611 34.483l6.103 2.891-.666-7.183z"/><path d="M87.048 30.191l-6.441-2.485 1.004 6.777zM87.048 30.191l.666 7.183 5.755-4.164z"/><path d="M86.158 22.601l-5.551 5.105 6.441 2.485zM87.048 30.191l6.04-5.007-6.93-2.583zM77.5 43.315l-.914-5.16-4.958 3.376zM77.5 43.315l-5.872-1.784 1.709 4.605zM77.426 48.514l.074-5.199-4.163 2.821zM77.426 48.514l-4.943 2.356 4.243 2.254zM72.483 50.87l-4.668-.074 2.08 3.614z"/><path d="M82.478 40.734l-5.892-2.579.914 5.16zM81.611 34.483l.867 6.251 5.236-3.36zM73.984 25.839l1.683 6.181 4.94-4.314zM69.68 30.041l5.987 1.979-1.683-6.181zM57.196 49.966l-3.152 1.243 2.292 2.268zM62.449 75.216l2.627-3.479-3.627-1.108zM69.117 70.779l-4.041.958 2.417 3.567zM53.334 54.454l-.89 3.321 3.078-1.127z"/><path d="M50.021 55.327l2.423 2.448.89-3.321zM52.444 57.775l2.172 2.415.906-3.542zM58.589 55.758l2.203 2.339 1.258-3.139zM82.478 40.734L77.5 43.315l5.2 3.337zM77.426 48.514l-4.089-2.378-.854 4.734zM88.203 62.923l5.384 3.337.703-5.628zM74.742 60.27l4.067-2.916-5.096-1.396z"/><path d="M70.557 58.867l3.156-2.909-3.818-1.548zM55.353 93.516l-2.871-5.785-3.308 5.753zM64.511 88.168l-6.159-.3 3.096 5.718zM58.352 87.868l6.159.3-3.069-4.852zM42.521 93.501l3.541-5.561-6.558-.423z"/><path d="M49.174 93.484l-6.653.017L45.844 100zM82.024 76.84L77.575 73l-1.471 5.045zM67.557 83.472l3.367 4.649 2.901-5.017zM70.428 79.021l3.397 4.083 2.279-5.059zM67.557 83.472l-2.851-4.185-3.264 4.029z"/><path d="M70.924 88.121l-3.367-4.649-3.046 4.696z"/><path d="M70.428 79.021l-5.722.266 2.851 4.185zM70.428 79.021l-2.935-3.717-2.787 3.983zM70.428 79.021l5.676-.976-3.691-3.785z"/><path d="M70.428 79.021l-2.871 4.451 6.268-.368zM84.646 86.824l-7.023.893 3.353 5.544zM84.646 86.824l3.069 5.736 4.716-6.668zM80.203 82.221l4.443 4.603 2.352-5.772z"/><path d="M86.998 81.052l5.433 4.84 1.201-7.009zM49.752 70.188l.519-4.536-3.903 2.125zM54.034 72.158l-4.1 2.284 5.09 2.249z"/><path d="M49.934 74.442l-3.627 3.408 5.21 1.227zM55.024 76.691l3.33-2.981-4.32-1.552zM57.57 27.948l5.462 1.583-1.783-5.542zM62.256 35.428l.776-5.897-4.611 3.223z"/><path d="M62.256 35.428l4.123-1.789-3.347-4.108zM62.399 40.232l-.143-4.804-3.98 2.332zM66.156 7.047l-3.747 6.049 6.783.527zM71.643 19.951l-6.636-.83 2.153 5.87zM58.803 18.376l3.606-5.28-6.326-.41zM65.007 19.121l-6.204-.745 2.446 5.613zM42.975 48.858l-1.032-3.599-2.086 2.891zM51.624 48.955l-3.313-1.708.809 2.674zM45.233 46.305l3.078.942-.228-2.95zM51.165 42.291l.152 3.483 3.278-1.78zM50.907 38.519l-3.704-1.057.563 3.55zM32.011 42.152l2.366-2.966-4.158.005zM30.219 39.191l2.381-3.229-3.95-.119zM38.178 45.092l-2.316 3.004 3.995.054z"/><path d="M41.943 45.259l-3.765-.167 1.679 3.058zM38.178 45.092l1.373-2.881-3.449-.081zM39.551 42.211l-1.373 2.881 3.765.167z"/><path d="M42.379 42.267l-2.828-.056 2.392 3.048zM39.551 42.211l2.828.056-1.228-2.881zM25.305 33.063l-3.936 2.25 3.939 2.649z"/><path d="M21.766 29.659l-.397 5.654 3.936-2.25zM49.171 30.647l-1.49-4.072-2.829 3.841zM40.312 6.014L42.96 0h-6.468zM42.96 0l-2.648 6.014 6.518.096zM40.312 6.014L36.492 0l-2.901 5.94z"/><path d="M44.447 11.203l-4.135-5.189-2.46 5.048zM44.447 11.203l-6.595-.141 4.022 4.065zM16 0l3.953 6.265L23.297 0zM12.552 17.683l3.708-4.28-8.459-.33zM36.508 21.337l4.273 2.247.692-4.169zM36.508 21.337l4.965-1.922-4.966-3.032zM17.233 38.08l-4.971-2.85-.388 5.515zM16.649 43.283l.584-5.203-5.359 2.665zM17.233 38.08l-.584 5.203 5.218-2.593zM17.226 32.355l.007 5.725 4.136-2.767zM7.011 68.798L0 65.39v7.693zM18.627 54.761l-6.156-2.262.615 5.714zM8.232 100h8.219l-6.363-7.964zM63.467 51.367l-3.766 1.031 2.349 2.56zM64.84 47.573l-2.923-3.007-1.16 4.087zM63.742 64.206l1.595 3.677 1.825-3.4zM65.076 71.737l.261-3.854-3.888 2.746zM60.792 58.097l3.228-.144-1.97-2.995zM55.525 82.589l2.827 5.279 3.09-4.552zM55.525 82.589l-6.318.532 3.275 4.61zM52.482 87.731l-6.42.209 3.112 5.544z"/><path d="M55.525 82.589l-3.043 5.142 5.87.137zM52.482 87.731l-3.275-4.61-3.145 4.819zM55.525 82.589l-4.008-3.512-2.31 4.044zM82.024 76.84l5.932-1.935-5.233-3.589zM93.995 72.111l-.408-5.851-5.593 2.678zM93.995 72.111l-6.039 2.794 5.676 3.978zM87.956 74.905l-.958 6.147 6.634-2.169z"/><path d="M87.956 74.905l-5.932 1.935 4.974 4.212zM88.203 62.923l-.209 6.015 5.593-2.678zM78.656 62.663l-.34 5.139 4.776-2.005zM82.723 71.316l.369-5.519-4.776 2.005zM70.663 62.591l4.079-2.321-4.185-1.403z"/><path d="M70.663 62.591l-.106-3.724-3.958 2.147zM72.413 74.26l1.329-4.654-4.625 1.173zM77.575 73l-3.833-3.394-1.329 4.654zM77.575 73l-5.162 1.26 3.691 3.785zM73.742 69.606l4.574-1.804-4.039-2.864zM61.449 70.629l-3.095 3.081 4.095 1.506zM64.706 79.287l-2.257-4.071-3.185 3.553zM64.706 79.287l2.787-3.983-5.044-.088zM52.404 26.914l1.324 4.48 3.842-3.446zM61.249 23.989l-5.67-1.103 1.991 5.062zM57.196 49.966l-2.638-2.333-.514 3.576z"/><path d="M57.196 49.966l.752-3.863-3.39 1.53zM56.083 12.686l-3.245 5.015 5.965.675zM62.409 13.096l2.598 6.025 4.185-5.498zM56.083 12.686l6.326.41-3.061-6.302zM46.83 6.11l-2.383 5.093 5.566 1.17z"/><path d="M46.83 6.11l3.183 6.263 2.938-5.69zM24.363 53.468l5.191-1.157-2.633-3.425zM43.461 36.757l-3.539-.381 1.229 3.01z"/><path d="M39.922 36.376l3.539.381-1.314-3.317zM47.203 37.462l3.072-2.86-4.116-.646zM50.275 34.602l-1.104-3.955-3.012 3.309z"/><path d="M50.907 38.519l-.632-3.917-3.072 2.86zM38.005 39.257l1.546 2.954 1.6-2.825z"/><path d="M39.922 36.376l-1.917 2.881 3.146.129z"/><path d="M39.551 42.211l-1.546-2.954-1.903 2.873z"/><path d="M38.005 39.257l-3.628-.071 1.725 2.944zM29.587 45.13l4.484-.087-2.06-2.891zM32.011 42.152l2.06 2.891 2.031-2.913z"/><path d="M32.011 42.152l4.091-.022-1.725-2.944zM34.071 45.043l-2.356 3.42 4.147-.367zM38.178 45.092l-4.107-.049 1.791 3.053z"/><path d="M34.071 45.043l4.107.049-2.076-2.962zM45.233 46.305l.83 3.215 2.248-2.273zM45.005 43.414l.228 2.891 2.85-2.008z"/><path d="M45.233 46.305l-2.258 2.553 3.088.662z"/><path d="M42.975 48.858l2.258-2.553-3.29-1.046zM41.943 45.259l3.062-1.845-2.626-1.147z"/><path d="M41.943 45.259l3.29 1.046-.228-2.891zM38.239 33.12l1.683 3.256 2.225-2.936zM40.781 23.584l4.739-1.27-4.047-2.899zM47.681 26.575l-4.432.219 1.603 3.622zM36.059 29.732L33.976 25.6l-2.439 3.16z"/><path d="M47.043 17.318l-5.57 2.097 4.047 2.899zM44.447 11.203l-2.573 3.924 5.169 2.191z"/><path d="M47.043 17.318l-5.169-2.191-.401 4.288zM36.507 16.383l4.966 3.032.401-4.288zM22.177 11.688l-5.917 1.715 5.518 4.276zM19.953 6.265l-6.672 1.199 2.979 5.939zM27.084 14.023l4.982-2.408-5.037-4.728zM33.976 25.6l2.532-4.263-4.764.477zM17.788 20.803l-5.649 2.956 5.43 2.796zM33.591 5.94l4.261 5.122 2.46-5.048z"/><path d="M41.874 15.127l-4.022-4.065-1.345 5.321zM22.177 11.688l-.399 5.991 5.306-3.656zM7.011 68.798l-.117-7.002L0 65.39zM13.216 64.66l6.262 2.454-.829-6.208zM6.894 61.796l6.192-3.583-6.455-2.786z"/><path d="M7.011 68.798l6.205-4.138-6.322-2.864z"/><path d="M13.216 64.66l.603 6.801 5.659-4.347z"/><path d="M13.819 71.461l-.603-6.801-6.205 4.138zM13.819 71.461l-6.808-2.663.39 7.544zM0 81.414v9.107l7.918-6.139z"/><path d="M7.401 76.342L0 81.414l7.918 2.968zM64.84 47.573l4.405-.87-2.772-3.483zM71.628 41.531l-.188-5.554-4.521 2.71zM65.695 54.32l1.651 3.176 2.549-3.086zM65.695 54.32l-2.228-2.953-1.417 3.591z"/><path d="M67.815 50.796l-2.12 3.524 4.2.09z"/><path d="M63.467 51.367l2.228 2.953 2.12-3.524zM65.695 54.32l-1.675 3.633 3.326-.457z"/><path d="M64.02 57.953l1.675-3.633-3.645.638zM70.663 62.591l-4.064-1.577.563 3.469z"/><path d="M66.599 61.014l-2.857 3.192 3.42.277zM66.599 61.014l3.958-2.147-3.211-1.371zM64.02 57.953l2.579 3.061.747-3.518zM82.723 71.316l5.233 3.589.038-5.967zM82.024 76.84l.699-5.524L77.575 73z"/><path d="M82.723 71.316l5.271-2.378-4.902-3.141zM78.656 62.663l4.436 3.134.171-5.337zM78.316 67.802l.34-5.139-4.379 2.275zM74.277 64.938l-3.614-2.347-.634 4.292zM55.525 82.589l3.739-3.82-4.24-2.078zM59.264 78.769l2.178 4.547 3.264-4.029z"/><path d="M59.264 78.769l-3.739 3.82 5.917.727zM58.421 32.754l-.145 5.006 3.98-2.332zM54.558 47.633l.037-3.639-3.278 1.78zM51.165 42.291l3.43 1.703-.039-3.914z"/><path d="M54.595 43.994l3.69-1.882-3.729-2.032zM57.948 46.103l-3.353-2.109-.037 3.639zM44.534 39.981l-2.155 2.286 2.626 1.147z"/><path d="M42.379 42.267l2.155-2.286-3.383-.595z"/><path d="M44.534 39.981l-1.073-3.224-2.31 2.629zM52.404 26.914l5.166 1.034-1.991-5.062zM50.275 34.602l3.453-3.208-4.557-.747zM34.377 39.186l2-3.03-3.777-.194zM36.377 36.156l1.628 3.101 1.917-2.881z"/><path d="M38.005 39.257l-1.628-3.101-2 3.03z"/><path d="M38.239 33.12l-1.862 3.036 3.545.22zM17.226 32.355l4.54-2.696-4.197-3.104zM21.766 29.659l-4.54 2.696 4.143 2.958z"/><path d="M17.569 26.555l5.35-2.422-5.131-3.33z"/><path d="M17.788 20.803l-5.236-3.12-.413 6.076zM28.451 24.912l3.293-3.098-5.144-1.843zM32.066 11.615l5.786-.553-4.261-5.122z"/><path d="M32.066 11.615l1.525-5.675-6.562.947z"/><path d="M27.084 14.023l-.055-7.136-4.852 4.801zM32.066 11.615l4.441 4.768 1.345-5.321z"/><path d="M32.066 11.615l-.374 5.696 4.815-.928zM31.744 21.814l-.052-4.503-5.092 2.66z"/><path d="M32.066 11.615l-4.982 2.408 4.608 3.288zM21.778 17.679l4.822 2.292.484-5.948zM22.919 24.133l-1.141-6.454-3.99 3.124zM7.401 76.342L0 73.083v8.331zM7.918 84.382l6.76-5.696-7.277-2.344zM13.819 71.461l-6.418 4.881 7.277 2.344z"/><path d="M0 73.083l7.401 3.259-.39-7.544zM7.918 84.382l2.17 7.654 6.36-6.315zM10.088 92.036l-2.17-7.654L0 90.521zM0 100h8.232L0 90.521zM73.337 46.136l-4.092.567 3.238 4.167z"/><path d="M69.245 46.703l4.092-.567-1.709-4.605zM64.84 47.573l1.633-4.353-4.556 1.346zM66.473 43.22l2.772 3.483 2.383-5.172zM57.608 58.809l.981-3.051-3.067.89z"/><path d="M54.616 60.19l2.992-1.381-2.086-2.161zM57.608 58.809l3.184-.712-2.203-2.339zM57.608 58.809l2.311 1.953.873-2.665z"/><path d="M57.608 58.809l-.451 3.507 2.762-1.554z"/><path d="M57.157 62.316l.451-3.507-2.992 1.381zM66.599 61.014l-3.619.02.762 3.172zM59.919 60.762l3.061.272-2.188-2.937zM62.98 61.034l1.04-3.081-3.228.144zM62.98 61.034l3.619-.02-2.579-3.061z"/><path d="M60.344 63.744l2.636-2.71-3.061-.272z"/><path d="M62.98 61.034l-2.636 2.71 3.398.462zM54.034 72.158l3.54-2.652-3.846-1.548zM61.449 70.629l-3.875-1.123.78 4.204zM54.427 35.758l-3.52 2.761 3.649 1.561z"/><path d="M54.427 35.758l-4.152-1.156.632 3.917z"/><path d="M54.427 35.758l-.699-4.364-3.453 3.208zM58.421 32.754l-4.693-1.36.699 4.364zM21.766 29.659l4.708-1.016-3.555-4.51zM26.474 28.643l-4.708 1.016 3.539 3.404zM57.157 62.316l.253 3.566 2.934-2.138z"/><path d="M57.41 65.882l-.253-3.566-3.1 1.74zM57.157 62.316l3.187 1.428-.425-2.982zM41.472 68.591l-2.506-4.805-2.827 4.344zM34.071 63.717l4.895.069-3.852-4.169z"/><path d="M36.139 68.13l2.827-4.344-4.895-.069zM91.803 100l2.647-6.767-6.735-.673zM77.723 100l3.253-6.739-6.715.281zM6.221 19.895L0 16.203v7.513zM6.221 19.895L0 23.716l6.273 2.8zM38.642 72.687l-2.503-4.557-4.024 3.395zM38.642 72.687l-6.527-1.162 2.275 5.071zM23.542 58.472l-4.915-3.711.022 6.145z"/><path d="M23.542 58.472l.821-5.004-5.736 1.293zM87.987 44.242l-.273-6.868-5.236 3.36zM82.7 46.652l5.018 4.095.269-6.505zM87.987 44.242l-5.509-3.508.222 5.918zM100 59.016v-7.24l-6.142 2.348zM100 59.016l-6.142-4.892.432 6.508zM93.995 72.111l-6.001-3.173-.038 5.967zM93.587 66.26l.408 5.851 6.005-5.5zM46.307 77.85l-1.536-5.189-3.851 4.498zM46.307 77.85l3.627-3.408-5.163-1.781zM27.926 92.94l4.077 7.06 3.505-6.761zM58.803 18.376l6.204.745-2.598-6.025zM52.838 17.701l2.741 5.185 3.224-4.51zM67.16 24.991l-4.128 4.54 6.648.51z"/><path d="M67.16 24.991l2.52 5.05 4.304-4.202zM20.461 73.743l7.001 1.728-1.933-5.738zM22.274 80.172l5.188-4.701-7.001-1.728z"/><path d="M32.115 71.525l-6.586-1.792 1.933 5.738zM32.115 71.525l-4.653 3.946 6.928 1.125zM16.448 85.721l-6.36 6.315 9.406.536z"/><path d="M16.448 85.721l3.046 6.851 5.276-6.096zM42.273 56.055l-3.04 2.993 3.511 1.668z"/><path d="M42.273 56.055l.471 4.661 2.856-1.752zM39.233 59.048l-.267 4.738 3.778-3.07zM43.587 64.566l2.781 3.211.95-4.998z"/><path d="M43.587 64.566l3.731-1.787-4.574-2.063zM82.478 40.734l-.867-6.251-5.025 3.672zM82.7 46.652l-5.2-3.337-.074 5.199zM56.336 53.477l-.814 3.171 3.067-.89z"/><path d="M56.336 53.477l-3.002.977 2.188 2.194zM58.589 55.758l1.112-3.36-3.365 1.079zM47.318 62.779l-.95 4.998 3.903-2.125zM47.318 62.779l2.953 2.873.99-4.033zM35.508 93.239l3.59 6.761 3.423-6.499z"/><path d="M35.508 93.239L32.003 100h7.095zM56.083 12.686l3.265-5.892-6.397-.111zM59.348 6.794l6.808.253L62.26 0zM71.643 19.951l-2.451-6.328-4.185 5.498zM78.925 20.906l-2.377-6.629-4.905 5.674zM37.666 55.212l3.416-2.958-3.267-1.021zM37.666 55.212l4.607.843-1.191-3.801z"/><path d="M37.666 55.212l1.567 3.836 3.04-2.993zM35.862 48.096l1.953 3.137 2.042-3.083z"/><path d="M35.862 48.096l-1.809 4.01 3.762-.873zM35.114 59.617l2.552-4.405-4.771.961zM35.114 59.617l4.119-.569-1.567-3.836zM50.277 22.187l2.127 4.727 3.175-4.028zM55.579 22.886l5.67 1.103-2.446-5.613zM40.312 6.014l4.135 5.189L46.83 6.11zM42.96 0l3.87 6.11L49.371 0zM50.277 22.187l-3.234-4.869-1.523 4.996z"/><path d="M50.277 22.187l2.561-4.486-5.795-.383zM50.277 22.187l-4.757.127 2.161 4.261zM17.233 38.08l4.634 2.61-.498-5.377zM21.867 40.69l5.297.925-1.856-3.653zM12.471 52.499l4.444-3.29-5.106-2.711zM11.809 46.498l-5.805-3.141.333 5.964z"/><path d="M6.004 43.357l5.805 3.141.065-5.753zM6.004 43.357l.344-5.462L0 37.742z"/><path d="M6.004 43.357L0 37.742v6.87zM24.935 45.022l-2.931 4.788 4.917-.924zM24.935 45.022l1.986 3.864 2.666-3.756z"/><path d="M27.164 41.615l-5.297-.925 3.068 4.332zM27.164 41.615l-2.229 3.407 4.652.108zM0 51.392v6.859l6.631-2.824z"/><path d="M0 51.392l6.631 4.035-.294-6.106zM93.469 33.21l-.381-8.026-6.04 5.007z"/><path d="M93.469 33.21L100 28.733l-6.912-3.549zM75.667 32.02l5.944 2.463-1.004-6.777zM75.667 32.02l.919 6.135 5.025-3.672zM76.586 38.155l-5.146-2.178.188 5.554z"/><path d="M75.667 32.02l-4.227 3.957 5.146 2.178zM59.701 52.398l1.056-3.745-3.561 1.313z"/><path d="M59.701 52.398l-2.505-2.432-.86 3.511zM49.081 58.785l.94-3.458-3.675.295zM49.081 58.785l3.363-1.01-2.423-2.448zM46.346 55.622l3.675-.295-2.12-2.707zM52.444 57.775l-1.183 3.844 3.355-1.429z"/><path d="M52.444 57.775l-3.363 1.01 2.18 2.834zM81.531 51.791l1.169-5.139-5.274 1.862z"/><path d="M81.531 51.791l-4.105-3.277-.7 4.61zM81.531 51.791l-4.805 1.333 2.083 4.23zM88.808 57.143l-5.545 3.317 4.94 2.463z"/><path d="M78.809 57.354l5.1-1.824-2.378-3.739zM83.263 60.46l-.171 5.337 5.111-2.874zM88.203 62.923l-5.111 2.874 4.902 3.141zM94.29 60.632l-5.482-3.489-.605 5.78zM70.557 58.867l-.662-4.457-2.549 3.086zM70.557 58.867l4.185 1.403-1.029-4.312zM46.062 87.94l3.145-4.819-5.968-.618zM42.521 93.501l6.653-.017-3.112-5.544zM80.203 82.221l1.821-5.381-5.92 1.205zM80.203 82.221l6.795-1.169-4.974-4.212zM84.646 86.824l-4.443-4.603-2.58 5.496zM77.623 87.717l-3.362 5.825 6.715-.281zM41.082 52.254l1.893-3.396-3.118-.708z"/><path d="M41.082 52.254l-1.225-4.104-2.042 3.083zM42.975 48.858l-1.893 3.396 3.345.257z"/><path d="M42.975 48.858l1.452 3.653 1.636-2.991zM48.311 47.247l3.006-1.473-3.234-1.477zM48.311 47.247l3.313 1.708-.307-3.181zM51.624 48.955l2.934-1.322-3.241-1.859zM46.063 49.52l1.838 3.1 1.219-2.699z"/><path d="M46.063 49.52l3.057.401-.809-2.674zM46.063 49.52l-1.636 2.991 3.474.109zM47.766 41.012l.317 3.285 3.082-2.006zM48.083 44.297l3.234 1.477-.152-3.483zM40.781 23.584l-2.584 2.807 5.052.403z"/><path d="M40.781 23.584l-4.273-2.247 1.689 5.054zM17.226 32.355l-5.045-2.78.081 5.655zM17.226 32.355l-4.964 2.875 4.971 2.85zM19.478 67.114l5.159-3.421-5.988-2.787zM13.216 64.66l5.433-3.754-5.563-2.693zM0 58.251l6.894 3.545-.263-6.369z"/><path d="M0 58.251v7.139l6.894-3.594zM6.894 61.796l6.322 2.864-.13-6.447zM60.757 48.653l2.71 2.714 1.373-3.794z"/><path d="M60.757 48.653l-1.056 3.745 3.766-1.031zM40.92 77.159l-6.53-.563 2.499 5.234zM40.92 77.159l-4.031 4.671 6.35.673z"/><path d="M39.504 87.517l3.735-5.014-6.35-.673zM49.207 83.121l2.31-4.044-5.21-1.227z"/><path d="M49.207 83.121l-2.9-5.271-3.068 4.653zM58.352 87.868l-2.999 5.648 6.095.07z"/><path d="M55.353 93.516l2.999-5.648-5.87-.137zM72.413 74.26l-3.296-3.481-1.624 4.525z"/><path d="M72.413 74.26l-4.92 1.044 2.935 3.717zM49.752 70.188l3.976-2.23-3.457-2.306z"/><path d="M50.271 65.652l3.457 2.306.329-3.902zM54.034 72.158l4.32 1.552-.78-4.204zM54.034 72.158l-4.282-1.97.182 4.254zM61.449 70.629l-.227-3.553-3.648 2.43zM62.449 75.216l5.044.088-2.417-3.567zM57.948 46.103l2.809 2.55 1.16-4.087z"/><path d="M57.948 46.103l-.752 3.863 3.561-1.313zM61.917 44.566l.482-4.334-4.114 1.88zM31.715 48.463l-2.128-3.333-2.666 3.756z"/><path d="M29.587 45.13l2.128 3.333 2.356-3.42zM31.715 48.463l-4.794.423 2.633 3.425zM29.554 52.311l3.341 3.862 1.158-4.067z"/><path d="M28.247 56.596l1.321 4.268 3.327-4.691z"/><path d="M29.554 52.311l-1.307 4.285 4.648-.423zM31.715 48.463l2.338 3.643 1.809-4.01z"/><path d="M31.715 48.463l-2.161 3.848 4.499-.205zM46.159 33.956l-2.698 2.801 3.742.705zM44.852 30.416l-2.705 3.024 4.012.516z"/><path d="M46.159 33.956l-4.012-.516 1.314 3.317zM25.305 33.063l.003 4.899 3.342-2.119z"/><path d="M25.305 33.063l3.345 2.78 1.244-3.645zM36.059 29.732l-4.522-.972 2.563 3.984z"/><path d="M29.894 32.198l4.206.546-2.563-3.984zM29.894 32.198l-1.244 3.645 3.95.119zM44.852 30.416l1.307 3.54 3.012-3.309zM43.249 26.794l-2.773 3.147 4.376.475zM44.852 30.416l-4.376-.475 1.671 3.499zM36.059 29.732L34.1 32.744l4.139.376z"/><path d="M38.239 33.12l2.237-3.179-4.417-.209zM38.239 33.12l3.908.32-1.671-3.499z"/><path d="M43.249 26.794l-5.052-.403 2.279 3.55z"/><path d="M40.476 29.941l-2.279-3.55-2.138 3.341zM45.52 22.314l-2.271 4.48 4.432-.219z"/><path d="M45.52 22.314l-4.739 1.27 2.468 3.21zM27.029 6.887L23.297 0l-3.344 6.265zM22.177 11.688l4.852-4.801-7.076-.622z"/><path d="M19.953 6.265l-3.693 7.138 5.917-1.715zM13.281 7.464l-5.48 5.609 8.459.33zM33.976 25.6l4.221.791-1.689-5.054z"/><path d="M33.976 25.6l2.083 4.132 2.138-3.341zM29.821 0l-2.792 6.887 6.562-.947zM27.029 6.887L29.821 0h-6.524z"/><path d="M29.821 0l3.77 5.94L36.492 0zM36.508 21.337l-.001-4.954-4.815.928zM31.692 17.311l-4.608-3.288-.484 5.948zM36.508 21.337l-4.816-4.026.052 4.503zM62.399 40.232l4.074 2.988.446-4.533z"/><path d="M62.399 40.232l-.482 4.334 4.556-1.346zM54.057 64.056l.559-3.866-3.355 1.429zM54.057 64.056l3.1-1.74-2.541-2.126zM61.222 67.076l4.115.807-1.595-3.677zM61.222 67.076l.227 3.553 3.888-2.746zM63.742 64.206l-3.398-.462.878 3.332zM77.575 73l.741-5.198-4.574 1.804zM77.575 73l5.148-1.684-4.407-3.514zM74.742 60.27l3.914 2.393.153-5.309z"/><path d="M78.656 62.663l4.607-2.203-4.454-3.106zM70.029 66.883l.634-4.292-3.501 1.892z"/><path d="M70.029 66.883l-2.867-2.4-1.825 3.4zM69.117 70.779l.912-3.896-4.692 1zM69.117 70.779l-3.78-2.896-.261 3.854z"/><path d="M70.029 66.883l-.912 3.896 4.625-1.173z"/><path d="M70.029 66.883l3.713 2.723.535-4.668zM74.277 64.938l4.379-2.275-3.914-2.393z"/><path d="M74.277 64.938l.465-4.668-4.079 2.321zM55.525 82.589l-.501-5.898-3.507 2.386zM49.934 74.442l1.583 4.635 3.507-2.386zM59.264 78.769l3.185-3.553-4.095-1.506z"/><path d="M59.264 78.769l-.91-5.059-3.33 2.981zM50.907 38.519l.258 3.772 3.391-2.211z"/><path d="M54.427 35.758l.129 4.322 3.72-2.32zM51.165 42.291l-.258-3.772-3.141 2.493zM62.399 40.232l-4.123-2.472.009 4.352z"/><path d="M58.276 37.76l-3.72 2.32 3.729 2.032zM57.948 46.103l.337-3.991-3.69 1.882zM61.917 44.566l-3.632-2.454-.337 3.991zM47.766 41.012l-2.761 2.402 3.078.883z"/><path d="M45.005 43.414l2.761-2.402-3.232-1.031z"/><path d="M47.203 37.462l-3.742-.705 1.073 3.224z"/><path d="M47.203 37.462l-2.669 2.519 3.232 1.031zM49.171 30.647l4.557.747-1.324-4.48zM49.171 30.647l3.233-3.733-4.723-.339zM29.894 32.198l2.706 3.764 1.5-3.218zM34.1 32.744l-1.5 3.218 3.777.194zM34.1 32.744l2.277 3.412 1.862-3.036zM28.451 24.912l5.525.688-2.232-3.786zM28.451 24.912l3.086 3.848 2.439-3.16zM21.778 17.679l1.141 6.454 3.681-4.162zM17.788 20.803l-1.528-7.4-3.708 4.28zM67.815 50.796l1.43-4.093-4.405.87zM69.245 46.703l-1.43 4.093 4.668.074z"/><path d="M67.815 50.796l-2.975-3.223-1.373 3.794zM58.421 32.754l-.851-4.806-3.842 3.446zM58.421 32.754l-3.994 3.004 3.849 2.002zM22.919 24.133l5.532.779-1.851-4.941zM22.919 24.133l3.555 4.51 1.977-3.731zM26.474 28.643l5.063.117-3.086-3.848zM26.474 28.643l3.42 3.555 1.643-3.438z"/><path d="M26.474 28.643l-1.169 4.42 4.589-.865zM53.728 67.958l3.682-2.076-3.353-1.826z"/><path d="M57.574 69.506l-.164-3.624-3.682 2.076z"/><path d="M57.41 65.882l.164 3.624 3.648-2.43z"/><path d="M57.41 65.882l3.812 1.194-.878-3.332z"/></svg>