<svg xmlns="http://www.w3.org/2000/svg" viewBox="0 0 100 100"><style>path{fill:#c8c5bd;stroke:navy;stroke-width:.5;stroke-linejoin:bevel}</style><path d="M100 0h-8.09l-1.258 8.32zM6.252 6.304 0 0v8.847z"/><path d="M6.252 6.304 8.673 0H0zm1.549 6.769L6.252 6.304 0 8.847zm5.48-5.609L8.673 0 6.252 6.304zM77.723 100h6.913l-3.66-6.739zM76.432 0l-2.89 7.364 8.129.426zm-7.281 0H62.26l3.896 7.047zM91.91 0h-7.828l6.57 8.32zM100 0l-9.348 8.32L100 10.197z"/><path d="M81.671 7.79 84.082 0h-7.65zm10.866 8.85L100 10.197 90.652 8.32zM100 90.159l-5.55 3.074L100 100z"/><path d="m100 100-5.55-6.767L91.803 100zM7.801 13.073 0 8.847v7.356zm8.647 72.648 8.322.755-2.496-6.304zm8.189-22.028 4.931-2.829-6.026-2.392zM10.088 92.036 16.451 100l3.043-7.428zM16.451 100h8.007l-4.964-7.428zm52.7-100-2.995 7.047 7.386.317zm23.386 16.64L100 19.895v-9.698zm.932 16.57L100 36.888v-8.155zm.163 45.673L100 82.298V74.41zm.818 14.35-2.019-7.341-4.716 6.668zM93.632 78.883 100 74.41l-6.005-2.299z"/><path d="m100 66.611-6.005 5.5L100 74.41zm-6.368 12.272-1.201 7.009L100 82.298zm-54.128 8.634-3.996 5.722 7.013.262zm-9.936-26.653-1.321-4.268-4.705 1.876zm0 0 4.503 2.853 1.043-4.1zm0 0-4.931 2.829 5.364 2.738zM6.337 49.321l-.333-5.964L0 44.612zM24.363 53.468l3.884 3.128 1.307-4.285z"/><path d="m28.247 56.596-3.884-3.128-.821 5.004zm-6.243-6.786-5.089-.601 1.712 5.552zm2.766 36.666-5.276 6.096 8.432.368zm-2.496-6.304 7.525 1.01-2.337-5.711zm7.525 1.01-7.525-1.01 2.496 6.304zm11.673-12.591 4.896-.814-2.781-3.211zm-2.83 4.096 6.129-.026-3.299-4.07zm-9.074-11.823.433 5.567 4.07-2.714zM76.432 0h-7.281l4.391 7.364zm8.086 15.094 1.64 7.507 6.379-5.961zm1.64 7.507-7.233-1.695 1.682 6.8z"/><path d="m86.158 22.601-1.64-7.507-5.593 5.812zm-1.64-7.507 8.019 1.546-1.885-8.32zM81.671 7.79l8.981.53L84.082 0z"/><path d="m90.652 8.32-8.981-.53 2.847 7.304zm2.817 24.89.213 7.524L100 36.888zm-19.485-7.371 6.623 1.867-1.682-6.8zm13.734 24.908 5.886-3.009-5.617-3.496zm6.14 3.377-6.14-3.377 1.09 6.396zm-.254-6.386.254 6.386L100 51.776zm.078-7.004L100 44.533v-7.645z"/><path d="m93.604 47.738.078-7.004-5.695 3.508zM100 44.533l-6.396 3.205L100 51.776z"/><path d="m100 44.533-6.318-3.799-.078 7.004zm-46.666 9.921.71-3.245-2.826 1.026zM100 66.611v-7.595l-5.71 1.616zM84.646 86.824l-3.67 6.437 6.739-.701zM44.771 72.661l5.163 1.781-.182-4.254zm-3.851 4.498 3.851-4.498-6.129.026zm33.341 16.383L71.104 100h6.619zm-34.757-6.025 6.558.423-2.823-5.437zm3.017 5.984L39.098 100h6.746zM49.371 0l3.58 6.683L55.688 0z"/><path d="M59.348 6.794 62.26 0h-6.572zm-8.13 45.441.406-3.28-2.504.966zm.406-3.28-.406 3.28 2.826-1.026zM0 30.824l6.273-4.308L0 23.716z"/><path d="m0 30.824 6.279 1.695-.006-6.003z"/><path d="m0 37.742 6.279-5.223L0 30.824zm6.004 5.615 5.87-2.612-5.526-2.85zM0 37.742l6.348.153-.069-5.376z"/><path d="m6.279 32.519.069 5.376 5.914-2.665zm-.058-12.624 1.58-6.822L0 16.203zM49.371 0 46.83 6.11l6.121.573zm-36.09 7.464L16 0H8.673zm0 0-7.029-1.16 1.549 6.769zm8.586 33.226 3.441-2.728-3.939-2.649zm2.496 12.778-2.359-3.658-3.377 4.951zm-2.359-3.658-1.315-4.501-3.774 3.9zm0 0 2.359 3.658 2.558-4.582zm7.795 31.372 2.696 5.831 4.394-5.183zm4.591-4.586-6.928-1.125 2.337 5.711zm4.252-3.909-4.252 3.909 6.53.563zm-4.252 3.909-4.591 4.586 7.09.648zm7.082-8.005 2.115-4.025-4.621-.78zm-5.333-.461 2.503 4.557 2.83-4.096zm-6.138-1.699 6.138 1.699-2.068-4.413z"/><path d="m36.139 68.13-6.138-1.699 2.114 5.094zm9.461-9.166 1.718 3.815 1.763-3.994zm-26.951 1.942 5.988 2.787-1.095-5.221zm-.022-6.145-1.712-5.552-4.444 3.29zm0 0-5.541 3.452 5.563 2.693zM13.086 58.213l-.615-5.714-5.84 2.928z"/><path d="m6.631 55.427 5.84-2.928-6.134-3.178zm5.178-8.929-5.472 2.823 6.134 3.178zM0 51.392l6.337-2.071L0 44.612zM81.671 7.79l-5.123 6.487 7.97.817zm-5.123 6.487 5.123-6.487-8.129-.426zm-7.356-.654 7.356.654-3.006-6.913zM69.192 13.623l4.35-6.259-7.386-.317zm18.522 23.751 5.968 3.36-.213-7.524zm5.968 3.36-5.968-3.36.273 6.868zm-40.348 13.72 3.002-.977-2.292-2.268zM100 66.611l-5.71-5.979-.703 5.628zM87.718 50.747 82.7 46.652l-1.169 5.139z"/><path d="m87.718 50.747-6.187 1.044 2.378 3.739zm-26.27 42.839 3.26 6.414 3.037-6.344zm25.55-12.534-2.352 5.772 7.785-.932zm5.433 4.84L100 90.159v-7.861zm2.019 7.341 5.55-3.074-7.569-4.267zM91.803 100l-4.088-7.44-3.079 7.44zm-4.088-7.44-6.739.701 3.66 6.739zM46.307 77.85l-5.387-.691 2.319 5.344zm-13.812 9.163 3.013 6.226 3.996-5.722z"/><path d="m32.495 87.013 7.009.504-2.615-5.687zm0 0-4.569 5.927 7.582.299zm0 0-7.725-.537 3.156 6.464z"/><path d="m32.495 87.013-2.696-5.831-5.029 5.294zM24.458 100l3.468-7.06-8.432-.368zm3.468-7.06L24.458 100h7.545zm24.912-75.239-2.825-5.328-2.97 4.945zm18.805 2.25 2.341 5.888 4.941-4.933z"/><path d="m67.16 24.991 6.824.848-2.341-5.888zm11.765-4.085 5.593-5.812-7.97-.817zM39.233 59.048l-4.119.569 3.852 4.169zm7.113-3.426-.746 3.342 3.481-.179z"/><path d="m45.6 58.964.746-3.342-4.073.433zM12.139 23.759l.042 5.816 5.388-3.02zm.042 5.816-5.902 2.944 5.983 2.711z"/><path d="m12.181 29.575-5.908-3.059.006 6.003zm-5.96-9.68 5.918 3.864.413-6.076z"/><path d="m6.221 19.895.052 6.621 5.866-2.757zm11.348 6.66 4.197 3.104 1.153-5.526zm-5.388 3.02-.042-5.816-5.866 2.757zm37.832-17.202 6.07.313-3.132-6.003zM16.915 49.209l3.774-3.9-4.04-2.026zm5.089.601 2.931-4.788-4.246.287zm2.931-4.788-3.068-4.332-1.178 4.619zm-.298 18.671-5.159 3.421 6.051 2.619z"/><path d="m30.001 66.431-4.472 3.302 6.586 1.792z"/><path d="m24.637 63.693.892 6.04 4.472-3.302zm.892 6.04-6.051-2.619.983 6.629zM7.918 84.382l8.53 1.339-1.77-7.035zm41.834-14.194 4.282 1.97-.306-4.2zm-8.28-1.597 3.299 4.07 1.597-4.884zm4.896-.814-1.597 4.884 4.981-2.473zm-3.624-7.061 4.574 2.063-1.718-3.815zm.843 3.85-.843-3.85-3.778 3.07zm49.501-39.382-.551-8.544-6.379 5.961zM100 19.895l-6.912 5.289L100 28.733z"/><path d="m100 19.895-7.463-3.255.551 8.544zM73.713 55.958l3.013-2.834-4.243-2.254zm-14.012-3.56-1.112 3.36 3.461-.8zm11.927-10.867-4.709-2.844-.446 4.533zm-.188-5.554-1.76-5.936-3.301 3.598zm0 0-5.061-2.338.54 5.048zm0 0 4.227-3.957-5.987-1.979zM66.919 38.687l-.54-5.048-4.123 1.789zM51.218 52.235l-3.317.385 2.12 2.707z"/><path d="m51.218 52.235-2.098-2.314-1.219 2.699zm-1.197 3.092 3.313-.873-2.116-2.219zm-2.703 7.452 3.943-1.16-2.18-2.834zm6.739 1.277-2.796-2.437-.99 4.033zm34.751-6.913 5.482 3.489-.432-6.508z"/><path d="m93.858 54.124-.254-6.386-5.886 3.009zm-5.05 3.019-4.899-1.613-.646 4.93z"/><path d="m88.808 57.143-1.09-6.396-3.809 4.783zm-9.999.211-2.083-4.23-3.013 2.834zm-5.096-1.396-1.23-5.088-2.588 3.54zm5.096 1.396 4.454 3.106.646-4.93zM58.473 100l2.975-6.414-6.095-.07z"/><path d="m58.473 100-3.12-6.484-3.11 6.484z"/><path d="M49.174 93.484 52.243 100l3.11-6.484z"/><path d="M49.174 93.484 45.844 100h6.399zm18.383-10.012-6.115-.156 3.069 4.852zm.188 10.184-3.234-5.488-3.063 5.418zM61.448 93.586 58.473 100h6.235zm12.377-10.482-2.901 5.017 6.699-.404zm3.798 4.613-6.699.404 3.337 5.421zm-3.362 5.825-3.337-5.421-3.179 5.535zm-6.516.114L64.708 100h6.396z"/><path d="M67.745 93.656 71.104 100l3.157-6.458zm3.179-5.535-6.413.047 3.234 5.488zm9.279-5.9-6.378.883 3.798 4.613z"/><path d="m73.825 83.104 6.378-.883-4.099-4.176zm-7.446-49.465 3.301-3.598-6.648-.51zm.54 5.048-4.663-3.259.143 4.804zm.241-13.696-5.911-1.002 1.783 5.542zm-9.59 2.957.851 4.806 4.611-3.223zm-4.732-10.247-2.561 4.486 5.302.699zm9.571-4.605 3.747-6.049-6.808-.253zm-9.458-6.413 6.397.111L55.688 0zm12.056 12.438-3.758 4.868 5.911 1.002zm11.541-4.844-7.356-.654 2.451 6.328zM37.815 51.233l-3.762.873 3.613 3.106zm-3.762.873-1.158 4.067 4.771-.961zM35.114 59.617l-2.219-3.444-3.327 4.691zm9.313-7.106-3.345-.257 1.191 3.801zm0 0 1.919 3.111 1.555-3.002z"/><path d="m46.346 55.622-1.919-3.111-2.154 3.544zm8.212-7.989-2.934 1.322 2.42 2.254zm-29.25-9.671 4.911 1.229-1.569-3.348zm4.911 1.229 4.158-.005-1.777-3.224zm-18.038-9.616 5.045 2.78.343-5.8zm13.127 8.387 1.856 3.653 3.055-2.424zm24.969-15.775-2.596 4.388 4.723.339zm-5.83-10.984 2.596 6.115 2.97-4.945zM52.838 17.701l3.245-5.015-6.07-.313zm-40.286-.018-4.751-4.61-1.58 6.822zm5.236 3.12 3.99-3.124-5.518-4.276zM16 0l-2.719 7.464 6.672-1.199zm.915 49.209-.266-5.926-4.84 3.215zm4.952-8.519-5.218 2.593 4.04 2.026z"/><path d="m16.649 43.283-4.775-2.538-.065 5.753zM6.348 37.895l5.526 2.85.388-5.515zm20.816 3.72 4.847.537-1.792-2.961zm0 0 2.423 3.515 2.424-2.978zm-7.686 25.499-5.659 4.347 6.642 2.282zm2.796 13.058-7.596-1.486 1.77 7.035z"/><path d="m22.274 80.172-1.813-6.429-5.783 4.943zm-1.813-6.429-6.642-2.282.859 7.225zM8.232 100l1.856-7.964L0 90.521zm73.379-65.517 6.103 2.891-.666-7.183zM87.048 30.191l-6.441-2.485 1.004 6.777zm0 0 .666 7.183 5.755-4.164z"/><path d="m86.158 22.601-5.551 5.105 6.441 2.485zm.89 7.59 6.04-5.007-6.93-2.583zM77.5 43.315l-.914-5.16-4.958 3.376zm0 0-5.872-1.784 1.709 4.605zm-.074 5.199.074-5.199-4.163 2.821zm0 0-4.943 2.356 4.243 2.254zm-4.943 2.356-4.668-.074 2.08 3.614z"/><path d="m82.478 40.734-5.892-2.579.914 5.16zm-.867-6.251.867 6.251 5.236-3.36zm-7.627-8.644 1.683 6.181 4.94-4.314zm-4.304 4.202 5.987 1.979-1.683-6.181zM57.196 49.966l-3.152 1.243 2.292 2.268zm5.253 25.25 2.627-3.479-3.627-1.108zm6.668-4.437-4.041.958 2.417 3.567zM53.334 54.454l-.89 3.321 3.078-1.127z"/><path d="m50.021 55.327 2.423 2.448.89-3.321zm2.423 2.448 2.172 2.415.906-3.542zm6.145-2.017 2.203 2.339 1.258-3.139zm23.889-15.024L77.5 43.315l5.2 3.337zm-5.052 7.78-4.089-2.378-.854 4.734zm10.777 14.409 5.384 3.337.703-5.628zM74.742 60.27l4.067-2.916-5.096-1.396z"/><path d="m70.557 58.867 3.156-2.909-3.818-1.548zM55.353 93.516l-2.871-5.785-3.308 5.753zm9.158-5.348-6.159-.3 3.096 5.718zm-6.159-.3 6.159.3-3.069-4.852zm-15.831 5.633 3.541-5.561-6.558-.423z"/><path d="m49.174 93.484-6.653.017L45.844 100zm32.85-16.644L77.575 73l-1.471 5.045zm-14.467 6.632 3.367 4.649 2.901-5.017zm2.871-4.451 3.397 4.083 2.279-5.059zm-2.871 4.451-2.851-4.185-3.264 4.029z"/><path d="m70.924 88.121-3.367-4.649-3.046 4.696z"/><path d="m70.428 79.021-5.722.266 2.851 4.185zm0 0-2.935-3.717-2.787 3.983zm0 0 5.676-.976-3.691-3.785z"/><path d="m70.428 79.021-2.871 4.451 6.268-.368zm14.218 7.803-7.023.893 3.353 5.544zm0 0 3.069 5.736 4.716-6.668zm-4.443-4.603 4.443 4.603 2.352-5.772z"/><path d="m86.998 81.052 5.433 4.84 1.201-7.009zM49.752 70.188l.519-4.536-3.903 2.125zm4.282 1.97-4.1 2.284 5.09 2.249z"/><path d="m49.934 74.442-3.627 3.408 5.21 1.227zm5.09 2.249 3.33-2.981-4.32-1.552zm2.546-48.743 5.462 1.583-1.783-5.542zm4.686 7.48.776-5.897-4.611 3.223z"/><path d="m62.256 35.428 4.123-1.789-3.347-4.108zm.143 4.804-.143-4.804-3.98 2.332zm3.757-33.185-3.747 6.049 6.783.527zm5.487 12.904-6.636-.83 2.153 5.87zm-12.84-1.575 3.606-5.28-6.326-.41zm6.204.745-6.204-.745 2.446 5.613zM42.975 48.858l-1.032-3.599-2.086 2.891zm8.649.097-3.313-1.708.809 2.674zm-6.391-2.65 3.078.942-.228-2.95zm5.932-4.014.152 3.483 3.278-1.78zm-.258-3.772-3.704-1.057.563 3.55zm-18.896 3.633 2.366-2.966-4.158.005zm-1.792-2.961 2.381-3.229-3.95-.119zm7.959 5.901-2.316 3.004 3.995.054z"/><path d="m41.943 45.259-3.765-.167 1.679 3.058zm-3.765-.167 1.373-2.881-3.449-.081zm1.373-2.881-1.373 2.881 3.765.167z"/><path d="m42.379 42.267-2.828-.056 2.392 3.048zm-2.828-.056 2.828.056-1.228-2.881zm-14.246-9.148-3.936 2.25 3.939 2.649z"/><path d="m21.766 29.659-.397 5.654 3.936-2.25zm27.405.988-1.49-4.072-2.829 3.841zM40.312 6.014 42.96 0h-6.468zM42.96 0l-2.648 6.014 6.518.096zm-2.648 6.014L36.492 0l-2.901 5.94z"/><path d="m44.447 11.203-4.135-5.189-2.46 5.048zm0 0-6.595-.141 4.022 4.065zM16 0l3.953 6.265L23.297 0zm-3.448 17.683 3.708-4.28-8.459-.33zm23.956 3.654 4.273 2.247.692-4.169zm0 0 4.965-1.922-4.966-3.032zM17.233 38.08l-4.971-2.85-.388 5.515zm-.584 5.203.584-5.203-5.359 2.665zm.584-5.203-.584 5.203 5.218-2.593zm-.007-5.725.007 5.725 4.136-2.767zM7.011 68.798 0 65.39v7.693zm11.616-14.037-6.156-2.262.615 5.714zM8.232 100h8.219l-6.363-7.964zm55.235-48.633-3.766 1.031 2.349 2.56zm1.373-3.794-2.923-3.007-1.16 4.087zm-1.098 16.633 1.595 3.677 1.825-3.4zm1.334 7.531.261-3.854-3.888 2.746zm-4.284-13.64 3.228-.144-1.97-2.995zm-5.267 24.492 2.827 5.279 3.09-4.552zm0 0-6.318.532 3.275 4.61zm-3.043 5.142-6.42.209 3.112 5.544z"/><path d="m55.525 82.589-3.043 5.142 5.87.137zm-3.043 5.142-3.275-4.61-3.145 4.819zm3.043-5.142-4.008-3.512-2.31 4.044zm26.499-5.749 5.932-1.935-5.233-3.589zm11.971-4.729-.408-5.851-5.593 2.678zm0 0-6.039 2.794 5.676 3.978zm-6.039 2.794-.958 6.147 6.634-2.169z"/><path d="m87.956 74.905-5.932 1.935 4.974 4.212zm.247-11.982-.209 6.015 5.593-2.678zm-9.547-.26-.34 5.139 4.776-2.005zm4.067 8.653.369-5.519-4.776 2.005zm-12.06-8.725 4.079-2.321-4.185-1.403zM70.663 62.591l-.106-3.724-3.958 2.147zm1.75 11.669 1.329-4.654-4.625 1.173zM77.575 73l-3.833-3.394-1.329 4.654zm0 0-5.162 1.26 3.691 3.785zm-3.833-3.394 4.574-1.804-4.039-2.864zm-12.293 1.023-3.095 3.081 4.095 1.506zm3.257 8.658-2.257-4.071-3.185 3.553zm0 0 2.787-3.983-5.044-.088zM52.404 26.914l1.324 4.48 3.842-3.446zm8.845-2.925-5.67-1.103 1.991 5.062zm-4.053 25.977-2.638-2.333-.514 3.576z"/><path d="m57.196 49.966.752-3.863-3.39 1.53zm-1.113-37.28-3.245 5.015 5.965.675zm6.326.41 2.598 6.025 4.185-5.498zm-6.326-.41 6.326.41-3.061-6.302zM46.83 6.11l-2.383 5.093 5.566 1.17z"/><path d="m46.83 6.11 3.183 6.263 2.938-5.69zM24.363 53.468l5.191-1.157-2.633-3.425zm19.098-16.711-3.539-.381 1.229 3.01zM39.922 36.376l3.539.381-1.314-3.317zm7.281 1.086 3.072-2.86-4.116-.646zm3.072-2.86-1.104-3.955-3.012 3.309z"/><path d="m50.907 38.519-.632-3.917-3.072 2.86zm-12.902.738 1.546 2.954 1.6-2.825z"/><path d="m39.922 36.376-1.917 2.881 3.146.129z"/><path d="m39.551 42.211-1.546-2.954-1.903 2.873z"/><path d="m38.005 39.257-3.628-.071 1.725 2.944zm-8.418 5.873 4.484-.087-2.06-2.891zm2.424-2.978 2.06 2.891 2.031-2.913z"/><path d="m32.011 42.152 4.091-.022-1.725-2.944zm2.06 2.891-2.356 3.42 4.147-.367zm4.107.049-4.107-.049 1.791 3.053z"/><path d="m34.071 45.043 4.107.049-2.076-2.962zm11.162 1.262.83 3.215 2.248-2.273zm-.228-2.891.228 2.891 2.85-2.008z"/><path d="m45.233 46.305-2.258 2.553 3.088.662z"/><path d="m42.975 48.858 2.258-2.553-3.29-1.046zm-1.032-3.599 3.062-1.845-2.626-1.147z"/><path d="m41.943 45.259 3.29 1.046-.228-2.891zM38.239 33.12l1.683 3.256 2.225-2.936zm2.542-9.536 4.739-1.27-4.047-2.899zm6.9 2.991-4.432.219 1.603 3.622zm-11.622 3.157L33.976 25.6l-2.439 3.16z"/><path d="m47.043 17.318-5.57 2.097 4.047 2.899zm-2.596-6.115-2.573 3.924 5.169 2.191z"/><path d="m47.043 17.318-5.169-2.191-.401 4.288zm-10.536-.935 4.966 3.032.401-4.288zm-14.33-4.695-5.917 1.715 5.518 4.276zm-2.224-5.423-6.672 1.199 2.979 5.939zm7.131 7.758 4.982-2.408-5.037-4.728zM33.976 25.6l2.532-4.263-4.764.477zm-16.188-4.797-5.649 2.956 5.43 2.796zM33.591 5.94l4.261 5.122 2.46-5.048z"/><path d="m41.874 15.127-4.022-4.065-1.345 5.321zm-19.697-3.439-.399 5.991 5.306-3.656zM7.011 68.798l-.117-7.002L0 65.39zm6.205-4.138 6.262 2.454-.829-6.208zm-6.322-2.864 6.192-3.583-6.455-2.786zM7.011 68.798l6.205-4.138-6.322-2.864z"/><path d="m13.216 64.66.603 6.801 5.659-4.347z"/><path d="m13.819 71.461-.603-6.801-6.205 4.138zm0 0-6.808-2.663.39 7.544zM0 81.414v9.107l7.918-6.139z"/><path d="M7.401 76.342 0 81.414l7.918 2.968zM64.84 47.573l4.405-.87-2.772-3.483zm6.788-6.042-.188-5.554-4.521 2.71zM65.695 54.32l1.651 3.176 2.549-3.086zm0 0-2.228-2.953-1.417 3.591z"/><path d="m67.815 50.796-2.12 3.524 4.2.09z"/><path d="m63.467 51.367 2.228 2.953 2.12-3.524zm2.228 2.953-1.675 3.633 3.326-.457z"/><path d="m64.02 57.953 1.675-3.633-3.645.638zm6.643 4.638-4.064-1.577.563 3.469z"/><path d="m66.599 61.014-2.857 3.192 3.42.277zm0 0 3.958-2.147-3.211-1.371zm-2.579-3.061 2.579 3.061.747-3.518zm18.703 13.363 5.233 3.589.038-5.967zm-.699 5.524.699-5.524L77.575 73zM82.723 71.316l5.271-2.378-4.902-3.141zm-4.067-8.653 4.436 3.134.171-5.337zm-.34 5.139.34-5.139-4.379 2.275zm-4.039-2.864-3.614-2.347-.634 4.292zM55.525 82.589l3.739-3.82-4.24-2.078zm3.739-3.82 2.178 4.547 3.264-4.029z"/><path d="m59.264 78.769-3.739 3.82 5.917.727zm-.843-46.015-.145 5.006 3.98-2.332zm-3.863 14.879.037-3.639-3.278 1.78zm-3.393-5.342 3.43 1.703-.039-3.914z"/><path d="m54.595 43.994 3.69-1.882-3.729-2.032zm3.353 2.109-3.353-2.109-.037 3.639zm-13.414-6.122-2.155 2.286 2.626 1.147z"/><path d="m42.379 42.267 2.155-2.286-3.383-.595z"/><path d="m44.534 39.981-1.073-3.224-2.31 2.629zm7.87-13.067 5.166 1.034-1.991-5.062zm-2.129 7.688 3.453-3.208-4.557-.747zm-15.898 4.584 2-3.03-3.777-.194zm2-3.03 1.628 3.101 1.917-2.881z"/><path d="m38.005 39.257-1.628-3.101-2 3.03z"/><path d="m38.239 33.12-1.862 3.036 3.545.22zm-21.013-.765 4.54-2.696-4.197-3.104zm4.54-2.696-4.54 2.696 4.143 2.958z"/><path d="m17.569 26.555 5.35-2.422-5.131-3.33z"/><path d="m17.788 20.803-5.236-3.12-.413 6.076zm10.663 4.109 3.293-3.098-5.144-1.843zm3.615-13.297 5.786-.553-4.261-5.122z"/><path d="m32.066 11.615 1.525-5.675-6.562.947z"/><path d="m27.084 14.023-.055-7.136-4.852 4.801zm4.982-2.408 4.441 4.768 1.345-5.321z"/><path d="m32.066 11.615-.374 5.696 4.815-.928zm-.322 10.199-.052-4.503-5.092 2.66z"/><path d="m32.066 11.615-4.982 2.408 4.608 3.288zm-10.288 6.064 4.822 2.292.484-5.948zm1.141 6.454-1.141-6.454-3.99 3.124zM7.401 76.342 0 73.083v8.331zm.517 8.04 6.76-5.696-7.277-2.344zm5.901-12.921-6.418 4.881 7.277 2.344z"/><path d="m0 73.083 7.401 3.259-.39-7.544zm7.918 11.299 2.17 7.654 6.36-6.315zm2.17 7.654-2.17-7.654L0 90.521zM0 100h8.232L0 90.521zm73.337-53.864-4.092.567 3.238 4.167z"/><path d="m69.245 46.703 4.092-.567-1.709-4.605zm-4.405.87 1.633-4.353-4.556 1.346zm1.633-4.353 2.772 3.483 2.383-5.172zm-8.865 15.589.981-3.051-3.067.89z"/><path d="m54.616 60.19 2.992-1.381-2.086-2.161zm2.992-1.381 3.184-.712-2.203-2.339zm0 0 2.311 1.953.873-2.665z"/><path d="m57.608 58.809-.451 3.507 2.762-1.554z"/><path d="m57.157 62.316.451-3.507-2.992 1.381zm9.442-1.302-3.619.02.762 3.172zm-6.68-.252 3.061.272-2.188-2.937zm3.061.272 1.04-3.081-3.228.144zm0 0 3.619-.02-2.579-3.061z"/><path d="m60.344 63.744 2.636-2.71-3.061-.272z"/><path d="m62.98 61.034-2.636 2.71 3.398.462zm-8.946 11.124 3.54-2.652-3.846-1.548zm7.415-1.529-3.875-1.123.78 4.204zm-7.022-34.871-3.52 2.761 3.649 1.561z"/><path d="m54.427 35.758-4.152-1.156.632 3.917z"/><path d="m54.427 35.758-.699-4.364-3.453 3.208zm3.994-3.004-4.693-1.36.699 4.364zm-36.655-3.095 4.708-1.016-3.555-4.51zm4.708-1.016-4.708 1.016 3.539 3.404zm30.683 33.673.253 3.566 2.934-2.138z"/><path d="m57.41 65.882-.253-3.566-3.1 1.74zm-.253-3.566 3.187 1.428-.425-2.982zm-15.685 6.275-2.506-4.805-2.827 4.344zm-7.401-4.874 4.895.069-3.852-4.169z"/><path d="m36.139 68.13 2.827-4.344-4.895-.069zM91.803 100l2.647-6.767-6.735-.673zm-14.08 0 3.253-6.739-6.715.281zM6.221 19.895 0 16.203v7.513zm0 0L0 23.716l6.273 2.8zm32.421 52.792-2.503-4.557-4.024 3.395zm0 0-6.527-1.162 2.275 5.071zm-15.1-14.215-4.915-3.711.022 6.145z"/><path d="m23.542 58.472.821-5.004-5.736 1.293zm64.445-14.23-.273-6.868-5.236 3.36zm-5.287 2.41 5.018 4.095.269-6.505zm5.287-2.41-5.509-3.508.222 5.918zM100 59.016v-7.24l-6.142 2.348zm0 0-6.142-4.892.432 6.508zm-6.005 13.095-6.001-3.173-.038 5.967zm-.408-5.851.408 5.851 6.005-5.5zm-47.28 11.59-1.536-5.189-3.851 4.498zm0 0 3.627-3.408-5.163-1.781zM27.926 92.94l4.077 7.06 3.505-6.761zm30.877-74.564 6.204.745-2.598-6.025zm-5.965-.675 2.741 5.185 3.224-4.51zm14.322 7.29-4.128 4.54 6.648.51zM67.16 24.991l2.52 5.05 4.304-4.202zM20.461 73.743l7.001 1.728-1.933-5.738zm1.813 6.429 5.188-4.701-7.001-1.728z"/><path d="m32.115 71.525-6.586-1.792 1.933 5.738zm0 0-4.653 3.946 6.928 1.125zM16.448 85.721l-6.36 6.315 9.406.536z"/><path d="m16.448 85.721 3.046 6.851 5.276-6.096zm25.825-29.666-3.04 2.993 3.511 1.668z"/><path d="m42.273 56.055.471 4.661 2.856-1.752zm-3.04 2.993-.267 4.738 3.778-3.07zm4.354 5.518 2.781 3.211.95-4.998z"/><path d="m43.587 64.566 3.731-1.787-4.574-2.063zm38.891-23.832-.867-6.251-5.025 3.672zm.222 5.918-5.2-3.337-.074 5.199zm-26.364 6.825-.814 3.171 3.067-.89z"/><path d="m56.336 53.477-3.002.977 2.188 2.194zm2.253 2.281 1.112-3.36-3.365 1.079zm-11.271 7.021-.95 4.998 3.903-2.125zm0 0 2.953 2.873.99-4.033zm-11.81 30.46 3.59 6.761 3.423-6.499z"/><path d="M35.508 93.239 32.003 100h7.095zm20.575-80.553 3.265-5.892-6.397-.111zm3.265-5.892 6.808.253L62.26 0zm12.295 13.157-2.451-6.328-4.185 5.498zm7.282.955-2.377-6.629-4.905 5.674zM37.666 55.212l3.416-2.958-3.267-1.021zm0 0 4.607.843-1.191-3.801z"/><path d="m37.666 55.212 1.567 3.836 3.04-2.993zm-1.804-7.116 1.953 3.137 2.042-3.083z"/><path d="m35.862 48.096-1.809 4.01 3.762-.873zm-.748 11.521 2.552-4.405-4.771.961zm0 0 4.119-.569-1.567-3.836zm15.163-37.43 2.127 4.727 3.175-4.028zm5.302.699 5.67 1.103-2.446-5.613zM40.312 6.014l4.135 5.189L46.83 6.11zM42.96 0l3.87 6.11L49.371 0zm7.317 22.187-3.234-4.869-1.523 4.996z"/><path d="m50.277 22.187 2.561-4.486-5.795-.383zm0 0-4.757.127 2.161 4.261zM17.233 38.08l4.634 2.61-.498-5.377zm4.634 2.61 5.297.925-1.856-3.653zm-9.396 11.809 4.444-3.29-5.106-2.711zm-.662-6.001-5.805-3.141.333 5.964z"/><path d="m6.004 43.357 5.805 3.141.065-5.753zm0 0 .344-5.462L0 37.742z"/><path d="M6.004 43.357 0 37.742v6.87zm18.931 1.665-2.931 4.788 4.917-.924zm0 0 1.986 3.864 2.666-3.756z"/><path d="m27.164 41.615-5.297-.925 3.068 4.332zm0 0-2.229 3.407 4.652.108zM0 51.392v6.859l6.631-2.824z"/><path d="m0 51.392 6.631 4.035-.294-6.106zM93.469 33.21l-.381-8.026-6.04 5.007z"/><path d="M93.469 33.21 100 28.733l-6.912-3.549zm-17.802-1.19 5.944 2.463-1.004-6.777zm0 0 .919 6.135 5.025-3.672zm.919 6.135-5.146-2.178.188 5.554z"/><path d="m75.667 32.02-4.227 3.957 5.146 2.178zM59.701 52.398l1.056-3.745-3.561 1.313z"/><path d="m59.701 52.398-2.505-2.432-.86 3.511zm-10.62 6.387.94-3.458-3.675.295zm0 0 3.363-1.01-2.423-2.448zm-2.735-3.163 3.675-.295-2.12-2.707zm6.098 2.153-1.183 3.844 3.355-1.429z"/><path d="m52.444 57.775-3.363 1.01 2.18 2.834zm29.087-5.984 1.169-5.139-5.274 1.862z"/><path d="m81.531 51.791-4.105-3.277-.7 4.61zm0 0-4.805 1.333 2.083 4.23zm7.277 5.352-5.545 3.317 4.94 2.463z"/><path d="m78.809 57.354 5.1-1.824-2.378-3.739zm4.454 3.106-.171 5.337 5.111-2.874zm4.94 2.463-5.111 2.874 4.902 3.141zm6.087-2.291-5.482-3.489-.605 5.78zm-23.733-1.765-.662-4.457-2.549 3.086zm0 0 4.185 1.403-1.029-4.312zM46.062 87.94l3.145-4.819-5.968-.618zm-3.541 5.561 6.653-.017-3.112-5.544zm37.682-11.28 1.821-5.381-5.92 1.205zm0 0 6.795-1.169-4.974-4.212zm4.443 4.603-4.443-4.603-2.58 5.496zm-7.023.893-3.362 5.825 6.715-.281zM41.082 52.254l1.893-3.396-3.118-.708z"/><path d="m41.082 52.254-1.225-4.104-2.042 3.083zm1.893-3.396-1.893 3.396 3.345.257z"/><path d="m42.975 48.858 1.452 3.653 1.636-2.991zm5.336-1.611 3.006-1.473-3.234-1.477zm0 0 3.313 1.708-.307-3.181zm3.313 1.708 2.934-1.322-3.241-1.859zm-5.561.565 1.838 3.1 1.219-2.699z"/><path d="m46.063 49.52 3.057.401-.809-2.674zm0 0-1.636 2.991 3.474.109zm1.703-8.508.317 3.285 3.082-2.006zm.317 3.285 3.234 1.477-.152-3.483zm-7.302-20.713-2.584 2.807 5.052.403zM40.781 23.584l-4.273-2.247 1.689 5.054zm-23.555 8.771-5.045-2.78.081 5.655zm0 0-4.964 2.875 4.971 2.85zm2.252 34.759 5.159-3.421-5.988-2.787zm-6.262-2.454 5.433-3.754-5.563-2.693zM0 58.251l6.894 3.545-.263-6.369z"/><path d="M0 58.251v7.139l6.894-3.594zm6.894 3.545 6.322 2.864-.13-6.447zm53.863-13.143 2.71 2.714 1.373-3.794z"/><path d="m60.757 48.653-1.056 3.745 3.766-1.031zM40.92 77.159l-6.53-.563 2.499 5.234zm0 0-4.031 4.671 6.35.673z"/><path d="m39.504 87.517 3.735-5.014-6.35-.673zm9.703-4.396 2.31-4.044-5.21-1.227z"/><path d="m49.207 83.121-2.9-5.271-3.068 4.653zm9.145 4.747-2.999 5.648 6.095.07z"/><path d="m55.353 93.516 2.999-5.648-5.87-.137zm17.06-19.256-3.296-3.481-1.624 4.525z"/><path d="m72.413 74.26-4.92 1.044 2.935 3.717zm-22.661-4.072 3.976-2.23-3.457-2.306zM50.271 65.652l3.457 2.306.329-3.902zm3.763 6.506 4.32 1.552-.78-4.204zm0 0-4.282-1.97.182 4.254zm7.415-1.529-.227-3.553-3.648 2.43zm1 4.587 5.044.088-2.417-3.567zm-4.501-29.113 2.809 2.55 1.16-4.087z"/><path d="m57.948 46.103-.752 3.863 3.561-1.313zm3.969-1.537.482-4.334-4.114 1.88zm-30.202 3.897-2.128-3.333-2.666 3.756z"/><path d="m29.587 45.13 2.128 3.333 2.356-3.42zm2.128 3.333-4.794.423 2.633 3.425zm-2.161 3.848 3.341 3.862 1.158-4.067z"/><path d="m28.247 56.596 1.321 4.268 3.327-4.691z"/><path d="m29.554 52.311-1.307 4.285 4.648-.423zm2.161-3.848 2.338 3.643 1.809-4.01z"/><path d="m31.715 48.463-2.161 3.848 4.499-.205zm14.444-14.507-2.698 2.801 3.742.705zm-1.307-3.54-2.705 3.024 4.012.516z"/><path d="m46.159 33.956-4.012-.516 1.314 3.317zm-20.854-.893.003 4.899 3.342-2.119z"/><path d="m25.305 33.063 3.345 2.78 1.244-3.645zm10.754-3.331-4.522-.972 2.563 3.984z"/><path d="m29.894 32.198 4.206.546-2.563-3.984zm0 0-1.244 3.645 3.95.119zm14.958-1.782 1.307 3.54 3.012-3.309zm-1.603-3.622-2.773 3.147 4.376.475zm1.603 3.622-4.376-.475 1.671 3.499zm-8.793-.684L34.1 32.744l4.139.376z"/><path d="m38.239 33.12 2.237-3.179-4.417-.209zm0 0 3.908.32-1.671-3.499z"/><path d="m43.249 26.794-5.052-.403 2.279 3.55z"/><path d="m40.476 29.941-2.279-3.55-2.138 3.341zm5.044-7.627-2.271 4.48 4.432-.219z"/><path d="m45.52 22.314-4.739 1.27 2.468 3.21zM27.029 6.887 23.297 0l-3.344 6.265zm-4.852 4.801 4.852-4.801-7.076-.622z"/><path d="m19.953 6.265-3.693 7.138 5.917-1.715zm-6.672 1.199-5.48 5.609 8.459.33zM33.976 25.6l4.221.791-1.689-5.054z"/><path d="m33.976 25.6 2.083 4.132 2.138-3.341zM29.821 0l-2.792 6.887 6.562-.947zm-2.792 6.887L29.821 0h-6.524z"/><path d="m29.821 0 3.77 5.94L36.492 0zm6.687 21.337-.001-4.954-4.815.928zm-4.816-4.026-4.608-3.288-.484 5.948zm4.816 4.026-4.816-4.026.052 4.503zm25.891 18.895 4.074 2.988.446-4.533z"/><path d="m62.399 40.232-.482 4.334 4.556-1.346zm-8.342 23.824.559-3.866-3.355 1.429zm0 0 3.1-1.74-2.541-2.126zm7.165 3.02 4.115.807-1.595-3.677zm0 0 .227 3.553 3.888-2.746zm2.52-2.87-3.398-.462.878 3.332zM77.575 73l.741-5.198-4.574 1.804zm0 0 5.148-1.684-4.407-3.514zm-2.833-12.73 3.914 2.393.153-5.309z"/><path d="m78.656 62.663 4.607-2.203-4.454-3.106zm-8.627 4.22.634-4.292-3.501 1.892zM70.029 66.883l-2.867-2.4-1.825 3.4zm-.912 3.896.912-3.896-4.692 1zm0 0-3.78-2.896-.261 3.854zM70.029 66.883l-.912 3.896 4.625-1.173z"/><path d="m70.029 66.883 3.713 2.723.535-4.668zm4.248-1.945 4.379-2.275-3.914-2.393z"/><path d="m74.277 64.938.465-4.668-4.079 2.321zM55.525 82.589l-.501-5.898-3.507 2.386zm-5.591-8.147 1.583 4.635 3.507-2.386zm9.33 4.327 3.185-3.553-4.095-1.506z"/><path d="m59.264 78.769-.91-5.059-3.33 2.981zm-8.357-40.25.258 3.772 3.391-2.211z"/><path d="m54.427 35.758.129 4.322 3.72-2.32zm-3.262 6.533-.258-3.772-3.141 2.493zm11.234-2.059-4.123-2.472.009 4.352z"/><path d="m58.276 37.76-3.72 2.32 3.729 2.032zm-.328 8.343.337-3.991-3.69 1.882zm3.969-1.537-3.632-2.454-.337 3.991zm-14.151-3.554-2.761 2.402 3.078.883z"/><path d="m45.005 43.414 2.761-2.402-3.232-1.031z"/><path d="m47.203 37.462-3.742-.705 1.073 3.224z"/><path d="m47.203 37.462-2.669 2.519 3.232 1.031zm1.968-6.815 4.557.747-1.324-4.48zm0 0 3.233-3.733-4.723-.339zm-19.277 1.551 2.706 3.764 1.5-3.218zm4.206.546-1.5 3.218 3.777.194zm0 0 2.277 3.412 1.862-3.036zm-5.649-7.832 5.525.688-2.232-3.786zm0 0 3.086 3.848 2.439-3.16zm-6.673-7.233 1.141 6.454 3.681-4.162zm-3.99 3.124-1.528-7.4-3.708 4.28zm50.027 29.993 1.43-4.093-4.405.87zm1.43-4.093-1.43 4.093 4.668.074z"/><path d="m67.815 50.796-2.975-3.223-1.373 3.794zm-9.394-18.042-.851-4.806-3.842 3.446zm0 0-3.994 3.004 3.849 2.002zm-35.502-8.621 5.532.779-1.851-4.941zm0 0 3.555 4.51 1.977-3.731zm3.555 4.51 5.063.117-3.086-3.848zm0 0 3.42 3.555 1.643-3.438zM26.474 28.643l-1.169 4.42 4.589-.865zm27.254 39.315 3.682-2.076-3.353-1.826z"/><path d="m57.574 69.506-.164-3.624-3.682 2.076z"/><path d="m57.41 65.882.164 3.624 3.648-2.43z"/><path d="m57.41 65.882 3.812 1.194-.878-3.332z"/></svg>