<svg xmlns="http://www.w3.org/2000/svg" viewBox="0 0 300 300"><style>path{fill:none;stroke:#000;stroke-width:1;stroke-linejoin:bevel}</style><path d="M271.251 25.304L300 30.508V0zM20.356 0L0 24.759l26.007-2.971z"/><path d="M20.356 0H0v24.759zM19.751 40.615l6.256-18.827L0 24.759zM20.356 0l5.651 21.788L40.79 0zM229.106 0l-9.959 21.857 25.018 1.727zM207.088 0h-20.879l9.019 20.24zM275.748 0h-23.61l19.113 25.304z"/><path d="M271.251 25.304L300 0h-24.252zM244.165 23.584L252.138 0h-23.032zM276.736 50.102L300 30.508l-28.749-5.204zM300 274.506L278.407 300H300zM19.751 40.615L0 24.759v24.572zM87.584 260.554l-22.276-3.26 7.82 21.502zM73.017 200.858l13.53-11.252-16.011-6.911zM73.128 278.796l-7.82-21.502-17.343 19.573zM57.695 300h26.046l-10.613-21.204zM207.088 0l-11.86 20.24 23.919 1.617zM276.736 50.102L300 59.215V30.508zM279.904 98.619L300 110.082v-24.46zM281.853 236.745L300 249.279v-24.09zM280.108 259.093l-6.566 20.344L300 274.506z"/><path d="M281.853 236.745L300 225.189l-17.327-10.117zM300 201.795l-17.327 13.277L300 225.189zM281.853 236.745l-1.745 22.348L300 249.279zM129.133 264.072l-9.231 16.946 21.712.617zM86.547 189.606l-3.978-17.336-12.033 10.425zM102.679 194.894l6.574-14.374-12.991-2.194zM86.547 189.606l-13.53 11.252 17.177 5.943zM18.97 140.405L0 135.481v21.276z"/><path d="M68.295 165.24l14.274 7.03-1.744-16.24zM82.569 172.27l-14.274-7.03 2.241 17.455zM53.57 155.928l.939 18.211 13.786-8.899zM87.584 260.554l-14.456 18.242 24.007 1.373zM80.692 240.49l19.895 4.031-6.456-18.674z"/><path d="M100.587 244.521l-19.895-4.031 6.892 20.064zM143.093 198.033l-10.238 11.379 13.684 1.659zM132.855 209.412l-10.133 9.47 17.159 3.557zM86.547 189.606l3.647 17.195 12.485-11.907zM229.106 0h-22.018l12.059 21.857zM252.844 46.187l3.617 22.638 20.275-18.723zM256.461 68.825l-20.601-4.142 2.769 21.536z"/><path d="M256.461 68.825l-3.617-22.638-16.984 18.496z"/><path d="M252.844 46.187l23.892 3.915-5.485-24.798zM244.165 23.584l27.086 1.72L252.138 0zM271.251 25.304l-27.086-1.72 8.679 22.603zM279.904 98.619l1.645 22.535L300 110.082zM219.772 78.28l18.857 7.939-2.769-21.536zM265.405 151.466l16.194-9.518-17.495-10.355zM282.473 161.456l-17.068-9.99-.605 18.114z"/><path d="M281.599 141.948l.874 19.508 17.527-5.28zM281.549 121.154L300 133.624v-23.542zM281.599 141.948l-.05-20.794-17.445 10.439zM300 133.624l-18.401 8.324L300 156.176z"/><path d="M300 133.624l-18.451-12.47.05 20.794zM158.823 159.777l2.057-9.872-8.459 3.283zM300 178.852l-18.882-.424 1.337 16.851zM248.114 280.429l-13.145-16.496-9.312 17.26zM146.539 211.071l9.871 9.834-.429-15.443zM132.855 209.412l7.026 13.027 6.658-11.368zM234.996 300l-9.339-18.807L213.931 300zM119.903 247.231l9.23 16.841 9.246-15.802zM167.444 0l-16.962 18.329 21.691 1.809zM152.421 153.188l-.016-9.221-8.735 3.497z"/><path d="M152.405 143.967l.016 9.221 8.459-3.283zM0 93.884l19.173-9.677L0 72.772zM0 93.884l19.131 9.003.042-18.68z"/><path d="M0 114.379l19.131-11.492L0 93.884zM0 135.481l18.97 4.924-.855-18.008zM0 114.379l18.115 8.018 1.016-19.51zM19.131 102.887l-1.016 19.51 15.957-9.217zM17.485 63.569l2.266-22.954L0 49.331zM150.236 0h-16.6l16.846 18.329zM40.79 0L26.007 21.788l22.315-1.73zM26.007 21.788l-6.256 18.827 23.377-.591zM65.581 124.677l10.302-9.974-13.601-4.189zM53.57 155.928l14.725 9.312-.81-15.818z"/><path d="M67.485 149.422l-13.603-10.93-.312 17.436zM67.485 149.422l.81 15.818 12.53-9.21zM100.587 244.521l8.428 18.332 10.888-15.622z"/><path d="M112.051 230.387l-17.92-4.54 6.456 18.674z"/><path d="M122.722 218.882l-10.671 11.505 18.039 3.287z"/><path d="M112.051 230.387l-11.464 14.134 19.316 2.71zM129.657 197.564l-11.548-7.759-1.319 14.119zM116.79 203.924l5.932 14.958 10.133-9.47zM105.768 213.089l-3.089-18.195-12.485 11.907z"/><path d="M105.768 213.089l11.022-9.165-14.111-9.03zM135.474 174.7l8.798 10.357 2.317-11.536zM55.698 192.999l17.319 7.859-2.481-18.163zM54.509 174.139l-.939-18.211-15.28 9.422z"/><path d="M54.509 174.139l-16.413 9.894 17.602 8.966zM38.096 184.033l.194-18.683-19.037 8.577z"/><path d="M19.253 173.927l19.037-8.577-17.539-8.702zM38.313 147.19l-17.562 9.458 17.539 8.702z"/><path d="M18.97 140.405L0 156.757l20.751-.109zM244.165 23.584l-14.45 19.555 23.129 3.048z"/><path d="M229.715 43.139l14.45-19.555-25.018-1.727zM207.504 39.64l22.211 3.499-10.568-21.282z"/><path d="M207.504 39.64l11.643-17.783-23.919-1.617zM263.364 112.287l18.185 8.867-1.645-22.535z"/><path d="M281.549 121.154l-18.185-8.867.74 19.306zM158.823 159.777l9.082-2.785-7.025-7.087zM300 178.852l-17.545 16.427L300 201.795zM250.815 142.367l-11.597 11.768 11.492 7.399zM250.815 142.367l-.105 19.167 14.695-10.068zM183.634 282.188L193.257 300l11.321-18.29zM263.539 244.467l-5.697 19.085 22.266-4.459zM273.542 279.437L278.407 300 300 274.506zM280.108 259.093L300 274.506v-25.227z"/><path d="M273.542 279.437L256.65 300h21.757z"/><path d="M273.542 279.437l-25.428.992L256.65 300zM139.881 222.439l7.927 11.532 8.602-13.066zM109.015 262.853l10.887 18.165 9.231-16.946z"/><path d="M109.015 262.853l20.118 1.219-9.23-16.841zM109.015 262.853l-11.88 17.316 22.767.849z"/><path d="M109.015 262.853l-21.431-2.299 9.551 19.615z"/><path d="M109.015 262.853l-8.428-18.332-13.003 16.033zM83.741 300l13.394-19.831-24.007-1.373zM97.135 280.169L83.741 300h24.13zM158.834 52.758l-4.941-17.702-11.006 15.224zM215.076 59.198l4.696 19.082 16.088-13.597z"/><path d="M200.714 72.9l19.058 5.38-4.696-19.082zM235.86 64.683l16.984-18.496-23.129-3.048zM124.165 177.808l-14.912 2.712 8.856 9.285zM139.085 164.8l-3.611 9.9 11.115-1.179zM135.474 174.7l3.611-9.9-11.382-.661zM35.514 74.931l1.731 18.543 14.37-13.714zM37.245 93.474l-18.114 9.413 14.941 10.293z"/><path d="M37.245 93.474l-18.072-9.267-.042 18.68zM17.485 63.569l18.029 11.362-1.566-19.276zM17.485 63.569l1.688 20.638 16.341-9.276zM65.732 69.065l-15.478-7.882 1.361 18.577z"/><path d="M37.245 93.474l-1.731-18.543-16.341 9.276zM153.893 35.056l15.741 3.116 2.539-18.034zM53.882 138.492l-15.569 8.698 15.257 8.738zM67.485 149.422l2.034-13.141-15.637 2.211z"/><path d="M69.519 136.281l-3.938-11.604-11.699 13.815zM73.017 200.858l-15.143 12.471 18.494 6.749zM90.194 206.801l-13.826 13.277 17.763 5.769z"/><path d="M73.017 200.858l3.351 19.22 13.826-13.277zM76.368 220.078l-18.494-6.749 2.981 21.595zM24.02 270.261l19.426-18.52-21.256-9.611zM155.981 205.462l10.572 5.993-1.492-12.798zM143.093 198.033l-13.436-.469 3.198 11.848zM143.093 198.033l3.446 13.038 9.442-5.609zM133.135 186.736l11.137-1.679-8.798-10.357zM129.657 197.564l3.478-10.828-15.026 3.069zM278.68 74.75l-1.944-24.648-20.275 18.723zM300 59.215L278.68 74.75 300 85.622z"/><path d="M300 59.215l-23.264-9.113 1.944 24.648zM220.801 168.13l6.194-12.53-12.64-.835zM177.719 156.147l-2.81 9.022 9.51.567zM213.141 129.324l-12.284-9.483-2.271 13.222zM203.528 89.382l-.327 15.498 17.104-8.626z"/><path d="M203.201 104.88l12.904 8.891 4.2-17.517z"/><path d="M203.201 104.88l-2.344 14.961 15.248-6.07z"/><path d="M200.857 119.841l2.344-14.961-15.156 8.356zM152.421 153.188l-8.399 2.824 5.9 7.308z"/><path d="M152.421 153.188l-8.751-5.724.352 8.548zM149.922 163.32l8.901-3.543-6.402-6.589zM144.272 185.057l10.321-3.955-8.004-7.581zM163.502 187.329l-8.909-6.227-.62 12.014zM264.8 169.58l16.318 8.848 1.355-16.972zM282.473 161.456l-.874-19.508-16.194 9.518zM264.8 169.58l-14.09-8.046-1.45 16.468z"/><path d="M264.8 169.58l.605-18.114-14.695 10.068zM235.531 169.888l-8.536-14.288-6.194 12.53zM220.801 168.13l-6.446-13.365-5.823 11.057zM250.71 161.534l-11.492-7.399-3.687 15.753zM172.508 300l11.126-17.812-20.934-1.179z"/><path d="M172.508 300l-9.808-18.991L152.046 300zM141.614 281.635L152.046 300l10.654-18.991z"/><path d="M141.614 281.635L130.475 300h21.571zM204.894 250.574l-17.49.418 8.865 14.94z"/><path d="M204.578 281.71l-8.309-15.778-12.635 16.256zM183.634 282.188L172.508 300h20.749zM223.024 248.225l-7.708 16.505 19.653-.797zM234.969 263.933l-19.653.797 10.341 16.463z"/><path d="M225.657 281.193l-10.341-16.463-10.738 16.98zM204.578 281.71L193.257 300h20.674z"/><path d="M204.578 281.71l9.353 18.29 11.726-18.807z"/><path d="M215.316 264.73l-19.047 1.202 8.309 15.778zM244.258 249.438l-21.234-1.213 11.945 15.708z"/><path d="M223.024 248.225l21.234 1.213-10.058-12.641zM188.315 99.533l14.886 5.347.327-15.498zM200.857 119.841l-12.812-6.605-1.698 12.52zM200.714 72.9l-18.257-2.912 4.119 15.023zM186.576 85.011l-13.078 10.633 14.817 3.889zM164.977 67.661l17.48 2.327-5.928-15.463zM195.228 20.24l-23.055-.102 14.945 17.406zM167.444 0h-17.208l.246 18.329z"/><path d="M195.005 55.612l-12.548 14.376 18.257 2.912zM229.715 43.139l-22.211-3.499 7.572 19.558zM116.044 157.753l-10.989 8.592 11.846 2.945z"/><path d="M105.055 166.345l-8.793 11.981 12.991 2.194zM102.679 194.894l-6.417-16.568-9.715 11.28zM134.615 154.72l-9.474-2.883 2.562 12.302zM134.615 154.72l4.47 10.08 4.937-8.788z"/><path d="M139.085 164.8l-4.47-10.08-6.912 9.419zM162.448 139.616l-10.043 4.351 8.475 5.938zM81.176 127.876l7.083-11.413-12.376-1.76zM101.512 117.916l-5.494-9.934-7.759 8.481zM37.245 93.474l18.901 1.274-4.531-14.988zM81.176 127.876l13.146-2.134-6.063-9.279zM153.995 78.911l-5.377-13.363-9.857 11.385zM136.522 34.388l6.365 15.892 11.006-15.224zM158.834 52.758l10.8-14.586-15.741-3.116zM19.751 40.615l14.197 15.04 9.18-15.631z"/><path d="M50.254 61.183l13.337-10.211-20.463-10.948zM40.79 0l7.532 20.058L60.866 0zM36.197 130.803l17.685 7.689-3.325-15.633z"/><path d="M65.581 124.677l-15.024-1.818 3.325 15.633z"/><path d="M36.197 130.803l2.116 16.387 15.569-8.698zM18.115 122.397l18.082 8.406-2.125-17.623zM93.431 135.736l-12.255-7.86.604 13.961z"/><path d="M93.431 135.736l.891-9.994-13.146 2.134zM57.874 213.329l-16.906 13.959 19.887 7.636zM43.446 251.741l-2.478-24.453L22.19 242.13z"/><path d="M65.308 257.294l-4.453-22.37-17.409 16.817z"/><path d="M43.446 251.741l17.409-16.817-19.887-7.636zM73.128 278.796l-25.163-1.929L57.695 300zM247.399 104.125l15.965 8.162-3.018-22.646z"/><path d="M260.346 89.641l-21.717-3.422 8.77 17.906zM260.346 89.641l3.018 22.646 16.54-13.668zM256.461 68.825l-17.832 17.394 21.717 3.422z"/><path d="M260.346 89.641L278.68 74.75l-22.219-5.925zM228.579 125.21l3.848-16.953-16.322 5.514zM228.579 125.21l-15.438 4.114 8.482 12.238zM221.623 141.562l5.372 14.038 8.508-16.506z"/><path d="M226.995 155.6l-5.372-14.038-7.268 13.203zM214.355 154.765l-12.777.445 6.954 10.612zM232.427 108.257l13.707 15.519 1.265-19.651zM247.399 104.125l-1.265 19.651 17.23-11.489zM219.772 78.28l.533 17.974 18.324-10.035z"/><path d="M203.528 89.382l16.777 6.872-.533-17.974zM170.694 146.506l-9.814 3.399 7.025 7.087zM200.062 224.933l3.786-13.522-11.846 2.053zM212.966 219.159l-9.118-7.748-3.786 13.522zM158.823 159.777l-2.172 10.205 8.727-3.741z"/><path d="M149.922 163.32l6.729 6.662 2.172-10.205zM156.651 169.982l6.957 6.442 1.77-10.183zM174.909 165.169l5.68 9.947 3.83-9.38zM246.134 123.776l-17.555 1.434 6.924 13.884zM221.623 141.562l13.88-2.468-6.924-13.884zM264.373 187.008l18.082 8.271-1.337-16.851zM225.113 180.478l10.418-10.59-14.73-1.758zM211.318 178.595l9.483-10.465-12.269-2.308zM178.469 265.89l-15.445-2.489-.324 17.608zM196.269 265.932l-17.8-.042 5.165 16.298zM178.469 265.89l17.8.042-8.865-14.94zM129.133 264.072l18.133.749-8.887-16.551zM162.7 281.009l-15.434-16.188-5.652 16.814zM249.965 230.957l-13.656-11.207-2.109 17.047zM204.894 250.574l10.422 14.156 7.708-16.505zM210.483 235.965l12.541 12.26-.31-19.775z"/><path d="M204.894 250.574l-10.511-12.894-6.979 13.312zM215.316 264.73l-10.422-14.156-8.625 15.358z"/><path d="M210.483 235.965l-16.1 1.715 10.511 12.894z"/><path d="M210.483 235.965l-10.421-11.032-5.679 12.747zM222.714 228.45l.31 19.775 11.176-11.428zM210.483 235.965l-5.589 14.609 18.13-2.349zM257.842 263.552l-22.873.381 13.145 16.496zM257.842 263.552l15.7 15.885 6.566-20.344zM244.258 249.438l13.584 14.114 5.697-19.085zM263.539 244.467l16.569 14.626 1.745-22.348zM155.981 205.462l-2.008-12.346-10.88 4.917zM166.553 211.455l-10.143 9.45 14.807 2.657zM156.41 220.905l-8.602 13.066 15.41.61zM171.217 223.562l8.149-10.247-12.813-1.86zM170.034 81.726l16.542 3.285-4.119-15.023zM186.576 85.011l1.739 14.522 15.213-10.151zM188.315 99.533l-.27 13.703 15.156-8.356zM188.045 113.236l-13.324 9.211 11.626 3.309zM195.228 20.24l-8.11 17.304 20.386 2.096zM215.076 59.198l-20.071-3.586 5.709 17.288zM187.118 37.544l-10.589 16.981 18.476 1.087zM195.005 55.612l-18.476-1.087 5.928 15.463zM114.94 135.407l9.851 5.906.44-9.159zM152.405 143.967l-9.26-4.79.525 8.287zM134.305 135.783l8.84 3.394.135-9.145zM152.833 123.883l.023 10.496 10.594-5.506zM151.44 112.592l-11.593-3.316 2.375 10.693zM105.595 128.666l-11.273-2.924-.891 9.994zM101.512 117.916l-13.253-1.453 6.063 9.279zM114.706 146.023l.234-10.616-10.708 4.812z"/><path d="M114.94 135.407l-.234 10.616 10.085-4.71zM114.94 135.407l1.441-9.458-10.786 2.717z"/><path d="M116.381 125.949l-1.441 9.458 10.291-3.253z"/><path d="M125.228 123.743l-8.847 2.206 8.85 6.205z"/><path d="M116.381 125.949l8.847-2.206-3.96-7.362zM71.445 99.736l-9.163 10.778 13.601 4.189z"/><path d="M71.445 99.736l-15.299-4.988 6.136 15.766zM144.423 89.05l-5.662-12.117-7.887 10.502zM129.64 18.303L133.636 0h-17.512z"/><path d="M129.64 18.303L116.124 0l-6.899 18.695z"/><path d="M98.093 0l11.132 18.695L116.124 0zM136.522 34.388l-6.882-16.085-11.261 15.729zM136.522 34.388l-18.143-.356 8.29 15.302zM70.737 19.587L60.866 0 48.322 20.058zM19.751 40.615l-2.266 22.954 16.463-7.914zM110.393 48.695L104.9 62.541l13.912.723z"/><path d="M126.669 49.334l-16.276-.639 8.419 14.569zM34.072 113.18l2.125 17.623 14.36-7.944z"/><path d="M34.072 113.18l16.485 9.679-2.741-15.865zM47.816 106.994l2.741 15.865 11.725-12.345z"/><path d="M56.146 94.748l-8.33 12.246 14.466 3.52zM20.892 216.826L0 201.391v23.646zM54.509 174.139L38.29 165.35l-.194 18.683zM47.965 276.867L29.373 300h28.322zM188.65 155.6l-10.931.547 6.7 9.589zM194.211 145.508l-8.726-8.756-4.357 9.571zM193.14 192.439l5.891 8.961 6.308-9.77zM192.002 213.464l7.029-12.064-11.816 1.622zM180.589 175.116l9.793-.662-5.963-8.718zM171.309 248.888l7.16 17.002 8.935-14.898zM154.911 248.149l16.398.739-8.091-14.307zM147.266 264.821l7.645-16.672-16.532.121z"/><path d="M171.309 248.888l-8.285 14.513 15.445 2.489zM147.266 264.821l15.758-1.42-8.113-15.252z"/><path d="M163.024 263.401l8.285-14.513-16.398-.739zM249.965 230.957l16.142-6.818-14.977-11.194zM282.673 215.072l-.218-19.793-16.446 9.533zM282.673 215.072l-16.566 9.067 15.746 12.606z"/><path d="M266.107 224.139l-2.568 20.328 18.314-7.722z"/><path d="M266.107 224.139l-16.142 6.818 13.574 13.51zM264.373 187.008l1.636 17.804 16.446-9.533zM237.017 186.701l.542 16.829 12.8-8.19zM251.13 212.945l-.771-17.605-12.8 8.19zM215.974 189.549l9.139-9.071-13.795-1.883zM215.974 189.549l-4.656-10.954-5.979 13.035zM222.714 228.45l1.326-17.262-11.074 7.971zM222.714 228.45l11.486 8.347 2.109-17.047z"/><path d="M222.714 228.45l13.595-8.7-12.269-8.562zM224.04 211.188l13.519-7.658-11.641-7.291zM192.002 213.464l-12.636-.149 6.42 11.608zM194.383 237.68l-8.597-12.757-6.928 11.488z"/><path d="M194.383 237.68l5.679-12.747-14.276-.01zM170.034 81.726l-16.039-2.815 4.778 12.831zM170.034 81.726l3.464 13.918 13.078-10.633zM170.694 146.506l-8.246-6.89-1.568 10.289z"/><path d="M170.694 146.506l3.19-11.523-11.436 4.633zM187.118 37.544l-17.484.628 6.895 16.353zM187.118 37.544l7.887 18.068 12.499-15.972z"/><path d="M169.634 38.172l17.484-.628-14.945-17.406zM153.893 35.056l18.28-14.918-21.691-1.809z"/><path d="M153.893 35.056l-3.411-16.727-13.96 16.059zM82.569 172.27l10.694-9.938-12.438-6.302zM128.365 107.785l-10.421.208 3.324 8.388zM117.944 107.993l10.421-.208-3.844-10.09zM139.847 109.276l8.97-8.41-12.662-2.204zM148.817 100.866l-4.394-11.816-8.268 9.612zM151.44 112.592l-2.623-11.726-8.97 8.41zM111.895 118.413l4.486 7.536 4.887-9.568z"/><path d="M117.944 107.993l-6.049 10.42 9.373-2.032zM116.381 125.949l-4.486-7.536-6.3 10.253z"/><path d="M111.895 118.413l-10.383-.497 4.083 10.75zM93.333 148.401l10.899-8.182-10.801-4.483zM93.431 135.736l10.801 4.483 1.363-11.553z"/><path d="M105.595 128.666l-4.083-10.75-7.19 7.826zM104.232 140.219l-10.899 8.182 11.28 4.627z"/><path d="M114.706 146.023l-10.474-5.804.381 12.809zM104.232 140.219l10.708-4.812-9.345-6.741zM134.305 135.783l.079 9.052 8.761-5.658z"/><path d="M133.911 126.944l.394 8.839 8.975-5.751z"/><path d="M134.305 135.783l-9.514 5.53 9.593 3.522zM124.791 141.313l9.514-5.53-9.074-3.629zM125.231 132.154l8.68-5.21-8.683-3.201z"/><path d="M125.231 132.154l9.074 3.629-.394-8.839zM113.962 98.089l3.982 9.904 6.577-10.298zM133.525 63.761l5.236 13.172 9.857-11.385zM138.761 76.933l-14.719-1.183 6.832 11.685zM93.541 94.765l10.082 5.073 2-11.65z"/><path d="M142.887 50.28l-9.362 13.481 15.093 1.787zM142.887 50.28l-6.365-15.892-9.853 14.946z"/><path d="M142.887 50.28l-16.218-.946 6.856 14.427z"/><path d="M126.669 49.334l-7.857 13.93 14.713.497zM61.88 35.224l-18.752 4.8 20.463 10.948zM61.88 35.224l8.857-15.637-22.415.471z"/><path d="M80.45 38.856l-18.57-3.632 1.711 15.748zM104.9 62.541l-11.929 5.397 15.784 7.692zM50.254 61.183l-14.74 13.748 16.101 4.829zM109.225 18.695l9.154 15.337 11.261-15.729zM126.669 49.334l-8.29-15.302-7.986 14.663zM70.737 19.587l9.713 19.269 9.115-18.635zM20.892 216.826l-.876-22.641L0 201.391zM39.262 204.669l18.612 8.66-2.176-20.33zM20.016 194.185l18.08-10.152-18.843-10.106z"/><path d="M20.892 216.826l18.37-12.157-19.246-10.484zM39.262 204.669l1.706 22.619 16.906-13.959z"/><path d="M40.968 227.288l-1.706-22.619-18.37 12.157z"/><path d="M40.968 227.288l-20.076-10.462 1.298 25.304zM0 300l24.02-29.739L0 274.564z"/><path d="M0 249.645v24.919l24.02-4.303zM194.211 145.508l13.33-2.364-8.955-10.081zM213.141 129.324l2.964-15.553-15.248 6.07zM195.442 164.522l5.419 9.018 7.671-7.718zM195.442 164.522l-6.792-8.922-4.231 10.136z"/><path d="M201.578 155.21l-6.136 9.312 13.09 1.3zM188.65 155.6l6.792 8.922 6.136-9.312z"/><path d="M195.442 164.522l-5.06 9.932 10.479-.914z"/><path d="M190.382 174.454l5.06-9.932-11.023 1.214zM211.318 178.595l-12.132 4.501 6.153 8.534z"/><path d="M199.186 183.096l-6.046 9.343 12.199-.809zM199.186 183.096l12.132-4.501-10.457-5.055z"/><path d="M190.382 174.454l8.804 8.642 1.675-9.556zM251.13 212.945l14.977 11.194-.098-19.327zM249.965 230.957l1.165-18.012-14.821 6.805z"/><path d="M251.13 212.945l14.879-8.133-15.65-9.472zM237.017 186.701l13.342 8.639-1.099-17.338zM237.559 203.53l-.542-16.829-11.099 9.538zM225.918 196.239l-9.944-6.69-2.97 13.303zM171.309 248.888l7.549-12.477-15.64-1.83zM178.858 236.411l-7.549 12.477 16.095 2.104zM194.383 237.68l-15.525-1.269 8.546 14.581zM188.315 99.533l-13.369 9.798 13.099 3.905zM162.448 139.616l1.002-10.743-10.594 5.506zM152.833 123.883l10.617 4.99-.264-11.881zM163.45 128.873l11.271-6.426-11.535-5.455z"/><path d="M173.884 134.983l-10.434-6.11-1.002 10.743zM131.996 116.998l-6.768 6.745 8.683 3.201zM125.228 123.743l6.768-6.745-10.728-.617z"/><path d="M131.996 116.998l-3.631-9.213-7.097 8.596zM170.034 81.726l-11.261 10.016 14.725 3.902zM148.817 100.866l9.956-9.124-14.35-2.692zM101.512 117.916l6.663-8.673-12.157-1.261zM108.175 109.243l3.72 9.17 6.049-10.42z"/><path d="M111.895 118.413l-3.72-9.17-6.663 8.673zM113.962 98.089l-5.787 11.154 9.769-1.25zM56.146 94.748l11.916-9.966-16.447-5.022zM71.445 99.736l-3.383-14.954-11.916 9.966zM65.732 69.065L51.615 79.76l16.447 5.022zM50.254 61.183l-16.306-5.528 1.566 19.276zM80.44 74.875l12.531-6.937-13.945-9.904zM99.416 35.41l18.963-1.378-9.154-15.337z"/><path d="M99.416 35.41l9.809-16.715-19.66 1.526zM80.45 38.856l18.966-3.446-9.851-15.189zM99.416 35.41l10.977 13.285 7.986-14.663z"/><path d="M99.416 35.41l-6.119 15.777 17.096-2.492zM93.297 51.187l-.326 16.751 11.929-5.397z"/><path d="M99.416 35.41L80.45 38.856l12.847 12.331zM63.591 50.972l15.435 7.062 1.424-19.178z"/><path d="M63.591 50.972l2.141 18.093 13.294-11.031zM24.02 270.261l-1.83-28.131L0 249.645zM22.19 242.13l-1.298-25.304L0 225.037z"/><path d="M22.19 242.13L0 225.037v24.608zM43.446 251.741l-19.426 18.52 23.945 6.606z"/><path d="M43.446 251.741l4.519 25.126 17.343-19.573zM221.623 141.562l-14.082 1.582 6.814 11.621z"/><path d="M207.541 143.144l14.082-1.582-8.482-12.238zM194.211 145.508l4.375-12.445-13.101 3.689z"/><path d="M198.586 133.063l8.955 10.081 5.6-13.82zM172.098 172.796l2.811-7.627-9.531 1.072z"/><path d="M163.608 176.424l8.49-3.628-6.72-6.555zM172.098 172.796l8.491 2.32-5.68-9.947z"/><path d="M172.012 181.571l8.577-6.455-8.491-2.32zM172.012 181.571l8.212 2.244.365-8.699z"/><path d="M172.012 181.571l.086-8.775-8.49 3.628zM199.186 183.096l-10.597.244 4.551 9.099zM180.224 183.815l8.365-.475-8-8.224z"/><path d="M188.589 183.34l1.793-8.886-9.793.662zM188.589 183.34l10.597-.244-8.804-8.642zM182.99 193.266l5.599-9.926-8.365.475zM188.589 183.34l-5.599 9.926 10.15-.827zM166.553 211.455l9.084-8.999-10.576-3.799zM187.215 203.022l-7.849 10.293 12.636.149zM161.847 104.552l-10.407 8.04 11.746 4.4z"/><path d="M161.847 104.552l-13.03-3.686 2.623 11.726zM161.847 104.552l-3.074-12.81-9.956 9.124z"/><path d="M158.773 91.742l3.074 12.81 11.651-8.908zM68.062 84.782l13.997 4.575-1.619-14.482zM82.059 89.357l-13.997-4.575 3.383 14.954zM172.012 181.571l1.245 10.064 6.967-7.82z"/><path d="M173.257 191.635l-1.245-10.064-8.51 5.758zM173.257 191.635l9.733 1.631-2.766-9.451zM129.657 197.564l-12.867 6.36 16.065 5.488zM102.679 194.894l15.43-5.089-8.856-9.285zM116.79 203.924l1.319-14.119-15.43 5.089zM234.996 300h21.654l-8.536-19.571zM234.996 300l13.118-19.571-22.457.764zM17.485 63.569L0 49.331v23.441zM17.485 63.569L0 72.772l19.173 11.435zM122.722 218.882l-5.932-14.958-11.022 9.165z"/><path d="M122.722 218.882l-16.954-5.793 6.283 17.298zM70.536 182.695l-16.027-8.556 1.189 18.86z"/><path d="M70.536 182.695l-2.241-17.455-13.786 8.899zM264.104 131.593l-.74-19.306-17.23 11.489zM250.815 142.367l14.59 9.099-1.301-19.873z"/><path d="M264.104 131.593l-17.97-7.817 4.681 18.591zM300 178.852v-22.676l-17.527 5.28z"/><path d="M300 178.852l-17.527-17.396-1.355 16.972zM282.673 215.072l-16.664-10.26.098 19.327zM282.455 195.279l.218 19.793L300 201.795zM139.881 222.439l16.529-1.534-9.871-9.834zM139.881 222.439l-9.791 11.235 17.718.297zM97.135 280.169L107.871 300l12.031-18.982zM176.529 54.525l-6.895-16.353-10.8 14.586z"/><path d="M176.529 54.525l-17.695-1.767 6.143 14.903zM200.714 72.9l-14.138 12.111 16.952 4.371z"/><path d="M200.714 72.9l2.814 16.482 16.244-11.102zM80.692 240.49l-4.324-20.412-15.513 14.846z"/><path d="M80.692 240.49l13.439-14.643-17.763-5.769zM90.194 206.801l3.937 19.046 11.637-12.758zM105.768 213.089l-11.637 12.758 17.92 4.54z"/><path d="M65.308 257.294l15.384-16.804-19.837-5.566zM65.308 257.294l22.276 3.26-6.892-20.064zM135.474 174.7l-7.771-10.561-3.538 13.669zM124.165 177.808l8.97 8.928 2.339-12.036zM124.165 177.808l-6.056 11.997 15.026-3.069z"/><path d="M133.135 186.736l-3.478 10.828 13.436.469z"/><path d="M133.135 186.736l9.958 11.297 1.179-12.976zM232.427 108.257l-3.848 16.953 17.555-1.434z"/><path d="M246.134 123.776l-10.631 15.318 15.312 3.273zM165.378 166.241l2.527-9.249-9.082 2.785zM174.909 165.169l-7.004-8.177-2.527 9.249z"/><path d="M174.909 165.169l2.81-9.022-9.814.845zM144.272 185.057l-1.179 12.976 10.88-4.917z"/><path d="M144.272 185.057l9.701 8.059.62-12.014zM119.902 281.018L130.475 300l11.139-18.365z"/><path d="M119.902 281.018L107.871 300h22.604zM172.173 20.138l23.055.102L186.209 0z"/><path d="M172.173 20.138L186.209 0h-18.765zM215.076 59.198l-7.572-19.558-12.499 15.972zM235.86 64.683l-6.145-21.544-14.639 16.059zM116.044 157.753l11.659 6.386-2.562-12.302zM116.044 157.753l.857 11.537 10.802-5.151z"/><path d="M116.901 169.29l7.264 8.518 3.538-13.669zM116.044 157.753l-11.431-4.725.442 13.317z"/><path d="M116.044 157.753l-1.338-11.73-10.093 7.005zM105.055 166.345l4.198 14.175 7.648-11.23z"/><path d="M109.253 180.52l14.912-2.712-7.264-8.518zM164.977 67.661l-10.982 11.25 16.039 2.815z"/><path d="M164.977 67.661l5.057 14.065 12.423-11.738zM129.64 18.303l6.882 16.085 13.96-16.059zM133.636 0l-3.996 18.303 20.842.026zM158.834 52.758l-10.216 12.79 16.359 2.113z"/><path d="M158.834 52.758l-15.947-2.478 5.731 15.268zM164.977 67.661l-16.359-2.113 5.377 13.363zM62.282 110.514l-11.725 12.345 15.024 1.818zM65.581 124.677l15.595 3.199-5.293-13.173zM38.29 165.35l15.28-9.422-15.257-8.738zM38.313 147.19l-19.343-6.785 1.781 16.243z"/><path d="M18.97 140.405l19.343 6.785-2.116-16.387zM0 135.481l18.115-13.084L0 114.379z"/><path d="M18.97 140.405l17.227-9.602-18.082-8.406zM67.485 149.422l13.34 6.608.955-14.193z"/><path d="M67.485 149.422l14.295-7.585-12.261-5.556z"/><path d="M81.176 127.876l-15.595-3.199 3.938 11.604zM81.176 127.876l-11.657 8.405 12.261 5.556zM0 156.757v21.967l19.253-4.797z"/><path d="M0 156.757l19.253 17.17 1.498-17.279zM279.904 98.619L278.68 74.75l-18.334 14.891z"/><path d="M279.904 98.619L300 85.622 278.68 74.75zM238.629 86.219l-6.202 22.038 14.972-4.132zM232.427 108.257l-12.122-12.003-4.2 17.517z"/><path d="M228.579 125.21l-12.474-11.439-2.964 15.553zM232.427 108.257l6.202-22.038-18.324 10.035zM177.719 156.147l3.409-9.824-10.434.183zM177.719 156.147l-7.025-9.641-2.789 10.486zM149.922 163.32l-5.9-7.308-4.937 8.788zM146.589 173.521l10.062-3.539-6.729-6.662z"/><path d="M149.922 163.32l-10.837 1.48 7.504 8.721zM156.651 169.982l-2.058 11.12 9.015-4.678zM156.651 169.982l-10.062 3.539 8.004 7.581zM239.218 154.135l11.597-11.768-15.312-3.273z"/><path d="M239.218 154.135l-3.715-15.041-8.508 16.506zM239.218 154.135l-12.223 1.465 8.536 14.288zM264.8 169.58l-15.54 8.422 15.113 9.006zM250.71 161.534l-15.179 8.354 13.729 8.114zM249.26 178.002l1.099 17.338 14.014-8.332zM264.373 187.008l-14.014 8.332 15.65 9.472z"/><path d="M281.118 178.428L264.8 169.58l-.427 17.428zM211.318 178.595l-2.786-12.773-7.671 7.718zM211.318 178.595l13.795 1.883-4.312-12.348zM147.808 233.971l-9.429 14.299 16.532-.121zM129.133 264.072l12.481 17.563 5.652-16.814zM244.258 249.438l5.707-18.481-15.765 5.84z"/><path d="M244.258 249.438l19.281-4.971-13.574-13.51zM257.842 263.552l-13.584-14.114-9.289 14.495zM257.842 263.552l-9.728 16.877 25.428-.992zM125.141 151.837l-.35-10.524-10.085 4.71zM125.141 151.837l-10.435-5.814 1.338 11.73z"/><path d="M134.384 144.835l-9.593-3.522.35 10.524zM134.384 144.835l-9.243 7.002 9.474 2.883zM143.145 139.177l9.711-4.798-9.576-4.347z"/><path d="M143.145 139.177l9.26 4.79.451-9.588zM152.405 143.967l10.043-4.351-9.592-5.237zM143.67 147.464l-9.055 7.256 9.407 1.292zM134.384 144.835l9.286 2.629-.525-8.287z"/><path d="M134.384 144.835l.231 9.885 9.055-7.256zM142.222 119.969l1.058 10.063 9.553-6.149zM143.28 130.032l9.576 4.347-.023-10.496zM108.755 75.63l10.057-12.366-13.912-.723zM108.755 75.63l15.287.12-5.23-12.486zM37.245 93.474l-3.173 19.706 13.744-6.186z"/><path d="M37.245 93.474l10.571 13.52 8.33-12.246zM57.874 213.329l15.143-12.471-17.319-7.859z"/><path d="M39.262 204.669l16.436-11.67-17.602-8.966zM0 178.724l20.016 15.461-.763-20.258z"/><path d="M0 178.724v22.667l20.016-7.206zM20.016 194.185l19.246 10.484-1.166-20.636zM181.128 146.323l7.522 9.277 5.561-10.092z"/><path d="M181.128 146.323l-3.409 9.824 10.931-.547zM122.722 218.882l7.368 14.792 9.791-11.235zM130.09 233.674l-18.039-3.287 7.852 16.844zM119.903 247.231l18.476 1.039-8.289-14.596zM154.911 248.149l8.307-13.568-15.41-.61z"/><path d="M147.808 233.971l-17.718-.297 8.289 14.596zM178.469 265.89L162.7 281.009l20.934 1.179zM163.024 263.401l-15.758 1.42 15.434 16.188zM222.714 228.45l-9.748-9.291-2.483 16.806z"/><path d="M210.483 235.965l2.483-16.806-12.904 5.774zM155.981 205.462l9.08-6.805-11.088-5.541z"/><path d="M153.973 193.116l11.088 5.541-1.559-11.328zM166.553 211.455l12.813 1.86-3.729-10.859zM166.553 211.455l-10.572-5.993.429 15.443zM187.215 203.022l-11.578-.566 3.729 10.859zM185.786 224.923l14.276.01-8.06-11.469zM173.884 134.983l7.244 11.34 4.357-9.571z"/><path d="M173.884 134.983l-3.19 11.523 10.434-.183zM173.884 134.983l11.601 1.769.862-10.996zM93.333 148.401l-11.553-6.564-.955 14.193z"/><path d="M93.333 148.401l.098-12.665-11.651 6.101zM93.333 148.401l-12.508 7.629 12.438 6.302zM93.263 162.332l2.999 15.994 8.793-11.981zM82.569 172.27l3.978 17.336 9.715-11.28z"/><path d="M93.263 162.332l-10.694 9.938 13.693 6.056zM93.263 162.332l11.35-9.304-11.28-4.627zM93.263 162.332l11.792 4.013-.442-13.317zM128.365 107.785l7.79-9.123-11.634-.967z"/><path d="M130.874 87.435l-6.353 10.26 11.634.967z"/><path d="M128.365 107.785l11.482 1.491-3.692-10.614zM84.157 103.754l-12.712-4.018 4.438 14.967zM84.157 103.754l-8.274 10.949 12.376 1.76zM93.541 94.765l12.082-6.577-10.892-6.859z"/><path d="M84.157 103.754l4.102 12.709 7.759-8.481zM93.541 94.765l-9.384 8.989 11.861 4.228zM130.874 87.435l-12.98-.8 6.627 11.06zM117.894 86.635l6.148-10.885-15.287-.12zM136.155 98.662l8.268-9.612-13.549-1.615zM105.623 88.188l-2 11.65 10.339-1.749z"/><path d="M117.894 86.635l-3.932 11.454 10.559-.394z"/><path d="M117.894 86.635l-12.271 1.553 8.339 9.901zM117.894 86.635l12.98.8-6.832-11.685z"/><path d="M117.894 86.635l-9.139-11.005-3.132 12.558zM133.525 63.761l-9.483 11.989 14.719 1.183z"/><path d="M133.525 63.761l-14.713-.497 5.23 12.486zM70.737 19.587L80.084 0H60.866zM70.737 19.587L61.88 35.224l18.57 3.632zM48.322 20.058l-5.194 19.966 18.752-4.8z"/><path d="M26.007 21.788l17.121 18.236 5.194-19.966zM94.731 81.329l14.024-5.699-15.784-7.692zM94.731 81.329l10.892 6.859 3.132-12.558zM98.093 0H80.084l9.481 20.221z"/><path d="M89.565 20.221L80.084 0l-9.347 19.587zM98.093 0l-8.528 20.221 19.66-1.526zM104.9 62.541l5.493-13.846-17.096 2.492zM93.297 51.187L80.45 38.856l-1.424 19.178z"/><path d="M93.297 51.187l-14.271 6.847 13.945 9.904zM186.347 125.756l12.239 7.307 2.271-13.222zM186.347 125.756l-.862 10.996 13.101-3.689zM163.502 187.329l.106-10.905-9.015 4.678zM163.502 187.329l8.51-5.758-8.404-5.147zM187.215 203.022l11.816-1.622-5.891-8.961zM192.002 213.464l11.846-2.053-4.817-10.011zM193.14 192.439l-10.15.827 4.225 9.756zM236.309 219.75l1.25-16.22-13.519 7.658zM236.309 219.75l14.821-6.805-13.571-9.415zM225.113 180.478l11.904 6.223-1.486-16.813zM237.017 186.701l12.243-8.699-13.729-8.114zM213.004 202.852l2.97-13.303-10.635 2.081z"/><path d="M213.004 202.852l-7.665-11.222-6.308 9.77zM203.848 211.411l9.118 7.748.038-16.307zM213.004 202.852l-13.973-1.452 4.817 10.011z"/><path d="M213.004 202.852l-.038 16.307 11.074-7.971z"/><path d="M213.004 202.852l11.036 8.336 1.878-14.949zM225.918 196.239l11.099-9.538-11.904-6.223zM225.918 196.239l-.805-15.761-9.139 9.071zM163.218 234.581l15.64 1.83-7.641-12.849zM156.41 220.905l6.808 13.676 7.999-11.019zM185.786 224.923l-6.42-11.608-8.149 10.247z"/><path d="M185.786 224.923l-14.569-1.361 7.641 12.849zM151.44 112.592l1.393 11.291 10.353-6.891z"/><path d="M161.847 104.552l1.339 12.44 11.76-7.661zM152.833 123.883l-1.393-11.291-9.218 7.377zM174.946 109.331l-.225 13.116 13.324-9.211z"/><path d="M174.946 109.331l-11.76 7.661 11.535 5.455zM173.884 134.983l.837-12.536-11.271 6.426zM173.884 134.983l12.463-9.227-11.626-3.309zM142.222 119.969l-8.311 6.975 9.369 3.088z"/><path d="M133.911 126.944l8.311-6.975-10.226-2.971zM139.847 109.276l-11.482-1.491 3.631 9.213zM139.847 109.276l-7.851 7.722 10.226 2.971zM144.423 89.05l14.35 2.692-4.778-12.831z"/><path d="M144.423 89.05l9.572-10.139-15.234-1.978zM93.541 94.765l2.477 13.217 7.605-8.144zM103.623 99.838l-7.605 8.144 12.157 1.261zM103.623 99.838l4.552 9.405 5.787-11.154zM80.44 74.875l14.291 6.454-1.76-13.391zM94.731 81.329L80.44 74.875l1.619 14.482zM63.591 50.972L50.254 61.183l15.478 7.882zM50.254 61.183l-7.126-21.159-9.18 15.631zM29.373 300l18.592-23.133-23.945-6.606z"/><path d="M0 300h29.373l-5.353-29.739zM201.578 155.21l5.963-12.066-13.33 2.364zM207.541 143.144l-5.963 12.066 12.777-.445z"/><path d="M201.578 155.21l-7.367-9.702-5.561 10.092zM174.946 109.331l13.369-9.798-14.817-3.889z"/><path d="M174.946 109.331l-1.448-13.687-11.651 8.908zM65.732 69.065l14.708 5.81-1.414-16.841zM68.062 84.782l12.378-9.907-14.708-5.81zM94.731 81.329l-12.672 8.028 11.482 5.408z"/><path d="M82.059 89.357l2.098 14.397 9.384-8.989z"/><path d="M82.059 89.357L71.445 99.736l12.712 4.018zM165.061 198.657l8.196-7.022-9.755-4.306z"/><path d="M175.637 202.456l-2.38-10.821-8.196 7.022z"/><path d="M182.99 193.266l-9.733-1.631 2.38 10.821zM182.99 193.266l-7.353 9.19 11.578.566z"/></svg>