<svg xmlns="http://www.w3.org/2000/svg" viewBox="-0.866 0 4.309 1.575" id="svg12" width="4.309" height="1.575" version="1.1"><style id="style2"/><path id="polygon4" fill="#f18f01" stroke="#4d4d4d" stroke-width=".05" d="M.043.05L-.39.8h.866z" stroke-opacity="1"/><path id="polygon6" fill="#048ba8" stroke="#4d4d4d" stroke-width=".05" d="M-.39.8l-.433.75h.866z" stroke-opacity="1"/><path id="polygon8" fill="#2e4057" stroke="#4d4d4d" stroke-width=".05" stroke-linejoin="bevel" d="M-.39.8l.433.75L.476.8z" stroke-opacity="1"/><path id="polygon10" fill="#99c24d" stroke="#4d4d4f" stroke-width=".05" d="M.476.8l-.433.75H.91z" stroke-opacity="1"/><g aria-label="dmsh" style="line-height:0%;-inkscape-font-specification:'Baskerville Bold'" id="text836" font-weight="700" font-size=".933" font-family="Futura LT" letter-spacing="0" word-spacing="0" fill="#4d4d4d"><path d="M1.26.99V.936h-.002q-.021.035-.06.053-.04.017-.085.017-.104 0-.173-.075Q.872.855.872.75q0-.106.067-.18.068-.075.172-.075.096 0 .149.063V.215h.17V.99zM1.236.674q-.03-.032-.08-.032t-.08.032q-.029.031-.029.077t.029.077q.03.03.08.03t.08-.03q.03-.03.03-.077 0-.046-.03-.077z" style="-inkscape-font-specification:'Futura LT Bold'" id="path838"/><path d="M1.706.51v.06h.002q.056-.075.15-.075.115 0 .164.091.024-.043.068-.067.044-.024.094-.024.164 0 .164.19V.99h-.17V.76L2.177.727q0-.01-.004-.032Q2.17.672 2.163.66q-.006-.011-.02-.02-.015-.01-.035-.01-.022 0-.038.009-.016.008-.025.02-.008.011-.013.031l-.004.035-.001.035v.23h-.17V.76L1.856.732 1.854.703q-.002-.019-.006-.03Q1.843.662 1.834.65 1.827.638 1.813.632 1.799.627 1.781.627q-.017 0-.031.005-.014.006-.023.018l-.012.023q-.005.011-.007.03l-.002.029V.99h-.17V.51z" style="-inkscape-font-specification:'Futura LT Bold'" id="path840"/><path d="M2.832.526l-.057.108Q2.73.611 2.683.611q-.019 0-.036.008-.017.009-.017.024 0 .007.003.013l.008.01.011.006.014.006.014.003q.006 0 .014.003l.012.001q.14.028.14.142 0 .088-.068.134-.066.045-.158.045-.104 0-.194-.056l.062-.118q.028.02.066.034.039.014.068.014.02 0 .037-.009.017-.01.017-.027 0-.01-.006-.018-.005-.008-.017-.013L2.63.805 2.6.798 2.57.791Q2.52.778 2.491.75q-.03-.028-.03-.086 0-.056.033-.095.031-.04.077-.057.047-.018.102-.018.09 0 .158.03z" style="-inkscape-font-specification:'Futura LT Bold'" id="path842"/><path d="M2.938.215h.17v.357h.001q.058-.077.153-.077.09 0 .135.054.046.054.046.148V.99h-.17V.744q0-.052-.016-.083-.015-.03-.06-.03-.048 0-.069.032-.02.033-.02.081V.99h-.17z" style="-inkscape-font-specification:'Futura LT Bold'" id="path844"/></g></svg>