<svg xmlns="http://www.w3.org/2000/svg" viewBox="-100 0 100 133.33"><style>path{fill:none;stroke:#969696;stroke-width:.5;stroke-linejoin:bevel}</style><path d="M0 124.4l-5.754-3.729-.732 7.016zM-23.988 32.624l3.777-5.676-6.993-.769zM-40.74 132.919l-2.588-6.766-4.406 5.605zM-55.219 121.774l7.988-1.936-4.748-4.591zM-35.858 86.068l1.419 8.19 4.608-6.269zM-12.19 123.107l-.936 7.088 6.64-2.508z"/><path d="M-5.754 120.671l-6.436 2.436 5.704 4.58zM-48.771 24.387l-7.34-.238 3.284 6.126zM-40.74 132.919l3.946-6.271-6.534-.495zM-50.107 125.474l-4.83 4.26 7.203 2.024z"/><path d="M-43.328 126.153l-6.779-.679 2.373 6.284zM-54.937 129.734l4.83-4.26-5.112-3.7zM-47.231 119.838l-2.876 5.636 6.779.679z"/><path d="M-50.107 125.474l2.876-5.636-7.988 1.936zM-35.858 86.068l-4.082 4.731 5.501 3.459zM-35.858 86.068l3.984-5.532-6.374-1.667z"/><path d="M-31.874 80.536l-3.984 5.532 6.027 1.921z"/><path d="M-34.439 94.258l7.13.101-2.522-6.37zM-56.858 97.418l7.281-.489-4.107-5.917zM-49.577 96.929l-7.281.489 4.049 5.716zM-50.055 84.635l-7.082.208 3.453 6.169z"/><path d="M-57.137 84.843l7.082-.208-3.304-6.08zM-55.219 121.774l-6.567-.91.683 6.409z"/><path d="M-55.219 121.774l-5.884 5.499 6.166 2.461zM-61.786 120.864l-5.977 2.889 6.66 3.52zM-19.825 131.949l-4.479-5.463-2.584 6.533zM-11.224 116.254l-4.798-4.772-2.261 6.77zM-11.224 116.254l-.966 6.853 6.436-2.436zM-88.065 92.121l6.781-.645-3.752-6.27zM-20.211 26.948l-2.818-6.732-4.175 5.963zM-18.271 15.041l7.087 1.999-1.006-6.835zM-67.02 16.827l-6.575-3.298 2.297 8.117zM-73.595 13.529l6.575 3.298-.769-7.235zM-33.765 133.33l-3.029-6.682-3.946 6.271zM-31.874 80.536l-1.139-7.348-5.235 5.681z"/><path d="M-33.013 73.188l-8.47.189 3.235 5.492zM-75.218 54.472l7.491.133-3.28-6.183zM-47.231 119.838l3.08-5.853-7.828 1.262zM-74.34 91.283l3.715 6.427 3.173-6.398zM-60.645 91.324l3.787 6.094 3.174-6.406z"/><path d="M-57.137 84.843l-3.508 6.481 6.961-.312zM-42.269 96.663l7.83-2.405-5.501-3.459zM-42.808 84.368l6.95 1.7-2.39-7.199zM-35.858 86.068l-6.95-1.7 2.868 6.431zM-61.786 120.864l-5.216-4.326-.761 7.215zM-18.483 124.771l.2-6.519-7.164 1.694zM-12.19 123.107l-6.293 1.664 5.357 5.424zM-18.483 124.771l-1.342 7.178 6.699-1.754z"/><path d="M-19.825 131.949l1.342-7.178-5.821 1.715zM-18.283 118.252l6.093 4.855.966-6.853z"/><path d="M-18.283 118.252l-.2 6.519 6.293-1.664zM-98.781 53.973l-.915 6.335 6.577-.502zM-81.284 91.476l3.076-6.478-6.828.208zM-74.34 91.283l-3.868-6.285-3.076 6.478z"/><path d="M-78.208 84.998l-4.761-5.997-2.067 6.205zM-67.727 54.605l-3.742 5.935 7.479.121z"/><path d="M-71.469 60.54l3.742-5.935-7.491-.133zM-82.969 79.001l-7.886.596 5.819 5.609zM-88.065 92.121l3.26 5.878 3.521-6.523zM-84.805 97.999l-7.098.51 3.7 6.022z"/><path d="M-91.903 98.509l7.098-.51-3.26-5.878zM-29.684 44.911l2.507-6.227-7.262.219zM-45.507 30.585l-3.264-6.198-4.056 5.888zM-19.85 1.376l1.35 7.163 5.356-5.41zM-23.029 20.216l7.071 1.563-2.313-6.738zM-15.958 21.779l-7.071-1.563 2.818 6.732zM-15.958 21.779l4.774-4.739-7.087-1.999zM-73.727 29.415l6.342-.687-3.913-7.082zM-40.784.416l-6.994 1.166 4.399 5.601zM-24.331 6.826l4.481-5.45-7.073-1.069zM-25.464 13.349l6.964-4.81-5.831-1.713z"/><path d="M-19.85 1.376l-4.481 5.45 5.831 1.713zM-67.789 9.592l5.971 2.899.679-6.417zM-67.02 16.827l5.202-4.336-5.971-2.899zM-52.032 18.109l-4.079 6.04 7.34.238zM-47.284 13.503l7.306-.216-3.401-6.104zM-67.961 78.738l3.781-6.081-7.411.062zM-88.532 66.596l2.315-6.568-6.902-.222z"/><path d="M-86.217 60.028l-2.315 6.568 6.453.005zM-48.716 108.96l-7.359.281 4.096 6.006z"/><path d="M-56.075 109.241l7.359-.281-4.093-5.826zM-48.716 108.96l4.565 5.025 3.1-6.195z"/><path d="M-44.151 113.985l-4.565-5.025-3.263 6.287zM-36.794 126.648l-3.132-6.613-3.402 6.118zM-39.926 120.035l-7.305-.197 3.903 6.315z"/><path d="M-39.926 120.035l-4.225-6.05-3.08 5.853zM-18.483 124.771l-6.964-4.825 1.143 6.54zM-46.7 90.629l4.431 6.034 2.329-5.864zM-46.7 90.629l-3.355-5.994-3.629 6.377z"/><path d="M-49.577 96.929l2.877-6.3-6.984.383z"/><path d="M-42.269 96.663l-4.431-6.034-2.877 6.3z"/><path d="M-42.808 84.368l-3.892 6.261 6.76.17z"/><path d="M-46.7 90.629l3.892-6.261-7.247.267zM-56.075 109.241l-3.042 5.943 7.138.063z"/><path d="M-59.117 115.184l3.898 6.59 3.24-6.527z"/><path d="M-59.117 115.184l-2.669 5.68 6.567.91zM-59.117 115.184l-7.885 1.354 5.216 4.326zM-67.002 116.538l-6.582 3.272 5.821 3.943zM-73.584 119.81l6.582-3.272-4.314-4.813zM-60.645 91.324l-3.509-6.397-3.298 6.385z"/><path d="M-64.154 84.927l3.509 6.397 3.508-6.481zM-75.381 78.803l-3.598-5.961-3.99 6.159z"/><path d="M-78.208 84.998l2.827-6.195-7.588.198zM-78.979 72.842l3.598 5.961 3.79-6.084zM-75.381 78.803l7.42-.065-3.63-6.019z"/><path d="M-75.041 66.612l-3.938 6.23 7.388-.123z"/><path d="M-78.979 72.842l3.938-6.23-7.038-.011zM-91.274 86.013l3.209 6.108 3.029-6.915zM-90.855 79.597l-.419 6.416 6.238-.807zM-77.592 97.612l6.967.098-3.715-6.427z"/><path d="M-77.592 97.612l3.252-6.329-6.944.193zM-84.805 97.999l7.213-.387-3.692-6.136zM-6.494 5.639l.759 7.007L0 8.93zM-63.787 23.163l-3.233-6.336-4.278 4.819zM-67.385 28.728l3.598-5.565-7.511-1.517zM-67.291 42.112l-6.926-.052 3.21 6.362zM-88.171 28.754l7.113.94-2.754-6.576zM-74.217 42.06l-3.295-6.344-3.685 6.102zM-81.058 29.694l3.546 6.022 3.785-6.301zM-78.598 17.721l7.3 3.925-2.297-8.117z"/><path d="M-83.812 23.118l6.665.855-1.451-6.252z"/><path d="M-77.147 23.973l3.42 5.442 2.429-7.769z"/><path d="M-78.598 17.721l1.451 6.252 5.849-2.327zM-81.058 29.694l3.911-5.721-6.665-.855zM-77.147 23.973l-3.911 5.721 7.331-.279zM-31.002 32.504l3.825 6.18 3.189-6.06z"/><path d="M-31.002 32.504l7.014.12-3.216-6.445zM-31.002 32.504l-6.81-.524 3.373 6.923zM-27.177 38.684l-3.825-6.18-3.437 6.399z"/><path d="M-31.002 32.504l-2.999-6.694-3.811 6.17z"/><path d="M-34.001 25.81l2.999 6.694 3.798-6.325zM-45.507 30.585l4.413-5.074-7.677-1.124z"/><path d="M-41.094 25.511l-4.413 5.074 7.695 1.395zM-41.094 25.511l7.093.299-2.951-6.349z"/><path d="M-34.001 25.81l-7.093-.299 3.282 6.469zM-34.001 25.81l4.115-6.325-7.066-.024z"/><path d="M-23.029 20.216l-6.857-.731 2.682 6.694z"/><path d="M-29.886 19.485l-4.115 6.325 6.797.369zM-55.263 11.578l-5.876-5.504-.679 6.417zM-30.454 6.829l6.123-.003-2.592-6.519zM-41.483 73.377l-4.557 5.225 7.792.267zM-50.055 84.635l4.015-6.033-7.319-.047zM-46.04 78.602l3.232 5.766 4.56-5.499z"/><path d="M-42.808 84.368l-3.232-5.766-4.015 6.033z"/><path d="M-49.151 72.587l3.111 6.015 4.557-5.225z"/><path d="M-46.04 78.602l-3.111-6.015-4.208 5.968zM-49.151 72.587l3.846-5.775-7.546-.117zM-45.305 66.812l-3.846 5.775 7.668.79zM-74.217 42.06l-3.866 6.232 7.076.13zM-78.083 48.292l2.865 6.18 4.211-6.05z"/><path d="M-78.083 48.292l3.866-6.232-6.98-.242zM-78.083 48.292l-4.771 5.948 7.636.232z"/><path d="M-84.958 48.053l6.875.239-3.114-6.474zM-78.083 48.292l-6.875-.239 2.104 6.187zM-99.696 60.308l5.348 6.291 1.229-6.793zM-94.348 66.599l-5.348-6.291-.304 6.284z"/><path d="M-99.71 72.878l5.362-6.279-5.652-.007zM-94.348 66.599l-5.362 6.279 6.571.514z"/><path d="M-88.532 66.596l-5.816.003 1.209 6.793z"/><path d="M-94.348 66.599l5.816-.003-4.587-6.79zM-90.855 79.597l4.587-6.421-6.871.216zM-86.268 73.176l7.289-.334-3.1-6.241zM-78.979 72.842l-7.289.334 3.299 5.825zM-86.268 73.176l-4.587 6.421 7.886-.596z"/><path d="M-88.532 66.596l2.264 6.58 4.189-6.575z"/><path d="M-86.268 73.176l-2.264-6.58-4.607 6.796zM-45.461 102.738l3.192-6.075-7.308.266z"/><path d="M-45.461 102.738l-4.116-5.809-3.232 6.205zM-45.461 102.738l-3.255 6.222 7.665-1.17z"/><path d="M-48.716 108.96l3.255-6.222-7.348.396zM-16.022 111.482l-7.027 1.563 4.766 5.207z"/><path d="M-23.049 113.045l7.027-1.563-4.276-5.218zM-25.447 119.946l2.398-6.901-6.821.739zM-23.049 113.045l-2.398 6.901 7.164-1.694zM-30.418 126.489l-3.347 6.841 6.877-.311zM-24.304 126.486l-6.114.003 3.53 6.53z"/><path d="M-33.765 133.33l3.347-6.841-6.376.159zM-25.447 119.946l-4.971 6.543 6.114-.003zM-31.027 100.684l6.928-.166-3.21-6.159z"/><path d="M-31.027 100.684l3.718-6.325-7.13-.101zM-39.926 120.035l3.016-6.2-7.241.15z"/><path d="M-44.151 113.985l7.241-.15-4.141-6.045zM-33.986 107.443l-2.924 6.392 7.04-.051z"/><path d="M-36.91 113.835l2.924-6.392-7.065.347zM-60.254 103.827l4.179 5.414 3.266-6.107z"/><path d="M-56.858 97.418l-3.396 6.409 7.445-.693zM-60.641 78.675l-3.539-6.018-3.781 6.081zM-60.641 78.675l3.504 6.168 3.778-6.288zM-64.154 84.927l3.513-6.252-7.32.063z"/><path d="M-60.641 78.675l-3.513 6.252 7.017-.084zM-71.192 84.93l7.038-.003-3.807-6.189zM-71.192 84.93l-3.148 6.353 6.888.029zM-71.192 84.93l-7.016.068 3.868 6.285z"/><path d="M-64.154 84.927l-7.038.003 3.74 6.382zM-75.381 78.803l4.189 6.127 3.231-6.192zM-71.192 84.93l-4.189-6.127-2.827 6.195zM-78.897 60.38l-7.32-.352 4.138 6.573zM-82.854 54.24l3.957 6.14 3.679-5.908zM-78.897 60.38l7.428.16-3.749-6.068z"/><path d="M-78.897 60.38l-3.957-6.14-3.363 5.788zM-78.897 60.38l3.856 6.232 3.572-6.072z"/><path d="M-75.041 66.612l-3.856-6.232-3.182 6.221zM-94.933 92.159l3.03 6.35 3.838-6.388z"/><path d="M-91.274 86.013l-3.659 6.146 6.868-.038z"/><path d="M-94.933 92.159l3.659-6.146-6.062-.69zM-99.71 72.878l.902 6.337 5.669-5.823z"/><path d="M-98.808 79.215l7.953.382-2.284-6.205z"/><path d="M-90.855 79.597l-7.953-.382 1.472 6.108zM-90.855 79.597l-6.481 5.726 6.062.69zM-83.831 110.19l2.729-6.563-7.101.904z"/><path d="M-81.102 103.627l-3.703-5.628-3.398 6.532zM-81.102 103.627l3.51-6.015-7.213.387zM-18.271 15.041l6.081-4.836-6.31-1.666z"/><path d="M-18.5 8.539l6.31 1.666-.954-7.076zM-12.19 10.205l5.696-4.566-6.65-2.51zM-12.19 10.205l6.455 2.441-.759-7.007zM-5.735 12.646l-6.455-2.441 1.006 6.835zM-52.032 18.109l-7.124.077 3.045 5.963zM-59.156 18.186l-2.662-5.695-5.202 4.336zM-63.787 23.163l4.631-4.977-7.864-1.359z"/><path d="M-59.156 18.186l-4.631 4.977 7.676.986zM-60.22 29.633l-7.165-.905 3.545 6.828zM-56.111 24.149l-4.109 5.484 7.393.642z"/><path d="M-60.22 29.633l-3.567-6.47-3.598 5.565z"/><path d="M-63.787 23.163l3.567 6.47 4.109-5.484zM-67.385 28.728l-3.141 6.949 6.686-.121z"/><path d="M-70.526 35.677l3.141-6.949-6.342.687zM-70.526 35.677l3.235 6.435 3.451-6.556z"/><path d="M-67.291 42.112l-3.235-6.435-3.691 6.383z"/><path d="M-70.526 35.677l-6.986.039 3.295 6.344z"/><path d="M-77.512 35.716l6.986-.039-3.201-6.262zM-88.171 28.754l3.422 6.542 3.691-5.602z"/><path d="M-84.749 35.296l-3.422-6.542-3.693 5.995zM-84.749 35.296l7.237.42-3.546-6.022zM-77.512 35.716l-7.237-.42 3.552 6.522zM-39.978 13.287l-4.227 6.057 7.253.117zM-44.205 19.344l-7.827-1.235 3.261 6.278z"/><path d="M-52.032 18.109l7.827 1.235-3.079-5.841zM-44.205 19.344l4.227-6.057-7.306.216zM-44.205 19.344l3.111 6.167 4.142-6.05z"/><path d="M-41.094 25.511l-3.111-6.167-4.566 5.043zM-50.156 7.866l2.872 5.637 3.905-6.32z"/><path d="M-47.778 1.582l-2.378 6.284 6.777-.683z"/><path d="M-54.979 3.61l4.823 4.256 2.378-6.284zM-33.806 0l3.352 6.829 3.531-6.522zM-25.464 13.349l7.193 1.692-.229-6.502zM-25.464 13.349l2.435 6.867 4.758-5.175z"/><path d="M-25.464 13.349l-4.422 6.136 6.857.731zM-30.454 6.829l4.99 6.52 1.133-6.523zM-75.041 66.612l7.282.018-3.71-6.09z"/><path d="M-71.469 60.54l3.71 6.09 3.769-5.969zM-64.18 72.657l-3.579-6.027-3.832 6.089z"/><path d="M-67.759 66.63l-7.282-.018 3.45 6.107zM-60.356 66.654l-7.403-.024 3.579 6.027z"/><path d="M-67.759 66.63l7.403.024-3.634-5.993zM-33.013 73.188l-5.531-5.118-2.939 5.307zM-38.544 68.07l5.531 5.118-.311-7.65z"/><path d="M-33.324 65.538l.431-6.518-7.517 2.151zM-38.544 68.07l-6.761-1.258 3.822 6.565zM-91.227 47.236l-3.664-6.165-2.407 6.807zM-90.783 53.634l-6.515-5.756-1.483 6.095zM-27.23 107.045l-6.756.398 4.116 6.341zM-27.23 107.045l4.181 6 2.751-6.781zM-24.099 100.518l-3.131 6.527 6.932-.781z"/><path d="M-23.049 113.045l-4.181-6-2.64 6.739zM-27.23 107.045l-3.797-6.361-2.959 6.759z"/><path d="M-31.027 100.684l3.797 6.361 3.131-6.527zM-33.986 107.443l-3.802-6.174-3.263 6.521z"/><path d="M-37.788 101.269l-7.673 1.469 4.41 5.052zM-42.269 96.663l4.481 4.606 3.349-7.011z"/><path d="M-45.461 102.738l7.673-1.469-4.481-4.606zM-37.788 101.269l6.761-.585-3.412-6.426z"/><path d="M-31.027 100.684l-6.761.585 3.802 6.174zM-30.418 126.489l-2.38-6.394-3.996 6.553zM-32.798 120.095l7.351-.149-4.423-6.162z"/><path d="M-32.798 120.095l-7.128-.06 3.132 6.613zM-32.798 120.095l2.38 6.394 4.971-6.543z"/><path d="M-32.798 120.095l-4.112-6.26-3.016 6.2zM-36.91 113.835l4.112 6.26 2.928-6.311zM-67.002 116.538l3.221-6.294-7.535 1.481z"/><path d="M-63.781 110.244l-3.667-5.547-3.868 7.028zM-63.781 110.244l4.664 4.94 3.042-5.943z"/><path d="M-59.117 115.184l-4.664-4.94-3.221 6.294zM-63.781 110.244l3.527-6.417-7.194.87zM-60.254 103.827l-3.527 6.417 7.706-1.003zM-63.953 97.919l3.308-6.595-6.807-.012z"/><path d="M-70.625 97.71l6.672.209-3.499-6.607zM-60.645 91.324l-3.308 6.595 7.095-.501z"/><path d="M-67.448 104.697l3.495-6.778-6.672-.209z"/><path d="M-63.953 97.919l3.699 5.908 3.396-6.409z"/><path d="M-60.254 103.827l-3.699-5.908-3.495 6.778zM-49.151 72.587l-7.572.008 3.364 5.96z"/><path d="M-56.723 72.595l7.572-.008-3.7-5.892zM-56.723 72.595l-3.633-5.941-3.824 6.003z"/><path d="M-60.356 66.654l3.633 5.941 3.872-5.9zM-60.641 78.675l3.918-6.08-7.457.062zM-56.723 72.595l-3.918 6.08 7.282-.12zM-71.316 111.725l-5.85-2.366-1.438 6.245z"/><path d="M-77.166 109.359l-6.665.831 5.227 5.414zM-71.316 111.725l-7.288 3.879 5.02 4.206z"/><path d="M-77.166 109.359l-3.936-5.732-2.729 6.563zM-55.263 11.578l3.231 6.531 4.748-4.606zM-55.263 11.578l.284-7.968-6.16 2.464zM-59.156 18.186l3.893-6.608-6.555.913z"/><path d="M-55.263 11.578l-3.893 6.608 7.124-.077zM-55.263 11.578l5.107-3.712-4.823-4.256zM-50.156 7.866l-5.107 3.712 7.979 1.925zM-39.978 13.287l3.138-6.61-6.539.506z"/><path d="M-36.84 6.677L-40.784.416l-2.595 6.767zM-33.806 0l-3.034 6.677 6.386.152z"/><path d="M-36.84 6.677L-33.806 0l-6.978.416zM-29.684 44.911l-6.233 2.129 4.201 5.031zM-60.299 54.78l-7.428-.175 3.737 6.056zM-94.891 41.071l6.884.077-3.857-6.399zM-88.007 41.148l3.049 6.905 3.761-6.235z"/><path d="M-88.007 41.148l3.258-5.852-7.115-.547zM-84.749 35.296l-3.258 5.852 6.81.67zM-88.007 41.148l-3.22 6.088 6.269.817z"/><path d="M-91.227 47.236l3.22-6.088-6.884-.077zM-86.217 60.028l-4.566-6.394-2.336 6.172z"/><path d="M-82.854 54.24l-7.929-.606 4.566 6.394zM-90.783 53.634l-7.998.339 5.662 5.833z"/><path d="M-84.958 48.053l-5.825 5.581 7.929.606zM-90.783 53.634l-.444-6.398-6.071.642z"/><path d="M-91.227 47.236l.444 6.398 5.825-5.581zM-67.448 104.697l-6.334-.764 2.466 7.792z"/><path d="M-73.782 103.933l6.334.764-3.177-6.987zM-77.592 97.612l3.81 6.321 3.157-6.223zM-81.102 103.627l7.32.306-3.81-6.321z"/><path d="M-77.166 109.359l3.384-5.426-7.32-.306zM-73.782 103.933l-3.384 5.426 5.85 2.366zM-32.837 13.209l-7.141.078 3.026 6.174zM-25.464 13.349l-7.373-.14 2.951 6.276zM-29.886 19.485l-2.951-6.276-4.115 6.252z"/><path d="M-32.837 13.209l7.373.14-4.99-6.52zM-36.84 6.677l4.003 6.532 2.383-6.38z"/><path d="M-32.837 13.209l-4.003-6.532-3.138 6.61zM-49.57 36.491l4.063-5.906-7.32-.31zM-67.291 42.112l6.834.093-3.383-6.649zM-35.917 47.04l1.478-8.137-5.559 3.519zM-35.917 47.04l6.233-2.129-4.755-6.008zM-45.305 66.812l-3.29-5.782-4.256 5.665zM-38.317 54.378l5.424 4.642 1.177-6.949zM-35.917 47.04l-2.4 7.338 6.601-2.307zM-56.768 36.105l-3.452-6.472-3.62 5.923z"/><path d="M-60.22 29.633l3.452 6.472 3.941-5.83zM-56.768 36.105l7.198.386-3.257-6.216zM-49.57 36.491l-7.198-.386 3.244 6.501zM-56.768 36.105l-3.689 6.1 6.933.401z"/><path d="M-60.457 42.205l3.689-6.1-7.072-.549zM-63.899 48.525l-3.392-6.413-3.716 6.31zM-67.727 54.605l3.828-6.08-7.108-.103zM-60.299 54.78l-3.6-6.255-3.828 6.08z"/><path d="M-63.899 48.525l3.442-6.32-6.834-.093zM-45.507 30.585l3.203 6.032 4.492-4.637z"/><path d="M-37.812 31.98l-4.492 4.637 7.865 2.286zM-49.57 36.491l7.266.126-3.203-6.032zM-42.304 36.617l2.306 5.805 5.559-3.519zM-56.408 60.819l-3.948 5.835 7.505.041zM-60.356 66.654l3.948-5.835-7.582-.158z"/><path d="M-56.408 60.819l-3.891-6.039-3.691 5.881zM-48.595 61.03l-7.813-.211 3.557 5.876zM-38.544 68.07l-1.866-6.899-4.895 5.641z"/><path d="M-33.324 65.538l-7.086-4.367 1.866 6.899zM-40.41 61.171l-8.185-.141 3.29 5.782z"/><path d="M-48.595 61.03l8.185.141-4.974-5.754zM-40.41 61.171l2.093-6.793-7.067 1.039z"/><path d="M-38.317 54.378l-2.093 6.793 7.517-2.151zM-45.384 55.417l2.583-6.425-6.924.138zM-39.998 42.422l-2.803 6.57 6.884-1.952z"/><path d="M-42.801 48.992l4.484 5.386 2.4-7.338z"/><path d="M-38.317 54.378l-4.484-5.386-2.583 6.425zM-60.457 42.205l3.643 6.542 3.29-6.141zM-53.524 42.606l-3.29 6.141 7.089.383z"/><path d="M-63.899 48.525l7.085.222-3.643-6.542zM-56.814 48.747l-7.085-.222 3.6 6.255zM-46.703 42.794l-2.867-6.303-3.954 6.115z"/><path d="M-46.703 42.794l-6.821-.188 3.799 6.524zM-46.703 42.794l4.399-6.177-7.266-.126zM-42.304 36.617l-4.399 6.177 6.705-.372zM-46.703 42.794l3.902 6.198 2.803-6.57z"/><path d="M-42.801 48.992l-3.902-6.198-3.022 6.336zM-56.408 60.819l3.546-5.739-7.437-.3zM-52.862 55.08l7.478.337-4.341-6.287zM-52.862 55.08l4.267 5.95 3.211-5.613z"/><path d="M-52.862 55.08l-3.546 5.739 7.813.211zM-52.862 55.08l-3.952-6.333-3.485 6.033z"/><path d="M-56.814 48.747l3.952 6.333 3.137-5.95z"/></svg>