<svg xmlns="http://www.w3.org/2000/svg" viewBox="-300 0 300 399.988"><style>path{fill:none;stroke:#000;stroke-width:1;stroke-linejoin:bevel}</style><path d="M0 373.199l-17.255-11.183-2.238 21.059zM-71.924 97.807l11.326-17.013-20.998-2.329zm-50.53 300.922l-7.743-20.291-13.264 16.776zm-43.423-33.49l24.012-5.752-14.216-13.782zm58.346-106.975l4.25 24.592 13.81-18.826zM-36.6 369.342l-2.857 21.268 19.964-7.535z"/><path d="M-17.255 362.016l-19.345 7.326 17.107 13.733zM-146.407 73.132l-22.057-.655 9.913 18.321zm23.953 325.597l11.895-18.782-19.638-1.509zm-28.102-22.372l-14.521 12.753 21.616 6.104zm20.359 2.081l-20.359-2.081 7.095 18.857z"/><path d="M-165.077 389.11l14.521-12.753-15.321-11.118z"/><path d="M-141.865 359.487l-8.691 16.87 20.359 2.081z"/><path d="M-150.556 376.357l8.691-16.87-24.012 5.752zm43.025-118.093l-12.23 14.212 16.48 10.38zm0 0l11.916-16.62-19.089-4.997zm11.916-16.62l-11.916 16.62 18.06 5.766z"/><path d="M-103.281 282.856l21.385.287-7.575-19.113zm-67.287 9.387l21.858-1.418-12.284-17.77zm21.858-1.418l-21.858 1.418 12.106 17.16zm-1.37-36.883l-21.233.586 10.319 18.527zm-21.233.586l21.233-.586-9.88-18.27zm5.436 110.711l-19.71-2.771 2.013 19.227zm0 0l-17.697 16.456 18.497 7.415z"/><path d="M-185.587 362.468l-17.947 8.641 19.96 10.586zm125.99 33.402l-13.433-16.372-7.804 19.575zm25.944-47.092l-14.386-14.306-6.819 20.315zm0 0l-2.947 20.564 19.345-7.326zm-230.575-72.553l20.373-1.915-11.223-18.784zm203.63-195.431l-8.488-20.2-12.51 17.871zm5.773-35.704l21.292 6.011-3.068-20.512zm-146.471 5.548l-19.757-9.849 6.945 24.318z"/><path d="M-221.053 40.789l19.757 9.849-2.353-21.691zm119.554 359.199l-9.06-20.041-11.895 18.782zm5.884-158.344l-3.425-22.078-15.664 17.081zm-3.425-22.078l-25.343.563 9.679 16.518zM-225.582 163.5l22.49.35-9.902-18.502zm83.717 195.987l9.311-17.514-23.527 3.732zm-81.134-85.741l11.099 19.272 9.587-19.158zm41.118.195l11.313 18.302 9.574-19.188zm10.568-19.413l-10.568 19.413 20.887-.886zm44.536 35.535l23.496-7.207-16.48-10.38zm-1.581-36.894l20.827 5.095-7.173-21.617zm20.827 5.095l-20.827-5.095 8.597 19.307zm-78.056 104.204l-15.617-12.998-2.33 21.639zm130.06 11.88l.669-19.561-21.543 5.095z"/><path d="M-36.6 369.342l-18.927 5.006 16.07 16.262zm-18.927 5.006l-4.07 21.522 20.14-5.26z"/><path d="M-59.597 395.87l4.07-21.522-17.503 5.15zm4.739-41.083l18.258 14.555 2.947-20.564z"/><path d="M-54.858 354.787l-.669 19.561 18.927-5.006zm-241.515-192.71l-2.729 18.986 19.741-1.53zm52.518 112.233l9.294-19.4-20.517.616z"/><path d="M-222.999 273.746l-11.562-18.836-9.294 19.4z"/><path d="M-234.561 254.91l-14.244-17.965-6.273 18.581zm31.469-91.06l-11.204 17.804 22.449.325z"/><path d="M-214.296 181.654l11.204-17.804-22.49-.35zm-34.509 55.291l-23.691 1.778 17.418 16.803zm-15.423 39.28l9.748 17.617 10.625-19.532z"/><path d="M-254.48 293.842l-21.291 1.569 11.059 18.028zm-21.291 1.569l21.291-1.569-9.748-17.617zm186.75-160.77l7.527-18.67-21.792.632zm-47.538-42.96l-9.848-18.549-12.144 17.666zm76.887-87.58l4.096 21.479 16.068-16.219zm-9.414 56.493l21.239 4.71-6.978-20.214zm21.239 4.71l-21.239-4.71 8.488 20.2z"/><path d="M-47.847 65.304l14.314-14.203-21.292-6.011zm-173.485 23.117l19.034-2.124-11.81-21.19zm98.742-87.148l-21.013 3.531 13.25 16.76zm49.482 19.16l13.436-16.332L-80.936.904zM-76.453 40l20.877-14.42-17.532-5.147z"/><path d="M-59.672 4.101l-13.436 16.332 17.532 5.147zm-143.977 24.846l17.934 8.656 2.007-19.249z"/><path d="M-201.296 50.638l15.581-13.035-17.934-8.656zm45.033 3.712l-12.201 18.127 22.057.655zm14.225-13.823l21.956-.686-10.271-18.277zm-61.71 195.646l11.355-18.225-22.245.186zm-61.812-36.328l6.95-19.668-20.751-.644zm6.95-19.668l-6.95 19.668 19.397-.009zm112.391 146.716l-22.105.784 12.243 18.028z"/><path d="M-168.324 327.677l22.105-.784-12.243-17.49zm22.105-.784l13.665 15.08 9.368-18.55zm13.665 15.08l-13.665-15.08-9.862 18.812zm21.995 37.974l-9.358-19.826-10.28 18.317z"/><path d="M-119.917 360.121l-21.948-.634 11.668 18.951z"/><path d="M-119.917 360.121l-12.637-18.148-9.311 17.514zm64.39 14.227l-20.874-14.466 3.371 19.616zm-84.511-102.404l13.261 18.119 7.016-17.587zm0 0l-10.042-18.002-10.914 19.113zm-8.672 18.881l8.672-18.881-20.956 1.111z"/><path d="M-126.777 290.063l-13.261-18.119-8.672 18.881z"/><path d="M-128.358 253.169l-11.68 18.775 20.277.532z"/><path d="M-140.038 271.944l11.68-18.775-21.722.773zm-28.286 55.733l-9.196 17.78 21.439.248zm-9.196 17.78l11.643 19.782 9.796-19.534zm0 0l-8.067 17.011 19.71 2.771zm0 0l-23.684 4.013 15.617 12.998zm-23.684 4.013l-19.766 9.791 17.436 11.848z"/><path d="M-220.97 359.261l19.766-9.791-12.906-14.446zm39.089-85.32l-10.481-19.2-9.951 19.119zm-10.481-19.2l10.481 19.2 10.568-19.413zm-33.66-18.383l-10.807-17.848-11.976 18.435z"/><path d="M-234.561 254.91l8.539-18.552-22.783.587zm-2.268-36.4l10.807 17.848 11.384-18.224zm10.807 17.848l22.274-.185-10.89-18.039zm1.01-36.507l-11.817 18.659 22.191-.376z"/><path d="M-236.829 218.51l11.817-18.659-21.151-.015zm-37.005 39.408l9.606 18.307 9.15-20.699z"/><path d="M-272.496 238.723l-1.338 19.195 18.756-2.392zm39.677 53.977l20.919.318-11.099-19.272zm0 0l9.82-18.954-20.856.564z"/><path d="M-254.48 293.842l21.661-1.142-11.036-18.39zm234.962-276.94l2.319 21.028L0 26.788zM-191.533 69.59l-9.763-18.952-12.812 14.469zm-10.765 16.707l10.765-16.707-22.575-4.483zm.406 40.112l-20.801-.096 9.699 19.035zm-62.796-39.897l21.348 2.797-8.31-19.708zm41.995 39.801l-9.95-18.985-11.012 18.309z"/><path d="M-243.34 89.309l10.697 18.019 11.311-18.907zm7.299-35.92l21.933 11.718-6.945-24.318zm-15.609 16.212l20.002 2.533-4.393-18.745zm20.002 2.533l10.316 16.287 7.224-23.314z"/><path d="M-236.041 53.389l4.393 18.745 17.54-7.027zm-7.299 35.92l11.692-17.175-20.002-2.533zm11.692-17.175l-11.692 17.175 22.008-.888zm138.667 25.285l11.487 18.552 9.57-18.164zm0 0l21.057.388-9.672-19.342zm0 0l-20.455-1.571 10.15 20.755zm11.487 18.552l-11.487-18.552-10.305 19.184z"/><path d="M-92.981 97.419l-9.038-20.073-11.417 18.502z"/><path d="M-102.019 77.346l9.038 20.073 11.385-18.954zm-34.54 14.335l13.228-15.214-23.076-3.335zm13.228-15.214l-13.228 15.214 23.123 4.167zm0 0l21.312.879-8.912-19.019z"/><path d="M-102.019 77.346l-21.312-.879 9.895 19.381zm0 0l12.327-18.954-21.239-.065zm32.933-16.752l-20.606-2.202 8.096 20.073z"/><path d="M-89.692 58.392l-12.327 18.954 20.423 1.119zm-76.339-23.58l-17.677-16.458-2.007 19.249zm74.53-14.346l18.393-.033L-80.936.904zm-32.882 199.663l-13.652 15.708 23.331.81zm-25.697 33.813l12.045-18.105-21.925-.165zm12.045-18.105l9.677 17.332 13.654-16.522zm9.677 17.332l-9.677-17.332-12.045 18.105zm-18.984-35.414l9.307 18.082 13.652-15.708z"/><path d="M-138.035 235.837l-9.307-18.082-12.618 17.917zm-9.307-18.082l11.496-17.357-22.591-.343z"/><path d="M-135.846 200.398l-11.496 17.357 22.959 2.374zm-86.847-74.085l-11.553 18.697 21.252.338zm-11.553 18.697l8.664 18.49 12.588-18.152zm0 0l11.553-18.697-20.962-.676zm0 0l-14.271 17.836 22.935.654z"/><path d="M-254.903 144.335l20.657.675-9.409-19.373z"/><path d="M-234.246 145.01l-20.657-.675 6.386 18.511zm-64.856 36.053l16.072 18.821 3.669-20.351z"/><path d="M-283.03 199.884l-16.072-18.821-.898 18.846z"/><path d="M-299.12 218.736l16.09-18.852-16.97.025zm16.09-18.852l-16.09 18.852 19.717 1.472zm17.47-.039l-17.47.039 3.627 20.324z"/><path d="M-283.03 199.884l17.47-.039-13.801-20.312zm10.534 38.839l13.759-19.201-20.666.686zm13.759-19.201l21.908-1.012-9.334-18.674z"/><path d="M-236.829 218.51l-21.908 1.012 9.932 17.423z"/><path d="M-258.737 219.522l-13.759 19.201 23.691-1.778zm-6.823-19.677l6.823 19.677 12.574-19.686z"/><path d="M-258.737 219.522l-6.823-19.677-13.843 20.363zm122.343 88.744l9.617-18.203-21.933.762zm0 0l-12.316-17.441-9.752 18.578zm0 0l-9.825 18.627 23.033-3.47z"/><path d="M-146.219 326.893l9.825-18.627-22.068 1.137zm98.18 7.579l-21.105 4.714 14.286 15.601zm-21.105 4.714l21.105-4.714-12.823-15.636zm-7.257 20.696l7.257-20.696-20.497 2.226zm7.257-20.696l-7.257 20.696 21.543-5.095zm-22.252 40.297l-10.103 20.505 20.665-.915z"/><path d="M-73.03 379.498l-18.366-.015 10.562 19.59zm-28.469 20.49l10.103-20.505-19.163.464z"/><path d="M-76.401 359.882l-14.995 19.601 18.366.015zm-16.654-57.75l20.794-.522-9.635-18.467zm0 0l11.159-18.989-21.385-.287zm-26.862 57.989l9.119-18.566-21.756.418zm-12.637-18.148l21.756-.418-12.388-18.132zm30.59-19.57l-8.834 19.152 21.157-.143z"/><path d="M-110.798 341.555l8.834-19.152-21.222 1.02zm-70.026-30.129l12.5 16.251 9.862-18.274z"/><path d="M-170.568 292.243l-10.256 19.183 22.362-2.023zm-11.223-56.237l-10.602-18.058-11.355 18.225zm0 0l10.478 18.522 11.353-18.856zm-10.571 18.735l10.571-18.735-21.957.167z"/><path d="M-181.791 236.006l-10.571 18.735 21.049-.213zm-31.697 18.715l21.126.02-11.386-18.568zm0 0l-9.511 19.025 20.686.114z"/><path d="M-213.488 254.721l-21.073.189 11.562 18.836zm21.126.02l-21.126-.02 11.175 19.139zm-33.66-18.383l12.534 18.363 9.74-18.548z"/><path d="M-213.488 254.721l-12.534-18.363-8.539 18.552zm-23.12-73.515l-22.002-1.029 12.447 19.659zm-11.909-18.36l11.909 18.36 11.026-17.706z"/><path d="M-236.608 181.206l22.312.448-11.286-18.154zm0 0l-11.909-18.36-10.093 17.331zm0 0l11.596 18.645 10.716-18.197z"/><path d="M-225.012 199.851l-11.596-18.645-9.555 18.63zm-59.811 76.566l9.052 18.994 11.543-19.186zm10.989-18.499l-10.989 18.499 20.595-.192zm-10.989 18.499l10.989-18.499-18.168-1.931zm-14.297-57.681l2.708 18.973 17.009-17.501zm2.708 18.973l23.916 1.014-6.907-18.515z"/><path d="M-272.496 238.723l-23.916-1.014 4.41 18.278zm0 0l-19.506 17.264 18.168 1.931zm20.855 91.674l8.232-19.685-21.303 2.727zm8.232-19.685l-11.071-16.87-10.232 19.597zm0 0l10.59-18.012-21.661 1.142zM-54.825 45.09l18.224-14.501-18.975-5.009zm-.751-19.51l18.975 5.009-2.907-21.228z"/><path d="M-36.601 30.589l17.083-13.687-19.99-7.541zm0 0l19.402 7.341-2.319-21.028zm19.402 7.341l-19.402-7.341 3.068 20.512zm-139.064 16.42l-21.401.297 9.2 17.83zm-21.401.297l-8.051-17.044-15.581 13.035zm-13.869 14.943l13.869-14.943-23.632-4.009z"/><path d="M-177.664 54.647l-13.869 14.943 23.069 2.887zm-3.103 34.288l-21.531-2.638 10.709 20.423zm12.303-16.458l-12.303 16.458 22.216 1.863z"/><path d="M-180.767 88.935l-10.766-19.345-10.765 16.707z"/><path d="M-191.533 69.59l10.766 19.345 12.303-16.458zm-10.765 16.707l-9.368 20.859 20.077-.436z"/><path d="M-211.666 107.156l9.368-20.859-19.034 2.124zm0 0l9.774 19.253 10.303-19.689z"/><path d="M-201.892 126.409l-9.774-19.253-11.027 19.157zm-9.774-19.253l-20.977.172 9.95 18.985z"/><path d="M-232.643 107.328l20.977-.172-9.666-18.735zm-32.045-20.816l10.313 19.606 11.035-16.809z"/><path d="M-254.375 106.118l-10.313-19.606-11.036 17.977zm0 0l21.732 1.21-10.697-18.019zm21.732 1.21l-21.732-1.21 10.72 19.519zm112.561-67.487l-12.647 18.165 21.798.321zm-12.647 18.165l-23.534-3.656 9.856 18.782z"/><path d="M-156.263 54.35l23.534 3.656-9.309-17.479z"/><path d="M-132.729 58.006l12.647-18.165-21.956.686zm0 0l9.398 18.461 12.4-18.14z"/><path d="M-123.331 76.467l-9.398-18.461-13.678 15.126zm-27.382-52.805l8.675 16.865 11.685-18.963zm7.11-18.858l-7.11 18.858 20.36-2.098z"/><path d="M-165.22 10.926l14.507 12.736 7.11-18.858zM-101.62 0l10.119 20.466L-80.936.904zm25.167 40l21.628 5.09-.751-19.51zm0 0l7.367 20.594 14.261-15.504zm0 0l-13.239 18.392 20.606 2.202zm-15.048-19.534L-76.453 40l3.345-19.567zm-133.511 179.385l21.868.034-11.152-18.231z"/><path d="M-214.296 181.654l11.152 18.231 11.297-17.906zm21.903 36.294l-10.751-18.063-11.494 18.249zm-10.751-18.063l-21.868-.034 10.374 18.283zm22.212.056l-22.212-.056 10.751 18.063z"/><path d="M-203.144 199.885l22.212.056-10.915-17.962zm104.104 19.681l-16.567-15.396-8.776 15.959zm-16.567-15.396l16.567 15.396-.931-22.988zm15.636-7.592l1.298-19.586-22.512 6.449zm-15.636 7.592l-20.239-3.772 11.463 19.731zm-158.136-62.241l-11.023-18.495-7.184 20.388zm1.401 19.147l-19.608-17.254-4.423 18.255zm190.67 160.125l-20.292 1.202 12.323 19.009zm0 0l12.528 17.985 8.282-20.35z"/><path d="M-72.261 301.61l-9.411 19.591 20.81-2.365z"/><path d="M-69.144 339.186l-12.528-17.985-7.969 20.211z"/><path d="M-81.672 321.201l-11.383-19.069-8.909 20.271z"/><path d="M-93.055 302.132l11.383 19.069 9.411-19.591zm-8.909 20.271l-11.385-18.52-9.837 19.54zm-11.385-18.52l-23.045 4.383 13.208 15.157zm-13.428-13.82l13.428 13.82 10.068-21.027z"/><path d="M-136.394 308.266l23.045-4.383-13.428-13.82zm23.045-4.383l20.294-1.751-10.226-19.276zm20.294-1.751l-20.294 1.751 11.385 18.52zm1.659 77.351l-7.098-19.163-12.065 19.627zm-7.098-19.163l22.093-.438-13.24-18.47z"/><path d="M-98.494 360.32l-21.423-.199 9.358 19.826zm0 0l7.098 19.163 14.995-19.601z"/><path d="M-98.494 360.32l-12.304-18.765-9.119 18.566z"/><path d="M-110.798 341.555l12.304 18.765 8.853-18.908zm-90.406 7.915l9.727-18.84-22.633 4.394zm9.727-18.84l-10.952-16.652-11.681 21.046zm0 0l13.957 14.827 9.196-17.78z"/><path d="M-177.52 345.457l-13.957-14.827-9.727 18.84zm-13.957-14.827l10.653-19.204-21.605 2.552zm10.653-19.204l-10.653 19.204 23.153-2.953zm-11.046-17.737l9.989-19.748-20.432-.081zm-20.03-.671l20.03.671-10.443-19.829zm30.019-19.077l-9.989 19.748 21.302-1.446zm-20.548 40.037l10.559-20.289-20.03-.671zm10.559-20.289l11.046 17.737 10.256-19.183z"/><path d="M-180.824 311.426l-11.046-17.737-10.559 20.289zm33.482-93.671l-22.691.015 10.073 17.902z"/><path d="M-170.033 217.77l22.691-.015-11.095-17.7zm0 0l-10.899-17.829-11.461 18.007z"/><path d="M-180.932 199.941l10.899 17.829 11.596-17.715zm-.859 36.065l11.758-18.236-22.36.178zm11.758-18.236l-11.758 18.236 21.831-.334zm-44.077 117.254l-17.536-7.118-4.355 18.729z"/><path d="M-231.646 327.906l-19.995 2.491 15.64 16.238z"/><path d="M-214.11 335.024l-21.891 11.611 15.031 12.626zm-17.536-7.118l-11.763-17.194-8.232 19.685zm65.615-293.094l9.768 19.538 14.225-13.823zm0 0l.811-23.886-18.488 7.428z"/><path d="M-177.664 54.647l11.633-19.835-19.684 2.791z"/><path d="M-166.031 34.812l-11.633 19.835 21.401-.297zm0 0l15.318-11.15-14.507-12.736zm15.318-11.15l-15.318 11.15 23.993 5.715zm30.631 16.179l9.383-19.818-19.654 1.541z"/><path d="M-110.699 20.023l-11.891-18.75-7.763 20.291z"/><path d="M-101.62 0l-9.079 20.023 19.198.443z"/><path d="M-110.699 20.023L-101.62 0l-20.97 1.273zm21.678 114.618l-18.696 6.371 12.587 15.114zm-91.783 29.679l-22.288-.47 11.245 18.129zm-103.962-40.886l20.653.238-11.611-19.183zm20.653.238l9.21 20.663 11.248-18.698zm0 0l9.738-17.554-21.349-1.629z"/><path d="M-254.375 106.118l-9.738 17.554 20.458 1.965zm-9.738 17.554l-9.63 18.257 18.84 2.406z"/><path d="M-273.743 141.929l9.63-18.257-20.653-.238zm15.133 38.248l-13.732-19.101-7.019 18.457z"/><path d="M-248.517 162.846l-23.825-1.77 13.732 19.101zm-23.825-1.77l-24.031 1.001 17.012 17.456z"/><path d="M-254.903 144.335l-17.439 16.741 23.825 1.77zm-17.439 16.741l-1.401-19.147-18.207 1.893zm-1.401-19.147l1.401 19.147 17.439-16.741zm71.314 172.049l-19.009-2.321 7.328 23.367zm-19.009-2.321l19.009 2.321-9.471-20.96zm-11.381-18.957l11.381 18.957 9.538-18.639z"/><path d="M-243.409 310.712l21.971.945-11.381-18.957zm11.763 17.194l10.208-16.249-21.971-.945zm10.208-16.249l-10.208 16.249 17.536 7.118zm122.82-272.07l-21.464.254 9.151 18.486zm22.165.413l-22.165-.413 8.926 18.805z"/><path d="M-89.692 58.392l-8.926-18.805-12.313 18.74zm-8.926-18.805l22.165.413-15.048-19.534z"/><path d="M-110.699 20.023l12.081 19.564 7.117-19.121zm12.081 19.564l-12.081-19.564-9.383 19.818zm-50.108 69.813l12.167-17.719-21.992-.883zm-53.166 17.009l20.518.204-10.215-19.893zm94.175 14.603l4.431-24.409-16.676 10.541z"/><path d="M-107.717 141.012l18.696-6.371-14.265-18.038zm-28.129 59.386l-9.849-17.374-12.742 17.031zm20.928-37.363l16.245 13.957 3.543-20.866z"/><path d="M-107.717 141.012l-7.201 22.023 19.788-6.909zm-62.631-32.716l-10.419-19.361-10.822 17.785zm-10.419-19.361l10.419 19.361 11.797-17.498zm10.419 19.361l21.622 1.104-9.825-18.602zm21.622 1.104l-21.622-1.104 9.792 19.46zm-21.622-1.104l-11.026 18.317 20.818 1.143z"/><path d="M-181.374 126.613l11.026-18.317-21.241-1.576zm-10.277 18.981l-10.241-19.185-11.102 18.939zm-11.441 18.256l11.441-18.256-21.343-.246zm22.288.47l-10.847-18.726-11.441 18.256z"/><path d="M-191.651 145.594l10.277-18.981-20.518-.204zm55.092-53.913l9.649 18.064 13.474-13.897zm23.123 4.167l-13.474 13.897 23.624 6.858z"/><path d="M-148.726 109.4l21.816.345-9.649-18.064zm21.816.345l6.948 17.399 16.676-10.541zm-42.198 72.672l-11.824 17.524 22.495.114z"/><path d="M-180.932 199.941l11.824-17.524-22.739-.438zm11.824-17.524l-11.696-18.097-11.043 17.659z"/><path d="M-145.695 183.024l-23.413-.607 10.671 17.638zm30.088 21.146l-5.578-20.729-14.661 16.957zm15.636-7.592l-21.214-13.137 5.578 20.729zm-21.214-13.137l-24.51-.417 9.849 17.374zm-24.51-.417l24.51.417-14.906-17.288z"/><path d="M-121.185 183.441l6.267-20.406-21.173 3.118zm6.267-20.406l-6.267 20.406 22.512-6.449zm-21.173 3.118l7.733-19.291-20.766.438zm16.129-39.009l-8.396 19.718 20.641-5.85zm-8.396 19.718l13.44 16.173 7.201-22.023z"/><path d="M-114.918 163.035l-13.44-16.173-7.733 19.291zm-66.456-36.422l10.98 19.584 9.838-18.441zm20.818 1.143l-9.838 18.441 21.27 1.103z"/><path d="M-191.651 145.594l21.257.603-10.98-19.584zm21.257.603l-21.257-.603 10.847 18.726zm30.313-17.915l-8.645-18.882-11.83 18.356zm0 0l-20.475-.526 11.432 19.544zm0 0l13.171-18.537-21.816-.345zm13.171-18.537l-13.171 18.537 20.119-1.138zm-13.171 18.537l11.723 18.58 8.396-19.718zm11.723 18.58l-11.723-18.58-9.043 19.018zm-40.75 35.555l10.603-17.245-22.299-.852zm10.603-17.245l22.414.981-13.033-18.853zm0 0l12.81 17.852 9.604-16.871z"/><path d="M-158.505 165.172l-10.603 17.245 23.413.607zm0 0l-11.889-18.975-10.41 18.123z"/><path d="M-170.394 146.197l11.889 18.975 9.381-17.872z"/></svg>