<svg xmlns="http://www.w3.org/2000/svg" viewBox="-50.859 0 100 101.713"><style>path{fill:none;stroke:#969696;stroke-width:.5;stroke-linejoin:bevel}</style><path d="M42.644 67.151l5.115 1.188-3.042-5.558z"/><path d="M44.717 62.781l3.042 5.558 1.382-4.378zM42.644 67.151l2.073-4.37-4.618-1.231zM45.964 29.087l-2.293-4.296-2.86 5.452zM-48.913 64.788l1.719 5.025 2.865-4.629zM-29.178 55.458l-5.61.066 2.753 4.482zM-34.282 64.605l5.364.032-3.117-4.631z"/><path d="M-34.788 55.524l-2.406-4.667-3.167 4.891zM4.825 101.486l5.251-.779-3.32-4.359zM-20.062 97.591l4.475 1.677-1.894-5.878zM-4.124 41.854l-5.628-.027 3.211 4.465z"/><path d="M-9.752 41.827l5.628.027-3.441-4.649zM-20.979 32.121l-2.716-4.948-2.459 5.065z"/><path d="M-18.389 27.411l-5.306-.238 2.716 4.948zM-.451 0l-5.252.319 2.414 4.577zM-2.058 18.786l-2.988 4.184 5.589.565zM-12.583 7.6l-2.662 5.359 5.037.058zM-5.703.319l-2.774 4.679 5.188-.102z"/><path d="M-8.477 4.998L-5.703.319l-5.337.892zM40.099 61.55l-4.707-1.256 1.988 5.88zM-5.152 69.341l-2.634 4.769 5.353-.107zM3.206 28.253L.164 32.307l5.662.76zM22.778 15.664l3.076 4.007 2.883-4.607zM33.78 12.836l-4.061-3.252-.982 5.48zM19.964 45.533l5.158-1.376-3.511-3.861zM28.157 23.941l-2.303-4.27-3.077 4.861zM26.368 38.684l-1.246 5.473 4.988-1.33z"/><path d="M25.122 44.157l1.246-5.473-4.757 1.612zM-39.521 64.681l-4.328-4.227-.48 4.73zM-34.053 27.709l-5.53-.172 2.838 4.787zM-28.918 64.637l-2.502 4.705 5.266.133z"/><path d="M-34.282 64.605l2.862 4.737 2.502-4.705zM-45.654 55.914l1.805 4.54 3.488-4.706zM10.076 100.707l1.599-5.224-4.919.865zM11.675 95.483l3.588 3.888 1.46-4.819z"/><path d="M15.263 99.371l-3.588-3.888-1.599 5.224zM2.749 64.915l3.077 3.732 1.415-5.795zM-23.563 64.719l-5.355-.082 2.764 4.838zM-.543 46.093l-3.581-4.239-2.417 4.438z"/><path d="M-.543 46.093l2.005-4.736-5.586.497zM-9.752 59.886l3.211-4.465-5.796-.01zM-12.337 46.302l2.585-4.475-5.578-.107z"/><path d="M-9.752 41.827l-2.585 4.475 5.796-.01zM-18.239 36.98l-2.617 4.698 5.526.042zM-5.046 22.97l-5.328-.199 2.588 4.833zM-10.374 22.771l-2.673 4.808 5.261.025zM-28.731 27.506l2.211-5.367-4.772.807z"/><path d="M-34.053 27.709l5.322-.203-2.561-4.56z"/><path d="M-28.731 27.506l5.036-.333-2.825-5.034z"/><path d="M-23.695 27.173l-5.036.333 2.577 4.732zM-21.096 22.553l-2.8-4.751-2.624 4.337z"/><path d="M-23.896 17.802l2.8 4.751 2.987-4.394zM-21.096 22.553l-2.599 4.62 5.306.238z"/><path d="M-23.695 27.173l2.599-4.62-5.424-.414zM-17.481 8.323l2.236 4.636 2.662-5.359zM31.603 82.805l-5.749-.763 2.883 4.608zM37.221 85.514l3.54-4.242-4.913-.517zM45.964 72.626l1.795-4.287-5.115-1.188zM-5.152 69.341l2.754-4.712-5.167-.121zM1.462 60.356l5.779 2.496-1.935-5.551zM4.623 52.09l.683 5.211 4.252-3.896zM14.62 54.755l1.422 4.825 3.922-3.4zM3.206 28.253L6.1 23.936l-5.557-.401zM-2.433 27.71l-2.613-4.74-2.74 4.634z"/><path d="M-5.046 22.97l2.613 4.74 2.976-4.175zM-2.433 27.71l5.639.543-2.663-4.718zM3.206 28.253l-5.639-.543 2.597 4.597z"/><path d="M-2.433 27.71l-2.719 4.663 5.316-.066zM-5.152 32.373l2.719-4.663-5.353-.106zM-10.388 32.394l5.236-.021-2.634-4.769zM-13.047 27.579l2.659 4.815 2.602-4.79zM-5.152 32.373l-5.236.021 2.823 4.811zM16.042 42.133l5.569-1.837-3.715-2.891z"/><path d="M22.205 34.362l-4.309 3.043 3.715 2.891z"/><path d="M17.896 37.405l4.309-3.043-6.007-1.107zM29.719 9.584l-4.585 1.927 3.603 3.553z"/><path d="M25.134 11.511l4.585-1.927-4.713-3.014zM25.134 11.511l-2.356 4.153 5.959-.6zM21.611 61.417l3.511-3.861-5.158-1.376z"/><path d="M26.368 63.03l-1.246-5.474-3.511 3.861z"/><path d="M25.122 57.556l1.246 5.474 3.742-4.144zM33.111 24.877l-4.954-.936 1.894 5.009zM35.392 41.419l-3.583-3.511-1.699 4.919z"/><path d="M31.809 37.908l-5.441.776 3.742 4.143zM-37.813 60.088l3.025-4.564-5.573.224zM-37.813 60.088l3.531 4.517 2.247-4.599z"/><path d="M-34.788 55.524l-3.025 4.564 5.778-.082zM-34.282 64.605l-3.531-4.517-1.708 4.593zM-37.813 60.088l-6.036.366 4.328 4.227z"/><path d="M-43.849 60.454l6.036-.366-2.548-4.34zM-31.292 78.767l-2.73 3.936 4.328 1.993z"/><path d="M-26.52 79.574l-4.772-.807 1.598 5.929zM-20.36 87.839l2.879 5.551 2.236-4.636zM-45.034 27.222l5.451.315-2.824-4.757zM-36.892 23.311l2.839 4.398 2.761-4.763z"/><path d="M-36.892 23.311l-2.433-4.706-3.082 4.175zM-36.892 23.311l-2.691 4.226 5.53.172z"/><path d="M-39.583 27.537l2.691-4.226-5.515-.531zM-36.745 69.39l2.463-4.785-5.239.076zM-36.745 69.39l5.325-.048-2.862-4.737zM-43.849 60.454l-5.064 4.334 4.584.396z"/><path d="M-43.849 60.454l-6.131-.186 1.067 4.52z"/><path d="M-45.654 55.914l-4.326 4.354 6.131.186z"/><path d="M-49.98 60.268l4.326-4.354-4.988-.363zM-37.194 50.857h-4.939l1.772 4.891z"/><path d="M-42.133 50.857l-3.521 5.057 5.293-.166zM15.263 99.371l5.299-1.998-3.839-2.821zM14.754 81.868l2.838 4.606 2.549-4.905zM14.449 90.439l-2.774 5.044 5.048-.931zM10.722 68.007l1.867-4.407-5.348-.748z"/><path d="M5.826 68.647l4.896-.64-3.481-5.155zM3.456 82.469l2.881 4.333 2.659-4.741zM6.337 86.802l-2.881-4.333-2.503 4.795zM-15.685 69.439l-2.704 4.864 5.342-.169zM-7.786 74.11l-2.602-4.79-2.659 4.814zM-10.388 69.32l5.236.021-2.413-4.833z"/><path d="M-5.152 69.341l-5.236-.021 2.602 4.79zM-10.388 69.32l-5.297.119 2.638 4.695zM-20.856 60.035l-2.707 4.684 5.324.015zM-4.473 50.857l3.93-4.764-5.998.199zM-.543 46.093l-3.93 4.764H0zM-2.398 37.084l-2.754-4.711-2.413 4.832zM-4.124 41.854l1.726-4.77-5.167.121zM-5.152 32.373l2.754 4.711 2.562-4.777zM1.462 41.357l-3.86-4.273-1.726 4.77z"/><path d="M5.306 44.412l-5.849 1.681 5.166 3.531zM4.623 49.624l-5.166-3.531L0 50.857z"/><path d="M5.306 44.412l-3.844-3.055-2.005 4.736zM4.623 49.624l4.935-1.316-4.252-3.896zM-15.273 50.857l-2.716-4.578-2.817 4.578zM-20.856 41.678l2.867 4.601 2.659-4.559z"/><path d="M-12.337 46.302l-5.652-.023 2.716 4.578z"/><path d="M-17.989 46.279l5.652.023-2.993-4.582zM-23.563 36.994l2.584-4.873-5.175.117z"/><path d="M-23.563 36.994l5.324-.014-2.74-4.859zM-20.856 41.678l-2.707-4.684-2.84 4.701z"/><path d="M-18.239 36.98l-5.324.014 2.707 4.684z"/><path d="M-23.563 36.994l-5.355.082 2.515 4.619z"/><path d="M-28.918 37.076l5.355-.082-2.591-4.756zM-32.035 41.708l2.857 4.547 2.775-4.56zM-29.178 46.255l-2.857-4.547-2.753 4.482zM-32.035 41.708l3.117-4.632-5.364.032z"/><path d="M-28.918 37.076l-3.117 4.632 5.632-.013zM-26.52 22.139l-3.174-5.122-1.598 5.929z"/><path d="M-23.896 17.802l-5.798-.785 3.174 5.122zM-12.902 17.882l-2.343-4.923-2.864 5.2zM-15.245 12.959l2.343 4.923 2.694-4.865zM-31.42 32.372l2.502 4.704 2.764-4.838zM-31.42 32.372l-2.633-4.663-2.692 4.615z"/><path d="M-34.282 37.108l2.862-4.736-5.325-.048z"/><path d="M-28.918 37.076l-2.502-4.704-2.862 4.736zM-31.42 32.372l2.689-4.866-5.322.203zM-28.731 27.506l-2.689 4.866 5.266-.134zM-6.804 9.429L-12.583 7.6l2.375 5.417zM-6.804 9.429l5.443.226-1.928-4.759z"/><path d="M-8.477 4.998l1.673 4.431 3.515-4.533z"/><path d="M-6.804 9.429l-1.673-4.431-4.106 2.602zM-6.804 9.429l2.273 4.627 3.17-4.401z"/><path d="M-4.531 14.056l-2.273-4.627-3.404 3.588zM-15.245 12.959l-5.115.916 2.251 4.284zM-20.36 13.875l-3.536 3.927 5.787.357zM-17.481 8.323l-2.879 5.552 5.115-.916zM-12.583 7.6l4.106-2.602-2.563-3.787z"/><path d="M-12.583 7.6l1.543-6.389-4.547 1.235zM-17.481 8.323l1.894-5.877-4.475 1.676z"/><path d="M-15.587 2.446l-1.894 5.877 4.898-.723zM25.854 82.042l-3.077-4.861-2.636 4.388zM31.603 82.805l5.618 2.709-1.373-4.759zM29.719 92.129l4.061-3.252-5.043-2.227z"/><path d="M33.78 88.877l-2.177-6.072-2.866 3.845z"/><path d="M31.603 82.805l2.177 6.072 3.441-3.363zM-.543 55.62l5.166-3.53L0 50.857zM-.543 55.62l-3.93-4.763-2.068 4.564z"/><path d="M-4.473 50.857l3.93 4.763L0 50.857zM3.206 73.461L.164 69.406l-2.597 4.597z"/><path d="M.164 69.406l-5.316-.065 2.719 4.662zM.164 69.406l5.662-.759-3.077-3.732z"/><path d="M5.826 68.647l-5.662.759 3.042 4.055z"/><path d="M.164 69.406l-2.562-4.777-2.754 4.712z"/><path d="M-2.398 64.629l2.562 4.777 2.585-4.491zM12.589 63.6l-2.037-4.994-3.311 4.246zM10.552 58.606l4.068-3.851-5.062-1.35z"/><path d="M10.552 58.606l-5.246-1.305 1.935 5.551z"/><path d="M5.306 57.301l5.246 1.305-.994-5.201zM16.042 59.58l-5.49-.974 2.037 4.994z"/><path d="M10.552 58.606l5.49.974-1.422-4.825zM21.611 61.417l-1.647-5.237-3.922 3.4zM21.611 61.417l-3.715 2.891 4.309 3.043zM21.611 61.417l-5.569-1.837 1.854 4.728zM17.896 64.308l-1.854-4.728-3.453 4.02zM31.809 63.805l3.583-3.511-5.282-1.408zM26.368 63.03l5.441.775-1.699-4.919zM-9.752 41.827l-3.126-4.72-2.452 4.613z"/><path d="M-12.878 37.107l3.126 4.72 2.187-4.622zM-12.878 37.107l-5.361-.127 2.909 4.74zM-10.388 32.394l-2.49 4.713 5.313.098zM8.686 28.597l-5.48-.344 2.62 4.814zM6.1 23.936l2.586 4.661 3.024-4.461z"/><path d="M8.686 28.597L6.1 23.936l-2.894 4.317zM8.686 28.597l5.265.319-2.241-4.78zM12.589 38.114l5.307-.709-1.698-4.15zM22.205 34.362l4.163 4.322 1.068-4.834z"/><path d="M22.205 34.362l-.594 5.934 4.757-1.612zM19.738 29.412l-5.787-.496 2.247 4.339zM22.205 34.362l-2.467-4.95-3.54 3.843zM-1.361 9.655l3.114-4.741-5.042-.018z"/><path d="M1.753 4.914L-.451 0l-2.838 4.896zM.953 14.449l-5.484-.393 2.473 4.73z"/><path d="M-4.531 14.056l5.484.393-2.314-4.794zM14.754 19.846l-5.758-.194 2.714 4.484z"/><path d="M8.996 19.652L6.1 23.936l5.61.2zM25.854 19.671l-5.713.473 2.636 4.388z"/><path d="M22.778 15.664l-2.637 4.48 5.713-.473zM43.671 24.791l-5.068.702 2.208 4.75zM28.157 23.941l3.446-5.033-5.749.763zM25.854 19.671l5.749-.763-2.866-3.844z"/><path d="M31.603 18.908l2.177-6.072-5.043 2.228zM33.111 24.877l-1.508-5.969-3.446 5.033zM35.755 29.836l-2.644-4.959-3.06 4.073z"/><path d="M35.755 29.836l2.848-4.343-5.492-.616zM38.603 25.493l-2.848 4.343 5.056.407zM44.717 38.932l3.042-5.558-5.115 1.189zM47.759 33.374l-3.042 5.558 4.424-1.18zM42.644 34.563l3.32-5.476-5.153 1.156zM40.099 40.164l2.545-5.601-5.264.977z"/><path d="M44.717 38.932l-2.073-4.369-2.545 5.601zM42.644 34.563l5.115-1.189-1.795-4.287zM-32.213 90.213l5.783-1.746-3.264-3.771zM-29.694 84.696l-4.328-1.993-1.67 4.384zM-31.42 69.342l2.689 4.865 2.577-4.732zM-26.52 79.574l-2.211-5.367-2.561 4.56zM-10.374 78.942l2.588-4.832-5.261.024zM-10.374 78.942l-2.528 4.889 5.247-.205zM-23.896 83.911l-2.624-4.337-3.174 5.122z"/><path d="M-26.43 88.467l2.534-4.556-5.798.785zM-26.52 79.574l2.624 4.337 2.8-4.751zM-20.36 87.839l-3.536-3.928-2.534 4.556zM-22.346 91.738l2.284 5.853 2.581-4.201z"/><path d="M-20.062 97.591l-2.284-5.853-1.937 3.806zM-20.36 87.839l-1.986 3.899 4.865 1.652z"/><path d="M-22.346 91.738l1.986-3.899-6.07.628zM-41.958 31.943l-3.076-4.721-2.16 4.678zM-39.583 27.537l-2.375 4.406 5.213.381z"/><path d="M-45.034 27.222l3.076 4.721 2.375-4.406zM-37.194 50.857h5.357l-2.951-4.667zM-29.178 55.458l-2.659-4.601-2.951 4.667zM-31.837 50.857h-5.357l2.406 4.667zM-31.837 50.857l2.659-4.602-5.61-.065z"/><path d="M-26.339 50.857h-5.498l2.659 4.601zM-31.837 50.857h5.498l-2.839-4.602zM-47.194 69.813l5.236-.043-2.371-4.586zM-41.958 69.77l2.437-5.089-4.808.503zM-41.958 69.77l5.213-.38-2.776-4.709zM-45.654 55.914l-.909-5.057-4.079 4.694z"/><path d="M-50.642 55.551l4.079-4.694h-4.296zM-46.563 50.857l-4.079-4.694-.217 4.694zM-42.133 50.857h-4.43l.909 5.057zM3.901 91.77l2.436-4.968-5.384.462zM25.854 82.042l-3.076 4.007 5.959.601z"/><path d="M22.778 86.049l3.076-4.007-5.713-.473z"/><path d="M17.592 86.474l5.186-.425-2.637-4.48zM11.827 86.235l2.927-4.367-5.758.193zM6.337 86.802l5.49-.567-2.831-4.174zM14.754 81.868l-2.927 4.367 5.765.239z"/><path d="M11.827 86.235l2.622 4.204 3.143-3.965zM14.754 81.868l-3.044-4.291-2.714 4.484zM3.456 82.469l-5.514.458 3.011 4.337zM-15.587 99.268l3.004-5.155-4.898-.723z"/><path d="M-17.481 93.39l4.898.723-2.662-5.359zM-20.979 69.592l5.294-.153-2.554-4.705zM-20.979 69.592l-2.584-4.873-2.591 4.756z"/><path d="M-23.563 64.719l2.584 4.873 2.74-4.858zM-20.979 69.592l2.59 4.711 2.704-4.864zM-9.752 59.886l-3.126 4.72 5.313-.098z"/><path d="M-15.685 69.439l2.807-4.833-5.361.128zM-10.388 69.32l-2.49-4.714-2.807 4.833z"/><path d="M-12.878 64.606l2.49 4.714 2.823-4.812zM-26.403 60.018l-2.775-4.56-2.857 4.548zM-28.918 64.637l2.515-4.619-5.632-.012z"/><path d="M-23.563 64.719l-2.84-4.701-2.515 4.619z"/><path d="M-20.856 60.035l-5.547-.017 2.84 4.701zM-15.273 50.857l-2.716 4.578 5.652-.024z"/><path d="M-17.989 55.435l2.716-4.578h-5.533zM-9.771 50.857h-5.502l2.936 4.554zM-9.771 50.857l-2.566-4.555-2.936 4.555zM-6.541 55.421l-3.23-4.564-2.566 4.554z"/><path d="M-12.337 46.302l2.566 4.555 3.23-4.565zM-4.473 50.857h-5.298l3.23 4.564z"/><path d="M-9.771 50.857h5.298l-2.068-4.565zM2.749 36.798l4.492 2.063-1.415-5.794zM.164 32.307l2.585 4.491 3.077-3.731z"/><path d="M7.241 38.861l-5.779 2.496 3.844 3.055zM7.241 38.861l-4.492-2.063-1.287 4.559z"/><path d="M2.749 36.798l-5.147.286 3.86 4.273z"/><path d="M-2.398 37.084l5.147-.286-2.585-4.491zM-23.583 46.269l2.727-4.591-5.547.017zM-23.583 46.269l-2.756 4.588h5.533z"/><path d="M-29.178 46.255l5.595.014-2.82-4.574z"/><path d="M-26.339 50.857l2.756-4.588-5.595-.014zM-23.583 46.269l5.594.01-2.867-4.601zM-17.989 46.279l-5.594-.01 2.777 4.588zM-2.058 18.786l-5.597-.699 2.609 4.883zM-7.655 18.087l3.124-4.031-5.677-1.039zM-7.655 18.087l-2.719 4.684 5.328.199zM-4.531 14.056l-3.124 4.031 5.597.699z"/><path d="M-7.655 18.087l-5.247-.205 2.528 4.889zM-12.902 17.882l5.247.205-2.553-5.07zM-10.374 22.771l-5.251.031 2.578 4.777z"/><path d="M-13.047 27.579l-2.578-4.777-2.764 4.609zM-21.096 22.553l5.471.249-2.484-4.643z"/><path d="M-15.625 22.802l-5.471-.249 2.707 4.858zM-15.625 22.802l2.723-4.92-5.207.277zM-12.902 17.882l-2.723 4.92 5.251-.031zM-22.346 9.975l4.865-1.652-2.581-4.201zM-22.346 9.975l2.284-5.853-4.221 2.048zM-28.347 8.63l6.001 1.345-1.937-3.805zM-22.346 9.975l1.986 3.9 2.879-5.552zM-4.124 59.86l-5.628.026 2.187 4.622zM-9.752 59.886l5.628-.026-2.417-4.439z"/><path d="M-2.398 64.629l-1.726-4.769-3.441 4.648zM-4.124 59.86l3.581-4.24-5.998-.199zM-18.239 36.98l2.554-4.705-5.294-.154z"/><path d="M-15.685 32.275l-2.704-4.864-2.59 4.71z"/><path d="M-15.685 32.275l2.638-4.696-5.342-.168z"/><path d="M-15.685 32.275l5.297.119-2.659-4.815z"/><path d="M-15.685 32.275l2.807 4.832 2.49-4.713z"/><path d="M-12.878 37.107l-2.807-4.832-2.554 4.705zM10.722 33.706l-2.036-5.109-2.86 4.47z"/><path d="M7.241 38.861l3.481-5.155-4.896-.639zM13.951 28.916l-3.229 4.79 5.476-.451z"/><path d="M8.686 28.597l2.036 5.109 3.229-4.79z"/><path d="M12.589 38.114l-1.867-4.408-3.481 5.155z"/><path d="M10.722 33.706l1.867 4.408 3.609-4.859zM10.552 43.107l-.994 5.201 5.062-1.35z"/><path d="M9.558 48.308l.994-5.201-5.246 1.305z"/><path d="M10.552 43.107l-3.311-4.246-1.935 5.551z"/><path d="M10.552 43.107l2.037-4.993-5.348.747zM28.157 23.941l-3.201 5.207 5.095-.198zM24.956 29.148l2.48 4.702 2.615-4.9z"/><path d="M24.956 29.148l3.201-5.207-5.38.591zM27.436 33.85l-2.48-4.702-2.751 5.214zM24.956 29.148l-5.218.264 2.467 4.95z"/><path d="M19.738 29.412l5.218-.264-2.179-4.616zM3.901 9.943L1.753 4.914l-3.114 4.741zM.953 14.449l2.948-4.506-5.262-.288zM1.753 4.914L4.825.227-.451 0zM25.134 11.511l-4.787-1.133 2.431 5.286zM14.449 11.275L11.675 6.23l-2.558 4.365zM6.1 23.936l-2.644-4.692-2.913 4.291z"/><path d="M3.456 19.244l-5.514-.458 2.601 4.749z"/><path d="M3.456 19.244L.953 14.449l-3.011 4.337zM8.996 19.652l-5.54-.408L6.1 23.936zM11.827 15.478l2.622-4.203-5.332-.68zM11.827 15.478l-2.831 4.174 5.758.194zM13.951 28.916l3.299-4.199-5.54-.581zM17.25 24.717l2.488 4.695 3.039-4.88z"/><path d="M17.25 24.717l-2.496-4.871-3.044 4.29zM19.738 29.412l-2.488-4.695-3.299 4.199z"/><path d="M17.25 24.717l2.891-4.573-5.387-.298zM20.141 20.144l-2.891 4.573 5.527-.185zM40.761 20.441l-2.158 5.052 5.068-.702zM31.809 37.908l.801-4.527-5.174.469z"/><path d="M27.436 33.85l5.174-.469-2.559-4.431zM31.809 37.908l-4.373-4.058-1.068 4.834zM32.61 33.381l3.145-3.545-5.704-.886zM-35.692 87.087l1.67-4.384-5.303.405zM-29.694 84.696l-5.998 2.391 3.479 3.126zM-36.745 69.39l2.692 4.614 2.633-4.662zM-34.053 74.004l5.322.203-2.689-4.865z"/><path d="M-28.731 74.207l-5.322-.203 2.761 4.763zM-18.389 74.303l2.764 4.609 2.578-4.778zM-15.625 78.912l-2.764-4.609-2.707 4.857zM-10.374 78.942l-5.251-.03 2.723 4.919z"/><path d="M-15.625 78.912l5.251.03-2.673-4.808zM-32.213 90.213l3.866 2.87 1.917-4.616zM-28.347 93.083l6.001-1.345-4.084-3.271zM-22.346 91.738l-6.001 1.345 4.064 2.461zM-45.034 74.491l3.076-4.721-5.236.043zM3.901 91.77l-2.148 5.029 5.003-.451zM1.753 96.799l3.072 4.687 1.931-5.138zM25.134 90.203l4.585 1.926-.982-5.479z"/><path d="M29.719 92.129l-4.585-1.926-.128 4.94z"/><path d="M20.347 91.335l4.659 3.808.128-4.94zM22.778 86.049l2.356 4.154 3.603-3.553zM9.117 91.118l-5.216.652 2.855 4.578zM11.675 95.483l-2.558-4.365-2.361 5.23zM14.449 90.439l-5.332.679 2.558 4.365zM3.901 91.77l5.216-.652-2.78-4.316z"/><path d="M11.827 86.235l-2.71 4.883 5.332-.679z"/><path d="M9.117 91.118l2.71-4.883-5.49.567zM6.1 77.777l-2.644 4.692 5.54-.408z"/><path d="M11.71 77.577l-5.61.2 2.896 4.284zM22.777 77.181l-5.527-.184 2.891 4.572z"/><path d="M17.25 76.997l-2.496 4.871 5.387-.299z"/><path d="M17.25 76.997l-5.54.58 3.044 4.291zM-2.058 82.927l-2.473 4.73 5.484-.393zM-4.531 87.657l2.473-4.73-5.597.699zM-7.786 74.11l2.74 4.634 2.613-4.741zM-5.046 78.744l-5.328.198 2.719 4.684z"/><path d="M-10.374 78.942l5.328-.198-2.74-4.634zM-2.058 82.927l-2.988-4.183-2.609 4.882zM-5.703 101.395l-2.774-4.68-2.563 3.787zM-12.583 94.113l1.543 6.389 2.563-3.787z"/><path d="M-12.583 94.113l4.106 2.602 1.673-4.43zM-12.583 94.113l-3.004 5.155 4.547 1.234zM-23.695 74.54l-2.825 5.034 5.424-.414zM-18.389 74.303l-5.306.237 2.599 4.62zM-28.731 74.207l5.036.333-2.459-5.065zM-23.695 74.54l-5.036-.333 2.211 5.367z"/><path d="M-20.979 69.592l-2.716 4.948 5.306-.237z"/><path d="M-23.695 74.54l2.716-4.948-5.175-.117zM-26.339 50.857l2.756 4.587 2.777-4.587z"/><path d="M-23.583 55.444l-2.756-4.587-2.839 4.601zM-26.403 60.018l2.82-4.574-5.595.014zM-23.583 55.444l-2.82 4.574 5.547.017z"/><path d="M-17.989 55.435l-5.594.009 2.727 4.591z"/><path d="M-23.583 55.444l5.594-.009-2.817-4.578zM-15.33 59.993l-5.526.042 2.617 4.699z"/><path d="M-12.878 64.606l-2.452-4.613-2.909 4.741z"/><path d="M-15.33 59.993l5.578-.107-2.585-4.475zM-15.33 59.993l2.452 4.613 3.126-4.72zM-17.989 55.435l2.659 4.558 2.993-4.582z"/><path d="M-15.33 59.993l-2.659-4.558-2.867 4.6zM-34.022 19.01l-2.87 4.301 5.6-.365zM-39.325 18.605l5.303.405-1.67-4.384z"/><path d="M-36.892 23.311l2.87-4.301-5.303-.405zM-29.694 17.017l-4.328 1.993 2.73 3.936zM-29.694 17.017l-2.519-5.517-3.479 3.126z"/><path d="M-29.694 17.017l-5.998-2.391 1.67 4.384z"/><path d="M-26.43 13.246l-5.783-1.746 2.519 5.517zM-26.43 13.246l-3.264 3.771 5.798.785z"/><path d="M-20.36 13.875l-6.07-.629 2.534 4.556zM-32.213 11.5l5.783 1.746-1.917-4.616zM-22.346 9.975l-4.084 3.271 6.07.629z"/><path d="M-26.43 13.246l4.084-3.271-6.001-1.345zM1.462 60.356l-3.86 4.273 5.147.286z"/><path d="M1.462 60.356l1.287 4.559 4.492-2.063zM5.306 57.301l-.683-5.211-5.166 3.53z"/><path d="M5.306 57.301L-.543 55.62l2.005 4.736zM-4.124 59.86l5.586.496-2.005-4.736zM1.462 60.356l-5.586-.496 1.726 4.769zM27.436 67.863l4.373-4.058-5.441-.775zM35.755 71.877l-3.145-3.545-2.559 4.431zM19.964 45.533l-3.922-3.4-1.422 4.825zM12.589 38.114l3.453 4.019 1.854-4.728zM16.042 42.133l3.922 3.4 1.647-5.237z"/><path d="M10.552 43.107l5.49-.974-3.453-4.019zM16.042 42.133l-5.49.974 4.068 3.851zM25.006 6.57l-4.444-2.23-.215 6.038zM25.006 6.57l-4.659 3.808 4.787 1.133zM6.756 5.366L3.901 9.943l5.216.652z"/><path d="M4.825.227l1.931 5.139 3.32-4.36z"/><path d="M3.901 9.943l2.855-4.577-5.003-.452z"/><path d="M6.756 5.366L4.825.227 1.753 4.914zM6.756 5.366l4.919.864-1.599-5.224zM11.675 6.23l-4.919-.864 2.361 5.229zM20.347 10.378l-2.755 4.861 5.186.425zM20.141 20.144l-2.549-4.905-2.838 4.607z"/><path d="M17.592 15.239l2.549 4.905 2.637-4.48zM17.592 15.239l2.755-4.861-5.898.897z"/><path d="M11.827 15.478l5.765-.239-3.143-3.964zM17.592 15.239l-5.765.239 2.927 4.368zM3.456 19.244l2.881-4.332-5.384-.463z"/><path d="M6.337 14.912L3.901 9.943.953 14.449zM3.901 9.943l2.436 4.969 2.78-4.317zM6.337 14.912l-2.881 4.332 5.54.408z"/><path d="M11.827 15.478l-5.49-.566 2.659 4.74z"/><path d="M6.337 14.912l5.49.566-2.71-4.883zM37.221 16.199l-5.618 2.709 4.245 2.05zM38.603 25.493l-2.755-4.535-2.737 3.919z"/><path d="M37.221 16.199l-3.441-3.363-2.177 6.072z"/><path d="M35.848 20.958l-4.245-2.05 1.508 5.969zM40.761 20.441l-4.913.517 2.755 4.535zM35.848 20.958l4.913-.517-3.54-4.242zM35.755 29.836l1.625 5.704 3.431-5.297zM37.38 35.54l5.264-.977-1.833-4.32zM37.38 35.54l-5.571 2.368 3.583 3.511z"/><path d="M40.099 40.164L37.38 35.54l-1.988 5.879zM32.61 33.381l4.77 2.159-1.625-5.704z"/><path d="M37.38 35.54l-4.77-2.159-.801 4.527zM-36.892 78.402l-5.515.531 3.082 4.175zM-34.022 82.703l-2.87-4.301-2.433 4.706z"/><path d="M-36.892 78.402l2.87 4.301 2.73-3.936zM-34.053 74.004l-2.839 4.398 5.6.365zM-18.109 83.554l-2.251 4.285 5.115.915zM-12.902 83.831l-5.207-.277 2.864 5.2zM-23.896 83.911l5.787-.357-2.987-4.394z"/><path d="M-18.109 83.554l-5.787.357 3.536 3.928zM-15.625 78.912l-2.484 4.642 5.207.277zM-18.109 83.554l2.484-4.642-5.471.248zM-37.813 41.625l5.778.083-2.247-4.6z"/><path d="M-32.035 41.708l-5.778-.083 3.025 4.565zM1.753 96.799l-2.204 4.914 5.276-.227zM20.347 91.335l-5.898-.896 2.274 4.113zM20.562 97.373l-.215-6.038-3.624 3.217z"/><path d="M14.449 90.439l5.898.896-2.755-4.861z"/><path d="M20.347 91.335l2.431-5.286-5.186.425z"/><path d="M20.347 91.335l4.787-1.132-2.356-4.154zM20.347 91.335l.215 6.038 4.444-2.23zM8.686 73.117l-2.86-4.47-2.62 4.814z"/><path d="M8.686 73.117l2.036-5.11-4.896.64zM8.686 73.117L6.1 77.777l5.61-.2z"/><path d="M6.1 77.777l2.586-4.66-5.48.344zM10.722 68.007l5.476.451-3.609-4.858zM16.198 68.458l1.698-4.15-5.307-.708zM17.896 64.308l-1.698 4.15 6.007-1.107zM-10.208 88.697l-2.694-4.866-2.343 4.923zM-12.902 83.831l2.694 4.866 2.553-5.071zM-10.208 88.697l-2.375 5.416 5.779-1.828z"/><path d="M-12.583 94.113l2.375-5.416-5.037.057zM-4.531 87.657l-5.677 1.04 3.404 3.588zM-10.208 88.697l5.677-1.04-3.124-4.031zM-1.361 92.059l5.262-.289-2.948-4.506zM-1.361 92.059l3.114 4.74 2.148-5.029z"/><path d="M-4.531 87.657l3.17 4.402 2.314-4.795z"/><path d="M-1.361 92.059l-3.17-4.402-2.273 4.628zM.543 78.179l-2.601 4.748 5.514-.458zM.543 78.179l5.557-.402-2.894-4.316z"/><path d="M.543 78.179l2.663-4.718-5.639.542z"/><path d="M6.1 77.777l-5.557.402 2.913 4.29z"/><path d="M.543 78.179l-5.589.565 2.988 4.183z"/><path d="M-5.046 78.744l5.589-.565-2.976-4.176zM38.603 76.22l2.158 5.052 2.91-4.349zM40.761 81.272l-2.158-5.052-2.755 4.535zM31.809 63.805l5.571 2.369-1.988-5.88z"/><path d="M40.099 61.55l-2.719 4.624 5.264.977zM32.61 68.332l4.77-2.158-5.571-2.369z"/><path d="M35.755 71.877l1.625-5.703-4.77 2.158zM28.157 77.772l-5.38-.591 3.077 4.861z"/><path d="M31.603 82.805l-3.446-5.033-2.303 4.27zM24.956 72.565l3.201 5.207 1.894-5.009zM28.157 77.772l-3.201-5.207-2.179 4.616zM22.205 67.351l4.163-4.321-4.757-1.613zM22.205 67.351l5.231.512-1.068-4.833zM27.436 67.863l5.174.469-.801-4.527z"/><path d="M32.61 68.332l-5.174-.469 2.615 4.9zM24.956 72.565l2.48-4.702-5.231-.512z"/><path d="M27.436 67.863l-2.48 4.702 5.095.198zM11.675 6.23l3.588-3.888-5.187-1.336zM-39.583 74.176l-5.451.315 2.627 4.442zM-41.958 69.77l2.375 4.406 2.838-4.786zM-39.583 74.176l5.53-.172-2.692-4.614z"/><path d="M-45.034 74.491l5.451-.315-2.375-4.406zM-39.583 74.176l2.691 4.226 2.839-4.398z"/><path d="M-36.892 78.402l-2.691-4.226-2.824 4.757zM-46.563 50.857l.909-5.058-4.988.364zM-45.654 45.799l-.909 5.058h4.43zM-49.98 41.445l4.326 4.354 1.805-4.54z"/><path d="M-45.654 45.799l-4.326-4.354-.662 4.718zM-48.913 36.926l4.584-.397-2.865-4.629z"/><path d="M-44.329 36.529l2.371-4.586-5.236-.043zM-43.849 41.259l-5.064-4.333-1.067 4.519z"/><path d="M-43.849 41.259l-.48-4.73-4.584.397zM19.738 72.302l5.218.263-2.751-5.214z"/><path d="M24.956 72.565l-5.218-.263 3.039 4.879zM19.738 72.302l-2.488 4.695 5.527.184zM16.198 68.458l3.54 3.844 2.467-4.951zM-.451 101.713l-2.838-4.895-2.414 4.577z"/><path d="M-3.289 96.818l-5.188-.103 2.774 4.68z"/><path d="M-8.477 96.715l5.188.103-3.515-4.533zM-3.289 96.818l2.838 4.895 2.204-4.914z"/><path d="M-1.361 92.059l-1.928 4.759 5.042-.019zM-3.289 96.818l1.928-4.759-5.443.226zM40.811 71.47l-2.208 4.75 5.068.703zM40.811 71.47l5.153 1.156-3.32-5.475z"/><path d="M45.964 72.626l-5.153-1.156 2.86 5.453zM38.603 76.22l2.208-4.75-5.056.407z"/><path d="M40.811 71.47l-3.431-5.296-1.625 5.703z"/><path d="M37.38 66.174l3.431 5.296 1.833-4.319zM33.111 76.836l5.492-.616-2.848-4.343z"/><path d="M33.111 76.836l2.644-4.959-5.704.886zM33.111 76.836l-1.508 5.969 4.245-2.05zM38.603 76.22l-5.492.616 2.737 3.919zM28.157 77.772l4.954-.936-3.06-4.073z"/><path d="M33.111 76.836l-4.954.936 3.446 5.033zM20.347 10.378l-3.624-3.217-2.274 4.114zM16.723 7.161l-5.048-.931 2.774 5.045z"/><path d="M20.562 4.34l-3.839 2.821 3.624 3.217zM15.263 2.342l1.46 4.819 3.839-2.821zM16.723 7.161l-1.46-4.819-3.588 3.888zM-40.361 45.965l2.548-4.34-6.036-.366zM-40.361 45.965l3.167 4.892 2.406-4.667z"/><path d="M-40.361 45.965l-1.772 4.892h4.939z"/><path d="M-37.813 41.625l-2.548 4.34 5.573.225zM-45.654 45.799l5.293.166-3.488-4.706z"/><path d="M-40.361 45.965l-5.293-.166 3.521 5.058zM-39.521 37.032l1.708 4.593 3.531-4.517z"/><path d="M-39.521 37.032l5.239.076-2.463-4.784z"/><path d="M-41.958 31.943l2.437 5.089 2.776-4.708z"/><path d="M-37.813 41.625l-1.708-4.593-4.328 4.227z"/><path d="M-39.521 37.032l-4.808-.503.48 4.73z"/><path d="M-44.329 36.529l4.808.503-2.437-5.089zM17.25 76.997l-3.299-4.2-2.241 4.78z"/><path d="M8.686 73.117l5.265-.32-3.229-4.79z"/><path d="M13.951 72.797l-5.265.32 3.024 4.46zM13.951 72.797l2.247-4.339-5.476-.451zM13.951 72.797l5.787-.495-3.54-3.844zM19.738 72.302l-5.787.495 3.299 4.2z"/></svg>