<svg xmlns="http://www.w3.org/2000/svg" viewBox="-50.859 -50.857 100 101.713"><style>path{fill:#c8c5bd;stroke:navy;stroke-width:.5;stroke-linejoin:bevel}</style><path d="M42.644 16.294l5.115 1.188-3.042-5.558z"/><path d="M44.717 11.924l3.042 5.558 1.382-4.378zM42.644 16.294l2.073-4.37-4.618-1.231zM45.964-21.769l-2.293-4.297-2.86 5.452zM-48.913 13.931l1.719 5.026 2.865-4.63zM-29.178 4.601l-5.61.066 2.753 4.482zM-34.282 13.749l5.364.032-3.117-4.632z"/><path d="M-34.788 4.667L-37.194 0l-3.167 4.891zM4.825 50.629l5.251-.778-3.32-4.36zM-20.062 46.734l4.475 1.677-1.894-5.878zM-4.124-9.003l-5.628-.027 3.211 4.465z"/><path d="M-9.752-9.03l5.628.027-3.441-4.649zM-20.979-18.736l-2.716-4.947-2.459 5.064z"/><path d="M-18.389-23.446l-5.306-.237 2.716 4.947zM-.451-50.857l-5.252.319 2.414 4.577zM-2.058-32.071l-2.988 4.184 5.589.565zM-12.583-43.256l-2.662 5.358 5.037.058zM-5.703-50.538l-2.774 4.68 5.188-.103z"/><path d="M-8.477-45.858l2.774-4.68-5.337.892zM40.099 10.693l-4.707-1.255 1.988 5.879zM-5.152 18.484l-2.634 4.769 5.353-.106zM3.206-22.604L.164-18.55l5.662.76zM22.778-35.193l3.076 4.007 2.883-4.607zM33.78-38.02l-4.061-3.252-.982 5.479zM19.964-5.324l5.158-1.375-3.511-3.862zM28.157-26.916l-2.303-4.27-3.077 4.862zM26.368-12.173l-1.246 5.474 4.988-1.33z"/><path d="M25.122-6.699l1.246-5.474-4.757 1.612zM-39.521 13.824l-4.328-4.226-.48 4.729zM-34.053-23.148l-5.53-.172 2.838 4.787zM-28.918 13.781l-2.502 4.704 5.266.134z"/><path d="M-34.282 13.749l2.862 4.736 2.502-4.704zM-45.654 5.058l1.805 4.54 3.488-4.707zM10.076 49.851l1.599-5.225-4.919.865zM11.675 44.626l3.588 3.888 1.46-4.819zM15.263 48.514l-3.588-3.888-1.599 5.225zM2.749 14.058l3.077 3.732 1.415-5.795z"/><path d="M-23.563 13.862l-5.355-.081 2.764 4.838zM-.543-4.763l-3.581-4.24-2.417 4.438z"/><path d="M-.543-4.763l2.005-4.736-5.586.496zM-9.752 9.03l3.211-4.465-5.796-.011zM-12.337-4.554l2.585-4.476-5.578-.107z"/><path d="M-9.752-9.03l-2.585 4.476 5.796-.011zM-18.239-13.877l-2.617 4.698 5.526.042zM-5.046-27.887l-5.328-.198 2.588 4.832z"/><path d="M-10.374-28.085l-2.673 4.807 5.261.025zM-28.731-23.35l2.211-5.368-4.772.808z"/><path d="M-34.053-23.148l5.322-.202-2.561-4.56z"/><path d="M-28.731-23.35l5.036-.333-2.825-5.035zM-23.695-23.683l-5.036.333 2.577 4.731zM-21.096-28.304l-2.8-4.751-2.624 4.337z"/><path d="M-23.896-33.055l2.8 4.751 2.987-4.393zM-21.096-28.304l-2.599 4.621 5.306.237z"/><path d="M-23.695-23.683l2.599-4.621-5.424-.414zM-17.481-42.533l2.236 4.635 2.662-5.358zM31.603 31.949l-5.749-.763 2.883 4.607zM37.221 34.658l3.54-4.242-4.913-.517zM45.964 21.769l1.795-4.287-5.115-1.188zM-5.152 18.484l2.754-4.711-5.167-.121zM1.462 9.499l5.779 2.496-1.935-5.551zM4.623 1.233l.683 5.211 4.252-3.895zM14.62 3.899l1.422 4.825 3.922-3.4zM3.206-22.604L6.1-26.92l-5.557-.402zM-2.433-23.147l-2.613-4.74-2.74 4.634z"/><path d="M-5.046-27.887l2.613 4.74 2.976-4.175zM-2.433-23.147l5.639.543-2.663-4.718zM3.206-22.604l-5.639-.543L.164-18.55z"/><path d="M-2.433-23.147l-2.719 4.663 5.316-.066zM-5.152-18.484l2.719-4.663-5.353-.106zM-10.388-18.463l5.236-.021-2.634-4.769z"/><path d="M-13.047-23.278l2.659 4.815 2.602-4.79z"/><path d="M-5.152-18.484l-5.236.021 2.823 4.811zM16.042-8.724l5.569-1.837-3.715-2.89z"/><path d="M22.205-16.495l-4.309 3.044 3.715 2.89z"/><path d="M17.896-13.451l4.309-3.044-6.007-1.106zM29.719-41.272l-4.585 1.926 3.603 3.553z"/><path d="M25.134-39.346l4.585-1.926-4.713-3.015zM25.134-39.346l-2.356 4.153 5.959-.6zM21.611 10.561l3.511-3.862-5.158-1.375zM26.368 12.173l-1.246-5.474-3.511 3.862z"/><path d="M25.122 6.699l1.246 5.474 3.742-4.144zM33.111-25.98l-4.954-.936 1.894 5.01zM35.392-9.438l-3.583-3.51-1.699 4.919zM31.809-12.948l-5.441.775 3.742 4.144zM-37.813 9.232l3.025-4.565-5.573.224zM-37.813 9.232l3.531 4.517 2.247-4.6z"/><path d="M-34.788 4.667l-3.025 4.565 5.778-.083zM-34.282 13.749l-3.531-4.517-1.708 4.592zM-37.813 9.232l-6.036.366 4.328 4.226z"/><path d="M-43.849 9.598l6.036-.366-2.548-4.341zM-31.292 27.91l-2.73 3.936 4.328 1.994z"/><path d="M-26.52 28.718l-4.772-.808 1.598 5.93zM-20.36 36.982l2.879 5.551 2.236-4.635zM-45.034-23.634l5.451.314-2.824-4.756zM-36.892-27.546l2.839 4.398 2.761-4.762z"/><path d="M-36.892-27.546l-2.433-4.706-3.082 4.176zM-36.892-27.546l-2.691 4.226 5.53.172z"/><path d="M-39.583-23.32l2.691-4.226-5.515-.53zM-36.745 18.533l2.463-4.784-5.239.075zM-36.745 18.533l5.325-.048-2.862-4.736zM-43.849 9.598l-5.064 4.333 4.584.396z"/><path d="M-43.849 9.598l-6.131-.187 1.067 4.52zM-45.654 5.058l-4.326 4.353 6.131.187z"/><path d="M-49.98 9.411l4.326-4.353-4.988-.364zM-37.194 0h-4.939l1.772 4.891z"/><path d="M-42.133 0l-3.521 5.058 5.293-.167zM15.263 48.514l5.299-1.997-3.839-2.822zM14.754 31.011l2.838 4.606 2.549-4.904zM14.449 39.582l-2.774 5.044 5.048-.931zM10.722 17.151l1.867-4.408-5.348-.748zM5.826 17.79l4.896-.639-3.481-5.156zM3.456 31.613l2.881 4.332 2.659-4.74z"/><path d="M6.337 35.945l-2.881-4.332-2.503 4.794zM-15.685 18.582l-2.704 4.864 5.342-.168zM-7.786 23.253l-2.602-4.79-2.659 4.815zM-10.388 18.463l5.236.021-2.413-4.832z"/><path d="M-5.152 18.484l-5.236-.021 2.602 4.79zM-10.388 18.463l-5.297.119 2.638 4.696zM-20.856 9.179l-2.707 4.683 5.324.015zM-4.473 0l3.93-4.763-5.998.198zM-.543-4.763L-4.473 0H0zM-2.398-13.773l-2.754-4.711-2.413 4.832zM-4.124-9.003l1.726-4.77-5.167.121zM-5.152-18.484l2.754 4.711L.164-18.55zM1.462-9.499l-3.86-4.274-1.726 4.77z"/><path d="M5.306-6.444L-.543-4.763l5.166 3.53z"/><path d="M4.623-1.233l-5.166-3.53L0 0zM5.306-6.444L1.462-9.499-.543-4.763z"/><path d="M4.623-1.233l4.935-1.316-4.252-3.895zM-15.273 0l-2.716-4.578L-20.806 0zM-20.856-9.179l2.867 4.601 2.659-4.559z"/><path d="M-12.337-4.554l-5.652-.024L-15.273 0z"/><path d="M-17.989-4.578l5.652.024-2.993-4.583zM-23.563-13.862l2.584-4.874-5.175.117zM-23.563-13.862l5.324-.015-2.74-4.859zM-20.856-9.179l-2.707-4.683-2.84 4.701z"/><path d="M-18.239-13.877l-5.324.015 2.707 4.683z"/><path d="M-23.563-13.862l-5.355.081 2.515 4.62z"/><path d="M-28.918-13.781l5.355-.081-2.591-4.757zM-32.035-9.149l2.857 4.548 2.775-4.56zM-29.178-4.601l-2.857-4.548-2.753 4.482zM-32.035-9.149l3.117-4.632-5.364.032z"/><path d="M-28.918-13.781l-3.117 4.632 5.632-.012zM-26.52-28.718l-3.174-5.122-1.598 5.93z"/><path d="M-23.896-33.055l-5.798-.785 3.174 5.122zM-12.902-32.975l-2.343-4.923-2.864 5.201z"/><path d="M-15.245-37.898l2.343 4.923 2.694-4.865zM-31.42-18.485l2.502 4.704 2.764-4.838zM-31.42-18.485l-2.633-4.663-2.692 4.615z"/><path d="M-34.282-13.749l2.862-4.736-5.325-.048z"/><path d="M-28.918-13.781l-2.502-4.704-2.862 4.736zM-31.42-18.485l2.689-4.865-5.322.202zM-28.731-23.35l-2.689 4.865 5.266-.134zM-6.804-41.428l-5.779-1.828 2.375 5.416zM-6.804-41.428l5.443.226-1.928-4.759z"/><path d="M-8.477-45.858l1.673 4.43 3.515-4.533z"/><path d="M-6.804-41.428l-1.673-4.43-4.106 2.602zM-6.804-41.428l2.273 4.627 3.17-4.401z"/><path d="M-4.531-36.801l-2.273-4.627-3.404 3.588zM-15.245-37.898l-5.115.916 2.251 4.285zM-20.36-36.982l-3.536 3.927 5.787.358z"/><path d="M-17.481-42.533l-2.879 5.551 5.115-.916zM-12.583-43.256l4.106-2.602-2.563-3.788zM-12.583-43.256l1.543-6.39-4.547 1.235zM-17.481-42.533l1.894-5.878-4.475 1.677z"/><path d="M-15.587-48.411l-1.894 5.878 4.898-.723zM25.854 31.186l-3.077-4.862-2.636 4.389zM31.603 31.949l5.618 2.709-1.373-4.759zM29.719 41.272l4.061-3.252-5.043-2.227z"/><path d="M33.78 38.02l-2.177-6.071-2.866 3.844zM31.603 31.949l2.177 6.071 3.441-3.362zM-.543 4.763l5.166-3.53L0 0zM-.543 4.763L-4.473 0l-2.068 4.565z"/><path d="M-4.473 0l3.93 4.763L0 0zM3.206 22.604L.164 18.55l-2.597 4.597z"/><path d="M.164 18.55l-5.316-.066 2.719 4.663zM.164 18.55l5.662-.76-3.077-3.732z"/><path d="M5.826 17.79l-5.662.76 3.042 4.054z"/><path d="M.164 18.55l-2.562-4.777-2.754 4.711z"/><path d="M-2.398 13.773L.164 18.55l2.585-4.492zM12.589 12.743l-2.037-4.994-3.311 4.246zM10.552 7.749l4.068-3.85-5.062-1.35zM10.552 7.749L5.306 6.444l1.935 5.551z"/><path d="M5.306 6.444l5.246 1.305-.994-5.2zM16.042 8.724l-5.49-.975 2.037 4.994zM10.552 7.749l5.49.975-1.422-4.825zM21.611 10.561l-1.647-5.237-3.922 3.4zM21.611 10.561l-3.715 2.89 4.309 3.044z"/><path d="M21.611 10.561l-5.569-1.837 1.854 4.727z"/><path d="M17.896 13.451l-1.854-4.727-3.453 4.019zM31.809 12.948l3.583-3.51-5.282-1.409zM26.368 12.173l5.441.775-1.699-4.919zM-9.752-9.03l-3.126-4.719-2.452 4.612zM-12.878-13.749l3.126 4.719 2.187-4.622zM-12.878-13.749l-5.361-.128 2.909 4.74zM-10.388-18.463l-2.49 4.714 5.313.097zM8.686-22.26l-5.48-.344 2.62 4.814zM6.1-26.92l2.586 4.66 3.024-4.46z"/><path d="M8.686-22.26L6.1-26.92l-2.894 4.316zM8.686-22.26l5.265.32-2.241-4.78zM12.589-12.743l5.307-.708-1.698-4.15zM22.205-16.495l4.163 4.322 1.068-4.834zM22.205-16.495l-.594 5.934 4.757-1.612zM19.738-21.445l-5.787-.495 2.247 4.339zM22.205-16.495l-2.467-4.95-3.54 3.844zM-1.361-41.202l3.114-4.741-5.042-.018z"/><path d="M1.753-45.943l-2.204-4.914-2.838 4.896zM.953-36.407l-5.484-.394 2.473 4.73zM-4.531-36.801l5.484.394-2.314-4.795zM14.754-31.011l-5.758-.194 2.714 4.485z"/><path d="M8.996-31.205L6.1-26.92l5.61.2zM25.854-31.186l-5.713.473 2.636 4.389z"/><path d="M22.778-35.193l-2.637 4.48 5.713-.473zM43.671-26.066l-5.068.703 2.208 4.749zM28.157-26.916l3.446-5.033-5.749.763zM25.854-31.186l5.749-.763-2.866-3.844zM31.603-31.949l2.177-6.071-5.043 2.227z"/><path d="M33.111-25.98l-1.508-5.969-3.446 5.033zM35.755-21.021l-2.644-4.959-3.06 4.074z"/><path d="M35.755-21.021l2.848-4.342-5.492-.617zM38.603-25.363l-2.848 4.342 5.056.407zM44.717-11.924l3.042-5.558-5.115 1.188zM47.759-17.482l-3.042 5.558 4.424-1.18zM42.644-16.294l3.32-5.475-5.153 1.155zM40.099-10.693l2.545-5.601-5.264.977z"/><path d="M44.717-11.924l-2.073-4.37-2.545 5.601zM42.644-16.294l5.115-1.188-1.795-4.287zM-32.213 39.356l5.783-1.746-3.264-3.77z"/><path d="M-29.694 33.84l-4.328-1.994-1.67 4.385zM-31.42 18.485l2.689 4.865 2.577-4.731zM-26.52 28.718l-2.211-5.368-2.561 4.56zM-10.374 28.085l2.588-4.832-5.261.025zM-10.374 28.085l-2.528 4.89 5.247-.205zM-23.896 33.055l-2.624-4.337-3.174 5.122z"/><path d="M-26.43 37.61l2.534-4.555-5.798.785zM-26.52 28.718l2.624 4.337 2.8-4.751zM-20.36 36.982l-3.536-3.927-2.534 4.555zM-22.346 40.882l2.284 5.852 2.581-4.201zM-20.062 46.734l-2.284-5.852-1.937 3.805z"/><path d="M-20.36 36.982l-1.986 3.9 4.865 1.651z"/><path d="M-22.346 40.882l1.986-3.9-6.07.628zM-41.958-18.913l-3.076-4.721-2.16 4.677zM-39.583-23.32l-2.375 4.407 5.213.38z"/><path d="M-45.034-23.634l3.076 4.721 2.375-4.407zM-37.194 0h5.357l-2.951-4.667zM-29.178 4.601L-31.837 0l-2.951 4.667zM-31.837 0h-5.357l2.406 4.667zM-31.837 0l2.659-4.601-5.61-.066z"/><path d="M-26.339 0h-5.498l2.659 4.601zM-31.837 0h5.498l-2.839-4.601zM-47.194 18.957l5.236-.044-2.371-4.586zM-41.958 18.913l2.437-5.089-4.808.503zM-41.958 18.913l5.213-.38-2.776-4.709zM-45.654 5.058L-46.563 0l-4.079 4.694z"/><path d="M-50.642 4.694L-46.563 0h-4.296zM-46.563 0l-4.079-4.694L-50.859 0zM-42.133 0h-4.43l.909 5.058zM3.901 40.914l2.436-4.969-5.384.462zM25.854 31.186l-3.076 4.007 5.959.6z"/><path d="M22.778 35.193l3.076-4.007-5.713-.473z"/><path d="M17.592 35.617l5.186-.424-2.637-4.48zM11.827 35.378l2.927-4.367-5.758.194z"/><path d="M6.337 35.945l5.49-.567-2.831-4.173zM14.754 31.011l-2.927 4.367 5.765.239zM11.827 35.378l2.622 4.204 3.143-3.965zM14.754 31.011L11.71 26.72l-2.714 4.485zM3.456 31.613l-5.514.458 3.011 4.336zM-15.587 48.411l3.004-5.155-4.898-.723z"/><path d="M-17.481 42.533l4.898.723-2.662-5.358zM-20.979 18.736l5.294-.154-2.554-4.705zM-20.979 18.736l-2.584-4.874-2.591 4.757z"/><path d="M-23.563 13.862l2.584 4.874 2.74-4.859zM-20.979 18.736l2.59 4.71 2.704-4.864zM-9.752 9.03l-3.126 4.719 5.313-.097z"/><path d="M-15.685 18.582l2.807-4.833-5.361.128zM-10.388 18.463l-2.49-4.714-2.807 4.833z"/><path d="M-12.878 13.749l2.49 4.714 2.823-4.811zM-26.403 9.161l-2.775-4.56-2.857 4.548zM-28.918 13.781l2.515-4.62-5.632-.012zM-23.563 13.862l-2.84-4.701-2.515 4.62z"/><path d="M-20.856 9.179l-5.547-.018 2.84 4.701zM-15.273 0l-2.716 4.578 5.652-.024z"/><path d="M-17.989 4.578L-15.273 0h-5.533zM-9.771 0h-5.502l2.936 4.554zM-9.771 0l-2.566-4.554L-15.273 0zM-6.541 4.565L-9.771 0l-2.566 4.554z"/><path d="M-12.337-4.554L-9.771 0l3.23-4.565zM-4.473 0h-5.298l3.23 4.565z"/><path d="M-9.771 0h5.298l-2.068-4.565zM2.749-14.058l4.492 2.063-1.415-5.795z"/><path d="M.164-18.55l2.585 4.492 3.077-3.732zM7.241-11.995L1.462-9.499l3.844 3.055z"/><path d="M7.241-11.995l-4.492-2.063-1.287 4.559z"/><path d="M2.749-14.058l-5.147.285 3.86 4.274z"/><path d="M-2.398-13.773l5.147-.285L.164-18.55zM-23.583-4.588l2.727-4.591-5.547.018zM-23.583-4.588L-26.339 0h5.533zM-29.178-4.601l5.595.013-2.82-4.573z"/><path d="M-26.339 0l2.756-4.588-5.595-.013zM-23.583-4.588l5.594.01-2.867-4.601z"/><path d="M-17.989-4.578l-5.594-.01L-20.806 0zM-2.058-32.071l-5.597-.699 2.609 4.883zM-7.655-32.77l3.124-4.031-5.677-1.039z"/><path d="M-7.655-32.77l-2.719 4.685 5.328.198zM-4.531-36.801l-3.124 4.031 5.597.699z"/><path d="M-7.655-32.77l-5.247-.205 2.528 4.89zM-12.902-32.975l5.247.205-2.553-5.07zM-10.374-28.085l-5.251.03 2.578 4.777z"/><path d="M-13.047-23.278l-2.578-4.777-2.764 4.609zM-21.096-28.304l5.471.249-2.484-4.642z"/><path d="M-15.625-28.055l-5.471-.249 2.707 4.858zM-15.625-28.055l2.723-4.92-5.207.278zM-12.902-32.975l-2.723 4.92 5.251-.03zM-22.346-40.882l4.865-1.651-2.581-4.201z"/><path d="M-22.346-40.882l2.284-5.852-4.221 2.047z"/><path d="M-28.347-42.226l6.001 1.344-1.937-3.805zM-22.346-40.882l1.986 3.9 2.879-5.551zM-4.124 9.003l-5.628.027 2.187 4.622zM-9.752 9.03l5.628-.027-2.417-4.438z"/><path d="M-2.398 13.773l-1.726-4.77-3.441 4.649zM-4.124 9.003l3.581-4.24-5.998-.198zM-18.239-13.877l2.554-4.705-5.294-.154z"/><path d="M-15.685-18.582l-2.704-4.864-2.59 4.71z"/><path d="M-15.685-18.582l2.638-4.696-5.342-.168z"/><path d="M-15.685-18.582l5.297.119-2.659-4.815z"/><path d="M-15.685-18.582l2.807 4.833 2.49-4.714z"/><path d="M-12.878-13.749l-2.807-4.833-2.554 4.705zM10.722-17.151L8.686-22.26l-2.86 4.47zM7.241-11.995l3.481-5.156-4.896-.639zM13.951-21.94l-3.229 4.789 5.476-.45zM8.686-22.26l2.036 5.109 3.229-4.789zM12.589-12.743l-1.867-4.408-3.481 5.156z"/><path d="M10.722-17.151l1.867 4.408 3.609-4.858zM10.552-7.749l-.994 5.2 5.062-1.35zM9.558-2.549l.994-5.2-5.246 1.305z"/><path d="M10.552-7.749l-3.311-4.246-1.935 5.551z"/><path d="M10.552-7.749l2.037-4.994-5.348.748zM28.157-26.916l-3.201 5.208 5.095-.198zM24.956-21.708l2.48 4.701 2.615-4.899z"/><path d="M24.956-21.708l3.201-5.208-5.38.592z"/><path d="M27.436-17.007l-2.48-4.701-2.751 5.213z"/><path d="M24.956-21.708l-5.218.263 2.467 4.95zM19.738-21.445l5.218-.263-2.179-4.616zM3.901-40.914l-2.148-5.029-3.114 4.741zM.953-36.407l2.948-4.507-5.262-.288zM1.753-45.943l3.072-4.686-5.276-.228zM25.134-39.346l-4.787-1.132 2.431 5.285zM14.449-39.582l-2.774-5.044-2.558 4.364zM6.1-26.92l-2.644-4.693-2.913 4.291z"/><path d="M3.456-31.613l-5.514-.458 2.601 4.749z"/><path d="M3.456-31.613L.953-36.407l-3.011 4.336zM8.996-31.205l-5.54-.408L6.1-26.92zM11.827-35.378l2.622-4.204-5.332-.68zM11.827-35.378l-2.831 4.173 5.758.194zM13.951-21.94l3.299-4.2-5.54-.58zM17.25-26.14l2.488 4.695 3.039-4.879z"/><path d="M17.25-26.14l-2.496-4.871-3.044 4.291zM19.738-21.445L17.25-26.14l-3.299 4.2z"/><path d="M17.25-26.14l2.891-4.573-5.387-.298zM20.141-30.713L17.25-26.14l5.527-.184zM40.761-30.416l-2.158 5.053 5.068-.703zM31.809-12.948l.801-4.528-5.174.469zM27.436-17.007l5.174-.469-2.559-4.43z"/><path d="M31.809-12.948l-4.373-4.059-1.068 4.834zM32.61-17.476l3.145-3.545-5.704-.885zM-35.692 36.231l1.67-4.385-5.303.406zM-29.694 33.84l-5.998 2.391 3.479 3.125zM-36.745 18.533l2.692 4.615 2.633-4.663z"/><path d="M-34.053 23.148l5.322.202-2.689-4.865zM-28.731 23.35l-5.322-.202 2.761 4.762zM-18.389 23.446l2.764 4.609 2.578-4.777z"/><path d="M-15.625 28.055l-2.764-4.609-2.707 4.858zM-10.374 28.085l-5.251-.03 2.723 4.92zM-15.625 28.055l5.251.03-2.673-4.807zM-32.213 39.356l3.866 2.87 1.917-4.616zM-28.347 42.226l6.001-1.344-4.084-3.272zM-22.346 40.882l-6.001 1.344 4.064 2.461zM-45.034 23.634l3.076-4.721-5.236.044zM3.901 40.914l-2.148 5.029 5.003-.452zM1.753 45.943l3.072 4.686 1.931-5.138zM25.134 39.346l4.585 1.926-.982-5.479z"/><path d="M29.719 41.272l-4.585-1.926-.128 4.941z"/><path d="M20.347 40.478l4.659 3.809.128-4.941zM22.778 35.193l2.356 4.153 3.603-3.553zM9.117 40.262l-5.216.652 2.855 4.577zM11.675 44.626l-2.558-4.364-2.361 5.229z"/><path d="M14.449 39.582l-5.332.68 2.558 4.364zM3.901 40.914l5.216-.652-2.78-4.317z"/><path d="M11.827 35.378l-2.71 4.884 5.332-.68z"/><path d="M9.117 40.262l2.71-4.884-5.49.567zM6.1 26.92l-2.644 4.693 5.54-.408zM11.71 26.72l-5.61.2 2.896 4.285zM22.777 26.324l-5.527-.184 2.891 4.573zM17.25 26.14l-2.496 4.871 5.387-.298z"/><path d="M17.25 26.14l-5.54.58 3.044 4.291zM-2.058 32.071l-2.473 4.73 5.484-.394z"/><path d="M-4.531 36.801l2.473-4.73-5.597.699zM-7.786 23.253l2.74 4.634 2.613-4.74z"/><path d="M-5.046 27.887l-5.328.198 2.719 4.685z"/><path d="M-10.374 28.085l5.328-.198-2.74-4.634z"/><path d="M-2.058 32.071l-2.988-4.184-2.609 4.883zM-5.703 50.538l-2.774-4.68-2.563 3.788z"/><path d="M-12.583 43.256l1.543 6.39 2.563-3.788zM-12.583 43.256l4.106 2.602 1.673-4.43z"/><path d="M-12.583 43.256l-3.004 5.155 4.547 1.235zM-23.695 23.683l-2.825 5.035 5.424-.414z"/><path d="M-18.389 23.446l-5.306.237 2.599 4.621zM-28.731 23.35l5.036.333-2.459-5.064zM-23.695 23.683l-5.036-.333 2.211 5.368z"/><path d="M-20.979 18.736l-2.716 4.947 5.306-.237z"/><path d="M-23.695 23.683l2.716-4.947-5.175-.117zM-26.339 0l2.756 4.588L-20.806 0z"/><path d="M-23.583 4.588L-26.339 0l-2.839 4.601z"/><path d="M-26.403 9.161l2.82-4.573-5.595.013zM-23.583 4.588l-2.82 4.573 5.547.018z"/><path d="M-17.989 4.578l-5.594.01 2.727 4.591z"/><path d="M-23.583 4.588l5.594-.01L-20.806 0zM-15.33 9.137l-5.526.042 2.617 4.698zM-12.878 13.749l-2.452-4.612-2.909 4.74zM-15.33 9.137l5.578-.107-2.585-4.476z"/><path d="M-15.33 9.137l2.452 4.612 3.126-4.719zM-17.989 4.578l2.659 4.559 2.993-4.583z"/><path d="M-15.33 9.137l-2.659-4.559-2.867 4.601zM-34.022-31.846l-2.87 4.3 5.6-.364zM-39.325-32.252l5.303.406-1.67-4.385zM-36.892-27.546l2.87-4.3-5.303-.406zM-29.694-33.84l-4.328 1.994 2.73 3.936zM-29.694-33.84l-2.519-5.516-3.479 3.125z"/><path d="M-29.694-33.84l-5.998-2.391 1.67 4.385z"/><path d="M-26.43-37.61l-5.783-1.746 2.519 5.516zM-26.43-37.61l-3.264 3.77 5.798.785z"/><path d="M-20.36-36.982l-6.07-.628 2.534 4.555zM-32.213-39.356l5.783 1.746-1.917-4.616z"/><path d="M-22.346-40.882l-4.084 3.272 6.07.628z"/><path d="M-26.43-37.61l4.084-3.272-6.001-1.344zM1.462 9.499l-3.86 4.274 5.147.285z"/><path d="M1.462 9.499l1.287 4.559 4.492-2.063zM5.306 6.444l-.683-5.211-5.166 3.53zM5.306 6.444L-.543 4.763l2.005 4.736z"/><path d="M-4.124 9.003l5.586.496-2.005-4.736zM1.462 9.499l-5.586-.496 1.726 4.77zM27.436 17.007l4.373-4.059-5.441-.775zM35.755 21.021l-3.145-3.545-2.559 4.43zM19.964-5.324l-3.922-3.4-1.422 4.825zM12.589-12.743l3.453 4.019 1.854-4.727zM16.042-8.724l3.922 3.4 1.647-5.237z"/><path d="M10.552-7.749l5.49-.975-3.453-4.019z"/><path d="M16.042-8.724l-5.49.975 4.068 3.85zM25.006-44.287l-4.444-2.23-.215 6.039z"/><path d="M25.006-44.287l-4.659 3.809 4.787 1.132zM6.756-45.491l-2.855 4.577 5.216.652zM4.825-50.629l1.931 5.138 3.32-4.36zM3.901-40.914l2.855-4.577-5.003-.452z"/><path d="M6.756-45.491l-1.931-5.138-3.072 4.686zM6.756-45.491l4.919.865-1.599-5.225z"/><path d="M11.675-44.626l-4.919-.865 2.361 5.229zM20.347-40.478l-2.755 4.861 5.186.424zM20.141-30.713l-2.549-4.904-2.838 4.606z"/><path d="M17.592-35.617l2.549 4.904 2.637-4.48zM17.592-35.617l2.755-4.861-5.898.896z"/><path d="M11.827-35.378l5.765-.239-3.143-3.965z"/><path d="M17.592-35.617l-5.765.239 2.927 4.367zM3.456-31.613l2.881-4.332-5.384-.462z"/><path d="M6.337-35.945l-2.436-4.969-2.948 4.507z"/><path d="M3.901-40.914l2.436 4.969 2.78-4.317zM6.337-35.945l-2.881 4.332 5.54.408z"/><path d="M11.827-35.378l-5.49-.567 2.659 4.74z"/><path d="M6.337-35.945l5.49.567-2.71-4.884zM37.221-34.658l-5.618 2.709 4.245 2.05zM38.603-25.363l-2.755-4.536-2.737 3.919z"/><path d="M37.221-34.658L33.78-38.02l-2.177 6.071zM35.848-29.899l-4.245-2.05 1.508 5.969zM40.761-30.416l-4.913.517 2.755 4.536zM35.848-29.899l4.913-.517-3.54-4.242zM35.755-21.021l1.625 5.704 3.431-5.297zM37.38-15.317l5.264-.977-1.833-4.32zM37.38-15.317l-5.571 2.369 3.583 3.51z"/><path d="M40.099-10.693l-2.719-4.624-1.988 5.879zM32.61-17.476l4.77 2.159-1.625-5.704z"/><path d="M37.38-15.317l-4.77-2.159-.801 4.528zM-36.892 27.546l-5.515.53 3.082 4.176zM-34.022 31.846l-2.87-4.3-2.433 4.706z"/><path d="M-36.892 27.546l2.87 4.3 2.73-3.936zM-34.053 23.148l-2.839 4.398 5.6.364zM-18.109 32.697l-2.251 4.285 5.115.916zM-12.902 32.975l-5.207-.278 2.864 5.201zM-23.896 33.055l5.787-.358-2.987-4.393z"/><path d="M-18.109 32.697l-5.787.358 3.536 3.927zM-15.625 28.055l-2.484 4.642 5.207.278z"/><path d="M-18.109 32.697l2.484-4.642-5.471.249zM-37.813-9.232l5.778.083-2.247-4.6z"/><path d="M-32.035-9.149l-5.778-.083 3.025 4.565zM1.753 45.943l-2.204 4.914 5.276-.228zM20.347 40.478l-5.898-.896 2.274 4.113zM20.562 46.517l-.215-6.039-3.624 3.217z"/><path d="M14.449 39.582l5.898.896-2.755-4.861zM20.347 40.478l2.431-5.285-5.186.424z"/><path d="M20.347 40.478l4.787-1.132-2.356-4.153zM20.347 40.478l.215 6.039 4.444-2.23zM8.686 22.26l-2.86-4.47-2.62 4.814z"/><path d="M8.686 22.26l2.036-5.109-4.896.639zM8.686 22.26L6.1 26.92l5.61-.2z"/><path d="M6.1 26.92l2.586-4.66-5.48.344zM10.722 17.151l5.476.45-3.609-4.858z"/><path d="M16.198 17.601l1.698-4.15-5.307-.708zM17.896 13.451l-1.698 4.15 6.007-1.106zM-10.208 37.84l-2.694-4.865-2.343 4.923zM-12.902 32.975l2.694 4.865 2.553-5.07zM-10.208 37.84l-2.375 5.416 5.779-1.828z"/><path d="M-12.583 43.256l2.375-5.416-5.037.058zM-4.531 36.801l-5.677 1.039 3.404 3.588zM-10.208 37.84l5.677-1.039-3.124-4.031zM-1.361 41.202l5.262-.288-2.948-4.507zM-1.361 41.202l3.114 4.741 2.148-5.029z"/><path d="M-4.531 36.801l3.17 4.401 2.314-4.795z"/><path d="M-1.361 41.202l-3.17-4.401-2.273 4.627zM.543 27.322l-2.601 4.749 5.514-.458zM.543 27.322L6.1 26.92l-2.894-4.316zM.543 27.322l2.663-4.718-5.639.543z"/><path d="M6.1 26.92l-5.557.402 2.913 4.291zM.543 27.322l-5.589.565 2.988 4.184z"/><path d="M-5.046 27.887l5.589-.565-2.976-4.175zM38.603 25.363l2.158 5.053 2.91-4.35z"/><path d="M40.761 30.416l-2.158-5.053-2.755 4.536zM31.809 12.948l5.571 2.369-1.988-5.879z"/><path d="M40.099 10.693l-2.719 4.624 5.264.977zM32.61 17.476l4.77-2.159-5.571-2.369z"/><path d="M35.755 21.021l1.625-5.704-4.77 2.159zM28.157 26.916l-5.38-.592 3.077 4.862zM31.603 31.949l-3.446-5.033-2.303 4.27zM24.956 21.708l3.201 5.208 1.894-5.01zM28.157 26.916l-3.201-5.208-2.179 4.616zM22.205 16.495l4.163-4.322-4.757-1.612zM22.205 16.495l5.231.512-1.068-4.834zM27.436 17.007l5.174.469-.801-4.528z"/><path d="M32.61 17.476l-5.174-.469 2.615 4.899zM24.956 21.708l2.48-4.701-5.231-.512zM27.436 17.007l-2.48 4.701 5.095.198zM11.675-44.626l3.588-3.888-5.187-1.337zM-39.583 23.32l-5.451.314 2.627 4.442zM-41.958 18.913l2.375 4.407 2.838-4.787zM-39.583 23.32l5.53-.172-2.692-4.615z"/><path d="M-45.034 23.634l5.451-.314-2.375-4.407zM-39.583 23.32l2.691 4.226 2.839-4.398z"/><path d="M-36.892 27.546l-2.691-4.226-2.824 4.756zM-46.563 0l.909-5.058-4.988.364zM-45.654-5.058L-46.563 0h4.43zM-49.98-9.411l4.326 4.353 1.805-4.54z"/><path d="M-45.654-5.058l-4.326-4.353-.662 4.717zM-48.913-13.931l4.584-.396-2.865-4.63z"/><path d="M-44.329-14.327l2.371-4.586-5.236-.044zM-43.849-9.598l-5.064-4.333-1.067 4.52z"/><path d="M-43.849-9.598l-.48-4.729-4.584.396zM19.738 21.445l5.218.263-2.751-5.213z"/><path d="M24.956 21.708l-5.218-.263 3.039 4.879zM19.738 21.445L17.25 26.14l5.527.184z"/><path d="M16.198 17.601l3.54 3.844 2.467-4.95zM-.451 50.857l-2.838-4.896-2.414 4.577z"/><path d="M-3.289 45.961l-5.188-.103 2.774 4.68z"/><path d="M-8.477 45.858l5.188.103-3.515-4.533zM-3.289 45.961l2.838 4.896 2.204-4.914z"/><path d="M-1.361 41.202l-1.928 4.759 5.042-.018zM-3.289 45.961l1.928-4.759-5.443.226zM40.811 20.614l-2.208 4.749 5.068.703zM40.811 20.614l5.153 1.155-3.32-5.475z"/><path d="M45.964 21.769l-5.153-1.155 2.86 5.452zM38.603 25.363l2.208-4.749-5.056.407z"/><path d="M40.811 20.614l-3.431-5.297-1.625 5.704z"/><path d="M37.38 15.317l3.431 5.297 1.833-4.32zM33.111 25.98l5.492-.617-2.848-4.342z"/><path d="M33.111 25.98l2.644-4.959-5.704.885zM33.111 25.98l-1.508 5.969 4.245-2.05zM38.603 25.363l-5.492.617 2.737 3.919z"/><path d="M28.157 26.916l4.954-.936-3.06-4.074z"/><path d="M33.111 25.98l-4.954.936 3.446 5.033zM20.347-40.478l-3.624-3.217-2.274 4.113zM16.723-43.695l-5.048-.931 2.774 5.044z"/><path d="M20.562-46.517l-3.839 2.822 3.624 3.217zM15.263-48.514l1.46 4.819 3.839-2.822zM16.723-43.695l-1.46-4.819-3.588 3.888zM-40.361-4.891l2.548-4.341-6.036-.366zM-40.361-4.891L-37.194 0l2.406-4.667z"/><path d="M-40.361-4.891L-42.133 0h4.939z"/><path d="M-37.813-9.232l-2.548 4.341 5.573.224zM-45.654-5.058l5.293.167-3.488-4.707z"/><path d="M-40.361-4.891l-5.293-.167L-42.133 0zM-39.521-13.824l1.708 4.592 3.531-4.517zM-39.521-13.824l5.239.075-2.463-4.784z"/><path d="M-41.958-18.913l2.437 5.089 2.776-4.709zM-37.813-9.232l-1.708-4.592-4.328 4.226zM-39.521-13.824l-4.808-.503.48 4.729z"/><path d="M-44.329-14.327l4.808.503-2.437-5.089zM17.25 26.14l-3.299-4.2-2.241 4.78zM8.686 22.26l5.265-.32-3.229-4.789z"/><path d="M13.951 21.94l-5.265.32 3.024 4.46zM13.951 21.94l2.247-4.339-5.476-.45zM13.951 21.94l5.787-.495-3.54-3.844zM19.738 21.445l-5.787.495 3.299 4.2z"/></svg>