<svg xmlns="http://www.w3.org/2000/svg" viewBox="-152.576 0 300 305.14"><style>path{fill:none;stroke:#000;stroke-width:1;stroke-linejoin:bevel}</style><path d="M127.933 201.452l15.345 3.565-9.128-16.674z"/><path d="M134.15 188.343l9.128 16.674 4.146-13.134zm-6.217 13.109l6.217-13.109-13.854-3.694zm9.959-114.19l-6.879-12.89-8.58 16.357zM-146.74 194.363l5.159 15.077 8.595-13.888zm59.207-27.989l-16.831.197 8.258 13.446zm-15.312 27.442l16.091.096-9.352-13.895zm-1.519-27.245l-7.217-14.001-9.501 14.674zm118.84 137.886l15.752-2.336-9.96-13.078zm-74.663-11.684l13.425 5.03-5.681-17.634zm47.816-167.212l-16.884-.08 9.633 13.395zm-16.884-.08l16.884.08-10.324-13.947zm-33.683-29.119l-8.147-14.842-7.377 15.194zm7.77-14.13l-15.917-.712 8.147 14.842zM-1.354 0l-15.754.956 7.242 13.731zm-4.82 56.358l-8.965 12.551 16.768 1.695zM-37.75 22.801l-7.986 16.075 15.113.174zM-17.108.956l-8.323 14.039 15.565-.308z"/><path d="M-25.431 14.995L-17.108.956l-16.013 2.676zm145.727 169.654l-14.12-3.766 5.963 17.638zm-135.752 23.373l-7.903 14.307 16.059-.319zM9.618 84.758L.492 96.92l16.985 2.28zm58.716-37.766l9.229 12.021 8.647-13.822zm33.005-8.483l-12.183-9.756-2.946 16.438zm-41.446 98.089l15.474-4.126-10.533-11.584zm24.579-64.775l-6.909-12.81-9.232 14.583zm-5.367 44.228l-3.738 16.421 14.964-3.99z"/><path d="M75.367 132.472l3.738-16.421-14.271 4.837zm-193.929 61.571l-12.984-12.681-1.44 14.19zm16.402-110.916l-16.59-.516 8.515 14.36zm15.406 110.785l-7.507 14.113 15.799.401z"/><path d="M-102.845 193.816l8.584 14.209 7.507-14.113zm-34.117-26.073l5.416 13.619 10.464-14.118zm167.19 134.378l4.797-15.672-14.757 2.594zm4.797-15.672l10.763 11.664 4.38-14.457z"/><path d="M45.788 298.113l-10.763-11.664-4.797 15.672zM8.248 194.745l9.229 11.195 4.245-17.385zm-78.936-.588l-16.066-.245 8.292 14.514zM-1.63 138.28l-10.741-12.719-7.251 13.315z"/><path d="M-1.63 138.28l6.017-14.208-16.758 1.489zm-27.625 41.379l9.633-13.396-17.39-.03zm-7.757-40.752l7.757-13.426-16.735-.321zm7.757-13.426l-7.757 13.426 17.39-.031zm-25.461-14.542l-7.851 14.095 16.577.126zm39.577-42.03l-15.983-.595 7.763 14.497zm-15.983-.595l-8.018 14.423 15.781.074zm-55.07 14.204l6.632-16.101-14.316 2.422zm-15.968.609l15.968-.609-7.684-13.679zm15.968-.609l15.107-.998-8.475-15.103zm15.107-.998l-15.107.998 7.73 14.196zm7.797-13.861l-8.401-14.254-7.871 13.012zm-8.401-14.254l8.401 14.254 8.961-13.181zm8.401 14.254l-7.797 13.861 15.917.712z"/><path d="M-71.085 81.52l7.797-13.861-16.272-1.242zm18.642-56.55l6.707 13.906 7.986-16.075zM94.809 248.416l-17.246-2.289 8.647 13.822zm16.855 8.127l10.62-12.726-14.739-1.551zm26.228-38.665l5.386-12.861-15.345-3.565zm-153.348-9.856l8.263-14.135-15.502-.362zm19.843-26.955l17.335 7.488-5.803-16.653zm9.483-24.798l2.049 15.633 12.755-11.686zm29.989 7.996l4.267 14.476 11.767-10.2zM9.618 84.758l8.683-12.95-16.672-1.204zM-7.3 83.13l-7.839-14.221-8.22 13.902z"/><path d="M-15.139 68.909L-7.3 83.13l8.929-12.526z"/><path d="M-7.3 83.13l16.918 1.628-7.989-14.154zm16.918 1.628L-7.3 83.13.492 96.92z"/><path d="M-7.3 83.13l-8.156 13.988L.492 96.92z"/><path d="M-15.456 97.118L-7.3 83.13l-16.059-.319z"/><path d="M-31.163 97.181l15.707-.063-7.903-14.307zm-7.977-14.444l7.977 14.444 7.804-14.37zm23.684 14.381l-15.707.063 8.468 14.433zm63.582 29.281l16.708-5.511-11.145-8.672zm18.489-23.313l-12.926 9.13 11.145 8.672zm-12.926 9.13l12.926-9.13-18.022-3.32zm35.467-83.463l-13.753 5.779L86.21 45.191zm-13.753 5.779l13.753-5.779-14.139-9.043z"/><path d="M75.403 34.532l-7.069 12.46 17.876-1.801zm-10.569 149.72l10.533-11.584-15.474-4.127zm14.271 4.837l-3.738-16.421-10.533 11.584z"/><path d="M75.367 172.668l3.738 16.421 11.226-12.431zm23.966-98.037l-14.861-2.808 5.682 15.028zm6.843 49.625l-10.748-10.531-5.097 14.757zm-10.748-10.531l-16.323 2.326 11.226 12.431zm-208.866 66.539l9.074-13.693-16.718.673zm0 0l10.593 13.552 6.739-13.799z"/><path d="M-104.364 166.571l-9.074 13.693 17.332-.247zm1.519 27.245l-10.593-13.552-5.124 13.779z"/><path d="M-113.438 180.264l-18.108 1.098 12.984 12.681zm-18.108 1.098l18.108-1.098-7.644-13.02zm37.67 54.939l-8.19 11.808 12.983 5.979z"/><path d="M-79.56 238.722l-14.316-2.421 4.793 17.787zm18.479 24.794l8.638 16.653 6.707-13.906zm-74.02-181.849l16.351.944-8.47-14.27zm24.425-11.734l8.516 13.194 8.284-14.288zm0 0l-7.298-14.118-9.246 12.526z"/><path d="M-110.676 69.933l-8.074 12.678 16.59.516z"/><path d="M-118.75 82.611l8.074-12.678-16.544-1.592zm8.515 125.558l7.39-14.353-15.717.227zm0 0l15.974-.144-8.584-14.209zm-21.311-26.807l-15.194 13.001 13.754 1.189zm0 0l-18.395-.559 3.201 13.56zm-5.416-13.619l-12.979 13.06 18.395.559zm-12.979 13.06l12.979-13.06-14.963-1.091zm38.36-28.233h-14.817l5.316 14.674zm-14.817 0l-10.564 15.173 15.88-.499zM45.788 298.113l15.898-5.993-11.518-8.464zm-1.525-52.51l8.514 13.818 7.645-14.713zm-.916 25.713l-8.322 15.133 15.143-2.793zm-11.18-67.294l5.601-13.223-16.046-2.244z"/><path d="M17.477 205.94l14.69-1.918-10.445-15.467zm-7.109 41.468l8.643 12.997 7.978-14.221z"/><path d="M19.011 260.405l-8.643-12.997-7.51 14.384zm-66.065-52.089l-8.114 14.592 16.028-.505zm23.695 14.013l-7.804-14.37-7.977 14.444zm-7.804-14.37l15.707.063-7.239-14.497zm15.707.063l-15.707-.063 7.804 14.37z"/><path d="M-31.163 207.959l-15.891.357 7.914 14.087zm-31.404-27.853l-8.121 14.051 15.972.044zm49.148-27.536l11.789-14.29-17.992.596zm11.789-14.29l-11.789 14.29H0zm-5.563-27.028l-8.263-14.134-7.239 14.496zm-5.178 14.309l5.178-14.309-15.502.362z"/><path d="M-15.456 97.118l8.263 14.134L.492 96.92zm19.843 26.954l-11.58-12.82-5.178 14.309zm11.532 9.165L-1.63 138.28l15.5 10.591zm-2.049 15.634l-15.5-10.591L0 152.57z"/><path d="M15.919 133.237l-11.532-9.165-6.017 14.208z"/><path d="M13.87 148.871l14.804-3.948-12.755-11.686zm-59.69 3.699l-8.146-13.734-8.453 13.734z"/><path d="M-62.567 125.034l8.601 13.802 7.976-13.676zm25.555 13.873l-16.954-.071 8.146 13.734z"/><path d="M-53.966 138.836l16.954.071-8.978-13.747zm-16.722-27.853l7.75-14.621-15.524.352zm0 0l15.972-.044-8.222-14.577zm8.121 14.051l-8.121-14.051-8.52 14.103z"/><path d="M-54.716 110.939l-15.972.044 8.121 14.051zm-15.972.044l-16.066.245 7.546 13.858zm-16.066.245l16.066-.245-7.774-14.269zm-9.352 13.895l8.573 13.643 8.325-13.68z"/><path d="M-87.533 138.766l-8.573-13.643-8.258 13.446z"/><path d="M-96.106 125.123l9.352-13.895-16.091.096z"/><path d="M-86.754 111.228l-9.352 13.895 16.898-.037zm7.194-44.811l-9.523-15.366-4.793 17.788z"/><path d="M-71.689 53.405l-17.394-2.354 9.523 15.366zm32.982.24l-7.029-14.769-8.591 15.602zm-7.029-14.769l7.029 14.769 8.084-14.595zm-48.525 58.239l7.507 14.113 8.292-14.514zm0 0l-7.899-13.988-8.075 13.844zm-8.584 14.209l8.584-14.209-15.974-.144z"/><path d="M-86.754 111.228l-7.507-14.113-8.584 14.209zm-7.507-14.113l8.069-14.597-15.968.609zm8.069-14.597l-8.069 14.597 15.799-.401zm65.779-54.232l-17.337-5.485 7.127 16.249zm0 0l16.329.678-5.782-14.277z"/><path d="M-25.431 14.995l5.018 13.291 10.547-13.599z"/><path d="M-20.413 28.286l-5.018-13.291-12.319 7.806zm0 0l6.821 13.881 9.508-13.203z"/><path d="M-13.592 42.167l-6.821-13.881-10.21 10.764zm-32.144-3.291l-15.345 2.748 6.754 12.854zm-15.345 2.748l-10.608 11.781 17.362 1.073zm8.638-16.654l-8.638 16.654 15.345-2.748zm14.693-2.169l12.319-7.806-7.69-11.363zm0 0l4.629-19.169-13.641 3.705zm-14.693 2.169l5.681-17.633-13.425 5.03z"/><path d="M-46.762 7.337l-5.681 17.633 14.693-2.169zm124.325 238.79l-9.232-14.584-7.909 13.165zm17.246 2.289l16.855 8.127-4.119-14.277zm-5.653 27.971l12.183-9.756-15.129-6.682z"/><path d="M101.339 266.631l-6.53-18.215-8.599 11.533z"/><path d="M94.809 248.416l6.53 18.215 10.325-10.088zM-1.63 166.859l15.5-10.59L0 152.57zm0 0l-11.789-14.289-6.203 13.693zm-11.789-14.289l11.789 14.289L0 152.57zm23.038 67.812L.492 208.219-7.3 222.01z"/><path d="M.492 208.219l-15.948-.197L-7.3 222.01zm0 0l16.985-2.279-9.229-11.195zm16.985-2.279L.492 208.219l9.127 12.163z"/><path d="M.492 208.219l-7.685-14.332-8.263 14.135z"/><path d="M-7.193 193.887l7.685 14.332 7.756-13.474zm44.961-3.088l-6.111-14.981-9.935 12.737zm-6.111-14.981l12.202-11.553-15.185-4.049z"/><path d="M31.657 175.818l-15.738-3.916 5.803 16.653zm-15.738-3.916l15.738 3.916-2.983-15.602z"/><path d="M48.126 178.741l-16.469-2.923 6.111 14.981zm-16.469-2.923l16.469 2.923-4.267-14.476zm33.177 8.434l-4.941-15.711-11.767 10.2zm0 0l-11.145 8.672 12.926 9.13z"/><path d="M64.834 184.252l-16.708-5.511 5.563 14.183zm-11.145 8.672l-5.563-14.183-10.358 12.058zm41.739-1.509l10.748-10.532-15.845-4.225z"/><path d="M79.105 189.089l16.323 2.326-5.097-14.757zm-108.36-63.608l-9.379-14.159-7.356 13.838z"/><path d="M-38.634 111.322l9.379 14.159 6.56-13.867zm0 0l-16.082-.383 8.726 14.221z"/><path d="M-31.163 97.181l-7.471 14.141 15.939.292zm57.22-11.391L9.618 84.758 17.477 99.2zm-7.756-13.982l7.756 13.982 9.073-13.381z"/><path d="M26.057 85.79l-7.756-13.982-8.683 12.95zm0 0l15.797.959-6.724-14.34zm11.711 28.551l15.921-2.125-5.096-12.45zm28.847-11.255l12.49 12.965 3.204-14.501z"/><path d="M66.615 103.086l-1.781 17.802 14.271-4.837zm-7.4-14.851l-17.361-1.486 6.739 13.017zm7.4 14.851l-7.4-14.851-10.622 11.531zM-4.084 28.964L5.26 14.742l-15.126-.055zM5.26 14.742L-1.354 0l-8.512 14.687zM2.858 43.348l-16.45-1.181 7.418 14.191z"/><path d="M-13.592 42.167l16.45 1.181-6.942-14.384zm57.855 17.37l-17.274-.581 8.141 13.453zm-17.274-.581l-8.688 12.852 16.829.601zm50.574.057l-17.141 1.419 7.909 13.164zm-9.229-12.021l-7.912 13.44 17.141-1.419zm62.679 27.38L115.81 76.48l6.623 14.249zm-46.541-2.549l10.337-15.099-17.246 2.289z"/><path d="M77.563 59.013l17.246-2.289-8.599-11.533z"/><path d="M94.809 56.724l6.53-18.215-15.129 6.682zm4.524 17.907l-4.524-17.907-10.337 15.099zm7.931 14.876l-7.931-14.876-9.179 12.22z"/><path d="M107.264 89.507l8.546-13.027-16.477-1.849zm8.546-13.027l-8.546 13.027 15.169 1.222zm18.34 40.317l9.128-16.674-15.345 3.565z"/><path d="M143.278 100.123l-9.128 16.674 13.274-3.54zm-15.345 3.565l9.959-16.426-15.459 3.467zm-7.637 16.803l7.637-16.803-15.794 2.93z"/><path d="M134.15 116.797l-6.217-13.109-7.637 16.803zm-6.217-13.109l15.345-3.565-5.386-12.861zM-96.639 270.639l17.35-5.238-9.794-11.313zm7.556-16.551l-12.983-5.979-5.011 13.153zm-5.178-46.063l8.069 14.596 7.73-14.195zm14.701 30.697l-6.632-16.101-7.684 13.68zm48.438-1.897l7.763-14.496-15.781.074zm0 0l-7.585 14.669 15.742-.615zm-40.567 14.909l-7.871-13.012-9.523 15.366z"/><path d="M-79.289 265.401l7.6-13.667-17.394 2.354zm-.271-26.679l7.871 13.012 8.401-14.253zm18.479 24.794l-10.608-11.782-7.6 13.667zm-5.957 11.698l6.851 17.559 7.744-12.604z"/><path d="M-60.187 292.773l-6.851-17.559-5.811 11.417zm-.894-29.257l-5.957 11.698 14.595 4.955z"/><path d="M-67.038 275.214l5.957-11.698-18.208 1.885zM-125.875 95.83l-9.226-14.163-6.48 14.033zm7.125-13.219l-7.125 13.219 15.64 1.141z"/><path d="M-135.101 81.667l9.226 14.163 7.125-13.219zm23.52 70.903h16.069l-8.852-14.001zm24.048 13.804l-7.979-13.804-8.852 14.001z"/><path d="M-95.512 152.57h-16.069l7.217 14.001zm0 0l7.979-13.804-16.831-.197zm16.494 0h-16.494l7.979 13.804z"/><path d="M-95.512 152.57h16.494l-8.515-13.804zm-46.069 56.87l15.706-.131-7.111-13.757zm15.706-.131l7.313-15.266-14.424 1.509zm0 0l15.64-1.14-8.327-14.126zm-11.087-41.566l-2.726-15.173-12.237 14.082zm-14.963-1.091l12.237-14.082h-12.888zm12.237-14.082l-12.237-14.082-.651 14.082zm13.29 0h-13.29l2.726 15.173zm138.1 122.741l7.309-14.906-16.153 1.387zm65.861-29.184l-9.229 12.021 17.876 1.801z"/><path d="M68.334 258.148l9.229-12.021-17.141-1.419z"/><path d="M52.777 259.421l15.557-1.273-7.912-13.44zm-17.296-.716l8.782-13.102-17.274.581zm-16.47 1.7l16.47-1.7-8.492-12.521zm25.252-14.802l-8.782 13.102 17.296.716z"/><path d="M35.481 258.705l7.866 12.611 9.43-11.895zm8.782-13.102L35.13 232.73l-8.141 13.454zm-33.895 1.805l-16.542 1.373 9.032 13.011zm-57.13 50.395l9.012-15.464-14.693-2.17z"/><path d="M-52.443 280.169l14.693 2.17-7.986-16.076zm-10.495-71.392l15.884-.461-7.662-14.115zm0 0l-7.75-14.62-7.774 14.269z"/><path d="M-70.688 194.157l7.75 14.62 8.222-14.576z"/><path d="M-62.938 208.777l7.77 14.131 8.114-14.592zm33.683-29.118l-9.379 14.159 15.939-.293z"/><path d="M-47.054 208.316l8.42-14.498-16.082.383zm15.891-.357l-7.471-14.141-8.42 14.498zm-7.471-14.141l7.471 14.141 8.468-14.434zm-40.574-13.764l-8.325-13.68-8.573 13.643zm-7.546 13.858l7.546-13.858-16.898-.037zm16.066.245l-8.52-14.103-7.546 13.858z"/><path d="M-62.567 180.106l-16.641-.052 8.52 14.103zm16.747-27.536l-8.146 13.734 16.954-.071z"/><path d="M-53.966 166.304l8.146-13.734h-16.599zm24.653-13.734H-45.82l8.808 13.663zm0 0l-7.699-13.663-8.808 13.663zm9.691 13.693l-9.691-13.693-7.699 13.663z"/><path d="M-37.012 138.907l7.699 13.663 9.691-13.694z"/><path d="M-13.419 152.57h-15.894l9.691 13.693zm-15.894 0h15.894l-6.203-13.694zm37.561-42.175l13.474 6.189L17.477 99.2z"/><path d="M.492 96.92l7.756 13.475L17.477 99.2zm21.23 19.664l-17.335 7.488 11.532 9.165z"/><path d="M21.722 116.584l-13.474-6.189-3.861 13.677zm-13.474-6.189l-15.441.857 11.58 12.82zm-15.441.857l15.441-.857L.492 96.92zm-63.555 27.555l8.181-13.773-16.641.052zm0 0l-8.27 13.763h16.599z"/><path d="M-87.533 138.766l16.785.041-8.46-13.721zm8.515 13.804l8.27-13.763-16.785-.041zm8.27-13.763l16.782.029-8.601-13.802zm16.782.029l-16.782-.029 8.329 13.763zm47.792-82.478l-16.791-2.097 7.826 14.648z"/><path d="M-22.965 54.261l9.373-12.094-17.031-3.117zm0 0l-8.157 14.053 15.983.595zm9.373-12.094l-9.373 12.094 16.791 2.097z"/><path d="M-22.965 54.261l-15.742-.616 7.585 14.669z"/><path d="M-38.707 53.645l15.742.616-7.658-15.211zm7.585 14.669l-15.752.091 7.734 14.332zm-8.018 14.423l-7.734-14.332-8.294 13.827z"/><path d="M-63.288 67.659l16.414.746-7.453-13.927zm16.414.746l-16.414-.746 8.12 14.573z"/><path d="M-46.874 68.405l8.167-14.76-15.62.833zm8.167-14.76l-8.167 14.76 15.752-.091zm-28.331-23.72l14.595-4.955-7.744-12.603z"/><path d="M-67.038 29.925l6.851-17.558-12.662 6.142zm-18.002-4.034l18.002 4.034-5.811-11.416zm18.002 4.034l5.957 11.699 8.638-16.654zm54.667 149.654l-16.884.08 6.56 13.866zm-16.884.08l16.884-.08-7.251-13.316z"/><path d="M-7.193 193.887l-5.178-14.308-10.324 13.946zm-5.178-14.308l10.741-12.72-17.992-.596zm-42.345-68.64l7.662-14.115-15.884-.462zm7.662-14.115l-8.114-14.592-7.77 14.13zm0 0l7.914-14.087-16.028-.505zm0 0l15.891.357-7.977-14.444z"/><path d="M-47.054 96.824l8.42 14.498 7.471-14.141z"/><path d="M-38.634 111.322l-8.42-14.498-7.662 14.115zm70.801-10.204l-6.11-15.328-8.58 13.41zm-10.445 15.466l10.445-15.466-14.69-1.918zm20.132-29.835l-9.687 14.369 16.426-1.352z"/><path d="M26.057 85.79l6.11 15.328 9.687-14.369z"/><path d="M37.768 114.341l-5.601-13.223-10.445 15.466z"/><path d="M32.167 101.118l5.601 13.223 10.825-14.575zm-.51 28.204l-2.983 15.601 15.185-4.049z"/><path d="M28.674 144.923l2.983-15.601-15.738 3.915z"/><path d="M31.657 129.322l-9.935-12.738-5.803 16.653z"/><path d="M31.657 129.322l6.111-14.981-16.046 2.243zm52.815-57.499l-9.605 15.622 15.287-.594zm-9.605 15.622l7.442 14.105 7.845-14.699z"/><path d="M74.867 87.445l9.605-15.622-16.141 1.773zm7.442 14.105l-7.442-14.105-8.252 15.641z"/><path d="M74.867 87.445l-15.652.79 7.4 14.851z"/><path d="M59.215 88.235l15.652-.79-6.536-13.849zM11.702 29.829L5.26 14.742l-9.344 14.222zM2.858 43.348l8.844-13.519-15.786-.865zM5.26 14.742L14.476.682-1.354 0zm70.143 19.79l-14.361-3.397 7.292 15.857zm-32.056-.708l-8.322-15.133-7.675 13.094zM18.301 71.808l-7.933-14.076-8.739 12.872zm-7.933-14.076l-16.542-1.374 7.803 14.246z"/><path d="M10.368 57.732l-7.51-14.384-9.032 13.01zm16.621 1.224l-16.621-1.224 7.933 14.076zm8.492-12.521l7.866-12.611-15.997-2.039zm0 0l-8.492 12.521 17.274.581zm6.373 40.314L51.75 74.15l-16.62-1.741zM51.75 74.15l7.465 14.085 9.116-14.639z"/><path d="M51.75 74.15l-7.487-14.613-9.133 12.872zm7.465 14.085L51.75 74.15l-9.896 12.599zM51.75 74.15l8.672-13.718-16.159-.895zm8.672-13.718L51.75 74.15l16.581-.554zm61.862.891L115.81 76.48l15.203-2.108zm-26.856 52.402l2.402-13.582-15.521 1.407z"/><path d="M82.309 101.55l15.521-1.407-7.676-13.292zm13.119 12.175L82.309 101.55l-3.204 14.501z"/><path d="M97.83 100.143l9.434-10.636-17.11-2.656zm-204.907 161.119l5.011-13.153-15.908 1.216zm17.994-7.174l-17.994 7.174 10.438 9.377zm-21.152-45.919l8.075 13.844 7.899-13.988zm8.075 13.844l15.968.608-8.069-14.596zm15.968.608l-15.968-.608 8.284 14.288zm31.024.287l8.294 13.827 7.734-14.332zm8.294 13.827l-8.294-13.827-8.12 14.573zm15.752.09l-15.752-.09 8.167 14.759z"/><path d="M-46.874 236.735l15.752.09-8.018-14.422zm-49.765 33.904l11.599 8.61 5.751-13.848z"/><path d="M-85.04 279.249l18.002-4.035-12.251-9.813zm18.002-4.035l-18.002 4.035 12.191 7.382zm-68.063-51.742l9.226-14.163-15.706.131zm146.803 51.839L5.26 290.398l15.008-1.355zM5.26 290.398l9.216 14.059 5.792-15.414zm70.143-19.79l13.753 5.779-2.946-16.438z"/><path d="M89.156 276.387l-13.753-5.779-.386 14.822zm-28.114-2.382l13.975 11.425.386-14.822zm7.292-15.857l7.069 12.46 10.807-10.659zM27.35 273.354l-15.648 1.957 8.566 13.732z"/><path d="M35.025 286.449l-7.675-13.095-7.082 15.689zm8.322-15.133l-15.997 2.038 7.675 13.095z"/><path d="M11.702 275.311l15.648-1.957-8.339-12.949zm23.779-16.606l-8.131 14.649 15.997-2.038z"/><path d="M27.35 273.354l8.131-14.649-16.47 1.7zm-9.049-40.023l-7.933 14.077 16.621-1.224zm16.829-.601l-16.829.601 8.688 12.853zm33.201-1.187l-16.581-.553 8.672 13.718zm-16.581-.553l-7.487 14.613 16.159-.895zm0 0l-16.62 1.74 9.133 12.873zm-57.924 17.791l-7.418 14.191 16.45-1.18zm-7.418 14.191l7.418-14.191-16.791 2.098zm-9.767-40.643l8.22 13.902L-7.3 222.01zm8.22 13.902l-15.983.594 8.157 14.054z"/><path d="M-31.122 236.825l15.983-.594-8.22-13.902zm24.948 11.956l-8.965-12.55-7.826 14.648zm-10.934 55.403l-8.323-14.039-7.69 11.362zm-20.642-21.845l4.629 19.168 7.69-11.362zm0 0l12.319 7.806 5.018-13.291zm0 0l-9.012 15.464 13.641 3.704zm-33.335-58.72l-8.475 15.103 16.272-1.241zm15.917-.711l-15.917.711 7.797 13.862zm-31.024-.287l15.107.998-7.377-15.193zm15.107.998l-15.107-.998 6.632 16.101zm8.147-14.842l-8.147 14.842 15.917-.711z"/><path d="M-71.085 223.619l8.147-14.842-15.524-.351zm-7.933-71.049l8.27 13.763 8.329-13.763z"/><path d="M-70.748 166.333l-8.27-13.763-8.515 13.804zm-8.46 13.721l8.46-13.721-16.785.041z"/><path d="M-70.748 166.333l-8.46 13.721 16.641.052z"/><path d="M-53.966 166.304l-16.782.029 8.181 13.773zm-16.782.029l16.782-.029-8.453-13.734zm24.758 13.647l-16.577.126 7.851 14.095zm7.356 13.838l-7.356-13.838-8.726 14.221zm-7.356-13.838l16.735-.321-7.757-13.426zm0 0l7.356 13.838 9.379-14.159z"/><path d="M-53.966 166.304l7.976 13.676 8.978-13.747z"/><path d="M-45.99 179.98l-7.976-13.676-8.601 13.802zm-56.076-122.949l-8.61 12.902 16.8-1.094zm-15.908-1.216l15.908 1.216-5.011-13.153z"/><path d="M-110.676 69.933l8.61-12.902-15.908-1.216zm21.593-18.882l-12.983 5.98 8.19 11.808zm0 0l-7.556-16.55-10.438 9.377z"/><path d="M-89.083 51.051l-17.994-7.173 5.011 13.153z"/><path d="M-79.289 39.739l-17.35-5.238 7.556 16.55zm0 0l-9.794 11.312 17.394 2.354z"/><path d="M-61.081 41.624l-18.208-1.885 7.6 13.666zm-35.558-7.123l17.35 5.238-5.751-13.848z"/><path d="M-67.038 29.925l-12.251 9.814 18.208 1.885zm-12.251 9.814l12.251-9.814-18.002-4.034zM4.387 181.067l-11.58 12.82 15.441.858z"/><path d="M4.387 181.067l3.861 13.678 13.474-6.19zm11.532-9.165l-2.049-15.633-15.5 10.59zm0 0l-17.549-5.043 6.017 14.208zm-28.29 7.677l16.758 1.488-6.017-14.208zm16.758 1.488l-16.758-1.488 5.178 14.308zm77.922 22.523l13.119-12.175-16.323-2.326zm24.955 12.042l-9.434-10.635-7.676 13.292zm-47.371-79.034l-11.767-10.199-4.267 14.475zm-22.125-22.257l10.358 12.058 5.563-14.183zm10.358 12.058l11.767 10.199 4.941-15.71z"/><path d="M31.657 129.322l16.469-2.923-10.358-12.058z"/><path d="M48.126 126.399l-16.469 2.923 12.202 11.552zM75.017 19.71l-13.331-6.69-.644 18.115zm0 0L61.042 31.135l14.361 3.397zm-54.749-3.613l-8.566 13.732 15.648 1.956zM14.476.682l5.792 15.415 9.96-13.079z"/><path d="M11.702 29.829l8.566-13.732L5.26 14.742z"/><path d="M20.268 16.097L14.476.682 5.26 14.742zm0 0l14.757 2.594-4.797-15.673z"/><path d="M35.025 18.691l-14.757-2.594 7.082 15.688zm26.017 12.444l-8.265 14.583 15.557 1.274zm-.62 29.297l-7.645-14.714-8.514 13.819z"/><path d="M52.777 45.718l7.645 14.714 7.912-13.44zm0 0l8.265-14.583-17.695 2.689z"/><path d="M35.481 46.435l17.296-.717-9.43-11.894zm17.296-.717l-17.296.717 8.782 13.102zM10.368 57.732l8.643-12.997-16.153-1.387z"/><path d="M19.011 44.735l-7.309-14.906-8.844 13.519zm-7.309-14.906l7.309 14.906 8.339-12.95zm7.309 14.906l-8.643 12.997 16.621 1.224zm16.47 1.7l-16.47-1.7 7.978 14.221z"/><path d="M19.011 44.735l16.47 1.7-8.131-14.65zm92.653 3.861l-16.855 8.128 12.736 6.15zm4.146 27.884l-8.265-13.606-8.212 11.757z"/><path d="M111.664 48.596l-10.325-10.087-6.53 18.215zm-4.119 14.278l-12.736-6.15 4.524 17.907zm14.739-1.551l-14.739 1.551 8.265 13.606z"/><path d="M107.545 62.874l14.739-1.551-10.62-12.727zm-.281 26.633l4.875 17.111 10.294-15.889z"/><path d="M112.139 106.618l15.794-2.93-5.5-12.959zm0 0l-16.711 7.107 10.748 10.531zm8.157 13.873l-8.157-13.873-5.963 17.638zM97.83 100.143l14.309 6.475-4.875-17.111z"/><path d="M112.139 106.618l-14.309-6.475-2.402 13.582zm-222.815 128.589l-16.544 1.592 9.246 12.526zm8.61 12.902l-8.61-12.902-7.298 14.118zm-8.61-12.902l8.61 12.902 8.19-11.808z"/><path d="M-102.16 222.013l-8.516 13.194 16.8 1.094zm47.833 28.648l-6.754 12.855 15.345 2.747zm15.62.833l-15.62-.833 8.591 15.602zm-32.982.24l17.362-1.073-8.961-13.18z"/><path d="M-54.327 250.661l-17.362 1.073 10.608 11.782z"/><path d="M-46.874 236.735l-7.453 13.926 15.62.833z"/><path d="M-54.327 250.661l7.453-13.926-16.414.746zm-59.111-125.786l17.332.248-6.739-13.799zm17.332.248l-17.332-.248 9.074 13.694zM5.26 290.398l-6.614 14.742 15.83-.683zm55.782-16.393l-17.695-2.689 6.821 12.34zm.644 18.115l-.644-18.115-10.874 9.651zm-18.339-20.804l17.695 2.689-8.265-14.584zm17.695 2.689l7.292-15.857-15.557 1.273zm0 0l14.361-3.397-7.069-12.46zm0 0l.644 18.115 13.331-6.69zM26.057 219.35l-8.58-13.41-7.858 14.442zm0 0l6.11-15.328-14.69 1.918zm0 0l-7.756 13.981 16.829-.601z"/><path d="M18.301 233.331l7.756-13.981-16.438 1.032zm13.866-29.309l16.426 1.352-10.825-14.575zm16.426 1.352l5.096-12.45-15.921-2.125z"/><path d="M53.689 192.924l-5.096 12.45 18.022-3.32zm-84.312 73.166l-8.084-14.596-7.029 14.769z"/><path d="M-38.707 251.494l8.084 14.596 7.658-15.211zm8.084 14.596l-7.127 16.249 17.337-5.485z"/><path d="M-37.75 282.339l7.127-16.249-15.113.173zm24.158-19.367l-17.031 3.118 10.21 10.764zm-17.031 3.118l17.031-3.118-9.373-12.093zm26.539 10.086l15.786-.865-8.844-13.519zm0 0l9.344 14.222 6.442-15.087zm-9.508-13.204l9.508 13.204 6.942-14.384zm9.508 13.204l-9.508-13.204-6.821 13.882zm5.713-41.64l-7.803 14.245 16.542-1.373zm0 0l16.672-1.205-8.682-12.949z"/><path d="M1.629 234.536l7.99-14.154L-7.3 222.01z"/><path d="M18.301 233.331l-16.672 1.205 8.739 12.872z"/><path d="M1.629 234.536l-16.768 1.695 8.965 12.55z"/><path d="M-15.139 236.231l16.768-1.695L-7.3 222.01zm130.949-7.571l6.474 15.157 8.729-13.049zm6.474 15.157l-6.474-15.157-8.265 13.606zm-26.856-52.402l16.711 7.106-5.963-17.638zm24.868-6.766l-8.157 13.872 15.794 2.931zM97.83 204.997l14.309-6.476-16.711-7.106zm9.434 10.635l4.875-17.111-14.309 6.476zm-22.792 17.685l-16.141-1.774 9.232 14.584zm10.337 15.099l-10.337-15.099-6.909 12.81zm-19.942-30.721l9.605 15.622 5.682-15.028z"/><path d="M84.472 233.317l-9.605-15.622-6.536 13.848zm-17.857-31.263l12.49-12.965-14.271-4.837zm0 0l15.694 1.536-3.204-14.501zm15.694 1.536l15.521 1.407-2.402-13.582zm15.521 1.407l-15.521-1.407 7.845 14.699zm-22.963 12.698l7.442-14.105-15.694-1.536z"/><path d="M82.309 203.59l-7.442 14.105 15.287.594zM35.025 18.691L45.788 7.027l-15.56-4.009zM-118.75 222.529l-16.351.943 7.881 13.327zm-7.125-13.22l7.125 13.22 8.515-14.36zm7.125 13.22l16.59-.516-8.075-13.844z"/><path d="M-135.101 223.472l16.351-.943-7.125-13.22zm16.351-.943l8.074 12.678 8.516-13.194z"/><path d="M-110.676 235.207l-8.074-12.678-8.47 14.27zm-29.012-82.637l2.726-15.173-14.963 1.091zm2.726-15.173l-2.726 15.173h13.29zm-12.979-13.061l12.979 13.061 5.416-13.62z"/><path d="M-136.962 137.397l-12.979-13.061-1.984 14.152zm-9.778-26.62l13.754-1.189-8.595-13.888zm13.754-1.189l7.111-13.758-15.706-.13z"/><path d="M-131.546 123.777l-15.194-13-3.201 13.559zm0 0l-1.44-14.189-13.754 1.189zm190.761 93.128l15.652.79-8.252-15.641zm15.652.79l-15.652-.79 9.116 14.638z"/><path d="M59.215 216.905L51.75 230.99l16.581.553zm-10.622-11.531l10.622 11.531 7.4-14.851zM-1.354 305.14l-8.512-14.687-7.242 13.731z"/><path d="M-9.866 290.453l-15.565-.308 8.323 14.039z"/><path d="M-25.431 290.145l15.565.308-10.547-13.599zm15.565.308l8.512 14.687 6.614-14.742z"/><path d="M-4.084 276.176l-5.782 14.277 15.126-.055z"/><path d="M-9.866 290.453l5.782-14.277-16.329.678zm132.299-76.042l-6.623 14.249 15.203 2.108zm0 0l15.459 3.467-9.959-16.426z"/><path d="M137.892 217.878l-15.459-3.467 8.58 16.357zM115.81 228.66l6.623-14.249-15.169 1.221z"/><path d="M122.433 214.411l-10.294-15.89-4.875 17.111z"/><path d="M112.139 198.521l10.294 15.89 5.5-12.959zm-12.806 31.988l16.477-1.849-8.546-13.028zm0 0l7.931-14.877-17.11 2.657zm0 0l-4.524 17.907 12.736-6.15z"/><path d="M115.81 228.66l-16.477 1.849 8.212 11.757zm-31.338 4.657l14.861-2.808-9.179-12.22z"/><path d="M99.333 230.509l-14.861 2.808 10.337 15.099zM61.042 31.135l-10.874-9.651-6.821 12.34zm-10.874-9.651l-15.143-2.793 8.322 15.133z"/><path d="M61.686 13.02l-11.518 8.464 10.874 9.651z"/><path d="M45.788 7.027l4.38 14.457 11.518-8.464z"/><path d="M50.168 21.484l-4.38-14.457-10.763 11.664zm-171.25 116.412l7.644-13.021-18.108-1.098zm0 0l9.501 14.674 7.217-14.001z"/><path d="M-121.082 137.896l-5.316 14.674h14.817z"/><path d="M-113.438 124.875l-7.644 13.021 16.718.673zm-23.524 12.522l15.88.499-10.464-14.119z"/><path d="M-121.082 137.896l-15.88-.499 10.564 15.173zm2.52-26.799l5.124 13.778 10.593-13.551z"/><path d="M-118.562 111.097l15.717.227-7.39-14.353zm-7.313-15.267l7.313 15.267 8.327-14.126zm12.437 29.045l-5.124-13.778-12.984 12.68z"/><path d="M-118.562 111.097l-14.424-1.509 1.44 14.189zm-14.424-1.509l14.424 1.509-7.313-15.267zM51.75 230.99l-9.896-12.6-6.724 14.34zm-25.693-11.64l15.797-.96-9.687-14.368zm15.797-.96l-15.797.96 9.073 13.38zm0 0l6.739-13.016-16.426-1.352z"/><path d="M41.854 218.39l17.361-1.485-10.622-11.531zm17.361-1.485l-17.361 1.485 9.896 12.6z"/></svg>