<svg xmlns="http://www.w3.org/2000/svg" viewBox="0 0 100 100"><style>path{fill:none;stroke:#969696;stroke-width:.5;stroke-linejoin:bevel}</style><path d="M24.769 95.388l.01 4.612h4.544zM24.769 95.388l5.851-.202-2.897-4.431zM51.755 95.394L55 100l1.142-5.709zM22.107 33.679l-1.574 4.723 5.624-1.61zM5.032 100l-3.521-4.533L0 100z"/><path d="M1.511 95.467L5.032 100l1.997-4.852zM20.231 100l4.538-4.612-6.039-.042z"/><path d="M24.769 95.388L20.231 100h4.548zM15.213 100h5.018l-1.501-4.654zM24.769 95.388L29.323 100l1.297-4.814zM91.131 47.965l5.25-1.584-3.578-3.578zM91.131 47.965l-1.343 5.177 5.117-1.574zM77.113 33.324l5.112-1.099-3.676-3.676zM41.804 63.449l-5.297 1.001 3.613 3.974z"/><path d="M36.507 64.45l5.297-1.001-2.614-4.27zM80.615 50.912l-.868 5.32 4.97-1.529zM57.124 89.378l1.035-5.175-4.96.913zM34.245 100l1.966-4.893-5.591.079zM34.245 100l-3.625-4.814L29.323 100zM50.003 5.768l3.924-1.841L50 0z"/><path d="M46.093 3.907l3.91 1.861L50 0zM50.003 5.768l-3.91-1.861 1.051 5.825zM55.583 63.667l-3.779-3.91-1.188 5.438zM12.741 95.243L15.213 100l3.517-4.654zM17.117 48.648l-1.63 4.891 5.49-.716z"/><path d="M21.986 46.929l-1.009 5.894 4.301-2.881zM96.381 46.381l-1.476 5.187L100 50z"/><path d="M91.131 47.965l3.774 3.603 1.476-5.187zM89.271 39.271l-3.51-3.51-1.88 5.135zM92.803 42.803l-3.532-3.532-1.833 5.148zM72.995 31.278l-2.902-4.087-2.583 4.896z"/><path d="M70.093 27.191l-5.806.607 3.223 4.289zM85.761 35.761l-5.323 1.513 3.443 3.622z"/><path d="M82.225 32.225l-1.787 5.049 5.323-1.513z"/><path d="M80.438 37.274l1.787-5.049-5.112 1.099zM59.088 79.559l-3.622-5.466-1.848 4.854zM47.526 76.956l1.92 4.611 4.172-2.62zM71.257 53.641l-1.092 5.539 4.863-1.496zM66.164 55.551l-1.012 5.172 5.013-1.543z"/><path d="M65.152 60.723l1.012-5.172-4.965.733zM91.131 47.965l-5.302 1.516 3.959 3.661zM89.788 53.142l-3.959-3.661-1.112 5.222zM85.829 49.481l-5.214 1.431 4.102 3.791zM57.314 51.708l5.101-.627-2.573-4.604zM33.24 80.858l2.532-5.264-6.035 1.457zM31.122 67.205l-.437 5.366L35 70z"/><path d="M36.507 64.45l-5.385 2.755L35 70zM36.507 64.45L35 70l5.12-1.576zM27.454 81.687l5.786-.829-3.503-3.807zM30.62 95.186l2.826-4.74-5.723.309z"/><path d="M36.211 95.107l-2.765-4.661-2.826 4.74zM46.093 3.907l-3.629 3.629 4.68 2.196zM51.076 31.467l-3.121-4.803-2.307 4.807z"/><path d="M42.533 27.081l-2.698 4.292 5.813.098z"/><path d="M47.955 26.664l-5.422.417 3.115 4.39zM60.473 62.162l4.679-1.439-3.953-4.439zM56.931 58.114l-1.348 5.553 4.89-1.505zM40.839 49.333l-2.597-4.61-2.596 4.815zM32.949 44.893l-2.415 4.791 5.112-.146z"/><path d="M38.242 44.723l-5.293.17 2.697 4.645zM7.553 77.34l-1.537 4.611 5.348-.381zM12.741 95.243L10.072 100h5.141zM9.197 86.176l-4.798.626 4.997 4.012z"/><path d="M6.016 81.951l3.181 4.225 2.167-4.606zM4.399 86.802l4.798-.626-3.181-4.225zM17.117 48.648l4.869-1.719-3.103-3.579zM21.986 46.929l-4.869 1.719 3.86 4.175zM78.549 28.549L75.31 25.31l-2.315 5.968zM70.093 27.191l5.217-1.881-3.498-3.498z"/><path d="M72.995 31.278l2.315-5.968-5.217 1.881zM78.549 28.549l-5.554 2.729 4.118 2.046zM63.283 19.278l4.947-1.048-3.776-3.776zM31.122 67.205l.526-4.39-5.259.509zM31.648 62.815l-.526 4.39 5.385-2.755zM17.188 63.078l1.588-5.312-4.988.869zM15.487 53.539l3.289 4.227 2.201-4.943z"/><path d="M18.776 57.766l-3.289-4.227-1.699 5.096zM18.776 57.766l-1.588 5.312 4.608-.512z"/><path d="M23.766 57.866l-4.99-.1 3.02 4.8zM18.776 57.766l4.99.1-2.789-5.043z"/><path d="M23.766 57.866l3.166-3.788-5.955-1.255z"/><path d="M26.932 54.078l-1.654-4.136-4.301 2.881z"/><path d="M25.278 49.942l1.654 4.136 3.602-4.394zM59.088 79.559l-5.47-.612 4.541 5.256zM58.159 84.203l-4.541-5.256-.419 6.169zM53.618 78.947l1.848-4.854-4.748-.949zM59.088 79.559L60 75l-4.534-.907z"/><path d="M47.526 76.956l6.092 1.991-2.9-5.803zM53.618 78.947l-4.172 2.62 3.753 3.549zM44.057 81.146l3.469-4.19-5.934-.794zM44.057 81.146l5.389.421-1.92-4.611z"/><path d="M47.526 76.956l-2.264-4.904-3.67 4.11z"/><path d="M45.262 72.052l2.264 4.904 3.192-3.812zM44.029 58.375l-1.314-4.382-3.525 5.186zM41.804 63.449l2.225-5.074-4.839.804zM41.804 63.449l3.676 3.326 1.699-5.267zM71.257 53.641l-5.093 1.91 4.001 3.629zM70.269 36.638l2.726-5.36-5.485.809zM62.415 51.081l2.958-5.032-5.531.428zM68.085 41.818l-2.712 4.231 5.868 1.346zM78.246 41.904l3.669 3.902 1.966-4.91z"/><path d="M80.438 37.274l-2.192 4.63 5.635-1.008z"/><path d="M87.438 44.419l1.833-5.148-5.39 1.625zM87.438 44.419l-1.609 5.062 5.302-1.516z"/><path d="M92.803 42.803l-5.365 1.616 3.693 3.546zM85.829 49.481l1.609-5.062-5.523 1.387z"/><path d="M85.829 49.481l-3.914-3.675-1.3 5.106zM81.915 45.806l5.523-1.387-3.557-3.523zM16.515 81.888l2.781 4.801 2.544-4.735zM24.769 95.388l-2.95-4.31-3.089 4.268z"/><path d="M21.819 91.078l2.95 4.31 2.954-4.633zM9.073 72.78l5.583-.287-4.053-4.301zM39.948 70.99l-4.176 4.604 5.82.568z"/><path d="M45.262 72.052l-5.314-1.062 1.644 5.172zM35.772 75.594l-5.087-3.023-.948 4.48z"/><path d="M30.685 72.571l-5.382.254 4.434 4.226zM35.772 75.594L35 70l-4.315 2.571z"/><path d="M35.772 75.594l4.176-4.604L35 70zM25.303 72.825l5.382-.254-4.227-4.259z"/><path d="M31.122 67.205l-4.664 1.107 4.227 4.259zM39.088 90.346l-5.642.1 2.765 4.661zM47.399 86.096l-3.342-4.95-2.397 4.514zM49.446 81.567l-2.047 4.529 5.8-.98z"/><path d="M44.057 81.146l3.342 4.95 2.047-4.529zM56.142 94.291l.982-4.913-5.992.897zM51.755 95.394L49.618 100H55zM27.454 81.687l3.158 4.208 2.628-5.037zM33.446 90.446l-2.834-4.551-2.889 4.86zM31.907 18.093l4.833 1.188-1.08-4.941zM41.161 17.103l-4.421 2.178 2.857 3.64zM33.517 23.411l3.223-4.13-4.833-1.188z"/><path d="M36.74 19.281l-3.223 4.13 6.08-.49zM25 25l5.072 2.225-1.675-5.622zM33.517 23.411l-5.12-1.808 1.675 5.622z"/><path d="M28.397 21.603l5.12 1.808-1.61-5.318zM25 25l-1.398 4.193 6.47-1.968zM27.988 31.885l-5.881 1.794 4.05 3.113zM23.602 29.193l4.386 2.692 2.084-4.66z"/><path d="M27.988 31.885l-4.386-2.692-1.495 4.486zM27.988 31.885l5.826-.631-3.742-4.029zM33.814 31.254l3.573 4.381 2.448-4.262zM54.628 46.415l2.686 5.293 2.528-5.231zM43.953 13.241l-2.792 3.862 5.91.613zM42.464 7.536l1.489 5.705 3.191-3.509zM51.706 41.244l-2.985-5.065-2.485 4.4zM48.721 36.179l2.355-4.712-5.428.004z"/><path d="M33.814 31.254l2.727-4.033-6.469.004zM33.517 23.411l3.024 3.81 3.056-4.3z"/><path d="M36.541 27.221l-3.024-3.81-3.445 3.814zM36.541 27.221l-2.727 4.033 6.021.119zM42.533 27.081l-5.992.14 3.294 4.152zM36.541 27.221l5.992-.14-2.936-4.16zM44.654 21.981l-3.493-4.878-1.564 5.818zM44.654 21.981l5.732.123-3.315-4.388z"/><path d="M41.161 17.103l3.493 4.878 2.417-4.265z"/><path d="M50.386 22.104l-5.732-.123 3.301 4.683zM44.654 21.981l-2.121 5.1 5.422-.417zM42.533 27.081l2.121-5.1-5.057.94zM57.314 51.708l3.885 4.576 1.216-5.203zM51.804 59.757l5.127-1.643-3.527-3.329z"/><path d="M56.931 58.114l.383-6.406-3.91 3.077zM57.314 51.708l-.383 6.406 4.268-1.83zM56.931 58.114l-5.127 1.643 3.779 3.91zM56.931 58.114l3.542 4.048.726-5.878zM12.145 63.566l-1.542 4.626 5.614-.283zM12.145 63.566l5.043-.488-3.4-4.443zM1.511 95.467l5.518-.319-4.027-4.153zM7.029 95.148l5.712.095-3.345-4.429z"/><path d="M3.002 90.995l4.027 4.153 2.367-4.334z"/><path d="M3.002 90.995l6.394-.181-4.997-4.012zM7.029 95.148L10.072 100l2.669-4.757zM10.072 100l-3.043-4.852L5.032 100zM20.533 38.402l3.698 3.391 1.926-5.001z"/><path d="M24.231 41.793l-3.698-3.391-1.65 4.948zM24.231 41.793l5.524-1.217-3.598-3.784zM21.986 46.929l2.245-5.136-5.348 1.557zM50.386 22.104l3.107 4.689 2.6-4.675zM53.493 26.793l-2.417 4.674 5.289.55z"/><path d="M53.493 26.793l-3.107-4.689-2.431 4.56zM51.076 31.467l2.417-4.674-5.538-.129z"/><path d="M58.721 27.604l-5.228-.811 2.872 5.224zM53.493 26.793l5.228.811-2.628-5.486zM66.623 23.383l3.47 3.808 1.719-5.379z"/><path d="M68.23 18.23l-1.607 5.153 5.189-1.571zM66.623 23.383l-2.336 4.415 5.806-.607z"/><path d="M63.283 19.278l3.34 4.105 1.607-5.153zM26.389 63.324l-2.623-5.458-1.97 4.7zM31.122 67.205l-4.733-3.881.069 4.988zM30.534 49.684l1.865 4.631 3.247-4.777z"/><path d="M26.932 54.078l5.467.237-1.865-4.631zM35.772 75.594l2.809 5.051 3.011-4.483z"/><path d="M38.581 80.645l-2.809-5.051-2.532 5.264zM44.057 81.146l-5.476-.501 3.079 5.015z"/><path d="M38.581 80.645l5.476.501-2.465-4.984zM44.029 58.375l4.246-3.014-5.56-1.368zM80.615 50.912l1.3-5.106-5.415 1.039zM79.747 56.232l-4.161-4.312-.558 5.764z"/><path d="M75.586 51.92l4.161 4.312.868-5.32zM75.586 51.92l-4.329 1.721 3.771 4.043zM58.721 27.604l3.184 4.763 2.382-4.569z"/><path d="M61.905 32.367l-3.184-4.763-2.356 4.413zM64.287 27.798l-2.382 4.569 5.605-.28zM59.392 36.887l2.513-4.52-5.54-.35zM62.415 51.081l-1.216 5.203 4.965-.733zM62.415 51.081l3.749 4.47 1.266-5.027zM67.43 50.524l3.827 3.117-.016-6.246z"/><path d="M71.257 53.641l-3.827-3.117-1.266 5.027zM67.43 50.524l-2.057-4.475-2.958 5.032z"/><path d="M65.373 46.049l2.057 4.475 3.811-3.129zM62.386 41.595l2.987 4.454 2.712-4.231z"/><path d="M65.373 46.049l-2.987-4.454-2.544 4.882zM74.84 37.489l5.598-.215-3.325-3.95z"/><path d="M72.995 31.278l1.845 6.211 2.273-4.165z"/><path d="M70.269 36.638l4.571.851-1.845-6.211zM74.84 37.489l3.406 4.415 2.192-4.63zM9.197 86.176l4.767.492-2.6-5.098z"/><path d="M13.964 86.668l-4.767-.492.199 4.638zM16.515 81.888l-2.551 4.78 5.332.021z"/><path d="M13.964 86.668l2.551-4.78-5.151-.318zM23.963 77.335l3.491 4.352 2.283-4.636z"/><path d="M27.454 81.687l-3.491-4.352-2.123 4.619zM23.963 77.335l1.34-4.51-5.182-.396z"/><path d="M25.303 72.825l-1.34 4.51 5.774-.284zM17.188 63.078l-.971 4.831 5.354-.344z"/><path d="M12.145 63.566l4.072 4.343.971-4.831zM16.217 67.909l-1.561 4.584 5.465-.064z"/><path d="M14.656 72.493l1.561-4.584-5.614.283zM16.515 81.888l-3.409-4.853-1.742 4.535zM13.106 77.035l-5.553.305 3.811 4.23z"/><path d="M7.553 77.34l5.553-.305-4.033-4.255z"/><path d="M13.106 77.035l1.55-4.542-5.583.287zM41.652 95.086l-2.564-4.74-2.877 4.761zM39.337 100l-3.126-4.893L34.245 100zM41.652 95.086L39.337 100h5.173z"/><path d="M39.337 100l2.315-4.914-5.441.021zM47.399 86.096l3.733 4.179 2.067-5.159zM51.132 90.275l5.992-.897-3.925-4.262zM51.755 95.394l-.623-5.119-4.182 4.581z"/><path d="M56.142 94.291l-5.01-4.016.623 5.119zM41.652 95.086L44.51 100l2.44-5.144zM46.95 94.856L44.51 100h5.108zM46.95 94.856L49.618 100l2.137-4.606zM21.819 91.078l3.077-4.643-5.6.254zM24.896 86.435l2.558-4.748-5.614.267z"/><path d="M19.296 86.689l5.6-.254-3.056-4.481zM24.896 86.435l-3.077 4.643 5.904-.323zM24.896 86.435l5.716-.54-3.158-4.208z"/><path d="M30.612 85.895l-5.716.54 2.827 4.32zM50.003 5.768l2.915 3.953 1.009-5.794zM52.918 9.721l-2.915-3.953-2.859 3.964zM52.918 9.721l4.668-2.135-3.659-3.659zM52.918 9.721l3.255 3.535 1.413-5.67zM53.237 17.765l-2.851 4.339 5.707.014z"/><path d="M50.386 22.104l2.851-4.339-6.166-.049zM59.024 17.173l-5.787.592 2.856 4.353z"/><path d="M56.173 13.256l-2.936 4.509 5.787-.592z"/><path d="M64.454 14.454l-3.306-3.306-2.124 6.025zM64.454 14.454l-5.43 2.719 4.259 2.105z"/><path d="M61.148 11.148l-4.975 2.108 2.851 3.917z"/><path d="M56.173 13.256l4.975-2.108-3.562-3.562zM40.724 40.263l-5.526-.104 3.044 4.564z"/><path d="M32.949 44.893l2.249-4.734-5.443.417zM35.198 40.159l-2.249 4.734 5.293-.17zM37.387 35.635l-2.189 4.524 5.526.104zM41.161 17.103L35.66 14.34l1.08 4.941zM41.161 17.103l-2.223-6.041-3.278 3.278zM38.938 11.062l5.015 2.179-1.489-5.705zM43.953 13.241l-5.015-2.179 2.223 6.041zM39.835 31.373l3.268 4.474 2.545-4.376z"/><path d="M37.387 35.635l5.716.212-3.268-4.474zM43.103 35.847l-2.379 4.416 5.512.316zM43.103 35.847l-5.716-.212 3.337 4.628zM43.103 35.847l5.618.332-3.073-4.708z"/><path d="M48.721 36.179l-5.618-.332 3.133 4.732zM51.076 31.467l2.93 5.12 2.359-4.57zM54.006 36.587l5.386.3-3.027-4.87zM48.721 36.179l5.285.408-2.93-5.12z"/><path d="M54.006 36.587l-5.285-.408 2.985 5.065zM27.599 45.336l-2.321 4.606 5.256-.258z"/><path d="M32.949 44.893l-5.35.443 2.935 4.348z"/><path d="M27.599 45.336l5.35-.443-3.194-4.317zM27.599 45.336l-5.613 1.593 3.292 3.013z"/><path d="M27.599 45.336l-3.368-3.543-2.245 5.136z"/><path d="M24.231 41.793l3.368 3.543 2.156-4.76zM60.926 23.231l-1.902-6.058-2.931 4.945z"/><path d="M58.721 27.604l2.205-4.373-4.833-1.113zM60.926 23.231l-2.205 4.373 5.566.194zM60.926 23.231l2.357-3.953-4.259-2.105zM60.926 23.231l5.697.152-3.34-4.105z"/><path d="M66.623 23.383l-5.697-.152 3.361 4.567zM37.693 54.192l3.146-4.859-5.193.205zM42.715 53.993l-5.022.199 1.497 4.987zM40.839 49.333l-3.146 4.859 5.022-.199z"/><path d="M32.399 54.315l5.294-.123-2.047-4.654zM26.389 63.324l2.599-4.698-5.222-.76zM28.988 58.626l-2.056-4.548-3.166 3.788zM28.988 58.626l-2.599 4.698 5.259-.509zM28.988 58.626l3.411-4.311-5.467-.237zM30.612 85.895l5.539-.293-2.911-4.744zM36.151 85.602l2.937 4.744 2.572-4.686z"/><path d="M39.088 90.346l-2.937-4.744-2.705 4.844z"/><path d="M36.151 85.602l-5.539.293 2.834 4.551zM36.151 85.602l2.43-4.957-5.341.213z"/><path d="M38.581 80.645l-2.43 4.957 5.509.058zM46.295 50.145l-5.456-.812 1.876 4.66z"/><path d="M48.275 55.361l-1.98-5.216-3.58 3.848zM48.275 55.361l3.529 4.396 1.6-4.972zM51.804 59.757l-4.625 1.751 3.437 3.687zM47.179 61.508l-1.699 5.267 5.136-1.58zM41.804 63.449l5.375-1.941-3.15-3.133z"/><path d="M47.179 61.508l1.096-6.147-4.246 3.014z"/><path d="M48.275 55.361l-1.096 6.147 4.625-1.751zM75.586 51.92l-4.345-4.525.016 6.246zM78.246 41.904L76.5 46.845l5.415-1.039zM75.586 51.92l.914-5.075-5.259.55zM80.615 50.912L76.5 46.845l-.914 5.075zM64.97 37.016l5.299-.378-2.759-4.551z"/><path d="M61.905 32.367l3.065 4.649 2.54-4.929zM70.269 36.638l-5.299.378 3.115 4.802z"/><path d="M64.97 37.016l-3.065-4.649-2.513 4.52zM62.386 41.595l2.584-4.579-5.578-.129z"/><path d="M64.97 37.016l-2.584 4.579 5.699.223zM12.741 95.243l2.961-4.115-6.306-.314z"/><path d="M21.819 91.078l-6.117.05 3.028 4.218z"/><path d="M15.702 91.128l-2.961 4.115 5.989.103zM15.702 91.128l6.117-.05-2.523-4.389zM13.964 86.668l1.738 4.46 3.594-4.439z"/><path d="M15.702 91.128l-1.738-4.46-4.568 4.146zM26.389 63.324l-4.818 4.241 4.887.747z"/><path d="M21.571 67.565l3.732 5.26 1.155-4.513z"/><path d="M25.303 72.825l-3.732-5.26-1.45 4.864zM21.571 67.565l4.818-4.241-4.593-.758zM21.571 67.565l-5.354.344 3.904 4.52zM17.188 63.078l4.383 4.487.225-4.999zM14.656 72.493l3.859 4.648 1.606-4.712zM23.963 77.335l-5.448-.194 3.325 4.813zM18.515 77.141l-2 4.747 5.325.066z"/><path d="M18.515 77.141l5.448.194-3.842-4.906zM13.106 77.035l5.409.106-3.859-4.648zM18.515 77.141l-5.409-.106 3.409 4.853zM44.845 90.339l2.554-4.243-5.739-.436zM39.088 90.346l5.757-.007-3.185-4.679zM44.845 90.339l-3.193 4.747 5.298-.23z"/><path d="M41.652 95.086l3.193-4.747-5.757.007zM44.845 90.339l6.287-.064-3.733-4.179zM51.132 90.275l-6.287.064 2.105 4.517zM50.087 13.883l2.831-4.162-5.774.011z"/><path d="M43.953 13.241l6.134.642-2.943-4.151zM50.087 13.883l-6.134-.642 3.118 4.475z"/><path d="M52.918 9.721l-2.831 4.162 6.086-.627zM50.087 13.883l3.15 3.882 2.936-4.509zM53.237 17.765l-3.15-3.882-3.016 3.833zM29.755 40.576l1.992-4.748-5.59.964z"/><path d="M31.747 35.828l-3.759-3.943-1.831 4.907z"/><path d="M27.988 31.885l3.759 3.943 2.067-4.574zM31.747 35.828l5.64-.193-3.573-4.381zM31.747 35.828l3.451 4.331 2.189-4.524z"/><path d="M35.198 40.159l-3.451-4.331-1.992 4.748zM56.974 41.592l5.412.003-2.994-4.708zM56.974 41.592l-2.346 4.823 5.214.062z"/><path d="M54.628 46.415l2.346-4.823-5.268-.348zM62.386 41.595l-5.412-.003 2.868 4.885z"/><path d="M54.006 36.587l2.968 5.005 2.418-4.705z"/><path d="M56.974 41.592l-2.968-5.005-2.3 4.657zM37.693 54.192l-3.145 4.728 4.642.259z"/><path d="M34.548 58.92l1.959 5.53 2.683-5.271z"/><path d="M34.548 58.92l-2.9 3.895 4.859 1.635zM34.548 58.92l3.145-4.728-5.294.123z"/><path d="M28.988 58.626l5.56.294-2.149-4.605zM34.548 58.92l-5.56-.294 2.66 4.189zM40.724 40.263l3.021 4.813 2.491-4.497zM40.839 49.333l2.906-4.257-5.503-.353z"/><path d="M43.745 45.076l-3.021-4.813-2.482 4.46zM46.295 50.145l-2.55-5.069-2.906 4.257zM51.491 50.378l-3.216 4.983 5.129-.576z"/><path d="M57.314 51.708l-5.823-1.33 1.913 4.407z"/><path d="M54.628 46.415l-3.137 3.963 5.823 1.33zM51.491 50.378l-5.196-.233 1.98 5.216zM72.92 42.324l-2.651-5.686-2.184 5.18z"/><path d="M72.92 42.324l1.92-4.835-4.571-.851zM72.92 42.324l-4.835-.506 3.156 5.577zM74.84 37.489l-1.92 4.835 5.326-.42zM72.92 42.324l3.58 4.521 1.746-4.941z"/><path d="M76.5 46.845l-3.58-4.521-1.679 5.071zM49.074 45.521l5.554.894-2.922-5.171zM43.745 45.076l5.329.445-2.838-4.942z"/><path d="M49.074 45.521l2.632-4.277-5.47-.665zM49.074 45.521l-5.329-.445 2.55 5.069zM51.491 50.378l-2.417-4.857-2.779 4.624z"/><path d="M49.074 45.521l2.417 4.857 3.137-3.963zM45.48 66.775l-3.676-3.326-1.684 4.975z"/></svg>