<svg xmlns="http://www.w3.org/2000/svg" viewBox="0 0 300 300"><style>path{fill:none;stroke:#000;stroke-width:1;stroke-linejoin:bevel}</style><path d="M74.138 286.137l.11 13.863h13.605zm0 0l17.536-.57-8.677-13.342zm81.117.099L165 300l3.419-17.097zM66.099 101.703l-4.818 14.454 16.647-4.214zM15.076 300L4.553 286.342 0 300z"/><path d="M4.553 286.342L15.076 300l6.014-14.637zM60.592 300l13.546-13.863-18.107-.143zm13.546-13.863L60.592 300h13.656zM45.545 300h15.047l-4.561-14.006zm28.593-13.863L87.853 300l3.821-14.433zm199.505-142.939l15.262-4.293-11.002-11.002zm0 0l-2.514 15.686 14.335-4.411zm-42.756-43.792l15.326-3.193-11.054-11.054zm-96.131 101.438l-9.551-10.257-5.657 14.937z"/><path d="M125.205 190.587l9.551 10.257 2.445-18.662zm118.804-39.611l-.331 16.354 13.442-4.136zM171.366 268.17l3.119-15.595-14.819 2.933zM102.611 300l5.866-14.638-16.803.205z"/><path d="M102.611 300l-10.937-14.433L87.853 300zM149.92 17.33l11.767-5.643L150 0z"/><path d="M138.195 11.805l11.725 5.525L150 0z"/><path d="M149.92 17.33l-11.725-5.525 2.998 17.463zm26.661 170.645l-10.023-10.48-4.688 15.007zM38.137 285.647L45.545 300l10.486-14.006zm12.93-138.849l-4.725 14.175 16.792-.855zm14.806-4.116l-2.739 17.436 12.957-7.447zm223.032-3.777l-3.441 15.568L300 150zM273.643 143.198l11.821 11.275 3.441-15.568zm-6.401-25.956l-10.525-10.525-5.818 15.275zm10.661 10.661l-10.661-10.661-5.554 15.224zm-59.481-34.619l-8.701-12.243-7.907 14.485zm-8.701-12.243l-17.586 1.762 9.679 12.723zm46.996 25.676l-16.166 4.792 10.348 10.483zm-10.504-10.504l-5.662 15.296 16.166-4.792zM240.551 111.509l5.662-15.296-15.326 3.193zm-63.279 127.13l-10.861-16.357-5.379 14.686zm-34.328-7.644l5.602 13.899 12.486-7.926zm75.08-74.885l-.704 19.33 12.437-3.827z"/><path d="M207.02 164.842l-4.146 15.043 14.446-4.445zm-4.146 15.043l4.146-15.043-14.771 2.396zm70.769-36.687l-15.136 4.23 12.622 11.456z"/><path d="M271.129 158.884l-12.622-11.456-1.387 15.766z"/><path d="M258.507 147.428l-14.498 3.548 13.111 12.218zm-88.072 5.651l15.106-.288-7.271-14.597zm-70.463 89.71l8.394-15.38-18.964 4.437zM105 210l-18.563-3.786 8.04 13.075zm20.205-19.413l-15.034 2.838 9.377 12.099zm-15.034 2.838L105 210l14.548-4.476zM82.21 245.167l17.762-2.378-10.57-10.943zm9.464 40.4l8.5-14.166-17.177.824zm16.803-.205l-8.303-13.961-8.5 14.166zm29.718-273.557l-10.973 10.973 13.971 6.49zM151.81 94.48l-9.188-14.216-7.115 14.704zm-25.442-12.61l-8.128 13.268 17.267-.17zm16.254-1.606l-16.254 1.606 9.139 13.098zm46.701 103.79l13.551-4.169-10.625-12.647zm-11.163-15.029l-1.579 18.95 12.742-3.921zm-55.726-17.446l-8.32-14.713-7.626 14.033zm-24.281-14.625l-6.885 14.748 15.22-.803z"/><path d="M114.114 136.866l-15.961.088 8.335 13.945zM22.8 231.599l-4.641 13.925 16.061-1.371zm15.337 54.048L30.164 300h15.381zm-10.438-27.543l-14.424 2.07 14.884 12.028zm-9.54-12.58l9.54 12.58 6.521-13.951z"/><path d="M13.275 260.174l14.424-2.07-9.54-12.58zm37.792-113.376l14.806-4.116-9.587-11.54zM65.873 142.682l-14.806 4.116 12.067 13.32zm169.286-57.523l-9.707-9.707-7.03 17.832zm-25.438-4.118l15.731-5.589-10.468-10.468z"/><path d="M218.422 93.284l7.03-17.832-15.731 5.589zm16.737-8.125l-16.737 8.125 12.465 6.122zm-45.723-27.737l14.855-3.131-11.292-11.292zM105 210l-9.135-15.041-9.428 11.255zm14.712-31.958l-9.541 15.383 15.034-2.838zm-69.214 10.169l6.685-14.237-15.686 1.535zm-4.156-27.238l10.841 13.001 5.951-13.856z"/><path d="M57.183 173.974l-10.841-13.001-4.845 14.536zm0 0l-6.685 14.237L64 190.649zm14.497 2.699l-14.497-2.699L64 190.649z"/><path d="M57.183 173.974l14.497 2.699-8.546-16.555z"/><path d="M71.68 176.673l9.207-10.837-17.753-5.718z"/><path d="M80.887 165.836l-4.796-13.165-12.957 7.447zm-4.796-13.165l4.796 13.165 10.381-14.134zm101.181 85.968l-16.24-1.671 13.453 15.607z"/><path d="M174.485 252.575l-13.453-15.607-1.366 18.54zm-13.453-15.607l5.379-14.686-14.172-2.834zm16.24 1.671L180 225l-13.589-2.718zm-34.328-7.644l18.088 5.973-8.793-17.52z"/><path d="M161.032 236.968l-12.486 7.926 11.12 10.614zm-28.552 6.708l10.464-12.681-17.568-2.313zm0 0l16.066 1.218-5.602-13.899z"/><path d="M142.944 230.995l-7.008-14.808-10.56 12.495zm-7.008-14.808l7.008 14.808 9.295-11.547zm1.265-34.005l-7.346-15.642-10.143 11.502zm-11.996 8.405l11.996-8.405-17.489-4.14zm22.742 6.198l-10.746-14.603-2.445 18.662zm70.077-40.675l-11.004 8.732 10.3 10.598zm-7.986-46.921l8.384-15.905-16.608 2.242zm-24.497 43.602l8.972-15.092-16.243.495zm17.301-28.517l-8.329 13.425 17.093 2.52zm30.866 1.344l11.18 10.852 6.011-14.478zm6.843-14.109l-6.843 14.109 17.191-3.626zM261.688 132.466l5.554-15.224-16.343 4.75zm0 0l-3.181 14.962 15.136-4.23zm16.215-4.563l-16.215 4.563 11.955 10.732z"/><path d="M258.507 147.428l3.181-14.962-16.8 4.004z"/><path d="M258.507 147.428l-13.619-10.958-.879 14.506zm-13.619-10.958l16.8-4.004-10.789-10.474zM49.475 245.348l8.318 14.508 7.61-14.243zm24.663 40.789l-8.864-12.974-9.243 12.831z"/><path d="M65.274 273.163l8.864 12.974 8.859-13.912zm-37.882-55.34l16.818-1.465-12.209-12.362zm92.581-4.828l-11.607 14.414 17.01 1.273zm15.963 3.192l-15.963-3.192 5.403 15.687zm-27.57 11.222l-13.889-8.12-5.075 12.557zM94.477 219.289l-16.862-.571 11.787 13.128zm13.889 8.12L105 210l-10.523 9.289z"/><path d="M108.366 227.409l11.607-14.414L105 210zm-30.751-8.691l16.862.571-8.04-13.075zM105 210l5.171-16.575-14.306 1.534zm12.18 61.195l-17.006.206 8.303 13.961zm25.115-12.699l-9.815-14.82-7.384 13.599zm6.251-13.602l-6.251 13.602 17.371-2.988z"/><path d="M132.48 243.676l9.815 14.82 6.251-13.602zm35.939 39.227l2.947-14.733-17.962 2.774zm-13.164 3.333L148.826 300H165zM82.21 245.167l9.544 12.52 8.218-14.898zm17.964 26.234l-8.42-13.714-8.757 14.538zM95.482 54.518l14.271 3.789-3.031-15.029zm27.494-2.855l-13.223 6.644 8.142 11.07zM99.83 70.801l9.923-12.494-14.271-3.789zm9.923-12.494L99.83 70.801l18.065-1.424zM75 75l14.404 7.584-4.418-17.57zm24.83-4.199l-14.844-5.787 4.418 17.57z"/><path d="M84.986 65.014l14.844 5.787-4.348-16.283zM75 75l-4.28 12.841 18.684-5.257zm8.459 22.077l-17.36 4.626 11.829 10.24zM70.72 87.841l12.739 9.236 5.945-14.493z"/><path d="M83.459 97.077L70.72 87.841l-4.621 13.862zm0 0l17.028-2.008-11.083-12.485zm17.028-2.008l10.527 13.385 7.226-13.316zm61.773 43.054l8.175 14.956 7.835-14.885zm-30.735-98.176l-8.549 11.716 17.706 1.725zm-4.303-17.169l4.303 17.169 9.668-10.679zm26.252 100.691l-8.913-14.594-7.477 13.797zm-8.913-14.594l7.249-14.395-16.303.488z"/><path d="M100.487 95.069l8.04-12.535-19.123.05zm-.657-24.268l8.697 11.733 9.368-13.157z"/><path d="M108.527 82.534L99.83 70.801 89.404 82.584zm0 0l-8.04 12.535 17.753.069z"/><path d="M126.368 81.87l-17.841.664 9.713 12.604z"/><path d="M108.527 82.534l17.841-.664-8.473-12.493zm24.507-16.235l-10.058-14.636-5.081 17.714zm0 0l17.276.157-9.628-13.068zm-10.058-14.636l10.058 14.636 7.648-12.911zm27.334 14.793l-17.276-.157 9.588 13.965z"/><path d="M133.034 66.299l-6.666 15.571 16.254-1.606z"/><path d="M126.368 81.87l6.666-15.571-15.139 3.078zm59.173 70.921l-7.381 16.234 14.089-1.787zm-18.983 24.704l11.602-8.47-17.498-4.294z"/><path d="M178.16 169.025l-7.725-15.946-9.773 11.652z"/><path d="M178.16 169.025l7.381-16.234-15.106.288zm0 0l-11.602 8.47 10.023 10.48zm0 0l11.163 15.029 2.926-16.816zM36.396 190.812l-4.395 13.184 18.687-.953zm0 0l14.102-2.601-9.001-12.702zm-31.843 95.53l16.537-.979-12.04-12.514zm16.537-.979l17.047.284-9.978-13.445z"/><path d="M9.05 272.849l12.04 12.514 7.069-13.161z"/><path d="M9.05 272.849l19.109-.647-14.884-12.028zm12.04 12.514L30.164 300l7.973-14.353z"/><path d="M30.164 300l-9.074-14.637L15.076 300zm31.117-183.843l10.913 10.925 5.734-15.139z"/><path d="M72.194 127.082l-10.913-10.925-4.995 14.985zm0 0l16.387-3.352-10.653-11.787z"/><path d="M65.873 142.682l6.321-15.6-15.908 4.06zm84.437-76.226l9.027 13.898 8.137-14.109zm9.027 13.898L151.81 94.48l16.103 1.148z"/><path d="M159.337 80.354l-9.027-13.898-7.688 13.808z"/><path d="M151.81 94.48l7.527-14.126-16.715-.09zm23.424-12.116l-15.897-2.01 8.576 15.274z"/><path d="M159.337 80.354l15.897 2.01-7.76-16.119zm40.005-10.649l10.379 11.336 5.263-16.057zm4.949-15.414l-4.949 15.414 15.642-4.721z"/><path d="M199.342 69.705l-7.207 13.098 17.586-1.762zm-9.906-12.283l9.906 12.283 4.949-15.414zM79.335 192.035l-7.655-15.362L64 190.649zm16.53 2.924l-16.53-2.924 7.102 14.179zm-4.597-43.257l5.804 13.927 9.416-14.73zm-10.381 14.134l16.185-.207-5.804-13.927zm27.479 61.573l7.793 14.989 9.217-13.716z"/><path d="M116.159 242.398l-7.793-14.989-8.394 15.38z"/><path d="M132.48 243.676l-16.321-1.278 8.937 14.877zm-16.321-1.278l16.321 1.278-7.104-14.994zm21.042-60.216l7.753-16.061-15.099.419zm106.808-31.206l.879-14.506-16.757 4.39zm-.331 16.354l-12.417-11.073-1.504 15.356z"/><path d="M231.261 156.257l12.417 11.073.331-16.354zm0 0l-13.237-.147 11.733 15.503zm-56.027-73.893l9.506 13.958 7.395-13.519z"/><path d="M184.74 96.322l-9.506-13.958-7.321 13.264z"/><path d="M192.135 82.803l-7.395 13.519 17.074-.796z"/><path d="M177.044 109.85l7.696-13.528-16.827-.694zm23.932 41.736l-15.435 1.205 6.708 14.447zM207.02 164.842l-6.044-13.256-8.727 15.652zm-6.044-13.256l17.048 4.524-6.418-15.891z"/><path d="M218.024 156.11l-17.048-4.524 6.044 13.256zm-17.048-4.524l-6.463-13.887-8.972 15.092z"/><path d="M194.513 137.699l6.463 13.887 10.63-11.367zm-8.472-13.909l8.472 13.909 8.329-13.425z"/><path d="M194.513 137.699l-8.472-13.909-7.771 14.404zm29.359-25.865l16.679-.325-9.664-12.103zm-5.45-18.55l5.45 18.55 7.015-12.428z"/><path d="M210.038 109.189l13.834 2.645-5.45-18.55zm13.834 2.645l9.836 13.784 6.843-14.109zM27.699 258.104l14.162 1.604-7.641-15.555zm14.162 1.604l-14.162-1.604.46 14.098zm7.614-14.36l-7.614 14.36 15.932.148z"/><path d="M41.861 259.708l7.614-14.36-15.255-1.195zm29.958-27.903l10.391 13.362 7.192-13.321zm10.391 13.362l-10.391-13.362-6.416 13.808zm-10.391-13.362l5.796-13.087-16.905-1.304z"/><path d="M77.615 218.718l-5.796 13.087 17.583.041zm-27.117-30.507l.19 14.832L64 190.649z"/><path d="M36.396 190.812l14.292 12.231-.19-14.832zm14.292 12.231l-6.478 13.315 16.5 1.056z"/><path d="M44.21 216.358l6.478-13.315-18.687.953zm5.265 28.99l-10.019-15.017-5.236 13.822zm-10.019-15.017L22.8 231.599l11.42 12.554zM22.8 231.599l16.656-1.268-12.064-12.508z"/><path d="M39.456 230.331l4.754-13.973-16.818 1.465zm85.411 54.999l-7.687-14.135-8.703 14.167zm-6.96 14.67l-9.43-14.638L102.611 300zm6.96-14.67l-6.96 14.67h15.558z"/><path d="M117.907 300l6.96-14.67-16.39.032zm24.388-41.504l11.109 12.448 6.262-15.436zm11.109 12.448l17.962-2.774-11.7-12.662zm1.851 15.292l-1.851-15.292-12.586 13.701z"/><path d="M168.419 282.903l-15.015-11.959 1.851 15.292zm-43.552 2.427l8.598 14.67 7.353-15.355zm15.951-.685L133.465 300h15.361zM140.818 284.645L148.826 300l6.429-13.764zm-75.544-11.482l9.246-13.901-16.727.594zm9.246-13.901l7.69-14.095-16.807.446z"/><path d="M57.793 259.856l16.727-.594-9.117-13.649zm16.727-.594l-9.246 13.901 17.723-.938zm0 0l17.234-1.575-9.544-12.52zm17.234-1.575l-17.234 1.575 8.477 12.963zM149.92 17.33l8.594 11.826 3.173-17.469z"/><path d="M158.514 29.156L149.92 17.33l-8.727 11.938zm0 0l14.053-6.589-10.88-10.88z"/><path d="M158.514 29.156l9.659 10.492 4.394-17.081zm.674 24.142l-8.878 13.158 17.164-.211z"/><path d="M150.31 66.456l8.878-13.158-18.506.09zm26.272-15.162l-17.394 2.004 8.286 12.947z"/><path d="M168.173 39.648l-8.985 13.65 17.394-2.004zm24.826 3.351l-9.836-9.836-6.581 18.131zm0 0l-16.417 8.295 12.854 6.128z"/><path d="M183.163 33.163l-14.99 6.485 8.409 11.646z"/><path d="M168.173 39.648l14.99-6.485-10.596-10.596zm-47.335 82.809l-16.038.249 9.314 14.16z"/><path d="M98.153 136.954l6.647-14.248-16.219 1.024z"/><path d="M104.8 122.706l-6.647 14.248 15.961-.088zm6.214-14.252l-6.214 14.252 16.038-.249zm11.962-56.791l-16.254-8.385 3.031 15.029zM122.976 51.663l-6.39-18.249-9.864 9.864zm-6.39-18.249l14.939 6.533-4.303-17.169z"/><path d="M131.525 39.947l-14.939-6.533 6.39 18.249zM118.24 95.138l9.624 13.453 7.643-13.623z"/><path d="M111.014 108.454l16.85.137-9.624-13.453zm16.85.137l-7.026 13.866 16.246.215z"/><path d="M127.864 108.591l-16.85-.137 9.824 14.003zm0 0l16.697.284-9.054-13.907zm16.697.284l-16.697-.284 9.22 14.081zm7.249-14.395l8.814 14.896 7.289-13.748zm8.814 14.896l16.42.474-9.131-14.222z"/><path d="M144.561 108.875l16.063.501-8.814-14.896zm16.063.501l-16.063-.501 8.913 14.594zm-78.327 28.892l-6.206 14.403 15.177-.969zm15.856-1.314l-15.856 1.314 8.971 13.434zm-15.856 1.314l15.856-1.314-9.572-13.224z"/><path d="M82.297 138.268l-16.424 4.414 10.218 9.989z"/><path d="M82.297 138.268l-10.103-11.186-6.321 15.6z"/><path d="M72.194 127.082l10.103 11.186 6.284-14.538zm109.948-57.826l-5.56-17.962-9.108 14.951zm-6.908 13.108l6.908-13.108-14.668-3.011zm6.908-13.108l-6.908 13.108 16.901.439z"/><path d="M182.142 69.256l7.294-11.834-12.854-6.128z"/><path d="M182.142 69.256l17.2.449-9.906-12.283z"/><path d="M199.342 69.705l-17.2-.449 9.993 13.547zm-86.36 95.032l9.452-13.158-15.946-.68zm16.873 1.803l-16.873-1.803 6.73 13.305zm-7.421-14.961l-9.452 13.158 16.873 1.803zM97.072 165.629l15.91-.892-6.494-13.838zm-17.737 26.406l9.158-12.051-16.813-3.311zm9.158-12.051l-7.606-14.148-9.207 10.837zm0 0l-9.158 12.051 16.53 2.924z"/><path d="M88.493 179.984l8.579-14.355-16.185.207zm3.261 77.703l16.699-.649-8.481-14.249zm16.699-.649l8.727 14.157 7.916-13.92z"/><path d="M117.18 271.195l-8.727-14.157-8.279 14.363z"/><path d="M108.453 257.038l-16.699.649 8.42 13.714zm0 0l7.706-14.64-16.187.391z"/><path d="M116.159 242.398l-7.706 14.64 16.643.237zm21.658-90.853l-15.383.034 7.421 14.961zm7.137 14.576l-7.137-14.576-7.962 14.995zm6.59 14.026l15.014-2.652-5.896-12.764z"/><path d="M166.558 177.495l-15.014 2.652 10.326 12.355z"/><path d="M151.544 180.147l-3.597 16.638 13.923-4.283z"/><path d="M151.544 180.147l-14.343 2.035 10.746 14.603z"/><path d="M151.544 180.147l-6.59-14.026-7.753 16.061z"/><path d="M144.954 166.121l6.59 14.026 9.118-15.416zm73.07-10.011l10.107-15.25-16.525-.641zm15.684-30.492l-5.577 15.242 16.757-4.39zm-2.447 30.639l-3.13-15.397-10.107 15.25z"/><path d="M244.009 150.976l-15.878-10.116 3.13 15.397zm-50.132-40.997l16.161-.79-8.224-13.663z"/><path d="M184.74 96.322l9.137 13.657 7.937-14.453zm25.298 12.867l-16.161.79 8.965 14.295z"/><path d="M193.877 109.979l-9.137-13.657-7.696 13.528zm-7.836 13.811l7.836-13.811-16.833-.129zM193.877 109.979l-7.836 13.811 16.801.484zM38.137 285.647l8.848-12.442-18.826-1.003zm27.137-12.484l-18.289.042 9.046 12.789z"/><path d="M46.985 273.205l-8.848 12.442 17.894.347zm0 0l18.289-.042-7.481-13.307z"/><path d="M41.861 259.708l5.124 13.497 10.808-13.349z"/><path d="M46.985 273.205l-5.124-13.497-13.702 12.494zm32.35-81.17l-10.578 12.85 17.68 1.329z"/><path d="M68.757 204.885l8.858 13.833 8.822-12.504zm8.858 13.833l-8.858-13.833-8.047 12.529zm-8.858-13.833l10.578-12.85L64 190.649zM68.757 204.885l-18.069-1.842 10.022 14.371z"/><path d="M50.688 203.043l18.069 1.842L64 190.649zm-6.478 13.315l11.115 14.758 5.385-13.702zm27.609 15.447l-16.494-.689 10.078 14.497z"/><path d="M55.325 231.116l-5.85 14.232 15.928.265zm0 0l16.494.689-11.109-14.391zm-15.869-.785l15.869.785-11.115-14.758z"/><path d="M55.325 231.116l-15.869-.785 10.019 15.017zm79.205 40.074l7.765-12.694-17.199-1.221z"/><path d="M117.18 271.195l17.35-.005-9.434-13.915zm17.35-.005l-9.663 14.14 15.951-.685z"/><path d="M124.867 285.33l9.663-14.14-17.35.005zm9.663-14.14l18.874-.246-11.109-12.448zm18.874-.246l-18.874.246 6.288 13.455zm-3.525-229.218l8.635-12.57-17.321.112z"/><path d="M131.525 39.947l18.354 1.779-8.686-12.458zm18.354 1.779l-18.354-1.779 9.157 13.441zm8.635-12.57l-8.635 12.57 18.294-2.078z"/><path d="M149.879 41.726l9.309 11.572 8.985-13.65z"/><path d="M159.188 53.298l-9.309-11.572-9.197 11.662zM88.581 123.73l5.952-14.413-16.605 2.626zm5.952-14.413l-11.074-12.24-5.531 14.866zM83.459 97.077l11.074 12.24 5.954-14.248zm11.074 12.24l16.481-.863-10.527-13.385z"/><path d="M94.533 109.317l10.267 13.389 6.214-14.252zm10.267 13.389l-10.267-13.389-5.952 14.413zm64.826 1.141l16.415-.057-8.997-13.94zm0 0l-7.366 14.276 16.01.071zm-7.366 14.276l7.366-14.276-16.152-.378zm23.781-14.333l-16.415.057 8.644 14.347z"/><path d="M160.624 109.376l9.002 14.471 7.418-13.997z"/><path d="M169.626 123.847l-9.002-14.471-7.15 14.093zm-56.644 40.89l-8.925 14.761 15.655-1.456zm6.73 13.305l-15.655 1.456 6.114 13.927zm-9.541 15.383l-6.114-13.927-8.192 15.461z"/><path d="M104.057 179.498l8.925-14.761-15.91.892zm-15.564.486l15.564-.486-6.985-13.869zM104.057 179.498l-15.564.486 7.372 14.975zm16.781-57.041l8.947 14.452 7.299-14.237zm1.596 29.122l7.351-14.67-15.671-.043z"/><path d="M129.785 136.909l-8.947-14.452-6.724 14.409zm8.032 14.636l-8.032-14.636-7.351 14.67zm15.712-.354l-8.575 14.93 15.708-1.39zm16.906 1.888l-16.906-1.888 7.133 13.54z"/><path d="M162.26 138.123l-8.731 13.068 16.906 1.888zm-8.731 13.068l-15.712.354 7.137 14.576zm64.449-25.026l-7.94-16.976-7.196 15.085z"/><path d="M217.978 126.165l5.894-14.331-13.834-2.645zm0 0l-15.136-1.891 8.764 15.945zm5.894-14.331l-5.894 14.331 15.73-.547zm-5.894 14.331l10.153 14.695 5.577-15.242z"/><path d="M228.131 140.86l-10.153-14.695-6.372 14.054zm-82.432-3.819l16.561 1.082-8.786-14.654zm-15.914-.132l15.914.132-8.615-14.369z"/><path d="M145.699 137.041l7.775-13.572-16.39-.797zm0 0l-15.914-.132 8.032 14.636z"/><path d="M153.529 151.191l-7.83-14.15-7.882 14.504zm-7.83-14.15l7.83 14.15 8.731-13.068z"/></svg>