<svg xmlns="http://www.w3.org/2000/svg" viewBox="-150 0 300 300"><style>path{fill:none;stroke:#000;stroke-width:1;stroke-linejoin:bevel}</style><path d="M-150 196.209v30.869l24.938-16.591zM-150 300h42.644l-10.599-28.584zm32.045-28.584l34.304 3.007-12.354-24.782z"/><path d="M-117.955 271.416L-107.356 300l23.705-25.577zM-150 300l32.045-28.584L-150 261.239z"/><path d="M-107.356 300h36.272l-12.567-25.577zm217.366 0l-22.379-27.949L75.439 300z"/><path d="M110.01 300l9.176-31.434-31.555 3.485zM-19.339 23.437l26.784 2.619L-4.301 0zM-86.921 0l-26.785 29.143 33.971-2.369z"/><path d="M-86.921 0l7.186 26.774L-58.697 0zm75.726 42.232l18.64-16.176-26.784-2.619zM-150 39.957l29.499 16.638 6.795-27.452z"/><path d="M-120.501 56.595l29.249-6.645-22.454-20.807zm29.249-6.645l-29.249 6.645 26.281 16.597zm-29.249 6.645l.801 23.161 25.48-6.564z"/><path d="M-150 76.342l30.3 3.414-.801-23.161z"/><path d="M-150 76.342l29.499-19.747L-150 39.957zm24.938 134.145L-150 227.078l27.606 13.077z"/><path d="M-122.394 240.155L-150 227.078v34.161z"/><path d="M-150 261.239l32.045 10.177-4.439-31.261zm210.719-28.223l19.964-5.348-14.122-13.62zm-144.37 41.407l31.377-1.23-17.36-20.125z"/><path d="M-83.651 274.423l14.017-21.355-26.371-3.427zm0 0L-71.084 300l18.81-26.807zM17.066 300h27.607l-14.146-26.753zM57.9 274.123L75.439 300l12.192-27.949zm-88.685-38.122l-17.325 12.994 17.51 6.949z"/><path d="M-30.785 236.001l.185 19.943 14.635-15.794zm-17.325 12.994l-21.524 4.073 17.36 20.125z"/><path d="M-30.6 255.944l-17.51-6.949-4.164 24.198zM150 165.592l-23.838 14.981 23.838 14.1zm-24.822-13.288l.984 28.269L150 165.592z"/><path d="M125.178 152.304L150 165.592v-27.761zM57.9 274.123L44.673 300h30.766zM99.452 55.939l-26.344-7.33 9.1 21.298z"/><path d="M73.108 48.609l26.344 7.33-9.069-27.162zm26.344 7.33l23.439 10.018-2.036-33.545zm25.2 39.34L101.768 84.58l5.875 26.164zm-1.761-29.322L150 41.935l-29.145-9.523zm0 0L150 77.08V41.935z"/><path d="M120.855 32.412L111.886 0 90.383 28.777zM101.768 84.58l21.123-18.623-23.439-10.018z"/><path d="M124.652 95.279L150 77.08l-27.109-11.123zm0 0L150 108.285V77.08zM-43.955 229.85l10.238-11.733-17.493-1.25z"/><path d="M-51.21 216.867l17.493 1.25-8.938-11.073zm-29.859 14.214l11.435 21.987 8.318-20.412zm32.959 17.914l4.155-19.145-17.361 2.806zM-150 167.519l24.02 15.251 1.106-25.526zm24.02 15.251L-150 196.209l24.938 14.278z"/><path d="M-125.98 182.77L-150 167.519v28.69zm12.274-153.627L-116.713 0H-150z"/><path d="M-86.921 0h-29.792l3.007 29.143zm-26.785 29.143L-150 0v39.957zm94.367-5.706L-31.141 0l-17.42 24.215z"/><path d="M-31.141 0l11.802 23.437L-4.301 0zm-17.42 24.215L-31.141 0h-27.556zm-35.251 69.768l11.054-13.589-21.462-7.202zm-19.007 1.527l8.599-22.318-25.48 6.564zm19.007-1.527l-6.871 17.814 15.332.106z"/><path d="M-58.697 0l-21.038 26.774 31.174-2.559zm-32.555 49.95l11.517-23.176-33.971 2.369zm42.691-25.735l-31.174 2.559 17.416 16.79zm-24.197 56.179l1.77-17.979-23.232 10.777zm1.77-17.979L-91.252 49.95l-2.968 23.242zm0 0l17.27 11.043 6.248-16.441zm-31.831 33.095l19.007-1.527-10.408-20.791zm-19.575 144.645l4.439 31.261 21.95-21.775zm-2.668-29.668l2.668 29.668 19.787-17.188z"/><path d="M-96.005 249.641l-6.602-26.674-19.787 17.188zm126.532 23.606L44.673 300 57.9 274.123zm-51.018-49.655l4.526 16.558 9.163-14.249zM-11.474 300h28.54L3.469 276.775zm0 0l-12.963-23.499L-40.757 300zm-29.283 0l-11.517-26.807L-71.084 300zm-11.517-26.807l27.837 3.308-6.163-20.557z"/><path d="M-52.274 273.193L-40.757 300l16.32-23.499zM62.528 138.862l14.708-5.068-10.461-5.898zm0 0l-.82 11.263 11.988-3.178zM33.044 24.739L48.629 0H21.171z"/><path d="M33.044 24.739L21.171 0 7.445 26.056z"/><path d="M7.445 26.056L21.171 0H-4.301zm-18.64 16.176L7.761 47.82l-.316-21.764zM-47.47 57.017l12.34-16.246-27.189 2.793zM60.719 233.016l11.137 17.824 8.827-23.172zm26.912 39.035L71.856 250.84 57.9 274.123zm14.373-117.442l-17.516 4.006 7.319 15.372zm23.174-2.305l-15.962 19.093 16.946 9.176zm-35.783-9.871l-4.907 16.182 17.516-4.006zm33.924 64.442L150 224.883v-30.21zm-26.21 38.296l4.357-27.033-20.783 9.53z"/><path d="M80.683 227.668l20.783-9.53-17.289-12.134zM150 137.831v-29.546l-23.232 16.041zm-24.822 14.473l-23.174 2.305 7.212 16.788z"/><path d="M125.178 152.304l-16.914-17.005-6.26 19.31zm-32.653-27.666l-15.289 9.156 12.159 8.639z"/><path d="M108.264 135.299l-18.869 7.134 12.609 12.176zm-18.869 7.134l-15.699 4.514 10.792 11.668z"/><path d="M73.696 146.947l15.699-4.514-12.159-8.639zm47.159-114.535l-30.472-3.635 9.069 27.162zM78.725 0l11.658 28.777L111.886 0zM150 0h-38.114l8.969 32.412zm0 0l-29.145 32.412L150 41.935zm-25.348 95.279l-1.761-29.322-21.123 18.623zM48.629 0l12.596 25.485L78.725 0z"/><path d="M61.225 25.485L48.629 0 33.044 24.739zm0 0l29.158 3.292L78.725 0z"/><path d="M61.225 25.485l11.883 23.124 17.275-19.832zM-57.384 203.273l6.174 13.594 8.555-9.823zm29.821-8.025l7.152-5.143-6.085-3.732zm-23.889-10.701l3.407 10.258 6.829-9.612zm0 0l-1.597-9.549-10.128 2.463zm19.01-3.362l-8.774 4.008 7.397 3.604zm-11.513 48.665l-4.155 19.145 17.325-12.994zm-4.155 19.145l-13.206-16.339-8.318 20.412zm4.155-19.145l13.17 6.151-2.932-17.884zm-17.361 2.806l17.361-2.806-7.255-12.983zm-9.672-170.241l8.669-18.851-28.933 6.386z"/><path d="M-62.319 43.564l-17.416-16.79-11.517 23.176zm42.98-20.127l-29.222.778 13.431 16.556z"/><path d="M-48.561 24.215l-13.758 19.349 27.189-2.793zm-79.275 77.75l8.136-22.209-30.3-3.414zm0 0l25.017-6.455-16.881-15.754zm115.374 100.383l-8.835 8.28 10.738 2.573zm-7.926-2.742l6.302-6.868-6.325-2.633zm12.83-5.245l-6.528-1.623 1.624 9.61z"/><path d="M-7.558 194.361l-4.904 7.987 8.654 1.083zm-13.739 16.267l.806 12.964 9.932-10.391z"/><path d="M-12.462 202.348l1.903 10.853 6.751-9.77zm73.181 30.668l-12.122 19.95 23.259-2.126zm-30.192 40.231l18.07-20.281-18.655-3.337zm30.192-40.231l-17.699.268 5.577 19.682zm-12.122 19.95l9.303 21.157 13.956-23.283z"/><path d="M30.527 273.247l27.373.876-9.303-21.157zM-9.254 258.08l9.58-17.454-16.291-.476zm-2.22 41.92l14.943-23.225-27.906-.274z"/><path d="M-24.437 276.501l27.906.274-12.723-18.695zm27.906.274L17.066 300l13.461-26.753z"/><path d="M12.186 256.744l-21.44 1.336 12.723 18.695zM7.761 47.82l-18.956-5.588 3.137 17.827zm14.004 16.146l-15.071.461 5.05 12.786zm-94.523 16.428l15.512 7.747 3.528-14.683zm1.77-17.979l23.518-5.398-14.849-13.453zm190.174 206.151l-22.077-23.395-9.478 26.88zm3.185-32.288l-25.262 8.893 22.077 23.395zm-34.74 35.773l9.478-26.88-25.253 5.669zm9.478-26.88l-16.426-17.503-8.827 23.172zM150 300v-40.462l-30.814 9.028z"/><path d="M150 300l-30.814-31.434L110.01 300zm-30.814-31.434L150 259.538l-27.629-23.26zm-38.503-40.898l3.494-21.664-17.616 8.044zm3.494-21.664l-16.153-8.797-1.463 16.841zm17.289 12.134l21.853-11.263-20.89-13.664zm20.905 18.14L150 224.883l-26.681-18.008zm0 0L150 259.538v-34.655zm0 0l-20.905-18.14-4.357 27.033zm2.807-83.974l1.59-27.978-18.504 10.973zm-.526-57.025l2.116 29.047L150 108.285zM150 137.831l-23.232-13.505-1.59 27.978zM25.676 45.264l22.36-1.147-14.992-19.378z"/><path d="M7.445 26.056l18.231 19.208 7.368-20.525zm.316 21.764l14.004 16.146 3.911-18.702zm-50.416 159.224l12.145-1.774-7.304-8.731zm-19.863-50.182l-10.601-4.902 1.069 14.847zm9.469 18.136l-6.428-8.522-3.7 10.985zm-48.472-17.27l-4.665 17.797 18.471-2.785z"/><path d="M-101.521 157.728l13.806 15.012 3.234-14.201zm132.99 35.451l5.716-6.437-7.992-2.496zm-8.306 4.489l.495-9.389-6.107 3.157zm0 0l8.306-4.489-7.811-4.9zm-5.612-6.232l-6.052 2.07 3.185 7.67zm11.175 39.373l1.216 18.82 13.078-16.345zm19.871 22.157l-5.577-19.682-13.078 16.345zm-55.399-27.065l-9.163 14.249 16.291.476z"/><path d="M.326 240.626l15.058-3.409-8.662-12.652zm-7.128-14.725l13.524-1.336-6.261-11.149zm12.063-23.04l6.208 8.512 3.215-10.197zm-4.8 10.555l-4.269-9.985-6.751 9.77zm42.51-18.844l11.108-5.074-9.757-6.977zm0 0l11.711 7.991-.603-13.065zm27.356-34.692l-8.062 10.727 13.425 2.09zm0 0l5.363 12.817 8.798-14.082zm31.441-75.3l-21.555 5.28 9.773 14.727zm0 0l-19.56-14.673-1.995 19.953zm-34.993 43.316l-3.953-11.476-6.753 11.398zM14.848 90.279l8.258-8.897-11.362-4.169z"/><path d="M33.906 75.017l-10.8 6.365 13.033 6.95z"/><path d="M21.765 63.966l1.341 17.416 10.8-6.365zM-67.907 98.84l-7.444 13.063 13.126 2.315zm169.373 119.298l.963-24.927-18.252 12.793zm0 0l20.905 18.14.948-29.403zm.963-24.927l6.787-21.814-17.409 2.59zm0 0l20.89 13.664 2.843-26.302z"/><path d="M102.429 193.211l23.733-12.638-16.946-9.176zm23.733-12.638l-2.843 26.302L150 194.673zm-33.637-55.935l15.118-13.894-17.657-6.157zm34.243-.312l-19.125-13.582.621 24.555zm0 0l-2.116-29.047-17.009 15.465z"/><path d="M92.525 124.638l15.739 10.661-.621-24.555zm0 0l-14.694-6.743-.595 15.899z"/><path d="M92.525 124.638l-3.13 17.795 18.869-7.134zM7.761 47.82l17.915-2.556L7.445 26.056zm14.004 16.146L7.761 47.82 6.694 64.427zm0 0L11.744 77.213l11.362 4.169zm4.256 29.767l-2.915-12.351-8.258 8.897zm22.507-14.381l16.905-.598-6.967-15.641zm33.68-9.445l-16.775 8.847 14.78 11.106zM80.213 89.86l-14.78-11.106-4.671 14.034zm-33.022 5.121l-2.684 12.862 11.284-1.945z"/><path d="M60.762 92.788l-13.571 2.193 8.6 10.917zm-166.629 105.231l-19.195 12.468 22.455 12.48z"/><path d="M-125.98 182.77l.918 27.717 19.195-12.468zm36.713 6.902l-16.6 8.347 19.246 11.358zm2.646 19.705l5.552 21.704 12.662-16.034z"/><path d="M-105.867 198.019l3.26 24.948 15.986-13.59zm24.798 33.062l19.753 1.575-7.091-17.609zm19.69-41.023l-1.798-12.597-11.495 4.488zm9.381-30.666l-10.52-2.53 3.041 9.614zM-150 109.883l22.164-7.918L-150 76.342zm62.131 33.872l-7.998-14.331-13.207 11.649zm93.38 50.906l-6.439.329 6.189 7.871z"/><path d="M5.261 202.861l-4.8 10.555 11.008-2.043zm9.423-1.685l-3.185-7.67-5.988 1.155z"/><path d="M14.684 201.176l-9.173-6.515-.25 8.2zm2.867-9.74l-2.867 9.74 8.479-3.508zm-5.365 65.308L.326 240.626l-9.58 17.454zm17.756-7.115l-1.216-18.82-13.342 6.408zm0 0l-14.558-12.412-3.198 19.527z"/><path d="M12.186 256.744l3.198-19.527-15.058 3.409zm18.341 16.503l-.585-23.618-17.756 7.115z"/><path d="M30.527 273.247l-18.341-16.503-8.717 20.031zm11.031-105.985l9.544-1.182-7.44-5.19zm4.679 6.385l-4.679-6.385-3.454 6.676zm16.028-3.04l3.974 12.737 9.451-10.647zm3.974 12.737l-11.82-5.543-.34 11.697zm4.793-79.08l9.181-14.404-19.451 2.928z"/><path d="M71.032 104.264l18.954.323-9.773-14.727zm-24.343 22.572l4.434-9.304-9.548.623z"/><path d="M44.507 107.843l-9.361 3.11 6.429 7.202zm0 0l6.616 9.689 4.668-11.634zm2.182 18.993l4.643 9.324 4.737-8.342zM11.744 77.213l-5.05-12.786-9.839 11.117zm0 0l-14.889-1.669 7.192 10.679zm-7.697 9.01l10.801 4.056-3.104-13.066zM-35.13 40.771l9.048 15.622 14.887-14.161z"/><path d="M-47.47 57.017l21.388-.624-9.048-15.622zm-6.248 16.441l12.972 11.504 4.773-14.458zM82.306 188.2l20.123 5.011-10.622-19.224zm20.123 5.011L82.306 188.2l1.871 17.804z"/><path d="M75.69 172.697l6.616 15.503 9.501-14.213z"/><path d="M66.239 183.344l16.067 4.856-6.616-15.503zm17.938 22.66L82.306 188.2l-14.282 9.007zm-6.346-88.109l12.155-13.308-18.954-.323zm0 0l-6.799-13.631-8.21 12.156zm-41.764-17.506l11.124-5.408-11.052-6.649z"/><path d="M36.067 100.389l.072-12.057-10.118 5.401zm-109.105 97.632l15.654 5.252-3.995-13.215zm-13.583 11.356l-15.986 13.59 21.538 8.114zm18.214 5.67l11.023-11.774-15.654-5.252zm0 0l17.197 1.82-6.174-13.594zm0 0l7.091 17.609 10.106-15.789z"/><path d="M-96.005 249.641l14.936-18.56-21.538-8.114z"/><path d="M-81.069 231.081l-14.936 18.56 26.371 3.427zm12.662-16.034l-4.631-17.026-13.583 11.356zm-6.265-33.098l11.495-4.488-8.873-10.654zm2.622-15.142l8.873 10.654 3.7-10.985zm-12.431-8.268l-3.234 14.201 15.665-5.933zm-4.786 31.133l1.552-16.932-18.471 2.785zm31.883 13.601l9.339-8.468-13.334-4.747z"/><path d="M-57.384 203.273l14.729 3.771-5.39-12.239z"/><path d="M-51.452 184.547l-9.927 5.511 13.334 4.747z"/><path d="M-61.379 190.058l9.927-5.511-11.725-7.086zm23.565 6.481l3.995-7.742-7.397-3.604zm-10.231-1.734l10.231 1.734-3.402-11.346zm5.39 12.239l4.841-10.505-10.231-1.734zm15.092-11.796l-10.251 1.291 7.304 8.731zm-10.251 1.291l10.251-1.291-6.256-6.451z"/><path d="M-20.388 199.606l-7.175-4.358-2.947 10.022zm0 0l7.926 2.742-1.624-9.61z"/><path d="M-27.563 195.248l7.175 4.358-.023-9.501zm7.175 4.358l-.909 11.022 8.835-8.28zm-20.355-30.501l-7.923-1.526 4.529 9.058zm-11.255-9.713l-1.038-8.514-9.482 5.984zm-21.006-20.324l12.501-3.648-7.17-9.627zm-54.832-37.103L-150 109.883l22.023 20.422zm17.499 14.892l7.518-21.347-25.017 6.455zm7.518-21.347l-7.518 21.347 19.654-5.06zm22.154 31.728l-7.204 16.517 14.865-4.687zm-7.204 16.517l7.204-16.517-15.202 2.186zm14.75 8.205l-11.362 6.579 12.431 8.268zm115.671 54.463l12.13-3.86-11.711-7.991zm7.538 11.642l16.471-4.017-11.879-11.485zm0 0l10.629 14.951 5.842-18.968zm-15.938-1.107l-14.588 3.52 9.162 10.331zm15.938 1.107l-7.07 15.219 17.699-.268z"/><path d="M50.09 218.065l-15.938-1.107 8.868 16.326zm-26.937-9.44l-8.469-7.449-3.215 10.197z"/><path d="M14.684 201.176l8.469 7.449.01-10.957zm30.088-46.651l7 .607-6.816-7.113z"/><path d="M43.662 160.89l8.11-5.758-7-.607zm.845-53.047l-2.932 10.312 9.548-.623zM-8.058 60.059l4.913 15.485 9.839-11.117z"/><path d="M7.761 47.82L-8.058 60.059l14.752 4.368zM-8.058 60.059l-18.024-3.666 7.156 14.296zm4.913 15.485l-4.913-15.485-10.868 10.63zm-32.828-5.04l9.891-14.111-21.388.624zm-17.745 2.954l17.745-2.954-11.497-13.487zm-1.621 30.626l-1.907-15.943-10.661 10.699zm-12.568-5.244l5.682 15.378 6.886-10.134zm-7.444 13.063l7.678 13.89 5.448-11.575zm18.105-23.762l16.5-3.179-12.972-11.504zm10.768 7.613l9.921 3.901-4.189-14.693z"/><path d="M-72.758 80.394l19.04-6.936-17.27-11.043zm26.28 15.36l5.732-10.792-16.5 3.179zm123.714 38.04l.595-15.899-11.056 10.001zm12.75-29.207l-12.155 13.308 14.694 6.743zM62.822 116.42l-7.031-10.522-4.668 11.634zm-6.753 11.398l6.753-11.398-11.699 1.112zm-129.107 70.203l-16.229-8.349 2.646 19.705zm-16.229-8.349l14.595-7.723-13.043-9.209z"/><path d="M-73.038 198.021l-1.634-16.072-14.595 7.723z"/><path d="M-74.672 181.949l1.634 16.072 11.659-7.963zm-31.514-6.424l-19.794 7.245 20.113 15.249z"/><path d="M-106.186 175.525l.319 22.494 16.6-8.347zm64.97 9.668l8.774-4.008-4.281-5.177zm4.493-9.185l-4.02-6.903-3.394 7.532zm-25.315-30.169l-10.966-6.771-.115 12.892zm6.109-20.586l9.958-.071-4.655-9.21zm-31.94 18.502l-13.652 13.973 17.04.811z"/><path d="M-124.874 157.244l18.688 18.281 4.665-17.797zm-3.103-26.939L-150 109.883v30.287zm18.903 10.768l-1.263-24.216-17.64 13.448zm6.255-45.563l12.136 16.287 6.871-17.814zm-7.518 21.347l14.47 12.567 5.184-17.627zm142.882 85.977l10.007 3.589.419-11.851z"/><path d="M34.152 216.958l8.4-10.535-10.007-3.589zm8.4-10.535l7.538 11.642 4.592-15.502zm-10.007-3.589l10.426-8.262-11.502-1.393zm1.607 14.124l-5.426 13.851 14.294 2.475zm.223-37.918l2.81 7.702 7.137-4.221zm-2.906 14.139l-2.276-8.933-5.535 4.033zm3.677-82.226l-7.414-5.951-1.507 8.429z"/><path d="M27.732 105.002l-7.552 4.776 6.045 3.653zm25.186 40.248l-1.146 9.882 9.936-5.007zm8.79 4.875l-9.936 5.007 7.144 5.363zm-22.416-22.059l7.397-1.23-5.114-8.681zm-66.437-45.928l13.578-.155-5.359-11.294zm21.151 7.299l10.041-3.214-7.192-10.679zm-21.151-7.299l-8.828-11.634-4.773 14.458z"/><path d="M-29.205 93.561l2.06-11.423-13.601 2.824zm-7.352 6.094l1.722 11.01 6.67-5.525z"/><path d="M-29.205 93.561l1.04 11.579 7.254-3.908zm2.709 92.812l-5.946-5.188-1.377 7.612zm0 0l-7.323 2.424 6.256 6.451zm-14.72-1.18l4.493-9.185-7.414.629zm4.659-85.538l-7.403 8.217 9.125 2.793z"/><path d="M-46.478 95.754l2.518 12.118 7.403-8.217zM-150 167.519l25.126-10.275L-150 140.17zm25.126-10.275l-1.106 25.526 19.794-7.245z"/><path d="M-127.977 130.305L-150 140.17l25.126 17.074zm18.903 10.768l-15.8 16.171 23.353.484zm120.543 70.3l-4.747 13.192 12.842-4.087zm3.915 25.844l4.18-16.739-12.842 4.087zm0 0l13.342-6.408-9.162-10.331zm-60.182-82.957l-8.238-3.382 1.038 8.514zm-11.131-29.007l5.303-9.281-11.599-1.754zm34.774-14.97l-7.01-5.143.885 9.072zm-6.125 3.929l-.885-9.072-6.67 5.525zm9.011-22.678l12.275-2.097-7.573-7.454zm15.124-15.99l-15.781-4.855 5.359 11.294zm56.063 69.706l8.79 4.875.82-11.263z"/><path d="M44.956 148.019l6.816 7.113 1.146-9.882z"/><path d="M44.956 148.019l7.962-2.769-8.765-3.938z"/><path d="M44.153 141.312l8.765 3.938-1.586-9.09zM4.047 86.223l-10.041 3.214 10.263 6.637z"/><path d="M-5.994 89.437l2.849-13.893-10.422 6.439zm2.42 8.65l7.843-2.013-10.263-6.637zm29.595-4.354l-11.173-3.454 5.077 10.547zm0 0l-6.096 7.093 7.807 4.176zm-69.501 67.864l-1.318-7.337-7.2 5.132z"/><path d="M-48.666 167.579l5.186-5.982-8.518-2.205z"/><path d="M-40.743 169.105l-2.737-7.508-5.186 5.982zm19.588-58.822l6.613-2.869-6.369-6.182z"/><path d="M-21.155 110.283l.244-9.051-7.254 3.908zm-19.698 7.339l-3.107-9.75-6.666 8.1z"/><path d="M-43.96 107.872l3.107 9.75 6.018-6.957zm3.107 9.75l-5.118 7.56 8.295.21z"/><path d="M-45.971 125.182l5.118-7.56-9.773-1.65zm42.397-27.095l-3.959 7.548L-.059 105zm7.843-2.013l7.519 2.974 3.06-8.769z"/><path d="M4.269 96.074l10.579-5.795-10.801-4.056zm9.427 11.061l-1.908-8.087-5.245 6.43zm-1.908-8.087l-7.519-2.974 2.274 9.404zm0 0l8.137 1.778-5.077-10.547zm8.137 1.778l-6.229 6.309 6.484 2.643zm-65.896 24.356l4.623 7.059 3.672-6.849zm1.079 21.697l1.151-7.451-8.382 2.583zm.094 7.381l-.094-7.381-8.144 3.999zm11.934-35l5.584-5.048-7.555-3.547zm0 0l-7.989-1.638 3.177 7.77z"/><path d="M-40.853 117.622l7.989 1.638-1.971-8.595zm28.702-18.984l8.577-.551-2.42-8.65z"/><path d="M-12.151 98.638l6.157-9.201-12.275 2.097zm4.618 6.997l-4.618-6.997-2.391 8.776z"/><path d="M-12.151 98.638l4.618 6.997 3.959-7.548zm-37.852 34.801l4.032-8.257-9.958.071zm6.262 5.989l-6.262-5.989-2.12 8.572z"/><path d="M-41.348 132.241l-8.655 1.198 6.262 5.989zm-8.655 1.198l8.655-1.198-4.623-7.059zm16.286 84.678l13.226 5.475-.806-12.964zm17.752 22.033l-4.526-16.558-10.294 12.409zm-17.752-22.033l2.932 17.884 10.294-12.409z"/><path d="M-9.254 258.08l-6.711-17.93-14.635 15.794zm-15.183 18.421l15.183-18.421-21.346-2.136zm98.133-129.554l-3.369 12.933 14.161-1.265z"/><path d="M70.327 159.88l3.369-12.933-11.988 3.178zm14.161-1.265l-8.798 14.082 16.117 1.29zm17.516-4.006l-10.197 19.378 17.409-2.59zM82.208 69.907l19.56 14.673-2.316-28.641zm19.56 14.673l-11.782 20.007 17.657 6.157zm-185.58 9.403l15.905 4.857-4.851-18.446zm0 0l8.461 17.92 7.444-13.063zM48.036 44.117l13.189-18.632-28.181-.746zm0 0l25.072 4.492-11.883-23.124zm25.072 4.492l-25.072-4.492 10.43 18.996zm9.1 21.298l-23.742-6.794 6.967 15.641zm-9.1-21.298L58.466 63.113l23.742 6.794zM-59.477 166.476l10.811 1.103-3.332-8.187z"/><path d="M-59.477 166.476l6.428 8.522 4.383-7.419zm48.918 46.725l-9.932 10.391 13.689 2.309zM.326 240.626l6.396-16.061-13.524 1.336zm50.776-74.546l11.163 4.527-3.349-10.112z"/><path d="M58.916 160.495l3.349 10.112 8.062-10.727zM25.676 45.264l13.863 16.053 8.497-17.2z"/><path d="M21.765 63.966l17.774-2.649-13.863-16.053z"/><path d="M21.765 63.966l12.141 11.051 5.633-13.7zm26.763 15.386l9.938-16.239-18.927-1.796z"/><path d="M39.539 61.317l18.927 1.796-10.43-18.996zm21.223 31.471l4.671-14.034-16.905.598zm0 0L48.528 79.352l-1.337 15.629zm-112.214 91.759l10.236.646-2.921-8.556z"/><path d="M-51.452 184.547l7.315-7.91-8.912-1.639z"/><path d="M-53.049 174.998l8.912 1.639-4.529-9.058zm49.241 28.433l9.069-.57-6.189-7.871zm0 0l2.88-8.441-6.63-.629zm0 0l4.269 9.985 4.8-10.555zm48.13-20.91l9.757 6.977.34-11.697zm0 0l10.097-4.72-8.182-4.154zm21.917.823l1.785 13.863 14.282-9.007z"/><path d="M68.024 197.207l-1.785-13.863-12.16 6.154zm-5.759-26.6l-11.163-4.527 3.317 11.721z"/><path d="M62.265 170.607l-7.846 7.194 11.82 5.543zm8.767-66.343l-15.241 1.634 7.031 10.522z"/><path d="M71.032 104.264l-10.27-11.476-4.971 13.11zM36.139 88.332l11.052 6.649 1.337-15.629zm-2.233-13.315l2.233 13.315 12.389-8.98zm0 0l14.622 4.335-8.989-18.035zM-74.672 181.949l2.622-15.142-15.665 5.933zm12.154-25.087l-9.532 9.945 12.573-.331zm41.221 53.766l.909-11.022-10.122 5.664z"/><path d="M-21.297 210.628l-9.213-5.358-3.207 12.847z"/><path d="M-30.51 205.27l-12.145 1.774 8.938 11.073zm-42.494-66.202l5.331-13.275-12.992 1.445z"/><path d="M-67.673 125.793l-7.678-13.89-5.314 15.335zm-41.401 15.28l-18.903-10.768 3.103 26.939zm21.205 2.682l-21.205-2.682 7.553 16.655zm0 0l14.75 8.205.115-12.892z"/><path d="M-87.869 143.755l3.388 14.784 11.362-6.579zm155.893 53.452l-13.342 5.356 11.879 11.485z"/><path d="M54.682 202.563l13.342-5.356-13.945-7.709zm-31.519-4.895l9.382 5.166-1.076-9.655zm0 0l-.01 10.957 9.392-5.791zm23.074-24.021l8.182 4.154-3.317-11.721zm-8.133.291l-3.729 5.102 9.947 3.481zm8.133-.291l4.865-7.567-9.544 1.182z"/><path d="M51.102 166.08l.67-10.948-8.11 5.758zm0 0l7.814-5.585-7.144-5.363zm-9.527-47.925l-10.025-.243 4.252 4.825zm5.114 8.681l9.38.982-4.946-10.286z"/><path d="M39.292 128.066l2.283-9.911-5.773 4.582zM26.021 93.733l10.118-5.401-13.033-6.95zm10.046 6.656l-.921 10.564 9.361-3.11zm0 0l8.44 7.454 2.684-12.862zm15.265 35.771l1.586 9.09 9.61-6.388zm11.196 2.702l4.247-10.966-10.706-.078zm-73.723-96.63l-14.887 14.161 18.024 3.666zm-23.935-1.461l23.935 1.461-8.144-18.795zm-20.209 63.313l8.861-8.33-10.768-7.613zm-1.907-15.943l-15.512-7.747 4.851 18.446zm124.021 39.755l11.056-10.001-15.009-1.475z"/><path d="M62.528 138.862l-6.459-11.044-4.737 8.342zm-124.566 6.977l1.535-10.419-12.501 3.648zm0 0l9.915-3.828-8.38-6.591zm-.48 11.023l.48-11.023-11.081 6.121zm0 0l9.482-5.984-9.002-5.039zm6.589-31.609l-6.296-11.035-5.448 11.575z"/><path d="M-55.929 125.253l-11.744.54 7.17 9.627zm-71.907-23.288l-.141 28.34 17.64-13.448zm18.762 39.108l13.207-11.649-14.47-12.567zm28.409-13.835l5.314-15.335-15.332-.106z"/><path d="M-80.665 127.238l-10.018-15.441-5.184 17.627zm114.817 89.72l15.938 1.107-7.538-11.642zm0 0l-1.607-14.124-9.392 5.791zm3.952-43.02l6.218 8.583 1.915-8.874zm4.867 20.634l1.351-12.051-7.137 4.221zm-8.596-15.532l-5.182 5.206 7.992 2.496z"/><path d="M31.469 193.179l11.502 1.393-5.786-7.83zm3.677-82.226l-8.921 2.478 5.325 4.481zm-3.596 6.959l10.025.243-6.429-7.202zm38.777 41.968l-8.619-9.755-2.792 10.37zm-7.799-21.018l11.168 8.085 3.54-13.153zm-103.274-53.9l4.189 14.693 7.352-6.094zm4.189 14.693l8.392 5.485-1.04-11.579zm-14.069 16.317l-4.713-11.888-6.886 10.134zm0 0l6.666-8.1-11.379-3.788z"/><path d="M-43.96 107.872l-2.518-12.118-8.861 8.33zM6.722 224.565l4.747-13.192-11.008 2.043zm-13.524 1.336l7.263-12.485-11.02-.215z"/><path d="M11.469 211.373l8.095 9.105 3.589-11.853zm22.683 5.585l-10.999-8.333-3.589 11.853zm8.139-82.337l4.398-7.785-7.397 1.23zm0 0l9.041 1.539-4.643-9.324zm1.862 6.691l7.179-5.152-9.041-1.539zm-71.298-59.174l-2.06 11.423 10.936-2.027zm0 0l8.876 9.396 4.702-9.551zm8.219-11.449l-7.156-14.296-9.891 14.111zm0 0l-17.047-.185 8.828 11.634zM-.059 105l4.328-8.926-7.843 2.013zm0 0l6.602.478-2.274-9.404zm26.08-11.267l1.711 11.269 8.335-4.613zm-5.841 16.045l7.552-4.776-7.807-4.176z"/><path d="M27.732 105.002l7.414 5.951.921-10.564zm-7.807-4.176l-8.137-1.778 1.908 8.087zm-72.961 50.052l.913-8.867-9.915 3.828zm0 0l8.144-3.999-7.231-4.868zm32.125-49.646l2.642-9.698-10.936 2.027zm0 0l6.369 6.182 2.391-8.776z"/><path d="M-20.911 101.232l8.76-2.594-6.118-7.104zm-29.092 32.207l-10.5 1.981 8.38 6.591z"/><path d="M-50.003 133.439l-5.926-8.186-4.574 10.167z"/></svg>