<svg xmlns="http://www.w3.org/2000/svg" viewBox="-33.333 -33.333 100 66.667"><style>path{fill:#c8c5bd;stroke:navy;stroke-width:.5;stroke-linejoin:bevel}</style><path d="M-19.116 21.162l1.694-3.024-3.411.021zM6.431 12.082L4.715 9.059 3.018 12.08zM4.715 9.059l1.716 3.023 1.7-3.022zM-10.334 30.26l-1.558 3.073h3.321zM3.144 30.281l1.667-3.044-3.386-.004zM-.397 12.078l1.723 3.024 1.692-3.022z"/><path d="M4.736 15.105l1.695-3.023-3.413-.002z"/><path d="M1.326 15.102l3.41.003-1.718-3.025zM4.851 33.333l-1.707-3.052-1.661 3.052zM-33.333 21.302l2.667 3.023 1.003-3.04zM-30.666 24.325l-2.667-3.023v3.048zM-27.089 30.204l-.626 3.129h2.979zM-27.715 33.333l.626-3.129-3.244-.016zM-19.116 21.162l3.436-.012-1.742-3.012z"/><path d="M-15.68 21.15l1.674-3.023-3.416.011zM-14.006 18.127l-1.674 3.023 3.422-.004zM-30.666-24.325l-2.667 3.023 3.67.017z"/><path d="M-33.333-21.302l2.667-3.023-2.667-.025zM-17.481-12.101l1.673 3.029 1.742-3.016zM-15.808-9.072l3.426.008-1.684-3.024zM9.903-30.285l1.697-3.048H8.224zM-.358-18.127l1.684 3.025 1.723-3.028z"/><path d="M1.326-15.102l-1.684-3.025-1.728 3.027zM31.85 33.333h3.362l-1.648-3.055z"/><path d="M30.189 30.281l1.661 3.052 1.714-3.055zM9.903 30.285l1.682-3.043-3.387-.002zM38.565 33.333h3.339l-1.6-3.065zM51.773 33.333h3.193l-1.226-3.108zM37.171 6.037l3.42.001-1.702-3.019zM1.326-15.102l-1.723 3.024 3.415-.002z"/><path d="M-.397-12.078l1.723-3.024-3.412.002zM3-6.038l-3.419.001 1.705 3.018z"/><path d="M-.419-6.037l-1.715 3.018h3.42zM1.286-3.019h-3.42L-.426 0zM6.418 6.039l-1.703 3.02 3.416.001zM-12.121 27.207l3.39.007-1.76-3.04zM-12.121 27.207l1.787 3.053 1.603-3.046zM6.486 24.199l-1.675 3.038 3.387.003zM1.326 15.102l-3.412-.002 1.728 3.027z"/><path d="M-.397 12.078L-2.086 15.1l3.412.002z"/><path d="M-2.086 15.1l1.689-3.022-3.416-.001zM4.715 9.059l-3.416-.001 1.719 3.022z"/><path d="M1.299 9.058l-1.696 3.02 3.415.002zM3.049 18.13l-1.723-3.028-1.684 3.025zM3.049 18.13l1.72 3.033 1.685-3.03z"/><path d="M3.049 18.13l1.687-3.025-3.41-.003zM4.736 15.105L3.049 18.13l3.405.003zM-.301 24.19l-1.732-3.036-1.663 3.031zM-1.879 33.333l-1.724-3.06-1.628 3.06zM-8.731 27.214l1.76 3.054 1.626-3.047zM-5.231 33.333l-1.74-3.065-1.6 3.065z"/><path d="M-6.971 30.268l-3.363-.008 1.763 3.073z"/><path d="M-10.334 30.26l3.363.008-1.76-3.054zM-3.603 30.273l-3.368-.005 1.74 3.065z"/><path d="M-6.971 30.268l3.368.005-1.742-3.052zM-1.96 27.228l1.659-3.038-3.395-.005z"/><path d="M-1.96 27.228l-1.736-3.043-1.649 3.036zM-.301 24.19l-1.659 3.038 3.385.005z"/><path d="M-3.603 30.273l1.643-3.045-3.385-.007zM9.903 30.285l-1.679 3.048H11.6zM-30.535 33.333l-2.798-2.961v2.961zM-33.333 30.372l2.798 2.961.202-3.145z"/><path d="M-30.535 33.333h2.82l-2.618-3.145zM-27.472 24.25l1.391-3.021-3.582.056z"/><path d="M-30.666 24.325l3.194-.075-2.191-2.965zM-33.333 27.385v2.987l3-.184zM-33.333 27.385l2.667-3.06-2.667.025zM-21.633 33.333l-2.125-3.123-.978 3.123z"/><path d="M-23.758 30.21l-3.331-.006 2.353 3.129zM-27.563 0h-3.111l.972 3.043zM-30.674 0l-2.659-3.044V0zM-33.333 3.044L-30.674 0h-2.659z"/><path d="M-30.674 0l-2.659 3.044 3.631-.001z"/><path d="M-33.333 3.044l2.66 3.043.971-3.044z"/><path d="M-30.673 6.087l-2.66-3.043v3.044zM-33.333 9.132l2.66-3.045-2.66.001zM-30.673 6.087l-2.66 3.045 3.634-.004zM-15.824 3.025l-3.428.004 1.746 3.024z"/><path d="M-19.252 3.029l3.428-.004L-17.513 0zM1.326-15.102l3.41-.003-1.687-3.025z"/><path d="M4.736-15.105l-3.41.003 1.692 3.022zM-29.699-9.128l-.973-3.046-2.661 3.042z"/><path d="M-30.672-12.174l-2.661-.001v3.043zM-22.682-9.101l-1.587 3.028 3.366.01z"/><path d="M-24.269-6.073l1.587-3.028-3.475-.016z"/><path d="M-24.258-12.141l1.576 3.04 1.798-3.018z"/><path d="M-22.682-9.101l-1.576-3.04-1.899 3.024zM-15.824 3.025L-14.103 0h-3.41zM-15.824-3.025l-3.428-.004L-17.513 0z"/><path d="M-14.103 0l-1.721-3.025L-17.513 0z"/><path d="M-15.824-3.025L-14.103 0l1.703-3.022zM-18.439 33.333h3.254l-1.866-3.094zM-7.092 24.179l-1.639 3.035 3.386.007z"/><path d="M-8.731 27.214l1.639-3.035-3.399-.005z"/><path d="M-3.696 24.185l-3.396-.006 1.747 3.042zM-18.935 27.195l-1.775-3.013-1.674 3.016zM-22.577 21.188l3.461-.026-1.717-3.003zM-22.577 21.188l1.867 2.994 1.594-3.02zM-19.202 15.13l-3.452.026 1.821 3.003z"/><path d="M-17.422 18.138l-1.78-3.008-1.631 3.029zM-26.157 9.117l3.475-.016-1.587-3.028zM-22.682 9.101l-3.475.016 1.899 3.024zM-2.119 9.057l3.418.001-1.718-3.021z"/><path d="M-.397 12.078l-1.722-3.021-1.694 3.02z"/><path d="M1.299 9.058l-3.418-.001 1.722 3.021zM-6.971-30.268l1.74-3.065h-3.34zM-24.736-33.333h-2.979l.626 3.129zM-30.666-24.325l-2.667-3.06v3.035zM-22.682-9.101l3.443.016-1.645-3.034zM-19.239-9.085l-3.443-.016 1.779 3.038z"/><path d="M-17.481-12.101l-1.758 3.016 3.431.013z"/><path d="M-19.239-9.085l1.758-3.016-3.403-.018zM-7.258-6.038L-8.977-3.02l3.422.001zM11.6-33.333l1.684 3.047 1.694-3.047z"/><path d="M9.903-30.285l3.381-.001-1.684-3.047zM-.358-18.127l-3.408.003 1.68 3.024zM1.483-33.333l1.661 3.052 1.707-3.052zM35.42 15.1l1.726-3.023-3.416.001zM30.189 30.281l-1.707 3.052h3.368zM13.284 30.286l-3.381-.001 1.697 3.048z"/><path d="M13.284 30.286L11.6 33.333h3.378zM13.284 30.286l-1.699-3.044-1.682 3.043zM2.994 0L1.286-3.019-.426 0zM1.286 3.019L2.994 0h-3.42zM2.994 0L1.286 3.019h3.419z"/><path d="M6.413 0H2.994l1.711 3.019zM58.07 33.333h2.978l-.626-3.129zM54.966 33.333l2.125-3.123-3.351.015zM57.091 30.21l.979 3.123 2.352-3.129z"/><path d="M58.07 33.333l-.979-3.123-2.125 3.123zM43.824 24.174l1.63 3.033 1.772-3.036zM45.454 27.207l3.398-.007-1.626-3.029zM53.74-30.225l1.226-3.108h-3.193zM63.868-33.333l2.799 2.961v-2.961zM63.999-24.325l2.668-.025v-3.035zM52.449-21.162l-1.816-3.01-1.62 3.022zM26.811-30.284l1.671-3.049h-3.373zM-.397-12.078l1.696 3.02 1.719-3.022zM3-6.038l-1.701-3.02-1.718 3.021zM1.369-21.159l-1.727 3.032 3.407-.003zM6.486-24.199l1.683 3.033 1.711-3.036zM11.555-15.109l-1.696-3.027-1.713 3.029zM11.568 21.168l1.705 3.036 1.694-3.035zM6.431 12.082l3.412.001L8.131 9.06zM14.963 15.11l1.704 3.028 1.704-3.028zM-15.68 21.15l1.787 3.021 1.635-3.025zM-12.258 21.146l-1.635 3.025 3.402.003zM-13.893 24.171l1.772 3.036 1.63-3.033zM3.093 24.195l-3.394-.005 1.726 3.043zM4.811 27.237l-1.718-3.042-1.668 3.038z"/><path d="M6.486 24.199l-3.393-.004 1.718 3.042z"/><path d="M3.093 24.195l3.393.004-1.717-3.036zM1.286 3.019L3 6.038l1.705-3.019z"/><path d="M3 6.038L1.286 3.019-.419 6.037zM3 6.038l3.418.001-1.713-3.02z"/><path d="M6.418 6.039L3 6.038l1.715 3.021z"/><path d="M3 6.038l-1.701 3.02 3.416.001z"/><path d="M1.299 9.058L3 6.038l-3.419-.001zM-3.766 18.124l1.733 3.03 1.675-3.027z"/><path d="M-2.086 15.1l-1.68 3.024 3.408.003zM3.144 30.281l-3.375-.003 1.714 3.055z"/><path d="M-.231 30.278l-1.648 3.055h3.362zM-.231 30.278l3.375.003-1.719-3.048z"/><path d="M-1.879 33.333l1.648-3.055-3.372-.005zM-.231 30.278l-1.729-3.05-1.643 3.045z"/><path d="M-1.96 27.228l1.729 3.05 1.656-3.045zM4.811 27.237l1.711 3.047 1.676-3.044zM6.522 30.284l3.381.001-1.705-3.045z"/><path d="M6.522 30.284l-1.711-3.047-1.667 3.044zM4.851 33.333l1.671-3.049-3.378-.003zM8.224 33.333l-1.702-3.049-1.671 3.049z"/><path d="M6.522 30.284l1.702 3.049 1.679-3.048zM-29.531 27.268l2.059-3.018-3.194.075zM-27.089 30.204l-2.442-2.936-.802 2.92zM-33.333 27.385l3.802-.117-1.135-2.943z"/><path d="M-29.531 27.268l-3.802.117 3 2.803zM-26.081 21.229l-1.46-2.998-2.122 3.054zM-29.702-3.043L-27.563 0l1.401-3.039z"/><path d="M-27.563 0l-2.139-3.043L-30.674 0zM-29.702-3.043l-3.631-.001L-30.674 0zM-30.673 6.087l3.111-.005-2.14-3.039z"/><path d="M-27.562 6.082l-3.111.005.974 3.041zM-27.562 6.082l1.405 3.035 1.888-3.044zM-26.157 9.117l-1.405-3.035-2.137 3.046zM-27.557 12.162l1.4-3.045-3.542.011zM-26.157 9.117l-1.4 3.045 3.299-.021zM-19.252-3.029L-20.908 0h3.395zM-20.908 0l1.656 3.029L-17.513 0zM-30.672-12.174l-2.661-3.044v3.043zM-14.095-6.046l1.713-3.018-3.426-.008zM-14.095-6.046l-1.729 3.021 3.424.003zM-10.334 30.26l-3.36-.009 1.802 3.082z"/><path d="M-12.121 27.207l-1.573 3.044 3.36.009zM-15.185 33.333l1.491-3.082-3.357-.012zM-13.694 30.251l-1.491 3.082h3.293zM-8.845 21.146h-3.413l1.767 3.028zM-7.092 24.179l-1.753-3.033-1.646 3.028zM-18.439 33.333l-1.967-3.108-1.227 3.108z"/><path d="M-23.758 30.21l3.352.015-1.978-3.027zM-20.406 30.225l1.967 3.108 1.388-3.094zM-20.406 30.225l-3.352-.015 2.125 3.123z"/><path d="M-18.935 27.195l-1.471 3.03 3.355.014z"/><path d="M-20.406 30.225l1.471-3.03-3.449.003zM-20.71 24.182l-3.403.025 1.729 2.991zM-27.472 24.25l3.359-.043-1.968-2.978z"/><path d="M-22.577 21.188l-1.536 3.019 3.403-.025z"/><path d="M-24.113 24.207l1.536-3.019-3.504.041zM-19.252 3.029l-1.651 3.034 3.397-.01zM-22.682 9.101l1.779-3.038-3.366.01zM-19.202 15.13l-1.682-3.011-1.77 3.037z"/><path d="M-22.654 15.156l1.77-3.037-3.374.022zM-20.884 12.119l1.682 3.011 1.721-3.029zM-20.884 12.119l-1.798-3.018-1.576 3.04zM-2.119 9.057h-3.419l1.725 3.02z"/><path d="M-5.538 9.057l-1.692 3.021 3.417-.001zM-12.4 3.022L-14.103 0l-1.721 3.025zM-3.846 0l1.712-3.019h-3.421zM-2.134-3.019L-3.846 0h3.42zM-19.202 15.13l3.436-.017-1.715-3.012zM-14.006 18.127l-1.76-3.014-1.656 3.025z"/><path d="M-15.766 15.113l-3.436.017 1.78 3.008zM-12.339 15.104l-3.427.009 1.76 3.014zM-12.339 15.104l3.421-.005-1.73-3.018zM-8.918 15.099l1.688-3.021-3.418.003zM-20.406-30.225l1.967-3.108h-3.194zM-11.892-33.333l1.558 3.073 1.763-3.073z"/><path d="M-10.334-30.26l3.363-.008-1.6-3.065zM-33.333-30.372l2.798-2.961h-2.798zM-7.258-6.038l1.72-3.019-3.421-.002z"/><path d="M-5.538-9.057l-1.692-3.021-1.729 3.019zM-10.648-12.081l-1.734 3.017 3.423.005z"/><path d="M-12.382-9.064l1.734-3.017-3.418-.007zM-10.648-12.081l3.418.003-1.688-3.021zM-7.23-12.078l-3.418-.003 1.689 3.022zM11.585-27.242l1.699-3.044-3.381.001z"/><path d="M-7.23-12.078l1.729-3.021h-3.417zM-8.918-15.099h3.417l-1.676-3.023z"/><path d="M-3.766-18.124l-1.735 3.025 3.415-.001zM-5.501-15.099l1.735-3.025-3.411.002zM6.522-30.284l3.381-.001-1.679-3.048z"/><path d="M6.522-30.284l1.702-3.049H4.851z"/><path d="M3.144-30.281l3.378-.003-1.671-3.049zM33.635 24.19l1.658 3.038 1.736-3.043zM37.1 18.124L35.42 15.1l-1.729 3.027z"/><path d="M35.293 27.228l3.385-.007-1.649-3.036zM40.6 0h-3.421l1.71 3.019zM37.179 0H40.6l-1.711-3.019zM26.847 24.199l1.675 3.038 1.719-3.042zM28.522 27.237l-1.711 3.047 3.378-.003zM26.811 30.284l1.671 3.049 1.707-3.052z"/><path d="M28.482 33.333l-1.671-3.049-1.702 3.049zM4.705-3.019L3-6.038 1.286-3.019zM4.705-3.019L6.413 0l1.71-3.019z"/><path d="M4.705-3.019L2.994 0h3.419z"/><path d="M2.994 0l1.711-3.019H1.286zM63.999 24.325l2.668 3.06V24.35zM66.667 30.372l-2.799 2.961h2.799zM51.773 33.333l-1.388-3.094-1.866 3.094z"/><path d="M50.385 30.239l1.388 3.094 1.967-3.108zM50.385 30.239l1.883-3.044-3.416.005z"/><path d="M52.268 27.195l-1.883 3.044 3.355-.014zM41.904 33.333l1.764-3.073-3.364.008zM59.473-15.187l1.402-3.044-3.32.04z"/><path d="M60.875-18.231l-1.402 3.044 3.552-.025zM52.585 3.029L50.846 0l-1.689 3.025zM54.236-6.063l3.366-.01-1.586-3.028z"/><path d="M56.024-3.035l-1.788-3.028-1.651 3.034z"/><path d="M54.236-6.063l1.788 3.028 1.578-3.038zM47.028-30.251l1.491-3.082h-3.294zM40.304-30.268l1.6-3.065h-3.339zM63.999-24.325l2.668 3.023v-3.048zM53.74-30.225l-1.472 3.03 3.45-.003zM50.633-24.172l1.635-3.023-3.416-.005zM43.824-24.174l-1.76-3.04-1.639 3.035zM47.226-24.171l3.407-.001-1.781-3.028zM50.633-24.172l-3.407.001 1.787 3.021zM37.029-24.185l1.742 3.035 1.654-3.029zM20.049-30.286l1.684-3.047h-3.377zM21.748-27.242l-1.699-3.044-1.688 3.042zM16.667-30.287l1.689-3.046h-3.378z"/><path d="M13.284-30.286l3.383-.001-1.689-3.046zM16.667-30.287l3.382.001-1.693-3.047z"/><path d="M20.049-30.286l-3.382-.001 1.694 3.043zM32.007-15.102l1.684-3.025-3.406-.003zM33.691-18.127l-1.726-3.032-1.68 3.029zM42.311 3.02L40.6 0l-1.711 3.019zM40.591 6.038l1.72-3.018-3.422-.001z"/><path d="M40.6 0l1.711 3.02L44.02 0zM42.311 3.02l3.422.002L44.02 0z"/><path d="M45.733 3.022L47.436 0H44.02z"/><path d="M50.846 0h-3.41l1.721 3.025z"/><path d="M47.436 0l-1.703 3.022 3.424.003zM9.843-12.083l1.712-3.026-3.409.002zM4.715-9.059l-3.416.001L3-6.038z"/><path d="M1.299-9.058l3.416-.001-1.697-3.021zM1.369-21.159l1.724-3.036-3.394.005z"/><path d="M3.093-24.195l-1.668-3.038-1.726 3.043zM4.736-15.105l1.718-3.028-3.405.003zM6.454-18.133l-1.718 3.028 3.41-.002zM6.454-18.133l3.405-.003-1.69-3.03zM9.859-18.136l-3.405.003 1.692 3.026zM9.88 24.202l-3.394-.003 1.712 3.041zM11.585 27.242l-1.705-3.04-1.682 3.038zM9.88 24.202l3.393.002-1.705-3.036z"/><path d="M13.273 24.204l-3.393-.002 1.705 3.04zM8.146 15.107l-3.41-.002 1.718 3.028z"/><path d="M4.736 15.105l3.41.002-1.715-3.025zM8.146 15.107l1.697-3.024-3.412-.001zM9.843 12.083l-1.697 3.024 3.409.002z"/><path d="M8.146 15.107l1.713 3.029 1.696-3.027zM9.859 18.136l-1.713-3.029-1.692 3.026zM13.263 18.137l-1.695 3.031 3.399.001zM16.667 18.138l-3.404-.001 1.704 3.032z"/><path d="M14.963 15.11l-1.7 3.027 3.404.001z"/><path d="M13.263 18.137l1.7-3.027-3.408-.001zM13.263 18.137l-3.404-.001 1.709 3.032z"/><path d="M9.859 18.136l3.404.001-1.708-3.028zM-20.71 24.182l3.41-.01-1.816-3.01z"/><path d="M-17.3 24.172l1.62-3.022-3.436.012zM-18.935 27.195l1.635-3.023-3.41.01z"/><path d="M-17.3 24.172l3.407-.001-1.787-3.021zM-2.033 21.154l3.402.005-1.727-3.032z"/><path d="M1.369 21.159l1.68-3.029-3.407-.003zM3.049 18.13l-1.68 3.029 3.4.004zM1.369 21.159l-3.402-.005 1.732 3.036z"/><path d="M3.093 24.195l-1.724-3.036-1.67 3.031z"/><path d="M1.369 21.159l1.724 3.036 1.676-3.032zM-33.333 21.302l2.664-3.042h-2.664z"/><path d="M-30.669 18.26l-2.664 3.042 3.67-.017zM-30.669 18.26l-2.664-3.042v3.042zM-33.333 15.218l2.664 3.042.977-3.048z"/><path d="M-30.669 18.26l3.128-.029-2.151-3.019zM-27.541 18.231l-3.128.029 1.006 3.025zM-22.654 15.156l-1.567 3.035 3.388-.032z"/><path d="M-24.221 18.191l1.644 2.997 1.744-3.029z"/><path d="M-22.577 21.188l-1.644-2.997-1.86 3.038z"/><path d="M-24.221 18.191l-3.32.04 1.46 2.998zM-30.673-6.087l.974-3.041-3.634-.004z"/><path d="M-33.333-6.088l2.66.001-2.66-3.045z"/><path d="M-33.333-3.044l2.66-3.043-2.66-.001z"/><path d="M-29.702-3.043l-.971-3.044-2.66 3.043zM-33.333 9.132l2.661 3.042.973-3.046zM-30.672 12.174l-2.661 3.044 3.641-.006zM-30.672 12.174l-2.661-3.042v3.043z"/><path d="M-33.333 15.218l2.661-3.044-2.661.001zM-27.557 12.162l-3.115.012.98 3.038zM-30.672 12.174l3.115-.012-2.142-3.034zM-27.563 0h3.291l-1.89-3.039zM-30.669-18.26l3.128.029-2.122-3.054zM-30.669-18.26l-2.664-3.042v3.042z"/><path d="M-33.333-21.302l2.664 3.042 1.006-3.025zM-33.333-15.218l2.664-3.042h-2.664zM-27.557-12.162l-2.142 3.034 3.542.011zM-27.557-12.162l-3.115-.012.973 3.046z"/><path d="M-24.258-12.141l-3.299-.021 1.4 3.045z"/><path d="M-26.14-15.187l-1.417 3.025 3.299.021zM-10.677-6.041l3.419.003-1.701-3.021zM-8.977-3.02l-1.7-3.021-1.723 3.019z"/><path d="M-12.382-9.064l1.705 3.023 1.718-3.018zM-10.677-6.041l1.7 3.021 1.719-3.018z"/><path d="M-14.095-6.046l3.418.005-1.705-3.023z"/><path d="M-10.677-6.041l-3.418-.005 1.695 3.024zM-15.824-3.025l-1.682-3.028-1.746 3.024z"/><path d="M-19.252-3.029l1.746-3.024-3.397-.01zM-17.506-6.053l-1.733-3.032-1.664 3.022z"/><path d="M-19.239-9.085l1.733 3.032 1.698-3.019zM-14.095-6.046l-3.411-.007 1.682 3.028z"/><path d="M-17.506-6.053l3.411.007-1.713-3.026zM-5.437 21.15l-1.655 3.029 3.396.006zM-5.437 21.15l1.671-3.026-3.411-.002zM-2.033 21.154l-3.404-.004 1.741 3.035z"/><path d="M-3.766 18.124l-1.671 3.026 3.404.004zM-5.437 21.15l-3.408-.004 1.753 3.033z"/><path d="M-8.845 21.146l3.408.004-1.74-3.028zM-23.758 30.21l-2.142-2.991-1.189 2.985z"/><path d="M-25.9 27.219l-3.631.049 2.442 2.936zM-25.9 27.219l2.142 2.991 1.374-3.012z"/><path d="M-29.531 27.268l3.631-.049-1.572-2.969z"/><path d="M-25.9 27.219l1.787-3.012-3.359.043zM-24.113 24.207l-1.787 3.012 3.516-.021zM-20.903 6.063l1.664 3.022 1.733-3.032z"/><path d="M-19.239 9.085l3.431-.013-1.698-3.019z"/><path d="M-15.808 9.072l-3.431.013 1.758 3.016zM-19.239 9.085l-1.664-3.022-1.779 3.038zM-20.884 12.119l1.645-3.034-3.443.016zM-19.239 9.085l-1.645 3.034 3.403-.018zM-3.838 6.037l-1.717-3.018-1.703 3.019zM-3.838 6.037l1.719 3.02 1.7-3.02zM-3.838 6.037l-1.7 3.02h3.419z"/><path d="M-5.538 9.057l1.7-3.02-3.42.001zM-7.23 12.078l-1.729-3.019-1.689 3.022z"/><path d="M-8.959 9.059l-3.423.005 1.734 3.017zM-5.538 9.057l-3.421.002 1.729 3.019zM-8.959 9.059l3.421-.002-1.72-3.019zM-10.686 0l1.709-3.02-3.423-.002z"/><path d="M-14.103 0h3.417L-12.4-3.022zM-12.4 3.022L-10.686 0h-3.417zM-15.808 9.072l1.713-3.026-3.411.007z"/><path d="M-14.095 6.046l-1.729-3.021-1.682 3.028zM-12.382 9.064l-1.713-3.018-1.713 3.026zM-14.095 6.046l1.695-3.024-3.424.003zM-14.066 12.088l-1.742-3.016-1.673 3.029z"/><path d="M-14.066 12.088l1.684-3.024-3.426.008zM-14.066 12.088l1.727 3.016 1.691-3.023z"/><path d="M-12.382 9.064l-1.684 3.024 3.418-.007zM-14.066 12.088l-1.7 3.025 3.427-.009z"/><path d="M-15.766 15.113l1.7-3.025-3.415.013zM-3.766 18.124l-1.735-3.025-1.676 3.023z"/><path d="M-7.23 12.078l1.729 3.021 1.688-3.022zM-5.501 15.099l3.415.001-1.727-3.023z"/><path d="M-5.501 15.099l1.735 3.025 1.68-3.024zM-8.918 15.099h3.417l-1.729-3.021zM-5.501 15.099h-3.417l1.741 3.023zM-10.59 18.122l-1.749-3.018-1.667 3.023zM-8.845 21.146l-1.745-3.024-1.668 3.024zM-10.59 18.122l-3.416.005 1.748 3.019z"/><path d="M-10.59 18.122l1.745 3.024 1.668-3.024zM-10.59 18.122l1.672-3.023-3.421.005z"/><path d="M-8.918 15.099l-1.672 3.023h3.413zM-17.481-12.101l-1.721-3.029-1.682 3.011zM-26.14-15.187l1.919-3.004-3.32-.04zM-29.531-27.268l-3.802-.117 2.667 3.06zM-29.531-27.268l3.631.049-1.189-2.985zM-2.033-21.154l-1.733 3.03 3.408-.003zM-2.033-21.154l3.402-.005-1.67-3.031z"/><path d="M1.369-21.159l-3.402.005 1.675 3.027zM-3.696-24.185l1.663 3.031 1.732-3.036zM-5.231-33.333l1.628 3.06 1.724-3.06z"/><path d="M-6.971-30.268l3.368-.005-1.628-3.06zM-2.119-9.057l3.418-.001-1.696-3.02zM1.299-9.058l-3.418.001 1.7 3.02zM11.585-27.242l-3.387.002 1.682 3.038zM8.198-27.24l-1.712 3.041 3.394-.003z"/><path d="M8.198-27.24l3.387-.002-1.682-3.043z"/><path d="M6.522-30.284l1.676 3.044 1.705-3.045zM30.285 18.13l1.68 3.029 1.726-3.032zM33.635 24.19l-1.67-3.031-1.724 3.036z"/><path d="M28.522 27.237l3.386-.004-1.667-3.038zM31.908 27.233l-1.719 3.048 3.375-.003z"/><path d="M31.908 27.233l-3.386.004 1.667 3.044zM35.293 27.228l-3.385.005 1.656 3.045zM33.635 24.19l-1.727 3.043 3.385-.005z"/><path d="M31.908 27.233l1.727-3.043-3.394.005zM37.1 18.124l1.671 3.026 1.739-3.028z"/><path d="M38.771 21.15l3.407-.004-1.668-3.024zM36.936 30.273l-1.724 3.06h3.353z"/><path d="M36.936 30.273l1.629 3.06 1.739-3.065zM35.212 33.333l1.724-3.06-3.372.005z"/><path d="M36.936 30.273l-1.643-3.045-1.729 3.05z"/><path d="M36.936 30.273l1.742-3.052-3.385.007zM38.678 27.221l-1.742 3.052 3.368-.005zM20.071-18.137l-1.7 3.027 3.408.001zM28.628-3.019l-1.712-3.02-1.706 3.02zM26.916-6.039l1.702-3.02-3.415-.001zM35.468-3.019L37.179 0l1.71-3.019zM37.146 12.077l-1.694-3.02-1.722 3.021zM35.468 3.019l1.703 3.018 1.718-3.018zM37.179 0l-1.711 3.019h3.421zM16.667 12.084l-1.704 3.026h3.408zM6.413 0h3.418L8.123-3.019zM21.779 15.109l1.696 3.027 1.712-3.029zM63.999 24.325l-1.135 2.943 3.803.117zM50.755 18.138l1.78-3.008-3.436-.017zM43.923 18.122l-1.672-3.023-1.741 3.023zM42.178 21.146l1.745-3.024H40.51zM45.225 33.333l-1.557-3.073-1.764 3.073zM42.064 27.214l3.39-.007-1.63-3.033z"/><path d="M42.064 27.214l-3.386.007 1.626 3.047zM42.064 27.214l1.604 3.046 1.786-3.053zM43.668 30.26l-1.604-3.046-1.76 3.054zM66.667-9.132l-2.662-3.042-.972 3.046z"/><path d="M64.005-12.174l2.662 3.042v-3.043zM64.005-12.174l2.662-3.044-3.642.006z"/><path d="M66.667-15.218l-2.662 3.044 2.662-.001zM60.895-6.082L59.49-9.117l-1.888 3.044zM57.602-6.073l1.888-3.044-3.474.016zM59.49-9.117l1.405 3.035 2.138-3.046zM45.733 3.022l1.695 3.024 1.729-3.021zM43.923 18.122l1.749-3.018-3.421-.005zM42.311-3.02L40.6 0h3.42z"/><path d="M40.6 0l1.711-3.02-3.422.001zM50.755-18.138l1.694-3.024-3.436.012zM59.233-27.219l-1.786 3.012 3.358-.043z"/><path d="M57.447-24.207l1.786-3.012-3.515.021zM66.667-30.372l-3.001.184 3.001 2.803zM63.666-30.188l3.001-.184-2.799-2.961zM66.667-15.218l-2.665-3.042-.977 3.048zM64.002-18.26l2.665 3.042v-3.042zM64.002-18.26l-3.127.029 2.15 3.019z"/><path d="M66.667-21.302l-2.665 3.042h2.665zM57.447-24.207l1.968 2.978 1.39-3.021zM60.875-18.231l-1.46-2.998-1.86 3.038z"/><path d="M59.415-21.229l-3.505.041 1.645 2.997z"/><path d="M55.91-21.188l3.505-.041-1.968-2.978zM50.385-30.239l3.355.014-1.967-3.108z"/><path d="M48.519-33.333l1.866 3.094 1.388-3.094z"/><path d="M50.385-30.239l-3.357-.012 1.824 3.051z"/><path d="M47.028-30.251l3.357.012-1.866-3.094zM50.385-30.239l1.883 3.044 1.472-3.03z"/><path d="M52.268-27.195l-1.883-3.044-1.533 3.039zM55.91-21.188l-1.867-2.994-1.594 3.02zM54.043-24.182l3.404-.025-1.729-2.991z"/><path d="M54.043-24.182l-3.41.01 1.816 3.01zM54.043-24.182l1.867 2.994 1.537-3.019zM54.043-24.182l-1.775-3.013-1.635 3.023zM52.268-27.195l1.775 3.013 1.675-3.016zM41.904-33.333l1.764 3.073 1.557-3.073z"/><path d="M43.668-30.26l3.36.009-1.803-3.082zM43.668-30.26l-1.764-3.073-1.6 3.065z"/><path d="M42.064-27.214l1.604-3.046-3.364-.008z"/><path d="M38.678-27.221l3.386.007-1.76-3.054zM42.064-27.214l-3.386-.007 1.747 3.042zM38.678-27.221l-1.649 3.036 3.396.006zM21.733-33.333l1.698 3.048 1.678-3.048z"/><path d="M23.431-30.285l3.38.001-1.702-3.049zM23.431-30.285l-1.698-3.048-1.684 3.047z"/><path d="M21.748-27.242l1.683-3.043-3.382-.001zM14.973-27.244l1.694 3.04 1.694-3.04zM11.585-27.242l3.388-.002-1.689-3.042z"/><path d="M14.973-27.244l1.694-3.043-3.383.001zM16.667-30.287l-1.694 3.043h3.388zM23.49-12.083l1.697-3.024-3.408-.002zM23.454-24.202l1.71 3.036 1.683-3.033zM25.164-21.166l3.4.003-1.717-3.036zM31.965-21.159l-3.401-.004 1.721 3.033zM28.522-27.237l1.667-3.044-3.378-.003z"/><path d="M30.189-30.281l-1.707-3.052-1.671 3.049zM30.189-30.281l-1.667 3.044 3.386.004zM30.189-30.281l1.661-3.052h-3.368zM49.157-3.025L50.846 0l1.739-3.029z"/><path d="M49.157-3.025L47.436 0h3.41zM4.736-15.105l1.695 3.023 1.715-3.025z"/><path d="M6.431-12.082l-1.695-3.023-1.718 3.025zM6.431-12.082l3.412-.001-1.697-3.024zM9.843-12.083l-3.412.001 1.7 3.022zM6.431-12.082L4.715-9.059l3.416-.001z"/><path d="M4.715-9.059l1.716-3.023-3.413.002zM6.418-6.039l-1.713 3.02h3.418zM4.705-3.019l1.713-3.02L3-6.038z"/><path d="M6.418-6.039l-1.703-3.02L3-6.038z"/><path d="M4.715-9.059l1.703 3.02L8.131-9.06zM9.859-18.136l1.709-3.032-3.399.002z"/><path d="M8.169-21.166l3.399-.002-1.688-3.034zM4.769-21.163l-1.676-3.032-1.724 3.036zM6.486-24.199l-1.717 3.036 3.4-.003zM4.769-21.163l-3.4.004 1.68 3.029z"/><path d="M3.093-24.195l1.676 3.032 1.717-3.036zM4.769-21.163l1.685 3.03 1.715-3.033zM6.454-18.133l-1.685-3.03-1.72 3.033zM4.769 21.163l3.4.003-1.715-3.033z"/><path d="M8.169 21.166l1.69-3.03-3.405-.003zM6.486 24.199l1.683-3.033-3.4-.003zM9.859 18.136l-1.69 3.03 3.399.002zM9.88 24.202l-1.711-3.036-1.683 3.033z"/><path d="M8.169 21.166l1.711 3.036 1.688-3.034zM13.273 24.204h3.394l-1.7-3.035zM-13.893 24.171l-1.626 3.029 3.398.007zM-15.519 27.2l-3.416-.005 1.884 3.044z"/><path d="M-13.694 30.251l-1.825-3.051-1.532 3.039zM-15.519 27.2l1.825 3.051 1.573-3.044zM-17.3 24.172l1.781 3.028 1.626-3.029z"/><path d="M-15.519 27.2l-1.781-3.028-1.635 3.023zM-27.541 18.231l1.401-3.044-3.552.025zM-26.14 15.187l3.486-.031-1.604-3.015zM-26.14 15.187l-1.417-3.025-2.135 3.05z"/><path d="M-27.557 12.162l1.417 3.025 1.882-3.046zM-24.221 18.191l-1.919-3.004-1.401 3.044z"/><path d="M-26.14 15.187l1.919 3.004 1.567-3.035zM-24.269-6.073l-3.293-.009 1.4 3.043z"/><path d="M-27.562-6.082l3.293.009-1.888-3.044z"/><path d="M-29.699-9.128l2.137 3.046 1.405-3.035zM-27.562-6.082l-2.14 3.039 3.54.004z"/><path d="M-27.562-6.082l-3.111-.005.971 3.044zM-30.673-6.087l3.111.005-2.137-3.046zM-22.691-3.035l3.439.006-1.651-3.034zM-22.691-3.035l-1.578-3.038-1.893 3.034z"/><path d="M-24.269-6.073l1.578 3.038 1.788-3.028zM-22.691-3.035L-20.908 0l1.656-3.029z"/><path d="M-22.691-3.035L-24.272 0h3.364z"/><path d="M-24.272 0l1.581-3.035-3.471-.004zM-27.562 6.082l1.4-3.043-3.54.004z"/><path d="M-26.162 3.039L-27.563 0l-2.139 3.043zM-26.162 3.039l-1.4 3.043 3.293-.009z"/><path d="M-26.162 3.039L-24.272 0h-3.291zM-29.692-15.212l3.552.025-1.401-3.044zM-30.669-18.26l.977 3.048 2.151-3.019zM-29.692-15.212l-3.641-.006 2.661 3.044z"/><path d="M-29.692-15.212l-.977-3.048-2.664 3.042zM-29.692-15.212l2.135 3.05 1.417-3.025z"/><path d="M-27.557-12.162l-2.135-3.05-.98 3.038zM-2.134 3.019h3.42L-.426 0zM1.286 3.019h-3.42l1.715 3.018zM-2.134 3.019L-3.846 0l-1.709 3.019z"/><path d="M-3.846 0l1.712 3.019L-.426 0zM-3.838 6.037l1.704-3.018h-3.421zM-2.134 3.019l-1.704 3.018h3.419zM-7.267 0h3.421l-1.709-3.019z"/><path d="M-8.977-3.02L-7.267 0l1.712-3.019zM-3.846 0h-3.421l1.712 3.019z"/><path d="M-10.686 0h3.419l-1.71-3.02zM-10.677 6.041l1.718 3.018 1.701-3.021z"/><path d="M-8.959 9.059l-1.718-3.018-1.705 3.023z"/><path d="M-14.095 6.046l3.418-.005-1.723-3.019zM-10.677 6.041l-3.418.005 1.713 3.018zM-22.577-21.188l-1.644 2.997 3.388.032zM-22.654-15.156l-3.486-.031 1.882 3.046zM-22.654-15.156l-1.604 3.015 3.374.022z"/><path d="M-19.202-15.13l-3.452-.026 1.77 3.037zM-22.654-15.156l3.452.026-1.631-3.029z"/><path d="M-24.221-18.191l1.567 3.035 1.821-3.003z"/><path d="M-22.654-15.156l-1.567-3.035-1.919 3.004zM-22.577-21.188l3.461.026-1.594-3.02z"/><path d="M-19.116-21.162l-3.461-.026 1.744 3.029zM-10.334-30.26l1.603 3.046 1.76-3.054zM-22.384-27.198l3.449.003-1.471-3.03z"/><path d="M-18.935-27.195l-3.449-.003 1.674 3.016zM-23.758-30.21l-.978-3.123-2.353 3.129z"/><path d="M-24.736-33.333l.978 3.123 2.125-3.123z"/><path d="M-23.758-30.21l3.352-.015-1.227-3.108zM-25.9-27.219l2.142-2.991-3.331.006zM-22.384-27.198l-1.374-3.012-2.142 2.991z"/><path d="M-23.758-30.21l1.374 3.012 1.978-3.027zM-30.333-30.188l-.202-3.145-2.798 2.961zM-27.715-33.333l-2.618 3.145 3.244-.016z"/><path d="M-33.333-27.385l3-2.803-3-.184z"/><path d="M-30.535-33.333l.202 3.145 2.618-3.145z"/><path d="M-29.531-27.268l-.802-2.92-3 2.803z"/><path d="M-30.333-30.188l.802 2.92 2.442-2.936zM-.231-30.278l3.375-.003-1.661-3.052z"/><path d="M-.231-30.278l1.714-3.055h-3.362zM3.144-30.281l-3.375.003 1.656 3.045z"/><path d="M-3.603-30.273l3.372-.005-1.648-3.055zM-5.538-9.057l1.725-3.02-3.417-.001z"/><path d="M-5.501-15.099l1.688 3.022 1.727-3.023zM-3.813-12.077l3.416-.001-1.689-3.022z"/><path d="M-3.813-12.077l-1.688-3.022-1.729 3.021zM-2.119-9.057l-1.694-3.02-1.725 3.02z"/><path d="M-3.813-12.077l1.694 3.02 1.722-3.021zM-2.134-3.019l-1.704-3.018-1.717 3.018z"/><path d="M-3.838-6.037l-3.42-.001 1.703 3.019zM-3.838-6.037l1.704 3.018 1.715-3.018z"/><path d="M-3.838-6.037l-1.7-3.02-1.72 3.019zM-2.119-9.057l-1.719 3.02h3.419z"/><path d="M-3.838-6.037l1.719-3.02h-3.419zM4.811-27.237l-1.667-3.044-1.719 3.048z"/><path d="M4.811-27.237l1.711-3.047-3.378.003zM4.811-27.237l-1.718 3.042 3.393-.004z"/><path d="M3.093-24.195l1.718-3.042-3.386.004zM4.811-27.237l3.387-.003-1.676-3.044zM8.198-27.24l-3.387.003 1.675 3.038zM28.564 21.163l-1.717 3.036 3.394-.004zM28.564 21.163l3.401-.004-1.68-3.029z"/><path d="M31.965 21.159l-3.401.004 1.677 3.032zM35.367 21.154l1.733-3.03-3.409.003zM35.367 21.154l-1.732 3.036 3.394-.005z"/><path d="M31.965 21.159l3.402-.005-1.676-3.027z"/><path d="M35.367 21.154l-3.402.005 1.67 3.031zM35.367 21.154l3.404-.004-1.671-3.026zM38.771 21.15l-3.404.004 1.662 3.031zM18.371-15.11l-1.704-3.028-1.704 3.028zM16.667-18.138l1.704 3.028 1.7-3.027zM32.035 9.058l-1.719 3.022 3.414-.002z"/><path d="M35.452 9.057l-3.417.001 1.695 3.02zM6.418 6.039l1.705-3.02H4.705z"/><path d="M8.123 3.019L6.413 0 4.705 3.019zM9.831 0L8.123 3.019l3.418.001z"/><path d="M8.123 3.019L9.831 0H6.413zM13.251 6.04l1.707-3.02h-3.417zM35.42 15.1l-3.413.002 1.684 3.025zM32.007 15.102l3.413-.002-1.69-3.022zM32.007 15.102l-1.722 3.028 3.406-.003z"/><path d="M30.316 12.08l1.691 3.022 1.723-3.024z"/><path d="M28.597 15.105l3.41-.003-1.691-3.022z"/><path d="M32.007 15.102l-3.41.003 1.688 3.025zM16.667 18.138l3.404-.001-1.7-3.027z"/><path d="M20.071 18.137l1.708-3.028-3.408.001z"/><path d="M20.071 18.137l3.404-.001-1.696-3.027zM23.475 18.136l-3.404.001 1.694 3.031zM66.667 21.302l-2.668 3.023 2.668.025z"/><path d="M66.667 21.302l-3.67-.017 1.002 3.04zM66.667 27.385l-3.001 2.803 3.001.184z"/><path d="M63.666 30.188l.202 3.145 2.799-2.961z"/><path d="M61.048 33.333l2.618-3.145-3.244.016zM63.868 33.333l-.202-3.145-2.618 3.145z"/><path d="M62.864 27.268l.802 2.92 3.001-2.803z"/><path d="M63.666 30.188l-.802-2.92-2.442 2.936zM66.667 9.132V6.088l-2.66-.001zM63.035 3.043l-2.14 3.039 3.112.005zM66.667-3.044L64.007 0h2.66zM63.035 3.043L64.007 0h-3.11zM49.013 21.15l3.436.012-1.694-3.024zM52.535 15.13l-1.721-3.029-1.715 3.012zM45.591 21.146h-3.413l1.646 3.028zM49.013 21.15l-3.422-.004 1.635 3.025z"/><path d="M45.591 21.146l-1.767 3.028 3.402-.003zM45.591 21.146l-1.668-3.024-1.745 3.024zM35.42 15.1l3.414-.001-1.688-3.022zM38.834 15.099L37.1 18.124l3.41-.002z"/><path d="M37.1 18.124l1.734-3.025-3.414.001z"/><path d="M42.251 15.099h-3.417l1.676 3.023zM40.563 12.078l-1.729 3.021h3.417z"/><path d="M38.834 15.099l1.729-3.021-3.417-.001zM35.452 9.057h3.42l-1.701-3.02zM38.872 9.057l1.719-3.019-3.42-.001zM38.872 9.057h-3.42l1.694 3.02z"/><path d="M40.563 12.078l-1.691-3.021-1.726 3.02zM45.454 27.207l1.574 3.044 1.824-3.051zM50.385 30.239l-3.357.012 1.491 3.082z"/><path d="M47.028 30.251l3.357-.012-1.533-3.039zM43.668 30.26l3.36-.009-1.574-3.044z"/><path d="M45.225 33.333l1.803-3.082-3.36.009zM47.028 30.251l-1.803 3.082h3.294zM38.678 27.221l1.747-3.042-3.396.006zM40.425 24.179l-1.654-3.029-1.742 3.035zM42.178 21.146l-1.753 3.033 3.399-.005z"/><path d="M38.771 21.15l1.654 3.029 1.753-3.033zM42.064 27.214l-1.639-3.035-1.747 3.042z"/><path d="M40.425 24.179l1.639 3.035 1.76-3.04zM64.007-6.087l2.66-3.045-3.634.004zM64.007-6.087l2.66 3.043v-3.044zM66.667-9.132l-2.66 3.045 2.66-.001z"/><path d="M60.895-6.082l3.112-.005-.974-3.041zM59.49-9.117l-1.899-3.024-1.575 3.04zM38.872 9.057l3.42.002-1.701-3.021z"/><path d="M42.292 9.059l-3.42-.002 1.691 3.021zM47.428 6.046l3.411.007-1.682-3.028zM50.839 6.053l1.746-3.024-3.428-.004zM50.839 6.053l-3.411-.007 1.713 3.026z"/><path d="M50.839 6.053l3.397.01-1.651-3.034zM52.585 3.029L54.241 0h-3.395zM50.846 0h3.395l-1.656-3.029z"/><path d="M54.241 0l1.783-3.035-3.439.006z"/><path d="M54.241 0h3.364l-1.581-3.035zM56.024-3.035l3.471-.004-1.893-3.034z"/><path d="M59.495-3.039l1.4-3.043-3.293.009zM59.495-3.039L57.605 0h3.292z"/><path d="M57.605 0l1.89-3.039-3.471.004zM42.292-9.059l-1.701 3.021 3.42-.003zM40.591-6.038l1.701-3.021-3.42.002z"/><path d="M42.311-3.02l-1.72-3.018-1.702 3.019z"/><path d="M40.591-6.038l1.72 3.018 1.7-3.021zM52.572-9.085l1.664 3.022 1.78-3.038zM57.091-30.21l-3.351-.015 1.978 3.027zM57.091-30.21l.979-3.123h-3.104z"/><path d="M53.74-30.225l3.351.015-2.125-3.123zM58.07-33.333l-.979 3.123 3.331.006zM59.233-27.219l-2.142-2.991-1.373 3.012z"/><path d="M57.091-30.21l2.142 2.991 1.189-2.985z"/><path d="M62.864-27.268l-3.631.049 1.572 2.969zM62.864-27.268l1.135 2.943 2.668-3.06z"/><path d="M63.999-24.325l-1.135-2.943-2.059 3.018zM59.233-27.219l3.631-.049-2.442-2.936z"/><path d="M62.864-27.268l.802-2.92-3.244-.016zM63.666-30.188l-.802 2.92 3.803-.117z"/><path d="M61.048-33.333H58.07l2.352 3.129z"/><path d="M63.666-30.188l-2.618-3.145-.626 3.129zM61.048-33.333l2.618 3.145.202-3.145zM64.002-18.26l-1.005-3.025-2.122 3.054zM62.997-21.285l1.002-3.04-3.194.075zM62.997-21.285l3.67-.017-2.668-3.023zM62.997-21.285l1.005 3.025 2.665-3.042z"/><path d="M62.997-21.285l-3.582.056 1.46 2.998z"/><path d="M59.415-21.229l3.582-.056-2.192-2.965zM45.454-27.207l-3.39-.007 1.76 3.04zM47.028-30.251l-1.574 3.044 3.398.007zM45.454-27.207l1.772 3.036 1.626-3.029z"/><path d="M47.226-24.171l-1.772-3.036-1.63 3.033zM45.454-27.207l-1.786-3.053-1.604 3.046z"/><path d="M43.668-30.26l1.786 3.053 1.574-3.044zM31.85-33.333l1.714 3.055 1.648-3.055z"/><path d="M30.189-30.281l3.375.003-1.714-3.055zM33.564-30.278l-3.375-.003 1.719 3.048zM28.597-15.105l3.41.003-1.722-3.028zM23.475-18.136l-3.404-.001 1.708 3.028zM25.187-15.107l-1.712-3.029-1.696 3.027zM14.967-21.169h3.399l-1.699-3.035zM16.667-18.138l1.699-3.031h-3.399z"/><path d="M18.366-21.169l-1.699 3.031 3.404.001zM25.136-27.24l3.386.003-1.711-3.047z"/><path d="M23.431-30.285l1.705 3.045 1.675-3.044zM28.522-27.237l-3.386-.003 1.711 3.041zM25.136-27.24l-1.705-3.045-1.683 3.043z"/><path d="M23.454-24.202l1.682-3.038-3.388-.002zM25.136-27.24l-1.682 3.038 3.393.003zM28.522-27.237l1.719 3.042 1.667-3.038z"/><path d="M30.241-24.195l-1.719-3.042-1.675 3.038zM33.635-24.19l-3.394-.005 1.724 3.036z"/><path d="M30.241-24.195l3.394.005-1.727-3.043zM30.241-24.195l-1.677 3.032 3.401.004z"/><path d="M28.564-21.163l1.677-3.032-3.394-.004zM14.973-27.244l-1.7 3.04h3.394zM13.273-24.204l-1.688-3.038-1.705 3.04zM13.273-24.204l1.694 3.035 1.7-3.035z"/><path d="M13.273-24.204l1.7-3.04-3.388.002zM13.273-24.204l-1.705 3.036 3.399-.001z"/><path d="M11.568-21.168l1.705-3.036-3.393.002zM23.431 30.285l-1.698 3.048h3.376z"/><path d="M26.811 30.284l-3.38.001 1.678 3.048zM16.667 30.287l-3.383-.001 1.694 3.047zM18.356 33.333l-1.689-3.046-1.689 3.046zM20.06 24.204l3.394-.002-1.689-3.034zM20.06 24.204h-3.393l1.694 3.04zM-20.908 0l-1.783 3.035 3.439-.006z"/><path d="M-20.903 6.063l-1.788-3.028-1.578 3.038z"/><path d="M-22.691 3.035l1.788 3.028 1.651-3.034zM-24.272 0l1.581 3.035L-20.908 0z"/><path d="M-26.162 3.039l3.471-.004L-24.272 0zM-22.691 3.035l-3.471.004 1.893 3.034zM-7.267 0l-1.71 3.02 3.422-.001zM-8.977 3.02L-10.686 0-12.4 3.022zM-5.555 3.019l-3.422.001 1.719 3.018z"/><path d="M-8.977 3.02L-7.267 0h-3.419zM-10.677 6.041l1.7-3.021-3.423.002z"/><path d="M-8.977 3.02l-1.7 3.021 3.419-.003zM-27.472-24.25l-3.194-.075 1.003 3.04zM-29.531-27.268l2.059 3.018 1.572-2.969z"/><path d="M-27.472-24.25l-2.059-3.018-1.135 2.943zM-3.766-18.124l-1.671-3.026-1.74 3.028zM-2.033-21.154l-3.404.004 1.671 3.026zM-5.437-21.15l1.741-3.035-3.396.006z"/><path d="M-5.437-21.15l3.404-.004-1.663-3.031zM-8.845-21.146l3.408-.004-1.655-3.029zM-5.437-21.15l-3.408.004 1.668 3.024zM-12.121-27.207l3.39-.007-1.603-3.046z"/><path d="M-3.696-24.185l-1.649-3.036-1.747 3.042zM-5.345-27.221l1.742-3.052-3.368.005z"/><path d="M-8.731-27.214l3.386-.007-1.626-3.047zM-5.345-27.221l-3.386.007 1.639 3.035zM-19.116-21.162l1.816-3.01-3.41-.01zM-17.3-24.172l-1.635-3.023-1.775 3.013zM28.597 15.105l-1.718 3.028 3.406-.003zM26.879 18.133l1.718-3.028-3.41.002z"/><path d="M23.475 18.136l3.404-.003-1.692-3.026zM26.879 18.133l1.685 3.03 1.721-3.033zM11.568-21.168l1.695 3.031 1.704-3.032zM13.263-18.137l-1.708 3.028 3.408-.001z"/><path d="M13.263-18.137l-3.404.001 1.696 3.027z"/><path d="M13.263-18.137l-1.695-3.031-1.709 3.032zM13.263-18.137l3.404-.001-1.7-3.031zM16.667-18.138l-3.404.001 1.7 3.027zM32.048 3.019h-3.42l1.705 3.019zM35.468-3.019l-1.716-3.018-1.704 3.018zM23.49 12.083l-1.711 3.026 3.408-.002zM28.618 9.059l3.417-.001-1.702-3.02z"/><path d="M32.035 9.058l-3.417.001 1.698 3.021zM9.843 12.083l1.702-3.022-3.414-.001zM16.667 6.04h3.416l-1.708-3.02zM14.958 3.02l1.709 3.02 1.708-3.02zM20.083 6.04h-3.416l1.707 3.021zM13.251 6.04h3.416l-1.709-3.02zM54.236 6.063l1.788-3.028-3.439-.006zM54.241 0l1.783 3.035L57.605 0z"/><path d="M56.024 3.035L54.241 0l-1.656 3.029zM66.667 3.044l-3.632-.001.972 3.044zM66.667 6.088V3.044l-2.66 3.043z"/><path d="M66.667 3.044L64.007 0l-.972 3.043z"/><path d="M64.007 0l2.66 3.044V0zM66.667 9.132l-2.662 3.042 2.662.001zM64.005 12.174l2.662 3.044v-3.043zM64.002 18.26l-1.005 3.025 3.67.017zM64.002 18.26l2.665 3.042V18.26zM66.667 15.218l-2.665 3.042h2.665zM52.268 27.195l-1.635-3.023-1.781 3.028zM48.852 27.2l1.781-3.028-3.407-.001z"/><path d="M50.633 24.172l-1.62-3.022-1.787 3.021zM50.633 24.172l1.816-3.01-3.436-.012zM54.217 12.119l-3.403-.018 1.721 3.029zM55.988 15.156l-1.771-3.037-1.682 3.011zM54.166 18.159l-1.631-3.029-1.78 3.008z"/><path d="M52.449 21.162l1.717-3.003-3.411-.021zM55.988 15.156l-1.822 3.003 3.389.032zM54.166 18.159l1.822-3.003-3.453-.026zM47.339 18.127l1.674 3.023 1.742-3.012zM45.672 15.104l1.667 3.023 1.76-3.014z"/><path d="M47.339 18.127l3.416.011-1.656-3.025zM47.339 18.127l-1.667-3.023-1.749 3.018zM45.591 21.146l1.748-3.019-3.416-.005z"/><path d="M47.339 18.127l-1.748 3.019 3.422.004zM55.988-15.156l1.603 3.015 1.882-3.046zM55.988-15.156l3.485-.031-1.918-3.004zM59.473-15.187l1.418 3.025 2.134-3.05zM64.005-12.174l-3.114.012 2.142 3.034z"/><path d="M60.891-12.162l3.114-.012-.98-3.038zM60.891-12.162L59.49-9.117l3.543-.011z"/><path d="M60.891-12.162l-3.3.021 1.899 3.024z"/><path d="M57.591-12.141l3.3-.021-1.418-3.025zM47.428 6.046l-1.713 3.018 3.426.008zM64.007 0l-.972-3.043L60.897 0z"/><path d="M64.007-6.087l-.972 3.044 3.632-.001z"/><path d="M63.035-3.043L64.007 0l2.66-3.044zM63.035-3.043l.972-3.044-3.112.005z"/><path d="M59.495-3.039l3.54-.004-2.14-3.039zM63.035-3.043l-3.54.004L60.897 0zM33.635-24.19l1.732 3.036 1.662-3.031zM37.029-24.185l-1.662 3.031 3.404.004zM35.367-21.154l-3.402-.005 1.726 3.032z"/><path d="M35.367-21.154l-1.732-3.036-1.67 3.031zM37.1-18.124l-1.733-3.03-1.676 3.027z"/><path d="M35.367-21.154l1.733 3.03 1.671-3.026zM32.007-15.102l3.413.002-1.729-3.027z"/><path d="M35.42-15.1l-3.413-.002 1.723 3.024zM35.42-15.1l1.68-3.024-3.409-.003zM37.1-18.124L35.42-15.1l3.414.001zM35.42-15.1l1.726 3.023 1.688-3.022z"/><path d="M37.146-12.077L35.42-15.1l-1.69 3.022zM40.563-12.078l1.729 3.019 1.69-3.022z"/><path d="M42.292-9.059l-1.729-3.019-1.691 3.021zM40.563-12.078l-3.417.001 1.726 3.02z"/><path d="M37.146-12.077l3.417-.001-1.729-3.021zM42.178-21.146l1.646-3.028-3.399-.005zM38.771-21.15l3.407.004-1.753-3.033zM47.339-18.127l3.416-.011-1.742-3.012z"/><path d="M50.755-18.138l-3.416.011 1.76 3.014zM36.936-30.273l3.368.005-1.739-3.065zM35.212-33.333l1.724 3.06 1.629-3.06zM36.936-30.273l1.742 3.052 1.626-3.047z"/><path d="M33.564-30.278l3.372.005-1.724-3.06zM26.902-12.082l-3.412-.001 1.713 3.023z"/><path d="M28.618-9.059l-1.716-3.023-1.699 3.022zM26.902-12.082l-1.715-3.025-1.697 3.024z"/><path d="M26.902-12.082l1.695-3.023-3.41-.002z"/><path d="M26.879-18.133l1.718 3.028 1.688-3.025z"/><path d="M28.564-21.163l-1.685 3.03 3.406.003z"/><path d="M26.879-18.133l1.685-3.03-3.4-.003zM28.597-15.105l-1.718-3.028-1.692 3.026z"/><path d="M26.879-18.133l-3.404-.003 1.712 3.029z"/><path d="M23.475-18.136l3.404.003-1.715-3.033zM20.06-24.204l3.394.002-1.706-3.04z"/><path d="M16.667-24.204h3.393l-1.699-3.04z"/><path d="M20.06-24.204l1.688-3.038-3.387-.002zM18.366-21.169l1.694-3.035h-3.393zM45.715-9.064l-3.423.005 1.719 3.018z"/><path d="M42.292-9.059l3.423-.005-1.733-3.017zM45.715-9.064l1.685-3.024-3.418.007z"/><path d="M47.4-12.088l-1.685 3.024 3.426-.008zM45.715-9.064l1.713 3.018 1.713-3.026zM47.428-6.046l-1.713-3.018-1.704 3.023zM45.733-3.022l-3.422.002L44.02 0zM47.436 0l-1.703-3.022L44.02 0z"/><path d="M42.311-3.02l3.422-.002-1.722-3.019zM49.157-3.025l-3.424.003L47.436 0zM47.428-6.046l-1.695 3.024 3.424-.003z"/><path d="M45.733-3.022l1.695-3.024-3.417.005zM50.839-6.053l-1.682 3.028 3.428-.004zM54.236-6.063l-3.397.01 1.746 3.024zM50.839-6.053l1.733-3.032-3.431.013zM52.572-9.085l-1.733 3.032 3.397-.01zM50.839-6.053l-3.411.007 1.729 3.021z"/><path d="M47.428-6.046l3.411-.007-1.698-3.019zM23.454 24.202l1.682 3.038 1.711-3.041zM26.847 24.199l-1.711 3.041 3.386-.003z"/><path d="M25.136 27.24l1.675 3.044 1.711-3.047zM25.136 27.24l-1.705 3.045 3.38-.001zM14.973 27.244l-1.7-3.04-1.688 3.038zM13.284 30.286l1.689-3.042-3.388-.002zM16.667 24.204l-1.694 3.04h3.388z"/><path d="M14.973 27.244l1.694-3.04h-3.394zM14.973 27.244l1.694 3.043 1.694-3.043z"/><path d="M16.667 30.287l-1.694-3.043-1.689 3.042zM23.431 30.285l-3.382.001 1.684 3.047zM20.049 30.286l-1.693 3.047h3.377z"/><path d="M20.049 30.286l-3.382.001 1.689 3.046zM16.667 30.287l3.382-.001-1.688-3.042zM16.667 24.204l1.699-3.035h-3.399zM18.366 21.169l-1.699-3.031-1.7 3.031z"/><path d="M18.366 21.169l1.705-3.032-3.404.001zM20.071 18.137l-1.705 3.032 3.399-.001zM20.06 24.204l-1.694-3.035-1.699 3.035z"/><path d="M18.366 21.169l1.694 3.035 1.705-3.036zM-24.113-24.207l1.729-2.991-3.516-.021zM-22.384-27.198l-1.729 2.991 3.403.025z"/><path d="M-24.113-24.207l1.536 3.019 1.867-2.994zM-27.472-24.25l3.359.043-1.787-3.012zM-15.766-15.113l-3.436-.017 1.721 3.029z"/><path d="M-15.766-15.113l-1.715 3.012 3.415.013zM-20.406-30.225l3.355-.014-1.388-3.094z"/><path d="M-18.439-33.333l1.388 3.094 1.866-3.094z"/><path d="M-18.935-27.195l1.884-3.044-3.355.014zM-.231-30.278l-1.729 3.05 3.385-.005z"/><path d="M1.425-27.233l-3.385.005 1.659 3.038zM-1.96-27.228l-1.736 3.043 3.395-.005zM-1.96-27.228l1.729-3.05-3.372.005z"/><path d="M-5.345-27.221l3.385-.007-1.643-3.045zM-1.96-27.228l-3.385.007 1.649 3.036zM25.164 21.166l-1.689-3.03-1.71 3.032zM23.454 24.202l1.71-3.036-3.399.002zM25.164 21.166l-1.71 3.036 3.393-.003z"/><path d="M28.564 21.163l-3.4.003 1.683 3.033z"/><path d="M26.879 18.133l-1.715 3.033 3.4-.003z"/><path d="M25.164 21.166l1.715-3.033-3.404.003zM35.468-3.019L33.759 0h3.42z"/><path d="M33.759 0l1.709-3.019h-3.42zM33.759 0l1.709 3.019L37.179 0z"/><path d="M33.759 0l-1.711 3.019h3.42zM35.468 3.019l-1.716 3.018h3.419zM33.752 6.037l1.7 3.02 1.719-3.02zM32.035 9.058l1.717-3.021-3.419.001z"/><path d="M33.752 6.037l-1.717 3.021 3.417-.001zM33.752 6.037l-1.704-3.018-1.715 3.019z"/><path d="M32.048 3.019l1.704 3.018 1.716-3.018zM28.628-3.019l1.705-3.019-3.417-.001zM30.333-6.038l-1.705 3.019h3.42zM30.333-6.038l-1.715-3.021-1.702 3.02z"/><path d="M30.333-6.038l1.702-3.02-3.417-.001zM30.333-6.038l3.419.001-1.717-3.021z"/><path d="M33.752-6.037l-3.419-.001 1.715 3.019zM32.035-9.058l3.417.001-1.722-3.021zM37.146-12.077l-1.694 3.02h3.42z"/><path d="M35.452-9.057l1.694-3.02-3.416-.001z"/><path d="M33.752-6.037l1.7-3.02-3.417-.001zM23.502 0h3.418l-1.71-3.019zM26.92 0l1.708-3.019H25.21zM25.21 3.019L26.92 0h-3.418zM26.92 0l-1.71 3.019h3.418zM20.083 6.04l1.709-3.02h-3.417zM21.792 3.02l-1.709 3.02 3.416-.001z"/><path d="M25.21 3.019l-3.418.001 1.707 3.019z"/><path d="M21.792 3.02l3.418-.001L23.502 0zM23.49-12.083l-1.702 3.022 3.415.001zM16.667-12.084l1.704-3.026h-3.408zM16.667 0l-1.709 3.02h3.417zM21.792-3.02L23.502 0l1.708-3.019zM21.779 15.109l-1.701-3.025-1.707 3.026z"/><path d="M20.078 12.084h-3.411l1.704 3.026zM16.667 12.084h3.411l-1.704-3.023z"/><path d="M23.49 12.083l-3.412.001 1.701 3.025zM26.902 12.082l1.695 3.023 1.719-3.025z"/><path d="M28.597 15.105l-1.695-3.023-1.715 3.025zM26.902 12.082l-3.412.001 1.697 3.024zM23.49 12.083l3.412-.001-1.699-3.022zM26.902 12.082l1.716-3.023-3.415.001z"/><path d="M28.618 9.059l-1.716 3.023 3.414-.002zM25.21 3.019l1.706 3.02 1.712-3.02zM28.628 3.019l-1.712 3.02 3.417-.001zM25.203 9.06l1.713-3.021h-3.417z"/><path d="M26.916 6.039l-1.706-3.02-1.711 3.02zM26.916 6.039l1.702 3.02 1.715-3.021z"/><path d="M28.618 9.059l-1.702-3.02-1.713 3.021zM9.834 6.039l-1.711-3.02-1.705 3.02zM9.834 6.039H6.418L8.131 9.06z"/><path d="M8.123 3.019l1.711 3.02 1.707-3.019zM9.834 6.039l3.417.001-1.71-3.02zM9.834 6.039l1.711 3.022 1.706-3.021z"/><path d="M11.545 9.061L9.834 6.039 8.131 9.06zM16.667 12.084h-3.412l1.708 3.026zM13.255 12.084l-3.412-.001 1.712 3.026z"/><path d="M14.963 15.11l-1.708-3.026-1.7 3.025zM13.255 12.084l-1.71-3.023-1.702 3.022zM59.495 3.039l3.54.004L60.897 0z"/><path d="M57.605 0l1.89 3.039L60.897 0zM59.495 3.039l1.4 3.043 2.14-3.039z"/><path d="M56.024 3.035l3.471.004L57.605 0zM63.033 9.128l-3.543-.011 1.401 3.045zM63.033 9.128l3.634.004-2.66-3.045z"/><path d="M60.895 6.082l2.138 3.046.974-3.041zM59.49 9.117l3.543.011-2.138-3.046zM63.033 9.128l.972 3.046 2.662-3.042zM64.005 12.174l-.972-3.046-2.142 3.034zM59.473 15.187l-3.485-.031 1.567 3.035zM55.718 27.198l-3.45-.003 1.472 3.03zM57.091 30.21l-1.373-3.012-1.978 3.027zM52.572 9.085l-1.733-3.032-1.698 3.019z"/><path d="M54.236 6.063l-1.664 3.022 3.444.016zM50.814 12.101l1.758-3.016-3.431-.013z"/><path d="M50.839 6.053l1.733 3.032 1.664-3.022zM54.217 12.119l-1.645-3.034-1.758 3.016zM52.572 9.085l1.645 3.034 1.799-3.018zM52.535-15.13l-1.78-3.008-1.656 3.025zM42.311 3.02l1.7 3.021 1.722-3.019z"/><path d="M44.011 6.041l-1.7-3.021-1.72 3.018zM44.011 6.041l3.417.005-1.695-3.024z"/><path d="M42.292 9.059l1.719-3.018-3.42-.003zM45.715 9.064l-1.704-3.023-1.719 3.018z"/><path d="M44.011 6.041l1.704 3.023 1.713-3.018zM47.4 12.088l-1.728 3.016 3.427.009zM47.4 12.088l3.414.013-1.673-3.029z"/><path d="M50.814 12.101l-3.414-.013 1.699 3.025zM45.715 9.064l1.685 3.024 1.741-3.016zM40.563-12.078l1.688-3.021h-3.417z"/><path d="M42.251-15.099l-1.688 3.021 3.419-.003zM45.591-21.146l1.635-3.025-3.402-.003zM42.178-21.146h3.413l-1.767-3.028zM47.226-24.171l-1.635 3.025 3.422-.004zM45.591-21.146h-3.413l1.745 3.024zM47.339-18.127l-1.748-3.019-1.668 3.024zM45.591-21.146l1.748 3.019 1.674-3.023zM33.635-24.19l1.658-3.038-3.385-.005zM35.293-27.228l-1.658 3.038 3.394.005z"/><path d="M38.678-27.221l-3.385-.007 1.736 3.043zM35.293-27.228l-1.729-3.05-1.656 3.045z"/><path d="M35.293-27.228l1.643-3.045-3.372-.005zM36.936-30.273l-1.643 3.045 3.385.007zM32.007-15.102l-1.691 3.022 3.414.002zM32.035-9.058l-1.719-3.022-1.698 3.021zM30.316-12.08l1.719 3.022 1.695-3.02z"/><path d="M28.597-15.105l1.719 3.025 1.691-3.022z"/><path d="M26.902-12.082l3.414.002-1.719-3.025zM30.316-12.08l-3.414-.002 1.716 3.023zM23.454-24.202l-1.689 3.034 3.399.002zM23.475-18.136l-1.71-3.032-1.694 3.031z"/><path d="M21.765-21.168l1.71 3.032 1.689-3.03zM21.765-21.168l-3.399-.001 1.705 3.032zM21.765-21.168l-1.705-3.036-1.694 3.035z"/><path d="M20.06-24.204l1.705 3.036 1.689-3.034zM21.748 27.242l3.388-.002-1.682-3.038zM21.748 27.242l-1.688-3.038-1.699 3.04z"/><path d="M20.06 24.204l1.688 3.038 1.706-3.04z"/><path d="M25.136 27.24l-3.388.002 1.683 3.043z"/><path d="M21.748 27.242l-1.699 3.044 3.382-.001z"/><path d="M20.049 30.286l1.699-3.044-3.387.002zM-24.221-18.191l-1.86-3.038-1.46 2.998zM-27.541-18.231l1.46-2.998-3.582-.056z"/><path d="M-22.577-21.188l-3.504-.041 1.86 3.038zM-26.081-21.229l-1.391-3.021-2.191 2.965z"/><path d="M-26.081-21.229l1.968-2.978-3.359-.043zM-24.113-24.207l-1.968 2.978 3.504.041zM-10.491-24.174l1.646 3.028 1.753-3.033zM-10.491-24.174l-1.63-3.033-1.772 3.036z"/><path d="M-8.731-27.214l-1.76 3.04 3.399-.005z"/><path d="M-12.121-27.207l1.63 3.033 1.76-3.04zM-10.491-24.174l-1.767 3.028h3.413z"/><path d="M-12.258-21.146l1.767-3.028-3.402.003zM-10.59-18.122l1.672 3.023 1.741-3.023zM-8.845-21.146l-1.745 3.024h3.413zM-10.59-18.122l-1.668-3.024-1.748 3.019z"/><path d="M-12.258-21.146l1.668 3.024 1.745-3.024zM-17.3-24.172l1.62 3.022 1.787-3.021zM-15.68-21.15l-1.62-3.022-1.816 3.01zM-12.258-21.146l-3.422-.004 1.674 3.023z"/><path d="M-15.68-21.15l3.422.004-1.635-3.025zM-13.694-30.251l3.36-.009-1.558-3.073z"/><path d="M-13.694-30.251l1.802-3.082h-3.293zM-13.694-30.251l1.573 3.044 1.787-3.053z"/><path d="M-17.051-30.239l3.357-.012-1.491-3.082zM40.591-6.038l-3.42.001 1.718 3.018z"/><path d="M37.171-6.037l-1.703 3.018h3.421zM37.171-6.037l3.42-.001-1.719-3.019z"/><path d="M37.171-6.037h-3.419l1.716 3.018zM37.171-6.037l-1.719-3.02-1.7 3.02z"/><path d="M35.452-9.057l1.719 3.02 1.701-3.02zM28.628-3.019L30.339 0l1.709-3.019zM30.339 0h3.42l-1.711-3.019zM32.048 3.019L30.339 0l-1.711 3.019z"/><path d="M33.759 0h-3.42l1.709 3.019zM30.339 0H26.92l1.708 3.019zM26.92 0h3.419l-1.711-3.019zM9.831 0l1.71-3.02-3.418.001zM11.545-9.061l-1.702-3.022L8.131-9.06zM23.499-6.039h3.417L25.203-9.06zM26.916-6.039h-3.417l1.711 3.02z"/><path d="M21.788-9.061l1.711 3.022 1.704-3.021zM23.499-6.039L21.792-3.02l3.418.001zM21.788 9.061L20.083 6.04l-1.709 3.021z"/><path d="M20.083 6.04l1.705 3.021 1.711-3.022zM21.788 9.061l3.415-.001-1.704-3.021zM21.788 9.061l1.702 3.022 1.713-3.023zM21.788 9.061l-1.71 3.023 3.412-.001z"/><path d="M20.078 12.084l1.71-3.023h-3.414z"/><path d="M14.96 9.061l1.707 3.023 1.707-3.023zM11.545 9.061h3.415L13.251 6.04zM16.667 6.04L14.96 9.061h3.414z"/><path d="M14.96 9.061l1.707-3.021h-3.416zM13.255 12.084l1.705-3.023h-3.415zM14.96 9.061l-1.705 3.023h3.412zM57.602 6.073l-3.366-.01 1.78 3.038zM59.49 9.117l-1.888-3.044-1.586 3.028z"/><path d="M57.602 6.073l1.888 3.044 1.405-3.035zM57.602 6.073l-1.578-3.038-1.788 3.028zM57.602 6.073l1.893-3.034-3.471-.004z"/><path d="M59.495 3.039l-1.893 3.034 3.293.009zM63.025 15.212l.98-3.038-3.114-.012zM64.005 12.174l-.98 3.038 3.642.006z"/><path d="M63.025 15.212l.977 3.048 2.665-3.042zM59.473 15.187l3.552.025-2.134-3.05zM57.591 12.141l1.899-3.024-3.474-.016z"/><path d="M59.49 9.117l-1.899 3.024 3.3.021zM54.217 12.119l3.374.022-1.575-3.04zM57.591 12.141l-3.374-.022 1.771 3.037z"/><path d="M59.473 15.187l-1.882-3.046-1.603 3.015z"/><path d="M57.591 12.141l1.882 3.046 1.418-3.025zM60.805 24.25l2.059 3.018 1.135-2.943zM62.997 21.285l-2.192 2.965 3.194.075zM60.805 24.25l-1.39-3.021-1.968 2.978z"/><path d="M59.415 21.229l1.39 3.021 2.192-2.965zM54.166 18.159l1.744 3.029 1.645-2.997z"/><path d="M55.91 21.188l-1.744-3.029-1.717 3.003zM55.91 21.188l3.505.041-1.86-3.038zM59.415 21.229l-3.505-.041 1.537 3.019zM54.166-18.159l1.744-3.029-3.461.026zM55.91-21.188l-1.744 3.029 3.389-.032z"/><path d="M50.755-18.138l3.411-.021-1.717-3.003zM54.166-18.159l1.822 3.003 1.567-3.035z"/><path d="M54.166-18.159l-1.631 3.029 3.453-.026zM52.535-15.13l1.631-3.029-3.411.021zM50.814-12.101l-3.414.013 1.741 3.016z"/><path d="M47.4-12.088l3.414-.013-1.715-3.012z"/><path d="M52.572-9.085l-1.758-3.016-1.673 3.029zM50.814-12.101l1.721-3.029-3.436.017zM45.672 15.104l-1.69-3.023-1.731 3.018z"/><path d="M43.982 12.081l-3.419-.003 1.688 3.021z"/><path d="M43.982 12.081l-1.69-3.022-1.729 3.019z"/><path d="M43.982 12.081l1.733-3.017-3.423-.005zM43.982 12.081l3.418.007-1.685-3.024zM47.4 12.088l-3.418-.007 1.69 3.023zM45.672-15.104l1.728 3.016 1.699-3.025z"/><path d="M47.4-12.088l-1.728-3.016-1.69 3.023zM45.672-15.104l1.667-3.023-3.416.005zM47.339-18.127l-1.667 3.023 3.427-.009zM42.251-15.099l3.421-.005-1.749-3.018z"/><path d="M45.672-15.104l-3.421.005 1.731 3.018zM40.51-18.122l-3.41-.002 1.734 3.025zM37.1-18.124l3.41.002-1.739-3.028z"/><path d="M42.178-21.146l-1.668 3.024h3.413z"/><path d="M40.51-18.122l1.668-3.024-3.407-.004zM42.251-15.099l-1.741-3.023-1.676 3.023z"/><path d="M40.51-18.122l1.741 3.023 1.672-3.023zM-15.766-15.113l3.427.009-1.667-3.023zM-10.648-12.081l-1.691-3.023-1.727 3.016z"/><path d="M-12.339-15.104l1.691 3.023 1.73-3.018zM-12.339-15.104l-3.427-.009 1.7 3.025zM-12.339-15.104l1.749-3.018-3.416-.005z"/><path d="M-10.59-18.122l-1.749 3.018 3.421.005zM-15.766-15.113l-1.656-3.025-1.78 3.008zM-19.202-15.13l1.78-3.008-3.411-.021zM-17.422-18.138l-1.694-3.024-1.717 3.003zM-17.422-18.138l1.656 3.025 1.76-3.014z"/><path d="M-15.68-21.15l-1.742 3.012 3.416.011zM-17.422-18.138l1.742-3.012-3.436-.012zM-12.121-27.207l-3.398.007 1.626 3.029z"/><path d="M-15.519-27.2l-1.781 3.028 3.407.001z"/><path d="M-17.3-24.172l1.781-3.028-3.416.005zM-15.519-27.2l-1.532-3.039-1.884 3.044z"/><path d="M-15.519-27.2l1.825-3.051-3.357.012z"/><path d="M-13.694-30.251l-1.825 3.051 3.398-.007zM18.371-15.11l1.707 3.026 1.701-3.025zM20.078-12.084l3.412.001-1.711-3.026z"/><path d="M20.078-12.084l1.71 3.023 1.702-3.022zM16.667-12.084h3.411l-1.707-3.026zM18.374-9.061l1.704-3.023h-3.411z"/><path d="M20.078-12.084l-1.704 3.023h3.414zM14.958 3.02L13.249 0l-1.708 3.02z"/><path d="M13.249 0H9.831l1.71 3.02zM16.667 0h-3.418l1.709 3.02zM13.249 0l-1.708-3.02L9.831 0zM6.418-6.039h3.416L8.131-9.06zM9.834-6.039H6.418l1.705 3.02z"/><path d="M11.541-3.02L9.834-6.039l-1.711 3.02z"/><path d="M9.834-6.039l1.707 3.019 1.71-3.02zM11.545-9.061L9.834-6.039l3.417-.001z"/><path d="M9.834-6.039l1.711-3.022-3.414.001zM9.843-12.083l3.412-.001-1.7-3.025z"/><path d="M11.555-15.109l1.7 3.025 1.708-3.026zM13.255-12.084h3.412l-1.704-3.026zM11.545-9.061l1.71-3.023-3.412.001zM20.084 0l1.708 3.02L23.502 0z"/><path d="M21.792 3.02L20.084 0l-1.709 3.02z"/><path d="M20.084 0h-3.417l1.708 3.02zM21.792-3.02L20.084 0h3.418zM18.375-3.02L20.084 0l1.708-3.02z"/><path d="M20.084 0l-1.709-3.02L16.667 0zM20.083-6.04l-1.708 3.02h3.417zM18.374-9.061l1.709 3.021 1.705-3.021z"/><path d="M20.083-6.04l-1.709-3.021-1.707 3.021zM18.375-3.02l1.708-3.02h-3.416zM23.499-6.039l-3.416-.001 1.709 3.02z"/><path d="M20.083-6.04l3.416.001-1.711-3.022zM60.875 18.231l-1.46 2.998 3.582.056zM60.875 18.231l-1.402-3.044-1.918 3.004z"/><path d="M64.002 18.26l-3.127-.029 2.122 3.054z"/><path d="M59.415 21.229l1.46-2.998-3.32-.04z"/><path d="M60.875 18.231l2.15-3.019-3.552-.025z"/><path d="M63.025 15.212l-2.15 3.019 3.127.029zM55.718 27.198l3.515.021-1.786-3.012zM59.233 27.219l-2.142 2.991 3.331-.006z"/><path d="M62.864 27.268l-3.631-.049 1.189 2.985zM59.233 27.219l-3.515-.021 1.373 3.012zM59.233 27.219l1.572-2.969-3.358-.043z"/><path d="M60.805 24.25l-1.572 2.969 3.631.049zM54.043 24.182l-3.41-.01 1.635 3.023zM55.718 27.198l-1.675-3.016-1.775 3.013z"/><path d="M50.633 24.172l3.41.01-1.594-3.02z"/><path d="M54.043 24.182l1.675 3.016 1.729-2.991zM55.91 21.188l-1.867 2.994 3.404.025z"/><path d="M54.043 24.182l1.867-2.994-3.461-.026zM54.217-12.119l-1.645 3.034 3.444-.016z"/><path d="M57.591-12.141l-3.374.022 1.799 3.018z"/><path d="M55.988-15.156l-1.771 3.037 3.374-.022z"/><path d="M52.535-15.13l1.682 3.011 1.771-3.037z"/><path d="M50.814-12.101l3.403-.018-1.682-3.011zM54.217-12.119l-3.403.018 1.758 3.016zM13.251-6.04l1.707 3.02 1.709-3.02zM18.375-3.02h-3.417L16.667 0z"/><path d="M11.541-3.02h3.417l-1.707-3.02zM14.958-3.02h3.417l-1.708-3.02zM13.249 0l1.709-3.02h-3.417zM14.958-3.02L13.249 0h3.418zM18.374-9.061H14.96l1.707 3.021zM14.96-9.061L13.251-6.04h3.416zM14.96-9.061h3.414l-1.707-3.023z"/><path d="M14.96-9.061h-3.415l1.706 3.021zM14.96-9.061l-1.705-3.023-1.71 3.023z"/><path d="M13.255-12.084l1.705 3.023 1.707-3.023z"/></svg>