<svg xmlns="http://www.w3.org/2000/svg" viewBox="-100 0 300 200"><style>path{fill:none;stroke:#000;stroke-width:1;stroke-linejoin:bevel}</style><path d="M-57.317 163.459l5.099-9.071-10.241.056zm76.667-27.182l-5.128-9.076-5.096 9.066zm-5.128-9.076l5.128 9.076 5.099-9.069zm-45.224 63.579l-4.673 9.22h9.963zm40.437.072l5.006-9.123-10.157-.016zm-10.541-54.596l5.147 9.078 5.085-9.067zm15.368 9.091l5.088-9.07-10.224-.01z"/><path d="M4.041 145.334l10.221.013-5.136-9.08zM14.556 200l-5.121-9.148L4.451 200zM-100 163.884l8.006 9.063 3.017-9.129zm8.006 9.063l-8.006-9.063v9.153zm10.735 17.655L-83.148 200h8.935zM-83.148 200l-7.846-9.449-.614 9.449zm25.831-36.541l10.312-.029-5.213-9.042z"/><path d="M-47.005 163.43l5.042-9.066-10.255.024zm5.042-9.066l-5.042 9.066 10.268-.003zM-91.994 27.053L-100 36.116l11.023.066zM-100 36.116l8.006-9.063-8.006-.09zm47.638 27.606l5.042 9.077 5.212-9.048zm5.042 9.077l10.285.018-5.073-9.066zM29.71 9.133L34.801 0H24.674zM-1.023 45.596l5.064 9.07 5.149-9.087z"/><path d="M4.041 54.666l-5.064-9.07-5.164 9.085zM95.549 200h10.086l-4.944-9.16z"/><path d="M90.565 190.852L95.549 200l5.142-9.16zm-60.855.015l5.049-9.118-10.16-.008zM115.693 200h10.019l-4.801-9.195zm39.626 0h9.582l-3.685-9.333zm-43.926-81.88l10.255-.002-5.114-9.059zM4.041 54.666l-5.147 9.078 10.232-.011z"/><path d="M-1.106 63.744l5.147-9.078-10.228.015zm10.2 18.126l-10.24.005 5.112 9.062z"/><path d="M-1.146 81.875l-5.134 9.064 10.246-.002zm5.112 9.062l-10.246.002L-1.158 100zm15.361 27.198l-5.105 9.066 10.227.007zm-55.681 63.48l10.169.028-5.266-9.125zm0 0l5.352 9.165 4.817-9.137zm55.827-8.991l-5.032 9.105 10.158.012zm-15.432-27.29l-10.228-.015 5.164 9.085zm-5.147-9.078l-5.081 9.063 10.228.015z"/><path d="M-6.187 145.319l5.081-9.063-10.239-.011zm20.409-18.118l-10.234-.008 5.138 9.074z"/><path d="M3.988 127.193l-5.094 9.063 10.232.011zm5.202 27.228l-5.149-9.087-5.064 9.07zm0 0l5.144 9.096 5.063-9.082zm0 0l5.072-9.074-10.221-.013z"/><path d="M14.262 145.347l-5.072 9.074 10.207.014zM-.884 172.589l-5.18-9.11-5.003 9.087zM-5.635 200l-5.172-9.176-4.886 9.176zm-20.55-18.357l5.274 9.162 4.885-9.135zM-15.693 200l-5.218-9.195-4.801 9.195z"/><path d="M-20.911 190.805l-10.091-.025 5.29 9.22z"/><path d="M-31.002 190.78l10.091.025-5.274-9.162zm20.195.044l-10.104-.019 5.218 9.195z"/><path d="M-20.911 190.805l10.104.019-5.219-9.154zm15.04-9.112l4.987-9.104-10.183-.023z"/><path d="M-5.871 181.693l-5.196-9.127-4.959 9.104zm4.987-9.104l-4.987 9.104 10.155.02zm-9.923 18.235l4.936-9.131-10.155-.023zm40.517.043L24.674 200h10.127zM-91.608 200l-8.392-8.89V200z"/><path d="M-100 191.11l8.392 8.89.614-9.449zm16.852 8.89l1.889-9.398-9.735-.051zm.741-27.282l4.183-9.069-10.753.169z"/><path d="M-91.994 172.947l9.587-.229-6.57-8.9zm-8.006 9.194v8.969l9.006-.559zm0 0l8.006-9.194-8.006.09zM-64.901 200l-6.366-9.379-2.946 9.379z"/><path d="M-71.267 190.621l-9.992-.019 7.046 9.398zM-82.651 100h-9.359l2.94 9.117zm-9.359 0l-7.99-9.125V100zm-7.99 9.125l7.99-9.125H-100zm7.99-9.125l-7.99 9.125 10.93-.008z"/><path d="M-100 109.125l7.99 9.116 2.94-9.124z"/><path d="M-92.01 118.241l-7.99-9.116v9.129z"/><path d="M-100 127.377l7.99-9.136-7.99.013zm7.99-9.136l-7.99 9.136 10.932-.023zm44.66-9.172l-10.299.011 5.237 9.066z"/><path d="M-57.649 109.08l10.299-.011-5.073-9.069zm61.69-54.414l10.221-.013-5.072-9.074zm10.221-.013l-10.221.013 5.085 9.067zm-103.33 17.993l-2.94-9.134-7.992 9.111z"/><path d="M-92.008 63.512l-7.992-.021v9.132zm24.034 9.214l-4.769 9.075 10.121.028z"/><path d="M-72.743 81.801l4.769-9.075-10.443-.045z"/><path d="M-72.724 63.612l4.75 9.114 5.389-9.051z"/><path d="M-67.974 72.726l-4.75-9.114-5.693 9.069zm20.624 36.343l5.17-9.069h-10.243zm0-18.138l-10.299-.011 5.226 9.08z"/><path d="M-42.18 100l-5.17-9.069-5.073 9.069z"/><path d="M-47.35 90.931l5.17 9.069 5.111-9.062zM-55.319 200h9.762l-5.595-9.288zm34.064-27.459l-4.93 9.102 10.159.027z"/><path d="M-26.185 181.643l4.93-9.102-10.196-.023z"/><path d="M-11.067 172.566l-10.188-.025 5.229 9.129zm-45.729 9.004l-5.318-9.05-5.03 9.055zm-10.909-18.041l10.388-.07-5.142-9.015z"/><path d="M-67.705 163.529l5.591 8.991 4.797-9.061zm10.161-18.168l-10.368.068 5.453 9.015z"/><path d="M-52.218 154.388l-5.326-9.027-4.915 9.083zm-26.199-27.069l10.443-.045-4.769-9.075zm10.443-.045l-10.443.045 5.693 9.069zm61.721-.089l10.241.008-5.134-9.068zm5.147 9.071l-5.147-9.071-5.092 9.06z"/><path d="M3.988 127.193l-10.241-.008 5.147 9.071zM-20.911 9.195L-15.693 0h-10.019zM-74.213 0h-8.935l1.889 9.398zm-17.781 27.053L-100 17.859v9.104zm24.02 45.673l10.348.042-4.959-9.093z"/><path d="M-57.626 72.768l-10.348-.042 5.352 9.103z"/><path d="M-52.362 63.722l-5.264 9.046 10.306.031z"/><path d="M-57.626 72.768l5.264-9.046-10.223-.047zm35.978 9.114l-5.149 9.059h10.263zM34.801 0l5.053 9.129L44.933 0z"/><path d="M29.71 9.133l10.144-.004L34.801 0zM-1.023 45.596l-10.221.018 5.057 9.067zM4.451 0l4.984 9.148L14.556 0zm101.736 145.319l5.158-9.074-10.239.011zm-15.622 45.533L85.444 200h10.105zm-50.711.019l-10.144-.004L34.801 200zm0 0L34.801 200h10.132z"/><path d="M39.854 190.871l-5.095-9.122-5.049 9.118zM9.084 100l-5.118-9.063L-1.158 100zm-5.118 9.063L9.084 100H-1.158zM9.084 100l-5.118 9.063 10.238.003zm10.235 0H9.084l5.12 9.066zm154.894 100h8.935l-1.889-9.398zm-9.312 0l6.366-9.379-10.051.046z"/><path d="M171.267 190.621l2.946 9.379 7.046-9.398z"/><path d="M174.213 200l-2.946-9.379-6.366 9.379zm-42.762-27.482l4.903 9.097 5.305-9.114zm4.903 9.097l10.195-.027-4.89-9.087zM161.216 9.333L164.901 0h-9.582zM191.608 0L200 8.89V0zm.386 27.053l8.006-.09v-9.104zm-34.677 9.488l-5.435-9.038-4.877 9.067zM80.431 9.139L85.444 0H75.326zM-1.106 63.744l5.094 9.063 5.138-9.074zm10.2 18.126l-5.106-9.063-5.134 9.068zM4.138 36.5l-5.161 9.096 10.213-.017zm15.335-9.124l5.054 9.093 5.122-9.105zm15.215 27.258l-5.088-9.08-5.123 9.088zm.029 108.906l5.108 9.102 5.081-9.097zM19.35 136.277l10.22.008-5.121-9.077zm25.546 9.093L50 154.455l5.104-9.085zm-91.901 18.06l5.346 9.071 4.922-9.074zm10.268-.003l-4.922 9.074 10.208.017zm-4.922 9.074l5.305 9.114 4.903-9.097zm50.954.107l-10.179-.019 5.168 9.124zm5.146 9.121l-5.146-9.121-5.011 9.105z"/><path d="M19.473 172.624l-10.178-.016 5.146 9.121z"/><path d="M9.295 172.608l10.178.016-5.139-9.107zm-5.329-63.545l5.128 9.067 5.11-9.064z"/><path d="M9.094 118.13l-5.128-9.067-5.112 9.062zm0 0l10.233.005-5.123-9.069zm10.233.005l-10.233-.005 5.128 9.071z"/><path d="M9.094 118.13l-5.106 9.063 10.234.008z"/><path d="M3.988 127.193l5.106-9.063-10.24-.005zm-15.232 27.193l5.18 9.093 5.041-9.075z"/><path d="M-6.187 145.319l-5.057 9.067 10.221.018zm15.622 45.533l-10.126-.012L4.451 200zm-10.126-.012L-5.635 200H4.451z"/><path d="M-.691 190.84l10.126.012-5.151-9.139z"/><path d="M-5.635 200l4.944-9.16-10.116-.016z"/><path d="M-.691 190.84l-5.18-9.147-4.936 9.131z"/><path d="M-5.871 181.693l5.18 9.147 4.975-9.127zm20.312.036l5.128 9.132 5.03-9.12z"/><path d="M19.569 190.861l10.141.006-5.111-9.126zm0 0l-5.128-9.132-5.006 9.123zM14.556 200l5.013-9.139-10.134-.009zm10.118 0l-5.105-9.139L14.556 200z"/><path d="M19.569 190.861L24.674 200l5.036-9.133zm-108.155-9.08l6.179-9.063-9.587.229zm7.327 8.821l-7.327-8.821-2.408 8.77z"/><path d="M-100 182.141l11.414-.36-3.408-8.834zm11.414-.36l-11.414.36 9.006 8.41zm10.362-18.132l-4.382-8.997-6.371 9.166zM-89.07 90.883l6.419 9.117 4.228-9.106z"/><path d="M-82.651 100l-6.419-9.117-2.94 9.117zm-6.419-9.117l-10.93-.008 7.99 9.125zm-2.94 27.358l9.36-.018-6.42-9.106zm9.36-.018l-9.36.018 2.942 9.113zm0 0l4.233 9.096 5.674-9.12z"/><path d="M-78.417 127.319l-4.233-9.096-6.418 9.131zm-4.227 9.128l4.227-9.128-10.651.035zm4.227-9.128l-4.227 9.128 9.92-.059zm20.768-36.399l-4.98 9.08h10.206zm-4.98 9.08l4.98 9.08 5.226-9.08zm-29.379-36.488L-100 54.369v9.122zm49.842 18.359l5.131-9.054-10.285-.018zm0 0l-5.184 9.06 10.281.007zm11.164 108.909l-10.079-.031 5.406 9.251zm-5.352-9.165l-4.727 9.134 10.079.031zM-45.557 200l4.476-9.251-10.071-.037z"/><path d="M-41.081 190.749L-45.557 200h9.882zm14.584-27.31l-10.24-.012 5.286 9.091zm5.242 9.102l-5.242-9.102-4.954 9.079zM-55.319 200l-5.897-9.333-3.685 9.333zm-15.948-9.379l10.051.046-5.928-9.092z"/><path d="M-61.216 190.667l5.897 9.333 4.167-9.288zm0 0l-10.051-.046 6.366 9.379z"/><path d="M-56.796 181.57l-4.42 9.097 10.064.045z"/><path d="M-61.216 190.667l4.42-9.097-10.348.005z"/><path d="M-62.114 172.52l-10.213.071 5.183 8.984zm-20.293.198l10.08-.127-5.897-8.942z"/><path d="M-67.705 163.529l-4.622 9.062 10.213-.071z"/><path d="M-72.327 172.591l4.622-9.062-10.519.12zm14.678-63.511l-4.973 9.091 10.21-.025zm-10.325 18.194l5.352-9.103-10.121.028zm10.43 18.087l-5.041-9.036-5.327 9.104zm-10.368.068l5.327-9.104-10.139.063zm5.327-9.104l5.041 9.036 5.182-9.083z"/><path d="M-62.585 136.325l-5.389-9.051-4.75 9.114zm56.332-9.14l-10.25-.006 5.158 9.066zm-10.25-.006l-5.09 9.059 10.248.007zm-20.566-18.117L-42.18 100l-5.17 9.069zM-11.407 100l5.127-9.061-10.254.002zm5.127-9.061L-11.407 100h10.249zm-51.264 54.422l10.317-.043-5.135-9.04zm15.581 9.003l-5.264-9.046-4.991 9.07z"/><path d="M-47.227 145.318l-10.317.043 5.326 9.027z"/><path d="M-36.941 145.3l-10.286.018 5.264 9.046zm0 0l10.265-.002-5.172-9.061zm10.265-.002l5.083-9.06-10.255-.001zM-61.216 9.333L-55.319 0h-9.582zM-35.675 0l4.673 9.22 5.29-9.22z"/><path d="M-31.002 9.22l10.091-.025L-25.712 0zM-100 8.89L-91.608 0H-100zm78.352 72.992l5.145-9.061-10.26.002z"/><path d="M-16.503 72.821l-5.09-9.059-5.17 9.061zm-15.345-9.058l-5.187 9.054 10.272.006z"/><path d="M-37.035 72.817l5.187-9.054-10.26-.012zm5.187-9.054l10.255-.001-5.083-9.06z"/><path d="M-21.593 63.762l-10.255.001 5.085 9.06zm56.352-45.511l5.095-9.122-10.144.004zm-56.352 45.511l5.168-9.068-10.251.008zm-5.083-9.06l10.251-.008-5.048-9.064z"/><path d="M-11.244 45.614l-5.181 9.08 10.238-.013z"/><path d="M-16.425 54.694l5.181-9.08-10.229.016zM19.569 9.139l10.141-.006L24.674 0z"/><path d="M19.569 9.139L24.674 0H14.556z"/><path d="M9.435 9.148l10.134-.009L14.556 0zm91.449 163.441l4.987 9.104 5.196-9.127zm10.36-18.203l-5.057-9.067-5.164 9.085zm-5.373 27.307l10.155-.023-4.959-9.104zM121.663 100h-10.256l5.127 9.059zm-10.256 0h10.256l-5.129-9.059zm-30.88 72.624l5.032 9.105 5.146-9.121zm5.032 9.105l-5.128 9.132 10.134-.009zm-5.128 9.132L85.444 200l5.121-9.148z"/><path d="M85.444 200l-5.013-9.139L75.326 200zM14.204 90.934l-5.11-9.064-5.128 9.067zm0 0L19.319 100l5.117-9.068z"/><path d="M14.204 90.934L9.084 100h10.235z"/><path d="M9.084 100l5.12-9.066-10.238.003zm182.91 72.947l8.006 9.194v-9.104zM200 191.11l-8.392 8.89H200zM155.319 200l-4.167-9.288-5.595 9.288z"/><path d="M151.152 190.712l4.167 9.288 5.897-9.333zm0 0l5.644-9.142-10.247.018z"/><path d="M156.796 181.57l-5.644 9.142 10.064-.045zM125.712 200l5.29-9.22-10.091.025zm52.67-145.519l4.224-9.133-9.972.119zm4.224-9.133l-4.224 9.133 10.671-.077zm-24.957 63.732l-5.226-9.08-5.073 9.069zm4.973-27.251l10.121-.028-4.769-9.075zm5.365 9.078l-5.365-9.078-4.973 9.091zm-5.365-9.078l5.365 9.078 4.756-9.106zM141.081 9.251L145.557 0h-9.882zm-20.17-.056L125.712 0h-10.019zm71.083 17.858L200 36.116v-9.153zm-30.778-17.72l-4.42 9.097 10.348-.005zm-9.334 18.17l4.914-9.073-10.247-.018zm-20.431-.021l-5.266-9.125-4.93 9.102z"/><path d="M141.659 27.499l10.223.004-5.333-9.091zm10.223.004l-10.223-.004 5.346 9.071zm-40.815-.069l5.208 9.108 4.98-9.083zM60.146 9.129L65.199 0H55.067zm5.095 9.122l-5.095-9.122-5.065 9.118zM50 9.128L55.067 0H44.933z"/><path d="M39.854 9.129L50 9.128 44.933 0zM50 9.128l10.146.001L55.067 0zm10.146.001L50 9.128l5.081 9.119zm35.813 45.537l5.064-9.07-10.213-.017z"/><path d="M101.023 45.596L95.862 36.5l-5.052 9.079zm25.774 63.463L121.663 100l-5.129 9.059zm-5.149 9.059l5.149-9.059h-10.263z"/><path d="M121.663 100l5.134 9.059 5.125-9.059zm5.134 9.059l10.272.003-5.147-9.062z"/><path d="M137.069 109.062L142.18 100h-10.258zM152.423 100H142.18l5.17 9.069z"/><path d="M142.18 100l-5.111 9.062 10.281.007zM29.57 63.715l5.118-9.081-10.211.008zm-15.348 9.084l-10.234.008 5.106 9.063z"/><path d="M3.988 72.807l10.234-.008-5.096-9.066zm.15-36.307l5.157-9.108-10.179.019z"/><path d="M9.295 27.392l-5.011-9.105-5.168 9.124zm4.967 27.261l5.135-9.088-10.207.014z"/><path d="M19.397 45.565l-5.135 9.088 10.215-.011zm0 0l10.203-.011-5.073-9.085z"/><path d="M29.6 45.554l-10.203.011 5.08 9.077zm.049 127.082l-10.176-.012 5.126 9.117zm5.11 9.113l-5.11-9.113-5.05 9.105zm-5.11-9.113l10.176.006-5.108-9.102z"/><path d="M39.825 172.642l-10.176-.006 5.11 9.113zm-15.348-27.284l-10.215-.011 5.135 9.088z"/><path d="M14.262 145.347l10.215.011-5.127-9.081zm10.215.011l5.093-9.073-10.22-.008zm5.093-9.073l-5.093 9.073 10.211.008z"/><path d="M24.477 145.358l5.123 9.088 5.088-9.08z"/><path d="M29.6 154.446l-5.123-9.088-5.08 9.077zm10.201.006l-5.084 9.088 10.189.005z"/><path d="M50 154.455l-10.199-.003 5.105 9.093zm-5.104-9.085l-5.095 9.082 10.199.003z"/><path d="M39.801 154.452l5.095-9.082-10.208-.004zm0 0l-10.201-.006 5.117 9.094z"/><path d="M29.6 154.446l10.201.006-5.113-9.086zm-91.714 18.074l10.232-.023-5.435-9.038zm10.232-.023l4.877-9.067-10.312.029z"/><path d="M-56.796 181.57l4.914-9.073-10.232.023zm4.914-9.073l10.223.004-5.346-9.071zm45.818-9.018l10.202.021-5.161-9.096z"/><path d="M4.138 163.5l5.052-9.079-10.213-.017zm5.052-9.079L4.138 163.5l10.196.017zM4.138 163.5l-10.202-.021 5.18 9.11zm5.157 9.108L4.138 163.5l-5.022 9.089z"/><path d="M4.138 163.5l5.157 9.108 5.039-9.091zm-104.138.384l7.998-9.141-7.998.019zm7.998-9.141l-7.998 9.141 11.023-.066z"/><path d="M-92.002 154.743l-7.998-9.112v9.131z"/><path d="M-100 145.631l7.998 9.112 2.949-9.147z"/><path d="M-92.002 154.743l9.396-.091-6.447-9.056zm9.396-.091l-9.396.091 3.025 9.075zm14.694-9.223l-4.722 9.104 10.175-.089zm-4.722 9.104l4.929 8.996 5.246-9.085zm4.929 8.996l-4.929-8.996-5.59 9.116z"/><path d="M-72.634 154.533l-9.972.119 4.382 8.997zM-92.01 81.759l2.942-9.113-10.932-.023z"/><path d="M-100 81.746l7.99.013-7.99-9.136z"/><path d="M-100 90.875l7.99-9.116-7.99-.013zm10.93.008l-2.94-9.124-7.99 9.116zM-100 127.377l7.992 9.111 2.94-9.134zm7.992 9.111l-7.992 9.143 10.947-.035z"/><path d="M-92.008 136.488l-7.992-9.111v9.132z"/><path d="M-100 145.631l7.992-9.143-7.992.021z"/><path d="M-82.644 136.447l-9.364.041 2.955 9.108z"/><path d="M-92.008 136.488l9.364-.041-6.424-9.093zM-82.651 100h9.905l-5.677-9.106zm-9.351-54.743l9.396.091-6.371-9.166zm0 0L-100 36.116v9.122z"/><path d="M-100 36.116l7.998 9.141 3.025-9.075zm0 18.253l7.998-9.112-7.998-.019zm17.356 9.184l-6.424 9.093 10.651.035z"/><path d="M-82.644 63.553l-9.364-.041 2.94 9.134zm9.92.059l-9.92-.059 4.227 9.128zm-5.658-9.131l-4.262 9.072 9.92.059zm46.475 27.399l10.259.002-5.115-9.059zm5.11 9.061l-5.11-9.061-5.162 9.058z"/><path d="M-37.035 72.817l5.128 9.063 5.144-9.057zm5.128 9.063l5.11 9.061 5.149-9.059z"/><path d="M-42.166 81.871l10.259.009-5.128-9.063zm10.259.009l-10.259-.009 5.097 9.067zm-15.443 9.051l-5.062-9.077-5.237 9.066zm-10.299-.011l5.237-9.066-10.21-.025z"/><path d="M-52.412 81.854l-5.214-9.086-4.996 9.061z"/><path d="M-57.626 72.768l5.214 9.086 5.092-9.055zm15.46 9.103l-10.246-.017 5.062 9.077z"/><path d="M-52.412 81.854l10.246.017-5.154-9.072zm36.137 81.604l-4.98 9.083 10.188.025zm0 0l5.031-9.072-10.229-.016z"/><path d="M-6.064 163.479l-10.211-.021 5.208 9.108zm-5.18-9.093l-5.031 9.072 10.211.021zm-5.031 9.072l-10.222-.019 5.242 9.102zm-10.222-.019l10.222.019-5.198-9.088zm-44.77 27.182l-6.424-8.986-3.568 8.967zm-6.424-8.986l-10.895.146 7.327 8.821zm0 0l6.424 8.986 4.123-9.046z"/><path d="M-88.586 181.781l10.895-.146-4.716-8.917zm10.895-.146l5.364-9.044-10.08.127zm5.364-9.044l-5.364 9.044 10.547-.06zm9.705-54.42l4.996 9.061 5.214-9.086z"/><path d="M-57.626 127.232l10.306-.031-5.092-9.055zm10.306-.031l-10.306.031 5.264 9.046zm-10.306.031l-4.996-9.061-5.352 9.103z"/><path d="M-62.585 136.325l4.959-9.093-10.348.042zm4.959-9.093l-4.959 9.093 10.223-.047zm46.233-9.112l-5.141-9.061-5.114 9.059zm0 0l5.14 9.065 5.107-9.06zm0 0l-5.11 9.059 10.25.006z"/><path d="M-16.503 127.179l5.11-9.059-10.255-.002zm-5.09 9.059l-5.17-9.061-5.085 9.06z"/><path d="M-26.763 127.177l-10.272.006 5.187 9.054zm10.26.002l-10.26-.002 5.17 9.061z"/><path d="M-26.763 127.177l10.26.002-5.145-9.061zM-31.922 100l5.125-9.059-10.272-.003z"/><path d="M-42.18 100h10.258l-5.147-9.062zm5.111 9.062l5.147-9.062H-42.18zm-10.251 18.139l5.154-9.072-10.246.017z"/><path d="M-42.166 118.129l-5.184-9.06-5.062 9.077zm5.131 9.054l-5.131-9.054-5.154 9.072z"/><path d="M-42.166 118.129l5.097-9.067-10.281.007zm.058 18.12l-5.212-9.048-5.042 9.077z"/><path d="M-42.108 136.249l5.073-9.066-10.285.018zm0 0l5.167 9.051 5.093-9.063zm5.073-9.066l-5.073 9.066 10.26-.012z"/><path d="M-42.108 136.249l-5.119 9.069 10.286-.018z"/><path d="M-47.227 145.318l5.119-9.069-10.254.029zm35.983 9.068l-5.181-9.08-5.048 9.064zm-10.349-18.148l5.168 9.068 5.08-9.061z"/><path d="M-16.425 145.306l10.238.013-5.158-9.074z"/><path d="M-16.425 145.306l5.181 9.08 5.057-9.067zm-10.251-.008l10.251.008-5.168-9.068zm10.251.008l-10.251-.008 5.203 9.072zm-15.288 9.055l-5.228-9.061-5.022 9.064zm5.216 9.078l-5.216-9.078-5.024 9.066zm-5.216-9.078l-10.25.003 5.226 9.063z"/><path d="M-31.713 154.361l5.216 9.078 5.024-9.069zm0 0l5.037-9.063-10.265.002zm5.037-9.063l-5.037 9.063 10.24.009zm-25.686-81.576l-5.182-9.083-5.041 9.036zm-26.02-9.241l5.748-9.014-9.972-.119zm-10.204-36.262l-11.414-.36 8.006 9.194zm0 0l10.895.146-3.568-8.967zm82.522 18.302l-5.18 9.093 10.221-.018zm0 0L4.138 36.5l-5.022-9.089z"/><path d="M4.138 36.5l-10.202.021 5.041 9.075zm-15.205-9.066l5.003 9.087 5.18-9.11zM-15.693 0l4.886 9.176L-5.635 0zm-5.218 9.195l10.104-.019L-15.693 0zm14.658 63.62l10.241-.008-5.094-9.063zm10.241-.008l-10.241.008 5.107 9.06zm30.771-54.556l-10.16.008 5.05 9.105z"/><path d="M24.599 18.259l-5.126 9.117 10.176-.012zm0 0l10.16-.008-5.049-9.118z"/><path d="M19.569 9.139l5.03 9.12 5.111-9.126zM90.81 154.421l5.052 9.079 5.161-9.096zm10.074 18.168l-5.022-9.089-5.157 9.108zm-15.325 9.14l10.157-.016-5.011-9.105zm10.157-.016l-5.151 9.139 10.126-.012zm0 0l-10.157.016 5.006 9.123z"/><path d="M105.871 181.693l-10.155.02 4.975 9.127zm-4.987-9.104l-5.168 9.124 10.155-.02z"/><path d="M95.716 181.713l5.168-9.124-10.179.019zm15.528-27.327l5.031 9.072 5.198-9.088z"/><path d="M116.275 163.458l10.222-.019-5.024-9.069zm-5.468 27.366L105.635 200h10.058z"/><path d="M110.807 190.824l4.886 9.176 5.218-9.195zM105.635 200l5.172-9.176-10.116.016z"/><path d="M110.807 190.824l-4.936-9.131-5.18 9.147z"/><path d="M110.807 190.824l5.219-9.154-10.155.023z"/><path d="M116.026 181.67l-5.219 9.154 10.104-.019zM60.199 45.548l-5.095 9.082 10.208.004zm25.597 45.386l-5.123-9.069-5.109 9.067zm-5.123-9.069l5.105-9.066-10.227-.007zm25.607 9.074l5.127 9.061 5.127-9.059zm5.065 45.306l-5.092-9.06-5.147 9.071zm-5.065-27.184l5.113 9.059 5.141-9.061z"/><path d="M111.407 100l-5.127 9.061 10.254-.002zM50 136.291l-5.104 9.079h10.208zM19.319 100H29.55l-5.114-9.068zm45.993 45.366l5.088 9.08 5.123-9.088zm126.682 27.581l-3.408 8.834 11.414.36zm-39.776-18.559l5.326-9.027-10.317-.043zm-20.505-.027l-5.037-9.063-5.203 9.072z"/><path d="M126.497 163.439l5.216-9.078-10.24.009zM135.675 200l-4.673-9.22-5.29 9.22zm-9.49-18.357l10.169-.028-4.903-9.097zm0 0l-10.159.027 4.885 9.135zm0 0l4.817 9.137 5.352-9.165z"/><path d="M131.002 190.78l-4.817-9.137-5.274 9.162zM200 72.623l-7.992-9.111-2.94 9.134z"/><path d="M192.008 63.512L200 72.623v-9.132zm0 0L200 54.369l-10.947.035zM200 54.369l-7.992 9.143 7.992-.021zm-17.35 27.408l-4.233-9.096-5.674 9.12z"/><path d="M172.743 81.801l5.674-9.12-10.443.045zm5.674-9.12l4.233 9.096 6.418-9.131zm-41.348 36.381l5.097 9.067 5.184-9.06zm-5.356 45.299l5.228-9.061-10.265-.002zm-4.916-63.42L121.663 100h10.259zM121.663 100l5.134-9.059h-10.263zm30.555-54.388l5.099-9.071-10.312.029zm25.473-27.247l-5.364 9.044 10.08-.127z"/><path d="M172.327 27.409l5.364-9.044-10.547.06zM200 8.89l-9.006.559 9.006 8.41z"/><path d="M190.994 9.449L200 8.89 191.608 0zM200 54.369l-7.998-9.112-2.949 9.147z"/><path d="M192.002 45.257L200 54.369v-9.131zm0 0l-9.396.091 6.447 9.056z"/><path d="M200 36.116l-7.998 9.141 7.998-.019zm-27.673-8.707l5.897 8.942 4.183-9.069zm10.279 17.939l-4.382-8.997-5.59 9.116z"/><path d="M178.224 36.351l-10.519.12 4.929 8.996z"/><path d="M167.705 36.471l10.519-.12-5.897-8.942zM151.152 9.288l10.064.045L155.319 0z"/><path d="M145.557 0l5.595 9.288L155.319 0zm5.595 9.288l-10.071-.037 5.468 9.161z"/><path d="M141.081 9.251l10.071.037L145.557 0zm10.071.037l5.644 9.142 4.42-9.097z"/><path d="M156.796 18.43l-5.644-9.142-4.603 9.124zm10.909 18.041l-5.591-8.991-4.797 9.061z"/><path d="M162.114 27.48l10.213-.071-5.183-8.984zm0 0l-10.232.023 5.435 9.038zm0 0l5.591 8.991 4.622-9.062z"/><path d="M162.114 27.48l-5.318-9.05-4.914 9.073z"/><path d="M156.796 18.43l5.318 9.05 5.03-9.055zM125.712 0l5.29 9.22L135.675 0zm5.29 9.22l10.079.031L135.675 0z"/><path d="M131.002 9.22L125.712 0l-4.801 9.195z"/><path d="M126.185 18.357l4.817-9.137-10.091-.025zm-10.159-.027l10.159.027-5.274-9.162zm10.159.027l-10.159-.027 5.229 9.129z"/><path d="M116.026 18.33l-4.959 9.104 10.188.025zM65.199 0l5.091 9.133L75.326 0zm5.091 9.133l10.141.006L75.326 0z"/><path d="M70.29 9.133L65.199 0l-5.053 9.129zm-5.049 9.118l5.049-9.118-10.144-.004zm-20.322-.004L50 27.355l5.081-9.108zm-10.16.004l10.16-.004-5.065-9.118z"/><path d="M44.919 18.247L50 9.128l-10.146.001zM50 9.128l-5.081 9.119h10.162zm20.43 54.587l5.093-9.073-10.211-.008zm-.079-36.351l5.122 9.105 5.054-9.093zm5.122 9.105l10.193.014-5.139-9.107zm20.389.031l-10.196-.017 5.144 9.096zM85.559 18.271l5.006-9.123-10.134-.009zm5.006-9.123L85.444 0l-5.013 9.139z"/><path d="M90.565 9.148l-5.006 9.123 10.157.016zm0 0L95.549 0H85.444zm56.785 81.783l5.073 9.069 5.226-9.08z"/><path d="M147.35 90.931L142.18 100h10.243zM14.262 54.653l5.088 9.07 5.127-9.081z"/><path d="M19.35 63.723l-5.088-9.07-5.136 9.08zm0 0l10.22-.008-5.093-9.073zm10.22-.008l-10.22.008 5.099 9.069z"/><path d="M19.35 63.723l-5.128 9.076 10.227-.007z"/><path d="M14.222 72.799l5.128-9.076-10.224.01zm5.105 9.066l-5.123 9.069 10.232-.002zm-5.123 9.069l5.123-9.069-10.233.005z"/><path d="M19.327 81.865l-5.105-9.066-5.128 9.071z"/><path d="M14.222 72.799l5.105 9.066 5.122-9.073zM29.6 45.554l5.117-9.094-10.19.009z"/><path d="M24.527 36.469l10.19-.009-5.068-9.096zm-10.193.014l-5.039-9.091L4.138 36.5zm5.139-9.107l-5.139 9.107 10.193-.014zm-5.139 9.107L4.138 36.5l5.052 9.079z"/><path d="M9.295 27.392l5.039 9.091 5.139-9.107zm5.039 9.091l5.063 9.082 5.13-9.096z"/><path d="M19.397 45.565l-5.063-9.082-5.144 9.096zm-5.063 117.952l10.193.014-5.13-9.096z"/><path d="M24.527 163.531l5.073-9.085-10.203-.011zm-5.054 9.093l5.054-9.093-10.193-.014zM29.6 154.446l-5.073 9.085 10.19.009zm.049 18.19l-5.122-9.105-5.054 9.093z"/><path d="M24.527 163.531l5.122 9.105 5.068-9.096zm15.298 9.111l10.175.003-5.094-9.1zm-81.484-.141l-4.89 9.087 10.195.027zm-4.89 9.087l-10.247-.018 5.644 9.142z"/><path d="M-41.081 190.749l-5.468-9.161-4.603 9.124zm-5.468-9.161l5.468 9.161 4.727-9.134z"/><path d="M-51.882 172.497l5.333 9.091 4.89-9.087z"/><path d="M-46.549 181.588l-5.333-9.091-4.914 9.073zm-36.057-26.936l4.224-9.133-10.671.077z"/><path d="M-78.382 145.519l10.47-.09-4.812-9.041zm0 0l-4.262-9.072-6.409 9.149z"/><path d="M-82.644 136.447l4.262 9.072 5.658-9.131z"/><path d="M-72.634 154.533l-5.748-9.014-4.224 9.133z"/><path d="M-78.382 145.519l5.748 9.014 4.722-9.104zm5.639-63.718l-9.907-.024 4.227 9.117z"/><path d="M-82.65 81.777l9.907.024-5.674-9.12z"/><path d="M-89.068 72.646l6.418 9.131 4.233-9.096zm6.418 9.131l-6.42 9.106 10.647.011zm0 0l-9.36-.018 2.94 9.124z"/><path d="M-92.01 81.759l9.36.018-6.418-9.131zm24.023 9.148l10.338.013-4.973-9.091zm0 0l-4.756-9.106-5.68 9.093z"/><path d="M-72.743 81.801l4.756 9.106 5.365-9.078zm4.756 9.106l5.358 9.093 4.98-9.08z"/><path d="M-67.987 90.907L-72.746 100h10.117z"/><path d="M-72.746 100l4.759-9.093-10.436-.013zm-9.904 18.223l4.227-9.117-10.647.011z"/><path d="M-78.423 109.106L-82.651 100l-6.419 9.117zm0 0l-4.227 9.117 9.907-.024z"/><path d="M-78.423 109.106l5.677-9.106h-9.905zm-10.63-54.702l10.671.077-4.224-9.133z"/><path d="M-92.002 45.257l2.949 9.147 6.447-9.056zm2.949 9.147L-100 54.369l7.992 9.143z"/><path d="M-89.053 54.404l-2.949-9.147-7.998 9.112zm0 0l6.409 9.149 4.262-9.072z"/><path d="M-82.644 63.553l-6.409-9.149-2.955 9.108zm76.364 45.508l10.246.002L-1.158 100zm10.246.002l-10.246-.002 5.134 9.064zm-10.246-.002L-11.407 100l-5.127 9.059z"/><path d="M-11.407 100l5.127 9.061L-1.158 100zm.014 18.12l5.113-9.059-10.254-.002zm5.113-9.059l-5.113 9.059 10.247.005zM-21.663 100h10.256l-5.127-9.059z"/><path d="M-26.797 90.941l5.134 9.059 5.129-9.059zm15.39 9.059h-10.256l5.129 9.059z"/><path d="M-31.922 100h10.259l-5.134-9.059zm.015 18.12l5.144 9.057 5.115-9.059zm5.144 9.057l-5.144-9.057-5.128 9.063z"/><path d="M-42.166 118.129l10.259-.009-5.162-9.058z"/><path d="M-31.907 118.12l-10.259.009 5.131 9.054zm-35.798-81.649l-4.929 8.996 10.175.089zm-.207 18.1l-10.47-.09 5.658 9.131zm0 0l-4.812 9.041 10.139.063zm10.368.068l-10.368-.068 5.327 9.104zm-10.368-.068l10.368.068-4.915-9.083z"/><path d="M-72.634 45.467l4.722 9.104 5.453-9.015z"/><path d="M-67.912 54.571l-4.722-9.104-5.748 9.014zm.207-18.1l10.388.07-4.797-9.061zm10.388.07l-10.388-.07 5.246 9.085zM-31.002 9.22l4.817 9.137 5.274-9.162zm-36.142 9.205l10.348.005-4.42-9.097z"/><path d="M-56.796 18.43l-10.348-.005 5.03 9.055zm-14.471-9.051L-74.213 0l-7.046 9.398z"/><path d="M-74.213 0l2.946 9.379L-64.901 0zm2.946 9.379l10.051-.046L-64.901 0z"/><path d="M-77.691 18.365l6.424-8.986-9.992.019z"/><path d="M-67.144 18.425l-4.123-9.046-6.424 8.986zm-4.123-9.046l4.123 9.046 5.928-9.092zm-19.727.07L-91.608 0-100 8.89z"/><path d="M-83.148 0h-8.46l.614 9.449zM-100 17.859l9.006-8.41L-100 8.89zM-83.148 0l-7.846 9.449 9.735-.051zm-5.438 18.219l-2.408-8.77-9.006 8.41z"/><path d="M-90.994 9.449l2.408 8.77 7.327-8.821zM-.691 9.16l10.126-.012L4.451 0z"/><path d="M-.691 9.16L4.451 0H-5.635zm10.126-.012L-.691 9.16l4.975 9.127z"/><path d="M-10.807 9.176L-.691 9.16-5.635 0zm-5.696 63.645l5.158-9.066-10.248.007z"/><path d="M-16.425 54.694l5.08 9.061 5.158-9.074z"/><path d="M-11.345 63.755l10.239-.011-5.081-9.063zm0 0l-5.08-9.061-5.168 9.068z"/><path d="M-6.253 72.815l-5.092-9.06-5.158 9.066z"/><path d="M-11.345 63.755l5.092 9.06 5.147-9.071zm5.065 27.184l-5.113-9.059-5.141 9.061zm-5.113-9.059l-10.255.002 5.114 9.059z"/><path d="M-11.393 81.88l5.113 9.059 5.134-9.064zm0 0l-5.11-9.059-5.145 9.061z"/><path d="M-6.253 72.815l-5.14 9.065 10.247-.005zm-5.14 9.065l5.14-9.065-10.25.006zm25.834-63.609L9.435 9.148l-5.151 9.139zm0 0l5.128-9.132-10.134.009zm0 0l-5.146 9.121 10.178-.016z"/><path d="M9.295 27.392l5.146-9.121-10.157.016zm5.146-9.121l10.158-.012-5.03-9.12zm10.158-.012l-10.158.012 5.032 9.105zm61.067 145.258l-5.139 9.107 10.178-.016zm0 0l10.196-.017-5.052-9.079z"/><path d="M95.862 163.5l-10.196.017 5.039 9.091zm10.202-.021l5.18-9.093-10.221.018zm0 0l-5.18 9.11 10.183-.023z"/><path d="M95.862 163.5l10.202-.021-5.041-9.075zm10.202-.021l-10.202.021 5.022 9.089zm0 0l10.211-.021-5.031-9.072z"/><path d="M116.275 163.458l-10.211.021 5.003 9.087zM55.104 54.63L50 45.545l-5.104 9.085z"/><path d="M50 45.545l5.104 9.085 5.095-9.082zm46.012 81.648l-5.138 9.074 10.232-.011z"/><path d="M106.253 127.185l-10.241.008 5.094 9.063zm-86.926-9.05l5.109-9.067-10.232-.002zm5.109-9.067L19.319 100l-5.115 9.066zM29.55 100l-5.114 9.068 10.228.002z"/><path d="M24.436 109.068L29.55 100H19.319zm15.342 9.073l5.11-9.07-10.224-.001zm66.409 27.178l-10.228.015 5.064 9.07z"/><path d="M95.959 145.334l10.228-.015-5.081-9.063zm0 0l-5.149 9.087 10.213-.017zm-5.085-9.067l5.085 9.067 5.147-9.078z"/><path d="M85.738 145.347l10.221-.013-5.085-9.067zm10.221-.013l-10.221.013 5.072 9.074zM50 154.455l10.199-.003-5.095-9.082zm10.199-.003l5.113-9.086-10.208.004zm0 0l10.201-.006-5.088-9.08zm10.201-.006l-10.201.006 5.084 9.088zm129.6 9.438l-8.006 9.063 8.006.09zm0 0l-11.023-.066 3.017 9.129zm0 18.257l-9.006 8.41 9.006.559zm-9.006 8.41l.614 9.449 8.392-8.89z"/><path d="M190.994 190.551L183.148 200h8.46z"/><path d="M190.994 190.551l-9.735.051 1.889 9.398z"/><path d="M188.586 181.781l2.408 8.77 9.006-8.41z"/><path d="M190.994 190.551l-2.408-8.77-7.327 8.821zM200 127.377v-9.123l-7.99-.013zm-10.93-18.26l-6.42 9.106 9.36.018zM200 90.875L192.01 100H200zm-10.93 18.242l2.94-9.117h-9.359zm-42.065 54.313l10.312.029-5.099-9.071zm10.539-18.069l-5.182-9.083-5.135 9.04zm-20.807 18.066l-10.24.012 4.954 9.079zm10.268.003l-10.268-.003 4.922 9.074z"/><path d="M136.737 163.427l-5.286 9.091 10.208-.017zm0 0l-5.024-9.066-5.216 9.078zm-30.55-18.108l10.238-.013-5.08-9.061zm10.238-.013l-5.181 9.08 10.229-.016zm-5.181 9.08l5.181-9.08-10.238.013zm15.432-9.088l-10.251.008 5.048 9.064z"/><path d="M121.593 136.238l-5.168 9.068 10.251-.008z"/><path d="M116.425 145.306l5.168-9.068-10.248.007zm-10.172-18.121l10.25-.006-5.11-9.059zm10.25-.006l5.145-9.061-10.255.002zm0 0l-10.25.006 5.092 9.06z"/><path d="M121.593 136.238l-5.09-9.059-5.158 9.066zm14.761 45.377l4.727 9.134 5.468-9.161z"/><path d="M151.152 190.712l-10.071.037 4.476 9.251z"/><path d="M141.081 190.749l10.071-.037-4.603-9.124z"/><path d="M131.002 190.78l10.079-.031-4.727-9.134zm4.673 9.22l5.406-9.251-10.079.031z"/><path d="M141.081 190.749L135.675 200h9.882zm-25.055-9.079l5.229-9.129-10.188.025z"/><path d="M121.255 172.541l-4.98-9.083-5.208 9.108zm5.242-9.102l-5.242 9.102 10.196-.023z"/><path d="M116.275 163.458l4.98 9.083 5.242-9.102zm9.91 18.185l-4.93-9.102-5.229 9.129z"/><path d="M121.255 172.541l4.93 9.102 5.266-9.125zm70.755-90.782l7.99-9.136-10.932.023zm0 0l7.99 9.116v-9.129z"/><path d="M200 72.623l-7.99 9.136 7.99-.013zm-17.35 9.154l9.36-.018-2.942-9.113zm-4.233-9.096l-5.693-9.069-4.75 9.114zm-61.914 54.498l10.26-.002-5.115-9.059zm10.26-.002l-10.26.002 5.09 9.059zm15.403-9.048l10.246.017-5.062-9.077z"/><path d="M152.412 118.146l5.237-9.066-10.299-.011zm0 0l-10.246-.017 5.154 9.072zm0 0l10.21.025-4.973-9.091zm5.237-9.066l4.98-9.08h-10.206zm-5.226-9.08h10.206l-4.98-9.08z"/><path d="M162.629 100l5.358-9.093-10.338.013z"/><path d="M162.629 100h10.117l-4.759-9.093zm5.358-9.093l10.436-.013-5.68-9.093z"/><path d="M178.423 90.894l4.227-9.117-9.907.024zm0 0L172.746 100h9.905z"/><path d="M172.746 100l5.677-9.106-10.436.013zm-45.983-27.177l-5.115 9.059 10.259-.002zm-5.115 9.059l5.115-9.059-10.26-.002zm5.149 9.059l-5.149-9.059-5.114 9.059z"/><path d="M121.648 81.882l5.149 9.059 5.11-9.061zm35.978-9.114l4.996 9.061 5.352-9.103zm13.641-63.389l-10.051-.046 5.928 9.092zm0 0L174.213 0h-9.312z"/><path d="M161.216 9.333l10.051.046L164.901 0zM174.213 0l-2.946 9.379 9.992.019z"/><path d="M177.691 18.365l-6.424-8.986-4.123 9.046z"/><path d="M171.267 9.379l6.424 8.986 3.568-8.967zm17.319 8.84l-10.895.146 4.716 8.917zm0 0l3.408 8.834L200 17.859z"/><path d="M191.994 27.053l-3.408-8.834-6.179 9.063zm-14.303-8.688l10.895-.146-7.327-8.821z"/><path d="M188.586 18.219l2.408-8.77-9.735-.051z"/><path d="M190.994 9.449l-2.408 8.77 11.414-.36zM183.148 0h-8.935l7.046 9.398zm7.846 9.449L191.608 0h-8.46z"/><path d="M190.994 9.449L183.148 0l-1.889 9.398zm1.008 35.808l-3.025-9.075-6.371 9.166zm-3.025-9.075l3.017-9.129-9.587.229z"/><path d="M188.977 36.182L200 36.116l-8.006-9.063zm0 0l3.025 9.075L200 36.116zm0 0l-10.753.169 4.382 8.997zm-10.753.169l10.753-.169-6.57-8.9zm-41.87-17.966l-10.169-.028 5.266 9.125zm4.727-9.134l-4.727 9.134 10.195.027zm-4.727 9.134l5.305 9.114 4.89-9.087z"/><path d="M141.659 27.499l-5.305-9.114-4.903 9.097z"/><path d="M136.354 18.385l-5.352-9.165-4.817 9.137zm-5.352-9.165l5.352 9.165 4.727-9.134zM95.549 0l5.142 9.16L105.635 0z"/><path d="M90.565 9.148l10.126.012L95.549 0zm10.126.012l-10.126-.012 5.151 9.139zM85.738 54.653l10.221.013-5.149-9.087zM70.4 45.554l-10.201-.006 5.113 9.086zm5.123 9.088L70.4 45.554l-5.088 9.08zM44.906 36.455h10.188L50 27.355zM50 45.545l5.094-9.09H44.906zm5.094-9.09L50 45.545l10.199.003zm20.307-18.196l10.158.012-5.128-9.132z"/><path d="M70.29 9.133l5.111 9.126 5.03-9.12zm15.269 9.138l-10.158-.012 5.126 9.117zm-10.158-.012L70.29 9.133l-5.049 9.118zm-5.05 9.105l5.05-9.105-10.16-.008z"/><path d="M75.401 18.259l-5.05 9.105 10.176.012zm10.158.012l5.146 9.121 5.011-9.105z"/><path d="M90.705 27.392l-5.146-9.121-5.032 9.105zm10.179.019l-10.179-.019 5.157 9.108zm-10.179-.019l10.179.019-5.168-9.124z"/><path d="M90.705 27.392l-5.039 9.091 10.196.017zm-5.039 9.091l5.039-9.091-10.178-.016zM44.919 18.247l-5.094 9.111L50 27.355z"/><path d="M39.825 27.358l-5.066-9.107-5.11 9.113zm0 0l5.081 9.097 5.094-9.1z"/><path d="M39.825 27.358l5.094-9.111-10.16.004zm0 0l-5.108 9.102 10.189-.005zm-5.108 9.102l5.108-9.102-10.176.006zM70.29 190.867L65.199 200h10.127z"/><path d="M80.431 190.861l-10.141.006L75.326 200zM50 190.872l-10.146-.001L44.933 200zM55.067 200L50 190.872 44.933 200zm5.108-27.358l10.176-.006-5.068-9.096zm0 0L50 172.645l5.081 9.108zM-62.629 100l-5.358 9.093 10.338-.013zm.007 18.171l-5.365-9.078-4.756 9.106zm-5.365-9.078l5.365 9.078 4.973-9.091z"/><path d="M-72.746 100l4.759 9.093 5.358-9.093z"/><path d="M-78.423 109.106l10.436-.013-4.759-9.093zm10.436-.013l-10.436.013 5.68 9.093zM-21.663 100l-5.134 9.059h10.263zm-5.134 9.059L-31.922 100l-5.147 9.062zm10.263 0h-10.263l5.149 9.059z"/><path d="M-26.797 109.059l5.134-9.059h-10.259zm-5.11 9.061l5.11-9.061-10.272.003zm5.11-9.061l-5.11 9.061 10.259-.002zm-55.61-81.777l-9.587-.229 3.017 9.129z"/><path d="M-88.586 18.219l6.179 9.063 4.716-8.917z"/><path d="M-82.407 27.282l-6.179-9.063-3.408 8.834zm71.163 18.332l-5.031-9.072-5.198 9.088z"/><path d="M-6.064 36.521l-10.211.021 5.031 9.072zm-10.211.021l5.208-9.108-10.188.025z"/><path d="M-16.275 36.542l10.211-.021-5.003-9.087zm-10.222.019l10.222-.019-4.98-9.083zm10.222-.019l-10.222.019 5.024 9.069zm-20.079-18.157l10.169-.028-4.817-9.137zm25.287 9.049l-4.959-9.104-5.229 9.129zm-4.959-9.104l5.219-9.154-10.104.019z"/><path d="M-26.185 18.357l10.159-.027-4.885-9.135z"/><path d="M-16.026 18.33l-10.159.027 4.93 9.102zm-41.291 18.211l5.435-9.038-10.232-.023z"/><path d="M-51.882 27.503l-4.914-9.073-5.318 9.05zm137.62 117.844l-5.135 9.088 10.207-.014z"/><path d="M80.603 154.435l5.135-9.088-10.215.011z"/><path d="M70.4 154.446l10.203-.011-5.08-9.077z"/><path d="M80.603 154.435l5.063 9.082 5.144-9.096zM34.717 36.46l5.084 9.088 5.105-9.093zm5.084 9.088l-5.113 9.086 10.208-.004z"/><path d="M39.801 45.548l-10.201.006 5.088 9.08zm0 0l-5.084-9.088-5.117 9.094zm0 0L50 45.545l-5.094-9.09zM50 45.545l-10.199.003 5.095 9.082zm46.034 63.518l-10.238.003 5.11 9.064zm10.246-18.124l-5.134-9.064-5.112 9.062zm-35.85 45.346l-5.118 9.081 10.211-.008zm15.348-9.084l10.234-.008-5.106-9.063zm10.234-.008l-10.234.008 5.096 9.066zm-66.442 9.092l5.101-9.072-10.222-.005zM50 118.142l10.222-.001-5.11-9.07z"/><path d="M44.888 109.071L50 118.142l5.112-9.071zm15.334 9.07L50 118.142l5.109 9.073zm-20.444 0l10.222.001-5.112-9.071zm122.844.03l5.365-9.078-10.338-.013z"/><path d="M162.629 100l5.358 9.093 4.759-9.093z"/><path d="M167.987 109.093L162.629 100l-4.98 9.08zm32.013.032l-10.93-.008 2.94 9.124zm0 9.129v-9.129l-7.99 9.116z"/><path d="M200 109.125L192.01 100l-2.94 9.117z"/><path d="M192.01 100l7.99 9.125V100zm7.99 27.377l-7.992 9.111 7.992.021zm-7.992 9.111l7.992 9.143v-9.122zm-.006 18.255l-3.025 9.075 11.023.066z"/><path d="M192.002 154.743l7.998 9.141v-9.122z"/><path d="M200 145.631l-7.998 9.112 7.998.019zm-43.204 35.939l-4.914-9.073-5.333 9.091z"/><path d="M146.549 181.588l5.333-9.091-10.223.004z"/><path d="M151.882 172.497l-4.877-9.067-5.346 9.071z"/><path d="M151.882 172.497l5.435-9.038-10.312-.029zm10.703-36.172l-10.223-.047 5.182 9.083zm5.327 9.104l-5.327-9.104-5.041 9.036zm-5.453 9.015l-4.915-9.083-5.326 9.027zm-5.142 9.015l5.142-9.015-10.241-.056zm10.595-18.03l-5.453 9.015 10.175.089z"/><path d="M162.459 154.444l5.453-9.015-10.368-.068zm-20.496-.08l5.042 9.066 5.213-9.042zm-5.022-9.064l5.022 9.064 5.264-9.046z"/><path d="M141.963 154.364l10.255.024-4.991-9.07zm0 0l-5.022-9.064-5.228 9.061zm-5.226 9.063l5.226-9.063-10.25-.003zm5.226-9.063l-5.226 9.063 10.268.003zm25.949-99.793l4.812 9.041 5.658-9.131z"/><path d="M167.912 54.571l10.47-.09-5.748-9.014zm10.47-.09l4.262 9.072 6.409-9.149zm13.626 9.031l-9.364.041 6.424 9.093z"/><path d="M182.644 63.553l9.364-.041-2.955-9.108zm0 0l-4.227 9.128 10.651-.035z"/><path d="M182.644 63.553l-9.92.059 5.693 9.069z"/><path d="M172.724 63.612l9.92-.059-4.262-9.072zm-30.558 54.517l-5.131 9.054 10.285.018zM192.01 100l-2.94-9.117-6.419 9.117zm0-18.241l-2.94 9.124 10.93-.008z"/><path d="M189.07 90.883l2.94 9.117 7.99-9.125zm0 0l2.94-9.124-9.36.018z"/><path d="M178.423 90.894l10.647-.011-6.42-9.106z"/><path d="M189.07 90.883l-10.647.011 4.228 9.106zm-88.186-63.472l5.18 9.11 5.003-9.087zm10.183.023l-5.003 9.087 10.211.021zm-5.003 9.087L95.862 36.5l5.161 9.096z"/><path d="M106.064 36.521l-5.18-9.11-5.022 9.089zm5.18 9.093l-5.18-9.093-5.041 9.075z"/><path d="M106.064 36.521l5.18 9.093 5.031-9.072zM95.959 54.666l10.228.015-5.164-9.085zm10.228.015l-10.228-.015 5.147 9.078z"/><path d="M106.187 54.681l5.057-9.067-10.221-.018zm5.057-9.067l-5.057 9.067 10.238.013zm-5.057 9.067l5.158 9.074 5.08-9.061zm5.158 9.074l-5.158-9.074-5.081 9.063zm10.248.007l5.17 9.061 5.085-9.06z"/><path d="M126.763 72.823l-5.17-9.061-5.09 9.059z"/><path d="M121.593 63.762l-10.248-.007 5.158 9.066z"/><path d="M111.345 63.755l10.248.007-5.168-9.068zm15.152-27.194l4.954-9.079-10.196-.023z"/><path d="M116.275 36.542l10.222.019-5.242-9.102zm25.688 9.094l10.255-.024-5.213-9.042zm10.255-.024l-10.255.024 5.264 9.046zM110.807 9.176l10.104.019L115.693 0z"/><path d="M105.635 0l5.172 9.176L115.693 0zm5.172 9.176l5.219 9.154 4.885-9.135z"/><path d="M100.691 9.16l10.116.016L105.635 0zM80.65 63.723l-10.22-.008 5.121 9.077zm5.128 9.076l-5.128-9.076-5.099 9.069z"/><path d="M80.65 63.723l-5.127-9.081-5.093 9.073z"/><path d="M80.65 63.723l5.088-9.07-10.215-.011zm-.047-18.158l5.135 9.088 5.072-9.074z"/><path d="M85.666 36.483l-5.063 9.082 10.207.014z"/><path d="M80.603 45.565l5.063-9.082-10.193-.014zm5.135 9.088l-5.135-9.088-5.08 9.077z"/><path d="M80.603 45.565L70.4 45.554l5.123 9.088z"/><path d="M70.4 45.554l10.203.011-5.13-9.096zM60.175 27.358l10.176.006-5.11-9.113zM50 27.355l10.175.003-5.094-9.111z"/><path d="M60.175 27.358l5.066-9.107-10.16-.004z"/><path d="M55.094 36.455l5.081-9.097L50 27.355zm81.941 36.362l-10.272.006 5.144 9.057zm-10.272.006l10.272-.006-5.187-9.054zm10.272-.006l5.073-9.066-10.26.012zm5.073-9.066l-5.073 9.066 10.285-.018zm-5.073 9.066l5.131 9.054 5.154-9.072z"/><path d="M142.166 81.871l-5.131-9.054-5.128 9.063zm-5.097 9.067l-10.272.003 5.125 9.059zM142.18 100l-5.111-9.062-5.147 9.062z"/><path d="M126.797 90.941l10.272-.003-5.162-9.058zm20.553-.01l-10.281.007L142.18 100zm-5.184-9.06l-5.097 9.067 10.281-.007z"/><path d="M137.069 90.938l5.097-9.067-10.259.009zm15.343-9.084l-5.062 9.077 10.299-.011zm10.21-.025l-10.21.025 5.237 9.066zm-10.21.025l5.214-9.086-10.306.031z"/><path d="M157.626 72.768l-5.214 9.086 10.21-.025zm-5.214 9.086l-10.246.017 5.184 9.06z"/><path d="M142.166 81.871l10.246-.017-5.092-9.055zm-71.815 90.765l5.05 9.105 5.126-9.117zm10.176-.012l-5.126 9.117 10.158-.012zm-5.126 9.117l5.03 9.12 5.128-9.132zm0 0l-5.111 9.126 10.141-.006zm-30.482.012l-5.094-9.111-5.066 9.107zm-5.065 9.118l5.065-9.118-10.16-.004zM50 172.645l-5.081 9.108h10.162z"/><path d="M44.919 181.753L50 172.645l-10.175-.003zm0 0L50 190.872l5.081-9.119zM50 190.872l-5.081-9.119-5.065 9.118zm20.29-.005l-10.144.004L65.199 200zm-10.144.004L55.067 200h10.132z"/><path d="M60.146 190.871L50 190.872 55.067 200z"/><path d="M50 190.872l10.146-.001-5.065-9.118zm0-18.227l5.094-9.1H44.906zm5.094-9.1L50 154.455l-5.094 9.09zm0 0l5.105-9.093-10.199.003z"/><path d="M60.199 154.452l-5.105 9.093 10.189-.005zm-.024 18.19l-5.081-9.097-5.094 9.1zm-5.081-9.097l5.081 9.097 5.108-9.102zM-72.327 27.409l5.183-8.984-10.547-.06zm5.183-8.984l-5.183 8.984 10.213.071z"/><path d="M-72.327 27.409l4.622 9.062 5.591-8.991zm-10.08-.127l10.08.127-5.364-9.044zm35.18 27.4l-10.317-.043 5.182 9.083zm0 0l-5.135 9.04 10.254.029zM-61.216 9.333l10.064-.045L-55.319 0z"/><path d="M-55.319 0l4.167 9.288L-45.557 0zm-1.477 18.43l5.644-9.142-10.064.045zM-.691 9.16l-5.18 9.147 10.155-.02z"/><path d="M4.284 18.287l-10.155.02 4.987 9.104zm-10.155.02l-5.196 9.127 10.183-.023zm0 0l5.18-9.147-10.116.016z"/><path d="M-16.026 18.33l10.155-.023-4.936-9.131zm10.155-.023l-10.155.023 4.959 9.104zm81.344 145.224l-5.073-9.085-5.117 9.094zm-5.122 9.105l5.122-9.105-10.19.009zm5.122-9.105l-5.122 9.105 10.176-.012z"/><path d="M85.666 163.517l-10.193.014 5.054 9.093z"/><path d="M80.603 154.435l-5.13 9.096 10.193-.014z"/><path d="M75.473 163.531l5.13-9.096-10.203.011zm30.807-72.592L101.158 100h10.249zM101.158 100l5.122-9.061-10.246-.002zm0 0l5.122 9.061 5.127-9.061z"/><path d="M101.158 100l-5.124 9.063 10.246-.002zm5.122 9.061l-5.134 9.064 10.247-.005zm-5.134 9.064l5.107 9.06 5.14-9.065zm-5.134 9.068l5.134-9.068-10.24.005z"/><path d="M101.146 118.125l-5.134 9.068 10.241-.008zm0 0l-5.112-9.062-5.128 9.067z"/><path d="M96.034 109.063l5.112 9.062 5.134-9.064zM85.796 90.934l5.11-9.064-10.233-.005zm5.11-9.064l-5.11 9.064 10.238.003z"/><path d="M90.906 81.87l-5.128-9.071-5.105 9.066z"/><path d="M90.906 81.87l5.106-9.063-10.234-.008zm0 0l10.24.005-5.134-9.068zm10.24.005l-10.24-.005 5.128 9.067zm-5.134-9.068l10.241.008-5.147-9.071zm15.333-9.052l-5.092 9.06 10.25.006zm-5.092 9.06l5.092-9.06-10.239-.011z"/><path d="M101.146 81.875l5.107-9.06-10.241-.008zM70.45 100h10.231l-5.117-9.068z"/><path d="M80.681 100l5.115-9.066-10.232-.002zm-5.117 9.068L80.681 100H70.45zM80.681 100l-5.117 9.068 10.232-.002zm-20.459 18.141l5.114-9.071-10.224.001zm5.114-9.071l-5.114 9.071 10.224-.002z"/><path d="M75.564 109.068l-10.228.002 5.11 9.069z"/><path d="M65.336 109.07l10.228-.002L70.45 100zm5.094-45.355l-5.101 9.072 10.222.005zM50 63.709l5.104-9.079H44.896zM50 100l-5.112 9.071h10.224zm15.336-9.07L70.45 100l5.114-9.068zm-.024 54.436l-5.098-9.077-5.11 9.081zm-5.098-9.077L50 136.291l5.104 9.079zM50 136.291l10.214-.002-5.105-9.074zm20.43-.006l-10.216.004 5.098 9.077zm10.22-.008l5.088 9.07 5.136-9.08zm5.088 9.07l-5.088-9.07-5.127 9.081zm-5.088-9.07l-10.22.008 5.093 9.073z"/><path d="M70.43 136.285l10.22-.008-5.099-9.069z"/><path d="M80.65 136.277l5.128-9.076-10.227.007zm5.128-9.076l-5.128 9.076 10.224-.01zm-10.214-18.133l5.109 9.067 5.123-9.069zm10.232-.002l-5.123 9.069 10.233-.005zm-10.245 18.142l5.122-9.073-10.227.004z"/><path d="M80.673 118.135l-5.109-9.067-5.118 9.071zm0 0l5.105 9.066 5.128-9.071z"/><path d="M85.778 127.201l-5.105-9.066-5.122 9.073zm-56.224-9.062l-5.118-9.071-5.109 9.067zm0 0l-10.227-.004 5.122 9.073zm-5.118-9.071l5.118 9.071 5.11-9.069z"/><path d="M29.554 118.139l10.224.002-5.114-9.071zm0 0l5.117 9.074 5.107-9.072z"/><path d="M34.671 127.213l-5.117-9.074-5.105 9.069zM50 136.291l-10.214-.002 5.11 9.081zm-10.214-.002l-10.216-.004 5.118 9.081zm5.11 9.081l-5.11-9.081-5.098 9.077z"/><path d="M39.786 136.289l-5.115-9.076-5.101 9.072zm138.637-27.183l10.647.011-6.419-9.117z"/><path d="M172.746 100l5.677 9.106 4.228-9.106zm5.677 9.106l4.227 9.117 6.42-9.106zm-10.436-.013l10.436.013-5.677-9.106zm21.081 18.261l-10.651-.035 4.227 9.128zm0 0l10.932.023-7.99-9.136z"/><path d="M182.65 118.223l6.418 9.131 2.942-9.113z"/><path d="M178.417 127.319l10.651.035-6.418-9.131zm10.651.035l2.94 9.134 7.992-9.111z"/><path d="M192.008 136.488l-2.94-9.134-6.424 9.093zm-13.626 9.031l-10.47-.09 4.722 9.104zm-11.238 36.056l-10.348-.005 4.42 9.097zm4.123 9.046l-4.123-9.046-5.928 9.092zm-13.641-63.389l-5.214-9.086-5.092 9.055zm4.996-9.061l-4.996 9.061 10.348.042zm-10.26 18.107l5.264-9.046-10.306-.031z"/><path d="M152.412 118.146l5.214 9.086 4.996-9.061z"/><path d="M162.585 136.325l-4.959-9.093-5.264 9.046z"/><path d="M157.626 127.232l4.959 9.093 5.389-9.051zm-.082-72.593l-5.326-9.027-4.991 9.07zm-30.747 54.42l5.11 9.061 5.162-9.058z"/><path d="M131.907 118.12l-5.11-9.061-5.149 9.059zm0 0l10.259.009-5.097-9.067zm-5.144 9.057l5.144-9.057-10.259-.002z"/><path d="M137.035 127.183l-5.128-9.063-5.144 9.057zm-5.128-9.063l5.128 9.063 5.131-9.054zm10.201 18.129l-5.167 9.051 10.286.018zm0 0l10.254.029-5.042-9.077z"/><path d="M152.362 136.278l-10.254-.029 5.119 9.069zm-15.327-9.095l5.073 9.066 5.212-9.048zm-15.442-63.421l5.083-9.06-10.251-.008zm5.083-9.06l-5.083 9.06 10.255.001zm10.061-18.129l4.922-9.074-10.208-.017zm-10.24-.012l10.24.012-5.286-9.091zm15.162-9.062l-4.922 9.074 10.268-.003zm-4.922 9.074l-10.24-.012 5.216 9.078zm5.226 9.063l-5.226-9.063-5.024 9.066z"/><path d="M136.737 36.573l5.226 9.063 5.042-9.066zm-35.853-9.162l4.987-9.104-10.155-.02zm4.987-9.104l-4.987 9.104 10.183.023zm10.155.023l-10.155-.023 5.196 9.127zm-10.155-.023l-5.18-9.147-4.975 9.127zm0 0l4.936-9.131-10.116-.016zm4.936-9.131l-4.936 9.131 10.155.023zm-14.848 45.49l-5.085 9.067 10.232.011zm.053 18.141l-5.138-9.074-5.096 9.066zm-5.138-9.074l5.138 9.074 5.094-9.063zm-5.136-9.08l5.136 9.08 5.085-9.067z"/><path d="M80.65 63.723l10.224.01-5.136-9.08zm10.224.01l-10.224-.01 5.128 9.076zM70.351 27.364l-5.068 9.096 10.19.009zm.049 18.19l-5.117-9.094-5.084 9.088z"/><path d="M65.283 36.46l5.117 9.094 5.073-9.085zm0 0l-10.189-.005 5.105 9.093z"/><path d="M65.283 36.46l-5.108-9.102-5.081 9.097z"/><path d="M60.175 27.358l5.108 9.102 5.068-9.096zm5.066 154.391l10.16-.008-5.05-9.105zm0 0l-5.066-9.107-5.094 9.111z"/><path d="M60.175 172.642l5.066 9.107 5.11-9.113zm15.226 9.099l-10.16.008 5.049 9.118z"/><path d="M65.241 181.749l-5.095 9.122 10.144-.004z"/><path d="M60.146 190.871l5.095-9.122-10.16.004zM-72.634 45.467l-5.59-9.116-4.382 8.997z"/><path d="M-82.606 45.348l4.382-8.997-10.753-.169z"/><path d="M-67.705 36.471l-10.519-.12 5.59 9.116zm-10.519-.12l-4.183-9.069-6.57 8.9zm0 0l5.897-8.942-10.08-.127z"/><path d="M-72.327 27.409l-5.897 8.942 10.519.12zm40.876.073l4.954 9.079 5.242-9.102zm0 0l-4.903-9.097-5.305 9.114zm5.266-9.125l-5.266 9.125 10.196-.023z"/><path d="M-36.354 18.385l4.903 9.097 5.266-9.125zm4.903 9.097l-5.286 9.091 10.24-.012z"/><path d="M-36.737 36.573l5.286-9.091-10.208.017zm5.024 9.066l5.037 9.063 5.203-9.072zm5.216-9.078l-5.216 9.078 10.24-.009zm-5.216 9.078l-5.024-9.066-5.226 9.063zm-5.024-9.066l5.024 9.066 5.216-9.078zm-15.145-9.07l4.877 9.067 5.346-9.071zm4.877 9.067l-4.877-9.067-5.435 9.038zm10.268.003l-10.268-.003 5.042 9.066z"/><path d="M-47.005 36.57l10.268.003-4.922-9.074zm5.924-27.319l10.079-.031L-35.675 0z"/><path d="M-41.081 9.251L-35.675 0h-9.882zm0 0l4.727 9.134 5.352-9.165zm-10.071.037l10.071-.037L-45.557 0zm172.8 72.594l-10.255-.002 5.141 9.061z"/><path d="M111.393 81.88l-5.113 9.059 10.254.002zm0 0l10.255.002-5.145-9.061z"/><path d="M111.393 81.88l-10.247-.005 5.134 9.064z"/><path d="M111.393 81.88l-5.14-9.065-5.107 9.06z"/><path d="M106.253 72.815l5.14 9.065 5.11-9.059zM85.796 90.934l5.12 9.066 5.118-9.063z"/><path d="M90.916 100h10.242l-5.124-9.063zm5.118 9.063L90.916 100l-5.12 9.066z"/><path d="M101.158 100H90.916l5.118 9.063zm-10.242 0H80.681l5.115 9.066zm-10.235 0h10.235l-5.12-9.066zm-51.131 0l5.114-9.07-10.228.002zm5.121-27.213l-5.101-9.072-5.121 9.077zm35.775 9.074l10.227.004-5.122-9.073z"/><path d="M80.673 81.865l-10.227-.004 5.118 9.071z"/><path d="M65.329 72.787l5.117 9.074 5.105-9.069zm5.117 9.074l-5.11 9.069 10.228.002zm-5.117 45.352l-5.107-9.072-5.113 9.074zm-5.107-9.072l5.107 9.072 5.117-9.074z"/><path d="M65.329 127.213l10.222-.005-5.105-9.069zm0 0l5.101 9.072 5.121-9.077z"/><path d="M65.329 127.213l-5.115 9.076 10.216-.004z"/><path d="M60.214 136.289l5.115-9.076-10.22.002zm-15.323-9.074L50 136.291l5.109-9.076zm-10.22-.002l10.22.002-5.113-9.074zM50 118.142l-5.109 9.073h10.218z"/><path d="M44.891 127.215L50 118.142l-10.222-.001z"/><path d="M39.786 136.289l5.105-9.074-10.22-.002zm5.105-9.074l-5.105 9.074 10.214.002zm127.852-9.016l-10.121-.028 5.352 9.103zm5.674 9.12l-5.674-9.12-4.769 9.075z"/><path d="M172.743 118.199l5.674 9.12 4.233-9.096zm0 0l-4.756-9.106-5.365 9.078zm0 0l5.68-9.093-10.436-.013z"/><path d="M178.423 109.106l-5.68 9.093 9.907.024zm10.63 36.49l2.955-9.108-9.364-.041zm2.955-9.108l-2.955 9.108 10.947.035zm-2.955 9.108l2.949 9.147 7.998-9.112z"/><path d="M178.382 145.519l10.671.077-6.409-9.149zm-5.658-9.131l5.693-9.069-10.443-.045zm5.693-9.069l-5.693 9.069 9.92.059z"/><path d="M162.585 136.325l10.139.063-4.75-9.114zm10.139.063l-10.139-.063 5.327 9.104zm5.658 9.131l-5.658-9.131-4.812 9.041z"/><path d="M172.724 136.388l5.658 9.131 4.262-9.072zm9.683 36.33l6.179 9.063 3.408-8.834z"/><path d="M188.977 163.818l-6.57 8.9 9.587.229zm-6.57 8.9l-4.183-9.069-5.897 8.942z"/><path d="M178.224 163.649l4.183 9.069 6.57-8.9zm-15.765-9.205l5.246 9.085 4.929-8.996z"/><path d="M167.705 163.529l-5.246-9.085-5.142 9.015zm0 0l10.519.12-5.59-9.116zm10.519.12l-10.519-.12 4.622 9.062zM162.459 45.556l5.246-9.085-10.388.07zm5.246-9.085l-5.246 9.085 10.175-.089zm-15.487 9.141l10.241-.056-5.142-9.015zm10.241-.056l5.453 9.015 4.722-9.104z"/><path d="M162.459 45.556l-4.915 9.083 10.368-.068z"/><path d="M157.544 54.639l4.915-9.083-10.241.056zm-5.182 9.083l-10.254.029 5.212 9.048zm-10.254.029l10.254-.029-5.135-9.04zm15.518 9.017l-5.264-9.046-5.042 9.077z"/><path d="M152.362 63.722l5.182-9.083-10.317.043zM136.941 145.3l-5.093-9.063-5.172 9.061zm-5.093-9.063l-10.255.001 5.083 9.06zm0 0l-5.085-9.06-5.17 9.061zm0 0l5.187-9.054-10.272-.006z"/><path d="M131.848 136.237l10.26.012-5.073-9.066zm10.26.012l-10.26-.012 5.093 9.063zM136.941 54.7l5.167 9.051 5.119-9.069z"/><path d="M142.108 63.751l-5.167-9.051-5.093 9.063z"/><path d="M136.941 54.7l5.022-9.064-10.25.003zm5.022-9.064l-5.022 9.064 10.286-.018z"/><path d="M126.676 54.702l10.265-.002-5.228-9.061zm10.265-.002l-10.265.002 5.172 9.061zm-15.468-9.07l-10.229-.016 5.181 9.08zm-10.229-.016l10.229.016-5.198-9.088z"/><path d="M126.497 36.561l-5.024 9.069 10.24.009z"/><path d="M121.473 45.63l5.024-9.069-10.222-.019z"/><path d="M126.676 54.702l-5.203-9.072-5.048 9.064z"/><path d="M121.473 45.63l5.203 9.072 5.037-9.063zm-168.7 9.052l10.286.018-5.022-9.064z"/><path d="M-31.848 63.763l-5.093-9.063-5.167 9.051z"/><path d="M-36.941 54.7l5.093 9.063 5.172-9.061zm0 0l-10.286-.018 5.119 9.069zm0 0l5.228-9.061-10.25-.003z"/><path d="M-31.713 45.639l-5.228 9.061 10.265.002zm-15.514 9.043l-4.991-9.07-5.326 9.027z"/><path d="M-57.544 54.639l5.326-9.027-10.241-.056z"/><path d="M-52.218 45.612l-5.099-9.071-5.142 9.015zm0 0l4.991 9.07 5.264-9.046z"/><path d="M-47.005 36.57l-5.213 9.042 10.255.024z"/><path d="M-52.218 45.612l5.213-9.042-10.312-.029zm15.864-27.227l-10.195.027 4.89 9.087z"/><path d="M-46.549 18.412l-5.333 9.091 10.223-.004z"/><path d="M-51.882 27.503l5.333-9.091-10.247.018z"/><path d="M-46.549 18.412l-4.603-9.124-5.644 9.142z"/><path d="M-46.549 18.412l5.468-9.161-10.071.037z"/><path d="M-41.081 9.251l-5.468 9.161 10.195-.027zM55.104 54.63l5.11 9.081 5.098-9.077zm5.11 9.081l10.216.004-5.118-9.081zm0 0l5.115 9.076 5.101-9.072zM50 63.709l10.214.002-5.11-9.081z"/><path d="M55.109 72.785l5.105-9.074L50 63.709z"/><path d="M60.214 63.711l-5.105 9.074 10.22.002zm-15.326 45.36L39.776 100l-5.112 9.07z"/><path d="M39.776 100H29.55l5.114 9.07zM50 100H39.776l5.112 9.071zm-10.224 0l-5.112-9.07L29.55 100zM19.327 81.865l10.227-.004-5.105-9.069zm10.227-.004l-10.227.004 5.109 9.067z"/><path d="M34.664 90.93l-5.11-9.069-5.118 9.071z"/><path d="M29.554 81.861l5.11 9.069 5.114-9.071z"/><path d="M34.671 72.787l-5.117 9.074 10.224-.002z"/><path d="M29.554 81.861l5.117-9.074-10.222.005zm.016-18.146l10.216-.004-5.098-9.077zm5.118-9.081l5.098 9.077 5.11-9.081zm5.098 9.077L50 63.709l-5.104-9.079zm-5.115 9.076l5.115-9.076-10.216.004zM60.224 100l5.112 9.07L70.45 100z"/><path d="M65.336 109.07L60.224 100l-5.112 9.071z"/><path d="M60.224 100H50l5.112 9.071zm5.112-9.07L60.224 100H70.45z"/><path d="M55.112 90.929L60.224 100l5.112-9.07zM60.224 100l-5.112-9.071L50 100z"/><path d="M60.222 81.859l-5.11 9.07 10.224.001zm-5.113-9.074l5.113 9.074 5.107-9.072z"/><path d="M60.222 81.859l-5.113-9.074L50 81.858zm-5.11 9.07l5.11-9.07L50 81.858z"/><path d="M70.446 81.861l-10.224-.002 5.114 9.071zm-10.224-.002l10.224.002-5.117-9.074zm122.384 72.793l-4.382 8.997 10.753.169zm0 0l-4.224-9.133-5.748 9.014zm9.396.091l-9.396-.091 6.371 9.166z"/><path d="M178.224 163.649l4.382-8.997-9.972-.119zm4.382-8.997l6.447-9.056-10.671-.077zm6.447-9.056l-6.447 9.056 9.396.091zm-21.909 35.979l10.547.06-5.364-9.044zm10.547.06l-6.424 8.986 9.992-.019z"/><path d="M188.586 181.781l-10.895-.146 3.568 8.967zm-10.895-.146l-10.547-.06 4.123 9.046zm0 0l4.716-8.917-10.08-.127zm4.716-8.917l-4.716 8.917 10.895.146zm-20.293-.198l-10.232-.023 4.914 9.073z"/><path d="M167.144 181.575l-5.03-9.055-5.318 9.05z"/><path d="M151.882 172.497l10.232.023-4.797-9.061zm10.232.023l5.03 9.055 5.183-8.984zm5.591-8.991l-5.591 8.991 10.213.071z"/><path d="M162.114 172.52l5.591-8.991-10.388-.07zm.471-108.845l-4.959 9.093 10.348-.042z"/><path d="M172.724 63.612l-10.139.063 5.389 9.051zm-4.812-9.041l-5.327 9.104 10.139-.063z"/><path d="M157.544 54.639l5.041 9.036 5.327-9.104z"/><path d="M152.362 63.722l10.223-.047-5.041-9.036z"/><path d="M162.585 63.675l-10.223.047 5.264 9.046zM39.778 81.859l5.11 9.07L50 81.858zm15.334 9.07H44.888L50 100z"/><path d="M34.664 90.93l10.224-.001-5.11-9.07z"/><path d="M44.888 90.929h10.224L50 81.858zM39.776 100l5.112-9.071-10.224.001z"/><path d="M44.888 90.929L39.776 100H50zm10.221-18.144H44.891L50 81.858z"/><path d="M44.891 72.785l-5.113 9.074L50 81.858zm0 0h10.218L50 63.709z"/><path d="M44.891 72.785l-10.22.002 5.107 9.072z"/><path d="M44.891 72.785l-5.105-9.074-5.115 9.076zm-5.105-9.074l5.105 9.074L50 63.709z"/></svg>