<svg xmlns="http://www.w3.org/2000/svg" viewBox="-150 0 300 300"><style>path{fill:none;stroke:#000;stroke-width:1;stroke-linejoin:bevel}</style><path d="M-150 196.209v30.869l24.938-16.591zM-150 300h42.644l-10.599-28.584zM-117.955 271.416l34.304 3.007-12.354-24.782z"/><path d="M-117.955 271.416L-107.356 300l23.705-25.577zM-150 300l32.045-28.584L-150 261.239z"/><path d="M-107.356 300h36.272l-12.567-25.577zM110.01 300l-22.379-27.949L75.439 300z"/><path d="M110.01 300l9.176-31.434-31.555 3.485zM-19.339 23.437l26.784 2.619L-4.301 0zM-86.921 0l-26.785 29.143 33.971-2.369z"/><path d="M-86.921 0l7.186 26.774L-58.697 0zM-11.195 42.232l18.64-16.176-26.784-2.619zM-150 39.957l29.499 16.638 6.795-27.452z"/><path d="M-120.501 56.595l29.249-6.645-22.454-20.807zM-91.252 49.95l-29.249 6.645 26.281 16.597zM-120.501 56.595l.801 23.161 25.48-6.564z"/><path d="M-150 76.342l30.3 3.414-.801-23.161z"/><path d="M-150 76.342l29.499-19.747L-150 39.957zM-125.062 210.487L-150 227.078l27.606 13.077z"/><path d="M-122.394 240.155L-150 227.078v34.161z"/><path d="M-150 261.239l32.045 10.177-4.439-31.261zM60.719 233.016l19.964-5.348-14.122-13.62zM-83.651 274.423l31.377-1.23-17.36-20.125z"/><path d="M-83.651 274.423l14.017-21.355-26.371-3.427zM-83.651 274.423L-71.084 300l18.81-26.807zM17.066 300h27.607l-14.146-26.753zM57.9 274.123L75.439 300l12.192-27.949zM-30.785 236.001l-17.325 12.994 17.51 6.949z"/><path d="M-30.785 236.001l.185 19.943 14.635-15.794zM-48.11 248.995l-21.524 4.073 17.36 20.125z"/><path d="M-30.6 255.944l-17.51-6.949-4.164 24.198zM150 165.592l-23.838 14.981 23.838 14.1zM125.178 152.304l.984 28.269L150 165.592z"/><path d="M125.178 152.304L150 165.592v-27.761zM57.9 274.123L44.673 300h30.766zM99.452 55.939l-26.344-7.33 9.1 21.298z"/><path d="M73.108 48.609l26.344 7.33-9.069-27.162zM99.452 55.939l23.439 10.018-2.036-33.545zM124.652 95.279L101.768 84.58l5.875 26.164zM122.891 65.957L150 41.935l-29.145-9.523zM122.891 65.957L150 77.08V41.935z"/><path d="M120.855 32.412L111.886 0 90.383 28.777zM101.768 84.58l21.123-18.623-23.439-10.018z"/><path d="M124.652 95.279L150 77.08l-27.109-11.123zM124.652 95.279L150 108.285V77.08zM-43.955 229.85l10.238-11.733-17.493-1.25z"/><path d="M-51.21 216.867l17.493 1.25-8.938-11.073zM-81.069 231.081l11.435 21.987 8.318-20.412zM-48.11 248.995l4.155-19.145-17.361 2.806zM-150 167.519l24.02 15.251 1.106-25.526zM-125.98 182.77L-150 196.209l24.938 14.278z"/><path d="M-125.98 182.77L-150 167.519v28.69zM-113.706 29.143L-116.713 0H-150z"/><path d="M-86.921 0h-29.792l3.007 29.143zM-113.706 29.143L-150 0v39.957zM-19.339 23.437L-31.141 0l-17.42 24.215z"/><path d="M-31.141 0l11.802 23.437L-4.301 0zM-48.561 24.215L-31.141 0h-27.556zM-83.812 93.983l11.054-13.589-21.462-7.202zM-102.819 95.51l8.599-22.318-25.48 6.564zM-83.812 93.983l-6.871 17.814 15.332.106z"/><path d="M-58.697 0l-21.038 26.774 31.174-2.559zM-91.252 49.95l11.517-23.176-33.971 2.369zM-48.561 24.215l-31.174 2.559 17.416 16.79zM-72.758 80.394l1.77-17.979-23.232 10.777zM-70.988 62.415L-91.252 49.95l-2.968 23.242zM-70.988 62.415l17.27 11.043 6.248-16.441zM-102.819 95.51l19.007-1.527-10.408-20.791zM-122.394 240.155l4.439 31.261 21.95-21.775zM-125.062 210.487l2.668 29.668 19.787-17.188z"/><path d="M-96.005 249.641l-6.602-26.674-19.787 17.188zM30.527 273.247L44.673 300 57.9 274.123zM-20.491 223.592l4.526 16.558 9.163-14.249zM-11.474 300h28.54L3.469 276.775zM-11.474 300l-12.963-23.499L-40.757 300zM-40.757 300l-11.517-26.807L-71.084 300zM-52.274 273.193l27.837 3.308-6.163-20.557z"/><path d="M-52.274 273.193L-40.757 300l16.32-23.499zM62.528 138.862l14.708-5.068-10.461-5.898zM62.528 138.862l-.82 11.263 11.988-3.178zM33.044 24.739L48.629 0H21.171z"/><path d="M33.044 24.739L21.171 0 7.445 26.056z"/><path d="M7.445 26.056L21.171 0H-4.301zM-11.195 42.232L7.761 47.82l-.316-21.764zM-47.47 57.017l12.34-16.246-27.189 2.793zM60.719 233.016l11.137 17.824 8.827-23.172zM87.631 272.051L71.856 250.84 57.9 274.123zM102.004 154.609l-17.516 4.006 7.319 15.372zM125.178 152.304l-15.962 19.093 16.946 9.176zM89.395 142.433l-4.907 16.182 17.516-4.006zM123.319 206.875L150 224.883v-30.21zM97.109 245.171l4.357-27.033-20.783 9.53z"/><path d="M80.683 227.668l20.783-9.53-17.289-12.134zM150 137.831v-29.546l-23.232 16.041zM125.178 152.304l-23.174 2.305 7.212 16.788z"/><path d="M125.178 152.304l-16.914-17.005-6.26 19.31zM92.525 124.638l-15.289 9.156 12.159 8.639z"/><path d="M108.264 135.299l-18.869 7.134 12.609 12.176zM89.395 142.433l-15.699 4.514 10.792 11.668z"/><path d="M73.696 146.947l15.699-4.514-12.159-8.639zM120.855 32.412l-30.472-3.635 9.069 27.162zM78.725 0l11.658 28.777L111.886 0z"/><path d="M150 0h-38.114l8.969 32.412zM150 0l-29.145 32.412L150 41.935zM124.652 95.279l-1.761-29.322-21.123 18.623zM48.629 0l12.596 25.485L78.725 0z"/><path d="M61.225 25.485L48.629 0 33.044 24.739zM61.225 25.485l29.158 3.292L78.725 0z"/><path d="M61.225 25.485l11.883 23.124 17.275-19.832zM-57.384 203.273l6.174 13.594 8.555-9.823zM-27.563 195.248l7.152-5.143-6.085-3.732zM-51.452 184.547l3.407 10.258 6.829-9.612zM-51.452 184.547l-1.597-9.549-10.128 2.463zM-32.442 181.185l-8.774 4.008 7.397 3.604zM-43.955 229.85l-4.155 19.145 17.325-12.994zM-48.11 248.995l-13.206-16.339-8.318 20.412zM-43.955 229.85l13.17 6.151-2.932-17.884zM-61.316 232.656l17.361-2.806-7.255-12.983zM-70.988 62.415l8.669-18.851-28.933 6.386z"/><path d="M-62.319 43.564l-17.416-16.79-11.517 23.176zM-19.339 23.437l-29.222.778 13.431 16.556z"/><path d="M-48.561 24.215l-13.758 19.349 27.189-2.793zM-127.836 101.965l8.136-22.209-30.3-3.414zM-127.836 101.965l25.017-6.455-16.881-15.754zM-12.462 202.348l-8.835 8.28 10.738 2.573zM-20.388 199.606l6.302-6.868-6.325-2.633zM-7.558 194.361l-6.528-1.623 1.624 9.61z"/><path d="M-7.558 194.361l-4.904 7.987 8.654 1.083zM-21.297 210.628l.806 12.964 9.932-10.391z"/><path d="M-12.462 202.348l1.903 10.853 6.751-9.77zM60.719 233.016l-12.122 19.95 23.259-2.126zM30.527 273.247l18.07-20.281-18.655-3.337zM60.719 233.016l-17.699.268 5.577 19.682zM48.597 252.966l9.303 21.157 13.956-23.283z"/><path d="M30.527 273.247l27.373.876-9.303-21.157zM-9.254 258.08l9.58-17.454-16.291-.476zM-11.474 300l14.943-23.225-27.906-.274z"/><path d="M-24.437 276.501l27.906.274-12.723-18.695zM3.469 276.775L17.066 300l13.461-26.753z"/><path d="M12.186 256.744l-21.44 1.336 12.723 18.695zM7.761 47.82l-18.956-5.588 3.137 17.827zM21.765 63.966l-15.071.461 5.05 12.786zM-72.758 80.394l15.512 7.747 3.528-14.683zM-70.988 62.415l23.518-5.398-14.849-13.453zM119.186 268.566l-22.077-23.395-9.478 26.88z"/><path d="M122.371 236.278l-25.262 8.893 22.077 23.395zM87.631 272.051l9.478-26.88-25.253 5.669z"/><path d="M97.109 245.171l-16.426-17.503-8.827 23.172zM150 300v-40.462l-30.814 9.028z"/><path d="M150 300l-30.814-31.434L110.01 300zM119.186 268.566L150 259.538l-27.629-23.26zM80.683 227.668l3.494-21.664-17.616 8.044zM84.177 206.004l-16.153-8.797-1.463 16.841zM101.466 218.138l21.853-11.263-20.89-13.664zM122.371 236.278L150 224.883l-26.681-18.008zM122.371 236.278L150 259.538v-34.655z"/><path d="M122.371 236.278l-20.905-18.14-4.357 27.033zM125.178 152.304l1.59-27.978-18.504 10.973zM124.652 95.279l2.116 29.047L150 108.285zM150 137.831l-23.232-13.505-1.59 27.978zM25.676 45.264l22.36-1.147-14.992-19.378z"/><path d="M7.445 26.056l18.231 19.208 7.368-20.525zM7.761 47.82l14.004 16.146 3.911-18.702zM-42.655 207.044l12.145-1.774-7.304-8.731zM-62.518 156.862l-10.601-4.902 1.069 14.847zM-53.049 174.998l-6.428-8.522-3.7 10.985zM-101.521 157.728l-4.665 17.797 18.471-2.785z"/><path d="M-101.521 157.728l13.806 15.012 3.234-14.201zM31.469 193.179l5.716-6.437-7.992-2.496zM23.163 197.668l.495-9.389-6.107 3.157zM23.163 197.668l8.306-4.489-7.811-4.9zM17.551 191.436l-6.052 2.07 3.185 7.67zM28.726 230.809l1.216 18.82 13.078-16.345zM48.597 252.966l-5.577-19.682-13.078 16.345zM-6.802 225.901l-9.163 14.249 16.291.476z"/><path d="M.326 240.626l15.058-3.409-8.662-12.652zM-6.802 225.901l13.524-1.336-6.261-11.149zM5.261 202.861l6.208 8.512 3.215-10.197zM.461 213.416l-4.269-9.985-6.751 9.77zM42.971 194.572l11.108-5.074-9.757-6.977zM42.971 194.572l11.711 7.991-.603-13.065zM70.327 159.88l-8.062 10.727 13.425 2.09z"/><path d="M70.327 159.88l5.363 12.817 8.798-14.082zM101.768 84.58l-21.555 5.28 9.773 14.727z"/><path d="M101.768 84.58l-19.56-14.673-1.995 19.953zM66.775 127.896l-3.953-11.476-6.753 11.398zM14.848 90.279l8.258-8.897-11.362-4.169z"/><path d="M33.906 75.017l-10.8 6.365 13.033 6.95z"/><path d="M21.765 63.966l1.341 17.416 10.8-6.365zM-67.907 98.84l-7.444 13.063 13.126 2.315zM101.466 218.138l.963-24.927-18.252 12.793zM101.466 218.138l20.905 18.14.948-29.403zM102.429 193.211l6.787-21.814-17.409 2.59zM102.429 193.211l20.89 13.664 2.843-26.302z"/><path d="M102.429 193.211l23.733-12.638-16.946-9.176zM126.162 180.573l-2.843 26.302L150 194.673zM92.525 124.638l15.118-13.894-17.657-6.157zM126.768 124.326l-19.125-13.582.621 24.555z"/><path d="M126.768 124.326l-2.116-29.047-17.009 15.465z"/><path d="M92.525 124.638l15.739 10.661-.621-24.555zM92.525 124.638l-14.694-6.743-.595 15.899z"/><path d="M92.525 124.638l-3.13 17.795 18.869-7.134zM7.761 47.82l17.915-2.556L7.445 26.056zM21.765 63.966L7.761 47.82 6.694 64.427zM21.765 63.966L11.744 77.213l11.362 4.169zM26.021 93.733l-2.915-12.351-8.258 8.897zM48.528 79.352l16.905-.598-6.967-15.641zM82.208 69.907l-16.775 8.847 14.78 11.106zM80.213 89.86l-14.78-11.106-4.671 14.034zM47.191 94.981l-2.684 12.862 11.284-1.945z"/><path d="M60.762 92.788l-13.571 2.193 8.6 10.917zM-105.867 198.019l-19.195 12.468 22.455 12.48z"/><path d="M-125.98 182.77l.918 27.717 19.195-12.468zM-89.267 189.672l-16.6 8.347 19.246 11.358zM-86.621 209.377l5.552 21.704 12.662-16.034z"/><path d="M-105.867 198.019l3.26 24.948 15.986-13.59zM-81.069 231.081l19.753 1.575-7.091-17.609zM-61.379 190.058l-1.798-12.597-11.495 4.488zM-51.998 159.392l-10.52-2.53 3.041 9.614zM-150 109.883l22.164-7.918L-150 76.342zM-87.869 143.755l-7.998-14.331-13.207 11.649zM5.511 194.661l-6.439.329 6.189 7.871z"/><path d="M5.261 202.861l-4.8 10.555 11.008-2.043zM14.684 201.176l-3.185-7.67-5.988 1.155z"/><path d="M14.684 201.176l-9.173-6.515-.25 8.2zM17.551 191.436l-2.867 9.74 8.479-3.508zM12.186 256.744L.326 240.626l-9.58 17.454zM29.942 249.629l-1.216-18.82-13.342 6.408z"/><path d="M29.942 249.629l-14.558-12.412-3.198 19.527z"/><path d="M12.186 256.744l3.198-19.527-15.058 3.409zM30.527 273.247l-.585-23.618-17.756 7.115z"/><path d="M30.527 273.247l-18.341-16.503-8.717 20.031zM41.558 167.262l9.544-1.182-7.44-5.19zM46.237 173.647l-4.679-6.385-3.454 6.676zM62.265 170.607l3.974 12.737 9.451-10.647zM66.239 183.344l-11.82-5.543-.34 11.697zM71.032 104.264l9.181-14.404-19.451 2.928z"/><path d="M71.032 104.264l18.954.323-9.773-14.727zM46.689 126.836l4.434-9.304-9.548.623z"/><path d="M44.507 107.843l-9.361 3.11 6.429 7.202zM44.507 107.843l6.616 9.689 4.668-11.634zM46.689 126.836l4.643 9.324 4.737-8.342zM11.744 77.213l-5.05-12.786-9.839 11.117zM11.744 77.213l-14.889-1.669 7.192 10.679zM4.047 86.223l10.801 4.056-3.104-13.066zM-35.13 40.771l9.048 15.622 14.887-14.161z"/><path d="M-47.47 57.017l21.388-.624-9.048-15.622zM-53.718 73.458l12.972 11.504 4.773-14.458zM82.306 188.2l20.123 5.011-10.622-19.224zM102.429 193.211L82.306 188.2l1.871 17.804z"/><path d="M75.69 172.697l6.616 15.503 9.501-14.213z"/><path d="M66.239 183.344l16.067 4.856-6.616-15.503zM84.177 206.004L82.306 188.2l-14.282 9.007zM77.831 117.895l12.155-13.308-18.954-.323zM77.831 117.895l-6.799-13.631-8.21 12.156zM36.067 100.389l11.124-5.408-11.052-6.649z"/><path d="M36.067 100.389l.072-12.057-10.118 5.401zM-73.038 198.021l15.654 5.252-3.995-13.215zM-86.621 209.377l-15.986 13.59 21.538 8.114zM-68.407 215.047l11.023-11.774-15.654-5.252zM-68.407 215.047l17.197 1.82-6.174-13.594zM-68.407 215.047l7.091 17.609 10.106-15.789z"/><path d="M-96.005 249.641l14.936-18.56-21.538-8.114z"/><path d="M-81.069 231.081l-14.936 18.56 26.371 3.427zM-68.407 215.047l-4.631-17.026-13.583 11.356zM-74.672 181.949l11.495-4.488-8.873-10.654zM-72.05 166.807l8.873 10.654 3.7-10.985z"/><path d="M-84.481 158.539l-3.234 14.201 15.665-5.933zM-89.267 189.672l1.552-16.932-18.471 2.785zM-57.384 203.273l9.339-8.468-13.334-4.747z"/><path d="M-57.384 203.273l14.729 3.771-5.39-12.239z"/><path d="M-51.452 184.547l-9.927 5.511 13.334 4.747z"/><path d="M-61.379 190.058l9.927-5.511-11.725-7.086zM-37.814 196.539l3.995-7.742-7.397-3.604zM-48.045 194.805l10.231 1.734-3.402-11.346zM-42.655 207.044l4.841-10.505-10.231-1.734zM-27.563 195.248l-10.251 1.291 7.304 8.731zM-37.814 196.539l10.251-1.291-6.256-6.451z"/><path d="M-20.388 199.606l-7.175-4.358-2.947 10.022zM-20.388 199.606l7.926 2.742-1.624-9.61z"/><path d="M-27.563 195.248l7.175 4.358-.023-9.501zM-20.388 199.606l-.909 11.022 8.835-8.28zM-40.743 169.105l-7.923-1.526 4.529 9.058zM-51.998 159.392l-1.038-8.514-9.482 5.984zM-73.004 139.068l12.501-3.648-7.17-9.627zM-127.836 101.965L-150 109.883l22.023 20.422zM-110.337 116.857l7.518-21.347-25.017 6.455zM-102.819 95.51l-7.518 21.347 19.654-5.06zM-80.665 127.238l-7.204 16.517 14.865-4.687z"/><path d="M-87.869 143.755l7.204-16.517-15.202 2.186zM-73.119 151.96l-11.362 6.579 12.431 8.268zM42.552 206.423l12.13-3.86-11.711-7.991zM50.09 218.065l16.471-4.017-11.879-11.485zM50.09 218.065l10.629 14.951 5.842-18.968zM34.152 216.958l-14.588 3.52 9.162 10.331z"/><path d="M50.09 218.065l-7.07 15.219 17.699-.268z"/><path d="M50.09 218.065l-15.938-1.107 8.868 16.326zM23.153 208.625l-8.469-7.449-3.215 10.197z"/><path d="M14.684 201.176l8.469 7.449.01-10.957zM44.772 154.525l7 .607-6.816-7.113z"/><path d="M43.662 160.89l8.11-5.758-7-.607zM44.507 107.843l-2.932 10.312 9.548-.623zM-8.058 60.059l4.913 15.485 9.839-11.117z"/><path d="M7.761 47.82L-8.058 60.059l14.752 4.368zM-8.058 60.059l-18.024-3.666 7.156 14.296zM-3.145 75.544l-4.913-15.485-10.868 10.63zM-35.973 70.504l9.891-14.111-21.388.624z"/><path d="M-53.718 73.458l17.745-2.954-11.497-13.487zM-55.339 104.084l-1.907-15.943-10.661 10.699z"/><path d="M-67.907 98.84l5.682 15.378 6.886-10.134zM-75.351 111.903l7.678 13.89 5.448-11.575zM-57.246 88.141l16.5-3.179-12.972-11.504zM-46.478 95.754l9.921 3.901-4.189-14.693z"/><path d="M-72.758 80.394l19.04-6.936-17.27-11.043zM-46.478 95.754l5.732-10.792-16.5 3.179zM77.236 133.794l.595-15.899-11.056 10.001zM89.986 104.587l-12.155 13.308 14.694 6.743zM62.822 116.42l-7.031-10.522-4.668 11.634zM56.069 127.818l6.753-11.398-11.699 1.112zM-73.038 198.021l-16.229-8.349 2.646 19.705zM-89.267 189.672l14.595-7.723-13.043-9.209z"/><path d="M-73.038 198.021l-1.634-16.072-14.595 7.723z"/><path d="M-74.672 181.949l1.634 16.072 11.659-7.963zM-106.186 175.525l-19.794 7.245 20.113 15.249z"/><path d="M-106.186 175.525l.319 22.494 16.6-8.347zM-41.216 185.193l8.774-4.008-4.281-5.177zM-36.723 176.008l-4.02-6.903-3.394 7.532zM-62.038 145.839l-10.966-6.771-.115 12.892zM-55.929 125.253l9.958-.071-4.655-9.21zM-87.869 143.755l-13.652 13.973 17.04.811z"/><path d="M-124.874 157.244l18.688 18.281 4.665-17.797zM-127.977 130.305L-150 109.883v30.287zM-109.074 141.073l-1.263-24.216-17.64 13.448zM-102.819 95.51l12.136 16.287 6.871-17.814zM-110.337 116.857l14.47 12.567 5.184-17.627zM32.545 202.834l10.007 3.589.419-11.851z"/><path d="M34.152 216.958l8.4-10.535-10.007-3.589zM42.552 206.423l7.538 11.642 4.592-15.502zM32.545 202.834l10.426-8.262-11.502-1.393zM34.152 216.958l-5.426 13.851 14.294 2.475zM34.375 179.04l2.81 7.702 7.137-4.221zM31.469 193.179l-2.276-8.933-5.535 4.033zM35.146 110.953l-7.414-5.951-1.507 8.429z"/><path d="M27.732 105.002l-7.552 4.776 6.045 3.653zM52.918 145.25l-1.146 9.882 9.936-5.007zM61.708 150.125l-9.936 5.007 7.144 5.363zM39.292 128.066l7.397-1.23-5.114-8.681zM-27.145 82.138l13.578-.155-5.359-11.294zM-5.994 89.437l10.041-3.214-7.192-10.679zM-27.145 82.138l-8.828-11.634-4.773 14.458z"/><path d="M-29.205 93.561l2.06-11.423-13.601 2.824zM-36.557 99.655l1.722 11.01 6.67-5.525z"/><path d="M-29.205 93.561l1.04 11.579 7.254-3.908zM-26.496 186.373l-5.946-5.188-1.377 7.612zM-26.496 186.373l-7.323 2.424 6.256 6.451zM-41.216 185.193l4.493-9.185-7.414.629zM-36.557 99.655l-7.403 8.217 9.125 2.793z"/><path d="M-46.478 95.754l2.518 12.118 7.403-8.217zM-150 167.519l25.126-10.275L-150 140.17zM-124.874 157.244l-1.106 25.526 19.794-7.245z"/><path d="M-127.977 130.305L-150 140.17l25.126 17.074zM-109.074 141.073l-15.8 16.171 23.353.484zM11.469 211.373l-4.747 13.192 12.842-4.087zM15.384 237.217l4.18-16.739-12.842 4.087zM15.384 237.217l13.342-6.408-9.162-10.331zM-44.798 154.26l-8.238-3.382 1.038 8.514zM-55.929 125.253l5.303-9.281-11.599-1.754zM-21.155 110.283l-7.01-5.143.885 9.072zM-27.28 114.212l-.885-9.072-6.67 5.525zM-18.269 91.534l12.275-2.097-7.573-7.454zM-3.145 75.544l-15.781-4.855 5.359 11.294zM52.918 145.25l8.79 4.875.82-11.263z"/><path d="M44.956 148.019l6.816 7.113 1.146-9.882z"/><path d="M44.956 148.019l7.962-2.769-8.765-3.938z"/><path d="M44.153 141.312l8.765 3.938-1.586-9.09zM4.047 86.223l-10.041 3.214 10.263 6.637z"/><path d="M-5.994 89.437l2.849-13.893-10.422 6.439zM-3.574 98.087l7.843-2.013-10.263-6.637zM26.021 93.733l-11.173-3.454 5.077 10.547zM26.021 93.733l-6.096 7.093 7.807 4.176zM-43.48 161.597l-1.318-7.337-7.2 5.132z"/><path d="M-48.666 167.579l5.186-5.982-8.518-2.205z"/><path d="M-40.743 169.105l-2.737-7.508-5.186 5.982zM-21.155 110.283l6.613-2.869-6.369-6.182z"/><path d="M-21.155 110.283l.244-9.051-7.254 3.908zM-40.853 117.622l-3.107-9.75-6.666 8.1z"/><path d="M-43.96 107.872l3.107 9.75 6.018-6.957zM-40.853 117.622l-5.118 7.56 8.295.21z"/><path d="M-45.971 125.182l5.118-7.56-9.773-1.65zM-3.574 98.087l-3.959 7.548L-.059 105zM4.269 96.074l7.519 2.974 3.06-8.769z"/><path d="M4.269 96.074l10.579-5.795-10.801-4.056zM13.696 107.135l-1.908-8.087-5.245 6.43zM11.788 99.048l-7.519-2.974 2.274 9.404zM11.788 99.048l8.137 1.778-5.077-10.547z"/><path d="M19.925 100.826l-6.229 6.309 6.484 2.643zM-45.971 125.182l4.623 7.059 3.672-6.849zM-44.892 146.879l1.151-7.451-8.382 2.583zM-44.798 154.26l-.094-7.381-8.144 3.999zM-32.864 119.26l5.584-5.048-7.555-3.547zM-32.864 119.26l-7.989-1.638 3.177 7.77z"/><path d="M-40.853 117.622l7.989 1.638-1.971-8.595zM-12.151 98.638l8.577-.551-2.42-8.65z"/><path d="M-12.151 98.638l6.157-9.201-12.275 2.097zM-7.533 105.635l-4.618-6.997-2.391 8.776z"/><path d="M-12.151 98.638l4.618 6.997 3.959-7.548zM-50.003 133.439l4.032-8.257-9.958.071zM-43.741 139.428l-6.262-5.989-2.12 8.572z"/><path d="M-41.348 132.241l-8.655 1.198 6.262 5.989zM-50.003 133.439l8.655-1.198-4.623-7.059zM-33.717 218.117l13.226 5.475-.806-12.964zM-15.965 240.15l-4.526-16.558-10.294 12.409zM-33.717 218.117l2.932 17.884 10.294-12.409z"/><path d="M-9.254 258.08l-6.711-17.93-14.635 15.794zM-24.437 276.501l15.183-18.421-21.346-2.136zM73.696 146.947l-3.369 12.933 14.161-1.265z"/><path d="M70.327 159.88l3.369-12.933-11.988 3.178zM84.488 158.615l-8.798 14.082 16.117 1.29zM102.004 154.609l-10.197 19.378 17.409-2.59zM82.208 69.907l19.56 14.673-2.316-28.641zM101.768 84.58l-11.782 20.007 17.657 6.157zM-83.812 93.983l15.905 4.857-4.851-18.446zM-83.812 93.983l8.461 17.92 7.444-13.063zM48.036 44.117l13.189-18.632-28.181-.746zM48.036 44.117l25.072 4.492-11.883-23.124zM73.108 48.609l-25.072-4.492 10.43 18.996zM82.208 69.907l-23.742-6.794 6.967 15.641zM73.108 48.609L58.466 63.113l23.742 6.794zM-59.477 166.476l10.811 1.103-3.332-8.187z"/><path d="M-59.477 166.476l6.428 8.522 4.383-7.419zM-10.559 213.201l-9.932 10.391 13.689 2.309zM.326 240.626l6.396-16.061-13.524 1.336zM51.102 166.08l11.163 4.527-3.349-10.112z"/><path d="M58.916 160.495l3.349 10.112 8.062-10.727zM25.676 45.264l13.863 16.053 8.497-17.2z"/><path d="M21.765 63.966l17.774-2.649-13.863-16.053z"/><path d="M21.765 63.966l12.141 11.051 5.633-13.7zM48.528 79.352l9.938-16.239-18.927-1.796z"/><path d="M39.539 61.317l18.927 1.796-10.43-18.996zM60.762 92.788l4.671-14.034-16.905.598zM60.762 92.788L48.528 79.352l-1.337 15.629zM-51.452 184.547l10.236.646-2.921-8.556z"/><path d="M-51.452 184.547l7.315-7.91-8.912-1.639z"/><path d="M-53.049 174.998l8.912 1.639-4.529-9.058zM-3.808 203.431l9.069-.57-6.189-7.871zM-3.808 203.431l2.88-8.441-6.63-.629z"/><path d="M-3.808 203.431l4.269 9.985 4.8-10.555zM44.322 182.521l9.757 6.977.34-11.697z"/><path d="M44.322 182.521l10.097-4.72-8.182-4.154zM66.239 183.344l1.785 13.863 14.282-9.007z"/><path d="M68.024 197.207l-1.785-13.863-12.16 6.154zM62.265 170.607l-11.163-4.527 3.317 11.721z"/><path d="M62.265 170.607l-7.846 7.194 11.82 5.543zM71.032 104.264l-15.241 1.634 7.031 10.522z"/><path d="M71.032 104.264l-10.27-11.476-4.971 13.11zM36.139 88.332l11.052 6.649 1.337-15.629zM33.906 75.017l2.233 13.315 12.389-8.98zM33.906 75.017l14.622 4.335-8.989-18.035zM-74.672 181.949l2.622-15.142-15.665 5.933zM-62.518 156.862l-9.532 9.945 12.573-.331zM-21.297 210.628l.909-11.022-10.122 5.664z"/><path d="M-21.297 210.628l-9.213-5.358-3.207 12.847z"/><path d="M-30.51 205.27l-12.145 1.774 8.938 11.073zM-73.004 139.068l5.331-13.275-12.992 1.445z"/><path d="M-67.673 125.793l-7.678-13.89-5.314 15.335zM-109.074 141.073l-18.903-10.768 3.103 26.939zM-87.869 143.755l-21.205-2.682 7.553 16.655zM-87.869 143.755l14.75 8.205.115-12.892z"/><path d="M-87.869 143.755l3.388 14.784 11.362-6.579zM68.024 197.207l-13.342 5.356 11.879 11.485z"/><path d="M54.682 202.563l13.342-5.356-13.945-7.709zM23.163 197.668l9.382 5.166-1.076-9.655z"/><path d="M23.163 197.668l-.01 10.957 9.392-5.791zM46.237 173.647l8.182 4.154-3.317-11.721zM38.104 173.938l-3.729 5.102 9.947 3.481z"/><path d="M46.237 173.647l4.865-7.567-9.544 1.182z"/><path d="M51.102 166.08l.67-10.948-8.11 5.758zM51.102 166.08l7.814-5.585-7.144-5.363zM41.575 118.155l-10.025-.243 4.252 4.825zM46.689 126.836l9.38.982-4.946-10.286z"/><path d="M39.292 128.066l2.283-9.911-5.773 4.582zM26.021 93.733l10.118-5.401-13.033-6.95zM36.067 100.389l-.921 10.564 9.361-3.11zM36.067 100.389l8.44 7.454 2.684-12.862zM51.332 136.16l1.586 9.09 9.61-6.388zM62.528 138.862l4.247-10.966-10.706-.078zM-11.195 42.232l-14.887 14.161 18.024 3.666zM-35.13 40.771l23.935 1.461-8.144-18.795zM-55.339 104.084l8.861-8.33-10.768-7.613zM-57.246 88.141l-15.512-7.747 4.851 18.446zM66.775 127.896l11.056-10.001-15.009-1.475z"/><path d="M62.528 138.862l-6.459-11.044-4.737 8.342zM-62.038 145.839l1.535-10.419-12.501 3.648zM-62.038 145.839l9.915-3.828-8.38-6.591zM-62.518 156.862l.48-11.023-11.081 6.121zM-62.518 156.862l9.482-5.984-9.002-5.039zM-55.929 125.253l-6.296-11.035-5.448 11.575z"/><path d="M-55.929 125.253l-11.744.54 7.17 9.627zM-127.836 101.965l-.141 28.34 17.64-13.448zM-109.074 141.073l13.207-11.649-14.47-12.567zM-80.665 127.238l5.314-15.335-15.332-.106z"/><path d="M-80.665 127.238l-10.018-15.441-5.184 17.627zM34.152 216.958l15.938 1.107-7.538-11.642zM34.152 216.958l-1.607-14.124-9.392 5.791zM38.104 173.938l6.218 8.583 1.915-8.874zM42.971 194.572l1.351-12.051-7.137 4.221zM34.375 179.04l-5.182 5.206 7.992 2.496z"/><path d="M31.469 193.179l11.502 1.393-5.786-7.83zM35.146 110.953l-8.921 2.478 5.325 4.481zM31.55 117.912l10.025.243-6.429-7.202zM70.327 159.88l-8.619-9.755-2.792 10.37zM62.528 138.862l11.168 8.085 3.54-13.153zM-40.746 84.962l4.189 14.693 7.352-6.094zM-36.557 99.655l8.392 5.485-1.04-11.579zM-50.626 115.972l-4.713-11.888-6.886 10.134zM-50.626 115.972l6.666-8.1-11.379-3.788z"/><path d="M-43.96 107.872l-2.518-12.118-8.861 8.33zM6.722 224.565l4.747-13.192-11.008 2.043zM-6.802 225.901l7.263-12.485-11.02-.215z"/><path d="M11.469 211.373l8.095 9.105 3.589-11.853zM34.152 216.958l-10.999-8.333-3.589 11.853zM42.291 134.621l4.398-7.785-7.397 1.23z"/><path d="M42.291 134.621l9.041 1.539-4.643-9.324zM44.153 141.312l7.179-5.152-9.041-1.539zM-27.145 82.138l-2.06 11.423 10.936-2.027z"/><path d="M-27.145 82.138l8.876 9.396 4.702-9.551zM-18.926 70.689l-7.156-14.296-9.891 14.111zM-18.926 70.689l-17.047-.185 8.828 11.634zM-.059 105l4.328-8.926-7.843 2.013zM-.059 105l6.602.478-2.274-9.404zM26.021 93.733l1.711 11.269 8.335-4.613zM20.18 109.778l7.552-4.776-7.807-4.176z"/><path d="M27.732 105.002l7.414 5.951.921-10.564zM19.925 100.826l-8.137-1.778 1.908 8.087zM-53.036 150.878l.913-8.867-9.915 3.828zM-53.036 150.878l8.144-3.999-7.231-4.868zM-20.911 101.232l2.642-9.698-10.936 2.027zM-20.911 101.232l6.369 6.182 2.391-8.776z"/><path d="M-20.911 101.232l8.76-2.594-6.118-7.104zM-50.003 133.439l-10.5 1.981 8.38 6.591z"/><path d="M-50.003 133.439l-5.926-8.186-4.574 10.167z"/></svg>