<svg xmlns="http://www.w3.org/2000/svg" viewBox="-33.333 -33.333 100 66.667"><style>path{fill:#c8c5bd;stroke:navy;stroke-width:.5;stroke-linejoin:bevel}</style><path d="m-19.116 21.162 1.694-3.024-3.411.021zm25.547-9.08L4.715 9.059 3.018 12.08zM4.715 9.059l1.716 3.023 1.7-3.022zM-10.334 30.26l-1.558 3.073h3.321zm13.478.021 1.667-3.044-3.386-.004zM-.397 12.078l1.723 3.024 1.692-3.022zM4.736 15.105l1.695-3.023-3.413-.002z"/><path d="m1.326 15.102 3.41.003-1.718-3.025zm3.525 18.231-1.707-3.052-1.661 3.052zm-38.184-12.031 2.667 3.023 1.003-3.04zm2.667 3.023-2.667-3.023v3.048zm3.577 5.879-.626 3.129h2.979zm-.626 3.129.626-3.129-3.244-.016zm8.599-12.171 3.436-.012-1.742-3.012z"/><path d="m-15.68 21.15 1.674-3.023-3.416.011zm1.674-3.023-1.674 3.023 3.422-.004zm-16.66-42.452-2.667 3.023 3.67.017z"/><path d="m-33.333-21.302 2.667-3.023-2.667-.025zm15.852 9.201 1.673 3.029 1.742-3.016zm1.673 3.029 3.426.008-1.684-3.024zM9.903-30.285l1.697-3.048H8.224zM-.358-18.127l1.684 3.025 1.723-3.028z"/><path d="m1.326-15.102-1.684-3.025-1.728 3.027zM31.85 33.333h3.362l-1.648-3.055z"/><path d="m30.189 30.281 1.661 3.052 1.714-3.055zm-20.286.004 1.682-3.043-3.387-.002zm28.662 3.048h3.339l-1.6-3.065zm13.208 0h3.193l-1.226-3.108zM37.171 6.037l3.42.001-1.702-3.019zM1.326-15.102l-1.723 3.024 3.415-.002z"/><path d="m-.397-12.078 1.723-3.024-3.412.002zM3-6.038l-3.419.001 1.705 3.018z"/><path d="m-.419-6.037-1.715 3.018h3.42zm1.705 3.018h-3.42L-.426 0zm5.132 9.058-1.703 3.02 3.416.001zm-18.539 21.168 3.39.007-1.76-3.04zm0 0 1.787 3.053 1.603-3.046zm18.607-3.008-1.675 3.038 3.387.003zm-5.16-9.097-3.412-.002 1.728 3.027zM-.397 12.078-2.086 15.1l3.412.002z"/><path d="m-2.086 15.1 1.689-3.022-3.416-.001zm6.801-6.041-3.416-.001 1.719 3.022z"/><path d="m1.299 9.058-1.696 3.02 3.415.002zm1.75 9.072-1.723-3.028-1.684 3.025zm0 0 1.72 3.033 1.685-3.03z"/><path d="m3.049 18.13 1.687-3.025-3.41-.003zm1.687-3.025L3.049 18.13l3.405.003zM-.301 24.19l-1.732-3.036-1.663 3.031zm-1.578 9.143-1.724-3.06-1.628 3.06zm-6.852-6.119 1.76 3.054 1.626-3.047zm3.5 6.119-1.74-3.065-1.6 3.065z"/><path d="m-6.971 30.268-3.363-.008 1.763 3.073z"/><path d="m-10.334 30.26 3.363.008-1.76-3.054zm6.731.013-3.368-.005 1.74 3.065zM-6.971 30.268l3.368.005-1.742-3.052zm5.011-3.04 1.659-3.038-3.395-.005z"/><path d="m-1.96 27.228-1.736-3.043-1.649 3.036zm1.659-3.038-1.659 3.038 3.385.005z"/><path d="m-3.603 30.273 1.643-3.045-3.385-.007zm13.506.012-1.679 3.048H11.6zm-40.438 3.048-2.798-2.961v2.961zm-2.798-2.961 2.798 2.961.202-3.145zM-30.535 33.333h2.82l-2.618-3.145zm3.063-9.083 1.391-3.021-3.582.056z"/><path d="m-30.666 24.325 3.194-.075-2.191-2.965zm-2.667 3.06v2.987l3-.184zm0 0 2.667-3.06-2.667.025zm11.7 5.948-2.125-3.123-.978 3.123z"/><path d="m-23.758 30.21-3.331-.006 2.353 3.129zM-27.563 0h-3.111l.972 3.043zm-3.111 0-2.659-3.044V0zm-2.659 3.044L-30.674 0h-2.659z"/><path d="m-30.674 0-2.659 3.044 3.631-.001z"/><path d="m-33.333 3.044 2.66 3.043.971-3.044z"/><path d="m-30.673 6.087-2.66-3.043v3.044zm-2.66 3.045 2.66-3.045-2.66.001zm2.66-3.045-2.66 3.045 3.634-.004zm14.849-3.062-3.428.004 1.746 3.024z"/><path d="m-19.252 3.029 3.428-.004L-17.513 0zM1.326-15.102l3.41-.003-1.687-3.025z"/><path d="m4.736-15.105-3.41.003 1.692 3.022zm-34.435 5.977-.973-3.046-2.661 3.042z"/><path d="m-30.672-12.174-2.661-.001v3.043zm7.99 3.073-1.587 3.028 3.366.01z"/><path d="m-24.269-6.073 1.587-3.028-3.475-.016z"/><path d="m-24.258-12.141 1.576 3.04 1.798-3.018z"/><path d="m-22.682-9.101-1.576-3.04-1.899 3.024zm6.858 12.126L-14.103 0h-3.41zm0-6.05-3.428-.004L-17.513 0z"/><path d="m-14.103 0-1.721-3.025L-17.513 0z"/><path d="M-15.824-3.025-14.103 0l1.703-3.022zm-2.615 36.358h3.254l-1.866-3.094zm11.347-9.154-1.639 3.035 3.386.007z"/><path d="m-8.731 27.214 1.639-3.035-3.399-.005z"/><path d="m-3.696 24.185-3.396-.006 1.747 3.042zm-15.239 3.01-1.775-3.013-1.674 3.016zm-3.642-6.007 3.461-.026-1.717-3.003zm0 0 1.867 2.994 1.594-3.02zm3.375-6.058-3.452.026 1.821 3.003zM-17.422 18.138l-1.78-3.008-1.631 3.029zm-8.735-9.021 3.475-.016-1.587-3.028zm3.475-.016-3.475.016 1.899 3.024zm20.563-.044 3.418.001-1.718-3.021z"/><path d="m-.397 12.078-1.722-3.021-1.694 3.02z"/><path d="m1.299 9.058-3.418-.001 1.722 3.021zm-8.27-39.326 1.74-3.065h-3.34zm-17.765-3.065h-2.979l.626 3.129zm-5.93 9.008-2.667-3.06v3.035zm7.984 15.224 3.443.016-1.645-3.034zm3.443.016-3.443-.016 1.779 3.038zM-17.481-12.101l-1.758 3.016 3.431.013z"/><path d="m-19.239-9.085 1.758-3.016-3.403-.018zm11.981 3.047L-8.977-3.02l3.422.001zM11.6-33.333l1.684 3.047 1.694-3.047z"/><path d="m9.903-30.285 3.381-.001-1.684-3.047zM-.358-18.127l-3.408.003 1.68 3.024zm1.841-15.206 1.661 3.052 1.707-3.052zM35.42 15.1l1.726-3.023-3.416.001zm-5.231 15.181-1.707 3.052h3.368zm-16.905.005-3.381-.001 1.697 3.048z"/><path d="M13.284 30.286 11.6 33.333h3.378zm0 0-1.699-3.044-1.682 3.043zM2.994 0 1.286-3.019-.426 0zM1.286 3.019 2.994 0h-3.42zM2.994 0 1.286 3.019h3.419z"/><path d="M6.413 0H2.994l1.711 3.019zM58.07 33.333h2.978l-.626-3.129zm-3.104 0 2.125-3.123-3.351.015zm2.125-3.123.979 3.123 2.352-3.129z"/><path d="m58.07 33.333-.979-3.123-2.125 3.123zm-14.246-9.159 1.63 3.033 1.772-3.036zm1.63 3.033 3.398-.007-1.626-3.029zm8.286-57.432 1.226-3.108h-3.193zm10.128-3.108 2.799 2.961v-2.961zm.131 9.008 2.668-.025v-3.035zm-11.55 3.163-1.816-3.01-1.62 3.022zm-25.638-9.122 1.671-3.049h-3.373zM-.397-12.078l1.696 3.02 1.719-3.022zM3-6.038l-1.701-3.02-1.718 3.021zM1.369-21.159l-1.727 3.032 3.407-.003zm5.117-3.04 1.683 3.033 1.711-3.036zm5.069 9.09-1.696-3.027-1.713 3.029zm.013 36.277 1.705 3.036 1.694-3.035zm-5.137-9.086 3.412.001L8.131 9.06zm8.532 3.028 1.704 3.028 1.704-3.028zm-30.643 6.04 1.787 3.021 1.635-3.025zm3.422-.004-1.635 3.025 3.402.003zm-1.635 3.025 1.772 3.036 1.63-3.033zm16.986.024-3.394-.005 1.726 3.043zm1.718 3.042-1.718-3.042-1.668 3.038z"/><path d="m6.486 24.199-3.393-.004 1.718 3.042z"/><path d="m3.093 24.195 3.393.004-1.717-3.036zM1.286 3.019 3 6.038l1.705-3.019z"/><path d="M3 6.038 1.286 3.019-.419 6.037zm0 0 3.418.001-1.713-3.02z"/><path d="M6.418 6.039 3 6.038l1.715 3.021z"/><path d="m3 6.038-1.701 3.02 3.416.001z"/><path d="M1.299 9.058 3 6.038l-3.419-.001zm-5.065 9.066 1.733 3.03 1.675-3.027zM-2.086 15.1l-1.68 3.024 3.408.003zm5.23 15.181-3.375-.003 1.714 3.055z"/><path d="m-.231 30.278-1.648 3.055h3.362zm0 0 3.375.003-1.719-3.048z"/><path d="m-1.879 33.333 1.648-3.055-3.372-.005zm1.648-3.055-1.729-3.05-1.643 3.045z"/><path d="m-1.96 27.228 1.729 3.05 1.656-3.045zm6.771.009 1.711 3.047 1.676-3.044zm1.711 3.047 3.381.001-1.705-3.045z"/><path d="m6.522 30.284-1.711-3.047-1.667 3.044zm-1.671 3.049 1.671-3.049-3.378-.003zm3.373 0-1.702-3.049-1.671 3.049z"/><path d="m6.522 30.284 1.702 3.049 1.679-3.048zm-36.053-3.016 2.059-3.018-3.194.075zm2.442 2.936-2.442-2.936-.802 2.92zm-6.244-2.819 3.802-.117-1.135-2.943z"/><path d="m-29.531 27.268-3.802.117 3 2.803zm3.45-6.039-1.46-2.998-2.122 3.054zm-3.621-24.272L-27.563 0l1.401-3.039z"/><path d="m-27.563 0-2.139-3.043L-30.674 0zm-2.139-3.043-3.631-.001L-30.674 0zm-.971 9.13 3.111-.005-2.14-3.039z"/><path d="m-27.562 6.082-3.111.005.974 3.041zm0 0 1.405 3.035 1.888-3.044zm1.405 3.035-1.405-3.035-2.137 3.046zm-1.4 3.045 1.4-3.045-3.542.011zm1.4-3.045-1.4 3.045 3.299-.021zm6.905-12.146L-20.908 0h3.395zM-20.908 0l1.656 3.029L-17.513 0zm-9.764-12.174-2.661-3.044v3.043zm16.577 6.128 1.713-3.018-3.426-.008zm0 0-1.729 3.021 3.424.003zm3.761 36.306-3.36-.009 1.802 3.082z"/><path d="m-12.121 27.207-1.573 3.044 3.36.009zm-3.064 6.126 1.491-3.082-3.357-.012zm1.491-3.082-1.491 3.082h3.293zm4.849-9.105h-3.413l1.767 3.028zm1.753 3.033-1.753-3.033-1.646 3.028zm-11.347 9.154-1.967-3.108-1.227 3.108z"/><path d="m-23.758 30.21 3.352.015-1.978-3.027zm3.352.015 1.967 3.108 1.388-3.094zm0 0-3.352-.015 2.125 3.123z"/><path d="m-18.935 27.195-1.471 3.03 3.355.014z"/><path d="m-20.406 30.225 1.471-3.03-3.449.003zm-.304-6.043-3.403.025 1.729 2.991zm-6.762.068 3.359-.043-1.968-2.978z"/><path d="m-22.577 21.188-1.536 3.019 3.403-.025z"/><path d="m-24.113 24.207 1.536-3.019-3.504.041zm4.861-21.178-1.651 3.034 3.397-.01zm-3.43 6.072 1.779-3.038-3.366.01zm3.48 6.029-1.682-3.011-1.77 3.037z"/><path d="m-22.654 15.156 1.77-3.037-3.374.022zm1.77-3.037 1.682 3.011 1.721-3.029zm0 0-1.798-3.018-1.576 3.04zm18.765-3.062h-3.419l1.725 3.02z"/><path d="m-5.538 9.057-1.692 3.021 3.417-.001zM-12.4 3.022-14.103 0l-1.721 3.025zM-3.846 0l1.712-3.019h-3.421zm1.712-3.019L-3.846 0h3.42zM-19.202 15.13l3.436-.017-1.715-3.012zm5.196 2.997-1.76-3.014-1.656 3.025z"/><path d="m-15.766 15.113-3.436.017 1.78 3.008zm3.427-.009-3.427.009 1.76 3.014zm0 0 3.421-.005-1.73-3.018zm3.421-.005 1.688-3.021-3.418.003zm-11.488-45.324 1.967-3.108h-3.194zm8.514-3.108 1.558 3.073 1.763-3.073z"/><path d="m-10.334-30.26 3.363-.008-1.6-3.065zm-22.999-.112 2.798-2.961h-2.798zM-7.258-6.038l1.72-3.019-3.421-.002z"/><path d="m-5.538-9.057-1.692-3.021-1.729 3.019zm-5.11-3.024-1.734 3.017 3.423.005z"/><path d="m-12.382-9.064 1.734-3.017-3.418-.007zm1.734-3.017 3.418.003-1.688-3.021zm3.418.003-3.418-.003 1.689 3.022zm18.815-15.164 1.699-3.044-3.381.001z"/><path d="m-7.23-12.078 1.729-3.021h-3.417zm-1.688-3.021h3.417l-1.676-3.023z"/><path d="m-3.766-18.124-1.735 3.025 3.415-.001zm-1.735 3.025 1.735-3.025-3.411.002zM6.522-30.284l3.381-.001-1.679-3.048z"/><path d="m6.522-30.284 1.702-3.049H4.851z"/><path d="m3.144-30.281 3.378-.003-1.671-3.049zM33.635 24.19l1.658 3.038 1.736-3.043zm3.465-6.066L35.42 15.1l-1.729 3.027z"/><path d="m35.293 27.228 3.385-.007-1.649-3.036zM40.6 0h-3.421l1.71 3.019zm-3.421 0H40.6l-1.711-3.019zM26.847 24.199l1.675 3.038 1.719-3.042zm1.675 3.038-1.711 3.047 3.378-.003zm-1.711 3.047 1.671 3.049 1.707-3.052z"/><path d="m28.482 33.333-1.671-3.049-1.702 3.049zM4.705-3.019 3-6.038 1.286-3.019zm0 0L6.413 0l1.71-3.019z"/><path d="M4.705-3.019 2.994 0h3.419z"/><path d="m2.994 0 1.711-3.019H1.286zm61.005 24.325 2.668 3.06V24.35zm2.668 6.047-2.799 2.961h2.799zm-14.894 2.961-1.388-3.094-1.866 3.094z"/><path d="m50.385 30.239 1.388 3.094 1.967-3.108zm0 0 1.883-3.044-3.416.005z"/><path d="m52.268 27.195-1.883 3.044 3.355-.014zm-10.364 6.138 1.764-3.073-3.364.008zm17.569-48.52 1.402-3.044-3.32.04zM60.875-18.231l-1.402 3.044 3.552-.025zm-8.29 21.26L50.846 0l-1.689 3.025zm1.651-9.092 3.366-.01-1.586-3.028zM56.024-3.035l-1.788-3.028-1.651 3.034z"/><path d="m54.236-6.063 1.788 3.028 1.578-3.038zm-7.208-24.188 1.491-3.082h-3.294zm-6.724-.017 1.6-3.065h-3.339zm23.695 5.943 2.668 3.023v-3.048zm-10.259-5.9-1.472 3.03 3.45-.003zm-3.107 6.053 1.635-3.023-3.416-.005zm-6.809-.002-1.76-3.04-1.639 3.035zm3.402.003 3.407-.001-1.781-3.028zm3.407-.001-3.407.001 1.787 3.021zm-13.604-.013 1.742 3.035 1.654-3.029zm-16.98-6.101 1.684-3.047h-3.377zm1.699 3.044-1.699-3.044-1.688 3.042zm-5.081-3.045 1.689-3.046h-3.378z"/><path d="m13.284-30.286 3.383-.001-1.689-3.046zm3.383-.001 3.382.001-1.693-3.047z"/><path d="m20.049-30.286-3.382-.001 1.694 3.043zm11.958 15.184 1.684-3.025-3.406-.003zm1.684-3.025-1.726-3.032-1.68 3.029zm8.62 21.147L40.6 0l-1.711 3.019zm-1.72 3.018 1.72-3.018-3.422-.001zM40.6 0l1.711 3.02L44.02 0zm1.711 3.02 3.422.002L44.02 0z"/><path d="M45.733 3.022 47.436 0H44.02z"/><path d="M50.846 0h-3.41l1.721 3.025z"/><path d="m47.436 0-1.703 3.022 3.424.003zM9.843-12.083l1.712-3.026-3.409.002zM4.715-9.059l-3.416.001L3-6.038z"/><path d="m1.299-9.058 3.416-.001-1.697-3.021zm.07-12.101 1.724-3.036-3.394.005z"/><path d="m3.093-24.195-1.668-3.038-1.726 3.043zm1.643 9.09 1.718-3.028-3.405.003zm1.718-3.028-1.718 3.028 3.41-.002zm0 0 3.405-.003-1.69-3.03zm3.405-.003-3.405.003 1.692 3.026zm.021 42.338-3.394-.003 1.712 3.041zm1.705 3.04-1.705-3.04-1.682 3.038zm-1.705-3.04 3.393.002-1.705-3.036z"/><path d="m13.273 24.204-3.393-.002 1.705 3.04zm-5.127-9.097-3.41-.002 1.718 3.028z"/><path d="m4.736 15.105 3.41.002-1.715-3.025zm3.41.002 1.697-3.024-3.412-.001zm1.697-3.024-1.697 3.024 3.409.002z"/><path d="m8.146 15.107 1.713 3.029 1.696-3.027zm1.713 3.029-1.713-3.029-1.692 3.026zm3.404.001-1.695 3.031 3.399.001zm3.404.001-3.404-.001 1.704 3.032z"/><path d="m14.963 15.11-1.7 3.027 3.404.001z"/><path d="m13.263 18.137 1.7-3.027-3.408-.001zm0 0-3.404-.001 1.709 3.032z"/><path d="m9.859 18.136 3.404.001-1.708-3.028zm-30.569 6.046 3.41-.01-1.816-3.01z"/><path d="m-17.3 24.172 1.62-3.022-3.436.012zm-1.635 3.023 1.635-3.023-3.41.01z"/><path d="m-17.3 24.172 3.407-.001-1.787-3.021zm15.267-3.018 3.402.005-1.727-3.032z"/><path d="m1.369 21.159 1.68-3.029-3.407-.003zm1.68-3.029-1.68 3.029 3.4.004zm-1.68 3.029-3.402-.005 1.732 3.036z"/><path d="m3.093 24.195-1.724-3.036-1.67 3.031z"/><path d="m1.369 21.159 1.724 3.036 1.676-3.032zm-34.702.143 2.664-3.042h-2.664z"/><path d="m-30.669 18.26-2.664 3.042 3.67-.017zm0 0-2.664-3.042v3.042zm-2.664-3.042 2.664 3.042.977-3.048z"/><path d="m-30.669 18.26 3.128-.029-2.151-3.019zm3.128-.029-3.128.029 1.006 3.025zm4.887-3.075-1.567 3.035 3.388-.032z"/><path d="m-24.221 18.191 1.644 2.997 1.744-3.029z"/><path d="m-22.577 21.188-1.644-2.997-1.86 3.038z"/><path d="m-24.221 18.191-3.32.04 1.46 2.998zm-6.452-24.278.974-3.041-3.634-.004z"/><path d="m-33.333-6.088 2.66.001-2.66-3.045z"/><path d="m-33.333-3.044 2.66-3.043-2.66-.001z"/><path d="m-29.702-3.043-.971-3.044-2.66 3.043zm-3.631 12.175 2.661 3.042.973-3.046zm2.661 3.042-2.661 3.044 3.641-.006zm0 0-2.661-3.042v3.043z"/><path d="m-33.333 15.218 2.661-3.044-2.661.001zm5.776-3.056-3.115.012.98 3.038zm-3.115.012 3.115-.012-2.142-3.034zM-27.563 0h3.291l-1.89-3.039zm-3.106-18.26 3.128.029-2.122-3.054zm0 0-2.664-3.042v3.042z"/><path d="m-33.333-21.302 2.664 3.042 1.006-3.025zm0 6.084 2.664-3.042h-2.664zm5.776 3.056-2.142 3.034 3.542.011zm0 0-3.115-.012.973 3.046z"/><path d="m-24.258-12.141-3.299-.021 1.4 3.045z"/><path d="m-26.14-15.187-1.417 3.025 3.299.021zm15.463 9.146 3.419.003-1.701-3.021zm1.7 3.021-1.7-3.021-1.723 3.019z"/><path d="m-12.382-9.064 1.705 3.023 1.718-3.018zm1.705 3.023 1.7 3.021 1.719-3.018z"/><path d="m-14.095-6.046 3.418.005-1.705-3.023z"/><path d="m-10.677-6.041-3.418-.005 1.695 3.024zm-5.147 3.016-1.682-3.028-1.746 3.024z"/><path d="m-19.252-3.029 1.746-3.024-3.397-.01zm1.746-3.024-1.733-3.032-1.664 3.022z"/><path d="m-19.239-9.085 1.733 3.032 1.698-3.019zm5.144 3.039-3.411-.007 1.682 3.028z"/><path d="m-17.506-6.053 3.411.007-1.713-3.026zM-5.437 21.15l-1.655 3.029 3.396.006zm0 0 1.671-3.026-3.411-.002zm3.404.004-3.404-.004 1.741 3.035z"/><path d="m-3.766 18.124-1.671 3.026 3.404.004zm-1.671 3.026-3.408-.004 1.753 3.033z"/><path d="m-8.845 21.146 3.408.004-1.74-3.028zm-14.913 9.064-2.142-2.991-1.189 2.985z"/><path d="m-25.9 27.219-3.631.049 2.442 2.936zm0 0 2.142 2.991 1.374-3.012z"/><path d="m-29.531 27.268 3.631-.049-1.572-2.969z"/><path d="m-25.9 27.219 1.787-3.012-3.359.043zm1.787-3.012-1.787 3.012 3.516-.021zm3.21-18.144 1.664 3.022 1.733-3.032z"/><path d="m-19.239 9.085 3.431-.013-1.698-3.019z"/><path d="m-15.808 9.072-3.431.013 1.758 3.016zm-3.431.013-1.664-3.022-1.779 3.038zm-1.645 3.034 1.645-3.034-3.443.016zm1.645-3.034-1.645 3.034 3.403-.018zm15.401-3.048-1.717-3.018-1.703 3.019zm0 0 1.719 3.02 1.7-3.02zm0 0-1.7 3.02h3.419z"/><path d="m-5.538 9.057 1.7-3.02-3.42.001zm-1.692 3.021-1.729-3.019-1.689 3.022z"/><path d="m-8.959 9.059-3.423.005 1.734 3.017zm3.421-.002-3.421.002 1.729 3.019zm-3.421.002 3.421-.002-1.72-3.019zM-10.686 0l1.709-3.02-3.423-.002z"/><path d="M-14.103 0h3.417L-12.4-3.022zm1.703 3.022L-10.686 0h-3.417zm-3.408 6.05 1.713-3.026-3.411.007z"/><path d="m-14.095 6.046-1.729-3.021-1.682 3.028zm1.713 3.018-1.713-3.018-1.713 3.026zm-1.713-3.018 1.695-3.024-3.424.003zm.029 6.042-1.742-3.016-1.673 3.029zM-14.066 12.088l1.684-3.024-3.426.008zm0 0 1.727 3.016 1.691-3.023z"/><path d="m-12.382 9.064-1.684 3.024 3.418-.007zm-1.684 3.024-1.7 3.025 3.427-.009zM-15.766 15.113l1.7-3.025-3.415.013zm12 3.011-1.735-3.025-1.676 3.023z"/><path d="m-7.23 12.078 1.729 3.021 1.688-3.022zm1.729 3.021 3.415.001-1.727-3.023z"/><path d="m-5.501 15.099 1.735 3.025 1.68-3.024zm-3.417 0h3.417l-1.729-3.021zm3.417 0h-3.417l1.741 3.023zm-5.089 3.023-1.749-3.018-1.667 3.023zm1.745 3.024-1.745-3.024-1.668 3.024zm-1.745-3.024-3.416.005 1.748 3.019z"/><path d="m-10.59 18.122 1.745 3.024 1.668-3.024zm0 0 1.672-3.023-3.421.005z"/><path d="m-8.918 15.099-1.672 3.023h3.413zm-8.563-27.2-1.721-3.029-1.682 3.011zm-8.659-3.086 1.919-3.004-3.32-.04zm-3.391-12.081-3.802-.117 2.667 3.06zm0 0 3.631.049-1.189-2.985zm27.498 6.114-1.733 3.03 3.408-.003zm0 0 3.402-.005-1.67-3.031z"/><path d="m1.369-21.159-3.402.005 1.675 3.027zm-5.065-3.026 1.663 3.031 1.732-3.036zm-1.535-9.148 1.628 3.06 1.724-3.06z"/><path d="m-6.971-30.268 3.368-.005-1.628-3.06zm4.852 21.211 3.418-.001-1.696-3.02zm3.418-.001-3.418.001 1.7 3.02zm10.286-18.184-3.387.002 1.682 3.038zm-3.387.002-1.712 3.041 3.394-.003z"/><path d="m8.198-27.24 3.387-.002-1.682-3.043z"/><path d="m6.522-30.284 1.676 3.044 1.705-3.045zM30.285 18.13l1.68 3.029 1.726-3.032zm3.35 6.06-1.67-3.031-1.724 3.036z"/><path d="m28.522 27.237 3.386-.004-1.667-3.038zm3.386-.004-1.719 3.048 3.375-.003z"/><path d="m31.908 27.233-3.386.004 1.667 3.044zm3.385-.005-3.385.005 1.656 3.045zm-1.658-3.038-1.727 3.043 3.385-.005z"/><path d="m31.908 27.233 1.727-3.043-3.394.005zm5.192-9.109 1.671 3.026 1.739-3.028z"/><path d="m38.771 21.15 3.407-.004-1.668-3.024zm-1.835 9.123-1.724 3.06h3.353z"/><path d="m36.936 30.273 1.629 3.06 1.739-3.065zm-1.724 3.06 1.724-3.06-3.372.005z"/><path d="m36.936 30.273-1.643-3.045-1.729 3.05z"/><path d="m36.936 30.273 1.742-3.052-3.385.007zm1.742-3.052-1.742 3.052 3.368-.005zM20.071-18.137l-1.7 3.027 3.408.001zm8.557 15.118-1.712-3.02-1.706 3.02zm-1.712-3.02 1.702-3.02-3.415-.001zm8.552 3.02L37.179 0l1.71-3.019zm1.678 15.096-1.694-3.02-1.722 3.021zm-1.678-9.058 1.703 3.018 1.718-3.018zM37.179 0l-1.711 3.019h3.421zM16.667 12.084l-1.704 3.026h3.408zM6.413 0h3.418L8.123-3.019zm15.366 15.109 1.696 3.027 1.712-3.029zm42.22 9.216-1.135 2.943 3.803.117zm-13.244-6.187 1.78-3.008-3.436-.017zm-6.832-.016-1.672-3.023-1.741 3.023zm-1.745 3.024 1.745-3.024H40.51zm3.047 12.187-1.557-3.073-1.764 3.073zm-3.161-6.119 3.39-.007-1.63-3.033z"/><path d="m42.064 27.214-3.386.007 1.626 3.047zm0 0 1.604 3.046 1.786-3.053zm1.604 3.046-1.604-3.046-1.76 3.054zM66.667-9.132l-2.662-3.042-.972 3.046z"/><path d="m64.005-12.174 2.662 3.042v-3.043zm0 0 2.662-3.044-3.642.006z"/><path d="m66.667-15.218-2.662 3.044 2.662-.001zm-5.772 9.136L59.49-9.117l-1.888 3.044zm-3.293.009 1.888-3.044-3.474.016zm1.888-3.044 1.405 3.035 2.138-3.046zM45.733 3.022l1.695 3.024 1.729-3.021zm-1.81 15.1 1.749-3.018-3.421-.005zM42.311-3.02 40.6 0h3.42z"/><path d="m40.6 0 1.711-3.02-3.422.001zm10.155-18.138 1.694-3.024-3.436.012zm8.478-9.081-1.786 3.012 3.358-.043z"/><path d="m57.447-24.207 1.786-3.012-3.515.021zm9.22-6.165-3.001.184 3.001 2.803zm-3.001.184 3.001-.184-2.799-2.961zm3.001 14.97-2.665-3.042-.977 3.048zm-2.665-3.042 2.665 3.042v-3.042zm0 0-3.127.029 2.15 3.019z"/><path d="m66.667-21.302-2.665 3.042h2.665zm-9.22-2.905 1.968 2.978 1.39-3.021zm3.428 5.976-1.46-2.998-1.86 3.038z"/><path d="m59.415-21.229-3.505.041 1.645 2.997z"/><path d="m55.91-21.188 3.505-.041-1.968-2.978zm-5.525-9.051 3.355.014-1.967-3.108z"/><path d="m48.519-33.333 1.866 3.094 1.388-3.094z"/><path d="m50.385-30.239-3.357-.012 1.824 3.051z"/><path d="m47.028-30.251 3.357.012-1.866-3.094zm3.357.012 1.883 3.044 1.472-3.03z"/><path d="m52.268-27.195-1.883-3.044-1.533 3.039zm3.642 6.007-1.867-2.994-1.594 3.02zm-1.867-2.994 3.404-.025-1.729-2.991z"/><path d="m54.043-24.182-3.41.01 1.816 3.01zm0 0 1.867 2.994 1.537-3.019zm0 0-1.775-3.013-1.635 3.023zm-1.775-3.013 1.775 3.013 1.675-3.016zm-10.364-6.138 1.764 3.073 1.557-3.073z"/><path d="m43.668-30.26 3.36.009-1.803-3.082zm0 0-1.764-3.073-1.6 3.065z"/><path d="m42.064-27.214 1.604-3.046-3.364-.008z"/><path d="m38.678-27.221 3.386.007-1.76-3.054zm3.386.007-3.386-.007 1.747 3.042zm-3.386-.007-1.649 3.036 3.396.006zm-16.945-6.112 1.698 3.048 1.678-3.048z"/><path d="m23.431-30.285 3.38.001-1.702-3.049zm0 0-1.698-3.048-1.684 3.047z"/><path d="m21.748-27.242 1.683-3.043-3.382-.001zm-6.775-.002 1.694 3.04 1.694-3.04zm-3.388.002 3.388-.002-1.689-3.042z"/><path d="m14.973-27.244 1.694-3.043-3.383.001zm1.694-3.043-1.694 3.043h3.388zm6.823 18.204 1.697-3.024-3.408-.002zm-.036-12.119 1.71 3.036 1.683-3.033zm1.71 3.036 3.4.003-1.717-3.036zm6.801.007-3.401-.004 1.721 3.033zm-3.443-6.078 1.667-3.044-3.378-.003z"/><path d="m30.189-30.281-1.707-3.052-1.671 3.049zm0 0-1.667 3.044 3.386.004zm0 0 1.661-3.052h-3.368zM49.157-3.025 50.846 0l1.739-3.029z"/><path d="M49.157-3.025 47.436 0h3.41zM4.736-15.105l1.695 3.023 1.715-3.025z"/><path d="m6.431-12.082-1.695-3.023-1.718 3.025zm0 0 3.412-.001-1.697-3.024zm3.412-.001-3.412.001 1.7 3.022zm-3.412.001L4.715-9.059l3.416-.001z"/><path d="m4.715-9.059 1.716-3.023-3.413.002zm1.703 3.02-1.713 3.02h3.418zm-1.713 3.02 1.713-3.02L3-6.038z"/><path d="m6.418-6.039-1.703-3.02L3-6.038z"/><path d="m4.715-9.059 1.703 3.02L8.131-9.06zm5.144-9.077 1.709-3.032-3.399.002z"/><path d="m8.169-21.166 3.399-.002-1.688-3.034zm-3.4.003-1.676-3.032-1.724 3.036zm1.717-3.036-1.717 3.036 3.4-.003zm-1.717 3.036-3.4.004 1.68 3.029z"/><path d="m3.093-24.195 1.676 3.032 1.717-3.036zm1.676 3.032 1.685 3.03 1.715-3.033zm1.685 3.03-1.685-3.03-1.72 3.033zM4.769 21.163l3.4.003-1.715-3.033z"/><path d="m8.169 21.166 1.69-3.03-3.405-.003zm-1.683 3.033 1.683-3.033-3.4-.003zm3.373-6.063-1.69 3.03 3.399.002zm.021 6.066-1.711-3.036-1.683 3.033z"/><path d="m8.169 21.166 1.711 3.036 1.688-3.034zm5.104 3.038h3.394l-1.7-3.035zm-27.166-.033-1.626 3.029 3.398.007zm-1.626 3.029-3.416-.005 1.884 3.044z"/><path d="m-13.694 30.251-1.825-3.051-1.532 3.039zm-1.825-3.051 1.825 3.051 1.573-3.044zm-1.781-3.028 1.781 3.028 1.626-3.029z"/><path d="m-15.519 27.2-1.781-3.028-1.635 3.023zm-12.022-8.969 1.401-3.044-3.552.025zm1.401-3.044 3.486-.031-1.604-3.015zm0 0-1.417-3.025-2.135 3.05z"/><path d="m-27.557 12.162 1.417 3.025 1.882-3.046zm3.336 6.029-1.919-3.004-1.401 3.044z"/><path d="m-26.14 15.187 1.919 3.004 1.567-3.035zm1.871-21.26-3.293-.009 1.4 3.043z"/><path d="m-27.562-6.082 3.293.009-1.888-3.044z"/><path d="m-29.699-9.128 2.137 3.046 1.405-3.035zm2.137 3.046-2.14 3.039 3.54.004z"/><path d="m-27.562-6.082-3.111-.005.971 3.044zm-3.111-.005 3.111.005-2.137-3.046zm7.982 3.052 3.439.006-1.651-3.034zm0 0-1.578-3.038-1.893 3.034z"/><path d="m-24.269-6.073 1.578 3.038 1.788-3.028zm1.578 3.038L-20.908 0l1.656-3.029z"/><path d="M-22.691-3.035-24.272 0h3.364z"/><path d="m-24.272 0 1.581-3.035-3.471-.004zm-3.29 6.082 1.4-3.043-3.54.004z"/><path d="M-26.162 3.039-27.563 0l-2.139 3.043zm0 0-1.4 3.043 3.293-.009z"/><path d="M-26.162 3.039-24.272 0h-3.291zm-3.53-18.251 3.552.025-1.401-3.044zm-.977-3.048.977 3.048 2.151-3.019zm.977 3.048-3.641-.006 2.661 3.044z"/><path d="m-29.692-15.212-.977-3.048-2.664 3.042zm0 0 2.135 3.05 1.417-3.025z"/><path d="m-27.557-12.162-2.135-3.05-.98 3.038zM-2.134 3.019h3.42L-.426 0zm3.42 0h-3.42l1.715 3.018zm-3.42 0L-3.846 0l-1.709 3.019z"/><path d="m-3.846 0 1.712 3.019L-.426 0zm.008 6.037 1.704-3.018h-3.421zm1.704-3.018-1.704 3.018h3.419zM-7.267 0h3.421l-1.709-3.019z"/><path d="M-8.977-3.02-7.267 0l1.712-3.019zM-3.846 0h-3.421l1.712 3.019z"/><path d="M-10.686 0h3.419l-1.71-3.02zm.009 6.041 1.718 3.018 1.701-3.021z"/><path d="m-8.959 9.059-1.718-3.018-1.705 3.023z"/><path d="m-14.095 6.046 3.418-.005-1.723-3.019zm3.418-.005-3.418.005 1.713 3.018zm-11.9-27.229-1.644 2.997 3.388.032zm-.077 6.032-3.486-.031 1.882 3.046zm0 0-1.604 3.015 3.374.022z"/><path d="m-19.202-15.13-3.452-.026 1.77 3.037zm-3.452-.026 3.452.026-1.631-3.029z"/><path d="m-24.221-18.191 1.567 3.035 1.821-3.003z"/><path d="m-22.654-15.156-1.567-3.035-1.919 3.004zm.077-6.032 3.461.026-1.594-3.02zM-19.116-21.162l-3.461-.026 1.744 3.029zm8.782-9.098 1.603 3.046 1.76-3.054zm-12.05 3.062 3.449.003-1.471-3.03z"/><path d="m-18.935-27.195-3.449-.003 1.674 3.016zm-4.823-3.015-.978-3.123-2.353 3.129z"/><path d="m-24.736-33.333.978 3.123 2.125-3.123z"/><path d="m-23.758-30.21 3.352-.015-1.227-3.108zm-2.142 2.991 2.142-2.991-3.331.006zm3.516.021-1.374-3.012-2.142 2.991z"/><path d="m-23.758-30.21 1.374 3.012 1.978-3.027zm-6.575.022-.202-3.145-2.798 2.961zm2.618-3.145-2.618 3.145 3.244-.016zM-33.333-27.385l3-2.803-3-.184z"/><path d="m-30.535-33.333.202 3.145 2.618-3.145z"/><path d="m-29.531-27.268-.802-2.92-3 2.803z"/><path d="m-30.333-30.188.802 2.92 2.442-2.936zm30.102-.09 3.375-.003-1.661-3.052z"/><path d="m-.231-30.278 1.714-3.055h-3.362zm3.375-.003-3.375.003 1.656 3.045z"/><path d="m-3.603-30.273 3.372-.005-1.648-3.055zM-5.538-9.057l1.725-3.02-3.417-.001z"/><path d="m-5.501-15.099 1.688 3.022 1.727-3.023zm1.688 3.022 3.416-.001-1.689-3.022z"/><path d="m-3.813-12.077-1.688-3.022-1.729 3.021zm1.694 3.02-1.694-3.02-1.725 3.02z"/><path d="m-3.813-12.077 1.694 3.02 1.722-3.021zm1.679 9.058-1.704-3.018-1.717 3.018z"/><path d="m-3.838-6.037-3.42-.001 1.703 3.019zm0 0 1.704 3.018 1.715-3.018z"/><path d="m-3.838-6.037-1.7-3.02-1.72 3.019zm1.719-3.02-1.719 3.02h3.419z"/><path d="m-3.838-6.037 1.719-3.02h-3.419zm8.649-21.2-1.667-3.044-1.719 3.048zM4.811-27.237l1.711-3.047-3.378.003zm0 0-1.718 3.042 3.393-.004z"/><path d="m3.093-24.195 1.718-3.042-3.386.004zm1.718-3.042 3.387-.003-1.676-3.044zm3.387-.003-3.387.003 1.675 3.038zm20.366 48.403-1.717 3.036 3.394-.004zm0 0 3.401-.004-1.68-3.029z"/><path d="m31.965 21.159-3.401.004 1.677 3.032zm3.402-.005 1.733-3.03-3.409.003zm0 0-1.732 3.036 3.394-.005z"/><path d="m31.965 21.159 3.402-.005-1.676-3.027z"/><path d="m35.367 21.154-3.402.005 1.67 3.031zm0 0 3.404-.004-1.671-3.026zm3.404-.004-3.404.004 1.662 3.031zm-20.4-36.26-1.704-3.028-1.704 3.028zm-1.704-3.028 1.704 3.028 1.7-3.027zM32.035 9.058l-1.719 3.022 3.414-.002z"/><path d="m35.452 9.057-3.417.001 1.695 3.02zM6.418 6.039l1.705-3.02H4.705z"/><path d="M8.123 3.019 6.413 0 4.705 3.019zM9.831 0 8.123 3.019l3.418.001z"/><path d="M8.123 3.019 9.831 0H6.413zm5.128 3.021 1.707-3.02h-3.417zM35.42 15.1l-3.413.002 1.684 3.025zm-3.413.002 3.413-.002-1.69-3.022zm0 0-1.722 3.028 3.406-.003zM30.316 12.08l1.691 3.022 1.723-3.024z"/><path d="m28.597 15.105 3.41-.003-1.691-3.022z"/><path d="m32.007 15.102-3.41.003 1.688 3.025zm-15.34 3.036 3.404-.001-1.7-3.027zM20.071 18.137l1.708-3.028-3.408.001z"/><path d="m20.071 18.137 3.404-.001-1.696-3.027zm3.404-.001-3.404.001 1.694 3.031zm43.192 3.166-2.668 3.023 2.668.025z"/><path d="m66.667 21.302-3.67-.017 1.002 3.04zm0 6.083-3.001 2.803 3.001.184zM63.666 30.188l.202 3.145 2.799-2.961z"/><path d="m61.048 33.333 2.618-3.145-3.244.016zm2.82 0-.202-3.145-2.618 3.145z"/><path d="m62.864 27.268.802 2.92 3.001-2.803z"/><path d="m63.666 30.188-.802-2.92-2.442 2.936zm3.001-21.056V6.088l-2.66-.001zm-3.632-6.089-2.14 3.039 3.112.005zm3.632-6.087L64.007 0h2.66zm-3.632 6.087L64.007 0h-3.11zM49.013 21.15l3.436.012-1.694-3.024zm3.522-6.02-1.721-3.029-1.715 3.012zm-6.944 6.016h-3.413l1.646 3.028zm3.422.004-3.422-.004 1.635 3.025z"/><path d="m45.591 21.146-1.767 3.028 3.402-.003zm0 0-1.668-3.024-1.745 3.024zM35.42 15.1l3.414-.001-1.688-3.022zm3.414-.001L37.1 18.124l3.41-.002z"/><path d="m37.1 18.124 1.734-3.025-3.414.001z"/><path d="M42.251 15.099h-3.417l1.676 3.023zm-1.688-3.021-1.729 3.021h3.417z"/><path d="m38.834 15.099 1.729-3.021-3.417-.001zm-3.382-6.042h3.42l-1.701-3.02zm3.42 0 1.719-3.019-3.42-.001zm0 0h-3.42l1.694 3.02z"/><path d="m40.563 12.078-1.691-3.021-1.726 3.02zm4.891 15.129 1.574 3.044 1.824-3.051zm4.931 3.032-3.357.012 1.491 3.082z"/><path d="m47.028 30.251 3.357-.012-1.533-3.039zm-3.36.009 3.36-.009-1.574-3.044z"/><path d="m45.225 33.333 1.803-3.082-3.36.009zm1.803-3.082-1.803 3.082h3.294zm-8.35-3.03 1.747-3.042-3.396.006zm1.747-3.042-1.654-3.029-1.742 3.035zm1.753-3.033-1.753 3.033 3.399-.005z"/><path d="m38.771 21.15 1.654 3.029 1.753-3.033zm3.293 6.064-1.639-3.035-1.747 3.042z"/><path d="m40.425 24.179 1.639 3.035 1.76-3.04zM64.007-6.087l2.66-3.045-3.634.004zm0 0 2.66 3.043v-3.044zm2.66-3.045-2.66 3.045 2.66-.001z"/><path d="m60.895-6.082 3.112-.005-.974-3.041zM59.49-9.117l-1.899-3.024-1.575 3.04zM38.872 9.057l3.42.002-1.701-3.021z"/><path d="m42.292 9.059-3.42-.002 1.691 3.021zm5.136-3.013 3.411.007-1.682-3.028zm3.411.007 1.746-3.024-3.428-.004zm0 0-3.411-.007 1.713 3.026z"/><path d="m50.839 6.053 3.397.01-1.651-3.034zm1.746-3.024L54.241 0h-3.395zM50.846 0h3.395l-1.656-3.029z"/><path d="m54.241 0 1.783-3.035-3.439.006z"/><path d="M54.241 0h3.364l-1.581-3.035zm1.783-3.035 3.471-.004-1.893-3.034z"/><path d="m59.495-3.039 1.4-3.043-3.293.009zm0 0L57.605 0h3.292z"/><path d="m57.605 0 1.89-3.039-3.471.004zM42.292-9.059l-1.701 3.021 3.42-.003zm-1.701 3.021 1.701-3.021-3.42.002z"/><path d="m42.311-3.02-1.72-3.018-1.702 3.019z"/><path d="m40.591-6.038 1.72 3.018 1.7-3.021zm11.981-3.047 1.664 3.022 1.78-3.038zm4.519-21.125-3.351-.015 1.978 3.027zm0 0 .979-3.123h-3.104z"/><path d="m53.74-30.225 3.351.015-2.125-3.123zm4.33-3.108-.979 3.123 3.331.006zm1.163 6.114-2.142-2.991-1.373 3.012z"/><path d="m57.091-30.21 2.142 2.991 1.189-2.985z"/><path d="m62.864-27.268-3.631.049 1.572 2.969zm0 0 1.135 2.943 2.668-3.06z"/><path d="m63.999-24.325-1.135-2.943-2.059 3.018zm-4.766-2.894 3.631-.049-2.442-2.936z"/><path d="m62.864-27.268.802-2.92-3.244-.016zm.802-2.92-.802 2.92 3.803-.117z"/><path d="M61.048-33.333H58.07l2.352 3.129z"/><path d="m63.666-30.188-2.618-3.145-.626 3.129zm-2.618-3.145 2.618 3.145.202-3.145zm2.954 15.073-1.005-3.025-2.122 3.054zm-1.005-3.025 1.002-3.04-3.194.075zm0 0 3.67-.017-2.668-3.023zm0 0 1.005 3.025 2.665-3.042z"/><path d="m62.997-21.285-3.582.056 1.46 2.998z"/><path d="m59.415-21.229 3.582-.056-2.192-2.965zm-13.961-5.978-3.39-.007 1.76 3.04zm1.574-3.044-1.574 3.044 3.398.007zm-1.574 3.044 1.772 3.036 1.626-3.029z"/><path d="m47.226-24.171-1.772-3.036-1.63 3.033zm-1.772-3.036-1.786-3.053-1.604 3.046z"/><path d="m43.668-30.26 1.786 3.053 1.574-3.044zM31.85-33.333l1.714 3.055 1.648-3.055z"/><path d="m30.189-30.281 3.375.003-1.714-3.055zm3.375.003-3.375-.003 1.719 3.048zm-4.967 15.173 3.41.003-1.722-3.028zm-5.122-3.031-3.404-.001 1.708 3.028zm1.712 3.029-1.712-3.029-1.696 3.027zm-10.22-6.062h3.399l-1.699-3.035zm1.7 3.031 1.699-3.031h-3.399z"/><path d="m18.366-21.169-1.699 3.031 3.404.001zm6.77-6.071 3.386.003-1.711-3.047z"/><path d="m23.431-30.285 1.705 3.045 1.675-3.044zm5.091 3.048-3.386-.003 1.711 3.041zm-3.386-.003-1.705-3.045-1.683 3.043z"/><path d="m23.454-24.202 1.682-3.038-3.388-.002zm1.682-3.038-1.682 3.038 3.393.003zm3.386.003 1.719 3.042 1.667-3.038z"/><path d="m30.241-24.195-1.719-3.042-1.675 3.038zm3.394.005-3.394-.005 1.724 3.036z"/><path d="m30.241-24.195 3.394.005-1.727-3.043zm0 0-1.677 3.032 3.401.004z"/><path d="m28.564-21.163 1.677-3.032-3.394-.004zm-13.591-6.081-1.7 3.04h3.394zm-1.7 3.04-1.688-3.038-1.705 3.04zm0 0 1.694 3.035 1.7-3.035z"/><path d="m13.273-24.204 1.7-3.04-3.388.002zm0 0-1.705 3.036 3.399-.001z"/><path d="m11.568-21.168 1.705-3.036-3.393.002zm11.863 51.453-1.698 3.048h3.376zM26.811 30.284l-3.38.001 1.678 3.048zm-10.144.003-3.383-.001 1.694 3.047zm1.689 3.046-1.689-3.046-1.689 3.046zm1.704-9.129 3.394-.002-1.689-3.034zm0 0h-3.393l1.694 3.04zM-20.908 0l-1.783 3.035 3.439-.006z"/><path d="m-20.903 6.063-1.788-3.028-1.578 3.038z"/><path d="m-22.691 3.035 1.788 3.028 1.651-3.034zM-24.272 0l1.581 3.035L-20.908 0z"/><path d="m-26.162 3.039 3.471-.004L-24.272 0zm3.471-.004-3.471.004 1.893 3.034zM-7.267 0l-1.71 3.02 3.422-.001zm-1.71 3.02L-10.686 0-12.4 3.022zm3.422-.001-3.422.001 1.719 3.018z"/><path d="M-8.977 3.02-7.267 0h-3.419zm-1.7 3.021 1.7-3.021-3.423.002z"/><path d="m-8.977 3.02-1.7 3.021 3.419-.003zm-18.495-27.27-3.194-.075 1.003 3.04zm-2.059-3.018 2.059 3.018 1.572-2.969z"/><path d="m-27.472-24.25-2.059-3.018-1.135 2.943zm23.706 6.126-1.671-3.026-1.74 3.028zm1.733-3.03-3.404.004 1.671 3.026zm-3.404.004 1.741-3.035-3.396.006z"/><path d="m-5.437-21.15 3.404-.004-1.663-3.031zm-3.408.004 3.408-.004-1.655-3.029zm3.408-.004-3.408.004 1.668 3.024zm-6.684-6.057 3.39-.007-1.603-3.046z"/><path d="m-3.696-24.185-1.649-3.036-1.747 3.042zm-1.649-3.036 1.742-3.052-3.368.005z"/><path d="m-8.731-27.214 3.386-.007-1.626-3.047zm3.386-.007-3.386.007 1.639 3.035zm-13.771 6.059 1.816-3.01-3.41-.01zm1.816-3.01-1.635-3.023-1.775 3.013zm45.897 39.277-1.718 3.028 3.406-.003zm-1.718 3.028 1.718-3.028-3.41.002z"/><path d="m23.475 18.136 3.404-.003-1.692-3.026zm3.404-.003 1.685 3.03 1.721-3.033zM11.568-21.168l1.695 3.031 1.704-3.032zm1.695 3.031-1.708 3.028 3.408-.001z"/><path d="m13.263-18.137-3.404.001 1.696 3.027z"/><path d="m13.263-18.137-1.695-3.031-1.709 3.032zm0 0 3.404-.001-1.7-3.031zm3.404-.001-3.404.001 1.7 3.027zM32.048 3.019h-3.42l1.705 3.019zm3.42-6.038-1.716-3.018-1.704 3.018zM23.49 12.083l-1.711 3.026 3.408-.002zm5.128-3.024 3.417-.001-1.702-3.02z"/><path d="m32.035 9.058-3.417.001 1.698 3.021zM9.843 12.083l1.702-3.022-3.414-.001zm6.824-6.043h3.416l-1.708-3.02zm-1.709-3.02 1.709 3.02 1.708-3.02zm5.125 3.02h-3.416l1.707 3.021zm-6.832 0h3.416l-1.709-3.02zm40.985.023 1.788-3.028-3.439-.006zM54.241 0l1.783 3.035L57.605 0z"/><path d="M56.024 3.035 54.241 0l-1.656 3.029zm10.643.009-3.632-.001.972 3.044zm0 3.044V3.044l-2.66 3.043z"/><path d="M66.667 3.044 64.007 0l-.972 3.043z"/><path d="m64.007 0 2.66 3.044V0zm2.66 9.132-2.662 3.042 2.662.001zm-2.662 3.042 2.662 3.044v-3.043zm-.003 6.086-1.005 3.025 3.67.017zm0 0 2.665 3.042V18.26zm2.665-3.042-2.665 3.042h2.665zM52.268 27.195l-1.635-3.023-1.781 3.028zm-3.416.005 1.781-3.028-3.407-.001z"/><path d="m50.633 24.172-1.62-3.022-1.787 3.021zm0 0 1.816-3.01-3.436-.012zm3.584-12.053-3.403-.018 1.721 3.029zm1.771 3.037-1.771-3.037-1.682 3.011zm-1.822 3.003-1.631-3.029-1.78 3.008z"/><path d="m52.449 21.162 1.717-3.003-3.411-.021zm3.539-6.006-1.822 3.003 3.389.032zm-1.822 3.003 1.822-3.003-3.453-.026zm-6.827-.032 1.674 3.023 1.742-3.012zm-1.667-3.023 1.667 3.023 1.76-3.014z"/><path d="m47.339 18.127 3.416.011-1.656-3.025zm0 0-1.667-3.023-1.749 3.018zm-1.748 3.019 1.748-3.019-3.416-.005z"/><path d="m47.339 18.127-1.748 3.019 3.422.004zm8.649-33.283 1.603 3.015 1.882-3.046zm0 0 3.485-.031-1.918-3.004zm3.485-.031 1.418 3.025 2.134-3.05zm4.532 3.013-3.114.012 2.142 3.034z"/><path d="m60.891-12.162 3.114-.012-.98-3.038zm0 0L59.49-9.117l3.543-.011z"/><path d="m60.891-12.162-3.3.021 1.899 3.024z"/><path d="m57.591-12.141 3.3-.021-1.418-3.025zM47.428 6.046l-1.713 3.018 3.426.008zM64.007 0l-.972-3.043L60.897 0z"/><path d="m64.007-6.087-.972 3.044 3.632-.001z"/><path d="M63.035-3.043 64.007 0l2.66-3.044zm0 0 .972-3.044-3.112.005z"/><path d="m59.495-3.039 3.54-.004-2.14-3.039zm3.54-.004-3.54.004L60.897 0zm-29.4-21.147 1.732 3.036 1.662-3.031zm3.394.005-1.662 3.031 3.404.004zm-1.662 3.031-3.402-.005 1.726 3.032z"/><path d="m35.367-21.154-1.732-3.036-1.67 3.031zm1.733 3.03-1.733-3.03-1.676 3.027z"/><path d="m35.367-21.154 1.733 3.03 1.671-3.026zm-3.36 6.052 3.413.002-1.729-3.027z"/><path d="m35.42-15.1-3.413-.002 1.723 3.024zm0 0 1.68-3.024-3.409-.003zm1.68-3.024L35.42-15.1l3.414.001zM35.42-15.1l1.726 3.023 1.688-3.022z"/><path d="M37.146-12.077 35.42-15.1l-1.69 3.022zm3.417-.001 1.729 3.019 1.69-3.022z"/><path d="m42.292-9.059-1.729-3.019-1.691 3.021zm-1.729-3.019-3.417.001 1.726 3.02z"/><path d="m37.146-12.077 3.417-.001-1.729-3.021zm5.032-9.069 1.646-3.028-3.399-.005zm-3.407-.004 3.407.004-1.753-3.033zm8.568 3.023 3.416-.011-1.742-3.012zM50.755-18.138l-3.416.011 1.76 3.014zM36.936-30.273l3.368.005-1.739-3.065zm-1.724-3.06 1.724 3.06 1.629-3.06zm1.724 3.06 1.742 3.052 1.626-3.047z"/><path d="m33.564-30.278 3.372.005-1.724-3.06zm-6.662 18.196-3.412-.001 1.713 3.023z"/><path d="m28.618-9.059-1.716-3.023-1.699 3.022zm-1.716-3.023-1.715-3.025-1.697 3.024zM26.902-12.082l1.695-3.023-3.41-.002z"/><path d="m26.879-18.133 1.718 3.028 1.688-3.025z"/><path d="m28.564-21.163-1.685 3.03 3.406.003z"/><path d="m26.879-18.133 1.685-3.03-3.4-.003zm1.718 3.028-1.718-3.028-1.692 3.026z"/><path d="m26.879-18.133-3.404-.003 1.712 3.029z"/><path d="m23.475-18.136 3.404.003-1.715-3.033zm-3.415-6.068 3.394.002-1.706-3.04zM16.667-24.204h3.393l-1.699-3.04z"/><path d="m20.06-24.204 1.688-3.038-3.387-.002zm-1.694 3.035 1.694-3.035h-3.393zM45.715-9.064l-3.423.005 1.719 3.018z"/><path d="m42.292-9.059 3.423-.005-1.733-3.017zm3.423-.005 1.685-3.024-3.418.007z"/><path d="m47.4-12.088-1.685 3.024 3.426-.008zm-1.685 3.024 1.713 3.018 1.713-3.026zm1.713 3.018-1.713-3.018-1.704 3.023zm-1.695 3.024-3.422.002L44.02 0zM47.436 0l-1.703-3.022L44.02 0z"/><path d="m42.311-3.02 3.422-.002-1.722-3.019zm6.846-.005-3.424.003L47.436 0zm-1.729-3.021-1.695 3.024 3.424-.003z"/><path d="m45.733-3.022 1.695-3.024-3.417.005zm5.106-3.031-1.682 3.028 3.428-.004zm3.397-.01-3.397.01 1.746 3.024zm-3.397.01 1.733-3.032-3.431.013zm1.733-3.032-1.733 3.032 3.397-.01zm-1.733 3.032-3.411.007 1.729 3.021z"/><path d="m47.428-6.046 3.411-.007-1.698-3.019zM23.454 24.202l1.682 3.038 1.711-3.041zm3.393-.003-1.711 3.041 3.386-.003z"/><path d="m25.136 27.24 1.675 3.044 1.711-3.047zm0 0-1.705 3.045 3.38-.001zm-10.163.004-1.7-3.04-1.688 3.038zm-1.689 3.042 1.689-3.042-3.388-.002zm3.383-6.082-1.694 3.04h3.388z"/><path d="m14.973 27.244 1.694-3.04h-3.394zm0 0 1.694 3.043 1.694-3.043z"/><path d="m16.667 30.287-1.694-3.043-1.689 3.042zm6.764-.002-3.382.001 1.684 3.047zm-3.382.001-1.693 3.047h3.377z"/><path d="m20.049 30.286-3.382.001 1.689 3.046zm-3.382.001 3.382-.001-1.688-3.042zm0-6.083 1.699-3.035h-3.399zm1.699-3.035-1.699-3.031-1.7 3.031z"/><path d="m18.366 21.169 1.705-3.032-3.404.001zm1.705-3.032-1.705 3.032 3.399-.001zm-.011 6.067-1.694-3.035-1.699 3.035z"/><path d="m18.366 21.169 1.694 3.035 1.705-3.036zm-42.479-45.376 1.729-2.991-3.516-.021zm1.729-2.991-1.729 2.991 3.403.025z"/><path d="m-24.113-24.207 1.536 3.019 1.867-2.994zm-3.359-.043 3.359.043-1.787-3.012zm11.706 9.137-3.436-.017 1.721 3.029zM-15.766-15.113l-1.715 3.012 3.415.013zm-4.64-15.112 3.355-.014-1.388-3.094z"/><path d="m-18.439-33.333 1.388 3.094 1.866-3.094z"/><path d="m-18.935-27.195 1.884-3.044-3.355.014zm18.704-3.083-1.729 3.05 3.385-.005z"/><path d="m1.425-27.233-3.385.005 1.659 3.038zm-3.385.005-1.736 3.043 3.395-.005zm0 0 1.729-3.05-3.372.005z"/><path d="m-5.345-27.221 3.385-.007-1.643-3.045zm3.385-.007-3.385.007 1.649 3.036zm27.124 48.394-1.689-3.03-1.71 3.032zm-1.71 3.036 1.71-3.036-3.399.002zm1.71-3.036-1.71 3.036 3.393-.003zM28.564 21.163l-3.4.003 1.683 3.033z"/><path d="m26.879 18.133-1.715 3.033 3.4-.003z"/><path d="m25.164 21.166 1.715-3.033-3.404.003zM35.468-3.019 33.759 0h3.42z"/><path d="m33.759 0 1.709-3.019h-3.42zm0 0 1.709 3.019L37.179 0z"/><path d="m33.759 0-1.711 3.019h3.42zm1.709 3.019-1.716 3.018h3.419zm-1.716 3.018 1.7 3.02 1.719-3.02zm-1.717 3.021 1.717-3.021-3.419.001z"/><path d="m33.752 6.037-1.717 3.021 3.417-.001zm0 0-1.704-3.018-1.715 3.019z"/><path d="m32.048 3.019 1.704 3.018 1.716-3.018zm-3.42-6.038 1.705-3.019-3.417-.001zm1.705-3.019-1.705 3.019h3.42zm0 0-1.715-3.021-1.702 3.02z"/><path d="m30.333-6.038 1.702-3.02-3.417-.001zm0 0 3.419.001-1.717-3.021z"/><path d="m33.752-6.037-3.419-.001 1.715 3.019zm-1.717-3.021 3.417.001-1.722-3.021zm5.111-3.019-1.694 3.02h3.42z"/><path d="m35.452-9.057 1.694-3.02-3.416-.001z"/><path d="m33.752-6.037 1.7-3.02-3.417-.001zM23.502 0h3.418l-1.71-3.019zm3.418 0 1.708-3.019H25.21zm-1.71 3.019L26.92 0h-3.418zM26.92 0l-1.71 3.019h3.418zm-6.837 6.04 1.709-3.02h-3.417zm1.709-3.02-1.709 3.02 3.416-.001z"/><path d="m25.21 3.019-3.418.001 1.707 3.019z"/><path d="m21.792 3.02 3.418-.001L23.502 0zm1.698-15.103-1.702 3.022 3.415.001zm-6.823-.001 1.704-3.026h-3.408zm0 12.084-1.709 3.02h3.417zm5.125-3.02L23.502 0l1.708-3.019zm-.013 18.129-1.701-3.025-1.707 3.026zM20.078 12.084h-3.411l1.704 3.026zm-3.411 0h3.411l-1.704-3.023zM23.49 12.083l-3.412.001 1.701 3.025zm3.412-.001 1.695 3.023 1.719-3.025z"/><path d="m28.597 15.105-1.695-3.023-1.715 3.025zm-1.695-3.023-3.412.001 1.697 3.024zm-3.412.001 3.412-.001-1.699-3.022zm3.412-.001 1.716-3.023-3.415.001z"/><path d="m28.618 9.059-1.716 3.023 3.414-.002zm-3.408-6.04 1.706 3.02 1.712-3.02zm3.418 0-1.712 3.02 3.417-.001zM25.203 9.06l1.713-3.021h-3.417z"/><path d="m26.916 6.039-1.706-3.02-1.711 3.02zm0 0 1.702 3.02 1.715-3.021z"/><path d="m28.618 9.059-1.702-3.02-1.713 3.021zM9.834 6.039l-1.711-3.02-1.705 3.02zm0 0H6.418L8.131 9.06z"/><path d="m8.123 3.019 1.711 3.02 1.707-3.019zm1.711 3.02 3.417.001-1.71-3.02zm0 0 1.711 3.022 1.706-3.021z"/><path d="M11.545 9.061 9.834 6.039 8.131 9.06zm5.122 3.023h-3.412l1.708 3.026zm-3.412 0-3.412-.001 1.712 3.026z"/><path d="m14.963 15.11-1.708-3.026-1.7 3.025zm-1.708-3.026-1.71-3.023-1.702 3.022zm46.24-9.045 3.54.004L60.897 0zM57.605 0l1.89 3.039L60.897 0zm1.89 3.039 1.4 3.043 2.14-3.039z"/><path d="m56.024 3.035 3.471.004L57.605 0zm7.009 6.093-3.543-.011 1.401 3.045zm0 0 3.634.004-2.66-3.045z"/><path d="m60.895 6.082 2.138 3.046.974-3.041zM59.49 9.117l3.543.011-2.138-3.046zm3.543.011.972 3.046 2.662-3.042zm.972 3.046-.972-3.046-2.142 3.034zm-4.532 3.013-3.485-.031 1.567 3.035zm-3.755 12.011-3.45-.003 1.472 3.03zm1.373 3.012-1.373-3.012-1.978 3.027zM52.572 9.085l-1.733-3.032-1.698 3.019z"/><path d="m54.236 6.063-1.664 3.022 3.444.016zm-3.422 6.038 1.758-3.016-3.431-.013z"/><path d="m50.839 6.053 1.733 3.032 1.664-3.022zm3.378 6.066-1.645-3.034-1.758 3.016zm-1.645-3.034 1.645 3.034 1.799-3.018zm-.037-24.215-1.78-3.008-1.656 3.025zM42.311 3.02l1.7 3.021 1.722-3.019z"/><path d="m44.011 6.041-1.7-3.021-1.72 3.018zm0 0 3.417.005-1.695-3.024z"/><path d="m42.292 9.059 1.719-3.018-3.42-.003zm3.423.005-1.704-3.023-1.719 3.018z"/><path d="m44.011 6.041 1.704 3.023 1.713-3.018zm3.389 6.047-1.728 3.016 3.427.009zm0 0 3.414.013-1.673-3.029z"/><path d="m50.814 12.101-3.414-.013 1.699 3.025zm-5.099-3.037 1.685 3.024 1.741-3.016zm-5.152-21.142 1.688-3.021h-3.417z"/><path d="m42.251-15.099-1.688 3.021 3.419-.003zm3.34-6.047 1.635-3.025-3.402-.003zm-3.413 0h3.413l-1.767-3.028zm5.048-3.025-1.635 3.025 3.422-.004zm-1.635 3.025h-3.413l1.745 3.024zm1.748 3.019-1.748-3.019-1.668 3.024zm-1.748-3.019 1.748 3.019 1.674-3.023zM33.635-24.19l1.658-3.038-3.385-.005zm1.658-3.038-1.658 3.038 3.394.005z"/><path d="m38.678-27.221-3.385-.007 1.736 3.043zm-3.385-.007-1.729-3.05-1.656 3.045z"/><path d="m35.293-27.228 1.643-3.045-3.372-.005zm1.643-3.045-1.643 3.045 3.385.007zm-4.929 15.171-1.691 3.022 3.414.002zm.028 6.044-1.719-3.022-1.698 3.021zm-1.719-3.022 1.719 3.022 1.695-3.02z"/><path d="m28.597-15.105 1.719 3.025 1.691-3.022z"/><path d="m26.902-12.082 3.414.002-1.719-3.025zm3.414.002-3.414-.002 1.716 3.023zm-6.862-12.122-1.689 3.034 3.399.002zm.021 6.066-1.71-3.032-1.694 3.031z"/><path d="m21.765-21.168 1.71 3.032 1.689-3.03zm0 0-3.399-.001 1.705 3.032zm0 0-1.705-3.036-1.694 3.035z"/><path d="m20.06-24.204 1.705 3.036 1.689-3.034zm1.688 51.446 3.388-.002-1.682-3.038zm0 0-1.688-3.038-1.699 3.04z"/><path d="m20.06 24.204 1.688 3.038 1.706-3.04z"/><path d="m25.136 27.24-3.388.002 1.683 3.043z"/><path d="m21.748 27.242-1.699 3.044 3.382-.001z"/><path d="m20.049 30.286 1.699-3.044-3.387.002zm-44.27-48.477-1.86-3.038-1.46 2.998zm-3.32-.04 1.46-2.998-3.582-.056zM-22.577-21.188l-3.504-.041 1.86 3.038zm-3.504-.041-1.391-3.021-2.191 2.965zM-26.081-21.229l1.968-2.978-3.359-.043zm1.968-2.978-1.968 2.978 3.504.041zm13.622.033 1.646 3.028 1.753-3.033zm0 0-1.63-3.033-1.772 3.036z"/><path d="m-8.731-27.214-1.76 3.04 3.399-.005z"/><path d="m-12.121-27.207 1.63 3.033 1.76-3.04zm1.63 3.033-1.767 3.028h3.413z"/><path d="m-12.258-21.146 1.767-3.028-3.402.003zm1.668 3.024 1.672 3.023 1.741-3.023zm1.745-3.024-1.745 3.024h3.413zm-1.745 3.024-1.668-3.024-1.748 3.019z"/><path d="m-12.258-21.146 1.668 3.024 1.745-3.024zm-5.042-3.026 1.62 3.022 1.787-3.021zm1.62 3.022-1.62-3.022-1.816 3.01zm3.422.004-3.422-.004 1.674 3.023z"/><path d="m-15.68-21.15 3.422.004-1.635-3.025zm1.986-9.101 3.36-.009-1.558-3.073z"/><path d="m-13.694-30.251 1.802-3.082h-3.293zm0 0 1.573 3.044 1.787-3.053z"/><path d="m-17.051-30.239 3.357-.012-1.491-3.082zM40.591-6.038l-3.42.001 1.718 3.018z"/><path d="m37.171-6.037-1.703 3.018h3.421zm0 0 3.42-.001-1.719-3.019z"/><path d="M37.171-6.037h-3.419l1.716 3.018zm0 0-1.719-3.02-1.7 3.02z"/><path d="m35.452-9.057 1.719 3.02 1.701-3.02zm-6.824 6.038L30.339 0l1.709-3.019zM30.339 0h3.42l-1.711-3.019zm1.709 3.019L30.339 0l-1.711 3.019z"/><path d="M33.759 0h-3.42l1.709 3.019zm-3.42 0H26.92l1.708 3.019zM26.92 0h3.419l-1.711-3.019zM9.831 0l1.71-3.02-3.418.001zm1.714-9.061-1.702-3.022L8.131-9.06zm11.954 3.022h3.417L25.203-9.06zm3.417 0h-3.417l1.711 3.02z"/><path d="m21.788-9.061 1.711 3.022 1.704-3.021zm1.711 3.022L21.792-3.02l3.418.001zm-1.711 15.1L20.083 6.04l-1.709 3.021z"/><path d="m20.083 6.04 1.705 3.021 1.711-3.022zm1.705 3.021 3.415-.001-1.704-3.021zm0 0 1.702 3.022 1.713-3.023zm0 0-1.71 3.023 3.412-.001z"/><path d="m20.078 12.084 1.71-3.023h-3.414z"/><path d="m14.96 9.061 1.707 3.023 1.707-3.023zm-3.415 0h3.415L13.251 6.04zm5.122-3.021L14.96 9.061h3.414z"/><path d="m14.96 9.061 1.707-3.021h-3.416zm-1.705 3.023 1.705-3.023h-3.415zm1.705-3.023-1.705 3.023h3.412zm42.642-2.988-3.366-.01 1.78 3.038zm1.888 3.044-1.888-3.044-1.586 3.028z"/><path d="m57.602 6.073 1.888 3.044 1.405-3.035zm0 0-1.578-3.038-1.788 3.028zm0 0 1.893-3.034-3.471-.004z"/><path d="m59.495 3.039-1.893 3.034 3.293.009zm3.53 12.173.98-3.038-3.114-.012zm.98-3.038-.98 3.038 3.642.006z"/><path d="m63.025 15.212.977 3.048 2.665-3.042zm-3.552-.025 3.552.025-2.134-3.05zm-1.882-3.046 1.899-3.024-3.474-.016z"/><path d="m59.49 9.117-1.899 3.024 3.3.021zm-5.273 3.002 3.374.022-1.575-3.04zm3.374.022-3.374-.022 1.771 3.037z"/><path d="m59.473 15.187-1.882-3.046-1.603 3.015z"/><path d="m57.591 12.141 1.882 3.046 1.418-3.025zm3.214 12.109 2.059 3.018 1.135-2.943zm2.192-2.965-2.192 2.965 3.194.075zm-2.192 2.965-1.39-3.021-1.968 2.978z"/><path d="m59.415 21.229 1.39 3.021 2.192-2.965zm-5.249-3.07 1.744 3.029 1.645-2.997z"/><path d="m55.91 21.188-1.744-3.029-1.717 3.003zm0 0 3.505.041-1.86-3.038zm3.505.041-3.505-.041 1.537 3.019zm-5.249-39.388 1.744-3.029-3.461.026zm1.744-3.029-1.744 3.029 3.389-.032z"/><path d="m50.755-18.138 3.411-.021-1.717-3.003zm3.411-.021 1.822 3.003 1.567-3.035zM54.166-18.159l-1.631 3.029 3.453-.026zm-1.631 3.029 1.631-3.029-3.411.021zm-1.721 3.029-3.414.013 1.741 3.016z"/><path d="m47.4-12.088 3.414-.013-1.715-3.012z"/><path d="m52.572-9.085-1.758-3.016-1.673 3.029zm-1.758-3.016 1.721-3.029-3.436.017zm-5.142 27.205-1.69-3.023-1.731 3.018z"/><path d="m43.982 12.081-3.419-.003 1.688 3.021z"/><path d="m43.982 12.081-1.69-3.022-1.729 3.019z"/><path d="m43.982 12.081 1.733-3.017-3.423-.005zm0 0 3.418.007-1.685-3.024zm3.418.007-3.418-.007 1.69 3.023zm-1.728-27.192 1.728 3.016 1.699-3.025z"/><path d="m47.4-12.088-1.728-3.016-1.69 3.023zm-1.728-3.016 1.667-3.023-3.416.005zm1.667-3.023-1.667 3.023 3.427-.009zm-5.088 3.028 3.421-.005-1.749-3.018z"/><path d="m45.672-15.104-3.421.005 1.731 3.018zm-5.162-3.018-3.41-.002 1.734 3.025zm-3.41-.002 3.41.002-1.739-3.028zM42.178-21.146l-1.668 3.024h3.413z"/><path d="m40.51-18.122 1.668-3.024-3.407-.004zm1.741 3.023-1.741-3.023-1.676 3.023z"/><path d="m40.51-18.122 1.741 3.023 1.672-3.023zm-56.276 3.009 3.427.009-1.667-3.023zm5.118 3.032-1.691-3.023-1.727 3.016z"/><path d="m-12.339-15.104 1.691 3.023 1.73-3.018zm0 0-3.427-.009 1.7 3.025zm0 0 1.749-3.018-3.416-.005z"/><path d="m-10.59-18.122-1.749 3.018 3.421.005zm-5.176 3.009-1.656-3.025-1.78 3.008zm-3.436-.017 1.78-3.008-3.411-.021zm1.78-3.008-1.694-3.024-1.717 3.003zm0 0 1.656 3.025 1.76-3.014z"/><path d="m-15.68-21.15-1.742 3.012 3.416.011zm-1.742 3.012 1.742-3.012-3.436-.012zm5.301-9.069-3.398.007 1.626 3.029z"/><path d="m-15.519-27.2-1.781 3.028 3.407.001z"/><path d="m-17.3-24.172 1.781-3.028-3.416.005zm1.781-3.028-1.532-3.039-1.884 3.044z"/><path d="m-15.519-27.2 1.825-3.051-3.357.012z"/><path d="m-13.694-30.251-1.825 3.051 3.398-.007zM18.371-15.11l1.707 3.026 1.701-3.025zm1.707 3.026 3.412.001-1.711-3.026z"/><path d="m20.078-12.084 1.71 3.023 1.702-3.022zm-3.411 0h3.411l-1.707-3.026zm1.707 3.023 1.704-3.023h-3.411z"/><path d="m20.078-12.084-1.704 3.023h3.414zM14.958 3.02 13.249 0l-1.708 3.02z"/><path d="M13.249 0H9.831l1.71 3.02zm3.418 0h-3.418l1.709 3.02zm-3.418 0-1.708-3.02L9.831 0zM6.418-6.039h3.416L8.131-9.06zm3.416 0H6.418l1.705 3.02z"/><path d="M11.541-3.02 9.834-6.039l-1.711 3.02z"/><path d="m9.834-6.039 1.707 3.019 1.71-3.02zm1.711-3.022L9.834-6.039l3.417-.001z"/><path d="m9.834-6.039 1.711-3.022-3.414.001zm.009-6.044 3.412-.001-1.7-3.025z"/><path d="m11.555-15.109 1.7 3.025 1.708-3.026zm1.7 3.025h3.412l-1.704-3.026zm-1.71 3.023 1.71-3.023-3.412.001zM20.084 0l1.708 3.02L23.502 0z"/><path d="M21.792 3.02 20.084 0l-1.709 3.02z"/><path d="M20.084 0h-3.417l1.708 3.02zm1.708-3.02L20.084 0h3.418zm-3.417 0L20.084 0l1.708-3.02z"/><path d="m20.084 0-1.709-3.02L16.667 0zm-.001-6.04-1.708 3.02h3.417zm-1.709-3.021 1.709 3.021 1.705-3.021z"/><path d="m20.083-6.04-1.709-3.021-1.707 3.021zm-1.708 3.02 1.708-3.02h-3.416zm5.124-3.019-3.416-.001 1.709 3.02z"/><path d="m20.083-6.04 3.416.001-1.711-3.022zm40.792 24.271-1.46 2.998 3.582.056zm0 0-1.402-3.044-1.918 3.004z"/><path d="m64.002 18.26-3.127-.029 2.122 3.054z"/><path d="m59.415 21.229 1.46-2.998-3.32-.04z"/><path d="m60.875 18.231 2.15-3.019-3.552-.025z"/><path d="m63.025 15.212-2.15 3.019 3.127.029zm-7.307 11.986 3.515.021-1.786-3.012zm3.515.021-2.142 2.991 3.331-.006z"/><path d="m62.864 27.268-3.631-.049 1.189 2.985zm-3.631-.049-3.515-.021 1.373 3.012zm0 0 1.572-2.969-3.358-.043z"/><path d="m60.805 24.25-1.572 2.969 3.631.049zm-6.762-.068-3.41-.01 1.635 3.023zm1.675 3.016-1.675-3.016-1.775 3.013z"/><path d="m50.633 24.172 3.41.01-1.594-3.02z"/><path d="m54.043 24.182 1.675 3.016 1.729-2.991zm1.867-2.994-1.867 2.994 3.404.025z"/><path d="m54.043 24.182 1.867-2.994-3.461-.026zm.174-36.301-1.645 3.034 3.444-.016z"/><path d="m57.591-12.141-3.374.022 1.799 3.018z"/><path d="m55.988-15.156-1.771 3.037 3.374-.022z"/><path d="m52.535-15.13 1.682 3.011 1.771-3.037z"/><path d="m50.814-12.101 3.403-.018-1.682-3.011zm3.403-.018-3.403.018 1.758 3.016zM13.251-6.04l1.707 3.02 1.709-3.02zm5.124 3.02h-3.417L16.667 0z"/><path d="M11.541-3.02h3.417l-1.707-3.02zm3.417 0h3.417l-1.708-3.02zM13.249 0l1.709-3.02h-3.417zm1.709-3.02L13.249 0h3.418zm3.416-6.041H14.96l1.707 3.021zm-3.414 0L13.251-6.04h3.416zm0 0h3.414l-1.707-3.023z"/><path d="M14.96-9.061h-3.415l1.706 3.021zm0 0-1.705-3.023-1.71 3.023z"/><path d="m13.255-12.084 1.705 3.023 1.707-3.023z"/></svg>