<svg xmlns="http://www.w3.org/2000/svg" viewBox="-50 -50 100 100"><style>path{fill:#c8c5bd;stroke:navy;stroke-width:.5;stroke-linejoin:bevel}</style><path d="M-41.014 21.119L-50 27.047l9.915 3.227zM-25.038 50l-3.526-9.261L-36.495 50z"/><path d="M-25.038 50l5.976-8.538-9.502-.723zM-50 50h13.505l-2.639-9.975zM-25.038 50h10.249l-4.273-8.538zM39.533 39.992L36.073 50H50z"/><path d="M39.533 39.992l-11.18.667L36.073 50zM39.533 39.992l1.863-11.218-7.798 2.981zM-8.674-42.119L.51-42.3-4.257-50zM-36.181-50l-3.028 9.726 10.944-1.044z"/><path d="M-36.181-50l7.916 8.682 3.95-8.682zM.51-42.3l-4.916 5.974 7.552.526zM-40.042-30.436l.833-9.838L-50-37.604zM-40.042-30.436l8.96-2.736-8.127-7.102zM-31.082-33.172l-8.96 2.736 7.368 5.554z"/><path d="M-40.042-30.436l-1.033 8.948 8.401-3.394zM-50-26.955v9.669l8.925-4.202z"/><path d="M-50-26.955l8.925 5.467 1.033-8.948zM-40.085 30.274L-50 27.047v10.631zM-40.085 30.274L-50 37.678l10.866 2.347z"/><path d="M-50 50l10.866-9.975L-50 37.678zM21.725 26.689l1.31-6.25-5.321 1.983zM-19.062 41.462l9.419.835-4.122-6.526z"/><path d="M-22.215 33.716l3.153 7.746 5.297-5.691zM-19.062 41.462L-14.789 50l5.146-7.703zM13.77 50h10.645l-6.42-7.994zM28.353 40.659L24.415 50h11.658zM-8.949 30.81l3.268 5.509 2.762-5.701zM-8.949 30.81l6.03-.192-2.585-4.57z"/><path d="M-13.765 35.771l4.122 6.526 3.962-5.978z"/><path d="M-13.765 35.771l8.084.548-3.268-5.509zM50 4.763l-7.923-2.425-.572 8.003z"/><path d="M42.077 2.338L50 4.763v-9.6z"/><path d="M42.077 2.338L50-4.837l-8.884.407zM28.353 40.659l-2.047-8.543-6.044 2.58zM32.378-31.803l-8.626-2.717 2.727 7.495zM23.752-34.52l8.626 2.717-2.956-9.052zM32.378-31.803l8.041 2.974-.523-10.717zM40.904-19.875l-8.177-2.648 1.616 7.717zM40.419-28.829L50-36.347l-10.104-3.199zM40.419-28.829L50-24.892v-11.455z"/><path d="M39.896-39.546L36.696-50l-7.274 9.145zM32.727-22.523l7.692-6.306-8.041-2.974zM50-14.676l-9.096-5.199.83 8.309z"/><path d="M50-14.676v-10.216l-9.096 5.017zM-11.07 25.863l-.484-4.889-4.282 2.602z"/><path d="M-15.836 23.576l4.282-2.602-3.997-1.928zM-22.215 33.716l8.45 2.055-1.679-5.915zM-8.949 30.81l-2.121-4.947-4.374 3.993zM-50 8.911l8.962 3.84-.878-7.769zM-41.038 12.751L-50 17.506l8.986 3.613z"/><path d="M-41.038 12.751L-50 8.911v8.595zM-40.042-30.436L-50-37.604v10.649zM-50-50l10.791 9.726L-36.181-50z"/><path d="M-50-50v12.396l10.791-2.67zM-8.674-42.119L-13.908-50l-4.043 8.183z"/><path d="M-13.908-50l5.234 7.881L-4.257-50zM-17.951-41.817L-13.908-50h-10.407zM-29.459-18.755l4.435-3.542-7.65-2.585zM-35.527-16.606l2.853-8.276-8.401 3.394zM-30.083-12.551l4.876 1.851.691-5.08zM-24.315-50l-3.95 8.682 10.314-.499zM-31.082-33.172l2.817-8.146-10.944 1.044zM-17.951-41.817l-10.314.499 6.443 6.141zM-25.024-22.297l-.018-6.028-7.632 3.443z"/><path d="M-25.042-28.325l-6.04-4.847-1.592 8.29zM-25.042-28.325l5.825 4.278 1.375-5.856zM-35.527-16.606l6.068-2.149-3.215-6.127zM-39.134 40.025L-36.495 50l7.931-9.261zM-40.085 30.274l.951 9.751 8.112-7.515zM-28.564 40.739l-2.458-8.229-8.112 7.515zM17.995 42.006L24.415 50l3.938-9.341zM-5.504 26.048l4.414-1.098-2.815-3.86zM4.459 50h9.311l-5.444-8.597zM4.459 50l-4.897-7.691L-5.017 50zM-5.017 50l-4.626-7.703L-14.789 50zM-9.643 42.297l9.205.012-5.243-5.99z"/><path d="M-9.643 42.297L-5.017 50l4.579-7.691zM20.791-3.907l3.796-2.362-4.347-1.346zM20.791-3.907l-.107 3.581 4.163-1.215zM9.434-41.377L14.508-50H5.211z"/><path d="M9.434-41.377L5.211-50 .51-42.3z"/><path d="M.51-42.3L5.211-50h-9.468zM.51-42.3l-9.184.181 4.268 5.793zM-12.749-35.586l-5.202-6.231-3.871 6.64zM21.725 26.689l6.47-1.931-5.16-4.319zM28.195 24.758l-1.889 7.358 7.292-.361zM34.554-.657l-5.472 2.893 6.265 3.667z"/><path d="M35.347 5.903l6.73-3.565-7.523-2.995zM29.328-3.777l-.246 6.013 5.472-2.893zM50 14.279l-8.495-3.938-.077 8.412zM33.598 31.755l1.018-9.48-6.421 2.483z"/><path d="M28.195 24.758l6.421-2.483-5.951-4.504zM50-4.837v-9.839l-8.266 3.11zM41.116-4.43L34.554-.657l7.523 2.995z"/><path d="M41.116-4.43l-6.583-3.244.021 7.017zM28.964-9.776l-5.074-1.235.697 4.742z"/><path d="M34.533-7.674l-5.205 3.897 5.226 3.12zM29.328-3.777l-4.481 2.236 4.235 3.777z"/><path d="M24.847-1.541l4.481-2.236-4.741-2.492zM39.896-39.546l-10.474-1.309 2.956 9.052zM25.075-50l4.347 9.145L36.696-50zM50-50H36.696l3.2 10.454zM50-50L39.896-39.546 50-36.347zM40.904-19.875l-.485-8.954-7.692 6.306zM14.508-50l4.637 8.052L25.075-50zM9.434-41.377l5.907 5.761 3.804-6.332zM19.145-41.948l10.277 1.093L25.075-50zM23.752-34.52l-4.607-7.428-3.804 6.332zM-21.096 20.933l5.26 2.643.285-4.53zM-10.458 14.042l3.315-.852-1.769-1.125zM-19.268 11.914l.764 4.364 2.563-3.23zM-19.268 11.914l.193-3.588-4.308 2.726zM-12.759 11.958l-2.518-2.063-.664 3.153zM-11.07 25.863l2.121 4.947 3.445-4.762zM-8.949 30.81l-6.495-.954 1.679 5.915z"/><path d="M-11.07 25.863l5.566.185-2.136-3.553zM-15.444 29.856l4.374-3.993-4.766-2.287zM-25.042-28.325l3.22-6.852-9.26 2.005z"/><path d="M-21.822-35.177l-6.443-6.141-2.817 8.146zM-8.674-42.119l-9.277.302 5.202 6.231z"/><path d="M-12.749-35.586l-9.073.409 3.98 5.274zM-42.128-12.169l1.053-9.319L-50-17.286zM-42.128-12.169l6.601-4.437-5.548-4.882zM-4.728 17.16l-2.739 1.733 3.562 2.197zM-7.729 15.674l2.7-1.542-2.114-.942zM-2.825 14.731l-2.204-.599.301 3.028zM-2.825 14.731l-1.903 2.429 2.856.609z"/><path d="M-7.467 18.893l-.173 3.602 3.735-1.405zM-4.728 17.16l.823 3.93 2.033-3.321zM21.725 26.689l-5.46 1.971 3.997 6.036zM17.995 42.006l2.267-7.31-7.176.523z"/><path d="M21.725 26.689l-4.011-4.267-1.449 6.238zM20.262 34.696l6.044-2.58-4.581-5.427zM17.995 42.006l10.358-1.347-8.091-5.963zM1.549 35.74l.328-6.597-4.796 1.475zM4.459 50l3.867-8.597-8.764.906z"/><path d="M-.438 42.309l8.764-.906-6.777-5.663zM8.326 41.403L13.77 50l4.225-7.994z"/><path d="M6.908 33.541L1.549 35.74l6.777 5.663zM-.529-30.724L3.146-35.8l-7.552-.526zM4.795-29.101l-5.324-1.623 2.1 5.463zM-25.024-22.297l4.611 3.445 1.196-5.195zM-25.042-28.325l7.2-1.578-3.98-5.274zM39.533 39.992l-5.935-8.237-5.245 8.904z"/><path d="M33.598 31.755l7.798-2.981-6.78-6.499zM33.598 31.755l-7.292.361 2.047 8.543z"/><path d="M28.195 24.758l-6.47 1.931 4.581 5.427zM50 36.487l-10.467 3.505L50 50z"/><path d="M50 36.487l-8.604-7.713-1.863 11.218z"/><path d="M50 24.567l-8.604 4.207L50 36.487zM28.195 24.758l.47-6.987-5.63 2.668z"/><path d="M28.665 17.771l-5.851-2.699.221 5.367zM34.31 13.806l7.118 4.947.077-8.412z"/><path d="M50 14.279l-8.572 4.474L50 24.567z"/><path d="M50 24.567l-8.572-5.814-.032 10.021z"/><path d="M41.396 28.774l.032-10.021-6.812 3.522zM41.116-4.43l.618-7.136-7.201 3.892zM50-24.892l-9.581-3.937.485 8.954zM50-4.837l-8.266-6.729-.618 7.136zM8.923-33.391l6.418-2.225-5.907-5.761z"/><path d="M3.146-35.8l6.288-5.577L.51-42.3zM3.146-35.8l1.649 6.699 4.128-4.29zM-15.551 19.046l4.659-1.647-2.858-1.888zM-24.986 3.135l1.884 3.856 2.735-2.405zM-19.075 8.326l-4.027-1.335-.281 4.061zM-30.25 3.512l-5.713-.581 1.786 6.423zM-30.25 3.512l-3.927 5.842 6.259-1.337zM9.741 14.135l2.661-1.674-2.59-1.115zM7.738 16.349l-.002-3.498-1.886.961z"/><path d="M7.738 16.349l2.003-2.214-2.005-1.284zM5.85 13.812l-2.032.694.73 2.315zM10.919 28.611l2.167 6.608 3.179-6.559z"/><path d="M20.262 34.696l-3.997-6.036-3.179 6.559zM-1.09 24.95l-1.829 5.668 4.796-1.475zM1.877 29.143l4.246-1.682-2.767-3.82zM3.356 23.641l-.262-3.773-3.32 1.036zM1.195 17.415l1.899 2.453 1.454-3.047zM-.226 20.904l-1.646-3.135-2.033 3.321zM15.096 14.476l3.32-1.905-3.597-1.995zM15.096 14.476l3.425 2.726-.105-4.631zM25.426 6.766l3.656-4.53-5.176.43z"/><path d="M25.426 6.766l-1.52-4.1-2.996 3.627zM32.727-22.523l-7.252 2.079 2.723 4.792zM32.727-22.523l-6.248-4.502-1.004 6.581zM16.505-8.063l3.735.448-.907-3.706zM2.94-20.683l2.863-2.914-4.232-1.664zM9.388-26.505l-3.585 2.908 4.704 1.699zM4.795-29.101l1.008 5.504 3.585-2.908zM-21.503-8.918l1.008-4.309-4.712 2.527zM34.31 13.806l-7.025-1.57 1.38 5.535z"/><path d="M34.616 22.275l6.812-3.522-7.118-4.947zM34.31 13.806l1.037-7.903-4.957 2.152zM35.347 5.903l-1.037 7.903 7.195-3.465z"/><path d="M35.347 5.903l6.158 4.438.572-8.003zM50 4.763l-8.495 5.578L50 14.279zM28.964-9.776l5.379-5.03-6.145-.846zM41.734-11.566l-7.391-3.24.19 7.132z"/><path d="M41.734-11.566l-.83-8.309-6.561 5.069zM28.964-9.776l5.569 2.102-.19-7.132zM28.964-9.776l-4.377 3.507 4.741 2.492z"/><path d="M28.964-9.776l.364 5.999 5.205-3.897zM3.146-35.8l5.777 2.409.511-7.986zM4.795-29.101L3.146-35.8l-3.675 5.076zM4.795-29.101l-3.224 3.84 4.232 1.664z"/><path d="M6.983-19.678l-1.18-3.919-2.863 2.914zM15.017-23.824l5.553-.079-1.273-5.457zM26.479-27.025l-5.909 3.122 4.905 3.459z"/><path d="M25.475-20.444l-4.905-3.459-1.444 4.531zM14.447-19.12l-.887 3.828 3.906-.006zM19.126-19.372l-4.679.252 3.019 3.822zM-33.184 24.202l-7.83-3.083.929 9.155zM-41.014 21.119L-50 17.506v9.541z"/><path d="M-33.941 16.598l-7.073 4.521 7.83 3.083zM-26.104 26.345l3.889 7.371 1.866-6.912zM-33.184 24.202l-6.901 6.072 9.063 2.236zM-22.215 33.716l6.771-3.86-4.905-3.052zM-23.091 15.736l-.292-4.684-5.09 2.351zM-17.1 4.955l-3.267-.369 1.292 3.74zM-50-8.057l7.872-4.112L-50-17.286zM-28.351-1.261l-1.472-5.586-4.19 4.304zM1.757 14.897l-2.35.091 1.788 2.427zM1.195 17.415l-1.421 3.489 3.32-1.036z"/><path d="M4.548 16.821l-2.791-1.924-.562 2.518zM1.757 14.897l2.791 1.924-.73-2.315zM5.85 13.812l-1.302 3.009 3.19-.472zM1.877 29.143l5.031 4.398-.785-6.08zM10.919 28.611l-4.011 4.93 6.178 1.678zM6.123 27.461l.785 6.08 4.011-4.93zM1.877 29.143l-.328 6.597 5.359-2.199zM8.326 41.403l9.669.603-4.909-6.787zM8.326 41.403l4.76-6.184-6.178-1.678zM13.951 5.511l3.185-.554-2.512-1.621z"/><path d="M15.494 7.585l1.642-2.628-3.185.554zM20.91 6.293l1.363 4.06 3.153-3.587zM22.273 10.353l-4.059-1.586.202 3.804zM22.286-15.445l3.189-4.999-6.349 1.072z"/><path d="M22.286-15.445l5.912-.207-2.723-4.792zM14.147-9.589l1.655-2.36-3.331-.296zM13.56-15.292l-3.335.965 2.246 2.082zM13.56-15.292l2.242 3.343 1.664-3.349zM16.505-8.063l-2.358-1.526-1.11 2.17zM1.571-25.261l-2.1-5.463-2.663 4.466zM1.571-25.261l-4.763-.997 2.219 4.281zM-.973-21.977l3.913 1.294-1.369-4.578zM-12.749-35.586l.764 6.074 5.363-1.492z"/><path d="M-17.842-29.903l5.857.391-.764-6.074zM-19.217-24.047l4.105 4.106 1.172-4.669zM27.285 12.236l7.025 1.57-3.92-5.751z"/><path d="M34.31 13.806l-5.645 3.965 5.951 4.504zM25.426 6.766l1.859 5.47 3.105-4.181zM22.814 15.072l5.851 2.699-1.38-5.535z"/><path d="M22.273 10.353l5.012 1.883-1.859-5.47zM23.89-11.011l4.308-4.641-5.912.207z"/><path d="M23.89-11.011l-1.604-4.434-2.953 4.124zM10.511-17.811l3.936-1.309-3.94-2.778z"/><path d="M10.511-17.811l-.004-4.087-3.524 2.22zM-21.096 20.933l-1.995-5.197-4.218 3.946zM-26.104 26.345l-4.918 6.165 8.807 1.206zM-21.096 20.933l.747 5.871 4.513-3.228z"/><path d="M-21.096 20.933l-5.008 5.412 5.755.459zM-20.349 26.804l4.905 3.052-.392-6.28zM-28.564 40.739l6.349-7.023-8.807-1.206zM-22.215 33.716l-6.349 7.023 9.502.723z"/><path d="M-26.104 26.345l-7.08-2.143 2.162 8.308zM-23.091 15.736l-5.382-2.333 1.164 6.279zM-27.918 8.017l4.535 3.035.281-4.061zM-28.473 13.403l.555-5.386-6.259 1.337z"/><path d="M-33.941 16.598l5.468-3.195-5.704-4.049zM-21.096 20.933l2.592-4.655-4.587-.542zM-21.096 20.933l5.545-1.887-2.953-2.768z"/><path d="M-19.268 11.914l-3.823 3.822 4.587.542z"/><path d="M-23.091 15.736l3.823-3.822-4.115-.862zM-13.75 15.511l.991-3.553-3.182 1.09zM-18.504 16.278l4.754-.767-2.191-2.463zM-15.551 19.046l1.801-3.535-4.754.767zM-10.458 14.042l-3.292 1.469 2.858 1.888z"/><path d="M-13.75 15.511l3.292-1.469-2.301-2.084zM-7.729 15.674l-2.729-1.632-.434 3.357zM-7.729 15.674l3.001 1.486-.301-3.028z"/><path d="M-10.458 14.042l2.729 1.632.586-2.484zM-7.729 15.674l.262 3.219 2.739-1.733zM-13.178 7.165l-2.716.191.617 2.539zM-17.1 4.955l-.432-2.801-2.835 2.432zM-23.842-1.164l4.079-1.036-1.923-2.648zM-41.495-3.407l5.706-5.501-6.339-3.261z"/><path d="M-35.789-8.908l.262-7.698-6.601 4.437zM-35.527-16.606l-.262 7.698 5.706-3.643zM-25.375-5.701l-2.976 4.44 4.509.097zM-28.351-1.261l2.976-4.44-4.448-1.146zM-24.986 3.135l-5.264.377 2.332 4.505zM15.096 14.476l-.713 4.362 4.138-1.636zM18.521 17.202l-.807 5.22 5.321-1.983z"/><path d="M18.521 17.202l-4.138 1.636 3.331 3.584zM12.852 23.487l-4.63-.105 2.697 5.229z"/><path d="M12.852 23.487l3.413 5.173 1.449-6.238z"/><path d="M14.383 18.838l-1.531 4.649 4.862-1.065zM6.392 19.858l-1.844-3.037-1.454 3.047z"/><path d="M4.548 16.821l1.844 3.037 1.346-3.509zM14.953 1.188l2.366.179-2.352-2.356z"/><path d="M14.624 3.336l2.695-1.969-2.366-.179zM13.56-15.292l-1.089 3.047 3.331.296zM-6.622-31.004l3.43 4.746 2.663-4.466z"/><path d="M-6.622-31.004l6.093.28-3.877-5.602zM-8.332-25.676l1.71-5.328-5.363 1.492z"/><path d="M-8.332-25.676l5.14-.582-3.43-4.746zM-13.94-24.61l1.955-4.902-5.857-.391z"/><path d="M-19.217-24.047l5.277-.563-3.902-5.293zM-20.495-13.227l.082-5.625-4.103 3.072zM-21.503-8.918l-3.704-1.782-.168 4.999zM-25.207-10.7l4.712-2.527-4.021-2.553zM-20.413-18.852l5.301-1.089-4.105-4.106zM-17.334-16.125l3.696.576-1.474-4.392zM-25.024-22.297l5.807-1.75-5.825-4.278z"/><path d="M-17.334-16.125l2.222-3.816-5.301 1.089zM24.587-6.269l-.697-4.742-3.65 3.396zM28.198-15.652l-4.308 4.641 5.074 1.235zM19.333-11.321l-1.867-3.977-1.664 3.349z"/><path d="M16.505-8.063l2.828-3.258-3.531-.628zM-27.309 19.682l-5.875 4.52 7.08 2.143zM-33.941 16.598l6.632 3.084-1.164-6.279z"/><path d="M-27.309 19.682l-6.632-3.084.757 7.604zM-21.096 20.933l-6.213-1.251 1.205 6.663zM-33.941 16.598l-.236-7.244-6.861 3.397zM-41.014 21.119l7.073-4.521-7.097-3.847zM-12.034 8.954l-3.243.941 2.518 2.063z"/><path d="M-12.034 8.954l-1.144-1.789-2.099 2.73zM-24.986 3.135l4.158-1.896-3.014-2.403zM-18.624-6.158l.712-3.584-3.591.824zM-35.963 2.931l5.713.581-3.763-6.055zM-34.177 9.354l-7.739-4.372.878 7.769zM-41.495-3.407L-50-8.057V.334z"/><path d="M-34.013-2.543l-1.776-6.365-5.706 5.501zM-35.527-16.606l5.444 4.055.624-6.204z"/><path d="M-35.789-8.908l5.966 2.061-.26-5.704zM7.738 16.349l3.972-.276-1.969-1.938zM11.71 16.073l-1.531 3.339 4.204-.574z"/><path d="M15.096 14.476l-3.386 1.597 2.673 2.765zM9.741 14.135l1.969 1.938.692-3.612zM12.852 23.487l-1.933 5.124 5.346.049zM12.402 12.461l-.889-2.846-1.701 1.731zM9.741 14.135l.071-2.789-2.076 1.505zM10.225-14.327l-2.566-1.61.065 3.078zM7.659-15.937l-2.092 2.008 2.157 1.07zM17.575-1.918l-.256 3.285 3.365-1.693zM20.684-.326l-3.365 1.693 2.571 1.684zM13.037-7.419l1.11-2.17-2.645-.039zM-10.411-21.64l4.882-.811-2.803-3.225zM-5.529-22.451l1.876 2.937 2.68-2.463zM-10.411-21.64l-3.529-2.97-1.172 4.669z"/><path d="M-11.14-17.814l.729-3.826-4.701 1.699zM-12.796-12.078l-.842-3.471-2.482 2.944zM-11.14-17.814l.525 3.766 2.312-1.617zM-10.526 10.687l.068 3.355 1.546-1.977z"/><path d="M-10.458 14.042l-.068-3.355-2.233 1.271z"/><path d="M-10.526 10.687l-1.508-1.733-.725 3.004zM-12.796-12.078l2.181-1.97-3.023-1.501zM-17.334-16.125l1.214 3.52 2.482-2.944zM-50 8.911l8.084-3.929L-50 .334z"/><path d="M-34.177 9.354l-1.786-6.423-5.953 2.051z"/><path d="M-41.495-3.407L-50 .334l8.084 4.648zM-41.916 4.982l5.953-2.051-5.532-6.338zM3.356 23.641l3.036-3.783-3.298.01zM6.123 27.461l2.099-4.079-4.866.259zM6.123 27.461l4.796 1.15-2.697-5.229zM-14.742 2.771l-2.79-.617.432 2.801zM-18.624-6.158l2.816-.77-2.104-2.814zM-10.615-14.048l2.461 1.458-.149-3.075zM-10.095-11.094l-.52-2.954-2.181 1.97zM-7.495-19.099l3.842-.415-1.876-2.937z"/><path d="M-3.192-26.258l-5.14.582 2.803 3.225zM17.575-1.918l3.109 1.592.107-3.581zM14.967-.989l2.352 2.356.256-3.285z"/><path d="M14.967-.989l2.608-.929-2.934-1.342z"/><path d="M14.641-3.26l2.934 1.342-.41-3.125zM-.973-21.977l-2.68 2.463 3.527 1.195zM-5.529-22.451l4.556.474-2.219-4.281zM-2.503-16.872l2.377-1.447-3.527-1.195zM6.983-19.678L2.94-20.683l2.051 3.528zM6.983-19.678l-1.992 2.523 2.668 1.218zM-14.149 4.98l-.593-2.209-2.358 2.184zM-15.894 7.356l1.745-2.376-2.951-.025z"/><path d="M-13.178 7.165l-.971-2.185-1.745 2.376zM-8.154-12.59l2.096-1.132-2.245-1.943zM-10.615-14.048l.52 2.954 1.941-1.496zM-14.528-9.618l-1.592-2.987-1.792 2.863z"/><path d="M-16.12-12.605l1.592 2.987 1.732-2.46zM-14.528-9.618l-1.28 2.69 2.614-.207z"/><path d="M-15.808-6.928l1.28-2.69-3.384-.124zM-2.503-16.872l-1.234 2.345 2.608-.43zM-.126-18.319l2.467.998.599-3.362zM-.126-18.319l3.066-2.364-3.913-1.294z"/><path d="M3.388-14.612l-1.047-2.709-1.358 2.353zM2.341-17.321l-2.467-.998 1.109 3.351zM2.341-17.321l2.65.166-2.051-3.528zM4.991-17.155l-1.603 2.543 2.179.683zM-15.808-6.928l1.56 2.238 1.054-2.445zM-14.995.401l.146-2.521-2.536 1.495zM-14.742 2.771l-.253-2.37-2.537 1.753zM-11.783-9.282l1.688-1.812-2.701-.984zM-11.783-9.282l-2.745-.336 1.334 2.483z"/><path d="M-14.528-9.618l2.745.336-1.013-2.796zM-5.504-16.607l3.001-.265-1.15-2.642z"/><path d="M-5.504-16.607l1.851-2.907-3.842.415zM-3.737-14.527l-1.767-2.08-.554 2.885zM-5.504-16.607l1.767 2.08 1.234-2.345zM-16.872-3.768l1.064-3.16-2.816.77zM-14.849-2.12l-2.023-1.648-.513 3.143z"/><path d="M-14.248-4.69l-2.624.922 2.023 1.648z"/><path d="M-16.872-3.768l2.624-.922-1.56-2.238zM-11.554 20.974l3.914 1.521.173-3.602zM-1.09 24.95l-4.414 1.098 2.585 4.57z"/><path d="M-11.07 25.863l3.43-3.368-3.914-1.521zM1.549 35.74l-4.468-5.122-2.762 5.701z"/><path d="M-.438 42.309l1.987-6.569-7.23.579zM24.847-1.541l-.941 4.207 5.176-.43zM23.906 2.666l.941-4.207-4.163 1.215zM29.082 2.236l-3.656 4.53 4.964 1.289z"/><path d="M29.082 2.236l1.308 5.819 4.957-2.152zM26.479-27.025l6.248 4.502-.349-9.28zM32.727-22.523l-4.529 6.871 6.145.846zM-29.459-18.755l4.943 2.975-.508-6.517zM-29.459-18.755l-.624 6.204 5.567-3.229zM9.434-41.377l9.711-.571L14.508-50zM23.752-34.52l5.67-6.335-10.277-1.093zM23.752-34.52l-8.411-1.096 3.956 6.256zM26.479-27.025l-7.182-2.335 1.273 5.457z"/><path d="M23.752-34.52l-4.455 5.16 7.182 2.335zM-17.1 4.955l-1.975 3.371 3.181-.97z"/><path d="M-19.075 8.326l-1.292-3.74-2.735 2.405zM-5.504 26.048l1.599-4.958-3.735 1.405zM1.877 29.143l1.479-5.502-4.446 1.309zM17.136 4.957l3.774 1.336-1.02-3.242z"/><path d="M19.89 3.051l1.02 3.242 2.996-3.627zM8.923-33.391l4.578 4.315 1.84-6.54z"/><path d="M8.923-33.391l.465 6.886 4.113-2.571z"/><path d="M8.923-33.391l-4.128 4.29 4.593 2.596zM15.017-23.824l4.28-5.536-5.796.284zM13.501-29.076l5.796-.284-3.956-6.256zM15.017-23.824l-.57 4.704 4.679-.252z"/><path d="M15.017-23.824l4.109 4.452 1.444-4.531zM-19.268 11.914l3.327 1.134.664-3.153z"/><path d="M-19.268 11.914l3.991-2.019-3.798-1.569zM-19.075 8.326l3.798 1.569-.617-2.539zM-1.872 17.769l3.067-.354-1.788-2.427zM-1.872 17.769l1.279-2.781-2.232-.257z"/><path d="M-1.872 17.769l1.646 3.135 1.421-3.489zM14.819 10.576l3.597 1.995-.202-3.804z"/><path d="M14.819 10.576l3.395-1.809-2.72-1.182zM22.273 10.353l.541 4.719 4.471-2.836z"/><path d="M22.814 15.072l-.541-4.719-3.857 2.218zM20.91 6.293l-3.774-1.336 1.078 3.81z"/><path d="M20.91 6.293l-2.696 2.474 4.059 1.586zM22.286-15.445l-4.82.147 1.867 3.977z"/><path d="M22.286-15.445l-3.16-3.927-1.66 4.074zM10.507-21.898l3.94 2.778.57-4.704z"/><path d="M9.388-26.505l1.119 4.607 4.51-1.926z"/><path d="M9.388-26.505l5.629 2.681-1.516-5.252zM-23.102 6.991l-1.884-3.856-2.932 4.882zM-27.918 8.017l-.555 5.386 5.09-2.351zM-7.467 18.893l-.262-3.219-3.163 1.725z"/><path d="M-7.467 18.893l-3.425-1.494-.662 3.575z"/><path d="M-10.892 17.399l-4.659 1.647 3.997 1.928zM-23.842-1.164l2.156-3.684-3.689-.853z"/><path d="M-21.503-8.918l-3.872 3.217 3.689.853zM-34.013-2.543l4.19-4.304-5.966-2.061zM-30.25 3.512l1.899-4.773-5.662-1.282z"/><path d="M-24.986 3.135l1.144-4.299-4.509-.097z"/><path d="M-28.351-1.261l-1.899 4.773 5.264-.377zM22.814 15.072l-4.293 2.13 4.514 3.237z"/><path d="M18.521 17.202l4.293-2.13-4.398-2.501zM10.179 19.412l-2.441-3.063-1.346 3.509z"/><path d="M7.738 16.349l2.441 3.063 1.531-3.339zM15.494 7.585l2.72 1.182-1.078-3.81zM12.798 7.824l-1.285 1.791 3.306.961zM15.494 7.585l-1.543-2.074-1.153 2.313z"/><path d="M17.136 4.957l.183-3.59-2.695 1.969zM17.136 4.957l2.754-1.906-2.571-1.684zM12.471-12.245l-2.744.826 1.775 1.791zM14.147-9.589l2.358 1.526-.703-3.886z"/><path d="M12.471-12.245l-.969 2.617 2.645.039zM6.983-19.678l3.524-2.22-4.704-1.699zM10.511-17.811l3.049 2.519.887-3.828z"/><path d="M13.56-15.292l-3.049-2.519-.286 3.484zM17.165-5.043l.41 3.125 3.216-1.989z"/><path d="M17.165-5.043l3.626 1.136-.551-3.708zM-12.749-35.586l6.127 4.582 2.216-5.322z"/><path d="M-12.749-35.586l8.343-.74-4.268-5.793zM-20.495-13.227l3.161-2.898-3.079-2.727zM-20.413-18.852l-4.611-3.445.508 6.517zM20.24-7.615l3.65-3.396-4.557-.31z"/><path d="M16.505-8.063l.66 3.02 3.075-2.572zM-19.763-2.2l-1.065 3.439 3.443-1.864z"/><path d="M-19.763-2.2l-4.079 1.036 3.014 2.403zM-20.367 4.586l-.461-3.347-4.158 1.896z"/><path d="M-20.367 4.586l2.835-2.432-3.296-.915zM-18.624-6.158l-2.879-2.76-.183 4.07z"/><path d="M-18.624-6.158l-3.062 1.31 1.923 2.648zM-41.495-3.407l-.633-8.762L-50-8.057zM-41.495-3.407l5.532 6.338 1.95-5.474zM-25.207-10.7l-4.876-1.851.26 5.704z"/><path d="M-25.207-10.7l-4.616 3.853 4.448 1.146zM10.179 19.412l2.673 4.075 1.531-4.649z"/><path d="M10.179 19.412l-1.957 3.97 4.63.105zM12.798 7.824l2.021 2.752.675-2.991zM15.096 14.476l-.277-3.9-2.417 1.885z"/><path d="M14.819 10.576l-3.306-.961.889 2.846zM15.096 14.476l-2.694-2.015-.692 3.612zM10.225-14.327l-2.501 1.468 2.003 1.44z"/><path d="M9.727-11.419l2.744-.826-2.246-2.082zM23.906 2.666L20.684-.326l-.794 3.377zM20.791-3.907l4.056 2.366-.26-4.728zM-15.112-19.941l1.474 4.392 2.498-2.265zM-13.638-15.549l3.023 1.501-.525-3.766zM-17.912-9.742l-2.583-3.485-1.008 4.309z"/><path d="M-20.495-13.227l4.375.622-1.214-3.52z"/><path d="M-20.495-13.227l2.583 3.485 1.792-2.863zM3.356 23.641l-3.582-2.737-.864 4.046z"/><path d="M-1.09 24.95l.864-4.046-3.679.186zM8.222 23.382l-1.83-3.524-3.036 3.783z"/><path d="M8.222 23.382l1.957-3.97-3.787.446zM16.505-8.063l-3.468.644.932 1.955zM16.505-8.063l-2.536 2.599 3.196.421zM14.641-3.26l2.524-1.783-3.196-.421zM-10.411-21.64l-.729 3.826 3.645-1.285z"/><path d="M-10.411-21.64l2.916 2.541 1.966-3.352zM-8.332-25.676l-3.653-3.836-1.955 4.902z"/><path d="M-8.332-25.676l-5.608 1.066 3.529 2.97zM-1.129-14.957l1.003-3.362-2.377 1.447zM-1.129-14.957l2.112-.011-1.109-3.351zM6.983-19.678l.676 3.741 2.852-1.874z"/><path d="M5.567-13.929l2.092-2.008-2.668-1.218zM7.659-15.937l2.566 1.61.286-3.484zM4.991-17.155l-2.65-.166 1.047 2.709zM-17.532 2.154l.147-2.779-3.443 1.864zM-17.532 2.154l2.537-1.753-2.39-1.026zM-8.303-15.665l.808-3.434-3.645 1.285zM-8.303-15.665l2.245 1.943.554-2.885zM-8.303-15.665l2.799-.942-1.991-2.492zM-19.763-2.2l2.891-1.568-1.752-2.39zM-19.763-2.2l2.378 1.575.513-3.143z"/></svg>