<svg xmlns="http://www.w3.org/2000/svg" viewBox="-50 0 100 100"><style>path{fill:none;stroke:#969696;stroke-width:.5;stroke-linejoin:bevel}</style><path d="M-41.014 71.119L-50 77.047l9.915 3.227zM-25.038 100l-3.526-9.261-7.931 9.261z"/><path d="M-25.038 100l5.976-8.538-9.502-.723zM-50 100h13.505l-2.639-9.975zM-25.038 100h10.249l-4.273-8.538zM39.533 89.992L36.073 100H50z"/><path d="M39.533 89.992l-11.18.667 7.72 9.341zM39.533 89.992l1.863-11.218-7.798 2.981zM-8.674 7.881L.51 7.7-4.257 0zM-36.181 0l-3.028 9.726 10.944-1.044z"/><path d="M-36.181 0l7.916 8.682L-24.315 0zM.51 7.7l-4.916 5.974 7.552.526zM-40.042 19.564l.833-9.838L-50 12.396zM-40.042 19.564l8.96-2.736-8.127-7.102zM-31.082 16.828l-8.96 2.736 7.368 5.554zM-40.042 19.564l-1.033 8.948 8.401-3.394zM-50 23.045v9.669l8.925-4.202z"/><path d="M-50 23.045l8.925 5.467 1.033-8.948zM-40.085 80.274L-50 77.047v10.631zM-40.085 80.274L-50 87.678l10.866 2.347zM-50 100l10.866-9.975L-50 87.678zM21.725 76.689l1.31-6.25-5.321 1.983zM-19.062 91.462l9.419.835-4.122-6.526zM-22.215 83.716l3.153 7.746 5.297-5.691zM-19.062 91.462l4.273 8.538 5.146-7.703zM13.77 100h10.645l-6.42-7.994zM28.353 90.659L24.415 100h11.658zM-8.949 80.81l3.268 5.509 2.762-5.701z"/><path d="M-8.949 80.81l6.03-.192-2.585-4.57zM-13.765 85.771l4.122 6.526 3.962-5.978z"/><path d="M-13.765 85.771l8.084.548-3.268-5.509zM50 54.763l-7.923-2.425-.572 8.003z"/><path d="M42.077 52.338L50 54.763v-9.6z"/><path d="M42.077 52.338L50 45.163l-8.884.407zM28.353 90.659l-2.047-8.543-6.044 2.58zM32.378 18.197l-8.626-2.717 2.727 7.495z"/><path d="M23.752 15.48l8.626 2.717-2.956-9.052zM32.378 18.197l8.041 2.974-.523-10.717zM40.904 30.125l-8.177-2.648 1.616 7.717zM40.419 21.171L50 13.653l-10.104-3.199zM40.419 21.171L50 25.108V13.653z"/><path d="M39.896 10.454L36.696 0l-7.274 9.145zM32.727 27.477l7.692-6.306-8.041-2.974zM50 35.324l-9.096-5.199.83 8.309z"/><path d="M50 35.324V25.108l-9.096 5.017zM-11.07 75.863l-.484-4.889-4.282 2.602zM-15.836 73.576l4.282-2.602-3.997-1.928zM-22.215 83.716l8.45 2.055-1.679-5.915zM-8.949 80.81l-2.121-4.947-4.374 3.993zM-50 58.911l8.962 3.84-.878-7.769z"/><path d="M-41.038 62.751L-50 67.506l8.986 3.613z"/><path d="M-41.038 62.751L-50 58.911v8.595zM-40.042 19.564L-50 12.396v10.649zM-50 0l10.791 9.726L-36.181 0z"/><path d="M-50 0v12.396l10.791-2.67zM-8.674 7.881L-13.908 0l-4.043 8.183z"/><path d="M-13.908 0l5.234 7.881L-4.257 0zM-17.951 8.183L-13.908 0h-10.407zM-29.459 31.245l4.435-3.542-7.65-2.585zM-35.527 33.394l2.853-8.276-8.401 3.394zM-30.083 37.449l4.876 1.851.691-5.08zM-24.315 0l-3.95 8.682 10.314-.499zM-31.082 16.828l2.817-8.146-10.944 1.044zM-17.951 8.183l-10.314.499 6.443 6.141zM-25.024 27.703l-.018-6.028-7.632 3.443zM-25.042 21.675l-6.04-4.847-1.592 8.29zM-25.042 21.675l5.825 4.278 1.375-5.856z"/><path d="M-35.527 33.394l6.068-2.149-3.215-6.127zM-39.134 90.025l2.639 9.975 7.931-9.261zM-40.085 80.274l.951 9.751 8.112-7.515z"/><path d="M-28.564 90.739l-2.458-8.229-8.112 7.515zM17.995 92.006l6.42 7.994 3.938-9.341zM-5.504 76.048l4.414-1.098-2.815-3.86zM4.459 100h9.311l-5.444-8.597zM4.459 100l-4.897-7.691L-5.017 100zM-5.017 100l-4.626-7.703-5.146 7.703zM-9.643 92.297l9.205.012-5.243-5.99z"/><path d="M-9.643 92.297L-5.017 100l4.579-7.691zM20.791 46.093l3.796-2.362-4.347-1.346zM20.791 46.093l-.107 3.581 4.163-1.215zM9.434 8.623L14.508 0H5.211z"/><path d="M9.434 8.623L5.211 0 .51 7.7z"/><path d="M.51 7.7L5.211 0h-9.468zM.51 7.7l-9.184.181 4.268 5.793zM-12.749 14.414l-5.202-6.231-3.871 6.64zM21.725 76.689l6.47-1.931-5.16-4.319zM28.195 74.758l-1.889 7.358 7.292-.361zM34.554 49.343l-5.472 2.893 6.265 3.667zM35.347 55.903l6.73-3.565-7.523-2.995zM29.328 46.223l-.246 6.013 5.472-2.893zM50 64.279l-8.495-3.938-.077 8.412z"/><path d="M33.598 81.755l1.018-9.48-6.421 2.483z"/><path d="M28.195 74.758l6.421-2.483-5.951-4.504zM50 45.163v-9.839l-8.266 3.11zM41.116 45.57l-6.562 3.773 7.523 2.995z"/><path d="M41.116 45.57l-6.583-3.244.021 7.017zM28.964 40.224l-5.074-1.235.697 4.742z"/><path d="M34.533 42.326l-5.205 3.897 5.226 3.12zM29.328 46.223l-4.481 2.236 4.235 3.777z"/><path d="M24.847 48.459l4.481-2.236-4.741-2.492zM39.896 10.454L29.422 9.145l2.956 9.052zM25.075 0l4.347 9.145L36.696 0zM50 0H36.696l3.2 10.454zM50 0L39.896 10.454 50 13.653zM40.904 30.125l-.485-8.954-7.692 6.306zM14.508 0l4.637 8.052L25.075 0zM9.434 8.623l5.907 5.761 3.804-6.332zM19.145 8.052l10.277 1.093L25.075 0zM23.752 15.48l-4.607-7.428-3.804 6.332zM-21.096 70.933l5.26 2.643.285-4.53zM-10.458 64.042l3.315-.852-1.769-1.125zM-19.268 61.914l.764 4.364 2.563-3.23zM-19.268 61.914l.193-3.588-4.308 2.726zM-12.759 61.958l-2.518-2.063-.664 3.153zM-11.07 75.863l2.121 4.947 3.445-4.762zM-8.949 80.81l-6.495-.954 1.679 5.915z"/><path d="M-11.07 75.863l5.566.185-2.136-3.553zM-15.444 79.856l4.374-3.993-4.766-2.287zM-25.042 21.675l3.22-6.852-9.26 2.005z"/><path d="M-21.822 14.823l-6.443-6.141-2.817 8.146zM-8.674 7.881l-9.277.302 5.202 6.231z"/><path d="M-12.749 14.414l-9.073.409 3.98 5.274zM-42.128 37.831l1.053-9.319L-50 32.714zM-42.128 37.831l6.601-4.437-5.548-4.882zM-4.728 67.16l-2.739 1.733 3.562 2.197zM-7.729 65.674l2.7-1.542-2.114-.942zM-2.825 64.731l-2.204-.599.301 3.028zM-2.825 64.731l-1.903 2.429 2.856.609z"/><path d="M-7.467 68.893l-.173 3.602 3.735-1.405zM-4.728 67.16l.823 3.93 2.033-3.321zM21.725 76.689l-5.46 1.971 3.997 6.036zM17.995 92.006l2.267-7.31-7.176.523z"/><path d="M21.725 76.689l-4.011-4.267-1.449 6.238zM20.262 84.696l6.044-2.58-4.581-5.427zM17.995 92.006l10.358-1.347-8.091-5.963zM1.549 85.74l.328-6.597-4.796 1.475zM4.459 100l3.867-8.597-8.764.906zM-.438 92.309l8.764-.906-6.777-5.663zM8.326 91.403L13.77 100l4.225-7.994zM6.908 83.541L1.549 85.74l6.777 5.663zM-.529 19.276L3.146 14.2l-7.552-.526zM4.795 20.899l-5.324-1.623 2.1 5.463zM-25.024 27.703l4.611 3.445 1.196-5.195zM-25.042 21.675l7.2-1.578-3.98-5.274z"/><path d="M39.533 89.992l-5.935-8.237-5.245 8.904zM33.598 81.755l7.798-2.981-6.78-6.499zM33.598 81.755l-7.292.361 2.047 8.543zM28.195 74.758l-6.47 1.931 4.581 5.427zM50 86.487l-10.467 3.505L50 100z"/><path d="M50 86.487l-8.604-7.713-1.863 11.218zM50 74.567l-8.604 4.207L50 86.487zM28.195 74.758l.47-6.987-5.63 2.668z"/><path d="M28.665 67.771l-5.851-2.699.221 5.367zM34.31 63.806l7.118 4.947.077-8.412z"/><path d="M50 64.279l-8.572 4.474L50 74.567z"/><path d="M50 74.567l-8.572-5.814-.032 10.021z"/><path d="M41.396 78.774l.032-10.021-6.812 3.522zM41.116 45.57l.618-7.136-7.201 3.892zM50 25.108l-9.581-3.937.485 8.954zM50 45.163l-8.266-6.729-.618 7.136zM8.923 16.609l6.418-2.225-5.907-5.761zM3.146 14.2l6.288-5.577L.51 7.7zM3.146 14.2l1.649 6.699 4.128-4.29zM-15.551 69.046l4.659-1.647-2.858-1.888zM-24.986 53.135l1.884 3.856 2.735-2.405zM-19.075 58.326l-4.027-1.335-.281 4.061zM-30.25 53.512l-5.713-.581 1.786 6.423zM-30.25 53.512l-3.927 5.842 6.259-1.337zM9.741 64.135l2.661-1.674-2.59-1.115zM7.738 66.349l-.002-3.498-1.886.961z"/><path d="M7.738 66.349l2.003-2.214-2.005-1.284zM5.85 63.812l-2.032.694.73 2.315zM10.919 78.611l2.167 6.608 3.179-6.559z"/><path d="M20.262 84.696l-3.997-6.036-3.179 6.559zM-1.09 74.95l-1.829 5.668 4.796-1.475zM1.877 79.143l4.246-1.682-2.767-3.82zM3.356 73.641l-.262-3.773-3.32 1.036zM1.195 67.415l1.899 2.453 1.454-3.047zM-.226 70.904l-1.646-3.135-2.033 3.321zM15.096 64.476l3.32-1.905-3.597-1.995zM15.096 64.476l3.425 2.726-.105-4.631zM25.426 56.766l3.656-4.53-5.176.43z"/><path d="M25.426 56.766l-1.52-4.1-2.996 3.627zM32.727 27.477l-7.252 2.079 2.723 4.792zM32.727 27.477l-6.248-4.502-1.004 6.581zM16.505 41.937l3.735.448-.907-3.706zM2.94 29.317l2.863-2.914-4.232-1.664zM9.388 23.495l-3.585 2.908 4.704 1.699zM4.795 20.899l1.008 5.504 3.585-2.908zM-21.503 41.082l1.008-4.309-4.712 2.527zM34.31 63.806l-7.025-1.57 1.38 5.535z"/><path d="M34.616 72.275l6.812-3.522-7.118-4.947zM34.31 63.806l1.037-7.903-4.957 2.152zM35.347 55.903l-1.037 7.903 7.195-3.465z"/><path d="M35.347 55.903l6.158 4.438.572-8.003zM50 54.763l-8.495 5.578L50 64.279zM28.964 40.224l5.379-5.03-6.145-.846zM41.734 38.434l-7.391-3.24.19 7.132z"/><path d="M41.734 38.434l-.83-8.309-6.561 5.069z"/><path d="M28.964 40.224l5.569 2.102-.19-7.132zM28.964 40.224l-4.377 3.507 4.741 2.492z"/><path d="M28.964 40.224l.364 5.999 5.205-3.897zM3.146 14.2l5.777 2.409.511-7.986zM4.795 20.899L3.146 14.2l-3.675 5.076zM4.795 20.899l-3.224 3.84 4.232 1.664z"/><path d="M6.983 30.322l-1.18-3.919-2.863 2.914zM15.017 26.176l5.553-.079-1.273-5.457zM26.479 22.975l-5.909 3.122 4.905 3.459z"/><path d="M25.475 29.556l-4.905-3.459-1.444 4.531zM14.447 30.88l-.887 3.828 3.906-.006zM19.126 30.628l-4.679.252 3.019 3.822zM-33.184 74.202l-7.83-3.083.929 9.155zM-41.014 71.119L-50 67.506v9.541z"/><path d="M-33.941 66.598l-7.073 4.521 7.83 3.083zM-26.104 76.345l3.889 7.371 1.866-6.912zM-33.184 74.202l-6.901 6.072 9.063 2.236zM-22.215 83.716l6.771-3.86-4.905-3.052zM-23.091 65.736l-.292-4.684-5.09 2.351zM-17.1 54.955l-3.267-.369 1.292 3.74zM-50 41.943l7.872-4.112L-50 32.714zM-28.351 48.739l-1.472-5.586-4.19 4.304zM1.757 64.897l-2.35.091 1.788 2.427zM1.195 67.415l-1.421 3.489 3.32-1.036z"/><path d="M4.548 66.821l-2.791-1.924-.562 2.518z"/><path d="M1.757 64.897l2.791 1.924-.73-2.315zM5.85 63.812l-1.302 3.009 3.19-.472zM1.877 79.143l5.031 4.398-.785-6.08zM10.919 78.611l-4.011 4.93 6.178 1.678zM6.123 77.461l.785 6.08 4.011-4.93z"/><path d="M1.877 79.143l-.328 6.597 5.359-2.199zM8.326 91.403l9.669.603-4.909-6.787z"/><path d="M8.326 91.403l4.76-6.184-6.178-1.678zM13.951 55.511l3.185-.554-2.512-1.621z"/><path d="M15.494 57.585l1.642-2.628-3.185.554zM20.91 56.293l1.363 4.06 3.153-3.587zM22.273 60.353l-4.059-1.586.202 3.804zM22.286 34.555l3.189-4.999-6.349 1.072z"/><path d="M22.286 34.555l5.912-.207-2.723-4.792zM14.147 40.411l1.655-2.36-3.331-.296zM13.56 34.708l-3.335.965 2.246 2.082zM13.56 34.708l2.242 3.343 1.664-3.349z"/><path d="M16.505 41.937l-2.358-1.526-1.11 2.17zM1.571 24.739l-2.1-5.463-2.663 4.466zM1.571 24.739l-4.763-.997 2.219 4.281zM-.973 28.023l3.913 1.294-1.369-4.578zM-12.749 14.414l.764 6.074 5.363-1.492z"/><path d="M-17.842 20.097l5.857.391-.764-6.074zM-19.217 25.953l4.105 4.106 1.172-4.669zM27.285 62.236l7.025 1.57-3.92-5.751zM34.31 63.806l-5.645 3.965 5.951 4.504zM25.426 56.766l1.859 5.47 3.105-4.181zM22.814 65.072l5.851 2.699-1.38-5.535z"/><path d="M22.273 60.353l5.012 1.883-1.859-5.47zM23.89 38.989l4.308-4.641-5.912.207z"/><path d="M23.89 38.989l-1.604-4.434-2.953 4.124zM10.511 32.189l3.936-1.309-3.94-2.778z"/><path d="M10.511 32.189l-.004-4.087-3.524 2.22zM-21.096 70.933l-1.995-5.197-4.218 3.946zM-26.104 76.345l-4.918 6.165 8.807 1.206zM-21.096 70.933l.747 5.871 4.513-3.228z"/><path d="M-21.096 70.933l-5.008 5.412 5.755.459zM-20.349 76.804l4.905 3.052-.392-6.28zM-28.564 90.739l6.349-7.023-8.807-1.206z"/><path d="M-22.215 83.716l-6.349 7.023 9.502.723zM-26.104 76.345l-7.08-2.143 2.162 8.308zM-23.091 65.736l-5.382-2.333 1.164 6.279zM-27.918 58.017l4.535 3.035.281-4.061zM-28.473 63.403l.555-5.386-6.259 1.337zM-33.941 66.598l5.468-3.195-5.704-4.049zM-21.096 70.933l2.592-4.655-4.587-.542zM-21.096 70.933l5.545-1.887-2.953-2.768z"/><path d="M-19.268 61.914l-3.823 3.822 4.587.542z"/><path d="M-23.091 65.736l3.823-3.822-4.115-.862zM-13.75 65.511l.991-3.553-3.182 1.09zM-18.504 66.278l4.754-.767-2.191-2.463zM-15.551 69.046l1.801-3.535-4.754.767zM-10.458 64.042l-3.292 1.469 2.858 1.888z"/><path d="M-13.75 65.511l3.292-1.469-2.301-2.084zM-7.729 65.674l-2.729-1.632-.434 3.357zM-7.729 65.674l3.001 1.486-.301-3.028z"/><path d="M-10.458 64.042l2.729 1.632.586-2.484zM-7.729 65.674l.262 3.219 2.739-1.733zM-13.178 57.165l-2.716.191.617 2.539zM-17.1 54.955l-.432-2.801-2.835 2.432zM-23.842 48.836l4.079-1.036-1.923-2.648zM-41.495 46.593l5.706-5.501-6.339-3.261zM-35.789 41.092l.262-7.698-6.601 4.437zM-35.527 33.394l-.262 7.698 5.706-3.643zM-25.375 44.299l-2.976 4.44 4.509.097z"/><path d="M-28.351 48.739l2.976-4.44-4.448-1.146zM-24.986 53.135l-5.264.377 2.332 4.505zM15.096 64.476l-.713 4.362 4.138-1.636zM18.521 67.202l-.807 5.22 5.321-1.983z"/><path d="M18.521 67.202l-4.138 1.636 3.331 3.584zM12.852 73.487l-4.63-.105 2.697 5.229zM12.852 73.487l3.413 5.173 1.449-6.238z"/><path d="M14.383 68.838l-1.531 4.649 4.862-1.065zM6.392 69.858l-1.844-3.037-1.454 3.047z"/><path d="M4.548 66.821l1.844 3.037 1.346-3.509zM14.953 51.188l2.366.179-2.352-2.356z"/><path d="M14.624 53.336l2.695-1.969-2.366-.179zM13.56 34.708l-1.089 3.047 3.331.296zM-6.622 18.996l3.43 4.746 2.663-4.466z"/><path d="M-6.622 18.996l6.093.28-3.877-5.602zM-8.332 24.324l1.71-5.328-5.363 1.492z"/><path d="M-8.332 24.324l5.14-.582-3.43-4.746zM-13.94 25.39l1.955-4.902-5.857-.391z"/><path d="M-19.217 25.953l5.277-.563-3.902-5.293zM-20.495 36.773l.082-5.625-4.103 3.072zM-21.503 41.082l-3.704-1.782-.168 4.999z"/><path d="M-25.207 39.3l4.712-2.527-4.021-2.553zM-20.413 31.148l5.301-1.089-4.105-4.106zM-17.334 33.875l3.696.576-1.474-4.392zM-25.024 27.703l5.807-1.75-5.825-4.278z"/><path d="M-17.334 33.875l2.222-3.816-5.301 1.089zM24.587 43.731l-.697-4.742-3.65 3.396zM28.198 34.348l-4.308 4.641 5.074 1.235zM19.333 38.679l-1.867-3.977-1.664 3.349z"/><path d="M16.505 41.937l2.828-3.258-3.531-.628zM-27.309 69.682l-5.875 4.52 7.08 2.143zM-33.941 66.598l6.632 3.084-1.164-6.279z"/><path d="M-27.309 69.682l-6.632-3.084.757 7.604zM-21.096 70.933l-6.213-1.251 1.205 6.663zM-33.941 66.598l-.236-7.244-6.861 3.397zM-41.014 71.119l7.073-4.521-7.097-3.847zM-12.034 58.954l-3.243.941 2.518 2.063zM-12.034 58.954l-1.144-1.789-2.099 2.73zM-24.986 53.135l4.158-1.896-3.014-2.403zM-18.624 43.842l.712-3.584-3.591.824zM-35.963 52.931l5.713.581-3.763-6.055z"/><path d="M-34.177 59.354l-7.739-4.372.878 7.769zM-41.495 46.593L-50 41.943v8.391zM-34.013 47.457l-1.776-6.365-5.706 5.501zM-35.527 33.394l5.444 4.055.624-6.204zM-35.789 41.092l5.966 2.061-.26-5.704zM7.738 66.349l3.972-.276-1.969-1.938z"/><path d="M11.71 66.073l-1.531 3.339 4.204-.574zM15.096 64.476l-3.386 1.597 2.673 2.765z"/><path d="M9.741 64.135l1.969 1.938.692-3.612zM12.852 73.487l-1.933 5.124 5.346.049zM12.402 62.461l-.889-2.846-1.701 1.731zM9.741 64.135l.071-2.789-2.076 1.505zM10.225 35.673l-2.566-1.61.065 3.078z"/><path d="M7.659 34.063l-2.092 2.008 2.157 1.07zM17.575 48.082l-.256 3.285 3.365-1.693z"/><path d="M20.684 49.674l-3.365 1.693 2.571 1.684zM13.037 42.581l1.11-2.17-2.645-.039zM-10.411 28.36l4.882-.811-2.803-3.225zM-5.529 27.549l1.876 2.937 2.68-2.463zM-10.411 28.36l-3.529-2.97-1.172 4.669z"/><path d="M-11.14 32.186l.729-3.826-4.701 1.699zM-12.796 37.922l-.842-3.471-2.482 2.944zM-11.14 32.186l.525 3.766 2.312-1.617zM-10.526 60.687l.068 3.355 1.546-1.977zM-10.458 64.042l-.068-3.355-2.233 1.271zM-10.526 60.687l-1.508-1.733-.725 3.004z"/><path d="M-12.796 37.922l2.181-1.97-3.023-1.501zM-17.334 33.875l1.214 3.52 2.482-2.944zM-50 58.911l8.084-3.929L-50 50.334z"/><path d="M-34.177 59.354l-1.786-6.423-5.953 2.051z"/><path d="M-41.495 46.593L-50 50.334l8.084 4.648zM-41.916 54.982l5.953-2.051-5.532-6.338zM3.356 73.641l3.036-3.783-3.298.01zM6.123 77.461l2.099-4.079-4.866.259zM6.123 77.461l4.796 1.15-2.697-5.229zM-14.742 52.771l-2.79-.617.432 2.801zM-18.624 43.842l2.816-.77-2.104-2.814zM-10.615 35.952l2.461 1.458-.149-3.075zM-10.095 38.906l-.52-2.954-2.181 1.97zM-7.495 30.901l3.842-.415-1.876-2.937z"/><path d="M-3.192 23.742l-5.14.582 2.803 3.225zM17.575 48.082l3.109 1.592.107-3.581zM14.967 49.011l2.352 2.356.256-3.285zM14.967 49.011l2.608-.929-2.934-1.342zM14.641 46.74l2.934 1.342-.41-3.125zM-.973 28.023l-2.68 2.463 3.527 1.195z"/><path d="M-5.529 27.549l4.556.474-2.219-4.281zM-2.503 33.128l2.377-1.447-3.527-1.195zM6.983 30.322L2.94 29.317l2.051 3.528zM6.983 30.322l-1.992 2.523 2.668 1.218zM-14.149 54.98l-.593-2.209-2.358 2.184zM-15.894 57.356l1.745-2.376-2.951-.025z"/><path d="M-13.178 57.165l-.971-2.185-1.745 2.376zM-8.154 37.41l2.096-1.132-2.245-1.943zM-10.615 35.952l.52 2.954 1.941-1.496zM-14.528 40.382l-1.592-2.987-1.792 2.863z"/><path d="M-16.12 37.395l1.592 2.987 1.732-2.46z"/><path d="M-14.528 40.382l-1.28 2.69 2.614-.207z"/><path d="M-15.808 43.072l1.28-2.69-3.384-.124zM-2.503 33.128l-1.234 2.345 2.608-.43zM-.126 31.681l2.467.998.599-3.362zM-.126 31.681l3.066-2.364-3.913-1.294z"/><path d="M3.388 35.388l-1.047-2.709-1.358 2.353z"/><path d="M2.341 32.679l-2.467-.998 1.109 3.351zM2.341 32.679l2.65.166-2.051-3.528zM4.991 32.845l-1.603 2.543 2.179.683zM-15.808 43.072l1.56 2.238 1.054-2.445zM-14.995 50.401l.146-2.521-2.536 1.495zM-14.742 52.771l-.253-2.37-2.537 1.753zM-11.783 40.718l1.688-1.812-2.701-.984zM-11.783 40.718l-2.745-.336 1.334 2.483z"/><path d="M-14.528 40.382l2.745.336-1.013-2.796zM-5.504 33.393l3.001-.265-1.15-2.642z"/><path d="M-5.504 33.393l1.851-2.907-3.842.415zM-3.737 35.473l-1.767-2.08-.554 2.885zM-5.504 33.393l1.767 2.08 1.234-2.345zM-16.872 46.232l1.064-3.16-2.816.77zM-14.849 47.88l-2.023-1.648-.513 3.143z"/><path d="M-14.248 45.31l-2.624.922 2.023 1.648z"/><path d="M-16.872 46.232l2.624-.922-1.56-2.238zM-11.554 70.974l3.914 1.521.173-3.602zM-1.09 74.95l-4.414 1.098 2.585 4.57z"/><path d="M-11.07 75.863l3.43-3.368-3.914-1.521zM1.549 85.74l-4.468-5.122-2.762 5.701zM-.438 92.309l1.987-6.569-7.23.579zM24.847 48.459l-.941 4.207 5.176-.43zM23.906 52.666l.941-4.207-4.163 1.215z"/><path d="M29.082 52.236l-3.656 4.53 4.964 1.289z"/><path d="M29.082 52.236l1.308 5.819 4.957-2.152zM26.479 22.975l6.248 4.502-.349-9.28zM32.727 27.477l-4.529 6.871 6.145.846zM-29.459 31.245l4.943 2.975-.508-6.517z"/><path d="M-29.459 31.245l-.624 6.204 5.567-3.229zM9.434 8.623l9.711-.571L14.508 0z"/><path d="M23.752 15.48l5.67-6.335-10.277-1.093zM23.752 15.48l-8.411-1.096 3.956 6.256zM26.479 22.975l-7.182-2.335 1.273 5.457z"/><path d="M23.752 15.48l-4.455 5.16 7.182 2.335zM-17.1 54.955l-1.975 3.371 3.181-.97z"/><path d="M-19.075 58.326l-1.292-3.74-2.735 2.405zM-5.504 76.048l1.599-4.958-3.735 1.405zM1.877 79.143l1.479-5.502-4.446 1.309zM17.136 54.957l3.774 1.336-1.02-3.242z"/><path d="M19.89 53.051l1.02 3.242 2.996-3.627zM8.923 16.609l4.578 4.315 1.84-6.54z"/><path d="M8.923 16.609l.465 6.886 4.113-2.571z"/><path d="M8.923 16.609l-4.128 4.29 4.593 2.596zM15.017 26.176l4.28-5.536-5.796.284zM13.501 20.924l5.796-.284-3.956-6.256zM15.017 26.176l-.57 4.704 4.679-.252z"/><path d="M15.017 26.176l4.109 4.452 1.444-4.531zM-19.268 61.914l3.327 1.134.664-3.153z"/><path d="M-19.268 61.914l3.991-2.019-3.798-1.569zM-19.075 58.326l3.798 1.569-.617-2.539zM-1.872 67.769l3.067-.354-1.788-2.427z"/><path d="M-1.872 67.769l1.279-2.781-2.232-.257zM-1.872 67.769l1.646 3.135 1.421-3.489zM14.819 60.576l3.597 1.995-.202-3.804z"/><path d="M14.819 60.576l3.395-1.809-2.72-1.182zM22.273 60.353l.541 4.719 4.471-2.836z"/><path d="M22.814 65.072l-.541-4.719-3.857 2.218zM20.91 56.293l-3.774-1.336 1.078 3.81z"/><path d="M20.91 56.293l-2.696 2.474 4.059 1.586zM22.286 34.555l-4.82.147 1.867 3.977z"/><path d="M22.286 34.555l-3.16-3.927-1.66 4.074zM10.507 28.102l3.94 2.778.57-4.704z"/><path d="M9.388 23.495l1.119 4.607 4.51-1.926z"/><path d="M9.388 23.495l5.629 2.681-1.516-5.252zM-23.102 56.991l-1.884-3.856-2.932 4.882zM-27.918 58.017l-.555 5.386 5.09-2.351zM-7.467 68.893l-.262-3.219-3.163 1.725z"/><path d="M-7.467 68.893l-3.425-1.494-.662 3.575z"/><path d="M-10.892 67.399l-4.659 1.647 3.997 1.928zM-23.842 48.836l2.156-3.684-3.689-.853z"/><path d="M-21.503 41.082l-3.872 3.217 3.689.853zM-34.013 47.457l4.19-4.304-5.966-2.061zM-30.25 53.512l1.899-4.773-5.662-1.282zM-24.986 53.135l1.144-4.299-4.509-.097z"/><path d="M-28.351 48.739l-1.899 4.773 5.264-.377zM22.814 65.072l-4.293 2.13 4.514 3.237z"/><path d="M18.521 67.202l4.293-2.13-4.398-2.501zM10.179 69.412l-2.441-3.063-1.346 3.509z"/><path d="M7.738 66.349l2.441 3.063 1.531-3.339zM15.494 57.585l2.72 1.182-1.078-3.81zM12.798 57.824l-1.285 1.791 3.306.961z"/><path d="M15.494 57.585l-1.543-2.074-1.153 2.313zM17.136 54.957l.183-3.59-2.695 1.969zM17.136 54.957l2.754-1.906-2.571-1.684zM12.471 37.755l-2.744.826 1.775 1.791zM14.147 40.411l2.358 1.526-.703-3.886zM12.471 37.755l-.969 2.617 2.645.039zM6.983 30.322l3.524-2.22-4.704-1.699zM10.511 32.189l3.049 2.519.887-3.828z"/><path d="M13.56 34.708l-3.049-2.519-.286 3.484zM17.165 44.957l.41 3.125 3.216-1.989z"/><path d="M17.165 44.957l3.626 1.136-.551-3.708zM-12.749 14.414l6.127 4.582 2.216-5.322z"/><path d="M-12.749 14.414l8.343-.74-4.268-5.793zM-20.495 36.773l3.161-2.898-3.079-2.727zM-20.413 31.148l-4.611-3.445.508 6.517zM20.24 42.385l3.65-3.396-4.557-.31zM16.505 41.937l.66 3.02 3.075-2.572zM-19.763 47.8l-1.065 3.439 3.443-1.864z"/><path d="M-19.763 47.8l-4.079 1.036 3.014 2.403zM-20.367 54.586l-.461-3.347-4.158 1.896z"/><path d="M-20.367 54.586l2.835-2.432-3.296-.915zM-18.624 43.842l-2.879-2.76-.183 4.07zM-18.624 43.842l-3.062 1.31 1.923 2.648zM-41.495 46.593l-.633-8.762L-50 41.943zM-41.495 46.593l5.532 6.338 1.95-5.474zM-25.207 39.3l-4.876-1.851.26 5.704zM-25.207 39.3l-4.616 3.853 4.448 1.146zM10.179 69.412l2.673 4.075 1.531-4.649z"/><path d="M10.179 69.412l-1.957 3.97 4.63.105zM12.798 57.824l2.021 2.752.675-2.991zM15.096 64.476l-.277-3.9-2.417 1.885z"/><path d="M14.819 60.576l-3.306-.961.889 2.846zM15.096 64.476l-2.694-2.015-.692 3.612zM10.225 35.673l-2.501 1.468 2.003 1.44zM9.727 38.581l2.744-.826-2.246-2.082zM23.906 52.666l-3.222-2.992-.794 3.377zM20.791 46.093l4.056 2.366-.26-4.728zM-15.112 30.059l1.474 4.392 2.498-2.265zM-13.638 34.451l3.023 1.501-.525-3.766zM-17.912 40.258l-2.583-3.485-1.008 4.309z"/><path d="M-20.495 36.773l4.375.622-1.214-3.52z"/><path d="M-20.495 36.773l2.583 3.485 1.792-2.863zM3.356 73.641l-3.582-2.737-.864 4.046zM-1.09 74.95l.864-4.046-3.679.186z"/><path d="M8.222 73.382l-1.83-3.524-3.036 3.783zM8.222 73.382l1.957-3.97-3.787.446zM16.505 41.937l-3.468.644.932 1.955zM16.505 41.937l-2.536 2.599 3.196.421zM14.641 46.74l2.524-1.783-3.196-.421zM-10.411 28.36l-.729 3.826 3.645-1.285z"/><path d="M-10.411 28.36l2.916 2.541 1.966-3.352zM-8.332 24.324l-3.653-3.836-1.955 4.902z"/><path d="M-8.332 24.324l-5.608 1.066 3.529 2.97zM-1.129 35.043l1.003-3.362-2.377 1.447zM-1.129 35.043l2.112-.011-1.109-3.351zM6.983 30.322l.676 3.741 2.852-1.874z"/><path d="M5.567 36.071l2.092-2.008-2.668-1.218zM7.659 34.063l2.566 1.61.286-3.484zM4.991 32.845l-2.65-.166 1.047 2.709zM-17.532 52.154l.147-2.779-3.443 1.864zM-17.532 52.154l2.537-1.753-2.39-1.026zM-8.303 34.335l.808-3.434-3.645 1.285zM-8.303 34.335l2.245 1.943.554-2.885zM-8.303 34.335l2.799-.942-1.991-2.492zM-19.763 47.8l2.891-1.568-1.752-2.39zM-19.763 47.8l2.378 1.575.513-3.143z"/></svg>