<svg xmlns="http://www.w3.org/2000/svg" viewBox="-33.333 0 100 66.667"><style>path{fill:none;stroke:#969696;stroke-width:.5;stroke-linejoin:bevel}</style><path d="M-19.116 54.496l1.694-3.025-3.411.022zM6.431 45.415l-1.716-3.023-1.697 3.021z"/><path d="M4.715 42.392l1.716 3.023 1.7-3.022zM-10.334 63.594l-1.558 3.073h3.321zM3.144 63.615l1.667-3.044-3.386-.005zM-.397 45.412l1.723 3.024 1.692-3.023z"/><path d="M4.736 48.438l1.695-3.023-3.413-.002zM1.326 48.436l3.41.002-1.718-3.025zM4.851 66.667l-1.707-3.052-1.661 3.052zM-33.333 54.635l2.667 3.023 1.003-3.04zM-30.666 57.658l-2.667-3.023v3.048zM-27.089 63.538l-.626 3.129h2.979z"/><path d="M-27.715 66.667l.626-3.129-3.244-.017zM-19.116 54.496l3.436-.013-1.742-3.012zM-15.68 54.483l1.674-3.023-3.416.011zM-14.006 51.46l-1.674 3.023 3.422-.004zM-30.666 9.008l-2.667 3.024 3.67.016z"/><path d="M-33.333 12.032l2.667-3.024-2.667-.025zM-17.481 21.233l1.673 3.028 1.742-3.016zM-15.808 24.261l3.426.009-1.684-3.025zM9.903 3.048L11.6 0H8.224zM-.358 15.206l1.684 3.025 1.723-3.028zM1.326 18.231l-1.684-3.025-1.728 3.027zM31.85 66.667h3.362l-1.648-3.056z"/><path d="M30.189 63.615l1.661 3.052 1.714-3.056zM9.903 63.619l1.682-3.043-3.387-.002zM38.565 66.667h3.339l-1.6-3.066zM51.773 66.667h3.193l-1.226-3.108zM37.171 39.371l3.42.001-1.702-3.02zM1.326 18.231l-1.723 3.024 3.415-.002zM-.397 21.255l1.723-3.024-3.412.002zM3 27.295l-3.419.001 1.705 3.019z"/><path d="M-.419 27.296l-1.715 3.019h3.42zM1.286 30.315h-3.42l1.708 3.018zM6.418 39.372l-1.703 3.02 3.416.001zM-12.121 60.54l3.39.008-1.76-3.041zM-12.121 60.54l1.787 3.054 1.603-3.046zM6.486 57.533l-1.675 3.038 3.387.003zM1.326 48.436l-3.412-.003 1.728 3.027z"/><path d="M-.397 45.412l-1.689 3.021 3.412.003z"/><path d="M-2.086 48.433l1.689-3.021-3.416-.001zM4.715 42.392l-3.416-.001 1.719 3.022z"/><path d="M1.299 42.391l-1.696 3.021 3.415.001zM3.049 51.464l-1.723-3.028-1.684 3.024zM3.049 51.464l1.72 3.032 1.685-3.029z"/><path d="M3.049 51.464l1.687-3.026-3.41-.002z"/><path d="M4.736 48.438l-1.687 3.026 3.405.003zM-.301 57.524l-1.732-3.037-1.663 3.031zM-1.879 66.667l-1.724-3.06-1.628 3.06zM-8.731 60.548l1.76 3.053 1.626-3.046zM-5.231 66.667l-1.74-3.066-1.6 3.066z"/><path d="M-6.971 63.601l-3.363-.007 1.763 3.073z"/><path d="M-10.334 63.594l3.363.007-1.76-3.053zM-3.603 63.607l-3.368-.006 1.74 3.066z"/><path d="M-6.971 63.601l3.368.006-1.742-3.052zM-1.96 60.561l1.659-3.037-3.395-.006z"/><path d="M-1.96 60.561l-1.736-3.043-1.649 3.037zM-.301 57.524l-1.659 3.037 3.385.005zM-3.603 63.607l1.643-3.046-3.385-.006zM9.903 63.619l-1.679 3.048H11.6zM-30.535 66.667l-2.798-2.962v2.962zM-33.333 63.705l2.798 2.962.202-3.146z"/><path d="M-30.535 66.667h2.82l-2.618-3.146zM-27.472 57.583l1.391-3.021-3.582.056z"/><path d="M-30.666 57.658l3.194-.075-2.191-2.965zM-33.333 60.718v2.987l3-.184zM-33.333 60.718l2.667-3.06-2.667.025zM-21.633 66.667l-2.125-3.123-.978 3.123z"/><path d="M-23.758 63.544l-3.331-.006 2.353 3.129zM-27.563 33.333h-3.111l.972 3.043zM-30.674 33.333l-2.659-3.044v3.044zM-33.333 36.377l2.659-3.044h-2.659z"/><path d="M-30.674 33.333l-2.659 3.044 3.631-.001zM-33.333 36.377l2.66 3.043.971-3.044z"/><path d="M-30.673 39.42l-2.66-3.043v3.044z"/><path d="M-33.333 42.465l2.66-3.045-2.66.001zM-30.673 39.42l-2.66 3.045 3.634-.004zM-15.824 36.358l-3.428.005 1.746 3.024z"/><path d="M-19.252 36.363l3.428-.005-1.689-3.025zM1.326 18.231l3.41-.003-1.687-3.025z"/><path d="M4.736 18.228l-3.41.003 1.692 3.022zM-29.699 24.205l-.973-3.046-2.661 3.043z"/><path d="M-30.672 21.159l-2.661-.001v3.044zM-22.682 24.232l-1.587 3.028 3.366.01z"/><path d="M-24.269 27.26l1.587-3.028-3.475-.015zM-24.258 21.192l1.576 3.04 1.798-3.018z"/><path d="M-22.682 24.232l-1.576-3.04-1.899 3.025zM-15.824 36.358l1.721-3.025h-3.41zM-15.824 30.308l-3.428-.004 1.739 3.029z"/><path d="M-14.103 33.333l-1.721-3.025-1.689 3.025z"/><path d="M-15.824 30.308l1.721 3.025 1.703-3.021zM-18.439 66.667h3.254l-1.866-3.094zM-7.092 57.513l-1.639 3.035 3.386.007z"/><path d="M-8.731 60.548l1.639-3.035-3.399-.006zM-3.696 57.518l-3.396-.005 1.747 3.042zM-18.935 60.529l-1.775-3.014-1.674 3.017zM-22.577 54.521l3.461-.025-1.717-3.003zM-22.577 54.521l1.867 2.994 1.594-3.019zM-19.202 48.464l-3.452.025 1.821 3.004zM-17.422 51.471l-1.78-3.007-1.631 3.029zM-26.157 42.45l3.475-.016-1.587-3.027z"/><path d="M-22.682 42.434l-3.475.016 1.899 3.025zM-2.119 42.39l3.418.001-1.718-3.02z"/><path d="M-.397 45.412l-1.722-3.022-1.694 3.021z"/><path d="M1.299 42.391l-3.418-.001 1.722 3.022zM-6.971 3.066L-5.231 0h-3.34zM-24.736 0h-2.979l.626 3.129zM-30.666 9.008l-2.667-3.059v3.034zM-22.682 24.232l3.443.016-1.645-3.034zM-19.239 24.248l-3.443-.016 1.779 3.038z"/><path d="M-17.481 21.233l-1.758 3.015 3.431.013z"/><path d="M-19.239 24.248l1.758-3.015-3.403-.019zM-7.258 27.295l-1.719 3.019 3.422.001zM11.6 0l1.684 3.047L14.978 0z"/><path d="M9.903 3.048l3.381-.001L11.6 0zM-.358 15.206l-3.408.004 1.68 3.023zM1.483 0l1.661 3.052L4.851 0zM35.42 48.433l1.726-3.022-3.416.001zM30.189 63.615l-1.707 3.052h3.368zM13.284 63.62l-3.381-.001 1.697 3.048z"/><path d="M13.284 63.62L11.6 66.667h3.378zM13.284 63.62l-1.699-3.044-1.682 3.043zM2.994 33.333l-1.708-3.018-1.712 3.018zM1.286 36.352l1.708-3.019h-3.42zM2.994 33.333l-1.708 3.019h3.419z"/><path d="M6.413 33.333H2.994l1.711 3.019zM58.07 66.667h2.978l-.626-3.129zM54.966 66.667l2.125-3.123-3.351.015zM57.091 63.544l.979 3.123 2.352-3.129zM58.07 66.667l-.979-3.123-2.125 3.123zM43.824 57.507l1.63 3.033 1.772-3.036zM45.454 60.54l3.398-.007-1.626-3.029zM53.74 3.108L54.966 0h-3.193zM63.868 0l2.799 2.962V0zM63.999 9.008l2.668-.025V5.949zM52.449 12.171l-1.816-3.01-1.62 3.023zM26.811 3.05L28.482 0h-3.373zM-.397 21.255l1.696 3.021 1.719-3.023zM3 27.295l-1.701-3.019-1.718 3.02zM1.369 12.175l-1.727 3.031 3.407-.003zM6.486 9.134l1.683 3.034L9.88 9.131zM11.555 18.225l-1.696-3.028-1.713 3.029zM11.568 54.501l1.705 3.036 1.694-3.035zM6.431 45.415l3.412.002-1.712-3.024zM14.963 48.443l1.704 3.028 1.704-3.028zM-15.68 54.483l1.787 3.021 1.635-3.025zM-12.258 54.479l-1.635 3.025 3.402.003zM-13.893 57.504l1.772 3.036 1.63-3.033zM3.093 57.529l-3.394-.005 1.726 3.042z"/><path d="M4.811 60.571l-1.718-3.042-1.668 3.037z"/><path d="M6.486 57.533l-3.393-.004 1.718 3.042z"/><path d="M3.093 57.529l3.393.004-1.717-3.037zM1.286 36.352L3 39.371l1.705-3.019zM3 39.371l-1.714-3.019-1.705 3.019z"/><path d="M3 39.371l3.418.001-1.713-3.02zM6.418 39.372L3 39.371l1.715 3.021z"/><path d="M3 39.371l-1.701 3.02 3.416.001zM1.299 42.391L3 39.371H-.419zM-3.766 51.457l1.733 3.03 1.675-3.027z"/><path d="M-2.086 48.433l-1.68 3.024 3.408.003zM3.144 63.615l-3.375-.004 1.714 3.056z"/><path d="M-.231 63.611l-1.648 3.056h3.362zM-.231 63.611l3.375.004-1.719-3.049z"/><path d="M-1.879 66.667l1.648-3.056-3.372-.004zM-.231 63.611l-1.729-3.05-1.643 3.046zM-1.96 60.561l1.729 3.05 1.656-3.045zM4.811 60.571l1.711 3.046 1.676-3.043zM6.522 63.617l3.381.002-1.705-3.045z"/><path d="M6.522 63.617l-1.711-3.046-1.667 3.044zM4.851 66.667l1.671-3.05-3.378-.002zM8.224 66.667l-1.702-3.05-1.671 3.05zM6.522 63.617l1.702 3.05 1.679-3.048zM-29.531 60.601l2.059-3.018-3.194.075zM-27.089 63.538l-2.442-2.937-.802 2.92z"/><path d="M-33.333 60.718l3.802-.117-1.135-2.943z"/><path d="M-29.531 60.601l-3.802.117 3 2.803zM-26.081 54.562l-1.46-2.998-2.122 3.054zM-29.702 30.291l2.139 3.042 1.401-3.039z"/><path d="M-27.563 33.333l-2.139-3.042-.972 3.042zM-29.702 30.291l-3.631-.002 2.659 3.044zM-30.673 39.42l3.111-.005-2.14-3.039z"/><path d="M-27.562 39.415l-3.111.005.974 3.041zM-27.562 39.415l1.405 3.035 1.888-3.043zM-26.157 42.45l-1.405-3.035-2.137 3.046z"/><path d="M-27.557 45.495l1.4-3.045-3.542.011zM-26.157 42.45l-1.4 3.045 3.299-.02zM-19.252 30.304l-1.656 3.029h3.395zM-20.908 33.333l1.656 3.03 1.739-3.03zM-30.672 21.159l-2.661-3.044v3.043zM-14.095 27.288l1.713-3.018-3.426-.009zM-14.095 27.288l-1.729 3.02 3.424.004zM-10.334 63.594l-3.36-.01 1.802 3.083zM-12.121 60.54l-1.573 3.044 3.36.01zM-15.185 66.667l1.491-3.083-3.357-.011zM-13.694 63.584l-1.491 3.083h3.293zM-8.845 54.48l-3.413-.001 1.767 3.028zM-7.092 57.513l-1.753-3.033-1.646 3.027zM-18.439 66.667l-1.967-3.108-1.227 3.108zM-23.758 63.544l3.352.015-1.978-3.027zM-20.406 63.559l1.967 3.108 1.388-3.094zM-20.406 63.559l-3.352-.015 2.125 3.123z"/><path d="M-18.935 60.529l-1.471 3.03 3.355.014zM-20.406 63.559l1.471-3.03-3.449.003z"/><path d="M-20.71 57.515l-3.403.026 1.729 2.991zM-27.472 57.583l3.359-.042-1.968-2.979z"/><path d="M-22.577 54.521l-1.536 3.02 3.403-.026z"/><path d="M-24.113 57.541l1.536-3.02-3.504.041zM-19.252 36.363l-1.651 3.033 3.397-.009zM-22.682 42.434l1.779-3.038-3.366.011zM-19.202 48.464l-1.682-3.012-1.77 3.037z"/><path d="M-22.654 48.489l1.77-3.037-3.374.023zM-20.884 45.452l1.682 3.012 1.721-3.03zM-20.884 45.452l-1.798-3.018-1.576 3.041zM-2.119 42.39h-3.419l1.725 3.021z"/><path d="M-5.538 42.39l-1.692 3.021h3.417zM-12.4 36.355l-1.703-3.022-1.721 3.025zM-3.846 33.333l1.712-3.018h-3.421zM-2.134 30.315l-1.712 3.018h3.42zM-19.202 48.464l3.436-.017-1.715-3.013zM-14.006 51.46l-1.76-3.013-1.656 3.024z"/><path d="M-15.766 48.447l-3.436.017 1.78 3.007zM-12.339 48.437l-3.427.01 1.76 3.013zM-12.339 48.437l3.421-.004-1.73-3.019zM-8.918 48.433l1.688-3.022-3.418.003zM-20.406 3.108L-18.439 0h-3.194zM-11.892 0l1.558 3.073L-8.571 0zM-10.334 3.073l3.363-.007L-8.571 0zM-33.333 2.962L-30.535 0h-2.798zM-7.258 27.295l1.72-3.019-3.421-.002zM-5.538 24.276l-1.692-3.02-1.729 3.018zM-10.648 21.252l-1.734 3.018 3.423.004z"/><path d="M-12.382 24.27l1.734-3.018-3.418-.007zM-10.648 21.252l3.418.004-1.688-3.022zM-7.23 21.256l-3.418-.004 1.689 3.022zM11.585 6.091l1.699-3.044-3.381.001zM-7.23 21.256l1.729-3.021-3.417-.001z"/><path d="M-8.918 18.234l3.417.001-1.676-3.023zM-3.766 15.21l-1.735 3.025 3.415-.002zM-5.501 18.235l1.735-3.025-3.411.002zM6.522 3.05l3.381-.002L8.224 0z"/><path d="M6.522 3.05L8.224 0H4.851zM3.144 3.052l3.378-.002L4.851 0zM33.635 57.524l1.658 3.037 1.736-3.043zM37.1 51.457l-1.68-3.024-1.729 3.027zM35.293 60.561l3.385-.006-1.649-3.037zM40.6 33.333h-3.421l1.71 3.019zM37.179 33.333H40.6l-1.711-3.018zM26.847 57.533l1.675 3.038 1.719-3.042zM28.522 60.571l-1.711 3.046 3.378-.002zM26.811 63.617l1.671 3.05 1.707-3.052zM28.482 66.667l-1.671-3.05-1.702 3.05zM4.705 30.314L3 27.295l-1.714 3.02zM4.705 30.314l1.708 3.019 1.71-3.019z"/><path d="M4.705 30.314l-1.711 3.019h3.419z"/><path d="M2.994 33.333l1.711-3.019-3.419.001zM63.999 57.658l2.668 3.06v-3.035zM66.667 63.705l-2.799 2.962h2.799zM51.773 66.667l-1.388-3.094-1.866 3.094z"/><path d="M50.385 63.573l1.388 3.094 1.967-3.108zM50.385 63.573l1.883-3.044-3.416.004zM52.268 60.529l-1.883 3.044 3.355-.014zM41.904 66.667l1.764-3.073-3.364.007zM59.473 18.146l1.402-3.044-3.32.04zM60.875 15.102l-1.402 3.044 3.552-.025zM52.585 36.363l-1.739-3.03-1.689 3.025zM54.236 27.27l3.366-.01-1.586-3.028zM56.024 30.299l-1.788-3.029-1.651 3.034z"/><path d="M54.236 27.27l1.788 3.029 1.578-3.039zM47.028 3.082L48.519 0h-3.294zM40.304 3.066L41.904 0h-3.339zM63.999 9.008l2.668 3.024V8.983zM53.74 3.108l-1.472 3.03 3.45-.003zM50.633 9.161l1.635-3.023-3.416-.004zM43.824 9.159l-1.76-3.04-1.639 3.035zM47.226 9.162l3.407-.001-1.781-3.027z"/><path d="M50.633 9.161l-3.407.001 1.787 3.022zM37.029 9.148l1.742 3.036 1.654-3.03zM20.049 3.047L21.733 0h-3.377zM21.748 6.091l-1.699-3.044-1.688 3.043zM16.667 3.047L18.356 0h-3.378zM13.284 3.047h3.383L14.978 0z"/><path d="M16.667 3.047h3.382L18.356 0zM20.049 3.047h-3.382l1.694 3.043zM32.007 18.231l1.684-3.025-3.406-.003zM33.691 15.206l-1.726-3.031-1.68 3.028zM42.311 36.353l-1.711-3.02-1.711 3.019zM40.591 39.372l1.72-3.019-3.422-.001z"/><path d="M40.6 33.333l1.711 3.02 1.709-3.02z"/><path d="M42.311 36.353l3.422.002-1.713-3.022zM45.733 36.355l1.703-3.022H44.02z"/><path d="M50.846 33.333h-3.41l1.721 3.025z"/><path d="M47.436 33.333l-1.703 3.022 3.424.003zM9.843 21.25l1.712-3.025-3.409.001zM4.715 24.275l-3.416.001L3 27.295z"/><path d="M1.299 24.276l3.416-.001-1.697-3.022zM1.369 12.175l1.724-3.037-3.394.005zM3.093 9.138L1.425 6.1-.301 9.143zM4.736 18.228L6.454 15.2l-3.405.003z"/><path d="M6.454 15.2l-1.718 3.028 3.41-.002zM6.454 15.2l3.405-.003-1.69-3.029zM9.859 15.197l-3.405.003 1.692 3.026zM9.88 57.535l-3.394-.002 1.712 3.041zM11.585 60.576L9.88 57.535l-1.682 3.039zM9.88 57.535l3.393.002-1.705-3.036z"/><path d="M13.273 57.537l-3.393-.002 1.705 3.041zM8.146 48.441l-3.41-.003 1.718 3.029z"/><path d="M4.736 48.438l3.41.003-1.715-3.026zM8.146 48.441l1.697-3.024-3.412-.002zM9.843 45.417l-1.697 3.024 3.409.001z"/><path d="M8.146 48.441l1.713 3.028 1.696-3.027zM9.859 51.469l-1.713-3.028-1.692 3.026zM13.263 51.471l-1.695 3.03 3.399.001zM16.667 51.471h-3.404l1.704 3.031zM14.963 48.443l-1.7 3.028h3.404z"/><path d="M13.263 51.471l1.7-3.028-3.408-.001zM13.263 51.471l-3.404-.002 1.709 3.032z"/><path d="M9.859 51.469l3.404.002-1.708-3.029zM-20.71 57.515l3.41-.009-1.816-3.01zM-17.3 57.506l1.62-3.023-3.436.013zM-18.935 60.529l1.635-3.023-3.41.009zM-17.3 57.506l3.407-.002-1.787-3.021zM-2.033 54.487l3.402.005-1.727-3.032zM1.369 54.492l1.68-3.028-3.407-.004zM3.049 51.464l-1.68 3.028 3.4.004z"/><path d="M1.369 54.492l-3.402-.005 1.732 3.037zM3.093 57.529l-1.724-3.037-1.67 3.032zM1.369 54.492l1.724 3.037 1.676-3.033zM-33.333 54.635l2.664-3.042h-2.664zM-30.669 51.593l-2.664 3.042 3.67-.017z"/><path d="M-30.669 51.593l-2.664-3.042v3.042zM-33.333 48.551l2.664 3.042.977-3.048z"/><path d="M-30.669 51.593l3.128-.029-2.151-3.019zM-27.541 51.564l-3.128.029 1.006 3.025zM-22.654 48.489l-1.567 3.035 3.388-.031z"/><path d="M-24.221 51.524l1.644 2.997 1.744-3.028z"/><path d="M-22.577 54.521l-1.644-2.997-1.86 3.038z"/><path d="M-24.221 51.524l-3.32.04 1.46 2.998zM-30.673 27.246l.974-3.041-3.634-.003zM-33.333 27.245l2.66.001-2.66-3.044z"/><path d="M-33.333 30.289l2.66-3.043-2.66-.001z"/><path d="M-29.702 30.291l-.971-3.045-2.66 3.043zM-33.333 42.465l2.661 3.042.973-3.046z"/><path d="M-30.672 45.507l-2.661 3.044 3.641-.006zM-30.672 45.507l-2.661-3.042v3.043z"/><path d="M-33.333 48.551l2.661-3.044-2.661.001zM-27.557 45.495l-3.115.012.98 3.038zM-30.672 45.507l3.115-.012-2.142-3.034zM-27.563 33.333h3.291l-1.89-3.039zM-30.669 15.073l3.128.029-2.122-3.054zM-30.669 15.073l-2.664-3.041v3.041z"/><path d="M-33.333 12.032l2.664 3.041 1.006-3.025z"/><path d="M-33.333 18.115l2.664-3.042h-2.664zM-27.557 21.172l-2.142 3.033 3.542.012zM-27.557 21.172l-3.115-.013.973 3.046z"/><path d="M-24.258 21.192l-3.299-.02 1.4 3.045z"/><path d="M-26.14 18.146l-1.417 3.026 3.299.02zM-10.677 27.292l3.419.003-1.701-3.021zM-8.977 30.314l-1.7-3.022-1.723 3.02zM-12.382 24.27l1.705 3.022 1.718-3.018z"/><path d="M-10.677 27.292l1.7 3.022 1.719-3.019zM-14.095 27.288l3.418.004-1.705-3.022z"/><path d="M-10.677 27.292l-3.418-.004 1.695 3.024zM-15.824 30.308l-1.682-3.028-1.746 3.024zM-19.252 30.304l1.746-3.024-3.397-.01z"/><path d="M-17.506 27.28l-1.733-3.032-1.664 3.022z"/><path d="M-19.239 24.248l1.733 3.032 1.698-3.019zM-14.095 27.288l-3.411-.008 1.682 3.028z"/><path d="M-17.506 27.28l3.411.008-1.713-3.027zM-5.437 54.483l-1.655 3.03 3.396.005zM-5.437 54.483l1.671-3.026-3.411-.002z"/><path d="M-2.033 54.487l-3.404-.004 1.741 3.035z"/><path d="M-3.766 51.457l-1.671 3.026 3.404.004zM-5.437 54.483l-3.408-.003 1.753 3.033z"/><path d="M-8.845 54.48l3.408.003-1.74-3.028zM-23.758 63.544l-2.142-2.992-1.189 2.986z"/><path d="M-25.9 60.552l-3.631.049 2.442 2.937zM-25.9 60.552l2.142 2.992 1.374-3.012z"/><path d="M-29.531 60.601l3.631-.049-1.572-2.969z"/><path d="M-25.9 60.552l1.787-3.011-3.359.042zM-24.113 57.541l-1.787 3.011 3.516-.02zM-20.903 39.396l1.664 3.022 1.733-3.031z"/><path d="M-19.239 42.418l3.431-.012-1.698-3.019zM-15.808 42.406l-3.431.012 1.758 3.016zM-19.239 42.418l-1.664-3.022-1.779 3.038zM-20.884 45.452l1.645-3.034-3.443.016z"/><path d="M-19.239 42.418l-1.645 3.034 3.403-.018zM-3.838 39.371l-1.717-3.019-1.703 3.02zM-3.838 39.371l1.719 3.019 1.7-3.019zM-3.838 39.371l-1.7 3.019h3.419z"/><path d="M-5.538 42.39l1.7-3.019-3.42.001zM-7.23 45.411l-1.729-3.019-1.689 3.022z"/><path d="M-8.959 42.392l-3.423.005 1.734 3.017zM-5.538 42.39l-3.421.002 1.729 3.019z"/><path d="M-8.959 42.392l3.421-.002-1.72-3.018zM-10.686 33.333l1.709-3.019-3.423-.002z"/><path d="M-14.103 33.333h3.417l-1.714-3.021zM-12.4 36.355l1.714-3.022h-3.417zM-15.808 42.406l1.713-3.027-3.411.008zM-14.095 39.379l-1.729-3.021-1.682 3.029zM-12.382 42.397l-1.713-3.018-1.713 3.027zM-14.095 39.379l1.695-3.024-3.424.003zM-14.066 45.421l-1.742-3.015-1.673 3.028z"/><path d="M-14.066 45.421l1.684-3.024-3.426.009zM-14.066 45.421l1.727 3.016 1.691-3.023z"/><path d="M-12.382 42.397l-1.684 3.024 3.418-.007zM-14.066 45.421l-1.7 3.026 3.427-.01z"/><path d="M-15.766 48.447l1.7-3.026-3.415.013zM-3.766 51.457l-1.735-3.025-1.676 3.023zM-7.23 45.411l1.729 3.021 1.688-3.021zM-5.501 48.432l3.415.001-1.727-3.022z"/><path d="M-5.501 48.432l1.735 3.025 1.68-3.024z"/><path d="M-8.918 48.433l3.417-.001-1.729-3.021z"/><path d="M-5.501 48.432l-3.417.001 1.741 3.022zM-10.59 51.455l-1.749-3.018-1.667 3.023zM-8.845 54.48l-1.745-3.025-1.668 3.024zM-10.59 51.455l-3.416.005 1.748 3.019z"/><path d="M-10.59 51.455l1.745 3.025 1.668-3.025zM-10.59 51.455l1.672-3.022-3.421.004z"/><path d="M-8.918 48.433l-1.672 3.022h3.413zM-17.481 21.233l-1.721-3.03-1.682 3.011zM-26.14 18.146l1.919-3.004-3.32-.04zM-29.531 6.066l-3.802-.117 2.667 3.059zM-29.531 6.066l3.631.048-1.189-2.985zM-2.033 12.179l-1.733 3.031 3.408-.004zM-2.033 12.179l3.402-.004-1.67-3.032z"/><path d="M1.369 12.175l-3.402.004 1.675 3.027zM-3.696 9.148l1.663 3.031 1.732-3.036zM-5.231 0l1.628 3.06L-1.879 0zM-6.971 3.066l3.368-.006L-5.231 0zM-2.119 24.276h3.418l-1.696-3.021zM1.299 24.276h-3.418l1.7 3.02zM11.585 6.091l-3.387.002L9.88 9.131zM8.198 6.093L6.486 9.134l3.394-.003z"/><path d="M8.198 6.093l3.387-.002-1.682-3.043z"/><path d="M6.522 3.05l1.676 3.043 1.705-3.045zM30.285 51.464l1.68 3.028 1.726-3.032zM33.635 57.524l-1.67-3.032-1.724 3.037z"/><path d="M28.522 60.571l3.386-.005-1.667-3.037zM31.908 60.566l-1.719 3.049 3.375-.004z"/><path d="M31.908 60.566l-3.386.005 1.667 3.044zM35.293 60.561l-3.385.005 1.656 3.045zM33.635 57.524l-1.727 3.042 3.385-.005z"/><path d="M31.908 60.566l1.727-3.042-3.394.005zM37.1 51.457l1.671 3.026 1.739-3.028z"/><path d="M38.771 54.483l3.407-.003-1.668-3.025zM36.936 63.607l-1.724 3.06h3.353z"/><path d="M36.936 63.607l1.629 3.06 1.739-3.066zM35.212 66.667l1.724-3.06-3.372.004z"/><path d="M36.936 63.607l-1.643-3.046-1.729 3.05z"/><path d="M36.936 63.607l1.742-3.052-3.385.006zM38.678 60.555l-1.742 3.052 3.368-.006zM20.071 15.196l-1.7 3.028 3.408.001zM28.628 30.314l-1.712-3.019-1.706 3.019zM26.916 27.295l1.702-3.02-3.415-.002zM35.468 30.315l1.711 3.018 1.71-3.018zM37.146 45.411l-1.694-3.021-1.722 3.022zM35.468 36.352l1.703 3.019 1.718-3.019zM37.179 33.333l-1.711 3.019h3.421zM16.667 45.418l-1.704 3.025h3.408zM6.413 33.333h3.418l-1.708-3.019zM21.779 48.442l1.696 3.027 1.712-3.028zM63.999 57.658l-1.135 2.943 3.803.117zM50.755 51.471l1.78-3.007-3.436-.017zM43.923 51.455l-1.672-3.022-1.741 3.022zM42.178 54.48l1.745-3.025H40.51zM45.225 66.667l-1.557-3.073-1.764 3.073zM42.064 60.548l3.39-.008-1.63-3.033z"/><path d="M42.064 60.548l-3.386.007 1.626 3.046zM42.064 60.548l1.604 3.046 1.786-3.054z"/><path d="M43.668 63.594l-1.604-3.046-1.76 3.053zM66.667 24.202l-2.662-3.043-.972 3.046zM64.005 21.159l2.662 3.043v-3.044zM64.005 21.159l2.662-3.044-3.642.006z"/><path d="M66.667 18.115l-2.662 3.044 2.662-.001zM60.895 27.251l-1.405-3.034-1.888 3.043zM57.602 27.26l1.888-3.043-3.474.015zM59.49 24.217l1.405 3.034 2.138-3.046zM45.733 36.355l1.695 3.024 1.729-3.021zM43.923 51.455l1.749-3.018-3.421-.004zM42.311 30.314L40.6 33.333h3.42z"/><path d="M40.6 33.333l1.711-3.019-3.422.001zM50.755 15.195l1.694-3.024-3.436.013zM59.233 6.114l-1.786 3.012 3.358-.043z"/><path d="M57.447 9.126l1.786-3.012-3.515.021zM66.667 2.962l-3.001.184 3.001 2.803zM63.666 3.146l3.001-.184L63.868 0zM66.667 18.115l-2.665-3.042-.977 3.048z"/><path d="M64.002 15.073l2.665 3.042v-3.042zM64.002 15.073l-3.127.029 2.15 3.019zM66.667 12.032l-2.665 3.041h2.665zM57.447 9.126l1.968 2.978 1.39-3.021z"/><path d="M60.875 15.102l-1.46-2.998-1.86 3.038z"/><path d="M59.415 12.104l-3.505.041 1.645 2.997z"/><path d="M55.91 12.145l3.505-.041-1.968-2.978zM50.385 3.094l3.355.014L51.773 0z"/><path d="M48.519 0l1.866 3.094L51.773 0zM50.385 3.094l-3.357-.012 1.824 3.052z"/><path d="M47.028 3.082l3.357.012L48.519 0zM50.385 3.094l1.883 3.044 1.472-3.03z"/><path d="M52.268 6.138l-1.883-3.044-1.533 3.04zM55.91 12.145l-1.867-2.994-1.594 3.02zM54.043 9.151l3.404-.025-1.729-2.991z"/><path d="M54.043 9.151l-3.41.01 1.816 3.01zM54.043 9.151l1.867 2.994 1.537-3.019z"/><path d="M54.043 9.151l-1.775-3.013-1.635 3.023z"/><path d="M52.268 6.138l1.775 3.013 1.675-3.016zM41.904 0l1.764 3.073L45.225 0z"/><path d="M43.668 3.073l3.36.009L45.225 0zM43.668 3.073L41.904 0l-1.6 3.066zM42.064 6.119l1.604-3.046-3.364-.007z"/><path d="M38.678 6.112l3.386.007-1.76-3.053zM42.064 6.119l-3.386-.007 1.747 3.042z"/><path d="M38.678 6.112l-1.649 3.036 3.396.006zM21.733 0l1.698 3.048L25.109 0zM23.431 3.048l3.38.002L25.109 0z"/><path d="M23.431 3.048L21.733 0l-1.684 3.047zM21.748 6.091l1.683-3.043-3.382-.001zM14.973 6.09l1.694 3.039 1.694-3.039zM11.585 6.091l3.388-.001-1.689-3.043zM14.973 6.09l1.694-3.043h-3.383z"/><path d="M16.667 3.047L14.973 6.09h3.388zM23.49 21.25l1.697-3.024-3.408-.001zM23.454 9.131l1.71 3.037 1.683-3.034zM25.164 12.168l3.4.003-1.717-3.037zM31.965 12.175l-3.401-.004 1.721 3.032zM28.522 6.096l1.667-3.044-3.378-.002zM30.189 3.052L28.482 0l-1.671 3.05zM30.189 3.052l-1.667 3.044 3.386.004zM30.189 3.052L31.85 0h-3.368zM49.157 30.308l1.689 3.025 1.739-3.029zM49.157 30.308l-1.721 3.025h3.41zM4.736 18.228l1.695 3.024 1.715-3.026z"/><path d="M6.431 21.252l-1.695-3.024-1.718 3.025zM6.431 21.252l3.412-.002-1.697-3.024zM9.843 21.25l-3.412.002 1.7 3.021z"/><path d="M6.431 21.252l-1.716 3.023 3.416-.002z"/><path d="M4.715 24.275l1.716-3.023-3.413.001zM6.418 27.295l-1.713 3.019h3.418z"/><path d="M4.705 30.314l1.713-3.019H3zM6.418 27.295l-1.703-3.02L3 27.295zM4.715 24.275l1.703 3.02 1.713-3.022zM9.859 15.197l1.709-3.032-3.399.003z"/><path d="M8.169 12.168l3.399-.003L9.88 9.131zM4.769 12.171L3.093 9.138l-1.724 3.037zM6.486 9.134l-1.717 3.037 3.4-.003z"/><path d="M4.769 12.171l-3.4.004 1.68 3.028zM3.093 9.138l1.676 3.033 1.717-3.037zM4.769 12.171L6.454 15.2l1.715-3.032z"/><path d="M6.454 15.2l-1.685-3.029-1.72 3.032zM4.769 54.496l3.4.003-1.715-3.032z"/><path d="M8.169 54.499l1.69-3.03-3.405-.002zM6.486 57.533l1.683-3.034-3.4-.003zM9.859 51.469l-1.69 3.03 3.399.002z"/><path d="M9.88 57.535l-1.711-3.036-1.683 3.034z"/><path d="M8.169 54.499l1.711 3.036 1.688-3.034zM13.273 57.537l3.394.001-1.7-3.036zM-13.893 57.504l-1.626 3.029 3.398.007zM-15.519 60.533l-3.416-.004 1.884 3.044z"/><path d="M-13.694 63.584l-1.825-3.051-1.532 3.04z"/><path d="M-15.519 60.533l1.825 3.051 1.573-3.044zM-17.3 57.506l1.781 3.027 1.626-3.029z"/><path d="M-15.519 60.533l-1.781-3.027-1.635 3.023zM-27.541 51.564l1.401-3.044-3.552.025zM-26.14 48.52l3.486-.031-1.604-3.014z"/><path d="M-26.14 48.52l-1.417-3.025-2.135 3.05zM-27.557 45.495l1.417 3.025 1.882-3.045zM-24.221 51.524l-1.919-3.004-1.401 3.044z"/><path d="M-26.14 48.52l1.919 3.004 1.567-3.035zM-24.269 27.26l-3.293-.009 1.4 3.043z"/><path d="M-27.562 27.251l3.293.009-1.888-3.043z"/><path d="M-29.699 24.205l2.137 3.046 1.405-3.034zM-27.562 27.251l-2.14 3.04 3.54.003z"/><path d="M-27.562 27.251l-3.111-.005.971 3.045zM-30.673 27.246l3.111.005-2.137-3.046zM-22.691 30.299l3.439.005-1.651-3.034zM-22.691 30.299l-1.578-3.039-1.893 3.034z"/><path d="M-24.269 27.26l1.578 3.039 1.788-3.029z"/><path d="M-22.691 30.299l1.783 3.034 1.656-3.029z"/><path d="M-22.691 30.299l-1.581 3.034h3.364z"/><path d="M-24.272 33.333l1.581-3.034-3.471-.005zM-27.562 39.415l1.4-3.042-3.54.003z"/><path d="M-26.162 36.373l-1.401-3.04-2.139 3.043zM-26.162 36.373l-1.4 3.042 3.293-.008z"/><path d="M-26.162 36.373l1.89-3.04h-3.291zM-29.692 18.121l3.552.025-1.401-3.044z"/><path d="M-30.669 15.073l.977 3.048 2.151-3.019z"/><path d="M-29.692 18.121l-3.641-.006 2.661 3.044z"/><path d="M-29.692 18.121l-.977-3.048-2.664 3.042zM-29.692 18.121l2.135 3.051 1.417-3.026zM-27.557 21.172l-2.135-3.051-.98 3.038zM-2.134 36.352h3.42l-1.712-3.019zM1.286 36.352h-3.42l1.715 3.019zM-2.134 36.352l-1.712-3.019-1.709 3.019z"/><path d="M-3.846 33.333l1.712 3.019 1.708-3.019zM-3.838 39.371l1.704-3.019h-3.421z"/><path d="M-2.134 36.352l-1.704 3.019h3.419zM-7.267 33.333h3.421l-1.709-3.018z"/><path d="M-8.977 30.314l1.71 3.019 1.712-3.018zM-3.846 33.333h-3.421l1.712 3.019z"/><path d="M-10.686 33.333h3.419l-1.71-3.019zM-10.677 39.374l1.718 3.018 1.701-3.02z"/><path d="M-8.959 42.392l-1.718-3.018-1.705 3.023zM-14.095 39.379l3.418-.005-1.723-3.019z"/><path d="M-10.677 39.374l-3.418.005 1.713 3.018zM-22.577 12.145l-1.644 2.997 3.388.032zM-22.654 18.178l-3.486-.032 1.882 3.046zM-22.654 18.178l-1.604 3.014 3.374.022z"/><path d="M-19.202 18.203l-3.452-.025 1.77 3.036zM-22.654 18.178l3.452.025-1.631-3.029z"/><path d="M-24.221 15.142l1.567 3.036 1.821-3.004zM-22.654 18.178l-1.567-3.036-1.919 3.004zM-22.577 12.145l3.461.026-1.594-3.02z"/><path d="M-19.116 12.171l-3.461-.026 1.744 3.029zM-10.334 3.073l1.603 3.046 1.76-3.053zM-22.384 6.135l3.449.003-1.471-3.03z"/><path d="M-18.935 6.138l-3.449-.003 1.674 3.016zM-23.758 3.123L-24.736 0l-2.353 3.129z"/><path d="M-24.736 0l.978 3.123L-21.633 0zM-23.758 3.123l3.352-.015L-21.633 0z"/><path d="M-25.9 6.114l2.142-2.991-3.331.006zM-22.384 6.135l-1.374-3.012-2.142 2.991z"/><path d="M-23.758 3.123l1.374 3.012 1.978-3.027zM-30.333 3.146L-30.535 0l-2.798 2.962zM-27.715 0l-2.618 3.146 3.244-.017z"/><path d="M-33.333 5.949l3-2.803-3-.184zM-30.535 0l.202 3.146L-27.715 0zM-29.531 6.066l-.802-2.92-3 2.803z"/><path d="M-30.333 3.146l.802 2.92 2.442-2.937zM-.231 3.055l3.375-.003L1.483 0z"/><path d="M-.231 3.055L1.483 0h-3.362zM3.144 3.052l-3.375.003L1.425 6.1z"/><path d="M-3.603 3.06l3.372-.005L-1.879 0zM-5.538 24.276l1.725-3.02H-7.23zM-5.501 18.235l1.688 3.021 1.727-3.023zM-3.813 21.256l3.416-.001-1.689-3.022z"/><path d="M-3.813 21.256l-1.688-3.021-1.729 3.021zM-2.119 24.276l-1.694-3.02-1.725 3.02z"/><path d="M-3.813 21.256l1.694 3.02 1.722-3.021zM-2.134 30.315l-1.704-3.019-1.717 3.019z"/><path d="M-3.838 27.296l-3.42-.001 1.703 3.02zM-3.838 27.296l1.704 3.019 1.715-3.019z"/><path d="M-3.838 27.296l-1.7-3.02-1.72 3.019zM-2.119 24.276l-1.719 3.02h3.419z"/><path d="M-3.838 27.296l1.719-3.02h-3.419zM4.811 6.096L3.144 3.052 1.425 6.1zM4.811 6.096L6.522 3.05l-3.378.002zM4.811 6.096L3.093 9.138l3.393-.004z"/><path d="M3.093 9.138l1.718-3.042-3.386.004zM4.811 6.096l3.387-.003L6.522 3.05zM8.198 6.093l-3.387.003 1.675 3.038zM28.564 54.496l-1.717 3.037 3.394-.004zM28.564 54.496l3.401-.004-1.68-3.028z"/><path d="M31.965 54.492l-3.401.004 1.677 3.033zM35.367 54.487l1.733-3.03-3.409.003zM35.367 54.487l-1.732 3.037 3.394-.006z"/><path d="M31.965 54.492l3.402-.005-1.676-3.027zM35.367 54.487l-3.402.005 1.67 3.032zM35.367 54.487l3.404-.004-1.671-3.026z"/><path d="M38.771 54.483l-3.404.004 1.662 3.031zM18.371 18.224l-1.704-3.029-1.704 3.029zM16.667 15.195l1.704 3.029 1.7-3.028zM32.035 42.391l-1.719 3.022 3.414-.001z"/><path d="M35.452 42.39l-3.417.001 1.695 3.021zM6.418 39.372l1.705-3.019-3.418-.001z"/><path d="M8.123 36.353l-1.71-3.02-1.708 3.019zM9.831 33.333l-1.708 3.02h3.418z"/><path d="M8.123 36.353l1.708-3.02H6.413zM13.251 39.373l1.707-3.02h-3.417zM35.42 48.433l-3.413.003 1.684 3.024zM32.007 48.436l3.413-.003-1.69-3.021zM32.007 48.436l-1.722 3.028 3.406-.004z"/><path d="M30.316 45.413l1.691 3.023 1.723-3.024z"/><path d="M28.597 48.438l3.41-.002-1.691-3.023z"/><path d="M32.007 48.436l-3.41.002 1.688 3.026zM16.667 51.471h3.404l-1.7-3.028zM20.071 51.471l1.708-3.029-3.408.001zM20.071 51.471l3.404-.002-1.696-3.027zM23.475 51.469l-3.404.002 1.694 3.03zM66.667 54.635l-2.668 3.023 2.668.025zM66.667 54.635l-3.67-.017 1.002 3.04zM66.667 60.718l-3.001 2.803 3.001.184zM63.666 63.521l.202 3.146 2.799-2.962z"/><path d="M61.048 66.667l2.618-3.146-3.244.017zM63.868 66.667l-.202-3.146-2.618 3.146zM62.864 60.601l.802 2.92 3.001-2.803z"/><path d="M63.666 63.521l-.802-2.92-2.442 2.937zM66.667 42.465v-3.044l-2.66-.001zM63.035 36.376l-2.14 3.039 3.112.005zM66.667 30.289l-2.66 3.044h2.66zM63.035 36.376l.972-3.043h-3.11zM49.013 54.483l3.436.013-1.694-3.025zM52.535 48.464l-1.721-3.03-1.715 3.013zM45.591 54.479l-3.413.001 1.646 3.027zM49.013 54.483l-3.422-.004 1.635 3.025z"/><path d="M45.591 54.479l-1.767 3.028 3.402-.003zM45.591 54.479l-1.668-3.024-1.745 3.025zM35.42 48.433l3.414-.001-1.688-3.021zM38.834 48.432L37.1 51.457l3.41-.002z"/><path d="M37.1 51.457l1.734-3.025-3.414.001z"/><path d="M42.251 48.433l-3.417-.001 1.676 3.023zM40.563 45.411l-1.729 3.021 3.417.001z"/><path d="M38.834 48.432l1.729-3.021h-3.417zM35.452 42.39h3.42l-1.701-3.019z"/><path d="M38.872 42.39l1.719-3.018-3.42-.001zM38.872 42.39h-3.42l1.694 3.021zM40.563 45.411l-1.691-3.021-1.726 3.021zM45.454 60.54l1.574 3.044 1.824-3.051zM50.385 63.573l-3.357.011 1.491 3.083z"/><path d="M47.028 63.584l3.357-.011-1.533-3.04zM43.668 63.594l3.36-.01-1.574-3.044zM45.225 66.667l1.803-3.083-3.36.01zM47.028 63.584l-1.803 3.083h3.294zM38.678 60.555l1.747-3.042-3.396.005z"/><path d="M40.425 57.513l-1.654-3.03-1.742 3.035zM42.178 54.48l-1.753 3.033 3.399-.006z"/><path d="M38.771 54.483l1.654 3.03 1.753-3.033zM42.064 60.548l-1.639-3.035-1.747 3.042zM40.425 57.513l1.639 3.035 1.76-3.041zM64.007 27.246l2.66-3.044-3.634.003zM64.007 27.246l2.66 3.043v-3.044z"/><path d="M66.667 24.202l-2.66 3.044 2.66-.001zM60.895 27.251l3.112-.005-.974-3.041zM59.49 24.217l-1.899-3.025-1.575 3.04zM38.872 42.39l3.42.002-1.701-3.02zM42.292 42.392l-3.42-.002 1.691 3.021zM47.428 39.379l3.411.008-1.682-3.029zM50.839 39.387l1.746-3.024-3.428-.005zM50.839 39.387l-3.411-.008 1.713 3.027z"/><path d="M50.839 39.387l3.397.009-1.651-3.033zM52.585 36.363l1.656-3.03h-3.395zM50.846 33.333h3.395l-1.656-3.029z"/><path d="M54.241 33.333l1.783-3.034-3.439.005z"/><path d="M54.241 33.333h3.364l-1.581-3.034zM56.024 30.299l3.471-.005-1.893-3.034z"/><path d="M59.495 30.294l1.4-3.043-3.293.009zM59.495 30.294l-1.89 3.039h3.292z"/><path d="M57.605 33.333l1.89-3.039-3.471.005zM42.292 24.274l-1.701 3.021 3.42-.003z"/><path d="M40.591 27.295l1.701-3.021-3.42.002zM42.311 30.314l-1.72-3.019-1.702 3.02z"/><path d="M40.591 27.295l1.72 3.019 1.7-3.022zM52.572 24.248l1.664 3.022 1.78-3.038zM57.091 3.123l-3.351-.015 1.978 3.027zM57.091 3.123L58.07 0h-3.104z"/><path d="M53.74 3.108l3.351.015L54.966 0zM58.07 0l-.979 3.123 3.331.006z"/><path d="M59.233 6.114l-2.142-2.991-1.373 3.012zM57.091 3.123l2.142 2.991 1.189-2.985z"/><path d="M62.864 6.066l-3.631.048 1.572 2.969zM62.864 6.066l1.135 2.942 2.668-3.059z"/><path d="M63.999 9.008l-1.135-2.942-2.059 3.017zM59.233 6.114l3.631-.048-2.442-2.937z"/><path d="M62.864 6.066l.802-2.92-3.244-.017zM63.666 3.146l-.802 2.92 3.803-.117zM61.048 0H58.07l2.352 3.129zM63.666 3.146L61.048 0l-.626 3.129zM61.048 0l2.618 3.146L63.868 0zM64.002 15.073l-1.005-3.025-2.122 3.054zM62.997 12.048l1.002-3.04-3.194.075zM62.997 12.048l3.67-.016-2.668-3.024zM62.997 12.048l1.005 3.025 2.665-3.041z"/><path d="M62.997 12.048l-3.582.056 1.46 2.998z"/><path d="M59.415 12.104l3.582-.056-2.192-2.965zM45.454 6.127l-3.39-.008 1.76 3.04zM47.028 3.082l-1.574 3.045 3.398.007z"/><path d="M45.454 6.127l1.772 3.035 1.626-3.028zM47.226 9.162l-1.772-3.035-1.63 3.032zM45.454 6.127l-1.786-3.054-1.604 3.046z"/><path d="M43.668 3.073l1.786 3.054 1.574-3.045zM31.85 0l1.714 3.055L35.212 0z"/><path d="M30.189 3.052l3.375.003L31.85 0zM33.564 3.055l-3.375-.003L31.908 6.1zM28.597 18.228l3.41.003-1.722-3.028zM23.475 15.197l-3.404-.001 1.708 3.029z"/><path d="M25.187 18.226l-1.712-3.029-1.696 3.028zM14.967 12.164h3.399l-1.699-3.035zM16.667 15.195l1.699-3.031h-3.399z"/><path d="M18.366 12.164l-1.699 3.031 3.404.001zM25.136 6.093l3.386.003-1.711-3.046z"/><path d="M23.431 3.048l1.705 3.045 1.675-3.043zM28.522 6.096l-3.386-.003 1.711 3.041zM25.136 6.093l-1.705-3.045-1.683 3.043zM23.454 9.131l1.682-3.038-3.388-.002z"/><path d="M25.136 6.093l-1.682 3.038 3.393.003zM28.522 6.096l1.719 3.042L31.908 6.1z"/><path d="M30.241 9.138l-1.719-3.042-1.675 3.038zM33.635 9.143l-3.394-.005 1.724 3.037z"/><path d="M30.241 9.138l3.394.005L31.908 6.1zM30.241 9.138l-1.677 3.033 3.401.004z"/><path d="M28.564 12.171l1.677-3.033-3.394-.004zM14.973 6.09l-1.7 3.039h3.394zM13.273 9.129l-1.688-3.038-1.705 3.04zM13.273 9.129l1.694 3.035 1.7-3.035z"/><path d="M13.273 9.129l1.7-3.039-3.388.001zM13.273 9.129l-1.705 3.036 3.399-.001z"/><path d="M11.568 12.165l1.705-3.036-3.393.002zM23.431 63.619l-1.698 3.048h3.376z"/><path d="M26.811 63.617l-3.38.002 1.678 3.048zM16.667 63.62h-3.383l1.694 3.047zM18.356 66.667l-1.689-3.047-1.689 3.047zM20.06 57.537l3.394-.002-1.689-3.034zM20.06 57.537l-3.393.001 1.694 3.039zM-20.908 33.333l-1.783 3.035 3.439-.005zM-20.903 39.396l-1.788-3.028-1.578 3.039z"/><path d="M-22.691 36.368l1.788 3.028 1.651-3.033zM-24.272 33.333l1.581 3.035 1.783-3.035z"/><path d="M-26.162 36.373l3.471-.005-1.581-3.035zM-22.691 36.368l-3.471.005 1.893 3.034zM-7.267 33.333l-1.71 3.02 3.422-.001zM-8.977 36.353l-1.709-3.02-1.714 3.022z"/><path d="M-5.555 36.352l-3.422.001 1.719 3.019z"/><path d="M-8.977 36.353l1.71-3.02h-3.419zM-10.677 39.374l1.7-3.021-3.423.002zM-8.977 36.353l-1.7 3.021 3.419-.002zM-27.472 9.083l-3.194-.075 1.003 3.04zM-29.531 6.066l2.059 3.017 1.572-2.969z"/><path d="M-27.472 9.083l-2.059-3.017-1.135 2.942zM-3.766 15.21l-1.671-3.026-1.74 3.028zM-2.033 12.179l-3.404.005 1.671 3.026zM-5.437 12.184l1.741-3.036-3.396.006z"/><path d="M-5.437 12.184l3.404-.005-1.663-3.031zM-8.845 12.187l3.408-.003-1.655-3.03zM-5.437 12.184l-3.408.003 1.668 3.025zM-12.121 6.127l3.39-.008-1.603-3.046z"/><path d="M-3.696 9.148l-1.649-3.036-1.747 3.042zM-5.345 6.112l1.742-3.052-3.368.006z"/><path d="M-8.731 6.119l3.386-.007-1.626-3.046zM-5.345 6.112l-3.386.007 1.639 3.035zM-19.116 12.171l1.816-3.01-3.41-.01z"/><path d="M-17.3 9.161l-1.635-3.023-1.775 3.013zM28.597 48.438l-1.718 3.029 3.406-.003z"/><path d="M26.879 51.467l1.718-3.029-3.41.003z"/><path d="M23.475 51.469l3.404-.002-1.692-3.026zM26.879 51.467l1.685 3.029 1.721-3.032zM11.568 12.165l1.695 3.031 1.704-3.032zM13.263 15.196l-1.708 3.029 3.408-.001zM13.263 15.196l-3.404.001 1.696 3.028z"/><path d="M13.263 15.196l-1.695-3.031-1.709 3.032zM13.263 15.196l3.404-.001-1.7-3.031zM16.667 15.195l-3.404.001 1.7 3.028zM32.048 36.352h-3.42l1.705 3.019zM35.468 30.315l-1.716-3.019-1.704 3.019zM23.49 45.417l-1.711 3.025 3.408-.001zM28.618 42.392l3.417-.001-1.702-3.02z"/><path d="M32.035 42.391l-3.417.001 1.698 3.021zM9.843 45.417l1.702-3.023-3.414-.001zM16.667 39.373h3.416l-1.708-3.02z"/><path d="M14.958 36.353l1.709 3.02 1.708-3.02z"/><path d="M20.083 39.373h-3.416l1.707 3.022zM13.251 39.373h3.416l-1.709-3.02zM54.236 39.396l1.788-3.028-3.439-.005zM54.241 33.333l1.783 3.035 1.581-3.035zM56.024 36.368l-1.783-3.035-1.656 3.03zM66.667 36.377l-3.632-.001.972 3.044zM66.667 39.421v-3.044l-2.66 3.043z"/><path d="M66.667 36.377l-2.66-3.044-.972 3.043zM64.007 33.333l2.66 3.044v-3.044zM66.667 42.465l-2.662 3.042 2.662.001z"/><path d="M64.005 45.507l2.662 3.044v-3.043zM64.002 51.593l-1.005 3.025 3.67.017zM64.002 51.593l2.665 3.042v-3.042zM66.667 48.551l-2.665 3.042h2.665zM52.268 60.529l-1.635-3.023-1.781 3.027zM48.852 60.533l1.781-3.027-3.407-.002zM50.633 57.506l-1.62-3.023-1.787 3.021z"/><path d="M50.633 57.506l1.816-3.01-3.436-.013zM54.217 45.452l-3.403-.018 1.721 3.03zM55.988 48.489l-1.771-3.037-1.682 3.012zM54.166 51.493l-1.631-3.029-1.78 3.007z"/><path d="M52.449 54.496l1.717-3.003-3.411-.022zM55.988 48.489l-1.822 3.004 3.389.031z"/><path d="M54.166 51.493l1.822-3.004-3.453-.025zM47.339 51.46l1.674 3.023 1.742-3.012zM45.672 48.437l1.667 3.023 1.76-3.013z"/><path d="M47.339 51.46l3.416.011-1.656-3.024zM47.339 51.46l-1.667-3.023-1.749 3.018z"/><path d="M45.591 54.479l1.748-3.019-3.416-.005zM47.339 51.46l-1.748 3.019 3.422.004zM55.988 18.178l1.603 3.014 1.882-3.046z"/><path d="M55.988 18.178l3.485-.032-1.918-3.004zM59.473 18.146l1.418 3.026 2.134-3.051zM64.005 21.159l-3.114.013 2.142 3.033z"/><path d="M60.891 21.172l3.114-.013-.98-3.038zM60.891 21.172l-1.401 3.045 3.543-.012z"/><path d="M60.891 21.172l-3.3.02 1.899 3.025z"/><path d="M57.591 21.192l3.3-.02-1.418-3.026zM47.428 39.379l-1.713 3.018 3.426.009zM64.007 33.333l-.972-3.042-2.138 3.042zM64.007 27.246l-.972 3.045 3.632-.002z"/><path d="M63.035 30.291l.972 3.042 2.66-3.044zM63.035 30.291l.972-3.045-3.112.005z"/><path d="M59.495 30.294l3.54-.003-2.14-3.04zM63.035 30.291l-3.54.003 1.402 3.039zM33.635 9.143l1.732 3.036 1.662-3.031zM37.029 9.148l-1.662 3.031 3.404.005zM35.367 12.179l-3.402-.004 1.726 3.031z"/><path d="M35.367 12.179l-1.732-3.036-1.67 3.032zM37.1 15.21l-1.733-3.031-1.676 3.027z"/><path d="M35.367 12.179L37.1 15.21l1.671-3.026zM32.007 18.231l3.413.002-1.729-3.027z"/><path d="M35.42 18.233l-3.413-.002 1.723 3.024zM35.42 18.233l1.68-3.023-3.409-.004zM37.1 15.21l-1.68 3.023 3.414.002zM35.42 18.233l1.726 3.023 1.688-3.021z"/><path d="M37.146 21.256l-1.726-3.023-1.69 3.022zM40.563 21.256l1.729 3.018 1.69-3.022z"/><path d="M42.292 24.274l-1.729-3.018-1.691 3.02z"/><path d="M40.563 21.256h-3.417l1.726 3.02zM37.146 21.256h3.417l-1.729-3.021zM42.178 12.187l1.646-3.028-3.399-.005zM38.771 12.184l3.407.003-1.753-3.033zM47.339 15.207l3.416-.012-1.742-3.011zM50.755 15.195l-3.416.012 1.76 3.013zM36.936 3.06l3.368.006L38.565 0z"/><path d="M35.212 0l1.724 3.06L38.565 0zM36.936 3.06l1.742 3.052 1.626-3.046z"/><path d="M33.564 3.055l3.372.005L35.212 0zM26.902 21.252l-3.412-.002 1.713 3.023z"/><path d="M28.618 24.275l-1.716-3.023-1.699 3.021zM26.902 21.252l-1.715-3.026-1.697 3.024z"/><path d="M26.902 21.252l1.695-3.024-3.41-.002zM26.879 15.2l1.718 3.028 1.688-3.025z"/><path d="M28.564 12.171L26.879 15.2l3.406.003z"/><path d="M26.879 15.2l1.685-3.029-3.4-.003zM28.597 18.228L26.879 15.2l-1.692 3.026z"/><path d="M26.879 15.2l-3.404-.003 1.712 3.029z"/><path d="M23.475 15.197l3.404.003-1.715-3.032zM20.06 9.129l3.394.002-1.706-3.04z"/><path d="M16.667 9.129h3.393L18.361 6.09z"/><path d="M20.06 9.129l1.688-3.038-3.387-.001zM18.366 12.164l1.694-3.035h-3.393zM45.715 24.27l-3.423.004 1.719 3.018z"/><path d="M42.292 24.274l3.423-.004-1.733-3.018z"/><path d="M45.715 24.27l1.685-3.025-3.418.007z"/><path d="M47.4 21.245l-1.685 3.025 3.426-.009zM45.715 24.27l1.713 3.018 1.713-3.027zM47.428 27.288l-1.713-3.018-1.704 3.022zM45.733 30.312l-3.422.002 1.709 3.019z"/><path d="M47.436 33.333l-1.703-3.021-1.713 3.021z"/><path d="M42.311 30.314l3.422-.002-1.722-3.02zM49.157 30.308l-3.424.004 1.703 3.021z"/><path d="M47.428 27.288l-1.695 3.024 3.424-.004z"/><path d="M45.733 30.312l1.695-3.024-3.417.004zM50.839 27.28l-1.682 3.028 3.428-.004zM54.236 27.27l-3.397.01 1.746 3.024zM50.839 27.28l1.733-3.032-3.431.013z"/><path d="M52.572 24.248l-1.733 3.032 3.397-.01zM50.839 27.28l-3.411.008 1.729 3.02z"/><path d="M47.428 27.288l3.411-.008-1.698-3.019zM23.454 57.535l1.682 3.039 1.711-3.041zM26.847 57.533l-1.711 3.041 3.386-.003z"/><path d="M25.136 60.574l1.675 3.043 1.711-3.046zM25.136 60.574l-1.705 3.045 3.38-.002zM14.973 60.577l-1.7-3.04-1.688 3.039zM13.284 63.62l1.689-3.043-3.388-.001zM16.667 57.538l-1.694 3.039h3.388z"/><path d="M14.973 60.577l1.694-3.039-3.394-.001zM14.973 60.577l1.694 3.043 1.694-3.043z"/><path d="M16.667 63.62l-1.694-3.043-1.689 3.043zM23.431 63.619l-3.382.001 1.684 3.047zM20.049 63.62l-1.693 3.047h3.377z"/><path d="M20.049 63.62h-3.382l1.689 3.047zM16.667 63.62h3.382l-1.688-3.043zM16.667 57.538l1.699-3.036h-3.399z"/><path d="M18.366 54.502l-1.699-3.031-1.7 3.031z"/><path d="M18.366 54.502l1.705-3.031h-3.404z"/><path d="M20.071 51.471l-1.705 3.031 3.399-.001zM20.06 57.537l-1.694-3.035-1.699 3.036z"/><path d="M18.366 54.502l1.694 3.035 1.705-3.036zM-24.113 9.126l1.729-2.991-3.516-.021zM-22.384 6.135l-1.729 2.991 3.403.025z"/><path d="M-24.113 9.126l1.536 3.019 1.867-2.994zM-27.472 9.083l3.359.043-1.787-3.012zM-15.766 18.22l-3.436-.017 1.721 3.03z"/><path d="M-15.766 18.22l-1.715 3.013 3.415.012zM-20.406 3.108l3.355-.014L-18.439 0z"/><path d="M-18.439 0l1.388 3.094L-15.185 0zM-18.935 6.138l1.884-3.044-3.355.014zM-.231 3.055L-1.96 6.106 1.425 6.1zM1.425 6.1l-3.385.006 1.659 3.037z"/><path d="M-1.96 6.106l-1.736 3.042 3.395-.005zM-1.96 6.106l1.729-3.051-3.372.005z"/><path d="M-5.345 6.112l3.385-.006-1.643-3.046zM-1.96 6.106l-3.385.006 1.649 3.036zM25.164 54.499l-1.689-3.03-1.71 3.032z"/><path d="M23.454 57.535l1.71-3.036-3.399.002zM25.164 54.499l-1.71 3.036 3.393-.002z"/><path d="M28.564 54.496l-3.4.003 1.683 3.034zM26.879 51.467l-1.715 3.032 3.4-.003z"/><path d="M25.164 54.499l1.715-3.032-3.404.002zM35.468 30.315l-1.709 3.018h3.42zM33.759 33.333l1.709-3.018h-3.42zM33.759 33.333l1.709 3.019 1.711-3.019z"/><path d="M33.759 33.333l-1.711 3.019h3.42zM35.468 36.352l-1.716 3.019h3.419zM33.752 39.371l1.7 3.019 1.719-3.019zM32.035 42.391l1.717-3.02h-3.419zM33.752 39.371l-1.717 3.02 3.417-.001z"/><path d="M33.752 39.371l-1.704-3.019-1.715 3.019zM32.048 36.352l1.704 3.019 1.716-3.019zM28.628 30.314l1.705-3.019h-3.417zM30.333 27.295l-1.705 3.019 3.42.001zM30.333 27.295l-1.715-3.02-1.702 3.02z"/><path d="M30.333 27.295l1.702-3.019-3.417-.001zM30.333 27.295l3.419.001-1.717-3.02z"/><path d="M33.752 27.296l-3.419-.001 1.715 3.02zM32.035 24.276h3.417l-1.722-3.021zM37.146 21.256l-1.694 3.02h3.42z"/><path d="M35.452 24.276l1.694-3.02-3.416-.001zM33.752 27.296l1.7-3.02h-3.417zM23.502 33.333h3.418l-1.71-3.019zM26.92 33.333l1.708-3.019H25.21zM25.21 36.353l1.71-3.02h-3.418zM26.92 33.333l-1.71 3.02 3.418-.001zM20.083 39.373l1.709-3.02h-3.417zM21.792 36.353l-1.709 3.02h3.416z"/><path d="M25.21 36.353h-3.418l1.707 3.02zM21.792 36.353h3.418l-1.708-3.02zM23.49 21.25l-1.702 3.022 3.415.001zM16.667 21.249l1.704-3.025h-3.408zM16.667 33.333l-1.709 3.02h3.417zM21.792 30.314l1.71 3.019 1.708-3.019zM21.779 48.442l-1.701-3.025-1.707 3.026z"/><path d="M20.078 45.417l-3.411.001 1.704 3.025z"/><path d="M16.667 45.418l3.411-.001-1.704-3.022z"/><path d="M23.49 45.417h-3.412l1.701 3.025zM26.902 45.415l1.695 3.023 1.719-3.025z"/><path d="M28.597 48.438l-1.695-3.023-1.715 3.026z"/><path d="M26.902 45.415l-3.412.002 1.697 3.024zM23.49 45.417l3.412-.002-1.699-3.022zM26.902 45.415l1.716-3.023-3.415.001zM28.618 42.392l-1.716 3.023 3.414-.002zM25.21 36.353l1.706 3.019 1.712-3.02zM28.628 36.352l-1.712 3.02 3.417-.001z"/><path d="M25.203 42.393l1.713-3.021-3.417.001z"/><path d="M26.916 39.372l-1.706-3.019-1.711 3.02zM26.916 39.372l1.702 3.02 1.715-3.021z"/><path d="M28.618 42.392l-1.702-3.02-1.713 3.021zM9.834 39.373l-1.711-3.02-1.705 3.019zM9.834 39.373l-3.416-.001 1.713 3.021z"/><path d="M8.123 36.353l1.711 3.02 1.707-3.02z"/><path d="M9.834 39.373h3.417l-1.71-3.02zM9.834 39.373l1.711 3.021 1.706-3.021z"/><path d="M11.545 42.394l-1.711-3.021-1.703 3.02zM16.667 45.418l-3.412-.001 1.708 3.026zM13.255 45.417H9.843l1.712 3.025z"/><path d="M14.963 48.443l-1.708-3.026-1.7 3.025zM13.255 45.417l-1.71-3.023-1.702 3.023zM59.495 36.373l3.54.003-2.138-3.043z"/><path d="M57.605 33.333l1.89 3.04 1.402-3.04zM59.495 36.373l1.4 3.042 2.14-3.039z"/><path d="M56.024 36.368l3.471.005-1.89-3.04zM63.033 42.461l-3.543-.011 1.401 3.045zM63.033 42.461l3.634.004-2.66-3.045z"/><path d="M60.895 39.415l2.138 3.046.974-3.041zM59.49 42.45l3.543.011-2.138-3.046zM63.033 42.461l.972 3.046 2.662-3.042z"/><path d="M64.005 45.507l-.972-3.046-2.142 3.034zM59.473 48.52l-3.485-.031 1.567 3.035zM55.718 60.532l-3.45-.003 1.472 3.03zM57.091 63.544l-1.373-3.012-1.978 3.027zM52.572 42.418l-1.733-3.031-1.698 3.019z"/><path d="M54.236 39.396l-1.664 3.022 3.444.016z"/><path d="M50.814 45.434l1.758-3.016-3.431-.012z"/><path d="M50.839 39.387l1.733 3.031 1.664-3.022zM54.217 45.452l-1.645-3.034-1.758 3.016zM52.572 42.418l1.645 3.034 1.799-3.018zM52.535 18.203l-1.78-3.008-1.656 3.025zM42.311 36.353l1.7 3.021 1.722-3.019z"/><path d="M44.011 39.374l-1.7-3.021-1.72 3.019zM44.011 39.374l3.417.005-1.695-3.024zM42.292 42.392l1.719-3.018-3.42-.002z"/><path d="M45.715 42.397l-1.704-3.023-1.719 3.018z"/><path d="M44.011 39.374l1.704 3.023 1.713-3.018zM47.4 45.421l-1.728 3.016 3.427.01zM47.4 45.421l3.414.013-1.673-3.028z"/><path d="M50.814 45.434l-3.414-.013 1.699 3.026zM45.715 42.397l1.685 3.024 1.741-3.015zM40.563 21.256l1.688-3.022-3.417.001z"/><path d="M42.251 18.234l-1.688 3.022 3.419-.004zM45.591 12.188l1.635-3.026-3.402-.003zM42.178 12.187l3.413.001-1.767-3.029zM47.226 9.162l-1.635 3.026 3.422-.004zM45.591 12.188l-3.413-.001 1.745 3.024z"/><path d="M47.339 15.207l-1.748-3.019-1.668 3.023z"/><path d="M45.591 12.188l1.748 3.019 1.674-3.023zM33.635 9.143l1.658-3.037-3.385-.006z"/><path d="M35.293 6.106l-1.658 3.037 3.394.005zM38.678 6.112l-3.385-.006 1.736 3.042zM35.293 6.106l-1.729-3.051L31.908 6.1z"/><path d="M35.293 6.106l1.643-3.046-3.372-.005zM36.936 3.06l-1.643 3.046 3.385.006zM32.007 18.231l-1.691 3.022 3.414.002zM32.035 24.276l-1.719-3.023-1.698 3.022zM30.316 21.253l1.719 3.023 1.695-3.021z"/><path d="M28.597 18.228l1.719 3.025 1.691-3.022z"/><path d="M26.902 21.252l3.414.001-1.719-3.025zM30.316 21.253l-3.414-.001 1.716 3.023zM23.454 9.131l-1.689 3.034 3.399.003zM23.475 15.197l-1.71-3.032-1.694 3.031z"/><path d="M21.765 12.165l1.71 3.032 1.689-3.029zM21.765 12.165l-3.399-.001 1.705 3.032z"/><path d="M21.765 12.165L20.06 9.129l-1.694 3.035z"/><path d="M20.06 9.129l1.705 3.036 1.689-3.034zM21.748 60.576l3.388-.002-1.682-3.039zM21.748 60.576l-1.688-3.039-1.699 3.04z"/><path d="M20.06 57.537l1.688 3.039 1.706-3.041zM25.136 60.574l-3.388.002 1.683 3.043z"/><path d="M21.748 60.576l-1.699 3.044 3.382-.001z"/><path d="M20.049 63.62l1.699-3.044-3.387.001zM-24.221 15.142l-1.86-3.038-1.46 2.998z"/><path d="M-27.541 15.102l1.46-2.998-3.582-.056z"/><path d="M-22.577 12.145l-3.504-.041 1.86 3.038zM-26.081 12.104l-1.391-3.021-2.191 2.965z"/><path d="M-26.081 12.104l1.968-2.978-3.359-.043zM-24.113 9.126l-1.968 2.978 3.504.041zM-10.491 9.159l1.646 3.028 1.753-3.033zM-10.491 9.159l-1.63-3.032-1.772 3.035zM-8.731 6.119l-1.76 3.04 3.399-.005z"/><path d="M-12.121 6.127l1.63 3.032 1.76-3.04zM-10.491 9.159l-1.767 3.029 3.413-.001z"/><path d="M-12.258 12.188l1.767-3.029-3.402.003zM-10.59 15.211l1.672 3.023 1.741-3.022zM-8.845 12.187l-1.745 3.024 3.413.001zM-10.59 15.211l-1.668-3.023-1.748 3.019z"/><path d="M-12.258 12.188l1.668 3.023 1.745-3.024zM-17.3 9.161l1.62 3.023 1.787-3.022z"/><path d="M-15.68 12.184l-1.62-3.023-1.816 3.01zM-12.258 12.188l-3.422-.004 1.674 3.023zM-15.68 12.184l3.422.004-1.635-3.026zM-13.694 3.082l3.36-.009L-11.892 0z"/><path d="M-13.694 3.082L-11.892 0h-3.293zM-13.694 3.082l1.573 3.045 1.787-3.054z"/><path d="M-17.051 3.094l3.357-.012L-15.185 0zM40.591 27.295l-3.42.001 1.718 3.019z"/><path d="M37.171 27.296l-1.703 3.019h3.421zM37.171 27.296l3.42-.001-1.719-3.019z"/><path d="M37.171 27.296h-3.419l1.716 3.019zM37.171 27.296l-1.719-3.02-1.7 3.02z"/><path d="M35.452 24.276l1.719 3.02 1.701-3.02zM28.628 30.314l1.711 3.019 1.709-3.018zM30.339 33.333h3.42l-1.711-3.018zM32.048 36.352l-1.709-3.019-1.711 3.019z"/><path d="M33.759 33.333h-3.42l1.709 3.019zM30.339 33.333H26.92l1.708 3.019zM26.92 33.333h3.419l-1.711-3.019zM9.831 33.333l1.71-3.019H8.123zM11.545 24.272L9.843 21.25l-1.712 3.023zM23.499 27.294l3.417.001-1.713-3.022z"/><path d="M26.916 27.295l-3.417-.001 1.711 3.02zM21.788 24.272l1.711 3.022 1.704-3.021zM23.499 27.294l-1.707 3.02h3.418zM21.788 42.394l-1.705-3.021-1.709 3.022z"/><path d="M20.083 39.373l1.705 3.021 1.711-3.021zM21.788 42.394l3.415-.001-1.704-3.02zM21.788 42.394l1.702 3.023 1.713-3.024zM21.788 42.394l-1.71 3.023h3.412z"/><path d="M20.078 45.417l1.71-3.023-3.414.001zM14.96 42.395l1.707 3.023 1.707-3.023zM11.545 42.394l3.415.001-1.709-3.022z"/><path d="M16.667 39.373l-1.707 3.022h3.414z"/><path d="M14.96 42.395l1.707-3.022h-3.416zM13.255 45.417l1.705-3.022-3.415-.001zM14.96 42.395l-1.705 3.022 3.412.001zM57.602 39.407l-3.366-.011 1.78 3.038zM59.49 42.45l-1.888-3.043-1.586 3.027z"/><path d="M57.602 39.407l1.888 3.043 1.405-3.035zM57.602 39.407l-1.578-3.039-1.788 3.028zM57.602 39.407l1.893-3.034-3.471-.005z"/><path d="M59.495 36.373l-1.893 3.034 3.293.008zM63.025 48.545l.98-3.038-3.114-.012z"/><path d="M64.005 45.507l-.98 3.038 3.642.006zM63.025 48.545l.977 3.048 2.665-3.042zM59.473 48.52l3.552.025-2.134-3.05zM57.591 45.475l1.899-3.025-3.474-.016zM59.49 42.45l-1.899 3.025 3.3.02zM54.217 45.452l3.374.023-1.575-3.041zM57.591 45.475l-3.374-.023 1.771 3.037zM59.473 48.52l-1.882-3.045-1.603 3.014z"/><path d="M57.591 45.475l1.882 3.045 1.418-3.025zM60.805 57.583l2.059 3.018 1.135-2.943zM62.997 54.618l-2.192 2.965 3.194.075zM60.805 57.583l-1.39-3.021-1.968 2.979z"/><path d="M59.415 54.562l1.39 3.021 2.192-2.965zM54.166 51.493l1.744 3.028 1.645-2.997z"/><path d="M55.91 54.521l-1.744-3.028-1.717 3.003zM55.91 54.521l3.505.041-1.86-3.038zM59.415 54.562l-3.505-.041 1.537 3.02zM54.166 15.174l1.744-3.029-3.461.026zM55.91 12.145l-1.744 3.029 3.389-.032z"/><path d="M50.755 15.195l3.411-.021-1.717-3.003z"/><path d="M54.166 15.174l1.822 3.004 1.567-3.036z"/><path d="M54.166 15.174l-1.631 3.029 3.453-.025z"/><path d="M52.535 18.203l1.631-3.029-3.411.021zM50.814 21.233l-3.414.012 1.741 3.016z"/><path d="M47.4 21.245l3.414-.012-1.715-3.013zM52.572 24.248l-1.758-3.015-1.673 3.028z"/><path d="M50.814 21.233l1.721-3.03-3.436.017zM45.672 48.437l-1.69-3.023-1.731 3.019z"/><path d="M43.982 45.414l-3.419-.003 1.688 3.022z"/><path d="M43.982 45.414l-1.69-3.022-1.729 3.019z"/><path d="M43.982 45.414l1.733-3.017-3.423-.005zM43.982 45.414l3.418.007-1.685-3.024zM47.4 45.421l-3.418-.007 1.69 3.023zM45.672 18.23l1.728 3.015 1.699-3.025z"/><path d="M47.4 21.245l-1.728-3.015-1.69 3.022zM45.672 18.23l1.667-3.023-3.416.004zM47.339 15.207l-1.667 3.023 3.427-.01zM42.251 18.234l3.421-.004-1.749-3.019z"/><path d="M45.672 18.23l-3.421.004 1.731 3.018zM40.51 15.212l-3.41-.002 1.734 3.025z"/><path d="M37.1 15.21l3.41.002-1.739-3.028z"/><path d="M42.178 12.187l-1.668 3.025 3.413-.001z"/><path d="M40.51 15.212l1.668-3.025-3.407-.003zM42.251 18.234l-1.741-3.022-1.676 3.023zM40.51 15.212l1.741 3.022 1.672-3.023zM-15.766 18.22l3.427.01-1.667-3.023zM-10.648 21.252l-1.691-3.022-1.727 3.015z"/><path d="M-12.339 18.23l1.691 3.022 1.73-3.018zM-12.339 18.23l-3.427-.01 1.7 3.025zM-12.339 18.23l1.749-3.019-3.416-.004z"/><path d="M-10.59 15.211l-1.749 3.019 3.421.004zM-15.766 18.22l-1.656-3.025-1.78 3.008z"/><path d="M-19.202 18.203l1.78-3.008-3.411-.021zM-17.422 15.195l-1.694-3.024-1.717 3.003zM-17.422 15.195l1.656 3.025 1.76-3.013z"/><path d="M-15.68 12.184l-1.742 3.011 3.416.012z"/><path d="M-17.422 15.195l1.742-3.011-3.436-.013zM-12.121 6.127l-3.398.007 1.626 3.028zM-15.519 6.134L-17.3 9.161l3.407.001zM-17.3 9.161l1.781-3.027-3.416.004z"/><path d="M-15.519 6.134l-1.532-3.04-1.884 3.044z"/><path d="M-15.519 6.134l1.825-3.052-3.357.012z"/><path d="M-13.694 3.082l-1.825 3.052 3.398-.007zM18.371 18.224l1.707 3.025 1.701-3.024zM20.078 21.249l3.412.001-1.711-3.025z"/><path d="M20.078 21.249l1.71 3.023 1.702-3.022zM16.667 21.249h3.411l-1.707-3.025zM18.374 24.272l1.704-3.023h-3.411z"/><path d="M20.078 21.249l-1.704 3.023h3.414zM14.958 36.353l-1.709-3.02-1.708 3.02z"/><path d="M13.249 33.333H9.831l1.71 3.02zM16.667 33.333h-3.418l1.709 3.02zM13.249 33.333l-1.708-3.019-1.71 3.019zM6.418 27.295l3.416-.001-1.703-3.021z"/><path d="M9.834 27.294l-3.416.001 1.705 3.019zM11.541 30.314l-1.707-3.02-1.711 3.02z"/><path d="M9.834 27.294l1.707 3.02 1.71-3.021zM11.545 24.272l-1.711 3.022 3.417-.001z"/><path d="M9.834 27.294l1.711-3.022-3.414.001zM9.843 21.25l3.412-.001-1.7-3.024z"/><path d="M11.555 18.225l1.7 3.024 1.708-3.025z"/><path d="M13.255 21.249h3.412l-1.704-3.025zM11.545 24.272l1.71-3.023-3.412.001zM20.084 33.333l1.708 3.02 1.71-3.02z"/><path d="M21.792 36.353l-1.708-3.02-1.709 3.02zM20.084 33.333h-3.417l1.708 3.02zM21.792 30.314l-1.708 3.019h3.418zM18.375 30.314l1.709 3.019 1.708-3.019z"/><path d="M20.084 33.333l-1.709-3.019-1.708 3.019zM20.083 27.293l-1.708 3.021h3.417zM18.374 24.272l1.709 3.021 1.705-3.021z"/><path d="M20.083 27.293l-1.709-3.021-1.707 3.021zM18.375 30.314l1.708-3.021h-3.416zM23.499 27.294l-3.416-.001 1.709 3.021z"/><path d="M20.083 27.293l3.416.001-1.711-3.022zM60.875 51.564l-1.46 2.998 3.582.056zM60.875 51.564l-1.402-3.044-1.918 3.004z"/><path d="M64.002 51.593l-3.127-.029 2.122 3.054z"/><path d="M59.415 54.562l1.46-2.998-3.32-.04zM60.875 51.564l2.15-3.019-3.552-.025zM63.025 48.545l-2.15 3.019 3.127.029zM55.718 60.532l3.515.02-1.786-3.011zM59.233 60.552l-2.142 2.992 3.331-.006z"/><path d="M62.864 60.601l-3.631-.049 1.189 2.986zM59.233 60.552l-3.515-.02 1.373 3.012zM59.233 60.552l1.572-2.969-3.358-.042z"/><path d="M60.805 57.583l-1.572 2.969 3.631.049zM54.043 57.515l-3.41-.009 1.635 3.023zM55.718 60.532l-1.675-3.017-1.775 3.014z"/><path d="M50.633 57.506l3.41.009-1.594-3.019zM54.043 57.515l1.675 3.017 1.729-2.991z"/><path d="M55.91 54.521l-1.867 2.994 3.404.026z"/><path d="M54.043 57.515l1.867-2.994-3.461-.025zM54.217 21.214l-1.645 3.034 3.444-.016z"/><path d="M57.591 21.192l-3.374.022 1.799 3.018z"/><path d="M55.988 18.178l-1.771 3.036 3.374-.022zM52.535 18.203l1.682 3.011 1.771-3.036zM50.814 21.233l3.403-.019-1.682-3.011z"/><path d="M54.217 21.214l-3.403.019 1.758 3.015zM13.251 27.293l1.707 3.021 1.709-3.021zM18.375 30.314h-3.417l1.709 3.019z"/><path d="M11.541 30.314h3.417l-1.707-3.021zM14.958 30.314h3.417l-1.708-3.021zM13.249 33.333l1.709-3.019h-3.417zM14.958 30.314l-1.709 3.019h3.418zM18.374 24.272H14.96l1.707 3.021z"/><path d="M14.96 24.272l-1.709 3.021h3.416zM14.96 24.272h3.414l-1.707-3.023z"/><path d="M14.96 24.272h-3.415l1.706 3.021zM14.96 24.272l-1.705-3.023-1.71 3.023z"/><path d="M13.255 21.249l1.705 3.023 1.707-3.023z"/></svg>