<svg xmlns="http://www.w3.org/2000/svg" viewBox="-36.301 -36.301 100 81.504"><style>path{fill:#c8c5bd;stroke:navy;stroke-width:.5;stroke-linejoin:bevel}</style><path d="M-16.881 41.269l-2.408 1.493 3.29 1.63z"/><path d="M-15.999 44.392l-3.29-1.63.793 2.441zM43.397-35.489l3.291 1.629-.793-2.441zM-26.899 19.341l.988 3.041 1.58-2.308z"/><path d="M46.688-33.86l-3.291-1.629.883 3.122zM-14.515 7.029l-2.961-.034 1.381 2.643z"/><path d="M-17.476 6.995l-1.607 2.632 2.988.011zM-30.637-.479l-2.887-.568.945 2.907zM-15.828-16.246l1.93 2.264.772-3.142zM-10.842 42.716l-3.096-1.699.45 2.559zM-18.1 38.236l-2.967-.944.927 2.853zM-25.911 22.382l2.806.522-1.226-2.83zM63.699 18.496l-.898-2.765-2.464 1.159zM63.699 18.496l-3.362-1.606 1.054 2.356zM3.994 35.443l-.88 2.738 2.833-.92zM6.471 17.709l1.465-2.631-2.964-.045zM12.027-19.473l1.345-2.927-2.734.399zM15.576-23.965L13.372-22.4l3.366.694zM21.146-24.959l.306-3.4-2.471.803z"/><path d="M21.146-24.959l2.259-1.582-1.953-1.818zM-15.962 4.373l-1.545-2.69-1.369 2.597zM-15.962 4.373l-1.514 2.622 2.961.034z"/><path d="M-17.476 6.995l1.514-2.622-2.914-.093zM-27.268 3.804l-1.796 1.85 2.957.883zM-29.553 2.237l-1.084-2.716-1.942 2.339z"/><path d="M-29.553 2.237l2.285 1.567.922-2.469z"/><path d="M-27.268 3.804l2.781.194-1.859-2.663zM-24.487 3.998l-2.781-.194 1.161 2.733zM-11.663 33.16l2.887.022-1.239-2.693z"/><path d="M-8.776 33.182l1.661-2.674-2.9-.019zM-7.567 35.832l.919 2.781 1.907-2.91zM-16.881 41.269l-3.259-1.124.851 2.617zM-13.938 41.017l-2.061 3.375 2.511-.816z"/><path d="M-13.938 41.017l-2.943.252.882 3.123zM-16.881 41.269l2.943-.252-1.358-2.556z"/><path d="M-18.1 38.236l1.219 3.033 1.585-2.808z"/><path d="M-16.881 41.269l-1.219-3.033-2.04 1.909zM-16.334 35.671l1.038 2.79 1.797-2.792zM-16.334 35.671l-1.766 2.565 2.804.225zM-25.661 14.557l3.094.23-1.221-2.668zM-24.965 25.294l1.86-2.39-2.806-.522zM-20.46 22.618l-1.436-2.747-1.209 3.033z"/><path d="M-23.105 22.904l1.209-3.033-2.435.203zM-16.037 19.722l1.351-2.493-3.189.04z"/><path d="M-14.686 17.229l-1.351 2.493 3.037.076zM51.299 22.525l2.772-.9-1.835-1.893zM54.525 18.184l-.454 3.441 2.42-.787zM16.92 25.667l3.22.297-1.63-2.713zM27.428 27.789l2.139-1.572-3.491-.611zM29.895 1.842h-2.981l1.491 2.632zM-29.645 10.889l1.8-2.186-2.784-.841zM-29.064 5.654l1.219 3.049 1.738-2.166z"/><path d="M-27.845 8.703l-1.219-3.049-1.565 2.208zM.496 12.329l1.481-2.623-2.979-.018zM1.977 9.706L.496 12.329l2.977.036zM15.371 28.375l1.549-2.708-2.999.082zM15.371 28.375l-1.344 2.927 2.733-.399zM14.027 31.302l2.248 2.603.485-3.002zM16.275 33.905l2.624-.852-2.139-2.15zM-1.237 30.779l1.244 2.684 1.674-2.768zM6.471 17.709l2.967.049-1.502-2.68zM7.834 4.402l1.498 2.689 1.435-2.667zM7.936 15.078l-1.5-2.679-1.464 2.634zM6.436 12.399l-2.963-.034 1.499 2.668z"/><path d="M9.389 12.434l-2.953-.035 1.5 2.679zM31.288-29.167l1.196-2.776-2.954.96zM31.288-29.167l-2.333 1.615 3.184.751zM4.549-11.659l1.57 2.658 1.395-2.67zM5.938-14.332l-1.389 2.673 2.965-.012zM8.5-24.15l-.711 2.728 2.849-.579zM7.789-21.422L8.5-24.15l-2.78.903zM15.576-23.965l.772-2.735-2.786.905z"/><path d="M11.123-25.003L8.5-24.15l2.138 2.149z"/><path d="M13.372-22.4l-2.249-2.603-.485 3.002zM13.372-22.4l2.204-1.565-2.014-1.83z"/><path d="M13.372-22.4l.19-3.395-2.439.792zM26.239-27.096l-1.955-2.183-.879 2.738z"/><path d="M24.284-29.279l-2.832.92 1.953 1.818zM24.457-24.251l1.782-2.845-2.834.555z"/><path d="M21.146-24.959l3.311.708-1.052-2.29zM19.509-.848l-1.443 2.66 2.94.021zM24.457-24.251l-1.893 2.135 3.154.324z"/><path d="M22.564-22.116l1.893-2.135-3.311-.708zM28.955-27.552l1.238 2.912 1.946-2.161zM44.789-13.37l3.07-.346-1.667-2.179zM45.273-8.367l-3.189.04 1.596 2.468zM-23.901-13.623l-2.771.901 1.835 1.892zM-15.828-16.246l-.924 2.718 2.854-.454zM-16.752-13.528l.924-2.718-2.891.939zM-19.055-1.019l-1.534-2.716-1.433 2.499zM-17.507 1.683l-2.95-.161 1.581 2.758z"/><path d="M-20.457 1.522l-1.256 2.63 2.837.128zM-19.055-1.019l-1.402 2.541 2.95.161z"/><path d="M-20.457 1.522l1.402-2.541-2.967-.217zM-20.383 6.928l2.907.067-1.4-2.715zM-21.713 4.152l1.33 2.776 1.507-2.648zM-17.476 6.995l-2.907-.067 1.3 2.699zM-20.383 6.928l-1.638 2.631 2.938.068zM-24.957-1.279l-3.009.438 1.62 2.176zM-29.553 2.237l1.587-3.078-2.671.362z"/><path d="M-27.966-.841l-1.587 3.078 3.207-.902zM-29.553 2.237l.489 3.417 1.796-1.85z"/><path d="M-29.553 2.237l-2.102 2.466 2.591.951z"/><path d="M-31.655 4.703l2.102-2.466-3.026-.377zM-29.064 5.654l-2.591-.951 1.026 3.159zM-20.589-9.002l2.861-.017-1.399-2.906z"/><path d="M-17.728-9.019l-2.861.017 1.432 2.665zM-10.907-15.427l.734-2.656-2.953.959zM-3.89 38.069l2.334-1.615-3.185-.751zM-2.131 39.886l.575-3.432-2.334 1.615z"/><path d="M-6.648 38.613l2.758-.544-.851-2.366zM-2.131 39.886l2.56-.832-1.985-2.6z"/><path d="M-5.086 40.846l1.196-2.777-2.758.544zM-3.89 38.069l-1.196 2.777 2.955-.96zM-7.567 35.832l-1.62 2.759 2.539.022zM-7.115 30.508l1.259 2.614 1.747-2.395z"/><path d="M-5.856 33.122l-1.259-2.614-1.661 2.674zM-7.567 35.832l1.711-2.71-2.92.06zM-5.856 33.122l-1.711 2.71 2.826-.129zM-8.442 27.833l-2.884-.076 1.311 2.732zM-7.115 30.508l-1.327-2.675-1.573 2.656zM-12.876 30.413l1.213 2.747 1.648-2.671z"/><path d="M-11.326 27.757l-1.55 2.656 2.861.076zM-27.762 16.684l2.101-2.127-3.029-.728zM-24.363 17.262l-2.536 2.079 2.568.733zM-21.987 25.666l-2.053 2.476 2.556.969zM-21.987 25.666l1.527-3.048-2.645.286z"/><path d="M-24.965 25.294l2.978.372-1.118-2.762zM-21.987 25.666l-2.978-.372.925 2.848zM-19.09 19.841l3.053-.119-1.838-2.453zM-19.09 19.841l-2.806.03 1.436 2.747zM-20.787 12.236l-1.234-2.677-1.767 2.56zM-22.021 9.559l1.234 2.677 1.704-2.609z"/><path d="M-22.567 14.787l1.78-2.551-3.001-.117zM-19.416 14.786l-1.371-2.55-1.78 2.551zM-16.281 14.761l-3.135.025 1.541 2.483z"/><path d="M-14.686 17.229l-1.595-2.468-1.594 2.508zM-2.497 7.06l-1.501 2.609 2.996.019zM-14.515 7.029l1.439 2.609 1.555-2.595z"/><path d="M-13.076 9.638l-1.439-2.609-1.58 2.609zM-14.669 12.215l1.593-2.577h-3.019zM-3.998 9.669l1.501 2.625 1.495-2.606z"/><path d="M-.993 14.934l-1.504-2.64-1.499 2.586z"/><path d="M.496 12.329l-2.993-.035 1.504 2.64z"/><path d="M-2.497 12.294l2.993.035-1.498-2.641zM49.332 20.362l1.967 2.163.937-2.793zM60.337 16.89l-1.358 3.14 2.412-.784zM43.293 20.077l.858 2.353 2.375-1.602zM49.332 20.362l-1.345-2.458-1.461 2.924zM46.453 9.921l1.534 2.716 1.433-2.499zM16.92 25.667l-1.491-2.572-1.508 2.654zM16.931 20.553l-1.502 2.542 3.081.156zM15.429 23.095l1.491 2.572 1.59-2.416zM29.583 29.581l-2.155-1.792-.659 2.707zM28.424 9.767l-1.436 2.723 2.922-.12zM22.501 4.508l1.452-2.665-2.947-.01zM29.896 7.087l-2.961.054 1.489 2.626zM26.935 7.141l2.961-.054-1.491-2.613zM31.393 14.943l1.481 2.529 1.48-2.745zM34.373 19.928l-1.499-2.456-1.344 2.881zM39.019 17.2l-1.711 2.278 3.24.264z"/><path d="M31.393 14.943l1.48-2.718-2.963.145z"/><path d="M32.873 12.225l-1.48 2.718 2.961-.216zM-26.738 11.661l-2.907-.772.955 2.94zM-26.738 11.661l1.077 2.896 1.873-2.438zM-25.661 14.557l-1.077-2.896-1.952 2.168z"/><path d="M-26.738 11.661l-1.107-2.958-1.8 2.186zM7.834 4.402L6.336 1.717 4.898 4.394zM9.296 28.175L7.893 25.6l-1.566 2.668zM4.916 25.607L3.4 28.277l2.927-.009z"/><path d="M7.893 25.6l-2.977.007 1.411 2.661zM4.916 25.607l2.977-.007-1.446-2.63zM11.822 32.867l-.771 2.736 2.785-.905z"/><path d="M11.051 35.603l.771-2.736-2.84.569zM14.027 31.302l-.191 3.396 2.439-.793z"/><path d="M14.027 31.302l-2.205 1.565 2.014 1.831zM.429 39.054l.73-3.056-2.715.456zM3.994 35.443l-2.835.555 1.955 2.183z"/><path d="M1.159 35.998l-.73 3.056 2.685-.873zM1.159 35.998L.007 33.463l-1.563 2.991zM3.4 28.277l1.435 2.741 1.492-2.75z"/><path d="M4.835 31.018L3.4 28.277l-1.719 2.418zM5.947 37.261l2.47-.803-2.164-2.597zM8.417 36.458l2.634-.855-2.069-2.167z"/><path d="M5.947 37.261l.306-3.4-2.259 1.582zM6.253 33.861l2.164 2.597.565-3.022zM3.473 12.365l-1.479 2.618 2.978.05z"/><path d="M1.994 14.983L.496 12.329l-1.489 2.605z"/><path d="M.496 12.329l1.498 2.654 1.479-2.618z"/><path d="M.507 17.589l1.487-2.606-2.987-.049zM10.894 15.118l-1.505-2.684-1.453 2.644z"/><path d="M9.438 17.758l1.456-2.64-2.958-.04zM7.969 20.39l1.469-2.632-2.967-.049zM6.393 7.069l1.441-2.667-2.936-.008zM6.393 7.069l2.939.022-1.498-2.689zM34.046-29.71l-2.758.543.851 2.366z"/><path d="M31.288-29.167l2.758-.543-1.562-2.233zM46.688-33.86l-2.408 1.493 3.258 1.124zM41.336-32.115l2.061-3.374-2.511.816zM-.03-18.887l.66-2.706-2.815.914zM4.717-6.348l2.943.027-1.541-2.68zM7.258-17.061l-2.898.099 1.578 2.63z"/><path d="M4.36-16.962l2.898-.099-1.643-2.803zM13.477-16.846l-1.45-2.627-1.549 2.709zM13.477-16.846l-1.508 2.654 2.993-.007z"/><path d="M11.969-14.192l1.508-2.654-2.999.082zM9.027-19.187l-1.769 2.126 3.22.297z"/><path d="M12.027-19.473l-3 .286 1.451 2.423zM9.027-19.187l3-.286-1.389-2.528zM7.258-17.061l1.769-2.126-3.412-.677z"/><path d="M7.789-21.422l1.238 2.235 1.611-2.814z"/><path d="M9.027-19.187l-1.238-2.235-2.174 1.558zM5.72-23.247l-.105 3.383 2.174-1.558z"/><path d="M5.72-23.247l-2.441.793 2.336 2.59zM18.417-24.534l-2.841.569 1.162 2.259zM18.417-24.534l2.729-.425-2.165-2.597zM18.417-24.534L16.348-26.7l-.772 2.735z"/><path d="M16.348-26.7l2.069 2.166.564-3.022zM28.955-27.552l-1.985-2.6-.731 3.056zM29.53-30.983l-2.56.831 1.985 2.6zM29.53-30.983l-.575 3.431 2.333-1.615z"/><path d="M26.97-30.152l-2.686.873 1.955 2.183zM7.66-6.321l1.523 2.689L10.6-6.3zM13.699 4.451l-1.501-2.696-1.431 2.669z"/><path d="M12.198 1.755l1.501 2.696 1.432-2.667zM25.435-16.659l1.459 2.696 1.539-2.564zM22.564-22.116l1.435 2.741 1.719-2.417zM25.435-16.659l-1.436-2.716-1.516 2.67zM25.404-6.08l2.988.048-1.501-2.655zM27.392-24.561l-2.935.31 1.261 2.459zM27.392-24.561l-1.674 2.769 2.917-.085zM27.392-24.561l1.563-2.991-2.716.456z"/><path d="M24.457-24.251l2.935-.31-1.153-2.535zM27.392-24.561l2.801-.079-1.238-2.912zM30.193-24.64l-2.801.079 1.243 2.684zM34.514-21.606l-1.629 2.524 2.955.151zM40.275-21.511l1.285 2.775 1.572-2.609zM47.126-18.353l-2.771-.21 1.837 2.668zM41.56-18.736l2.795.173-1.223-2.782zM34.411-.747l-1.505-2.607-1.509 2.587zM46.488-10.939l1.371-2.777-3.07.346zM47.859-13.716l-1.371 2.777 2.807-.03zM26.894-13.963l2.991.106-1.452-2.67zM32.885-19.082l1.453 2.718 1.502-2.567zM56.951 6.665l-.489-3.417-1.795 1.85zM56.462 3.248l2.592.951-1.027-3.159zM-21.934-11.459l-1.967-2.164-.936 2.793zM-21.934-11.459l1.345 2.457 1.462-2.923zM-29.093-11.936l-2.488.809 1.564 2.369zM-26.672-12.722l-2.421.786 1.966 2.655zM-33.524-1.047l1.582-2.136-2.596-.987zM-31.54-5.853l-2.998 1.683 2.596.987zM-31.942-3.183l-1.582 2.136 2.887.568zM-31.54-5.853l-1.399-2.135-2.463 1.159zM-32.939-7.988l-1.054-2.356-2.308.75zM-32.939-7.988l-3.362-1.606.899 2.765z"/><path d="M-32.939-7.988l1.358-3.139-2.412.783z"/><path d="M-31.581-11.127l-1.358 3.139 2.922-.77zM-32.939-7.988l1.399 2.135 1.523-2.905zM-31.54-5.853l-3.862-.976.864 2.659zM-20.589-9.002l-1.565 2.672 2.997-.007zM-22.154-6.33l1.565 2.595 1.432-2.602zM-23.368 1.372l-1.119 2.626 2.774.154zM-23.368 1.372l-1.589-2.651-1.389 2.614z"/><path d="M-24.957-1.279l1.589 2.651 1.346-2.608zM-24.487 3.998l1.119-2.626-2.978-.037z"/><path d="M-20.457 1.522l-2.911-.15 1.655 2.78zM-23.368 1.372l2.911.15-1.565-2.758zM-5.495 1.851l2.998-.035-1.49-2.587zM-2.497 1.816l-2.998.035 1.503 2.596zM-13 4.42l-1.515 2.609 2.994.014z"/><path d="M-13 4.42l-2.962-.047 1.447 2.656zM-10.007 4.444L-13 4.42l1.479 2.623zM-23.241 6.797l-1.246-2.799-1.62 2.539z"/><path d="M-24.487 3.998l1.246 2.799 1.528-2.645z"/><path d="M-20.383 6.928l-2.858-.131 1.22 2.762z"/><path d="M-23.241 6.797l2.858.131-1.33-2.776zM-10.953 40.43l-2.985.587 3.096 1.699zM-10.463 35.877l2.896-.045-1.209-2.65zM-10.463 35.877l-1.2-2.717-1.836 2.509zM-11.663 33.16l1.2 2.717 1.687-2.695zM-10.463 35.877l1.276 2.714 1.62-2.759zM-1.556 36.454l-1.238-2.912-1.947 2.161z"/><path d="M.007 33.463l-2.801.079 1.238 2.912zM-2.794 33.542l1.557-2.763-2.872-.052z"/><path d="M-2.794 33.542l2.801-.079-1.244-2.684zM-5.856 33.122l3.062.42-1.315-2.815zM-2.794 33.542l-3.062-.42 1.115 2.581zM-11.663 33.16l-2.916-.164 1.08 2.673z"/><path d="M-14.579 32.996l-1.755 2.675 2.835-.002zM-12.876 30.413l-1.703 2.583 2.916.164z"/><path d="M-14.579 32.996l1.703-2.583-2.858-.165zM-16.334 35.671l-2.825-.462 1.059 3.027zM-18.1 38.236l-1.059-3.027-1.908 2.083zM-21.896 19.871l-2.467-2.609.032 2.812zM-25.661 14.557l1.298 2.705 1.796-2.475z"/><path d="M-27.762 16.684l3.399.578-1.298-2.705zM-24.363 17.262l-3.399-.578.863 2.657zM-17.737 12.231l3.068-.016-1.426-2.577zM-20.787 12.236l3.05-.005-1.346-2.604z"/><path d="M-19.083 9.627l1.346 2.604 1.642-2.593z"/><path d="M-17.737 12.231l-3.05.005 1.371 2.55zM-16.281 14.761l-1.456-2.53-1.679 2.555z"/><path d="M-17.737 12.231l1.456 2.53 1.612-2.546zM1.977 9.706L.484 7.06l-1.486 2.628z"/><path d="M.484 7.06h-2.981l1.495 2.628zM-8.509 7.049l-1.498-2.605-1.514 2.599zM-11.418 22.451l1.439-2.544-3.021-.109zM-10.067 14.769l3.047.052-1.519-2.6zM-16.281 14.761l3.131-.025-1.519-2.521zM-13.15 14.736l-3.131.025 1.595 2.468zM46.526 20.828l-.409 3.381 2.519-.819z"/><path d="M46.526 20.828l-2.375 1.602 1.966 1.779zM49.332 20.362l-.696 3.028 2.663-.865z"/><path d="M48.636 23.39l.696-3.028-2.806.466zM42.105 17.301l-3.086-.101 1.529 2.542z"/><path d="M43.293 20.077l-1.188-2.776-1.557 2.441zM53.744 7.567l-1.388 2.615 3.009-.438zM58.939 14.755l3.862.976-.864-2.659zM51.043 17.558l-1.711 2.804 2.904-.63z"/><path d="M51.043 17.558l-3.056.346 1.345 2.458zM13.917 20.462l3.014.091-1.55-2.693z"/><path d="M13.917 20.462l1.512 2.633 1.502-2.542zM21.783 28.767l1.256-2.902-2.899.099zM44.151 22.43l-.925 2.718 2.891-.939zM29.583 29.581l-.016-3.364-2.139 1.572z"/><path d="M29.583 29.581l2.476-.804-2.492-2.56zM25.49 9.838l1.498 2.652 1.436-2.723z"/><path d="M26.935 7.141L25.49 9.838l2.934-.071zM23.953 1.843l1.492 2.655 1.469-2.656zM26.914 1.842l-1.469 2.656 2.96-.024zM25.445 4.498l-1.492-2.655-1.452 2.665z"/><path d="M25.445 4.498l1.49 2.643 1.47-2.667zM35.832 17.152l1.628-2.448-3.106.023z"/><path d="M32.874 17.472l2.958-.32-1.478-2.425zM35.832 17.152l-2.958.32 1.499 2.456zM37.46 14.704l-1.628 2.448 3.187.048zM35.832 17.152l1.476 2.326 1.711-2.278z"/><path d="M37.308 19.478l-1.476-2.326-1.459 2.776zM37.439 9.626l-1.516 2.555 3.065.014zM37.46 14.704l-1.537-2.523-1.569 2.546zM35.923 12.181l1.537 2.523 1.528-2.509z"/><path d="M35.923 12.181l1.516-2.555-3.037.002zM32.873 12.225l3.05-.044-1.521-2.553zM35.923 12.181l-3.05.044 1.481 2.502zM29.896 7.087l1.49 2.587 1.507-2.622zM31.386 9.674l-2.962.093 1.486 2.603z"/><path d="M31.386 9.674l3.016-.046-1.509-2.576zM31.386 9.674l-1.49-2.587-1.472 2.68z"/><path d="M32.873 12.225l-1.487-2.551-1.476 2.696zM31.386 9.674l1.487 2.551 1.529-2.597zM6.336 1.717l-2.933.008 1.495 2.669zM12.198 1.755L9.266 1.73l1.501 2.694zM9.266 1.73L7.834 4.402l2.933.022z"/><path d="M9.266 1.73l-2.93-.013 1.498 2.685z"/><path d="M6.336 1.717l2.93.013L7.761-.962zM-1.025-.865l2.933-.071L.411-3.587zM-2.497 1.816l1.472-2.681-2.962.094zM-1.237 30.779l-1.333-2.713-1.539 2.661zM-6.939 25.266l-2.967-.131 1.464 2.698z"/><path d="M-8.442 27.833l-1.464-2.698-1.42 2.622zM9.296 28.175l1.672-2.408-3.075-.167zM10.66 30.609l1.162 2.258 2.205-1.565z"/><path d="M11.822 32.867l-1.162-2.258-1.678 2.827zM2.941 33.153l-1.782 2.845 2.835-.555zM6.253 33.861l-3.312-.708 1.053 2.29z"/><path d="M.007 33.463l2.934-.31-1.26-2.458z"/><path d="M1.159 35.998l1.782-2.845-2.934.31zM2.941 33.153l1.894-2.135-3.154-.323zM4.835 31.018l-1.894 2.135 3.312.708zM-.981 20.185l2.98.071-1.492-2.667zM-5.46 22.676l1.484-2.582-2.997-.087zM3.489 17.645l2.982.064-1.499-2.676z"/><path d="M1.999 20.256l1.49-2.611-2.982-.056z"/><path d="M3.489 17.645l-1.495-2.662-1.487 2.606z"/><path d="M1.994 14.983l1.495 2.662 1.483-2.612zM13.853 15.167l1.528 2.693 1.417-2.658zM7.889 9.75l-1.453 2.649 2.953.035zM6.393 7.069L7.889 9.75l1.443-2.659zM31.391 4.455l-1.495 2.632 2.997-.035zM31.391 4.455l-1.496-2.613-1.49 2.632z"/><path d="M29.896 7.087l1.495-2.632-2.986.019zM34.395 4.447l-3.004.008 1.502 2.597zM34.402 9.628l1.508-2.586-3.017.01z"/><path d="M37.439 9.626L35.91 7.042l-1.508 2.586zM35.91 7.042l-1.515-2.595-1.502 2.605zM42.068-3.312l-3.076.012 1.482 2.564z"/><path d="M43.494-.736l-1.426-2.576-1.594 2.576zM51.885 4.904l1.859 2.663.923-2.469zM51.761-8.36l-.031-2.811-2.435.202zM50.64 2.105L49.42-.657l-1.639 2.631zM34.046-29.71l1.271-3.154-2.833.921zM35.317-32.864l3.034 1.337-.11-2.287zM41.336-32.115l-1.524 2.829 2.882-.273zM38.351-31.527l2.985-.588-3.095-1.699z"/><path d="M41.336-32.115l-.45-2.558-2.645.859zM39.812-29.286l1.524-2.829-2.985.588zM41.336-32.115l2.944-.252-.883-3.122zM44.28-32.367l-2.944.252 1.358 2.556zM1.323-16.704l-3.492-.611 1.951 2.808zM-.03-18.887l-2.139 1.572 3.492.611zM4.717-6.348l1.531 2.694L7.66-6.321zM6.248-3.654l2.935.022L7.66-6.321zM9.183-3.632l-2.935-.022L7.761-.962zM1.534-11.766l-2.858.067 1.587 2.69z"/><path d="M-1.324-11.699l2.858-.067-1.752-2.741zM14.905-19.582L13.372-22.4l-1.345 2.927z"/><path d="M13.372-22.4l1.533 2.818 1.833-2.124z"/><path d="M13.477-16.846l1.428-2.736-2.878.109zM6.119-9.001l2.948.011-1.553-2.681zM7.66-6.321L9.067-8.99l-2.948-.011zM9.067-8.99L7.66-6.321l2.94.021zM8.888-14.349l-1.63-2.712-1.32 2.729z"/><path d="M7.258-17.061l1.63 2.712 1.59-2.415zM8.888-14.349l-2.95.017 1.576 2.661zM8.888-14.349l3.081.157-1.491-2.572zM2.858-19.486l-2.888.599 1.353 2.183zM2.858-19.486l1.502 2.524 1.255-2.902z"/><path d="M-.03-18.887l2.888-.599L.63-21.593zM4.36-16.962l-1.502-2.524-1.535 2.782z"/><path d="M2.858-19.486l.421-2.968-2.649.861zM3.279-22.454l-.421 2.968 2.757-.378zM19.712-22.006l2.852-.11-1.418-2.843z"/><path d="M18.417-24.534l1.295 2.528 1.434-2.953zM19.712-22.006l-1.295-2.528-1.679 2.828zM9.332 7.091l2.936.027-1.501-2.694z"/><path d="M12.268 7.118l1.431-2.667-2.932-.027zM16.631 4.479l1.435-2.667-2.935-.028z"/><path d="M13.699 4.451l2.932.028-1.5-2.695zM22.422-11.409l-1.471-2.658-1.522 2.58zM25.718-21.792l1.319 2.605 1.598-2.69zM27.037-19.187l-1.602 2.528 2.998.132zM27.037-19.187l2.931.023-1.333-2.713z"/><path d="M29.968-19.164l-2.931-.023 1.396 2.66zM27.037-19.187l-3.038-.188 1.436 2.716z"/><path d="M23.999-19.375l3.038.188-1.319-2.605zM28.392-6.032l1.492-2.588-2.993-.067zM32.906-3.354l-3.011-.038 1.502 2.625zM15.06-3.572l2.949.04-1.505-2.684zM22.459-.823l-2.95-.025 1.497 2.681zM23.953 1.843L22.459-.823l-1.453 2.656zM20.928-8.807l1.494-2.602-2.993-.078zM34.965-26.929l-.919-2.781-1.907 2.909zM29.968-19.164l1.54-2.66-2.873-.053z"/><path d="M31.508-21.824l-1.315-2.816-1.558 2.763zM31.508-21.824l-1.54 2.66 2.917.082zM34.514-21.606l-3.006-.218 1.377 2.742zM45.498-29.334l2.967.944-.927-2.853z"/><path d="M44.28-32.367l1.218 3.033 2.04-1.909zM45.498-29.334l-1.218-3.033-1.586 2.808z"/><path d="M48.465-28.39l-2.967-.944 1.06 3.027zM45.498-29.334l-1.765 2.565 2.825.462z"/><path d="M43.733-26.769l1.765-2.565-2.804-.225zM39.062-24.258l1.836-2.508-3.036-.208zM40.898-26.766l-1.086-2.52-1.95 2.312z"/><path d="M39.812-29.286l1.086 2.52 1.796-2.793zM40.898-26.766l2.835-.003-1.039-2.79zM53.31-13.479l-1.58 2.308 2.568.733z"/><path d="M43.733-26.769l1.072 2.84 1.753-2.378zM44.805-23.929l2.855.639-1.102-3.017zM49.422-25.444l-.957-2.946-1.907 2.083z"/><path d="M47.66-23.29l1.762-2.154-2.864-.863zM49.422-25.444L47.66-23.29l2.748.881zM37.414-21.587l2.861.076-1.213-2.747zM37.414-21.587l-2.9-.019 1.326 2.675zM45.273-8.367l-1.838-2.453-1.351 2.493z"/><path d="M46.488-10.939l-3.053.119 1.838 2.453z"/><path d="M43.435-10.82l3.053-.119-1.699-2.431zM43.189-15.986l1.6 2.616 1.403-2.525zM43.189-15.986l1.166-2.577-2.795-.173z"/><path d="M44.355-18.563l-1.166 2.577 3.003.091zM34.338-16.364l2.966.131-1.464-2.698zM34.411-.747l1.527-2.572-3.032-.035zM35.938-3.319l-1.52-2.6-1.512 2.565zM53.744 7.567l3.207-.902-2.284-1.567zM56.951 6.665l2.103-2.466-2.592-.951zM56.951 6.665l-3.207.902 1.621 2.177zM56.951 6.665l3.027.377-.924-2.843zM-19.127-11.925l.408-3.382-2.519.819zM-19.127-11.925l2.375-1.603-1.967-1.779zM-21.934-11.459l.696-3.029-2.663.865zM-21.238-14.488l-.696 3.029 2.807-.466zM-26.672-12.722l-.455 3.441 2.29-1.549zM-27.127-9.281l-1.966-2.655-.924 3.178zM-23.641-3.951l-1.316 2.672 2.935.043z"/><path d="M-20.589-3.735l-3.052-.216 1.619 2.715z"/><path d="M-22.154-6.33l-1.487 2.379 3.052.216zM-22.021 9.559l-2.903-.226 1.136 2.786zM-24.924 9.333l-1.814 2.328 2.95.458zM-27.845 8.703l2.921.63-1.183-2.796z"/><path d="M-26.738 11.661l1.814-2.328-2.921-.63zM-23.241 6.797l-1.683 2.536 2.903.226z"/><path d="M-24.924 9.333l1.683-2.536-2.866-.26zM-15.894-11.175l-.858-2.353-2.375 1.603zM-16.752-13.528l.858 2.353 1.996-2.807zM-17.728-9.019l1.834-2.156-3.233-.75z"/><path d="M-15.894-11.175l2.744.335-.748-3.142zM-7.869-16.149l.506-2.847-2.81.913z"/><path d="M-10.907-15.427l3.038-.722-2.304-1.934z"/><path d="M-8.581-13.386l.712-2.763-3.038.722z"/><path d="M-7.869-16.149l-.712 2.763 2.819-.566zM-10.907-15.427l-2.219-1.697-.772 3.142zM-10.907-15.427l-2.991 1.445 2.504 1.137z"/><path d="M-13.15-10.84l1.756-2.005-2.504-1.137z"/><path d="M-11.394-12.845l-1.756 2.005 3.241.264z"/><path d="M-8.581-13.386l-2.813.541 1.485 2.269zM-11.394-12.845l2.813-.541-2.326-2.041zM-10.953 40.43l3.035 1.336-1.269-3.175z"/><path d="M-7.918 41.766l2.832-.92-1.562-2.233z"/><path d="M-9.187 38.591l1.269 3.175 1.27-3.153zM-7.918 41.766l-3.035-1.336.111 2.286zM-10.953 40.43l-1.46-2.242-1.525 2.829zM-15.296 38.461l2.883-.273-1.086-2.519z"/><path d="M-13.938 41.017l1.525-2.829-2.883.273zM-12.413 38.188l1.46 2.242 1.766-1.839zM-10.463 35.877l-1.95 2.311 3.226.403zM-12.413 38.188l1.95-2.311-3.036-.208zM-21.987 25.666l3.193-.869-1.666-2.179z"/><path d="M-18.794 24.797l-3.193.869 2.259 1.589zM-12.876 30.413l-1.286-2.775-1.572 2.61z"/><path d="M-14.162 27.638l1.286 2.775 1.55-2.656zM-16.037 19.722l1.642 2.614L-13 19.798z"/><path d="M-14.395 22.336l2.977.115L-13 19.798zM-21.484 29.111l2.916.895-1.16-2.751z"/><path d="M-21.987 25.666l.503 3.445 1.756-1.856zM-18.568 30.006l-2.916-.895 1.222 3.081z"/><path d="M-21.484 29.111l-1.526 2.2 2.748.881z"/><path d="M-23.01 31.311l1.526-2.2-2.556-.969zM-18.568 30.006l1.161 2.825 1.673-2.583z"/><path d="M-17.407 32.831l2.828.165-1.155-2.748zM-14.579 32.996l-2.828-.165 1.073 2.84zM-17.407 32.831l-1.161-2.825-1.694 2.186z"/><path d="M-19.159 35.209l1.752-2.378-2.855-.639zM-17.407 32.831l-1.752 2.378 2.825.462zM-23.01 31.311l.986 3.036 1.762-2.155z"/><path d="M-22.024 34.347l2.865.862-1.103-3.017zM-19.159 35.209l-2.865-.862.957 2.945zM-19.416 14.786l-1.668 2.485 3.209-.002zM-21.084 17.271l1.994 2.57 1.215-2.572z"/><path d="M-21.084 17.271l1.668-2.485-3.151.001zM-19.09 19.841l-1.994-2.57-.812 2.6z"/><path d="M-21.084 17.271l-3.279-.009 2.467 2.609z"/><path d="M-24.363 17.262l3.279.009-1.483-2.484zM3.445 7.06l2.948.009-1.495-2.675zM3.445 7.06H.484l1.493 2.646zM-13.076 9.638l3.035-.002-1.48-2.593zM-7.013 9.649l-3.028-.013 1.502 2.585z"/><path d="M-8.509 7.049l-1.532 2.587 3.028.013zM-10.041 9.636l1.532-2.587-3.012-.006zM-5.497 7.057l3 .003-1.495-2.613zM-5.497 7.057l-1.516 2.592 3.015.02z"/><path d="M-2.497 7.06l-3-.003 1.499 2.612zM-5.497 7.057l-3.012-.008 1.496 2.6z"/><path d="M-7.013 9.649l1.505 2.607 1.51-2.587zM-5.508 12.256l-1.505-2.607-1.526 2.572zM-2.497 12.294l-3.011-.038 1.512 2.624z"/><path d="M-5.508 12.256l3.011.038-1.501-2.625z"/><path d="M-7.02 14.821l1.512-2.565-3.031-.035z"/><path d="M-5.508 12.256l-1.512 2.565 3.024.059zM-7.02 14.821l1.524 2.624 1.5-2.565zM-3.976 20.094l-1.52-2.649-1.477 2.562zM-9.979 19.907l-1.599-2.619-1.422 2.51zM-11.578 17.288l-3.108-.059L-13 19.798zM-13.15 14.736l1.572 2.552 1.511-2.519z"/><path d="M-11.578 17.288l-1.572-2.552-1.536 2.493zM40.556 14.745l-3.096-.041 1.559 2.496z"/><path d="M37.46 14.704l3.096.041-1.568-2.55z"/><path d="M42.105 17.301l-1.549-2.556-1.537 2.455z"/><path d="M40.556 14.745l1.549 2.556 1.559-2.275zM59.34 12.086l2.597.986-1.015-3.123zM61.937 13.072l-2.597-.986-.401 2.669z"/><path d="M58.939 14.755l.401-2.669-2.638.322zM58.939 14.755l1.398 2.135 2.464-1.159zM58.979 20.03l-1.563-2.37-.925 3.178z"/><path d="M57.416 17.66l1.563 2.37 1.358-3.14z"/><path d="M58.939 14.755l-1.523 2.905 2.921-.77zM47.987 17.904l-2.86.018 1.399 2.906zM45.127 17.922l-1.834 2.155 3.233.751zM42.105 17.301l3.022.621-1.463-2.896z"/><path d="M45.127 17.922l-3.022-.621 1.188 2.776z"/><path d="M46.556 15.24l-1.429 2.682 2.86-.018z"/><path d="M45.127 17.922l1.429-2.682-2.892-.214zM51.039 12.854l1.317-2.672-2.936-.044zM47.987 12.637l3.052.217-1.619-2.716zM43.361 4.529l-2.962-.047 1.533 2.645zM47.856 7.38l-1.403 2.541 2.967.217zM40.484 9.695l-3.045-.069 1.549 2.569zM40.484 9.695l3 .091-1.552-2.659z"/><path d="M45.044 12.478l1.512 2.762 1.431-2.603z"/><path d="M46.556 15.24l-1.512-2.762-1.38 2.548zM46.453 9.921l-1.409 2.557 2.943.159z"/><path d="M43.484 9.786l1.56 2.692 1.409-2.557zM18.371 28.089l1.769-2.125-3.22-.297zM18.371 28.089l-3 .286 1.389 2.528z"/><path d="M15.371 28.375l3-.286-1.451-2.422z"/><path d="M18.371 28.089l3.412.678-1.643-2.803zM41.297 22.884l1.996-2.807-2.745-.335zM43.293 20.077l-1.996 2.807 2.854-.454zM43.226 25.148l-1.929-2.264-.772 3.142z"/><path d="M41.297 22.884l1.929 2.264.925-2.718zM35.979 22.289l1.329-2.811-2.935.45zM35.268 25.052l-.507 2.847 2.81-.913zM18.215 12.535l1.523 2.688 1.413-2.667z"/><path d="M19.738 15.223l-1.523-2.688-1.417 2.667zM23.995 7.177l-2.932.008 1.502 2.683z"/><path d="M25.49 9.838l-1.495-2.661-1.43 2.691zM21.063 7.185l2.932-.008-1.494-2.669zM23.995 7.177l1.495 2.661 1.445-2.697z"/><path d="M25.445 4.498l-1.45 2.679 2.94-.036zM23.995 7.177l1.45-2.679-2.944.01zM-2.497 7.06l1.49-2.632-2.985.019z"/><path d="M-1.007 4.428l-1.49-2.612-1.495 2.631z"/><path d="M.484 7.06l-1.491-2.632-1.49 2.632zM-5.487 27.985l-2.955-.152 1.327 2.675zM-5.487 27.985l-1.628 2.523 3.006.219z"/><path d="M-5.487 27.985l-1.452-2.719-1.503 2.567zM-2.57 28.066l-2.917-.081 1.378 2.742zM7.969 20.39l2.971.044-1.502-2.676zM15.371 28.375l-2.878.109 1.534 2.818z"/><path d="M12.493 28.484l2.878-.109-1.45-2.626zM10.968 25.767l1.525 2.717 1.428-2.735zM12.493 28.484l-1.525-2.717-1.672 2.408z"/><path d="M10.66 30.609l1.833-2.125-3.197-.309zM12.493 28.484l-1.833 2.125 3.367.693zM4.835 31.018l2.852-.11-1.36-2.64zM7.687 30.908l-1.434 2.953 2.729-.425zM7.687 30.908l1.609-2.733-2.969.093z"/><path d="M7.687 30.908l-2.852.11 1.418 2.843zM10.66 30.609l-2.973.299 1.295 2.528z"/><path d="M7.687 30.908l2.973-.299-1.364-2.434zM-.981 20.185l1.485 2.68 1.495-2.609zM-9.979 19.907l1.544 2.666 1.462-2.566zM-9.906 25.135l1.471-2.562-2.983-.122z"/><path d="M-8.435 22.573l-1.544-2.666-1.439 2.544zM-8.435 22.573l-1.471 2.562 2.967.131zM-5.46 22.676l-2.975-.103 1.496 2.693z"/><path d="M-8.435 22.573l2.975.103-1.513-2.669zM7.969 20.39l-2.992-.079 1.47 2.659z"/><path d="M4.977 20.311l2.992.079-1.498-2.681zM4.977 20.311l-1.488-2.666-1.49 2.611z"/><path d="M3.489 17.645l1.488 2.666 1.494-2.602zM34.411-.747l-1.516 2.592 3.013.008zM29.895 1.842l3 .003-1.498-2.612z"/><path d="M32.895 1.845l1.5 2.602 1.513-2.594zM32.895 1.845l1.516-2.592-3.014-.02z"/><path d="M32.895 1.845l-1.504 2.61 3.004-.008zM31.391 4.455l1.504-2.61-3-.003zM34.395 4.447l3.011.011-1.498-2.605z"/><path d="M35.91 7.042l1.496-2.584-3.011-.011zM38.919 1.859l-1.513 2.599 2.993.024z"/><path d="M37.406 4.458l1.513-2.599-3.011-.006zM56.089-4.926l-.928-2.856-2.102 2.127zM51.761-8.36l2.537-2.078-2.568-.733z"/><path d="M55.161-7.782l-3.4-.578 1.298 2.705z"/><path d="M51.761-8.36l3.4.578-.863-2.656zM49.42-.657l-2.938-.068 1.299 2.699zM52.322-.431L49.42-.657l1.22 2.762zM-2.996-14.402l1.672 2.703 1.106-2.808zM-2.169-17.315l-.827 2.913 2.778-.105zM-2.185-20.679l-2.475.804 2.491 2.56z"/><path d="M-2.185-20.679l.016 3.364 2.139-1.572zM4.834-.965l1.502 2.682L7.761-.962zM3.403 1.725l1.431-2.69-2.926.029z"/><path d="M4.834-.965l-1.431 2.69 2.933-.008zM6.248-3.654L4.834-.965l2.927.003zM2.949-14.265l-1.626-2.439-1.541 2.197z"/><path d="M2.949-14.265l1.411-2.697-3.037.258zM2.949-14.265l1.6 2.606 1.389-2.673z"/><path d="M4.36-16.962l-1.411 2.697 2.989-.067zM2.949-14.265l-1.415 2.499 3.015.107z"/><path d="M1.534-11.766l1.415-2.499-3.167-.242zM1.805-6.325l1.351-2.723-2.893.039zM4.549-11.659L3.156-9.048l2.963.047z"/><path d="M3.156-9.048l1.561 2.7 1.402-2.653zM3.156-9.048L1.805-6.325l2.912-.023zM3.156-9.048l-1.622-2.718L.263-9.009z"/><path d="M1.534-11.766l1.622 2.718 1.393-2.611zM-1.324-11.699l-1.278 2.848 2.865-.158zM-8.581-13.386l1.606 2.36 1.213-2.926z"/><path d="M-6.975-11.026l-1.606-2.36-1.328 2.81zM19.506-16.698l1.445 2.631 1.532-2.638zM12.017-8.958l-2.95-.032L10.6-6.3zM13.628-.912l-1.43 2.667 2.933.029zM21.063 7.185l-1.426 2.679 2.928.004zM19.637 9.864l1.514 2.692 1.414-2.688z"/><path d="M19.637 9.864l-1.422 2.671 2.936.021z"/><path d="M18.215 12.535l1.422-2.671-2.933-.022z"/><path d="M15.279 12.509l2.936.026-1.511-2.693zM15.279 12.509l-1.426 2.658 2.945.035z"/><path d="M18.215 12.535l-2.936-.026 1.519 2.693zM7.889 9.75l2.944.032-1.501-2.691zM10.833 9.782L7.889 9.75l1.5 2.684z"/><path d="M10.833 9.782l1.435-2.664-2.936-.027zM19.564 4.5l1.499 2.685 1.438-2.677zM19.564 4.5l2.937.008-1.495-2.675z"/><path d="M18.066 1.812L19.564 4.5l1.442-2.667z"/><path d="M16.631 4.479l2.933.021-1.498-2.688zM12.268 7.118l2.932.029-1.501-2.696z"/><path d="M15.2 7.147l1.431-2.668-2.932-.028zM28.4-.786l1.495 2.628 1.502-2.609z"/><path d="M29.895 1.842L28.4-.786l-1.486 2.628zM29.895-3.392L28.4-.786l2.997.019zM20.962-3.497l-2.953-.035 1.5 2.684zM22.459-.823l-1.497-2.674-1.453 2.649zM16.459-11.532l1.502 2.677 1.468-2.632zM17.961-8.855l2.967.048-1.499-2.68zM39.812-29.286l-3.227-.402 1.277 2.714z"/><path d="M36.585-29.688l3.227.402-1.461-2.241z"/><path d="M35.317-32.864l1.268 3.176 1.766-1.839z"/><path d="M36.585-29.688l-1.268-3.176-1.271 3.154zM34.965-26.929l1.62-2.759-2.539-.022zM36.585-29.688l-1.62 2.759 2.897-.045zM33.254-24.22l1.711-2.709-2.826.128z"/><path d="M30.193-24.64l3.061.42-1.115-2.581zM33.254-24.22l-1.746 2.396 3.006.218z"/><path d="M31.508-21.824l1.746-2.396-3.061-.42zM50.503-14.001l-2.644.285 1.436 2.747zM51.73-11.171l-1.227-2.83-1.208 3.032zM50.503-14.001l2.807.522-.946-2.912z"/><path d="M53.31-13.479l-2.807-.522 1.227 2.83zM47.66-23.29l1.222 3.082 1.526-2.201zM48.882-20.208l-1.756 1.855 2.26 1.589z"/><path d="M48.882-20.208l2.556.969-1.03-3.17zM41.978-24.094l-1.703 2.583 2.857.166zM41.978-24.094l-1.08-2.672-1.836 2.508z"/><path d="M40.275-21.511l1.703-2.583-2.916-.164z"/><path d="M40.898-26.766l1.08 2.672 1.755-2.675z"/><path d="M41.978-24.094l2.827.165-1.072-2.84zM44.805-23.929l-2.827-.165 1.154 2.749zM29.968-19.164l1.421 2.702 1.496-2.62zM31.389-16.462l-1.421-2.702-1.535 2.637z"/><path d="M29.885-13.857l1.504-2.605-2.956-.065z"/><path d="M31.389-16.462l2.949.098-1.453-2.718zM31.389-16.462l1.47 2.688 1.479-2.59z"/><path d="M32.859-13.774l-1.47-2.688-1.504 2.605zM40.549-5.834l1.519 2.522 1.612-2.547z"/><path d="M42.084-8.327l-1.535 2.493 3.131-.025zM42.068-3.312l-1.519-2.522L38.992-3.3zM38.977-8.386l1.572 2.552 1.535-2.493zM41.793-13.434l1.642 2.614 1.354-2.55zM43.189-15.986l-1.396 2.552 2.996.064zM40.275-21.511l-1.551 2.656 2.836.119zM38.724-18.855l-1.31-2.732-1.574 2.656z"/><path d="M37.414-21.587l1.31 2.732 1.551-2.656zM37.304-16.233l1.42-2.622-2.884-.076zM38.992-3.3L37.439-.734l3.035-.002zM37.439-.734l-3.028-.013 1.497 2.6z"/><path d="M37.439-.734l1.48 2.593 1.555-2.595z"/><path d="M38.919 1.859l-1.48-2.593-1.531 2.587zM37.439-.734l-1.501-2.585-1.527 2.572z"/><path d="M35.938-3.319l1.501 2.585L38.992-3.3zM-21.934-11.459l-1.711 2.804 3.056-.347z"/><path d="M-23.645-8.655l1.711-2.804-2.903.629zM-23.645-8.655l1.491 2.325 1.565-2.672z"/><path d="M-27.127-9.281l3.482.626-1.192-2.175zM-26.563-3.768l-1.403 2.927 3.009-.438zM-23.641-3.951l-2.922.183 1.606 2.489zM-18.568 30.006l1.612-2.541-2.772-.21zM-18.794 24.797l1.838 2.668 1.166-2.577zM-16.956 27.465l-1.612 2.541 2.834.242z"/><path d="M-16.956 27.465l-1.838-2.668-.934 2.458zM-14.162 27.638l-2.794-.173 1.222 2.783zM-16.956 27.465l2.794.173-1.628-2.75zM-18.794 24.797l1.404-2.525-3.07.346zM-17.39 22.272l-1.7-2.431-1.37 2.777z"/><path d="M-19.09 19.841l1.7 2.431 1.353-2.55z"/><path d="M-17.39 22.272l-1.404 2.525 3.004.091z"/><path d="M-14.395 22.336l-2.995-.064 1.6 2.616z"/><path d="M-17.39 22.272l2.995.064-1.642-2.614zM-12.847 25.023l-1.315 2.615 2.836.119z"/><path d="M-9.906 25.135l-2.941-.112 1.521 2.734zM-12.847 25.023l2.941.112-1.512-2.684zM-14.162 27.638l1.315-2.615-2.943-.135z"/><path d="M-14.395 22.336l1.548 2.687 1.429-2.572z"/><path d="M-12.847 25.023l-1.548-2.687-1.395 2.552zM7.889 9.75l-2.95-.025 1.497 2.674zM4.939 9.725l-2.962-.019 1.496 2.659z"/><path d="M6.436 12.399L4.939 9.725l-1.466 2.64zM4.939 9.725l2.95.025-1.496-2.681zM3.445 7.06l1.494 2.665 1.454-2.656z"/><path d="M4.939 9.725L3.445 7.06 1.977 9.706zM-11.593 12.202l-1.557 2.534 3.083.033z"/><path d="M-11.593 12.202l1.526 2.567 1.528-2.548zM-11.593 12.202l-1.483-2.564-1.593 2.577zM-13.15 14.736l1.557-2.534-3.076.013z"/><path d="M-11.593 12.202l1.552-2.566-3.035.002z"/><path d="M-10.041 9.636l-1.552 2.566 3.054.019zM-8.509 7.049l1.512-2.594-3.01-.011zM-5.495 1.851l-1.502 2.604 3.005-.008z"/><path d="M-5.497 7.057l-1.5-2.602-1.512 2.594z"/><path d="M-6.997 4.455l1.5 2.602 1.505-2.61zM-2.485 17.523l2.992.066-1.5-2.655z"/><path d="M-2.485 17.523l1.492-2.589-3.003-.054zM-2.485 17.523l1.504 2.662 1.488-2.596z"/><path d="M-.981 20.185l-1.504-2.662-1.491 2.571zM-2.485 17.523l-3.011-.078 1.52 2.649z"/><path d="M-5.496 17.445l3.011.078-1.511-2.643zM-5.496 17.445l-3.026-.077 1.549 2.639zM-8.522 17.368l-1.457 2.539 3.006.1zM-8.522 17.368l1.502-2.547-3.047-.052z"/><path d="M-8.522 17.368l3.026.077-1.524-2.624zM-8.522 17.368l-3.056-.08 1.599 2.619z"/><path d="M-11.578 17.288l3.056.08-1.545-2.599zM58.035 9.381l-1.084-2.716-1.586 3.079zM56.702 12.408l1.333-3.027-2.67.363zM59.978 7.042l-1.943 2.339 2.887.568z"/><path d="M56.951 6.665l1.084 2.716 1.943-2.339zM59.34 12.086l-1.305-2.705-1.333 3.027z"/><path d="M58.035 9.381l1.305 2.705 1.582-2.137zM46.556 15.24l2.996-.007-1.565-2.596zM49.552 15.233l-2.996.007 1.431 2.664zM51.043 17.558l-1.491-2.325-1.565 2.671z"/><path d="M49.552 15.233l1.487-2.379-3.052-.217z"/><path d="M52.866 15.459l-3.314-.226 1.491 2.325z"/><path d="M49.552 15.233l3.314.226-1.827-2.605zM41.913 1.873l1.581-2.609h-3.02zM41.913 1.873l-2.994-.014 1.48 2.623z"/><path d="M38.919 1.859l2.994.014-1.439-2.609z"/><path d="M43.361 4.529l-1.448-2.656-1.514 2.609zM44.905 7.219l-1.421 2.567 2.969.135zM43.484 9.786l1.421-2.567-2.973-.092z"/><path d="M44.905 7.219l-1.544-2.69-1.429 2.598z"/><path d="M43.361 4.529l1.544 2.69 1.37-2.597zM44.905 7.219l2.951.161-1.581-2.758zM47.856 7.38l-2.951-.161 1.548 2.702zM50.767 7.53l1.589 2.652 1.388-2.615z"/><path d="M52.356 10.182L50.767 7.53l-1.347 2.608zM51.885 4.904L50.767 7.53l2.977.037z"/><path d="M50.767 7.53l-2.911-.15 1.564 2.758zM42.065 12.332l-1.581-2.637-1.496 2.5z"/><path d="M40.556 14.745l1.509-2.413-3.077-.137zM42.065 12.332l-1.509 2.413 3.108.281zM40.484 9.695l1.581 2.637 1.419-2.546z"/><path d="M42.065 12.332l2.979.146-1.56-2.692z"/><path d="M45.044 12.478l-2.979-.146 1.599 2.694zM23.039 25.865l1.501 2.523 1.536-2.782z"/><path d="M24.54 28.388l2.888-.599-1.352-2.183zM27.428 27.789l-2.888.599 2.229 2.108z"/><path d="M21.783 28.767l2.757-.379-1.501-2.523zM24.119 31.356l.421-2.968-2.757.379zM24.54 28.388l-.421 2.968 2.65-.86zM21.679 32.149l.104-3.382-2.173 1.558z"/><path d="M19.61 30.325l-.711 2.728 2.78-.904zM18.899 33.053l.711-2.728-2.85.578z"/><path d="M21.679 32.149l2.44-.793-2.336-2.589zM18.371 28.089l1.239 2.236 2.173-1.558z"/><path d="M19.61 30.325l-1.239-2.236-1.611 2.814zM30.394 23.304l2.766-.449-1.63-2.502z"/><path d="M33.16 22.855l1.213-2.927-2.843.425zM35.979 22.289l-2.819.566 2.108 2.197z"/><path d="M33.16 22.855l2.819-.566-1.606-2.361zM38.793 21.748l2.504 1.136-.749-3.142z"/><path d="M37.308 19.478l1.485 2.27 1.755-2.006zM41.297 22.884l-2.504-1.136-.488 2.581z"/><path d="M35.979 22.289l2.814-.541-1.485-2.27zM24.449 23.167l-1.41 2.698 3.037-.259zM28.723 20.601l1.671 2.703 1.136-2.951zM21.151 12.556l2.922-.008-1.508-2.68z"/><path d="M24.073 12.548l1.417-2.71-2.925.03z"/><path d="M25.49 9.838l-1.417 2.71 2.915-.058zM24.073 12.548l1.52 2.68 1.395-2.738zM16.931 20.553l1.401-2.661-2.951-.032z"/><path d="M15.381 17.86l2.951.032-1.534-2.69z"/><path d="M18.332 17.892l1.406-2.669-2.94-.021zM.464 1.761l2.939-.036L1.908-.936z"/><path d="M-1.025-.865L.464 1.761 1.908-.936z"/><path d="M.464 1.761L-1.025-.865l-1.472 2.681z"/><path d="M-1.007 4.428L.464 1.761l-2.961.055zM-3.99 25.365l-1.47-2.689-1.479 2.59zM-3.99 25.365l-1.497 2.62 2.917.081z"/><path d="M-5.487 27.985l1.497-2.62-2.949-.099zM9.468 23.073L7.969 20.39l-1.522 2.58zM7.893 25.6l1.575-2.527-3.021-.103zM10.968 25.767l-1.5-2.694L7.893 25.6z"/><path d="M9.468 23.073l1.472-2.639-2.971-.044zM12.404 17.797l-1.51-2.679-1.456 2.64zM12.404 17.797l1.513 2.665 1.464-2.602z"/><path d="M13.853 15.167l-1.449 2.63 2.977.063z"/><path d="M12.404 17.797l1.449-2.63-2.959-.049zM10.94 20.434l1.464-2.637-2.966-.039zM12.404 17.797l-1.464 2.637 2.977.028zM3.4 28.277l-3.039-.188 1.32 2.606z"/><path d="M.361 28.089l-1.598 2.69 2.918-.084zM.361 28.089l-2.931-.023 1.333 2.713zM3.471 22.932l1.445 2.675 1.531-2.637zM.504 22.865l2.967.067-1.472-2.676z"/><path d="M3.471 22.932l1.506-2.621-2.978-.055zM4.977 20.311l-1.506 2.621 2.976.038zM38.933 7.073l-3.023-.031 1.529 2.584zM40.399 4.482l-1.466 2.591 2.999.054zM38.933 7.073l1.551 2.622 1.448-2.568z"/><path d="M40.484 9.695l-1.551-2.622-1.494 2.553zM38.933 7.073l-1.527-2.615-1.496 2.584z"/><path d="M37.406 4.458l1.527 2.615 1.466-2.591zM51.761-8.36l-1.795 2.475 3.093.23zM53.506 2.365l-1.621 2.539 2.782.194z"/><path d="M56.462 3.248l-2.956-.883 1.161 2.733zM51.885 4.904l1.621-2.539-2.866-.26z"/><path d="M53.506 2.365L52.322-.431 50.64 2.105zM-2.996-14.402l-1.988-2.503-.778 2.953z"/><path d="M-4.984-16.905l-2.885.756 2.107 2.197z"/><path d="M-7.869-16.149l2.885-.756-2.379-2.091zM-4.984-16.905l1.988 2.503.827-2.913z"/><path d="M-4.66-19.875l-.324 2.97 2.815-.41z"/><path d="M-4.984-16.905l.324-2.97-2.703.879zM1.805-6.325l1.521 2.68 1.391-2.703zM1.908-.936l1.418-2.709-2.915.058z"/><path d="M3.326-3.645l-1.521-2.68L.411-3.587zM3.326-3.645l2.922-.009-1.531-2.694z"/><path d="M3.326-3.645l1.508 2.68 1.414-2.689zM4.834-.965l-1.508-2.68L1.908-.936zM-3.995-6.04l1.393-2.811-2.873.281zM-16.086-.884l-2.969-.135 1.548 2.702zM-14.707-8.399l-1.187-2.776-1.834 2.156zM-15.894-11.175l1.187 2.776 1.557-2.441zM-4.132-11.451l1.53 2.6 1.278-2.848zM-4.132-11.451l1.136-2.951-2.766.45z"/><path d="M-2.996-14.402l-1.136 2.951 2.808-.248z"/><path d="M-2.602-8.851l-1.53-2.6-1.343 2.881z"/><path d="M-4.132-11.451l-2.843.425 1.5 2.456z"/><path d="M-6.975-11.026l2.843-.425-1.63-2.501zM21.072-19.365l2.927-.01-1.435-2.741zM23.999-19.375l-2.927.01 1.411 2.66zM19.712-22.006l1.36 2.641 1.492-2.751z"/><path d="M21.072-19.365l-1.566 2.667 2.977-.007zM20.951-14.067l-3.02-.104 1.498 2.684zM17.931-14.171l-1.472 2.639 2.97.045z"/><path d="M16.459-11.532l1.472-2.639-2.969-.028zM19.506-16.698l-1.575 2.527 3.02.104zM13.545-6.265l1.515 2.693 1.444-2.644zM13.545-6.265l-1.528-2.693L10.6-6.3zM10.468-11.65l-1.58-2.699-1.374 2.678z"/><path d="M9.067-8.99l1.401-2.66-2.954-.021zM8.888-14.349l1.58 2.699 1.501-2.542zM12.017-8.958l-1.549-2.692-1.401 2.66zM18.066 1.812L16.565-.879l-1.434 2.663zM16.565-.879l1.501 2.691 1.443-2.66z"/><path d="M18.009-3.532L16.565-.879l2.944.031z"/><path d="M16.565-.879l1.444-2.653-2.949-.04z"/><path d="M13.628-.912l2.937.033-1.505-2.693z"/><path d="M16.565-.879l-2.937-.033 1.503 2.696zM10.694-.939L9.183-3.632 7.761-.962z"/><path d="M9.266 1.73l1.428-2.669-2.933-.023zM10.694-.939L9.266 1.73l2.932.025z"/><path d="M13.628-.912l-2.934-.027 1.504 2.694zM13.853 15.167l-1.514-2.693-1.445 2.644z"/><path d="M10.894 15.118l1.445-2.644-2.95-.04zM15.279 12.509l-2.94-.035 1.514 2.693z"/><path d="M12.339 12.474l-1.506-2.692-1.444 2.652zM19.564 4.5l-1.432 2.672 2.931.013zM19.637 9.864l-1.505-2.692-1.428 2.67z"/><path d="M18.132 7.172l1.505 2.692 1.426-2.679zM18.132 7.172L19.564 4.5l-2.933-.021zM15.2 7.147l2.932.025-1.501-2.693z"/><path d="M18.132 7.172L15.2 7.147l1.504 2.695zM23.927-14.03l1.508-2.629-2.952-.046z"/><path d="M20.951-14.067l2.976.037-1.444-2.675zM23.927-14.03l2.967.067-1.459-2.696z"/><path d="M22.422-11.409l1.505-2.621-2.976-.037zM25.399-11.354l-1.472-2.676-1.505 2.621z"/><path d="M23.927-14.03l1.472 2.676 1.495-2.609zM23.909-8.743l-1.482 2.612 2.977.051z"/><path d="M23.909-8.743l1.495 2.663 1.487-2.607zM23.909-8.743l-2.981-.064 1.499 2.676zM20.928-8.807l2.981.064-1.487-2.666z"/><path d="M25.399-11.354l-1.49 2.611 2.982.056zM23.909-8.743l1.49-2.611-2.977-.055zM28.379-11.283l1.506-2.574-2.991-.106zM29.884-8.62l-1.505-2.663-1.488 2.596z"/><path d="M28.379-11.283l-2.98-.071 1.492 2.667z"/><path d="M25.399-11.354l2.98.071-1.485-2.68zM34.418-5.919l-3.023-.058 1.511 2.623zM31.395-5.977L29.884-8.62l-1.492 2.588z"/><path d="M31.395-5.977l-1.5 2.585 3.011.038z"/><path d="M29.895-3.392l1.5-2.585-3.003-.055zM31.395-5.977l1.499-2.566-3.01-.077zM32.894-8.543l-1.499 2.566 3.023.058zM22.427-6.131l1.498 2.668 1.479-2.617z"/><path d="M20.962-3.497l2.963.034-1.498-2.668zM23.925-3.463l-2.963-.034 1.497 2.674zM20.928-8.807l-1.465 2.632 2.964.044z"/><path d="M19.463-6.175l1.499 2.678 1.465-2.634zM18.009-3.532l1.454-2.643-2.959-.041z"/><path d="M20.962-3.497l-1.499-2.678-1.454 2.643zM17.961-8.855l1.502 2.68 1.465-2.632z"/><path d="M19.463-6.175l-1.502-2.68-1.457 2.639zM36.175-24.279l2.887.021-1.2-2.716z"/><path d="M34.965-26.929l1.21 2.65 1.687-2.695zM36.175-24.279l1.239 2.692 1.648-2.671z"/><path d="M37.414-21.587l-1.239-2.692-1.661 2.673zM33.254-24.22l2.921-.059-1.21-2.65zM36.175-24.279l-2.921.059 1.26 2.614zM49.386-16.764l-2.26-1.589-.934 2.458z"/><path d="M48.882-20.208l.504 3.444 2.052-2.475zM47.859-13.716l1.527-3.048-3.194.869zM51.438-19.239l-2.052 2.475 2.978.373zM49.386-16.764l1.117 2.763 1.861-2.39z"/><path d="M50.503-14.001l-1.117-2.763-1.527 3.048zM44.355-18.563l1.612-2.541-2.835-.241z"/><path d="M45.967-21.104l-1.162-2.825-1.673 2.584zM45.967-21.104l-1.612 2.541 2.771.21z"/><path d="M44.805-23.929l1.162 2.825 1.693-2.186zM45.967-21.104l2.915.896-1.222-3.082zM48.882-20.208l-2.915-.896 1.159 2.751zM35.833-13.671l-2.974-.103 1.512 2.67zM37.304-16.233l-1.471 2.562 2.983.123zM32.859-13.774l2.974.103-1.495-2.693z"/><path d="M35.833-13.671l1.471-2.562-2.966-.131zM35.833-13.671l1.544 2.667 1.439-2.544z"/><path d="M37.377-11.004l-1.544-2.667-1.462 2.567zM32.894-8.543l3.027.078-1.55-2.639zM35.921-8.465l-3.027-.078 1.524 2.624zM37.377-11.004l-1.456 2.539 3.056.079z"/><path d="M35.921-8.465l1.456-2.539-3.006-.1zM37.377-11.004l3.022.108-1.583-2.652zM43.435-10.82l-3.036-.076 1.685 2.569z"/><path d="M40.399-10.896l-1.422 2.51 3.107.059z"/><path d="M40.399-10.896l-3.022-.108 1.6 2.618zM41.793-13.434l-1.394 2.538 3.036.076zM40.399-10.896l1.394-2.538-2.977-.114zM40.245-16.12l-2.941-.113 1.512 2.685z"/><path d="M41.793-13.434l-1.548-2.686-1.429 2.572zM40.245-16.12l2.944.134-1.629-2.75zM40.245-16.12l1.548 2.686 1.396-2.552zM40.245-16.12l-1.521-2.735-1.42 2.622z"/><path d="M38.724-18.855l1.521 2.735 1.315-2.616zM-29.303-3.506l-2.639.323 1.305 2.704z"/><path d="M-27.966-.841l-1.337-2.665-1.334 3.027z"/><path d="M-31.942-3.183l2.639-.323-2.237-2.347zM-26.563-3.768l-2.74.262 1.337 2.665zM-23.645-8.655l-1.823 2.098 3.314.227z"/><path d="M-25.468-6.557l1.827 2.606 1.487-2.379zM-25.468-6.557l1.823-2.098-3.482-.626z"/><path d="M-25.468-6.557l-1.095 2.789 2.922-.183zM54.525 18.184l-3.482-.626 1.193 2.174zM54.525 18.184l-2.289 1.548 1.835 1.893zM57.416 17.66l-2.891.524 1.966 2.654z"/><path d="M54.525 18.184l-1.659-2.725-1.823 2.099zM53.961 12.671l2.741-.263-1.337-2.664z"/><path d="M52.356 10.182l1.605 2.489 1.404-2.927z"/><path d="M51.039 12.854l2.922-.183-1.605-2.489zM52.866 15.459l1.095-2.788-2.922.183zM44.874 1.907l1.401 2.715 1.506-2.648zM44.874 1.907l1.608-2.632-2.988-.011z"/><path d="M44.874 1.907l-1.513 2.622 2.914.093zM46.482-.725l-1.608 2.632 2.907.067z"/><path d="M44.874 1.907l-2.961-.034 1.448 2.656z"/><path d="M41.913 1.873l2.961.034-1.38-2.643zM49.111 4.75l2.774.154-1.245-2.799z"/><path d="M49.111 4.75l1.529-2.645-2.859-.131z"/><path d="M46.275 4.622l2.836.128-1.33-2.776z"/><path d="M47.856 7.38l1.255-2.63-2.836-.128zM50.767 7.53l-1.656-2.78-1.255 2.63z"/><path d="M49.111 4.75l1.656 2.78 1.118-2.626zM34.761 27.899l-2.378-2.092-.324 2.97zM32.383 25.807l-1.989-2.503-.827 2.913zM32.059 28.777l.324-2.97-2.816.41zM32.383 25.807l2.378 2.092.507-2.847z"/><path d="M33.16 22.855l-.777 2.952 2.885-.755z"/><path d="M32.383 25.807l.777-2.952-2.766.449zM38.305 24.329l-2.326-2.04-.711 2.763zM40.525 26.026l-2.22-1.697-.734 2.657z"/><path d="M38.305 24.329l-3.037.723 2.303 1.934zM38.305 24.329l.488-2.581-2.814.541zM41.297 22.884l-2.992 1.445 2.22 1.697zM23.039 25.865l-1.578-2.63-1.321 2.729z"/><path d="M20.14 25.964l1.321-2.729-2.951.016zM24.449 23.167l-2.988.068 1.578 2.63zM30.001 17.754l2.873-.282-1.481-2.529zM32.874 17.472l-2.873.282 1.529 2.599z"/><path d="M30.001 17.754l-1.278 2.847 2.807-.248zM30.394 23.304l-2.777.105 1.95 2.808z"/><path d="M29.567 26.217l-1.95-2.808-1.541 2.197z"/><path d="M27.617 23.409l-3.168-.242 1.627 2.439z"/><path d="M24.449 23.167l3.168.242-1.752-2.741zM27.617 23.409l1.106-2.808-2.858.067z"/><path d="M28.723 20.601l-1.106 2.808 2.777-.105zM19.738 15.223l2.943.027-1.53-2.694zM25.593 15.228l-2.912.022 1.562 2.7z"/><path d="M24.073 12.548l-1.392 2.702 2.912-.022z"/><path d="M22.681 15.25l1.392-2.702-2.922.008zM1.954 4.404L3.445 7.06l1.453-2.666z"/><path d="M3.403 1.725L1.954 4.404l2.944-.01zM3.445 7.06L1.954 4.404.484 7.06z"/><path d="M1.954 4.404l-2.961.024L.484 7.06zM1.954 4.404L.464 1.761l-1.471 2.667z"/><path d="M.464 1.761l1.49 2.643 1.449-2.679zM-2.486 22.76l1.505-2.575-2.995-.091z"/><path d="M-5.46 22.676l2.974.084-1.49-2.666zM-2.486 22.76l2.99.105-1.485-2.68zM-3.99 25.365l1.504-2.605-2.974-.084zM12.437 23.101l-1.469 2.666 2.953-.018zM15.429 23.095l-2.992.006 1.484 2.648zM13.917 20.462l-1.48 2.639 2.992-.006z"/><path d="M10.94 20.434l1.497 2.667 1.48-2.639z"/><path d="M9.468 23.073l2.969.028-1.497-2.667zM12.437 23.101l-2.969-.028 1.5 2.694zM1.964 25.562L.361 28.089l3.039.188z"/><path d="M4.916 25.607l-2.952-.045L3.4 28.277z"/><path d="M1.964 25.562l1.507-2.63-2.967-.067z"/><path d="M3.471 22.932l-1.507 2.63 2.952.045zM48.185-3.334L46.482-.725l2.938.068zM48.482-8.369l-1.994-2.57-1.215 2.572z"/><path d="M46.488-10.939l1.994 2.57.813-2.6z"/><path d="M48.482-8.369l3.279.009-2.466-2.609z"/><path d="M48.482-8.369l1.484 2.484 1.795-2.475zM54.137-2.758l1.952-2.168-3.03-.729zM54.137-2.758l2.907.771-.955-2.939zM1.805-6.325l-2.896.097L.411-3.587z"/><path d="M-1.091-6.228l2.896-.097L.263-9.009zM-2.602-8.851l1.511 2.623L.263-9.009zM-3.995-6.04l2.904-.188-1.511-2.623zM-13 4.42l-1.533-2.644-1.429 2.597z"/><path d="M-15.962 4.373l1.429-2.597-2.974-.093zM-14.533 1.776l-1.553-2.66-1.421 2.567zM-8.512 1.86l1.515 2.595 1.502-2.604z"/><path d="M-6.997 4.455L-8.512 1.86l-1.495 2.584zM-13.15-10.84l1.529 2.542 1.712-2.278zM-14.707-8.399l3.086.101-1.529-2.542zM-16.266-6.123l-1.462-2.896-1.429 2.682z"/><path d="M-16.266-6.123l1.559-2.276-3.021-.62zM14.905-19.582l3.197.309-1.364-2.433z"/><path d="M18.102-19.273l1.61-2.733-2.974.3zM21.072-19.365l-2.97.092 1.404 2.575z"/><path d="M18.102-19.273l2.97-.092-1.36-2.641zM17.961-8.855l-2.966-.04 1.509 2.679zM14.995-8.895l2.966.04-1.502-2.677z"/><path d="M13.545-6.265l1.45-2.63-2.978-.063zM14.995-8.895l-1.45 2.63 2.959.049zM12.119-3.607l1.509 2.695 1.432-2.66z"/><path d="M12.119-3.607l1.426-2.658L10.6-6.3z"/><path d="M9.183-3.632l2.936.025L10.6-6.3zM13.545-6.265l-1.426 2.658 2.941.035z"/><path d="M12.119-3.607L10.694-.939l2.934.027z"/><path d="M10.694-.939l1.425-2.668-2.936-.025zM10.833 9.782l2.937.032-1.502-2.696zM15.2 7.147l-1.43 2.667 2.934.028zM13.77 9.814l1.509 2.695 1.425-2.667z"/><path d="M13.77 9.814l1.43-2.667-2.932-.029zM12.339 12.474l1.431-2.66-2.937-.032z"/><path d="M13.77 9.814l-1.431 2.66 2.94.035zM32.894-8.543l-1.519-2.649-1.491 2.572zM31.375-11.192l1.484-2.582-2.974-.083zM32.859-13.774l-1.484 2.582 2.996.088z"/><path d="M31.375-11.192l1.519 2.649 1.477-2.561zM31.375-11.192l-2.996-.091 1.505 2.663z"/><path d="M28.379-11.283l2.996.091-1.49-2.665zM26.903-3.427l2.992.035-1.503-2.64z"/><path d="M26.903-3.427l1.489-2.605-2.988-.048zM26.903-3.427L28.4-.786l1.495-2.606z"/><path d="M23.925-3.463l2.978.036-1.499-2.653zM35.938-3.319l1.527-2.548-3.047-.052zM37.465-5.867l-1.527 2.548 3.054.019z"/><path d="M40.549-5.834l-3.084-.033L38.992-3.3zM37.465-5.867l3.084.033-1.572-2.552zM35.921-8.465l1.544 2.598 1.512-2.519z"/><path d="M37.465-5.867l-1.544-2.598-1.503 2.546zM-29.303-3.506l.869-2.846-3.106.499z"/><path d="M-31.54-5.853l3.106-.499-1.583-2.406z"/><path d="M-28.434-6.352l1.307-2.929-2.89.523zM-28.434-6.352l-.869 2.846 2.74-.262z"/><path d="M-25.468-6.557l-2.966.205 1.871 2.584z"/><path d="M-28.434-6.352l2.966-.205-1.659-2.724zM55.833 15.254l-1.308 2.93 2.891-.524zM55.833 15.254l3.106-.499-2.237-2.347z"/><path d="M55.833 15.254l1.583 2.406 1.523-2.905zM54.525 18.184l1.308-2.93-2.967.205zM55.833 15.254l-1.872-2.583-1.095 2.788z"/><path d="M53.961 12.671l1.872 2.583.869-2.846zM18.332 17.892l2.948.011-1.542-2.68z"/><path d="M21.28 17.903l1.401-2.653-2.943-.027zM22.681 15.25l-1.401 2.653 2.963.047zM25.593 15.228l2.896-.098-1.501-2.64zM28.489 15.13l2.904-.187-1.483-2.573z"/><path d="M26.988 12.49l1.501 2.64 1.421-2.76zM28.489 15.13l1.512 2.624 1.392-2.811zM.361 28.089l-1.396-2.659-1.535 2.636zM-2.486 22.76l1.451 2.67 1.539-2.565z"/><path d="M-1.035 25.43l-2.955-.065 1.42 2.701z"/><path d="M-1.035 25.43l-1.451-2.67-1.504 2.605zM1.964 25.562l-2.999-.132 1.396 2.659zM-1.035 25.43l2.999.132-1.46-2.697zM42.068-3.312l3.068-.017-1.456-2.53z"/><path d="M46.482-.725l-1.346-2.604-1.642 2.593z"/><path d="M45.136-3.329l-3.068.017 1.426 2.576zM48.185-3.334l-3.049.005 1.346 2.604zM52.322-.431l-1.135-2.786-1.767 2.56zM48.185-3.334l3.002.117-1.221-2.668z"/><path d="M49.966-5.885l1.221 2.668 1.872-2.438z"/><path d="M51.187-3.217l-3.002-.117L49.42-.657zM54.137-2.758l-2.95-.459 1.135 2.786z"/><path d="M51.187-3.217l2.95.459-1.078-2.897zM57.044-1.987L55.243.199l2.784.841z"/><path d="M55.243.199l1.219 3.049 1.565-2.208z"/><path d="M55.243.199l-1.737 2.166 2.956.883z"/><path d="M53.506 2.365L55.243.199l-2.921-.63zM54.137-2.758L55.243.199l1.801-2.186z"/><path d="M55.243.199l-1.106-2.957-1.815 2.327zM-10.041-.724l1.517-2.555-3.066-.013zM-1.091-6.228l-1.42 2.76 2.922-.119z"/><path d="M-2.511-3.468l1.486 2.603L.411-3.587z"/><path d="M-1.025-.865l-1.486-2.603-1.476 2.697zM-2.511-3.468l1.42-2.76-2.904.188z"/><path d="M-5.474-3.323l2.963-.145-1.484-2.572zM-2.511-3.468l-2.963.145 1.487 2.552zM-13.086-.792l3.045.068-1.549-2.568z"/><path d="M-14.533 1.776l1.447-2.568-3-.092zM-6.975-11.026l-1.459 2.777 2.959-.321zM-8.434-8.249l1.459-2.777-2.934.45zM-11.621-8.298l3.187.049-1.475-2.327zM-17.646-3.576l-2.943-.159 1.534 2.716zM-20.589-3.735l2.943.159-1.511-2.761zM-16.086-.884l-1.56-2.692-1.409 2.557z"/><path d="M-17.646-3.576l1.38-2.547-2.891-.214zM-13.158-5.842l1.537-2.456-3.086-.101z"/><path d="M-16.266-6.123l3.108.281-1.549-2.557zM17.931-14.171l-1.501-2.694-1.468 2.666zM16.43-16.865l-2.953.019 1.485 2.647z"/><path d="M16.43-16.865l-1.525-2.717-1.428 2.736zM16.43-16.865l1.501 2.694 1.575-2.527z"/><path d="M18.102-19.273l-1.672 2.408 3.076.167z"/><path d="M16.43-16.865l1.672-2.408-3.197-.309zM13.481-11.56l2.978.028-1.497-2.667zM10.468-11.65l3.013.09-1.512-2.632z"/><path d="M11.969-14.192l1.512 2.632 1.481-2.639zM13.481-11.56l-3.013-.09 1.549 2.692zM14.995-8.895l-1.514-2.665-1.464 2.602zM13.481-11.56l1.514 2.665 1.464-2.637zM25.421-.804l-2.962-.019 1.494 2.666z"/><path d="M25.421-.804l-1.468 2.647 2.961-.001z"/><path d="M28.4-.786l-2.979-.018 1.493 2.646zM25.421-.804l-1.496-2.659-1.466 2.64z"/><path d="M25.421-.804l1.482-2.623-2.978-.036zM26.903-3.427L25.421-.804l2.979.018zM22.849 20.561l1.6 2.606 1.416-2.499zM22.849 20.561l3.016.107-1.622-2.718zM22.849 20.561l-1.388 2.674 2.988-.068zM21.28 17.903l1.569 2.658 1.394-2.611zM27.136 17.912l-1.543-2.684-1.35 2.722z"/><path d="M28.723 20.601l-1.587-2.689-1.271 2.756z"/><path d="M25.865 20.668l1.271-2.756-2.893.038zM30.001 17.754l-2.865.158 1.587 2.689zM28.489 15.13l-1.353 2.782 2.865-.158zM27.136 17.912l1.353-2.782-2.896.098zM46.815-5.883l1.37 2.549 1.781-2.551zM46.815-5.883l1.667-2.486-3.209.002z"/><path d="M46.815-5.883l-1.542-2.484-1.593 2.508zM48.482-8.369l-1.667 2.486 3.151-.002z"/><path d="M46.815-5.883l-1.679 2.554 3.049-.005z"/><path d="M45.136-3.329l1.679-2.554-3.135.024zM-7.004-.726L-8.512 1.86l3.017-.009zM-5.474-3.323l-1.53 2.597 3.017-.045zM-7.004-.726l1.509 2.577 1.508-2.622zM-8.512 1.86l1.508-2.586-3.037.002z"/><path d="M-8.524-3.279l1.52 2.553 1.53-2.597z"/><path d="M-7.004-.726l-1.52-2.553-1.517 2.555zM-11.534 1.829l-2.999-.053L-13 4.42zM-11.534 1.829L-13 4.42l2.993.024zM-11.534 1.829l3.022.031-1.529-2.584z"/><path d="M-8.512 1.86l-3.022-.031 1.527 2.615zM-11.534 1.829l-1.552-2.621-1.447 2.568z"/><path d="M-13.086-.792l1.552 2.621 1.493-2.553zM-6.956-5.824l1.482 2.501 1.479-2.717zM-6.956-5.824l-1.568 2.545 3.05-.044z"/><path d="M-6.956-5.824l2.961-.216-1.48-2.53z"/><path d="M-8.434-8.249l1.478 2.425 1.481-2.746zM-14.667-3.43l-2.979-.146 1.56 2.692zM-14.667-3.43l1.581 2.638 1.496-2.5zM-13.086-.792l-1.581-2.638-1.419 2.546z"/><path d="M-17.646-3.576l2.979.146-1.599-2.693zM-14.667-3.43l1.509-2.412-3.108-.281zM-13.158-5.842l-1.509 2.412 3.077.138zM19.885 20.573l-1.553-2.681-1.401 2.661zM19.885 20.573l-2.954-.02 1.579 2.698z"/><path d="M21.461 23.235l-1.576-2.662-1.375 2.678zM19.885 20.573l1.395-2.67-2.948-.011zM19.885 20.573l2.964-.012-1.569-2.658zM22.849 20.561l-2.964.012 1.576 2.662zM-10.062-5.801l1.628-2.448-3.187-.049zM-10.062-5.801l-3.096-.041 1.568 2.55zM-8.524-3.279l-1.538-2.522-1.528 2.509z"/><path d="M-13.158-5.842l3.096.041-1.559-2.497zM-10.062-5.801l3.106-.023-1.478-2.425z"/><path d="M-6.956-5.824l-3.106.023 1.538 2.522z"/></svg>