<svg xmlns="http://www.w3.org/2000/svg" viewBox="-108.902 0 300 244.512"><style>path{fill:none;stroke:#000;stroke-width:1;stroke-linejoin:bevel}</style><path d="M-50.644 232.71l-7.224 4.479 9.872 4.888z"/><path d="M-47.996 242.077l-9.872-4.888 2.38 7.323zM130.191 2.435l9.872 4.888L137.684 0zm-210.889 164.49l2.964 9.122 4.74-6.923zM140.063 7.323l-9.872-4.888 2.649 9.366zM-43.544 129.991l-8.883-.103 4.141 7.928zm-8.883-.103l-4.823 7.895 8.964.033zm-39.483-22.422l-8.661-1.704 2.833 8.72zm44.427-47.302l5.788 6.792 2.316-9.425zm14.956 176.887l-9.286-5.098 1.35 7.676zM-54.3 223.612l-8.9-2.833 2.781 8.559z"/><path d="M-77.734 176.047l8.419 1.566-3.679-8.489zm268.832-11.656l-2.695-8.295-7.391 3.477z"/><path d="M191.098 164.391l-10.086-4.818 3.162 7.067zM11.982 215.232l-2.639 8.215 8.497-2.761zm7.43-53.202l4.396-7.895-8.893-.133zm16.67-111.545l4.034-8.783-8.201 1.197zm10.646-13.477l-6.612 4.694 10.099 2.081zm16.709-2.981l.919-10.201-7.412 2.408zm0 0l6.777-4.747-5.858-5.454zm-111.324 87.995l-4.633-8.069-4.109 7.79zm0 0l-4.54 7.866 8.883.103z"/><path d="M-52.427 129.888l4.54-7.866-8.742-.279zm-29.378-9.573l-5.386 5.549 8.869 2.649zm-6.854-4.702l-3.251-8.147-5.828 7.016zm0 0l6.854 4.702 2.768-7.407z"/><path d="M-81.805 120.315l8.345.582-5.577-7.989zm8.345.582l-8.345-.582 3.483 8.198zm38.47 87.485l8.661.065-3.717-8.077zm8.661.065l4.983-8.021-8.7-.056zm3.629 7.951l2.757 8.343 5.72-8.728zm-27.944 16.312l-9.775-3.372 2.551 7.851zm8.831-.757l-6.183 10.124 7.533-2.448z"/><path d="M-41.813 231.953l-8.831.757 2.648 9.367z"/><path d="M-50.644 232.71l8.831-.757-4.074-7.667z"/><path d="M-54.3 223.612l3.656 9.098 4.757-8.424z"/><path d="M-50.644 232.71l-3.656-9.098-6.119 5.726zm1.642-16.795l3.115 8.371 5.389-8.378z"/><path d="M-49.002 215.915l-5.298 7.697 8.413.674zm-27.98-63.342l9.281.69-3.664-8.003zm2.087 32.21l5.58-7.17-8.419-1.566zm13.514-8.026l-4.308-8.242-3.626 9.098zm-7.934.856l3.626-9.098-7.305.609zm21.205-9.545l4.052-7.479-9.566.12zm4.052-7.479l-4.052 7.479 9.109.229zm197.956 15.889l8.314-2.702-5.504-5.677zm9.677-13.025l-1.363 10.323 7.261-2.359zM50.76 185.902l9.661.892-4.89-8.139zm31.524 6.369l6.417-4.718-10.474-1.833zm7.402-77.843l-8.944.002 4.473 7.895zm-178.622 27.141l5.401-6.557-8.352-2.523zm1.745-15.705l3.656 9.148 5.213-6.499z"/><path d="M-83.535 135.012l-3.656-9.148-4.696 6.625zM1.487 145.89l4.445-7.869-8.937-.055zm4.445-7.869l-4.445 7.869 8.933.107zm40.182 56.006l4.646-8.125-8.996.246zm0 0l-4.034 8.783 8.201-1.198zm-4.034 8.783l6.746 7.808 1.455-9.006zm6.746 7.808l7.87-2.557-6.415-6.449zM-3.71 201.24l3.73 8.051 5.022-8.305zm23.122-39.21l8.901.145-4.505-8.04zm4.091-39.921l4.494 8.066 4.305-8.001zm.305 32.026l-4.5-8.036-4.393 7.903zm-4.5-8.036l-8.888-.102 4.495 8.005zm8.86.105l-8.86-.105 4.5 8.036zM93.865 21.401l3.588-8.329-8.864 2.88zm0 0l-7.001 4.845 9.554 2.253zM13.648 73.926l4.709 7.973 4.184-8.01z"/><path d="M17.814 65.906l-4.166 8.02 8.893-.037zM25.5 36.451l-2.133 8.184 8.548-1.736z"/><path d="M23.367 44.635l2.133-8.184-8.341 2.71zm23.361-7.627l2.315-8.207-8.357 2.716zm-13.359-3.114L25.5 36.451l6.415 6.448zm6.747 7.808l-6.747-7.808-1.454 9.005z"/><path d="M40.116 41.702l6.612-4.694-6.042-5.491z"/><path d="M40.116 41.702l.57-10.185-7.317 2.377zm38.602-14.088l-5.865-6.549-2.639 8.215zm-5.865-6.549l-8.497 2.761 5.858 5.454z"/><path d="M73.371 36.15l5.347-8.536-8.504 1.666z"/><path d="M63.437 34.027l9.934 2.123-3.157-6.87zm-4.909 72.332l-4.33 7.978 8.82.064zM73.371 36.15l-5.68 6.404 9.462.971z"/><path d="M67.691 42.554l5.68-6.404-9.934-2.123zm19.173-16.308l3.715 8.738 5.839-6.485zm47.503 42.546l9.209-1.037-4.999-6.538zm1.452 15.011l-9.566.119 4.786 7.404zM-71.703 68.034l-8.314 2.701 5.505 5.677zm24.22-7.87l-2.773 8.156 8.561-1.364zm-2.773 8.156l2.773-8.156-8.673 2.818zm-6.908 37.525l-4.603-8.148-4.298 7.498zm4.644 8.108l-8.851-.485 4.742 8.275z"/><path d="M-61.371 113.468l-3.767 7.891 8.509.384zm4.207-7.623l-4.207 7.623 8.851.485z"/><path d="M-61.371 113.468l4.207-7.623-8.901-.65zm.223 16.219l8.721.201-4.202-8.145zm-3.99-8.328l3.99 8.328 4.519-7.944z"/><path d="M-52.427 129.888l-8.721-.201 3.898 8.096zm-8.721-.201l-4.915 7.892 8.813.204zm-13.724-24.623l-9.026 1.314 4.861 6.53zm-13.787 10.549l4.761-9.235-8.012 1.088zm4.761-9.235l-4.761 9.235 9.622-2.705zm-4.761 9.235l1.468 10.251 5.386-5.549z"/><path d="M-88.659 115.613l-6.307 7.4 7.775 2.851z"/><path d="M-94.966 123.013l6.307-7.4-9.079-1.131zm7.775 2.851l-7.775-2.851 3.079 9.476zm25.425-43.967l8.582-.053-4.198-8.718z"/><path d="M-53.184 81.844l-8.582.053 4.294 7.994zm20.464-19.221l2.202-7.971-8.861 2.879zm21.05 160.487l7.001-4.845-9.554-2.252z"/><path d="M-4.669 218.265l-1.724 10.294 7.68-2.495zm-15.274 6.476l8.273-1.631-2.553-7.097z"/><path d="M-4.669 218.265l-7.001 4.845 5.277 5.449zm-10.588 13.175l3.587-8.33-8.273 1.631zm3.587-8.33l-3.587 8.33 8.864-2.881zm-11.03-6.712l-4.86 8.276 7.617.067zm1.354-15.972l3.779 7.842 5.239-7.186zm3.779 7.842l-3.779-7.842-4.983 8.021zm-5.133 8.13l5.133-8.13-8.762.179zm5.133-8.13l-5.133 8.13 8.477-.385zm-7.758-15.866l-8.653-.227 3.932 8.195zm3.979 8.024l-3.979-8.024-4.721 7.968zm-17.283-.285l3.639 8.241 4.944-8.012z"/><path d="M-33.978 192.175l-4.651 7.966 8.583.229zm-49.309-33.22l6.305-6.382-9.089-2.185zm10.199 1.734l-7.61 6.236 7.704 2.199zm7.126 25.211l-6.157 7.427 7.668 2.907zm0 0l4.581-9.143-7.934.856z"/><path d="M-74.895 184.783l8.933 1.117-3.353-8.287zm8.933 1.117l-8.933-1.117 2.776 8.544zm8.692-17.475l9.16-.357-5.514-7.359zm0 0l-8.419.09 4.308 8.242zm-5.091-22.815l-3.702-8.031-5.302 7.681z"/><path d="M-66.063 137.579l3.702 8.031 5.111-7.827z"/><path d="M-67.701 153.263l5.34-7.653-9.004-.35z"/><path d="M-58.249 153.259l-4.112-7.649-5.34 7.653zm9.405-.074l-9.405.074 4.625 7.45zm4.786 7.404l-4.786-7.404-4.78 7.524zm36.567-30.506l-4.504 7.827 8.99.056zm-36.053-.092l4.317 7.825 4.664-7.785zm4.317 7.825l-4.317-7.825-4.742 7.825zm-4.781 7.73l4.781-7.73h-9.059zm32.013-7.636l4.504 7.874 4.486-7.818zm9.015 15.794l-4.511-7.92-4.498 7.757zm4.467-7.814l-8.978-.106 4.511 7.92z"/><path d="M-7.491 145.784l8.978.106-4.492-7.924zm155.488 24.203l5.901 6.491 2.81-8.379zm33.015-10.414l-4.074 9.419 7.236-2.352zm-51.134 9.56l2.574 7.059 7.126-4.807zm18.119.854l-4.035-7.373-4.384 8.771zm-8.637-31.32l4.602 8.148 4.298-7.498zm-88.6 47.235l-4.472-7.716-4.524 7.962zm.032-15.342l-4.504 7.626 9.243.469zm-4.504 7.626l4.472 7.716 4.771-7.247zm42.461 19.46l-6.465-5.375-1.978 8.118zm-3.478-59.443l-4.308 8.168 8.767-.357zm-17.769-15.775l4.357-7.998-8.841-.029zm22.186 7.734l-8.883.164 4.466 7.877zm-8.883.164l8.883-.164-4.473-7.837zm13.374 23.404l4.442 7.589 4.442-8.237zm8.94 14.957l-4.498-7.368-4.03 8.643zm13.939-8.185l-5.135 6.834 9.721.794zm-22.879-6.772l4.439-8.152-8.888.436zm4.439-8.152l-4.439 8.152 8.884-.648zm-178.832-1.694l-8.722-2.315 2.865 8.819zm0 0l3.232 8.689 5.617-7.313zm3.232 8.689l-3.232-8.689-5.857 6.504zm-3.232-8.689l-3.321-8.872-5.401 6.557zm103.717-21.775l-4.496-8.056-4.313 8.031zm4.386 71.319l-4.211-7.726-4.698 8.004zm-13.141-7.705l-4.548 8.011 8.78-.028zm8.93-.021l-8.93.021 4.232 7.983zM14.748 185.723l8.93-.021-4.337-7.891zm20.719 21.781l-2.315 8.206 8.357-2.715z"/><path d="M33.152 215.71l2.315-8.206-8.521 1.708zm8.928-12.9l-.571 10.185 7.317-2.377z"/><path d="M42.08 202.81l-6.613 4.694 6.042 5.491zM1.287 226.064l2.191-9.166-8.147 1.367zm10.695-10.832l-8.504 1.666 5.865 6.549z"/><path d="M3.478 216.898l-2.191 9.166 8.056-2.617zm0 0L.02 209.291l-4.689 8.974zm6.722-23.164l4.304 8.223 4.476-8.251zm4.304 8.223l-4.304-8.223-5.158 7.252zm3.336 18.729l7.411-2.409-6.493-7.792zm7.411-2.409l7.901-2.567-6.206-6.498z"/><path d="M17.84 220.686l.918-10.201-6.776 4.747zm.918-10.201l6.493 7.792 1.695-9.065zm-8.338-64.488l-4.438 7.854 8.933.151zm-4.438 7.854l-4.495-7.961-4.467 7.814z"/><path d="M1.487 145.89l4.495 7.961 4.438-7.854zm.035 15.779l4.46-7.818-8.962-.147zm31.16-7.413l-4.514-8.052-4.36 7.931zm-4.369 7.919l4.369-7.919-8.874-.121zm-4.405 7.896l4.405-7.896-8.901-.145zm-4.73-39.961l4.325-8.001-8.809-.025zm0 0l8.819.065-4.494-8.066zm82.96-110.339l-8.273 1.63 2.553 7.098zm-8.273 1.63l8.273-1.63-4.685-6.699zm46.198-14.078l-7.223 4.478 9.774 3.372zm-16.055 5.235l6.183-10.123-7.533 2.447zM-.089 52.241l1.978-8.119-8.443 2.744zm14.241 37.618l8.828.08-4.623-8.04zm7.623-32.141l-8.696.297 4.735 7.891zm-8.696.297l8.696-.297-4.929-8.408zm27.352.349l-4.349-7.879-4.647 8.124zm0 0l-4.524 7.961 8.978-.02z"/><path d="M35.907 66.325l4.524-7.961-8.996.245z"/><path d="M27.082 51.341l-5.307 6.377 9.66.891zm9-.856l-9 .856 4.353 7.268z"/><path d="M27.082 51.341l9-.856-4.167-7.586zm-5.307 6.377l5.307-6.377-10.236-2.031z"/><path d="M23.367 44.635l3.715 6.706 4.833-8.442z"/><path d="M27.082 51.341l-3.715-6.706-6.521 4.675z"/><path d="M17.159 39.161l-.313 10.149 6.521-4.675z"/><path d="M17.159 39.161L9.837 41.54l7.009 7.77zM55.25 35.3l-8.522 1.708 3.487 6.775zm0 0l8.187-1.273-6.493-7.793z"/><path d="M55.25 35.3l-6.207-6.499-2.315 8.207z"/><path d="M49.043 28.801L55.25 35.3l1.694-9.066zm37.821-2.555l-5.955-7.799-2.191 9.167zm0 0l7.001-4.845-5.276-5.449z"/><path d="M86.864 26.246l1.725-10.294-7.68 2.495z"/><path d="M80.909 18.447l-8.056 2.618 5.865 6.549zM22.98 89.939l4.569 8.066 4.252-8.003zm18.118 32.317l-4.503-8.088-4.293 8.006z"/><path d="M36.595 114.168l4.503 8.088 4.295-8.002zm39.709-55.243l4.379 8.09L85.3 59.32zm-8.613-16.371l4.305 8.223 5.157-7.252zm8.613 16.371l-4.308-8.148-4.548 8.011zm-.091 31.736l8.963.146-4.502-7.965z"/><path d="M82.175 35.22l-8.804.93 3.782 7.375zm0 0l-5.022 8.305 8.752-.254zm0 0l4.689-8.974-8.146 1.368z"/><path d="M73.371 36.15l8.804-.93-3.457-7.606zm8.804-.93l8.404-.236-3.715-8.738zm8.404-.236l-8.404.236 3.73 8.051zm12.962 9.101l-4.885 7.57 8.865.455zm17.283.286l3.856 8.324 4.716-7.829zm20.555 9.473l-8.314-.63 5.512 8.003zm-16.699-1.149l8.385.519-3.669-8.348zm-21.446 53.967l-4.515-7.821-4.528 7.761zm36.231-30.575l4.111-8.332-9.209 1.037z"/><path d="M143.576 67.755l-4.111 8.332 8.42-.09zm-62.893-.74l8.971.315-4.354-8.01zm17.973-15.36l4.358 8.156 4.507-7.701zm72.198 77.244l-1.468-10.251-5.386 5.549zm-1.468-10.251l7.775 2.851-3.079-9.477zM-65.802 74.524l-5.901-6.49-2.809 8.378zm0 0l4.036 7.373 4.384-8.771zm-21.476-1.429l-7.465 2.425 4.692 7.108zm7.261-2.36l-7.261 2.36 5.898 7.964zm-20.554 35.027l4.746-6.41-7.79-2.959zm5.95-14.418l-8.994 5.049 7.79 2.959zm-1.204 8.008l-4.746 6.41 8.661 1.704zm1.204-8.008l-4.195-6.405-7.391 3.476zm-4.195-6.405l-3.162-7.068-6.924 2.25z"/><path d="M-98.816 84.939l-10.086-4.818 2.695 8.294zm0 0l4.073-9.419-7.235 2.351zm4.073-9.419l-4.073 9.419 8.765-2.311zm-4.073 9.419l4.195 6.405 4.57-8.716z"/><path d="M-94.621 91.344l-11.586-2.929 2.592 7.978zm32.855-9.447l-4.696 8.014 8.99-.02zm-4.696 8.014l4.695 7.786 4.295-7.806zm-3.643 23.108l-3.355 7.878 8.322.462zm0 0l-4.767-7.955-4.165 7.844zm-4.767-7.955l4.767 7.955 4.04-7.824z"/><path d="M-73.46 120.897l3.355-7.878-8.932-.111z"/><path d="M-61.371 113.468l-8.734-.449 4.967 8.34z"/><path d="M-70.105 113.019l8.734.449-4.694-8.273zm53.621 1.435l8.992-.105-4.469-7.761zm8.992-.105l-8.992.105 4.507 7.79zm-31.509 7.814l-4.543 7.828 8.981.04zm0 0l-8.886-.141 4.343 7.969zm8.979.072l-8.979-.072 4.438 7.868zm-39.701 7.058l-3.737-8.396-4.862 7.616zm-3.737-8.396l3.737 8.396 4.585-7.934zm12.312 8.79l-8.575-.394 3.66 8.286zm-8.575-.394l8.575.394-3.99-8.328zm36.865 100.899l-8.955 1.761 9.286 5.098zm1.468-13.66l8.69-.134-3.629-7.951zm0 0l-3.6-8.15-5.508 7.526z"/><path d="M-34.99 208.382l3.6 8.15 5.061-8.085zm3.6 8.15l3.83 8.142 4.86-8.276zm26.721 1.733l-3.714-8.737-5.84 6.485zm4.689-8.974l-8.403.237 3.714 8.737zm-8.403.237l4.673-8.288-8.618-.158zm0 0l8.403-.237-3.73-8.051zm-9.184-1.26l9.184 1.26-3.945-8.446z"/><path d="M-8.383 209.528l-9.184-1.26 3.344 7.745zm-26.607-1.146l-8.747-.492 3.239 8.018z"/><path d="M-43.737 207.89l-5.265 8.025 8.504-.007zm5.108-7.749l-5.108 7.749 8.747.492zm-5.108 7.749l5.108-7.749-8.572-.496zm-5.265 8.025l-8.476-1.386 3.178 9.083z"/><path d="M-54.3 223.612l-3.178-9.083-5.722 6.25zm-11.389-55.097l-7.399-7.826.094 8.435z"/><path d="M-76.982 152.573l3.894 8.116 5.387-7.426zm-6.305 6.382l10.199 1.734-3.894-8.116z"/><path d="M-73.088 160.689l-10.199-1.734 2.589 7.97zm19.876-15.093l9.204-.05-4.278-7.73zm-9.149.014l9.149-.014-4.038-7.813zm5.111-7.827l4.038 7.813 4.926-7.78z"/><path d="M-53.212 145.596l-9.149.014 4.112 7.649zm4.368 7.589l-4.368-7.589-5.037 7.663z"/><path d="M-53.212 145.596l4.368 7.589 4.836-7.639zm59.144-7.575l-4.479-7.939-4.458 7.884zm-4.479-7.939l-8.944.001 4.486 7.883zm-26.981-.032l-4.494-7.815-4.541 7.796zm-8.726 46.204l4.317-7.632-9.064-.325zm4.054-23.045l9.141.157-4.558-7.8zm-18.644-.024l9.393-.073-4.557-7.566zm9.393-.073l-9.393.073 4.786 7.404zm179.029 18.273l-1.227 10.144 7.557-2.455zm0 0l-7.126 4.807 5.899 5.337zm8.419-1.398l-2.089 9.087 7.99-2.596z"/><path d="M145.908 179.074l2.089-9.087-8.419 1.398zm-19.593-18.268l-9.257-.304 4.586 7.628zm3.563 8.327l-3.563-8.327-4.671 7.324zm31.354-37.53l-4.165 7.844 9.027-1.313zm15.584 21.564l11.587 2.929-2.593-7.978zm-23.687 8.408l-5.132 8.412 8.711-1.888zm0 0l-9.167 1.039 4.035 7.373zm-111.377 8.713l9.04.272-4.649-8.077zm0 0l4.536 7.898 4.504-7.626zm23.597 24.914l3.767-8.706-8.695.298zm67.103-19.01l-2.773 8.155 8.672-2.818zm-43.703 21.454l-.048-10.093-6.417 4.718zm0 0l7.427-2.413-7.475-7.68zm-12.278-59.23l4.492 7.955 4.308-8.168zm4.334-8.09l-4.334 8.09 8.8-.213zm-8.946-15.896l4.475 7.967 4.408-7.967zm8.883 0l-4.408 7.967 8.881-.072z"/><path d="M76.334 122.397l-4.475-7.967-4.357 7.998zm0 0l4.471 7.929 4.41-8.001zm31.162 37.96l4.885-7.343-9.318.068z"/><path d="M98.621 161.319l8.875-.962-4.433-7.275zm8.875-.962l-8.875.962 4.498 7.368zm4.885-7.343l-4.885 7.343 9.562.145z"/><path d="M107.496 160.357l4.427 6.979 5.135-6.834z"/><path d="M111.923 167.336l-4.427-6.979-4.377 8.33zm.395-29.555l-4.55 7.664 9.196.042zm.063 15.233l-4.613-7.569-4.705 7.637zm-4.613-7.569l4.613 7.569 4.583-7.527z"/><path d="M107.768 145.445l4.55-7.664-9.111.006z"/><path d="M98.618 145.578l9.15-.133-4.561-7.658zm9.15-.133l-9.15.133 4.445 7.504zm-18.08-15.283l4.469 7.761 4.522-7.866zm4.469 7.761l-8.886.28 4.459 7.811z"/><path d="M94.157 137.923l9.05-.136-4.528-7.73zm0 0l-4.469-7.761-4.417 8.041zm4.461 7.655l-4.461-7.655-4.427 8.091z"/><path d="M94.157 137.923l4.461 7.655 4.589-7.791zm-75.15-23.87l-8.797.025 4.484 8.006zm17.588.115l-8.796-.075 4.503 8.081z"/><path d="M27.799 114.093l-4.296 8.016 8.799.065zm0 0l-8.792-.04 4.496 8.056zm-8.792-.04l8.792.04-4.515-8.077zm-22.083-7.745l8.801-.213-4.493-7.954zm-4.416 8.041l4.416-8.041-8.885.28zm3.782 86.891l-3.999-8.139-4.619 7.981zm-17.108-16.54l-8.899-.393 4.392 8.095z"/><path d="M-25.325 192.402l-4.392-8.095-4.261 7.868zm53.214 1.026l5.016-7.224-9.227-.502zm4.091 7.3l3.487 6.776 6.613-4.694z"/><path d="M35.467 207.504l-3.487-6.776-5.034 8.484zm-26.643.857l-5.346 8.537 8.504-1.666z"/><path d="M18.758 210.485l-9.934-2.124 3.158 6.871zM.02 209.291l8.804-.93-3.782-7.375zm3.458 7.607l5.346-8.537-8.804.93z"/><path d="M8.824 208.361l5.68-6.404-9.462-.971zm5.68-6.404l-5.68 6.404 9.934 2.124zm-17.446-32.499l8.939.213-4.475-8.002zm-13.438 7.472l4.451-7.746-8.99-.262zm26.848-15.091l8.944.191-4.497-8.028z"/><path d="M5.997 169.671l4.471-7.832-8.946-.17z"/><path d="M10.468 161.839l-4.486-7.988-4.46 7.818z"/><path d="M5.982 153.851l4.486 7.988 4.447-7.837zm35.577.554l4.584 8.078 4.251-7.973zm-17.891-16.253l-4.36 7.947 8.86.105z"/><path d="M19.178 130.11l4.49 8.042 4.329-7.977zm74.995-7.843l-4.485 7.895 8.991-.105zm0 0l-4.487-7.839-4.471 7.897z"/><path d="M89.688 130.162l4.485-7.895-8.958.058zm13.497-7.917l-9.012.022 4.506 7.79z"/><path d="M103.207 137.787l4.523-7.759-9.051.029zm9.111-.006l-4.588-7.753-4.523 7.759zm-4.588-7.753l-4.545-7.783-4.506 7.812zm18.473-31.063l-9.228.037 4.447 7.693z"/><path d="M130.482 106.696l-4.279-7.731-4.781 7.73zm25.173 16.919l5.577 7.988 2.768-7.406zm-.372-39.793l-.093-8.434-7.305.609zm-3.364 31.397l-3.66-8.287-4.916 7.892zm-49.781-95.448l3.812-9.46-8.497 2.761zm3.812-9.46l9.103 4.009-.33-6.859zm18.058 2.247l-4.572 8.487 8.646-.82z"/><path d="M115.053 14.32l8.955-1.762-9.285-5.097z"/><path d="M124.008 12.558l-1.35-7.676-7.935 2.579zm-4.572 8.487l4.572-8.487-8.955 1.762zm4.572-8.487l8.832-.757-2.649-9.366zm8.832-.757l-8.832.757 4.074 7.667zM3.968 58.791l-10.474-1.833 5.851 8.424z"/><path d="M-.089 52.241l-6.417 4.717 10.474 1.833zm14.241 37.618l4.591 8.081 4.237-8.001zm4.591 8.081l8.806.065-4.569-8.066z"/><path d="M27.549 98.005l-8.806-.065 4.541 8.076zM4.601 73.606l-8.573.2 4.76 8.068z"/><path d="M-3.972 73.806l8.573-.2-5.256-8.224zm48.688-23.649l-4.6-8.455-4.034 8.783z"/><path d="M40.116 41.702l4.6 8.455 5.499-6.374zm.315 16.662l4.285-8.207-8.634.328zM18.357 81.899l8.844.034-4.66-8.044z"/><path d="M22.98 89.939l4.221-8.006-8.844-.034zm4.221-8.006l-4.221 8.006 8.821.063zm-.537-16.077l-4.889-8.138-3.961 8.188z"/><path d="M21.775 57.718l4.889 8.138 4.771-7.247z"/><path d="M26.664 65.856l-8.85.05 4.727 7.983zm0 0l9.243.469-4.472-7.716zM8.575 50.445l-8.664 1.796 4.057 6.55zm0 0l4.504 7.57 3.767-8.705z"/><path d="M-.089 52.241l8.664-1.796-6.686-6.323zm13.168 5.774l-4.504-7.57-4.607 8.346z"/><path d="M8.575 50.445l1.262-8.905-7.948 2.582zm1.262-8.905l-1.262 8.905 8.271-1.135zm49.298 1.344l8.556-.33-4.254-8.527zM55.25 35.3l3.885 7.584 4.302-8.857z"/><path d="M59.135 42.884L55.25 35.3l-5.035 8.483zm-31.138 87.291l8.806.083-4.501-8.084z"/><path d="M36.803 130.258l4.295-8.002-8.796-.082zm13.091-7.92l4.304-8.001-8.805-.083z"/><path d="M41.098 122.256l8.796.082-4.501-8.084zm26.168-47.581l-4.412-7.974-4.567 7.74zm9.887-31.15l3.959 7.817 4.793-8.071zm3.959 7.817l-4.808 7.583 8.996.395z"/><path d="M81.112 51.342l8.792.069-3.999-8.14zm8.792.069l-8.792-.069L85.3 59.32zm-8.792-.069l-9.116-.565 4.308 8.148z"/><path d="M71.996 50.777l9.116.565-3.959-7.817zm13.18 40.03l4.475-7.766-8.977-.199zm13.543 8.034l-9.033-.113 4.505 7.874zm-53.54-.655l8.848.122-4.514-8.052zm22.199 8.247l-8.85-.074 4.49 8.042zm4.481 7.997l-4.481-7.997-4.36 7.968zm-9.076-31.948l4.483-7.807-8.979-.234zm42.113-54.368l-2.758-8.343-5.72 8.728zM89.904 51.411l4.62-7.982-8.619-.158z"/><path d="M94.524 43.429l-3.945-8.445-4.674 8.287zm0 0l-4.62 7.982 8.752.244zm9.017.656l-9.017-.656 4.132 8.226zM136.495 20.9l8.9 2.832-2.781-8.559zm-3.655-9.099l3.655 9.099 6.119-5.727z"/><path d="M136.495 20.9l-3.655-9.099-4.758 8.424zm8.9 2.832l-8.9-2.832 3.179 9.082z"/><path d="M136.495 20.9l-5.297 7.696 8.476 1.386z"/><path d="M131.198 28.596l5.297-7.696-8.413-.675zm-14.013 7.533l5.508-7.526-9.108-.623z"/><path d="M122.693 28.603l-3.257-7.558-5.851 6.935zm-3.257-7.558l3.257 7.558 5.389-8.378zm3.257 7.558l8.505-.007-3.116-8.371zm37.236 39.862l-4.739 6.923 7.703 2.199zm-28.731-39.869l3.218 8.521 5.258-7.135z"/><path d="M134.416 37.117l8.565 1.916-3.307-9.051z"/><path d="M148.266 32.569l-2.871-8.837-5.721 6.25zm-5.285 6.464l5.285-6.464-8.592-2.587zm5.285-6.464l-5.285 6.464 8.244 2.643zm-36.024 11.573l8.582.229-3.639-8.242zm0 0l-8.701-.057 3.98 8.025zm23.577 39.661l-5.513-7.36-4.053 7.479zm3.646-7.716l-9.159.356 5.513 7.36z"/><path d="M130.306 76.443l9.159-.356-5.098-7.295zm-.74-15.497l4.801 7.846 4.21-7.575zm0 0l3.499-7.732-8.385-.519z"/><path d="M133.065 53.214l-3.499 7.732 9.011.271zm-30.051 6.597l8.898.393-4.391-8.094zm.22 46.851l4.579-7.717-9.094-.104zm4.579-7.717l-4.559-7.799-4.535 7.695zm53.419 32.658l9.622-2.704-6.854-4.702zm9.622-2.704l6.307-7.4-7.775-2.851zm0 0l-9.622 2.704 4.862 6.531zm0 0l9.079 1.13-2.772-8.53zM-57.382 73.126l1.226-10.144-7.557 2.456zm0 0l7.126-4.806-5.9-5.338zm-8.42 1.398l2.089-9.086-7.99 2.596zm2.089-9.086l-2.089 9.086 8.42-1.398zm-16.304 5.297l-1.363 10.324 6.868-4.647zm-1.363 10.324l-5.898-7.964-2.773 9.533zm10.458 15.989l-3.95 8.016 8.807.131z"/><path d="M-61.767 97.697l-9.155-.649 4.857 8.147zm-4.695-7.786l-4.46 7.137 9.155.649zm.399 47.668l-8.708-.677 3.406 8.358z"/><path d="M-74.771 136.902l-5.443 6.982 8.849 1.376zm-8.764-1.89l8.764 1.89-3.551-8.389z"/><path d="M-80.214 143.884l5.443-6.982-8.764-1.89zm10.491-14.591l-5.048 7.609 8.708.677zm-5.048 7.609l5.048-7.609-8.599-.78zm27.089-61.524l-2.574-7.058-7.126 4.806zm-2.574-7.058l2.574 7.058 5.987-8.422zm-2.928 13.524l5.502-6.466-9.7-2.252z"/><path d="M-47.682 75.378l8.233 1.004-2.246-9.426zm24.074-14.924l1.519-8.541-8.429 2.739z"/><path d="M-32.72 62.623l9.112-2.169-6.91-5.802z"/><path d="M-25.743 68.743l2.135-8.289-9.112 2.169z"/><path d="M-23.608 60.454l-2.135 8.289 8.458-1.697zm-9.112 2.169l-6.659-5.092-2.316 9.425zm0 0l-8.975 4.333 7.512 3.41z"/><path d="M-39.449 76.382l5.266-6.016-7.512-3.41zm5.266-6.016l-5.266 6.016 9.721.794z"/><path d="M-25.743 68.743l-8.44 1.623 4.455 6.81zm-8.44 1.623l8.44-1.623-6.977-6.12zm1.325 159.826l9.104 4.008-3.806-9.526zm9.104 4.008l8.497-2.76-4.686-6.699z"/><path d="M-27.56 224.674l3.806 9.526 3.811-9.459z"/><path d="M-23.754 234.2l-9.104-4.008.331 6.859z"/><path d="M-32.858 230.192l-4.382-6.726-4.573 8.487zm-13.029-5.906l8.647-.82-3.258-7.558zm4.074 7.667l4.573-8.487-8.647.82z"/><path d="M-37.24 223.466l4.382 6.726 5.298-5.518z"/><path d="M-31.39 216.532l-5.85 6.934 9.68 1.208z"/><path d="M-37.24 223.466l5.85-6.934-9.108-.624zM-65.962 185.9l9.58-2.606-4.999-6.537zm9.58-2.606l-9.58 2.606 6.778 4.767zm17.753 16.847l-3.856-8.325-4.716 7.829z"/><path d="M-42.485 191.816l3.856 8.325 4.651-7.966zm-5.625-23.748l4.925 7.844 4.184-7.615zm4.925 7.844l8.931.342-4.747-7.957zm-21.266 20.322l8.746 2.687-3.479-8.254zm-1.511-10.334l1.511 10.334 5.267-5.567z"/><path d="M-55.705 198.921l-8.746-2.687 3.665 9.244zm-8.746-2.687l-4.579 6.602 8.244 2.642zm-4.579 6.602l4.579-6.602-7.668-2.907zm13.325-3.915l3.484 8.474 5.02-7.75zm3.484 8.474l8.484.495-3.464-8.245z"/><path d="M-43.737 207.89l-8.484-.495 3.219 8.52zm-8.484-.495l-3.484-8.474-5.081 6.557z"/><path d="M-57.478 214.529l5.257-7.134-8.565-1.917zm5.257-7.134l-5.257 7.134 8.476 1.386zm-16.809-4.559l2.959 9.106 5.285-6.464z"/><path d="M-66.071 211.942l8.593 2.587-3.308-9.051zm8.593 2.587l-8.593-2.587 2.871 8.837zm-.771-61.27l-5.003 7.457 9.628-.007zm-5.003 7.457l5.982 7.709 3.646-7.716z"/><path d="M-63.252 160.716l5.003-7.457-9.452.004zm5.982 7.709l-5.982-7.709-2.437 7.799z"/><path d="M-63.252 160.716l-9.836-.027 7.399 7.826zm-9.836-.027l9.836.027-4.449-7.453zm83.424-30.608l8.842.029-4.484-8.026zm0 0l-8.883.001 4.479 7.939zm-49.563 7.735l9.104-.006-4.44-7.779zm18.189.034l-9.085-.04 4.506 7.756zm-4.49-7.8l-4.595 7.76 9.085.04zm-4.595 7.76l4.595-7.76-9.035-.019zm13.633-7.736l8.999.009-4.486-7.839zm0 0l-4.548 7.776 9.043.06z"/><path d="M-7.491 130.083l-8.999-.009 4.495 7.836z"/><path d="M-16.49 130.074l-9.038-.024 4.49 7.8z"/><path d="M-21.038 137.85l4.515 7.821 4.528-7.761z"/><path d="M-16.523 145.671l-4.515-7.821-4.579 7.716zm9.032.113l-9.032-.113 4.534 7.87z"/><path d="M-16.523 145.671l9.032.113-4.504-7.874zm-4.536 7.695l4.536-7.695-9.094-.105z"/><path d="M-16.523 145.671l-4.536 7.695 9.07.175zm-4.536 7.695l4.572 7.872 4.498-7.697zm9.13 15.818l-4.558-7.946-4.432 7.684zm-18.008-.562l-4.798-7.855-4.266 7.53zm-4.798-7.855l-9.323-.178 5.057 7.708zm-4.716-7.655l4.716 7.655 4.535-7.558z"/><path d="M-34.735 160.767l-4.716-7.655-4.607 7.477zm156.404-7.631l-9.288-.122 4.677 7.488z"/><path d="M112.381 153.014l9.288.122-4.705-7.649zm13.934 7.792l-4.646-7.67-4.611 7.366zm-4.646-7.67l4.646 7.67 4.677-6.827zm56.351-7.977l7.79 2.959-3.044-9.368z"/><path d="M185.81 148.118l-7.79-2.959-1.204 8.008z"/><path d="M176.816 153.167l1.204-8.008-7.915.967zm0 0l4.196 6.406 7.391-3.477zm.122 15.825l-4.691-7.109-2.774 9.534zm-4.691-7.109l4.691 7.109 4.074-9.419z"/><path d="M176.816 153.167l-4.569 8.716 8.765-2.31zm-32.854 9.447l-8.582.053 4.198 8.718zm-8.582.053l-5.502 6.466 9.7 2.252zm-9.065-1.861l9.065 1.861-4.388-8.688z"/><path d="M135.38 162.667l-9.065-1.861 3.563 8.327zm4.287-8.046l-4.287 8.046 8.582-.053z"/><path d="M135.38 162.667l4.287-8.046-8.675-.642zm17.737-15.204l3.95-8.016-8.807-.13z"/><path d="M143.962 146.815l9.155.648-4.857-8.146zm-13.879-24.325l-8.886-.142 4.598 7.934zm13.484 8.553l-4.207 7.624 8.9.65zm-22.114 6.943l-9.135-.205 4.646 7.706z"/><path d="M121.453 137.986l8.999.274-4.657-7.978zm13.679 8.35l4.535 8.285 4.295-7.806z"/><path d="M139.667 154.621l-4.535-8.285-4.14 7.643zm-.307-15.954l-4.228 7.669 8.83.479zm-8.908-.407l4.68 8.076 4.228-7.669zm-75.339 54.911l5.308-6.377-9.661-.892zm0 0l-8.999.856 4.167 7.585z"/><path d="M46.114 194.027l8.999-.856-4.353-7.269zm8.999-.856l10.236 2.031-4.928-8.408zm68.778-15.615l5.987-8.423-8.234-1.003z"/><path d="M129.878 169.133l-5.987 8.423 8.561-1.364zm-.199 15.214l-5.788-6.791-2.316 9.424zm-5.788-6.791l5.788 6.791 2.773-8.155zm-15.953-1.788l3.985-8.432-8.804 1.351zm-2.135 8.29l-1.519 8.54 8.43-2.739zm-51.157-37.552l4.569 8.066 4.238-8.001z"/><path d="M59.215 154.572l-4.569-8.066-4.252 8.004zm12.77-24.138l-8.796.024 4.505 8.047zm4.486 7.982l-4.486-7.982-4.291 8.071z"/><path d="M63.189 130.458l8.796-.024-4.483-8.006zm8.796-.024l4.486 7.982 4.334-8.09z"/><path d="M76.334 122.397l-4.349 8.037 8.82-.108zm-4.349 8.037l4.349-8.037-8.832.031zm-79.476-.351l4.471-7.896-8.957.057z"/><path d="M-3.02 122.187l-4.472-7.838-4.485 7.895zm4.473 7.895l-4.473-7.895-4.471 7.896zm-17.914 62.775l-8.864-.455 3.979 8.024zm0 0l-4.885 7.569 9.018.656zm0 0l-4.357-8.157-4.507 7.702zm8.752.244l-8.752-.244 4.133 8.225zm31.617-23.03l8.911.133-4.506-8.029zm22.206 23.956l-8.635.328 4.601 8.455zm-8.635.328l8.635-.328-4.35-7.879z"/><path d="M32.905 186.204l4.574 8.151 4.285-8.207z"/><path d="M37.479 194.355l-4.574-8.151-5.016 7.224zm-5.499 6.373l5.499-6.373-9.59-.927zm5.499-6.373l-5.499 6.373 10.1 2.082zm-22.975 7.602l8.556-.33-4.08-7.921zm8.556-.33l-4.302 8.858 8.188-1.273z"/><path d="M23.06 201.627l4.829-8.199-8.909.278zm0 0l-8.556.33 4.254 8.528zm8.92-.899l-8.92.899 3.886 7.585z"/><path d="M23.06 201.627l8.92-.899-4.091-7.3zm-26.002-32.169l4.455 8.039 4.484-7.826zm-26.995-.836l4.633 7.999 4.385-7.699z"/><path d="M-29.717 184.307l4.413-7.686-8.95-.367z"/><path d="M-25.304 176.621l-4.633-7.999-4.317 7.632zm0 0l-4.413 7.686 8.899.393z"/><path d="M-16.38 176.93l-8.924-.309 4.486 8.079z"/><path d="M-25.304 176.621l8.924.309-4.539-8.008zm49.212-6.55l-8.978-.234 4.411 7.974z"/><path d="M14.93 169.837l8.978.234-4.496-8.041zm0 0l-4.462-7.998-4.471 7.832z"/><path d="M10.468 161.839l4.462 7.998 4.482-7.807zm92.766-55.177l-4.549 7.775 9.038.024z"/><path d="M89.686 114.428l8.999.009-4.494-7.835zm8.999.009l4.5 7.808 4.538-7.784zm0 0l4.549-7.775-9.043-.06z"/><path d="M98.685 114.437l-4.512 7.83 9.012-.022z"/><path d="M94.173 122.267l4.512-7.83-8.999-.009zm9.012-.022l9.033.031-4.495-7.815zm4.545 7.783l4.488-7.752-9.033-.031z"/><path d="M116.758 114.48l-4.54 7.796 8.979.072z"/><path d="M112.218 122.276l4.54-7.796-9.035-.019zm56.048-28.152l-2.783-8.568-6.306 6.382zm-12.983-10.302l7.61-6.235-7.703-2.199zm10.2 1.734l-10.2-1.734 3.894 8.116z"/><path d="M155.283 83.822l10.2 1.734-2.59-7.969zm-7.024 23.11l-8.814-.203 3.898 8.095zm8.708.678l-8.708-.678 3.66 8.287zM-8.988 65.697l5.016 8.109 3.317-8.424z"/><path d="M-6.506 56.958l-2.482 8.739 8.333-.315zm-.048-10.092l-7.426 2.413 7.474 7.679z"/><path d="M-6.554 46.866l.048 10.092 6.417-4.717zm21.055 59.141l4.506 8.046 4.277-8.037z"/><path d="M10.21 114.078l4.291-8.071-8.776.088z"/><path d="M14.501 106.007l-4.291 8.071 8.797-.025z"/><path d="M18.743 97.94l-4.242 8.067 8.783.009zM8.848 66.109l-4.88-7.318-4.623 6.591z"/><path d="M8.848 66.109l4.231-8.094-9.111.776zm0 0l4.8 7.817 4.166-8.02z"/><path d="M13.079 58.015l-4.231 8.094 8.966-.203zm-4.231 8.094l-4.247 7.497 9.047.32zm-4.247 7.497l4.247-7.497-9.503-.727zm.814 16.32l4.052-8.167-8.679.115zm8.233-16l-4.181 7.833 8.89.14z"/><path d="M9.467 81.759l4.685 8.1 4.205-7.96zm0 0l-4.052 8.167 8.737-.067zm0 0l-4.866-8.153-3.813 8.268z"/><path d="M4.601 73.606l4.866 8.153 4.181-7.833zm-8.573.2l-3.834 8.542 8.594-.474zm-21.771-5.063l4.819 7.082 3.639-8.779zm4.819 7.082l-4.819-7.082-3.985 8.433zm79.441-17.016l4.337 7.892 4.594-7.913zM36.052 82.028l-8.851-.095 4.6 8.069zm4.832 24.14l-4.289 8 8.798.086zm22.305 24.29l-4.277 8.038 8.782.009zm-4.277 8.038l4.541 8.075 4.241-8.066z"/><path d="M58.912 138.496l-4.266 8.01 8.807.065z"/><path d="M54.646 146.506l4.266-8.01-8.799-.068z"/><path d="M45.838 146.429l8.808.077-4.533-8.078zm0 0l-4.279 7.976 8.835.105z"/><path d="M54.646 146.506l-8.808-.077 4.556 8.081zm-30.978-8.354l8.831.095-4.502-8.072zm8.831.095l-8.831-.095 4.5 8.052z"/><path d="M32.499 138.247l4.304-7.989-8.806-.083zm26.194-15.845l4.496 8.056 4.313-8.03zm0 0l8.809.026-4.484-8.027zm-4.495-8.065l4.495 8.065 4.325-8.001z"/><path d="M49.894 122.338l8.799.064-4.495-8.065zm-13.091 7.92l8.798.085-4.503-8.087zm8.798.085l4.293-8.005-8.796-.082zM85.2 106.546l4.486 7.882 4.505-7.826z"/><path d="M89.686 114.428l-4.486-7.882-4.458 7.884zm0-15.7l-4.486 7.818 8.991.056zm-26.799-.316l-8.86-.104 4.501 8.051zm4.491 8.021l-4.491-8.021-4.359 7.947zM49.376 74.307l4.506 8.03 4.405-7.896zm4.506 8.03l8.901.145-4.496-8.041zm65.554-61.292l-9.681-1.207 3.83 8.142z"/><path d="M109.755 19.838l9.681 1.207-4.383-6.725z"/><path d="M105.95 10.311l3.805 9.527 5.298-5.518zm3.805 9.527l-3.805-9.527-3.812 9.46zm-4.859 8.276l4.859-8.276-7.617-.067zm4.859-8.276l-4.859 8.276 8.689-.134zm-9.993 16.405l5.134-8.129-8.478.385zm-9.183-1.259l9.183 1.259-3.344-7.744zm9.183 1.259l-5.238 7.186 9.017.656z"/><path d="M94.524 43.429l5.238-7.186-9.183-1.259zm56.986 23.469l-7.934.857 4.309 8.242zm3.68 8.49l-3.68-8.49-3.625 9.099zm-3.68-8.49l8.419 1.567-2.838-8.737z"/><path d="M159.929 68.465l-8.419-1.567 3.68 8.49zm-16.948-29.432l3.666 9.245 4.578-6.602zm3.666 9.245l-5.268 5.566 6.778 4.768zm0 0l7.668 2.906-3.09-9.508zm-20.714-11.656l-5.109 7.749 8.572.495zm0 0l-3.24-8.019-5.508 7.526z"/><path d="M120.824 44.371l5.109-7.749-8.748-.493zm1.869-15.768l3.24 8.019 5.265-8.026zm3.24 8.019l8.483.495-3.218-8.521zm8.483.495l-8.483-.495 3.463 8.244zM89.904 51.411l4.262 8.104 4.49-7.86z"/><path d="M94.166 59.515l-4.262-8.104L85.3 59.32zm-4.512 7.815l4.512-7.815-8.866-.195zm4.512-7.815l8.848.296-4.358-8.156zm0 0l4.41 8.066 4.438-7.77z"/><path d="M98.576 67.581l-4.41-8.066-4.512 7.815zm23.07 23.819l4.557 7.565 4.836-7.639zm4.607-7.478l-4.607 7.478 9.393-.074z"/><path d="M126.203 98.965l-4.557-7.565-4.671 7.602zm-9.272-15.22l4.715 7.655 4.607-7.478zM125.38 68.6l4.926 7.843 4.061-7.651zm4.186-7.654L125.38 68.6l8.987.192zm-8.742-16.575l-4.651 7.966 8.507.358zm-4.651 7.966l-3.931-8.195-4.721 7.968z"/><path d="M112.242 44.142l3.931 8.195 4.651-7.966zm-.33 16.062l4.261-7.867-8.652-.227zm5.063 38.798l-4.657 7.699 9.104-.006zm-4.657 7.699l-9.084-.039 4.489 7.799zm0 0l4.44 7.779 4.664-7.785zm4.44 7.779l-4.44-7.779-4.595 7.76zm-4.44-7.779l-4.505-7.756-4.579 7.717z"/><path d="M107.813 98.945l4.505 7.756 4.657-7.699zM-65.802 74.524l-5.132 8.412 9.168-1.039z"/><path d="M-70.934 82.936l5.132-8.412-8.71 1.888zm0 0l4.472 6.975 4.696-8.014z"/><path d="M-81.38 81.059l10.446 1.877-3.578-6.524zm1.692 16.538l-4.21 8.781 9.026-1.314z"/><path d="M-70.922 97.048l-8.766.549 4.816 7.467zm15.217 101.873l4.836-7.623-8.315-.631zm-.677-15.627l5.513 8.004 3.498-7.732zm5.513 8.004l-4.836 7.623 8.504.724z"/><path d="M-50.869 191.298l-5.513-8.004-2.802 7.373zm8.384.518l-8.384-.518 3.668 8.347z"/><path d="M-50.869 191.298l8.384.518-4.886-8.25zm-5.513-8.004l4.211-7.574-9.21 1.037z"/><path d="M-52.171 175.72l-5.099-7.295-4.111 8.332z"/><path d="M-57.27 168.425l5.099 7.295 4.061-7.652zm5.099 7.295l-4.211 7.574 9.011.272z"/><path d="M-43.185 175.912l-8.986-.192 4.8 7.846zm-8.986-.192l8.986.192-4.925-7.844zm13.631 8.25l-3.945 7.846 8.507.359zm8.823.337l-8.823-.337 4.562 8.205z"/><path d="M-38.54 183.97l8.823.337-4.537-8.053zm-3.945 7.846l3.945-7.846-8.831-.404z"/><path d="M-43.185 175.912l4.645 8.058 4.286-7.716z"/><path d="M-38.54 183.97l-4.645-8.058-4.186 7.654zm62.208-45.818l-8.85-.073 4.49 8.02zm-8.85-.073l-8.886-.058 4.488 7.976z"/><path d="M19.308 146.099l-4.49-8.02-4.398 7.918z"/><path d="M14.818 138.079l8.85.073-4.49-8.042zm-4.482-7.998l4.482 7.998 4.36-7.969zm4.482 7.998l-4.482-7.998-4.404 7.94zm-49.597 7.431l-4.672 7.602 9.251.097zm0 0l4.579 7.699 4.583-7.643zm0 0l-4.448-7.694-4.781 7.73zm-4.672 7.602l4.672-7.602-9.229.036zm4.672-7.602l4.656-7.7-9.104.006zm4.656-7.7l-4.656 7.7 9.162.056zm4.595-7.76l4.538-7.783-9.032-.032zm9.044-15.596l-4.506 7.813 9.013-.023zm-.006 15.62l-4.5-7.807-4.538 7.783z"/><path d="M-20.99 122.267l4.5 7.807 4.513-7.83zm13.535 39.203l8.977.199-4.502-7.965zm0 0l4.475-7.766-9.009-.163zm0 0l4.513 7.988 4.464-7.789zm4.513 7.988l-4.513-7.988-4.474 7.714zm-4.513-7.988l-9.032-.232 4.558 7.946zm-9.032-.232l9.032.232-4.534-7.929zM-16.487 161.238l-9.08-.233 4.648 7.917z"/><path d="M-25.567 161.005l-4.37 7.617 9.018.3zm0 0l4.508-7.639-9.141-.157zm0 0l9.08.233-4.572-7.872z"/><path d="M-25.567 161.005l-9.168-.238 4.798 7.855z"/><path d="M-34.735 160.767l9.168.238-4.633-7.796zm208.841-23.721l-3.252-8.147-4.76 9.235z"/><path d="M170.105 146.126l4.001-9.08-8.012 1.088zm9.828-16.097l-5.827 7.017 8.66 1.704z"/><path d="M170.854 128.899l3.252 8.147 5.827-7.017zm7.166 16.26l-3.914-8.113-4.001 9.08z"/><path d="M174.106 137.046l3.914 8.113 4.746-6.409zm-34.439 17.575l8.99-.02-4.695-7.786zm8.99-.02l-8.99.02 4.295 7.993z"/><path d="M153.129 161.575l-4.472-6.974-4.695 8.013zm-4.472-6.974l4.46-7.138-9.155-.648zm9.941.678l-9.941-.678 4.472 6.974zm-9.941-.678l9.941.678-5.481-7.816zm-22.918-40.08l4.743-7.825-9.06-.001zm0 0l-8.981-.041 4.439 7.868z"/><path d="M116.758 114.48l8.981.041-4.317-7.826zm13.325 8.01l-4.344-7.969-4.542 7.827zm4.633 8.069l-4.264 7.701 8.908.407z"/><path d="M130.452 138.26l4.264-7.701-8.921-.277zm4.264-7.701l-4.633-8.069-4.288 7.792z"/><path d="M130.083 122.49l4.633 8.069 4.109-7.79zm4.633 8.069l8.851.484-4.742-8.274zm8.851.484l-8.851-.484 4.644 8.108zm8.733.45l4.767 7.954 4.165-7.844z"/><path d="M157.067 139.447l-4.767-7.954-4.04 7.824zm-1.412-15.832l-3.355 7.878 8.932.11z"/><path d="M152.3 131.493l-8.733-.45 4.693 8.274zm-26.104 14.406l-4.743-7.913-4.489 7.501zm-4.527 7.237l4.527-7.237-9.232-.412zm4.527-7.237l-4.527 7.237 9.323.843z"/><path d="M121.453 137.986l4.743 7.913 4.256-7.639zm4.743 7.913l8.936.437-4.68-8.076zm8.936.437l-8.936-.437 4.796 8.08zm-66.016 40.16l4.504 7.571 4.607-8.347zm4.504 7.571l8.664-1.796-4.057-6.551z"/><path d="M82.284 192.271l-8.664 1.796 6.686 6.322zm-16.935 2.931l8.271-1.135-4.504-7.571zm7.009 7.77l1.262-8.905-8.271 1.135zm1.262-8.905l-1.262 8.905 7.948-2.583zm-8.584 11.284l.313-10.149-6.52 4.674zm-6.207-5.475l-2.133 8.185 8.34-2.71z"/><path d="M56.696 208.061l2.133-8.185-8.548 1.736zm8.34-2.71l7.322-2.379-7.009-7.77zm-9.923-12.18l3.716 6.705 6.52-4.674z"/><path d="M58.829 199.876l-3.716-6.705-4.832 8.441zm32.354-21.061l8.297-1.349-4.889-7.504zm8.297-1.349l3.639-8.779-8.528 1.275zm8.458-1.698l-8.458 1.698 6.323 6.592z"/><path d="M99.48 177.466l8.458-1.698-4.819-7.081zm16.898-3.321l7.513 3.411-2.247-9.426z"/><path d="M111.923 167.336l4.455 6.809 5.266-6.015zm11.968 10.22l-7.513-3.411-1.462 7.744z"/><path d="M107.938 175.768l8.44-1.623-4.455-6.809zm-34.591 2.635l-4.231 8.093 9.111-.776zm12.821-7.698l5.015 8.11 3.408-8.853zm-22.715-24.134l8.766-.026-4.525-8.04z"/><path d="M72.219 146.545l4.252-8.129-8.777.089zm4.252-8.129l-4.252 8.129 8.744-.174zm-4.252 8.129l4.561 8.04 4.183-8.214zM50.792 170.56l4.203-7.982-8.852-.095z"/><path d="M46.143 162.483l8.852.095-4.601-8.068z"/><path d="M54.995 162.578l4.22-8.006-8.821-.062zM1.391 114.186l8.819-.108-4.485-7.983z"/><path d="M-3.076 106.308l4.467 7.878 4.334-8.091z"/><path d="M1.391 114.186l-4.467-7.878-4.416 8.041z"/><path d="M-3.02 122.187l4.411-8.001-8.883.163zm-8.951 62.809l-4.409-8.066-4.438 7.77zm0 0l-4.49 7.861 8.752.244z"/><path d="M-16.461 192.857l4.49-7.861-8.847-.296zm44.864-14.736l-4.495-8.05-4.567 7.74z"/><path d="M23.678 185.702l4.725-7.581-9.062-.31zm9.227.502l-4.502-8.083-4.725 7.581zm-4.502-8.083l4.416-7.917-8.911-.133zm8.808-15.828l-4.529-8.037-4.369 7.919zm0 0l4.541 7.995 4.391-7.805zm4.348-7.888l-4.348 7.888 8.932.19z"/><path d="M37.211 162.293l4.348-7.888-8.877-.149z"/><path d="M32.819 170.204l4.392-7.911-8.898-.118z"/><path d="M37.211 162.293l-4.392 7.911 8.933.084zM10.2 193.734l-9.116-.564 3.958 7.816z"/><path d="M1.084 193.17l-4.794 8.07 8.752-.254z"/><path d="M1.084 193.17l-8.793-.069 3.999 8.139zm9.33-15.472l4.334 8.025 4.593-7.912zm-8.901-.201l8.901.201-4.417-8.027z"/><path d="M10.414 177.698l4.516-7.861-8.933-.166z"/><path d="M14.93 169.837l-4.516 7.861 8.927.113zm101.869-39.715l-9.069-.094 4.588 7.753zm4.398-7.774l-4.398 7.774 8.996.16zm-4.398 7.774l4.654 7.864 4.342-7.704z"/><path d="M121.453 137.986l-4.654-7.864-4.481 7.659z"/><path d="M116.799 130.122l-4.581-7.846-4.488 7.752zm-4.581-7.846l4.581 7.846 4.398-7.774zm43.065-38.454l-5.386 7.427 9.28.689zm5.234 32.177l-4.862 7.616 8.345.582z"/><path d="M169.386 118.648l-8.869-2.649 3.483 8.198zm-13.731 4.967l4.862-7.616-8.598-.78z"/><path d="M160.517 115.999l-3.55-8.389-5.048 7.609zM-8.988 65.697l-5.965-7.509-2.332 8.858z"/><path d="M-14.953 58.188l-8.655 2.266 6.323 6.592zm-8.655 2.266l8.655-2.266-7.136-6.275zm8.655-2.266l5.965 7.509 2.482-8.739z"/><path d="M-13.98 49.279l-.973 8.909 8.447-1.23z"/><path d="M-14.953 58.188l.973-8.909-8.109 2.634zM5.415 89.926l4.562 8.04 4.175-8.107z"/><path d="M5.725 106.095l4.252-8.129-8.745.175zm4.252-8.129l-4.562-8.04-4.183 8.215zm0 0l8.766-.026-4.591-8.081zm0 0l4.524 8.041 4.242-8.067zm4.524 8.041l-4.524-8.041-4.252 8.129zm-26.485-15.225l4.178-8.434-8.619.845zm-36.273 15.469l-8.907-.406 4.644 8.108zm4.137-22.545l-3.562-8.328-5.502 6.466z"/><path d="M-47.682 75.378l3.562 8.328 4.671-7.324zm35.287-.829l4.589 7.799 3.834-8.542zm0 0l3.407-8.852-8.297 1.349z"/><path d="M-8.988 65.697l-3.407 8.852 8.423-.743z"/><path d="M-7.806 82.348l-4.589-7.799-4.03 8.644z"/><path d="M-12.395 74.549l-8.529 1.276 4.499 7.368z"/><path d="M-20.924 75.825l8.529-1.276-4.89-7.503zm84.139-25.019l8.781-.029-4.305-8.223zm8.781-.029l-8.781.029 4.233 7.982zm-12.861-7.893l4.08 7.922 4.476-8.252z"/><path d="M63.215 50.806l-4.698 8.003 8.931-.021zm-.361 15.895l-9.062-.31 4.495 8.05zm-9.062-.31l-4.416 7.916 8.911.134zm-4.416 7.916l4.416-7.916-8.907-.086z"/><path d="M58.517 58.809l-4.725 7.582 9.062.31zM40.636 90.107l4.543 8.079 4.334-7.93zm0 0l-4.584-8.079-4.251 7.974zm-9.232-16.155l-4.74-8.096-4.123 8.033zm-4.203 7.981l4.203-7.981-8.863-.063zm-.537-16.077l4.74 8.096 4.503-7.627z"/><path d="M36.052 82.028l-4.648-8.076-4.203 7.981zm18.146 32.309l-4.502-8.073-4.303 7.99zm-4.502-8.073l4.502 8.073 4.33-7.978zm4.331-7.956l-4.331 7.956 8.832.095zm-4.331 7.956l4.331-7.956-8.848-.122zm-8.812-.096l8.812.096-4.517-8.078z"/><path d="M49.696 106.264l-8.812-.096 4.509 8.086zm-17.614-.18l-4.533-8.079-4.265 8.011zm-4.283 8.009l4.283-8.009-8.798-.068zm4.283-8.009l-4.283 8.009 8.796.075z"/><path d="M40.884 106.168l-8.802-.084 4.513 8.084zm.675 48.237l-4.543-8.08-4.334 7.931z"/><path d="M32.682 154.256l4.334-7.931-8.848-.121zm13.156-7.827l-8.822-.104 4.543 8.08z"/><path d="M37.016 146.325l-4.517-8.078-4.331 7.957zm21.677-23.923l-4.297 8.017 8.793.039zm.219 16.094l-4.516-8.077-4.283 8.009z"/><path d="M54.396 130.419l4.516 8.077 4.277-8.038zm0 0l4.297-8.017-8.799-.064z"/><path d="M45.601 130.343l8.795.076-4.502-8.081zm8.795.076l-8.795-.076 4.512 8.085zm17.385-63.605l4.523-7.889-8.856-.137zm-8.927-.113l8.927.113-4.333-8.026z"/><path d="M71.781 66.814l8.902.201-4.379-8.09zm-4.515 7.861l4.515-7.861-8.927-.113z"/><path d="M76.198 74.84l-4.417-8.026-4.515 7.861zm-4.417-8.026l4.417 8.026 4.485-7.825zm-.054 15.859l-4.447 7.836 8.933.152zm0 0l4.486 7.988 4.461-7.819z"/><path d="M71.727 82.673l-8.944-.191 4.497 8.027z"/><path d="M62.783 82.482l8.944.191-4.461-7.998z"/><path d="M76.198 74.84l-4.471 7.833 8.947.169z"/><path d="M71.727 82.673l4.471-7.833-8.932-.165zm13.411-7.62l4.516-7.723-8.971-.315zm4.513 7.988l-4.513-7.988-4.464 7.789z"/><path d="M85.138 75.053l-8.94-.213 4.476 8.002z"/><path d="M76.198 74.84l8.94.213-4.455-8.038zm27.056 16.306l-9.07-.176 4.535 7.871zm-9.07-.176l-4.533-7.929-4.475 7.766z"/><path d="M94.184 90.97l-4.498 7.758 9.033.113z"/><path d="M89.686 98.728l4.498-7.758-9.008-.163z"/><path d="M94.184 90.97l4.498-7.696-9.031-.233zm4.498-7.696l-4.498 7.696 9.07.176zM67.28 90.509l4.495 8.006 4.438-7.854z"/><path d="M62.887 98.412l8.888.103-4.495-8.006z"/><path d="M71.775 98.515l-8.888-.103 4.491 8.021zm-8.992-16.033l-4.395 7.895 8.892.132z"/><path d="M58.388 90.377l4.499 8.035 4.393-7.903zm-4.361 7.931l4.361-7.931-8.875-.121zm8.86.104l-4.499-8.035-4.361 7.931z"/><path d="M53.882 82.337l4.506 8.04 4.395-7.895z"/><path d="M58.388 90.377l-4.506-8.04-4.369 7.919zm50.137-54.313l8.66.065-3.6-8.149z"/><path d="M104.896 28.114l3.629 7.95 5.06-8.084zm3.629 7.95l3.717 8.078 4.943-8.013zm3.717 8.078l-3.717-8.078-4.984 8.021z"/><path d="M99.762 36.243l8.763-.179-3.629-7.95zm8.763-.179l-8.763.179 3.779 7.842zm39.632 22.548l-6.778-4.768-2.802 7.373z"/><path d="M146.647 48.278l1.51 10.334 6.158-7.428zm-3.071 19.477l4.581-9.143-9.58 2.605zm10.739-16.571l-6.158 7.428 8.934 1.116zm-6.158 7.428l3.353 8.286 5.581-7.17zm3.353 8.286l-3.353-8.286-4.581 9.143zm-18.445-13.684l4.836-7.624-8.505-.724z"/><path d="M137.901 45.59l-3.485-8.473-5.02 7.749zm0 0l-4.836 7.624 8.314.63zm-3.485-8.473l3.485 8.473 5.08-6.557zm3.485 8.473l8.746 2.688-3.666-9.245z"/><path d="M146.647 48.278l-8.746-2.688 3.478 8.254zM107.5 67.89l-8.924-.309 4.538 8.008zm4.412-7.686L107.5 67.89l8.949.367z"/><path d="M98.576 67.581l8.924.309-4.486-8.079zm8.924.309l4.412-7.686-8.898-.393zm0 0l4.632 8 4.317-7.633z"/><path d="M112.132 75.89l-4.632-8-4.386 7.699zm-13.45 7.384l9.08.232-4.648-7.917zm9.08.232l-9.08-.232 4.572 7.872zm4.37-7.616l-4.37 7.616 9.169.239z"/><path d="M107.762 83.506l4.37-7.616-9.018-.301zm4.37-7.616l9.064.325-4.747-7.958zm18.174.553l-9.11-.228 5.057 7.707zm-9.11-.228l-4.265 7.53 9.322.177z"/><path d="M121.196 76.215l-9.064-.325 4.799 7.855zm4.184-7.615l-4.184 7.615 9.11.228z"/><path d="M121.196 76.215l4.184-7.615-8.931-.343zm-.46-15.674l-8.824-.337 4.537 8.053z"/><path d="M125.38 68.6l-4.644-8.059-4.287 7.716zm-4.644-8.059l8.83.405-4.886-8.251zm0 0l4.644 8.059 4.186-7.654zm0 0l-4.563-8.204-4.261 7.867z"/><path d="M116.173 52.337l4.563 8.204 3.944-7.846zM-87.91 98.386l-7.915.966 3.915 8.114zm4.012 7.992l-4.012-7.992-4 9.08z"/><path d="M-95.825 99.352l7.915-.966-6.711-7.042zm16.137-1.755l-8.222.789 4.012 7.992zm8.754-14.661l-5.469 6.296 9.941.679z"/><path d="M-76.403 89.232l5.481 7.816 4.46-7.137zm0 0l5.469-6.296-10.446-1.877z"/><path d="M-76.403 89.232l-3.285 8.365 8.766-.549zm239.978 74.221l-10.446-1.878 3.579 6.524z"/><path d="M163.575 163.453l-6.867 4.646 5.504 5.677zm8.672-1.57l-8.672 1.57 5.898 7.964zm-8.672 1.57l-4.977-8.174-5.469 6.296zm-1.691-16.539l8.221-.788-4.011-7.992z"/><path d="M157.067 139.447l4.817 7.467 4.21-8.78zm-3.95 8.016l8.767-.549-4.817-7.467z"/><path d="M158.598 155.279l3.286-8.365-8.767.549zm-23.975-40.656l4.202 8.146 4.518-7.945zm0 0l4.822-7.894-8.963-.033z"/><path d="M134.623 114.623l-4.54 7.867 8.742.279zm4.822-7.894l-4.822 7.894 8.72.201zm-4.822 7.894l-8.884-.102 4.344 7.969zm-8.884-.102l8.884.102-4.141-7.927zm21.594 8.631l8.322.463-3.736-8.396z"/><path d="M147.333 123.152l4.586-7.933-8.576-.395zm-8.508-.383l8.508.383-3.99-8.328zm4.742 8.274l3.766-7.891-8.508-.383zm8.733.45l-4.967-8.341-3.766 7.891zm-4.967-8.341l4.967 8.341 3.355-7.878zm-43.049 69.446l-7.136-6.275-.972 8.91zm-7.136-6.275l-5.965-7.508-2.482 8.738zm-.972 8.91l.972-8.91-8.447 1.23zm.972-8.91l7.136 6.275 1.519-8.54z"/><path d="M99.48 177.466l-2.332 8.857 8.655-2.265zm-2.332 8.857l2.332-8.857-8.297 1.349zm17.768-4.434l-6.978-6.121-2.135 8.29z"/><path d="M121.575 186.98l-6.659-5.091-2.202 7.97z"/><path d="M114.916 181.889l-9.113 2.169 6.911 5.801zm0 0l1.462-7.744-8.44 1.623zm8.975-4.333l-8.975 4.333 6.659 5.091zm-54.775 8.94l-4.734-7.89-3.961 8.188zm-8.695.298l3.961-8.188-8.851.049zm12.926-8.391l-8.965.203 4.734 7.89zm16.655-16.24l8.619-.844-4.442-7.589z"/><path d="M98.621 161.319l-8.619.844 4.589 7.799zm-8.619.844l-3.834 8.542 8.423-.743zm1.181 16.652l-8.333.314 5.851 8.424zm-2.482 8.738l-5.851-8.424-4.623 6.591z"/><path d="M82.85 179.129l-9.503-.726 4.88 7.317z"/><path d="M73.347 178.403l9.503.726-5.256-8.223z"/><path d="M82.85 179.129l3.318-8.424-8.574.201zm3.318-8.424l-3.318 8.424 8.333-.314zm-26.953-16.133l8.828.08-4.59-8.081zm17.565.013l-8.737.067 4.685 8.101zm-4.561-8.04l-4.176 8.107 8.737-.067z"/><path d="M68.043 154.652l4.176-8.107-8.766.026zM5.862 122.114l4.474 7.967 4.358-7.997zm4.348-8.036l-4.348 8.036 8.832-.03z"/><path d="M10.336 130.081l-4.474-7.967-4.409 7.968z"/><path d="M5.862 122.114l-8.882.073 4.473 7.895z"/><path d="M5.862 122.114l-4.471-7.928-4.411 8.001z"/><path d="M1.391 114.186l4.471 7.928 4.348-8.036zm-8.85 62.996l4.517-7.724-8.987-.274zm-8.921-.252l8.921.252-4.47-7.998z"/><path d="M-7.459 177.182l8.972.315-4.455-8.039zm-4.512 7.814l4.512-7.814-8.921-.252zm49.281-6.79l-4.405 7.998 8.859-.056z"/><path d="M46.288 178.186l-8.978.02 4.454 7.942z"/><path d="M41.752 170.288l-4.442 7.918 8.978-.02z"/><path d="M32.819 170.204l4.491 8.002 4.442-7.918z"/><path d="M28.403 178.121l8.907.085-4.491-8.002z"/><path d="M37.31 178.206l-8.907-.085 4.502 8.083zm-31.418 7.381l-4.808 7.583 9.116.564z"/><path d="M14.748 185.723l-8.856-.136 4.308 8.147zm-8.856-.136l4.522-7.889-8.901-.201z"/><path d="M10.414 177.698l-4.522 7.889 8.856.136zm134.142-78.796l-5.111 7.827 8.814.203zm.891-15.107l-5.982-7.708-3.646 7.716zm-5.982-7.708l5.982 7.708 2.438-7.798zm5.982 7.708l9.836.027-7.398-7.825zm0 0l4.45 7.454 5.386-7.427zm16.963 16.832l5.856-6.503-9.089-2.186zm0 0l8.722 2.315-2.866-8.818zM5.415 89.926l-8.688.294 4.505 7.921z"/><path d="M-3.273 90.22l8.688-.294-4.627-8.052z"/><path d="M-7.806 82.348l4.533 7.872 4.061-8.346z"/><path d="M-11.984 90.782l8.711-.562-4.533-7.872zm-27.017 31.381l-4.598-7.934-4.288 7.793zm-8.886-.141l4.288-7.793-8.921-.276zm4.288-7.793l-4.658-7.978-4.263 7.702zm18.064.254l4.545 7.784 4.506-7.813z"/><path d="M-20.99 122.267l-4.545-7.784-4.487 7.752zm-18.459-45.885l4.586 7.627 5.135-6.833z"/><path d="M-44.12 83.706l9.257.303-4.586-7.627zm-4.677 6.826l-4.387-8.688-4.288 8.047z"/><path d="M-48.797 90.532l4.677-6.826-9.064-1.862zm93.513-40.375l9.59.926-4.091-7.3z"/><path d="M54.306 51.083l4.829-8.199-8.92.899zm8.909-.277l-8.909.277 4.211 7.726zm-8.909.277l8.909-.277-4.08-7.922zm-.424 31.254l-8.898-.118 4.529 8.037zm-8.898-.118l8.898.118-4.506-8.03zm-4.348 7.888l4.348-7.888-8.932-.191z"/><path d="M44.984 82.219l-4.348 7.888 8.877.149zm-8.627 15.863l4.527 8.086 4.295-7.982zm0 0l4.279-7.975-8.835-.105z"/><path d="M27.549 98.005l8.808.077-4.556-8.08zm13.087-7.898l-4.279 7.975 8.822.104zm-4.279 7.975l-4.275 8.002 8.802.084z"/><path d="M32.082 106.084l4.275-8.002-8.808-.077zm.417 32.163l8.812.097-4.508-8.086zm13.102-7.904l-4.29 8.001 8.802.084zm-4.29 8.001l4.527 8.085 4.275-8.001z"/><path d="M41.311 138.344l4.29-8.001-8.798-.085zm-4.295 7.981l4.295-7.981-8.812-.097zm4.295-7.981l-4.295 7.981 8.822.104zm57.371-55.07l-4.557-7.947-4.474 7.714zm-4.557-7.947l4.451-7.746-8.922-.251zm4.451-7.746l-4.451 7.746 8.989.262z"/><path d="M94.125 75.327l4.557 7.947 4.432-7.685zm0 0l-8.987-.274 4.513 7.988z"/><path d="M85.138 75.053l8.987.274-4.471-7.997zm-4.43 23.569l8.978.106-4.51-7.921z"/><path d="M80.708 98.622l4.468-7.815-8.963-.146zm0 0l4.492 7.924 4.486-7.818zm-8.933-.107l8.933.107-4.495-7.961zm36.038.43l4.583-7.642-9.142-.157zm4.583-7.642l-4.583 7.642 9.162.057z"/><path d="M121.646 91.4l-9.25-.097 4.579 7.699zm-9.25-.097l9.25.097-4.715-7.655zm-4.634-7.797l4.634 7.797 4.535-7.558z"/><path d="M112.396 91.303l-4.634-7.797-4.508 7.64zM-87.91 98.386l2.607-8.538-9.318 1.496z"/><path d="M-94.621 91.344l9.318-1.496-4.748-7.22zm9.318-1.496l3.923-8.789-8.671 1.569zm0 0l-2.607 8.538 8.222-.789z"/><path d="M-76.403 89.232l-8.9.616 5.615 7.749z"/><path d="M-85.303 89.848l8.9-.616-4.977-8.173zm252.802 64.816l-3.924 8.789 8.672-1.57zm0 0l9.317-1.497-6.711-7.041z"/><path d="M167.499 154.664l4.748 7.219 4.569-8.716zm-3.924 8.789l3.924-8.789-8.901.615zm3.924-8.789l-5.615-7.75-3.286 8.365z"/><path d="M161.884 146.914l5.615 7.75 2.606-8.538zM54.995 162.578l8.844.035-4.624-8.041zm8.844.035l4.204-7.961-8.828-.08zm4.204-7.961l-4.204 7.961 8.889.14zm8.737-.067l8.688-.293-4.505-7.921zm8.688-.293l8.711-.562-4.449-7.716z"/><path d="M80.963 146.371l4.505 7.921 4.262-8.278zm4.505 7.921l4.534 7.871 4.177-8.433zM1.084 193.17l-4.189-7.979-4.604 7.91zm-8.543-15.988l4.354 8.009 4.618-7.694z"/><path d="M-3.105 185.191l-8.866-.195 4.262 8.105z"/><path d="M-3.105 185.191l-4.354-8.009-4.512 7.814zm8.997.396l-8.997-.396 4.189 7.979z"/><path d="M-3.105 185.191l8.997.396-4.379-8.09zm129.308-86.226l9.204-.049-4.368-7.59zm13.242 7.764l-4.038-7.813-4.925 7.78z"/><path d="M135.407 98.916l-9.204.049 4.279 7.731zm9.149-.014l-9.149.014 4.038 7.813zm12.411 8.708l-3.407-8.358-5.301 7.68zm-12.411-8.708l9.004.35-3.663-8.003z"/><path d="M149.897 91.249l3.663 8.003 5.617-7.314zm3.663 8.003l-9.004-.35 3.703 8.03zm8.85 1.375l-8.85-1.375 3.407 8.358z"/><path d="M153.56 99.252l8.85 1.375-3.233-8.689zm17.572 3.69l-5.402 6.557 8.352 2.523zm-5.402 6.557l3.656 9.149 4.696-6.626zm0 0l-5.213 6.5 8.869 2.649zm-5.213 6.5l5.213-6.5-8.763-1.889zm1.893-15.372l3.32 8.872 5.402-6.557z"/><path d="M165.73 109.499l-3.32-8.872-5.443 6.983zm-195.852-2.769l4.55-7.664-9.197-.041zm26.849-16.51l-4.261 8.278 8.766-.357zm-4.261 8.278l4.458 7.81 4.308-8.167z"/><path d="M-3.076 106.308l-4.458-7.81-4.427 8.09zm-4.458-7.81l4.261-8.278-8.711.562z"/><path d="M-16.423 98.934l8.889-.436-4.45-7.716zm8.889-.436l-8.889.436 4.462 7.654zm-31.724 8.027l9.136.205-4.647-7.705zm-4.341 7.704l4.341-7.704-8.999-.274zm22.675-38.404l-4.377 8.329 8.876-.961zm-4.377 8.329l4.377-8.329-8.804 1.351zm-9.562-.145l9.562.145-4.427-6.978zm-18.074 14.167l-8.83-.479 4.603 8.148z"/><path d="M-61.767 97.697l8.83.479-4.535-8.285zm13.51 8.554l-4.68-8.075-4.227 7.669zm-4.68-8.075l4.14-7.644-8.675-.641zm13.463-6.801l4.611-7.366-9.257-.303z"/><path d="M-48.797 90.532l9.323.843-4.646-7.669zM53.792 66.391l-4.501-8.083-4.406 7.997zm-4.501-8.083l-8.86.056 4.454 7.941z"/><path d="M49.291 58.308l-4.575-8.151-4.285 8.207zm0 0l4.501 8.083 4.725-7.582zm5.015-7.225l-5.015 7.225 9.226.501z"/><path d="M49.291 58.308l5.015-7.225-9.59-.926zm-8.847 15.916l8.932.083-4.491-8.002zm-9.04-.272l9.04.272-4.537-7.899z"/><path d="M35.907 66.325l4.537 7.899 4.441-7.919z"/><path d="M40.444 74.224l-9.04-.272 4.648 8.076z"/><path d="M44.984 82.219l-4.54-7.995-4.392 7.804z"/><path d="M40.444 74.224l4.54 7.995 4.392-7.912zm35.819 32.266l-8.885-.057 4.481 7.997zm0 0l-4.404 7.94h8.883z"/><path d="M85.2 106.546l-8.937-.056 4.479 7.94zm-8.937-.056l-4.488-7.975-4.397 7.918zm0 0l4.445-7.868-8.933-.107zm4.445-7.868l-4.445 7.868 8.937.056zm-12.161 71.964l4.8 7.817 4.247-7.497z"/><path d="M68.547 170.586l9.047.32-4.866-8.153zm0 0l-4.165 8.02 8.965-.203z"/><path d="M63.839 162.613l4.708 7.973 4.181-7.833zm17.569.024l-4.628-8.052-4.052 8.168zm4.76 8.068l-4.76-8.068-3.814 8.269z"/><path d="M77.594 170.906l3.814-8.269-8.68.116zm12.408-8.743l-8.594.474 4.76 8.068z"/><path d="M85.468 154.292l-4.06 8.345 8.594-.474z"/><path d="M81.408 162.637l4.06-8.345-8.688.293zm59.036-71.384l4.112 7.649 5.341-7.653zm0 0l5.003-7.458-9.628.008zm0 0l-4.625-7.45-4.78 7.523z"/><path d="M145.447 83.795l-5.003 7.458 9.453-.004zm-5.003 7.458l-5.037 7.663 9.149-.014z"/><path d="M135.407 98.916l5.037-7.663-9.405.073zm-156.419 7.809l-4.523 7.758 9.051-.029zm4.589-7.791l-4.589 7.791 9.051-.137z"/><path d="M-21.012 106.725l4.528 7.729 4.523-7.866zm-4.523 7.758l4.523-7.758-9.11.005z"/><path d="M-25.572 99.066l4.56 7.659 4.589-7.791z"/><path d="M-21.012 106.725l-4.56-7.659-4.55 7.664zm-13.591 7.664l-8.996-.16 4.598 7.934zm0 0l-4.398 7.774 8.979.072zm0 0l9.068.094-4.587-7.753z"/><path d="M-25.535 114.483l-9.068-.094 4.581 7.846zm-9.068-.094l-4.655-7.864-4.341 7.704z"/><path d="M-39.258 106.525l4.655 7.864 4.481-7.659zm18.39-15.096l4.445 7.505 4.439-8.152zm0 0l-4.704 7.637 9.149-.132z"/><path d="M-20.868 91.429l8.884-.647-4.441-7.589z"/><path d="M-25.301 84.154l4.433 7.275 4.443-8.236zm-18.7 14.458l-8.936-.436 4.68 8.075zm0 0l4.743 7.913 4.489-7.5zm4.743 7.913l-4.743-7.913-4.256 7.639z"/><path d="M-52.937 98.176l8.936.436-4.796-8.08zm8.936.436l4.527-7.237-9.323-.843zm4.527-7.237l-4.527 7.237 9.232.413zm99.128 79.248l-4.659-8.045-4.203 7.982zm0 0l-8.862-.063 4.739 8.095zm4.728 7.983l-4.728-7.983-4.123 8.032zm-4.728-7.983l4.185-8.01-8.844-.035z"/><path d="M59.654 170.623l8.893-.037-4.708-7.973zm8.893-.037l-8.893.037 4.728 7.983zm-98.732-79.088l4.884-7.344-9.562-.145zm0 0l-9.289-.123 4.705 7.65zm4.613 7.568l-4.613-7.568-4.584 7.527z"/><path d="M-39.474 91.375l9.289.123-4.678-7.489z"/><path d="M-30.185 91.498l9.317-.069-4.433-7.275zm9.317-.069l-9.317.069 4.613 7.568z"/></svg>