<svg xmlns="http://www.w3.org/2000/svg" viewBox="-36.301 -36.301 100 81.504"><style>path{fill:#c8c5bd;stroke:navy;stroke-width:.5;stroke-linejoin:bevel}</style><path d="m-16.881 41.269-2.408 1.493 3.29 1.63z"/><path d="m-15.999 44.392-3.29-1.63.793 2.441zm59.396-79.881 3.291 1.629-.793-2.441zm-70.296 54.83.988 3.041 1.58-2.308z"/><path d="m46.688-33.86-3.291-1.629.883 3.122zM-14.515 7.029l-2.961-.034 1.381 2.643z"/><path d="m-17.476 6.995-1.607 2.632 2.988.011zM-30.637-.479l-2.887-.568.945 2.907zm14.809-15.767 1.93 2.264.772-3.142zm4.986 58.962-3.096-1.699.45 2.559zm-7.258-4.48-2.967-.944.927 2.853zm-7.811-15.854 2.806.522-1.226-2.83zm89.61-3.886-.898-2.765-2.464 1.159zm0 0-3.362-1.606 1.054 2.356zM3.994 35.443l-.88 2.738 2.833-.92zm2.477-17.734 1.465-2.631-2.964-.045zm5.556-37.182 1.345-2.927-2.734.399zm3.549-4.492L13.372-22.4l3.366.694zm5.57-.994.306-3.4-2.471.803zM21.146-24.959l2.259-1.582-1.953-1.818zM-15.962 4.373l-1.545-2.69-1.369 2.597zm0 0-1.514 2.622 2.961.034z"/><path d="m-17.476 6.995 1.514-2.622-2.914-.093zm-9.792-3.191-1.796 1.85 2.957.883zm-2.285-1.567-1.084-2.716-1.942 2.339zM-29.553 2.237l2.285 1.567.922-2.469z"/><path d="m-27.268 3.804 2.781.194-1.859-2.663zm2.781.194-2.781-.194 1.161 2.733zm12.824 29.162 2.887.022-1.239-2.693z"/><path d="m-8.776 33.182 1.661-2.674-2.9-.019zm1.209 2.65.919 2.781 1.907-2.91zm-9.314 5.437-3.259-1.124.851 2.617zm2.943-.252-2.061 3.375 2.511-.816z"/><path d="m-13.938 41.017-2.943.252.882 3.123zm-2.943.252 2.943-.252-1.358-2.556zM-18.1 38.236l1.219 3.033 1.585-2.808z"/><path d="m-16.881 41.269-1.219-3.033-2.04 1.909zm.547-5.598 1.038 2.79 1.797-2.792zm0 0-1.766 2.565 2.804.225zm-9.327-21.114 3.094.23-1.221-2.668zm.696 10.737 1.86-2.39-2.806-.522zm4.505-2.676-1.436-2.747-1.209 3.033z"/><path d="m-23.105 22.904 1.209-3.033-2.435.203zm7.068-3.182 1.351-2.493-3.189.04z"/><path d="m-14.686 17.229-1.351 2.493 3.037.076zm65.985 5.296 2.772-.9-1.835-1.893zm3.226-4.341-.454 3.441 2.42-.787zM16.92 25.667l3.22.297-1.63-2.713zm10.508 2.122 2.139-1.572-3.491-.611zm2.467-25.947h-2.981l1.491 2.632zm-59.54 9.047 1.8-2.186-2.784-.841zm.581-5.235 1.219 3.049 1.738-2.166z"/><path d="m-27.845 8.703-1.219-3.049-1.565 2.208zM.496 12.329l1.481-2.623-2.979-.018zm1.481-2.623L.496 12.329l2.977.036zm13.394 18.669 1.549-2.708-2.999.082zm0 0-1.344 2.927 2.733-.399zm-1.344 2.927 2.248 2.603.485-3.002zm2.248 2.603 2.624-.852-2.139-2.15zm-17.512-3.126 1.244 2.684 1.674-2.768zm7.708-13.07 2.967.049-1.502-2.68zM7.834 4.402l1.498 2.689 1.435-2.667zm.102 10.676-1.5-2.679-1.464 2.634zm-1.5-2.679-2.963-.034 1.499 2.668z"/><path d="m9.389 12.434-2.953-.035 1.5 2.679zm21.899-41.601 1.196-2.776-2.954.96zm0 0-2.333 1.615 3.184.751zM4.549-11.659l1.57 2.658 1.395-2.67zm1.389-2.673-1.389 2.673 2.965-.012zM8.5-24.15l-.711 2.728 2.849-.579zm-.711 2.728L8.5-24.15l-2.78.903zm7.787-2.543.772-2.735-2.786.905z"/><path d="M11.123-25.003 8.5-24.15l2.138 2.149z"/><path d="m13.372-22.4-2.249-2.603-.485 3.002zm0 0 2.204-1.565-2.014-1.83z"/><path d="m13.372-22.4.19-3.395-2.439.792zm12.867-4.696-1.955-2.183-.879 2.738z"/><path d="m24.284-29.279-2.832.92 1.953 1.818zm.173 5.028 1.782-2.845-2.834.555z"/><path d="m21.146-24.959 3.311.708-1.052-2.29zM19.509-.848l-1.443 2.66 2.94.021zm4.948-23.403-1.893 2.135 3.154.324z"/><path d="m22.564-22.116 1.893-2.135-3.311-.708zm6.391-5.436 1.238 2.912 1.946-2.161zM44.789-13.37l3.07-.346-1.667-2.179zm.484 5.003-3.189.04 1.596 2.468zm-69.174-5.256-2.771.901 1.835 1.892zm8.073-2.623-.924 2.718 2.854-.454zm-.924 2.718.924-2.718-2.891.939zm-2.303 12.509-1.534-2.716-1.433 2.499zm1.548 2.702-2.95-.161 1.581 2.758z"/><path d="m-20.457 1.522-1.256 2.63 2.837.128zm1.402-2.541-1.402 2.541 2.95.161z"/><path d="m-20.457 1.522 1.402-2.541-2.967-.217zm.074 5.406 2.907.067-1.4-2.715zm-1.33-2.776 1.33 2.776 1.507-2.648zm4.237 2.843-2.907-.067 1.3 2.699zm-2.907-.067-1.638 2.631 2.938.068zm-4.574-8.207-3.009.438 1.62 2.176zm-4.596 3.516 1.587-3.078-2.671.362zM-27.966-.841l-1.587 3.078 3.207-.902zm-1.587 3.078.489 3.417 1.796-1.85z"/><path d="m-29.553 2.237-2.102 2.466 2.591.951z"/><path d="m-31.655 4.703 2.102-2.466-3.026-.377zm2.591.951-2.591-.951 1.026 3.159zm8.475-14.656 2.861-.017-1.399-2.906z"/><path d="m-17.728-9.019-2.861.017 1.432 2.665zm6.821-6.408.734-2.656-2.953.959zm7.017 53.496 2.334-1.615-3.185-.751zm1.759 1.817.575-3.432-2.334 1.615z"/><path d="m-6.648 38.613 2.758-.544-.851-2.366zm4.517 1.273 2.56-.832-1.985-2.6z"/><path d="m-5.086 40.846 1.196-2.777-2.758.544zm1.196-2.777-1.196 2.777 2.955-.96zm-3.677-2.237-1.62 2.759 2.539.022zm.452-5.324 1.259 2.614 1.747-2.395z"/><path d="m-5.856 33.122-1.259-2.614-1.661 2.674zm-1.711 2.71 1.711-2.71-2.92.06zm1.711-2.71-1.711 2.71 2.826-.129zm-2.586-5.289-2.884-.076 1.311 2.732zm1.327 2.675-1.327-2.675-1.573 2.656zm-5.761-.095 1.213 2.747 1.648-2.671z"/><path d="m-11.326 27.757-1.55 2.656 2.861.076zm-16.436-11.073 2.101-2.127-3.029-.728zm3.399.578-2.536 2.079 2.568.733zm2.376 8.404-2.053 2.476 2.556.969zm0 0 1.527-3.048-2.645.286z"/><path d="m-24.965 25.294 2.978.372-1.118-2.762zm2.978.372-2.978-.372.925 2.848zm2.897-5.825 3.053-.119-1.838-2.453zm0 0-2.806.03 1.436 2.747zm-1.697-7.605-1.234-2.677-1.767 2.56zm-1.234-2.677 1.234 2.677 1.704-2.609z"/><path d="m-22.567 14.787 1.78-2.551-3.001-.117zm3.151-.001-1.371-2.55-1.78 2.551zm3.135-.025-3.135.025 1.541 2.483z"/><path d="m-14.686 17.229-1.595-2.468-1.594 2.508zM-2.497 7.06l-1.501 2.609 2.996.019zm-12.018-.031 1.439 2.609 1.555-2.595z"/><path d="m-13.076 9.638-1.439-2.609-1.58 2.609zm-1.593 2.577 1.593-2.577h-3.019zm10.671-2.546 1.501 2.625 1.495-2.606zM-.993 14.934l-1.504-2.64-1.499 2.586z"/><path d="m.496 12.329-2.993-.035 1.504 2.64z"/><path d="m-2.497 12.294 2.993.035-1.498-2.641zm51.829 8.068 1.967 2.163.937-2.793zm11.005-3.472-1.358 3.14 2.412-.784zm-17.044 3.187.858 2.353 2.375-1.602zm6.039.285-1.345-2.458-1.461 2.924zM46.453 9.921l1.534 2.716 1.433-2.499zM16.92 25.667l-1.491-2.572-1.508 2.654zm.011-5.114-1.502 2.542 3.081.156zm-1.502 2.542 1.491 2.572 1.59-2.416zm14.154 6.486-2.155-1.792-.659 2.707zM28.424 9.767l-1.436 2.723 2.922-.12zm-5.923-5.259 1.452-2.665-2.947-.01zm7.395 2.579-2.961.054 1.489 2.626zm-2.961.054 2.961-.054-1.491-2.613zm4.458 7.802 1.481 2.529 1.48-2.745zm2.98 4.985-1.499-2.456-1.344 2.881zm4.646-2.728-1.711 2.278 3.24.264z"/><path d="m31.393 14.943 1.48-2.718-2.963.145z"/><path d="m32.873 12.225-1.48 2.718 2.961-.216zm-59.611-.564-2.907-.772.955 2.94zm0 0 1.077 2.896 1.873-2.438zm1.077 2.896-1.077-2.896-1.952 2.168z"/><path d="m-26.738 11.661-1.107-2.958-1.8 2.186zM7.834 4.402 6.336 1.717 4.898 4.394zm1.462 23.773L7.893 25.6l-1.566 2.668zm-4.38-2.568L3.4 28.277l2.927-.009z"/><path d="m7.893 25.6-2.977.007 1.411 2.661zm-2.977.007 2.977-.007-1.446-2.63zm6.906 7.26-.771 2.736 2.785-.905z"/><path d="m11.051 35.603.771-2.736-2.84.569zm2.976-4.301-.191 3.396 2.439-.793zM14.027 31.302l-2.205 1.565 2.014 1.831zM.429 39.054l.73-3.056-2.715.456zm3.565-3.611-2.835.555 1.955 2.183z"/><path d="m1.159 35.998-.73 3.056 2.685-.873zm0 0L.007 33.463l-1.563 2.991zM3.4 28.277l1.435 2.741 1.492-2.75z"/><path d="M4.835 31.018 3.4 28.277l-1.719 2.418zm1.112 6.243 2.47-.803-2.164-2.597zm2.47-.803 2.634-.855-2.069-2.167z"/><path d="m5.947 37.261.306-3.4-2.259 1.582zm.306-3.4 2.164 2.597.565-3.022zm-2.78-21.496-1.479 2.618 2.978.05zM1.994 14.983.496 12.329l-1.489 2.605z"/><path d="m.496 12.329 1.498 2.654 1.479-2.618z"/><path d="m.507 17.589 1.487-2.606-2.987-.049zm10.387-2.471-1.505-2.684-1.453 2.644zM9.438 17.758l1.456-2.64-2.958-.04zM7.969 20.39l1.469-2.632-2.967-.049zM6.393 7.069l1.441-2.667-2.936-.008zm0 0 2.939.022-1.498-2.689zM34.046-29.71l-2.758.543.851 2.366z"/><path d="m31.288-29.167 2.758-.543-1.562-2.233zm15.4-4.693-2.408 1.493 3.258 1.124zm-5.352 1.745 2.061-3.374-2.511.816zM-.03-18.887l.66-2.706-2.815.914zM4.717-6.348l2.943.027-1.541-2.68zm2.541-10.713-2.898.099 1.578 2.63z"/><path d="m4.36-16.962 2.898-.099-1.643-2.803zm9.117.116-1.45-2.627-1.549 2.709zm0 0-1.508 2.654 2.993-.007z"/><path d="m11.969-14.192 1.508-2.654-2.999.082zm-2.942-4.995-1.769 2.126 3.22.297z"/><path d="m12.027-19.473-3 .286 1.451 2.423zm-3 .286 3-.286-1.389-2.528zm-1.769 2.126 1.769-2.126-3.412-.677zM7.789-21.422l1.238 2.235 1.611-2.814z"/><path d="m9.027-19.187-1.238-2.235-2.174 1.558zm-3.307-4.06-.105 3.383 2.174-1.558z"/><path d="m5.72-23.247-2.441.793 2.336 2.59zm12.697-1.287-2.841.569 1.162 2.259zm0 0 2.729-.425-2.165-2.597zm0 0L16.348-26.7l-.772 2.735z"/><path d="m16.348-26.7 2.069 2.166.564-3.022zm12.607-.852-1.985-2.6-.731 3.056zm.575-3.431-2.56.831 1.985 2.6zm0 0-.575 3.431 2.333-1.615z"/><path d="m26.97-30.152-2.686.873 1.955 2.183zM7.66-6.321l1.523 2.689L10.6-6.3zm6.039 10.772-1.501-2.696-1.431 2.669zM12.198 1.755l1.501 2.696 1.432-2.667zm13.237-18.414 1.459 2.696 1.539-2.564zm-2.871-5.457 1.435 2.741 1.719-2.417zm2.871 5.457-1.436-2.716-1.516 2.67zM25.404-6.08l2.988.048-1.501-2.655zm1.988-18.481-2.935.31 1.261 2.459zm0 0-1.674 2.769 2.917-.085zm0 0 1.563-2.991-2.716.456z"/><path d="m24.457-24.251 2.935-.31-1.153-2.535zm2.935-.31 2.801-.079-1.238-2.912zm2.801-.079-2.801.079 1.243 2.684zm4.321 3.034-1.629 2.524 2.955.151zm5.761.095 1.285 2.775 1.572-2.609zm6.851 3.158-2.771-.21 1.837 2.668zm-5.566-.383 2.795.173-1.223-2.782zM34.411-.747l-1.505-2.607-1.509 2.587zm12.077-10.192 1.371-2.777-3.07.346zm1.371-2.777-1.371 2.777 2.807-.03zm-20.965-.247 2.991.106-1.452-2.67zm5.991-5.119 1.453 2.718 1.502-2.567zM56.951 6.665l-.489-3.417-1.795 1.85zm-.489-3.417 2.592.951-1.027-3.159zm-78.396-14.707-1.967-2.164-.936 2.793zm0 0 1.345 2.457 1.462-2.923zm-7.159-.477-2.488.809 1.564 2.369zm2.421-.786-2.421.786 1.966 2.655zm-6.852 11.675 1.582-2.136-2.596-.987zm1.984-4.806-2.998 1.683 2.596.987zm-.402 2.67-1.582 2.136 2.887.568zm.402-2.67-1.399-2.135-2.463 1.159zm-1.399-2.135-1.054-2.356-2.308.75zm0 0-3.362-1.606.899 2.765zM-32.939-7.988l1.358-3.139-2.412.783z"/><path d="m-31.581-11.127-1.358 3.139 2.922-.77zm-1.358 3.139 1.399 2.135 1.523-2.905zm1.399 2.135-3.862-.976.864 2.659zm10.951-3.149-1.565 2.672 2.997-.007zm-1.565 2.672 1.565 2.595 1.432-2.602zm-1.214 7.702-1.119 2.626 2.774.154zm0 0-1.589-2.651-1.389 2.614z"/><path d="m-24.957-1.279 1.589 2.651 1.346-2.608zm.47 5.277 1.119-2.626-2.978-.037zM-20.457 1.522l-2.911-.15 1.655 2.78zm-2.911-.15 2.911.15-1.565-2.758zm17.873.479 2.998-.035-1.49-2.587zm2.998-.035-2.998.035 1.503 2.596zM-13 4.42l-1.515 2.609 2.994.014z"/><path d="m-13 4.42-2.962-.047 1.447 2.656zm2.993.024L-13 4.42l1.479 2.623zm-13.234 2.353-1.246-2.799-1.62 2.539zM-24.487 3.998l1.246 2.799 1.528-2.645z"/><path d="m-20.383 6.928-2.858-.131 1.22 2.762z"/><path d="m-23.241 6.797 2.858.131-1.33-2.776zm12.288 33.633-2.985.587 3.096 1.699zm.49-4.553 2.896-.045-1.209-2.65zm0 0-1.2-2.717-1.836 2.509zm-1.2-2.717 1.2 2.717 1.687-2.695zm1.2 2.717 1.276 2.714 1.62-2.759zm8.907.577-1.238-2.912-1.947 2.161z"/><path d="m.007 33.463-2.801.079 1.238 2.912zm-2.801.079 1.557-2.763-2.872-.052z"/><path d="m-2.794 33.542 2.801-.079-1.244-2.684zm-3.062-.42 3.062.42-1.315-2.815zm3.062.42-3.062-.42 1.115 2.581zm-8.869-.382-2.916-.164 1.08 2.673z"/><path d="m-14.579 32.996-1.755 2.675 2.835-.002zm1.703-2.583-1.703 2.583 2.916.164z"/><path d="m-14.579 32.996 1.703-2.583-2.858-.165zm-1.755 2.675-2.825-.462 1.059 3.027zm-1.766 2.565-1.059-3.027-1.908 2.083zm-3.796-18.365-2.467-2.609.032 2.812zm-3.765-5.314 1.298 2.705 1.796-2.475zM-27.762 16.684l3.399.578-1.298-2.705zm3.399.578-3.399-.578.863 2.657zm6.626-5.031 3.068-.016-1.426-2.577zm-3.05.005 3.05-.005-1.346-2.604z"/><path d="m-19.083 9.627 1.346 2.604 1.642-2.593z"/><path d="m-17.737 12.231-3.05.005 1.371 2.55zm1.456 2.53-1.456-2.53-1.679 2.555z"/><path d="m-17.737 12.231 1.456 2.53 1.612-2.546zM1.977 9.706.484 7.06l-1.486 2.628z"/><path d="M.484 7.06h-2.981l1.495 2.628zm-8.993-.011-1.498-2.605-1.514 2.599zm-2.909 15.402 1.439-2.544-3.021-.109zm1.351-7.682 3.047.052-1.519-2.6zm-6.214-.008 3.131-.025-1.519-2.521zm3.131-.025-3.131.025 1.595 2.468zm59.676 6.092-.409 3.381 2.519-.819z"/><path d="m46.526 20.828-2.375 1.602 1.966 1.779zm2.806-.466-.696 3.028 2.663-.865z"/><path d="m48.636 23.39.696-3.028-2.806.466zm-6.531-6.089-3.086-.101 1.529 2.542z"/><path d="m43.293 20.077-1.188-2.776-1.557 2.441zm10.451-12.51-1.388 2.615 3.009-.438zm5.195 7.188 3.862.976-.864-2.659zm-7.896 2.803-1.711 2.804 2.904-.63zM51.043 17.558l-3.056.346 1.345 2.458zm-37.126 2.904 3.014.091-1.55-2.693z"/><path d="m13.917 20.462 1.512 2.633 1.502-2.542zm7.866 8.305 1.256-2.902-2.899.099zm22.368-6.337-.925 2.718 2.891-.939zm-14.568 7.151-.016-3.364-2.139 1.572z"/><path d="m29.583 29.581 2.476-.804-2.492-2.56zM25.49 9.838l1.498 2.652 1.436-2.723z"/><path d="M26.935 7.141 25.49 9.838l2.934-.071zm-2.982-5.298 1.492 2.655 1.469-2.656zm2.961-.001-1.469 2.656 2.96-.024zm-1.469 2.656-1.492-2.655-1.452 2.665zM25.445 4.498l1.49 2.643 1.47-2.667zm10.387 12.654 1.628-2.448-3.106.023z"/><path d="m32.874 17.472 2.958-.32-1.478-2.425zm2.958-.32-2.958.32 1.499 2.456zm1.628-2.448-1.628 2.448 3.187.048zm-1.628 2.448 1.476 2.326 1.711-2.278z"/><path d="m37.308 19.478-1.476-2.326-1.459 2.776zm.131-9.852-1.516 2.555 3.065.014zm.021 5.078-1.537-2.523-1.569 2.546zm-1.537-2.523 1.537 2.523 1.528-2.509z"/><path d="m35.923 12.181 1.516-2.555-3.037.002zm-3.05.044 3.05-.044-1.521-2.553zm3.05-.044-3.05.044 1.481 2.502zm-6.027-5.094 1.49 2.587 1.507-2.622zm1.49 2.587-2.962.093 1.486 2.603z"/><path d="m31.386 9.674 3.016-.046-1.509-2.576zm0 0-1.49-2.587-1.472 2.68z"/><path d="m32.873 12.225-1.487-2.551-1.476 2.696zm-1.487-2.551 1.487 2.551 1.529-2.597zM6.336 1.717l-2.933.008 1.495 2.669zm5.862.038L9.266 1.73l1.501 2.694zM9.266 1.73 7.834 4.402l2.933.022z"/><path d="m9.266 1.73-2.93-.013 1.498 2.685z"/><path d="m6.336 1.717 2.93.013L7.761-.962zM-1.025-.865l2.933-.071L.411-3.587zm-1.472 2.681 1.472-2.681-2.962.094zm1.26 28.963-1.333-2.713-1.539 2.661zm-5.702-5.513-2.967-.131 1.464 2.698z"/><path d="m-8.442 27.833-1.464-2.698-1.42 2.622zm17.738.342 1.672-2.408-3.075-.167zm1.364 2.434 1.162 2.258 2.205-1.565z"/><path d="m11.822 32.867-1.162-2.258-1.678 2.827zm-8.881.286-1.782 2.845 2.835-.555zm3.312.708-3.312-.708 1.053 2.29z"/><path d="m.007 33.463 2.934-.31-1.26-2.458z"/><path d="m1.159 35.998 1.782-2.845-2.934.31zm1.782-2.845 1.894-2.135-3.154-.323zm1.894-2.135-1.894 2.135 3.312.708zM-.981 20.185l2.98.071-1.492-2.667zm-4.479 2.491 1.484-2.582-2.997-.087zm8.949-5.031 2.982.064-1.499-2.676z"/><path d="m1.999 20.256 1.49-2.611-2.982-.056z"/><path d="m3.489 17.645-1.495-2.662-1.487 2.606z"/><path d="m1.994 14.983 1.495 2.662 1.483-2.612zm11.859.184 1.528 2.693 1.417-2.658zM7.889 9.75l-1.453 2.649 2.953.035zM6.393 7.069 7.889 9.75l1.443-2.659zm24.998-2.614-1.495 2.632 2.997-.035zm0 0-1.496-2.613-1.49 2.632z"/><path d="m29.896 7.087 1.495-2.632-2.986.019zm4.499-2.64-3.004.008 1.502 2.597zm.007 5.181 1.508-2.586-3.017.01z"/><path d="M37.439 9.626 35.91 7.042l-1.508 2.586zM35.91 7.042l-1.515-2.595-1.502 2.605zm6.158-10.354-3.076.012 1.482 2.564z"/><path d="m43.494-.736-1.426-2.576-1.594 2.576zm8.391 5.64 1.859 2.663.923-2.469zM51.761-8.36l-.031-2.811-2.435.202zM50.64 2.105 49.42-.657l-1.639 2.631zM34.046-29.71l1.271-3.154-2.833.921zm1.271-3.154 3.034 1.337-.11-2.287zm6.019.749-1.524 2.829 2.882-.273zm-2.985.588 2.985-.588-3.095-1.699z"/><path d="m41.336-32.115-.45-2.558-2.645.859zm-1.524 2.829 1.524-2.829-2.985.588zm1.524-2.829 2.944-.252-.883-3.122zm2.944-.252-2.944.252 1.358 2.556zM1.323-16.704l-3.492-.611 1.951 2.808zM-.03-18.887l-2.139 1.572 3.492.611zM4.717-6.348l1.531 2.694L7.66-6.321zm1.531 2.694 2.935.022L7.66-6.321zm2.935.022-2.935-.022L7.761-.962zm-7.649-8.134-2.858.067 1.587 2.69z"/><path d="m-1.324-11.699 2.858-.067-1.752-2.741zm16.229-7.883L13.372-22.4l-1.345 2.927z"/><path d="m13.372-22.4 1.533 2.818 1.833-2.124z"/><path d="m13.477-16.846 1.428-2.736-2.878.109zM6.119-9.001l2.948.011-1.553-2.681zm1.541 2.68L9.067-8.99l-2.948-.011zM9.067-8.99 7.66-6.321l2.94.021zm-.179-5.359-1.63-2.712-1.32 2.729z"/><path d="m7.258-17.061 1.63 2.712 1.59-2.415zm1.63 2.712-2.95.017 1.576 2.661zm0 0 3.081.157-1.491-2.572zm-6.03-5.137-2.888.599 1.353 2.183zm0 0 1.502 2.524 1.255-2.902z"/><path d="m-.03-18.887 2.888-.599L.63-21.593zm4.39 1.925-1.502-2.524-1.535 2.782z"/><path d="m2.858-19.486.421-2.968-2.649.861zm.421-2.968-.421 2.968 2.757-.378zm16.433.448 2.852-.11-1.418-2.843z"/><path d="m18.417-24.534 1.295 2.528 1.434-2.953zm1.295 2.528-1.295-2.528-1.679 2.828zM9.332 7.091l2.936.027-1.501-2.694z"/><path d="m12.268 7.118 1.431-2.667-2.932-.027zm4.363-2.639 1.435-2.667-2.935-.028z"/><path d="m13.699 4.451 2.932.028-1.5-2.695zm8.723-15.86-1.471-2.658-1.522 2.58zm3.296-10.383 1.319 2.605 1.598-2.69zm1.319 2.605-1.602 2.528 2.998.132zm0 0 2.931.023-1.333-2.713z"/><path d="m29.968-19.164-2.931-.023 1.396 2.66zm-2.931-.023-3.038-.188 1.436 2.716z"/><path d="m23.999-19.375 3.038.188-1.319-2.605zm4.393 13.343 1.492-2.588-2.993-.067zm4.514 2.678-3.011-.038 1.502 2.625zM15.06-3.572l2.949.04-1.505-2.684zm7.399 2.749-2.95-.025 1.497 2.681zm1.494 2.666L22.459-.823l-1.453 2.656zm-3.025-10.65 1.494-2.602-2.993-.078zm14.037-18.122-.919-2.781-1.907 2.909zm-4.997 7.765 1.54-2.66-2.873-.053z"/><path d="m31.508-21.824-1.315-2.816-1.558 2.763zm0 0-1.54 2.66 2.917.082zm3.006.218-3.006-.218 1.377 2.742zm10.984-7.728 2.967.944-.927-2.853z"/><path d="m44.28-32.367 1.218 3.033 2.04-1.909zm1.218 3.033-1.218-3.033-1.586 2.808z"/><path d="m48.465-28.39-2.967-.944 1.06 3.027zm-2.967-.944-1.765 2.565 2.825.462zM43.733-26.769l1.765-2.565-2.804-.225zm-4.671 2.511 1.836-2.508-3.036-.208zm1.836-2.508-1.086-2.52-1.95 2.312z"/><path d="m39.812-29.286 1.086 2.52 1.796-2.793zm1.086 2.52 2.835-.003-1.039-2.79zM53.31-13.479l-1.58 2.308 2.568.733zM43.733-26.769l1.072 2.84 1.753-2.378zm1.072 2.84 2.855.639-1.102-3.017zm4.617-1.515-.957-2.946-1.907 2.083z"/><path d="m47.66-23.29 1.762-2.154-2.864-.863zm1.762-2.154L47.66-23.29l2.748.881zm-12.008 3.857 2.861.076-1.213-2.747zm0 0-2.9-.019 1.326 2.675zm7.859 13.22-1.838-2.453-1.351 2.493zM46.488-10.939l-3.053.119 1.838 2.453z"/><path d="m43.435-10.82 3.053-.119-1.699-2.431zm-.246-5.166 1.6 2.616 1.403-2.525zm0 0 1.166-2.577-2.795-.173z"/><path d="m44.355-18.563-1.166 2.577 3.003.091zm-10.017 2.199 2.966.131-1.464-2.698zm.073 15.617 1.527-2.572-3.032-.035zm1.527-2.572-1.52-2.6-1.512 2.565zM53.744 7.567l3.207-.902-2.284-1.567zm3.207-.902 2.103-2.466-2.592-.951zm0 0-3.207.902 1.621 2.177zm0 0 3.027.377-.924-2.843zm-76.078-18.59.408-3.382-2.519.819zm0 0 2.375-1.603-1.967-1.779zm-2.807.466.696-3.029-2.663.865zm.696-3.029-.696 3.029 2.807-.466zm-5.434 1.766-.455 3.441 2.29-1.549zm-.455 3.441-1.966-2.655-.924 3.178zm3.486 5.33-1.316 2.672 2.935.043z"/><path d="m-20.589-3.735-3.052-.216 1.619 2.715z"/><path d="m-22.154-6.33-1.487 2.379 3.052.216zm.133 15.889-2.903-.226 1.136 2.786zm-2.903-.226-1.814 2.328 2.95.458zm-2.921-.63 2.921.63-1.183-2.796z"/><path d="m-26.738 11.661 1.814-2.328-2.921-.63zm3.497-4.864-1.683 2.536 2.903.226z"/><path d="m-24.924 9.333 1.683-2.536-2.866-.26zm9.03-20.508-.858-2.353-2.375 1.603zm-.858-2.353.858 2.353 1.996-2.807zm-.976 4.509 1.834-2.156-3.233-.75z"/><path d="m-15.894-11.175 2.744.335-.748-3.142zm8.025-4.974.506-2.847-2.81.913z"/><path d="m-10.907-15.427 3.038-.722-2.304-1.934z"/><path d="m-8.581-13.386.712-2.763-3.038.722z"/><path d="m-7.869-16.149-.712 2.763 2.819-.566zm-3.038.722-2.219-1.697-.772 3.142zm0 0-2.991 1.445 2.504 1.137zM-13.15-10.84l1.756-2.005-2.504-1.137z"/><path d="m-11.394-12.845-1.756 2.005 3.241.264z"/><path d="m-8.581-13.386-2.813.541 1.485 2.269zm-2.813.541 2.813-.541-2.326-2.041zm.441 53.275 3.035 1.336-1.269-3.175z"/><path d="m-7.918 41.766 2.832-.92-1.562-2.233z"/><path d="m-9.187 38.591 1.269 3.175 1.27-3.153zm1.269 3.175-3.035-1.336.111 2.286zm-3.035-1.336-1.46-2.242-1.525 2.829zm-4.343-1.969 2.883-.273-1.086-2.519z"/><path d="m-13.938 41.017 1.525-2.829-2.883.273zm1.525-2.829 1.46 2.242 1.766-1.839zm1.95-2.311-1.95 2.311 3.226.403zm-1.95 2.311 1.95-2.311-3.036-.208zm-9.574-12.522 3.193-.869-1.666-2.179z"/><path d="m-18.794 24.797-3.193.869 2.259 1.589zm5.918 5.616-1.286-2.775-1.572 2.61z"/><path d="m-14.162 27.638 1.286 2.775 1.55-2.656zm-1.875-7.916 1.642 2.614L-13 19.798z"/><path d="m-14.395 22.336 2.977.115L-13 19.798zm-7.089 6.775 2.916.895-1.16-2.751z"/><path d="m-21.987 25.666.503 3.445 1.756-1.856zm3.419 4.34-2.916-.895 1.222 3.081zM-21.484 29.111l-1.526 2.2 2.748.881z"/><path d="m-23.01 31.311 1.526-2.2-2.556-.969zm4.442-1.305 1.161 2.825 1.673-2.583z"/><path d="m-17.407 32.831 2.828.165-1.155-2.748zm2.828.165-2.828-.165 1.073 2.84zm-2.828-.165-1.161-2.825-1.694 2.186z"/><path d="m-19.159 35.209 1.752-2.378-2.855-.639zm1.752-2.378-1.752 2.378 2.825.462zm-5.603-1.52.986 3.036 1.762-2.155z"/><path d="m-22.024 34.347 2.865.862-1.103-3.017zm2.865.862-2.865-.862.957 2.945zm-.257-20.423-1.668 2.485 3.209-.002zm-1.668 2.485 1.994 2.57 1.215-2.572z"/><path d="m-21.084 17.271 1.668-2.485-3.151.001zm1.994 2.57-1.994-2.57-.812 2.6z"/><path d="m-21.084 17.271-3.279-.009 2.467 2.609z"/><path d="m-24.363 17.262 3.279.009-1.483-2.484zM3.445 7.06l2.948.009-1.495-2.675zm0 0H.484l1.493 2.646zm-16.521 2.578 3.035-.002-1.48-2.593zm6.063.011-3.028-.013 1.502 2.585z"/><path d="m-8.509 7.049-1.532 2.587 3.028.013zm-1.532 2.587 1.532-2.587-3.012-.006zm4.544-2.579 3 .003-1.495-2.613zm0 0-1.516 2.592 3.015.02z"/><path d="m-2.497 7.06-3-.003 1.499 2.612zm-3-.003-3.012-.008 1.496 2.6zM-7.013 9.649l1.505 2.607 1.51-2.587zm1.505 2.607-1.505-2.607-1.526 2.572zm3.011.038-3.011-.038 1.512 2.624z"/><path d="m-5.508 12.256 3.011.038-1.501-2.625z"/><path d="m-7.02 14.821 1.512-2.565-3.031-.035z"/><path d="m-5.508 12.256-1.512 2.565 3.024.059zm-1.512 2.565 1.524 2.624 1.5-2.565zm3.044 5.273-1.52-2.649-1.477 2.562zm-6.003-.187-1.599-2.619-1.422 2.51zm-1.599-2.619-3.108-.059L-13 19.798zm-1.572-2.552 1.572 2.552 1.511-2.519z"/><path d="m-11.578 17.288-1.572-2.552-1.536 2.493zm52.134-2.543-3.096-.041 1.559 2.496zM37.46 14.704l3.096.041-1.568-2.55z"/><path d="m42.105 17.301-1.549-2.556-1.537 2.455z"/><path d="m40.556 14.745 1.549 2.556 1.559-2.275zm18.784-2.659 2.597.986-1.015-3.123zm2.597.986-2.597-.986-.401 2.669z"/><path d="m58.939 14.755.401-2.669-2.638.322zm0 0 1.398 2.135 2.464-1.159zm.04 5.275-1.563-2.37-.925 3.178z"/><path d="m57.416 17.66 1.563 2.37 1.358-3.14z"/><path d="m58.939 14.755-1.523 2.905 2.921-.77zm-10.952 3.149-2.86.018 1.399 2.906zm-2.86.018-1.834 2.155 3.233.751zm-3.022-.621 3.022.621-1.463-2.896z"/><path d="m45.127 17.922-3.022-.621 1.188 2.776z"/><path d="m46.556 15.24-1.429 2.682 2.86-.018z"/><path d="m45.127 17.922 1.429-2.682-2.892-.214zm5.912-5.068 1.317-2.672-2.936-.044zm-3.052-.217 3.052.217-1.619-2.716zm-4.626-8.108-2.962-.047 1.533 2.645zm4.495 2.851-1.403 2.541 2.967.217zm-7.372 2.315-3.045-.069 1.549 2.569zm0 0 3 .091-1.552-2.659z"/><path d="m45.044 12.478 1.512 2.762 1.431-2.603z"/><path d="m46.556 15.24-1.512-2.762-1.38 2.548zm-.103-5.319-1.409 2.557 2.943.159z"/><path d="m43.484 9.786 1.56 2.692 1.409-2.557zM18.371 28.089l1.769-2.125-3.22-.297zm0 0-3 .286 1.389 2.528z"/><path d="m15.371 28.375 3-.286-1.451-2.422z"/><path d="m18.371 28.089 3.412.678-1.643-2.803zm22.926-5.205 1.996-2.807-2.745-.335zm1.996-2.807-1.996 2.807 2.854-.454zm-.067 5.071-1.929-2.264-.772 3.142zM41.297 22.884l1.929 2.264.925-2.718zm-5.318-.595 1.329-2.811-2.935.45zm-.711 2.763-.507 2.847 2.81-.913zM18.215 12.535l1.523 2.688 1.413-2.667z"/><path d="m19.738 15.223-1.523-2.688-1.417 2.667zm4.257-8.046-2.932.008 1.502 2.683z"/><path d="m25.49 9.838-1.495-2.661-1.43 2.691zm-4.427-2.653 2.932-.008-1.494-2.669zm2.932-.008 1.495 2.661 1.445-2.697z"/><path d="m25.445 4.498-1.45 2.679 2.94-.036zm-1.45 2.679 1.45-2.679-2.944.01zM-2.497 7.06l1.49-2.632-2.985.019z"/><path d="m-1.007 4.428-1.49-2.612-1.495 2.631z"/><path d="m.484 7.06-1.491-2.632-1.49 2.632zm-5.971 20.925-2.955-.152 1.327 2.675zm0 0-1.628 2.523 3.006.219z"/><path d="m-5.487 27.985-1.452-2.719-1.503 2.567zm2.917.081-2.917-.081 1.378 2.742zM7.969 20.39l2.971.044-1.502-2.676zm7.402 7.985-2.878.109 1.534 2.818z"/><path d="m12.493 28.484 2.878-.109-1.45-2.626zm-1.525-2.717 1.525 2.717 1.428-2.735zm1.525 2.717-1.525-2.717-1.672 2.408z"/><path d="m10.66 30.609 1.833-2.125-3.197-.309zm1.833-2.125-1.833 2.125 3.367.693zm-7.658 2.534 2.852-.11-1.36-2.64zm2.852-.11-1.434 2.953 2.729-.425zm0 0 1.609-2.733-2.969.093z"/><path d="m7.687 30.908-2.852.11 1.418 2.843zm2.973-.299-2.973.299 1.295 2.528z"/><path d="m7.687 30.908 2.973-.299-1.364-2.434zM-.981 20.185l1.485 2.68 1.495-2.609zm-8.998-.278 1.544 2.666 1.462-2.566zm.073 5.228 1.471-2.562-2.983-.122z"/><path d="m-8.435 22.573-1.544-2.666-1.439 2.544zm0 0-1.471 2.562 2.967.131zm2.975.103-2.975-.103 1.496 2.693z"/><path d="m-8.435 22.573 2.975.103-1.513-2.669zM7.969 20.39l-2.992-.079 1.47 2.659z"/><path d="m4.977 20.311 2.992.079-1.498-2.681zm0 0-1.488-2.666-1.49 2.611z"/><path d="m3.489 17.645 1.488 2.666 1.494-2.602zM34.411-.747l-1.516 2.592 3.013.008zm-4.516 2.589 3 .003-1.498-2.612z"/><path d="m32.895 1.845 1.5 2.602 1.513-2.594zm0 0 1.516-2.592-3.014-.02z"/><path d="m32.895 1.845-1.504 2.61 3.004-.008zm-1.504 2.61 1.504-2.61-3-.003zm3.004-.008 3.011.011-1.498-2.605z"/><path d="m35.91 7.042 1.496-2.584-3.011-.011zm3.009-5.183-1.513 2.599 2.993.024z"/><path d="m37.406 4.458 1.513-2.599-3.011-.006zm18.683-9.384-.928-2.856-2.102 2.127zM51.761-8.36l2.537-2.078-2.568-.733z"/><path d="m55.161-7.782-3.4-.578 1.298 2.705z"/><path d="m51.761-8.36 3.4.578-.863-2.656zM49.42-.657l-2.938-.068 1.299 2.699zm2.902.226L49.42-.657l1.22 2.762zM-2.996-14.402l1.672 2.703 1.106-2.808zm.827-2.913-.827 2.913 2.778-.105zm-.016-3.364-2.475.804 2.491 2.56z"/><path d="m-2.185-20.679.016 3.364 2.139-1.572zM4.834-.965l1.502 2.682L7.761-.962zm-1.431 2.69 1.431-2.69-2.926.029z"/><path d="m4.834-.965-1.431 2.69 2.933-.008zm1.414-2.689L4.834-.965l2.927.003zM2.949-14.265l-1.626-2.439-1.541 2.197z"/><path d="m2.949-14.265 1.411-2.697-3.037.258zm0 0 1.6 2.606 1.389-2.673z"/><path d="m4.36-16.962-1.411 2.697 2.989-.067zm-1.411 2.697-1.415 2.499 3.015.107zM1.534-11.766l1.415-2.499-3.167-.242zm.271 5.441 1.351-2.723-2.893.039zm2.744-5.334L3.156-9.048l2.963.047z"/><path d="m3.156-9.048 1.561 2.7 1.402-2.653zm0 0L1.805-6.325l2.912-.023zm0 0-1.622-2.718L.263-9.009z"/><path d="m1.534-11.766 1.622 2.718 1.393-2.611zm-2.858.067-1.278 2.848 2.865-.158zm-7.257-1.687 1.606 2.36 1.213-2.926z"/><path d="m-6.975-11.026-1.606-2.36-1.328 2.81zm26.481-5.672 1.445 2.631 1.532-2.638zm-7.489 7.74-2.95-.032L10.6-6.3zm1.611 8.046-1.43 2.667 2.933.029zm7.435 8.097-1.426 2.679 2.928.004zm-1.426 2.679 1.514 2.692 1.414-2.688zM19.637 9.864l-1.422 2.671 2.936.021z"/><path d="m18.215 12.535 1.422-2.671-2.933-.022z"/><path d="m15.279 12.509 2.936.026-1.511-2.693zm0 0-1.426 2.658 2.945.035z"/><path d="m18.215 12.535-2.936-.026 1.519 2.693zM7.889 9.75l2.944.032-1.501-2.691zm2.944.032L7.889 9.75l1.5 2.684z"/><path d="m10.833 9.782 1.435-2.664-2.936-.027zM19.564 4.5l1.499 2.685 1.438-2.677zm0 0 2.937.008-1.495-2.675z"/><path d="M18.066 1.812 19.564 4.5l1.442-2.667z"/><path d="m16.631 4.479 2.933.021-1.498-2.688zm-4.363 2.639 2.932.029-1.501-2.696z"/><path d="m15.2 7.147 1.431-2.668-2.932-.028zM28.4-.786l1.495 2.628 1.502-2.609z"/><path d="M29.895 1.842 28.4-.786l-1.486 2.628zm0-5.234L28.4-.786l2.997.019zm-8.933-.105-2.953-.035 1.5 2.684zm1.497 2.674-1.497-2.674-1.453 2.649zm-6-10.709 1.502 2.677 1.468-2.632zm1.502 2.677 2.967.048-1.499-2.68zm21.851-20.431-3.227-.402 1.277 2.714z"/><path d="m36.585-29.688 3.227.402-1.461-2.241z"/><path d="m35.317-32.864 1.268 3.176 1.766-1.839z"/><path d="m36.585-29.688-1.268-3.176-1.271 3.154zm-1.62 2.759 1.62-2.759-2.539-.022zm1.62-2.759-1.62 2.759 2.897-.045zm-3.331 5.468 1.711-2.709-2.826.128z"/><path d="m30.193-24.64 3.061.42-1.115-2.581zm3.061.42-1.746 2.396 3.006.218z"/><path d="m31.508-21.824 1.746-2.396-3.061-.42zm18.995 7.823-2.644.285 1.436 2.747zm1.227 2.83-1.227-2.83-1.208 3.032zm-1.227-2.83 2.807.522-.946-2.912z"/><path d="m53.31-13.479-2.807-.522 1.227 2.83zm-5.65-9.811 1.222 3.082 1.526-2.201zm1.222 3.082-1.756 1.855 2.26 1.589z"/><path d="m48.882-20.208 2.556.969-1.03-3.17zm-6.904-3.886-1.703 2.583 2.857.166zm0 0-1.08-2.672-1.836 2.508z"/><path d="m40.275-21.511 1.703-2.583-2.916-.164z"/><path d="m40.898-26.766 1.08 2.672 1.755-2.675z"/><path d="m41.978-24.094 2.827.165-1.072-2.84zm2.827.165-2.827-.165 1.154 2.749zm-14.837 4.765 1.421 2.702 1.496-2.62zm1.421 2.702-1.421-2.702-1.535 2.637zM29.885-13.857l1.504-2.605-2.956-.065z"/><path d="m31.389-16.462 2.949.098-1.453-2.718zm0 0 1.47 2.688 1.479-2.59z"/><path d="m32.859-13.774-1.47-2.688-1.504 2.605zm7.69 7.94 1.519 2.522 1.612-2.547z"/><path d="m42.084-8.327-1.535 2.493 3.131-.025zm-.016 5.015-1.519-2.522L38.992-3.3zm-3.091-5.074 1.572 2.552 1.535-2.493zm2.816-5.048 1.642 2.614 1.354-2.55zm1.396-2.552-1.396 2.552 2.996.064zm-2.914-5.525-1.551 2.656 2.836.119zm-1.551 2.656-1.31-2.732-1.574 2.656z"/><path d="m37.414-21.587 1.31 2.732 1.551-2.656zm-.11 5.354 1.42-2.622-2.884-.076zM38.992-3.3 37.439-.734l3.035-.002zM37.439-.734l-3.028-.013 1.497 2.6z"/><path d="m37.439-.734 1.48 2.593 1.555-2.595z"/><path d="m38.919 1.859-1.48-2.593-1.531 2.587zm-1.48-2.593-1.501-2.585-1.527 2.572z"/><path d="m35.938-3.319 1.501 2.585L38.992-3.3zm-57.872-8.14-1.711 2.804 3.056-.347z"/><path d="m-23.645-8.655 1.711-2.804-2.903.629zm0 0 1.491 2.325 1.565-2.672z"/><path d="m-27.127-9.281 3.482.626-1.192-2.175zm.564 5.513-1.403 2.927 3.009-.438zm2.922-.183-2.922.183 1.606 2.489zm5.073 33.957 1.612-2.541-2.772-.21zm-.226-5.209 1.838 2.668 1.166-2.577zm1.838 2.668-1.612 2.541 2.834.242z"/><path d="m-16.956 27.465-1.838-2.668-.934 2.458zm2.794.173-2.794-.173 1.222 2.783zm-2.794-.173 2.794.173-1.628-2.75zm-1.838-2.668 1.404-2.525-3.07.346zm1.404-2.525-1.7-2.431-1.37 2.777z"/><path d="m-19.09 19.841 1.7 2.431 1.353-2.55z"/><path d="m-17.39 22.272-1.404 2.525 3.004.091z"/><path d="m-14.395 22.336-2.995-.064 1.6 2.616z"/><path d="m-17.39 22.272 2.995.064-1.642-2.614zm4.543 2.751-1.315 2.615 2.836.119z"/><path d="m-9.906 25.135-2.941-.112 1.521 2.734zm-2.941-.112 2.941.112-1.512-2.684zm-1.315 2.615 1.315-2.615-2.943-.135z"/><path d="m-14.395 22.336 1.548 2.687 1.429-2.572z"/><path d="m-12.847 25.023-1.548-2.687-1.395 2.552zM7.889 9.75l-2.95-.025 1.497 2.674zm-2.95-.025-2.962-.019 1.496 2.659z"/><path d="M6.436 12.399 4.939 9.725l-1.466 2.64zM4.939 9.725l2.95.025-1.496-2.681zM3.445 7.06l1.494 2.665 1.454-2.656z"/><path d="M4.939 9.725 3.445 7.06 1.977 9.706zm-16.532 2.477-1.557 2.534 3.083.033z"/><path d="m-11.593 12.202 1.526 2.567 1.528-2.548zm0 0-1.483-2.564-1.593 2.577zm-1.557 2.534 1.557-2.534-3.076.013z"/><path d="m-11.593 12.202 1.552-2.566-3.035.002z"/><path d="m-10.041 9.636-1.552 2.566 3.054.019zm1.532-2.587 1.512-2.594-3.01-.011zm3.014-5.198-1.502 2.604 3.005-.008zM-5.497 7.057l-1.5-2.602-1.512 2.594z"/><path d="m-6.997 4.455 1.5 2.602 1.505-2.61zm4.512 13.068 2.992.066-1.5-2.655z"/><path d="m-2.485 17.523 1.492-2.589-3.003-.054zm0 0 1.504 2.662 1.488-2.596z"/><path d="m-.981 20.185-1.504-2.662-1.491 2.571zm-1.504-2.662-3.011-.078 1.52 2.649z"/><path d="m-5.496 17.445 3.011.078-1.511-2.643zm0 0-3.026-.077 1.549 2.639zm-3.026-.077-1.457 2.539 3.006.1zm0 0 1.502-2.547-3.047-.052z"/><path d="m-8.522 17.368 3.026.077-1.524-2.624zm0 0-3.056-.08 1.599 2.619z"/><path d="m-11.578 17.288 3.056.08-1.545-2.599zm69.613-7.907-1.084-2.716-1.586 3.079zm-1.333 3.027 1.333-3.027-2.67.363zm3.276-5.366-1.943 2.339 2.887.568z"/><path d="m56.951 6.665 1.084 2.716 1.943-2.339zm2.389 5.421-1.305-2.705-1.333 3.027z"/><path d="m58.035 9.381 1.305 2.705 1.582-2.137zM46.556 15.24l2.996-.007-1.565-2.596zm2.996-.007-2.996.007 1.431 2.664zm1.491 2.325-1.491-2.325-1.565 2.671z"/><path d="m49.552 15.233 1.487-2.379-3.052-.217z"/><path d="m52.866 15.459-3.314-.226 1.491 2.325z"/><path d="m49.552 15.233 3.314.226-1.827-2.605zm-7.639-13.36 1.581-2.609h-3.02zm0 0-2.994-.014 1.48 2.623z"/><path d="m38.919 1.859 2.994.014-1.439-2.609z"/><path d="m43.361 4.529-1.448-2.656-1.514 2.609zm1.544 2.69-1.421 2.567 2.969.135zm-1.421 2.567 1.421-2.567-2.973-.092z"/><path d="m44.905 7.219-1.544-2.69-1.429 2.598z"/><path d="m43.361 4.529 1.544 2.69 1.37-2.597zm1.544 2.69 2.951.161-1.581-2.758zm2.951.161-2.951-.161 1.548 2.702zm2.911.15 1.589 2.652 1.388-2.615z"/><path d="M52.356 10.182 50.767 7.53l-1.347 2.608zm-.471-5.278L50.767 7.53l2.977.037z"/><path d="m50.767 7.53-2.911-.15 1.564 2.758zm-8.702 4.802-1.581-2.637-1.496 2.5z"/><path d="m40.556 14.745 1.509-2.413-3.077-.137zm1.509-2.413-1.509 2.413 3.108.281zm-1.581-2.637 1.581 2.637 1.419-2.546z"/><path d="m42.065 12.332 2.979.146-1.56-2.692z"/><path d="m45.044 12.478-2.979-.146 1.599 2.694zM23.039 25.865l1.501 2.523 1.536-2.782z"/><path d="m24.54 28.388 2.888-.599-1.352-2.183zm2.888-.599-2.888.599 2.229 2.108z"/><path d="m21.783 28.767 2.757-.379-1.501-2.523zm2.336 2.589.421-2.968-2.757.379zm.421-2.968-.421 2.968 2.65-.86zm-2.861 3.761.104-3.382-2.173 1.558z"/><path d="m19.61 30.325-.711 2.728 2.78-.904zm-.711 2.728.711-2.728-2.85.578z"/><path d="m21.679 32.149 2.44-.793-2.336-2.589zm-3.308-4.06 1.239 2.236 2.173-1.558z"/><path d="m19.61 30.325-1.239-2.236-1.611 2.814zm10.784-7.021 2.766-.449-1.63-2.502z"/><path d="m33.16 22.855 1.213-2.927-2.843.425zm2.819-.566-2.819.566 2.108 2.197z"/><path d="m33.16 22.855 2.819-.566-1.606-2.361zm5.633-1.107 2.504 1.136-.749-3.142z"/><path d="m37.308 19.478 1.485 2.27 1.755-2.006zm3.989 3.406-2.504-1.136-.488 2.581z"/><path d="m35.979 22.289 2.814-.541-1.485-2.27zm-11.53.878-1.41 2.698 3.037-.259zm4.274-2.566 1.671 2.703 1.136-2.951zm-7.572-8.045 2.922-.008-1.508-2.68zM24.073 12.548l1.417-2.71-2.925.03z"/><path d="m25.49 9.838-1.417 2.71 2.915-.058zm-1.417 2.71 1.52 2.68 1.395-2.738zm-7.142 8.005 1.401-2.661-2.951-.032z"/><path d="m15.381 17.86 2.951.032-1.534-2.69z"/><path d="m18.332 17.892 1.406-2.669-2.94-.021zM.464 1.761l2.939-.036L1.908-.936z"/><path d="M-1.025-.865.464 1.761 1.908-.936z"/><path d="M.464 1.761-1.025-.865l-1.472 2.681z"/><path d="M-1.007 4.428.464 1.761l-2.961.055zM-3.99 25.365l-1.47-2.689-1.479 2.59zm0 0-1.497 2.62 2.917.081z"/><path d="m-5.487 27.985 1.497-2.62-2.949-.099zm14.955-4.912L7.969 20.39l-1.522 2.58zM7.893 25.6l1.575-2.527-3.021-.103zm3.075.167-1.5-2.694L7.893 25.6z"/><path d="m9.468 23.073 1.472-2.639-2.971-.044zm2.936-5.276-1.51-2.679-1.456 2.64zm0 0 1.513 2.665 1.464-2.602z"/><path d="m13.853 15.167-1.449 2.63 2.977.063z"/><path d="m12.404 17.797 1.449-2.63-2.959-.049zm-1.464 2.637 1.464-2.637-2.966-.039zm1.464-2.637-1.464 2.637 2.977.028zM3.4 28.277l-3.039-.188 1.32 2.606z"/><path d="m.361 28.089-1.598 2.69 2.918-.084zm0 0-2.931-.023 1.333 2.713zm3.11-5.157 1.445 2.675 1.531-2.637zm-2.967-.067 2.967.067-1.472-2.676z"/><path d="m3.471 22.932 1.506-2.621-2.978-.055zm1.506-2.621-1.506 2.621 2.976.038zM38.933 7.073l-3.023-.031 1.529 2.584zm1.466-2.591-1.466 2.591 2.999.054zm-1.466 2.591 1.551 2.622 1.448-2.568z"/><path d="m40.484 9.695-1.551-2.622-1.494 2.553zm-1.551-2.622-1.527-2.615-1.496 2.584z"/><path d="m37.406 4.458 1.527 2.615 1.466-2.591zM51.761-8.36l-1.795 2.475 3.093.23zm1.745 10.725-1.621 2.539 2.782.194z"/><path d="m56.462 3.248-2.956-.883 1.161 2.733zm-4.577 1.656 1.621-2.539-2.866-.26z"/><path d="M53.506 2.365 52.322-.431 50.64 2.105zM-2.996-14.402l-1.988-2.503-.778 2.953z"/><path d="m-4.984-16.905-2.885.756 2.107 2.197z"/><path d="m-7.869-16.149 2.885-.756-2.379-2.091zm2.885-.756 1.988 2.503.827-2.913z"/><path d="m-4.66-19.875-.324 2.97 2.815-.41z"/><path d="m-4.984-16.905.324-2.97-2.703.879zm6.789 10.58 1.521 2.68 1.391-2.703zm.103 5.389 1.418-2.709-2.915.058z"/><path d="m3.326-3.645-1.521-2.68L.411-3.587zm0 0 2.922-.009-1.531-2.694z"/><path d="m3.326-3.645 1.508 2.68 1.414-2.689zm1.508 2.68-1.508-2.68L1.908-.936zM-3.995-6.04l1.393-2.811-2.873.281zM-16.086-.884l-2.969-.135 1.548 2.702zm1.379-7.515-1.187-2.776-1.834 2.156zm-1.187-2.776 1.187 2.776 1.557-2.441zm11.762-.276 1.53 2.6 1.278-2.848zm0 0 1.136-2.951-2.766.45z"/><path d="m-2.996-14.402-1.136 2.951 2.808-.248z"/><path d="m-2.602-8.851-1.53-2.6-1.343 2.881z"/><path d="m-4.132-11.451-2.843.425 1.5 2.456z"/><path d="m-6.975-11.026 2.843-.425-1.63-2.501zm28.047-8.339 2.927-.01-1.435-2.741zm2.927-.01-2.927.01 1.411 2.66zm-4.287-2.631 1.36 2.641 1.492-2.751zM21.072-19.365l-1.566 2.667 2.977-.007zm-.121 5.298-3.02-.104 1.498 2.684zm-3.02-.104-1.472 2.639 2.97.045zM16.459-11.532l1.472-2.639-2.969-.028zm3.047-5.166-1.575 2.527 3.02.104zM13.545-6.265l1.515 2.693 1.444-2.644zm0 0-1.528-2.693L10.6-6.3zm-3.077-5.385-1.58-2.699-1.374 2.678z"/><path d="m9.067-8.99 1.401-2.66-2.954-.021zm-.179-5.359 1.58 2.699 1.501-2.542zm3.129 5.391-1.549-2.692-1.401 2.66zm6.049 10.77L16.565-.879l-1.434 2.663zM16.565-.879l1.501 2.691 1.443-2.66z"/><path d="M18.009-3.532 16.565-.879l2.944.031z"/><path d="m16.565-.879 1.444-2.653-2.949-.04z"/><path d="m13.628-.912 2.937.033-1.505-2.693z"/><path d="m16.565-.879-2.937-.033 1.503 2.696zm-5.871-.06L9.183-3.632 7.761-.962z"/><path d="m9.266 1.73 1.428-2.669-2.933-.023zm1.428-2.669L9.266 1.73l2.932.025z"/><path d="m13.628-.912-2.934-.027 1.504 2.694zm.225 16.079-1.514-2.693-1.445 2.644z"/><path d="m10.894 15.118 1.445-2.644-2.95-.04zm4.385-2.609-2.94-.035 1.514 2.693z"/><path d="m12.339 12.474-1.506-2.692-1.444 2.652zM19.564 4.5l-1.432 2.672 2.931.013zm.073 5.364-1.505-2.692-1.428 2.67z"/><path d="m18.132 7.172 1.505 2.692 1.426-2.679zm0 0L19.564 4.5l-2.933-.021zM15.2 7.147l2.932.025-1.501-2.693z"/><path d="M18.132 7.172 15.2 7.147l1.504 2.695zm5.795-21.202 1.508-2.629-2.952-.046z"/><path d="m20.951-14.067 2.976.037-1.444-2.675zm2.976.037 2.967.067-1.459-2.696z"/><path d="m22.422-11.409 1.505-2.621-2.976-.037zm2.977.055-1.472-2.676-1.505 2.621z"/><path d="m23.927-14.03 1.472 2.676 1.495-2.609zm-.018 5.287-1.482 2.612 2.977.051zM23.909-8.743l1.495 2.663 1.487-2.607zm0 0-2.981-.064 1.499 2.676zm-2.981-.064 2.981.064-1.487-2.666z"/><path d="m25.399-11.354-1.49 2.611 2.982.056zm-1.49 2.611 1.49-2.611-2.977-.055zm4.47-2.54 1.506-2.574-2.991-.106zm1.505 2.663-1.505-2.663-1.488 2.596z"/><path d="m28.379-11.283-2.98-.071 1.492 2.667z"/><path d="m25.399-11.354 2.98.071-1.485-2.68zm9.019 5.435-3.023-.058 1.511 2.623zm-3.023-.058L29.884-8.62l-1.492 2.588z"/><path d="m31.395-5.977-1.5 2.585 3.011.038z"/><path d="m29.895-3.392 1.5-2.585-3.003-.055zm1.5-2.585 1.499-2.566-3.01-.077zm1.499-2.566-1.499 2.566 3.023.058zM22.427-6.131l1.498 2.668 1.479-2.617z"/><path d="m20.962-3.497 2.963.034-1.498-2.668zm2.963.034-2.963-.034 1.497 2.674zm-2.997-5.344-1.465 2.632 2.964.044z"/><path d="m19.463-6.175 1.499 2.678 1.465-2.634zm-1.454 2.643 1.454-2.643-2.959-.041z"/><path d="m20.962-3.497-1.499-2.678-1.454 2.643zm-3.001-5.358 1.502 2.68 1.465-2.632z"/><path d="m19.463-6.175-1.502-2.68-1.457 2.639zm16.712-18.104 2.887.021-1.2-2.716z"/><path d="m34.965-26.929 1.21 2.65 1.687-2.695zm1.21 2.65 1.239 2.692 1.648-2.671z"/><path d="m37.414-21.587-1.239-2.692-1.661 2.673zm-4.16-2.633 2.921-.059-1.21-2.65zm2.921-.059-2.921.059 1.26 2.614zm13.211 7.515-2.26-1.589-.934 2.458z"/><path d="m48.882-20.208.504 3.444 2.052-2.475zm-1.023 6.492 1.527-3.048-3.194.869zm3.579-5.523-2.052 2.475 2.978.373zm-2.052 2.475 1.117 2.763 1.861-2.39z"/><path d="m50.503-14.001-1.117-2.763-1.527 3.048zm-6.148-4.562 1.612-2.541-2.835-.241z"/><path d="m45.967-21.104-1.162-2.825-1.673 2.584zm0 0-1.612 2.541 2.771.21z"/><path d="m44.805-23.929 1.162 2.825 1.693-2.186zm1.162 2.825 2.915.896-1.222-3.082zm2.915.896-2.915-.896 1.159 2.751zm-13.049 6.537-2.974-.103 1.512 2.67zm1.471-2.562-1.471 2.562 2.983.123zm-4.445 2.459 2.974.103-1.495-2.693z"/><path d="m35.833-13.671 1.471-2.562-2.966-.131zm0 0 1.544 2.667 1.439-2.544z"/><path d="m37.377-11.004-1.544-2.667-1.462 2.567zm-4.483 2.461 3.027.078-1.55-2.639zm3.027.078-3.027-.078 1.524 2.624zm1.456-2.539-1.456 2.539 3.056.079z"/><path d="m35.921-8.465 1.456-2.539-3.006-.1zm1.456-2.539 3.022.108-1.583-2.652zm6.058.184-3.036-.076 1.685 2.569z"/><path d="m40.399-10.896-1.422 2.51 3.107.059z"/><path d="m40.399-10.896-3.022-.108 1.6 2.618zm1.394-2.538-1.394 2.538 3.036.076zm-1.394 2.538 1.394-2.538-2.977-.114zm-.154-5.224-2.941-.113 1.512 2.685z"/><path d="m41.793-13.434-1.548-2.686-1.429 2.572zm-1.548-2.686 2.944.134-1.629-2.75zm0 0 1.548 2.686 1.396-2.552zm0 0-1.521-2.735-1.42 2.622zM38.724-18.855l1.521 2.735 1.315-2.616zM-29.303-3.506l-2.639.323 1.305 2.704z"/><path d="m-27.966-.841-1.337-2.665-1.334 3.027z"/><path d="m-31.942-3.183 2.639-.323-2.237-2.347zm5.379-.585-2.74.262 1.337 2.665zm2.918-4.887-1.823 2.098 3.314.227z"/><path d="m-25.468-6.557 1.827 2.606 1.487-2.379zm0 0 1.823-2.098-3.482-.626z"/><path d="m-25.468-6.557-1.095 2.789 2.922-.183zm79.993 24.741-3.482-.626 1.193 2.174zm0 0-2.289 1.548 1.835 1.893zm2.891-.524-2.891.524 1.966 2.654z"/><path d="m54.525 18.184-1.659-2.725-1.823 2.099zm-.564-5.513 2.741-.263-1.337-2.664zM52.356 10.182l1.605 2.489 1.404-2.927z"/><path d="m51.039 12.854 2.922-.183-1.605-2.489zm1.827 2.605 1.095-2.788-2.922.183zM44.874 1.907l1.401 2.715 1.506-2.648zm0 0 1.608-2.632-2.988-.011z"/><path d="m44.874 1.907-1.513 2.622 2.914.093zm1.608-2.632-1.608 2.632 2.907.067z"/><path d="m44.874 1.907-2.961-.034 1.448 2.656z"/><path d="m41.913 1.873 2.961.034-1.38-2.643zm7.198 2.877 2.774.154-1.245-2.799z"/><path d="m49.111 4.75 1.529-2.645-2.859-.131z"/><path d="m46.275 4.622 2.836.128-1.33-2.776z"/><path d="m47.856 7.38 1.255-2.63-2.836-.128zm2.911.15-1.656-2.78-1.255 2.63z"/><path d="m49.111 4.75 1.656 2.78 1.118-2.626zm-14.35 23.149-2.378-2.092-.324 2.97zm-2.378-2.092-1.989-2.503-.827 2.913zm-.324 2.97.324-2.97-2.816.41zm.324-2.97 2.378 2.092.507-2.847z"/><path d="m33.16 22.855-.777 2.952 2.885-.755z"/><path d="m32.383 25.807.777-2.952-2.766.449zm5.922-1.478-2.326-2.04-.711 2.763zm2.22 1.697-2.22-1.697-.734 2.657z"/><path d="m38.305 24.329-3.037.723 2.303 1.934zm0 0 .488-2.581-2.814.541zm2.992-1.445-2.992 1.445 2.22 1.697zm-18.258 2.981-1.578-2.63-1.321 2.729z"/><path d="m20.14 25.964 1.321-2.729-2.951.016zm4.309-2.797-2.988.068 1.578 2.63zm5.552-5.413 2.873-.282-1.481-2.529zm2.873-.282-2.873.282 1.529 2.599zM30.001 17.754l-1.278 2.847 2.807-.248zm.393 5.55-2.777.105 1.95 2.808z"/><path d="m29.567 26.217-1.95-2.808-1.541 2.197z"/><path d="m27.617 23.409-3.168-.242 1.627 2.439z"/><path d="m24.449 23.167 3.168.242-1.752-2.741zm3.168.242 1.106-2.808-2.858.067z"/><path d="m28.723 20.601-1.106 2.808 2.777-.105zm-8.985-5.378 2.943.027-1.53-2.694zm5.855.005-2.912.022 1.562 2.7z"/><path d="m24.073 12.548-1.392 2.702 2.912-.022z"/><path d="m22.681 15.25 1.392-2.702-2.922.008zM1.954 4.404 3.445 7.06l1.453-2.666z"/><path d="M3.403 1.725 1.954 4.404l2.944-.01zm.042 5.335L1.954 4.404.484 7.06z"/><path d="m1.954 4.404-2.961.024L.484 7.06zm0 0L.464 1.761l-1.471 2.667z"/><path d="m.464 1.761 1.49 2.643 1.449-2.679zm-2.95 20.999 1.505-2.575-2.995-.091z"/><path d="m-5.46 22.676 2.974.084-1.49-2.666zm2.974.084 2.99.105-1.485-2.68zm-1.504 2.605 1.504-2.605-2.974-.084zm16.427-2.264-1.469 2.666 2.953-.018zm2.992-.006-2.992.006 1.484 2.648zm-1.512-2.633-1.48 2.639 2.992-.006z"/><path d="m10.94 20.434 1.497 2.667 1.48-2.639z"/><path d="m9.468 23.073 2.969.028-1.497-2.667zm2.969.028-2.969-.028 1.5 2.694zM1.964 25.562.361 28.089l3.039.188z"/><path d="m4.916 25.607-2.952-.045L3.4 28.277z"/><path d="m1.964 25.562 1.507-2.63-2.967-.067z"/><path d="m3.471 22.932-1.507 2.63 2.952.045zM48.185-3.334 46.482-.725l2.938.068zm.297-5.035-1.994-2.57-1.215 2.572z"/><path d="m46.488-10.939 1.994 2.57.813-2.6z"/><path d="m48.482-8.369 3.279.009-2.466-2.609z"/><path d="m48.482-8.369 1.484 2.484 1.795-2.475zm5.655 5.611 1.952-2.168-3.03-.729zm0 0 2.907.771-.955-2.939zM1.805-6.325l-2.896.097L.411-3.587z"/><path d="m-1.091-6.228 2.896-.097L.263-9.009zm-1.511-2.623 1.511 2.623L.263-9.009zM-3.995-6.04l2.904-.188-1.511-2.623zM-13 4.42l-1.533-2.644-1.429 2.597z"/><path d="m-15.962 4.373 1.429-2.597-2.974-.093zm1.429-2.597-1.553-2.66-1.421 2.567zm6.021.084 1.515 2.595 1.502-2.604z"/><path d="M-6.997 4.455-8.512 1.86l-1.495 2.584zM-13.15-10.84l1.529 2.542 1.712-2.278zm-1.557 2.441 3.086.101-1.529-2.542zm-1.559 2.276-1.462-2.896-1.429 2.682z"/><path d="m-16.266-6.123 1.559-2.276-3.021-.62zm31.171-13.459 3.197.309-1.364-2.433z"/><path d="m18.102-19.273 1.61-2.733-2.974.3zm2.97-.092-2.97.092 1.404 2.575z"/><path d="m18.102-19.273 2.97-.092-1.36-2.641zm-.141 10.418-2.966-.04 1.509 2.679zm-2.966-.04 2.966.04-1.502-2.677zM13.545-6.265l1.45-2.63-2.978-.063zm1.45-2.63-1.45 2.63 2.959.049zm-2.876 5.288 1.509 2.695 1.432-2.66z"/><path d="m12.119-3.607 1.426-2.658L10.6-6.3z"/><path d="m9.183-3.632 2.936.025L10.6-6.3zm4.362-2.633-1.426 2.658 2.941.035zM12.119-3.607 10.694-.939l2.934.027z"/><path d="m10.694-.939 1.425-2.668-2.936-.025zm.139 10.721 2.937.032-1.502-2.696zM15.2 7.147l-1.43 2.667 2.934.028zm-1.43 2.667 1.509 2.695 1.425-2.667z"/><path d="m13.77 9.814 1.43-2.667-2.932-.029zm-1.431 2.66 1.431-2.66-2.937-.032zM13.77 9.814l-1.431 2.66 2.94.035zM32.894-8.543l-1.519-2.649-1.491 2.572zm-1.519-2.649 1.484-2.582-2.974-.083zm1.484-2.582-1.484 2.582 2.996.088z"/><path d="m31.375-11.192 1.519 2.649 1.477-2.561zm0 0-2.996-.091 1.505 2.663z"/><path d="m28.379-11.283 2.996.091-1.49-2.665zm-1.476 7.856 2.992.035-1.503-2.64z"/><path d="m26.903-3.427 1.489-2.605-2.988-.048zm0 0L28.4-.786l1.495-2.606z"/><path d="m23.925-3.463 2.978.036-1.499-2.653zm12.013.144 1.527-2.548-3.047-.052zm1.527-2.548-1.527 2.548 3.054.019z"/><path d="m40.549-5.834-3.084-.033L38.992-3.3zm-3.084-.033 3.084.033-1.572-2.552zm-1.544-2.598 1.544 2.598 1.512-2.519z"/><path d="m37.465-5.867-1.544-2.598-1.503 2.546zm-66.768 2.361.869-2.846-3.106.499z"/><path d="m-31.54-5.853 3.106-.499-1.583-2.406z"/><path d="m-28.434-6.352 1.307-2.929-2.89.523zm0 0-.869 2.846 2.74-.262z"/><path d="m-25.468-6.557-2.966.205 1.871 2.584z"/><path d="m-28.434-6.352 2.966-.205-1.659-2.724zm84.267 21.606-1.308 2.93 2.891-.524zm0 0 3.106-.499-2.237-2.347z"/><path d="m55.833 15.254 1.583 2.406 1.523-2.905zm-1.308 2.93 1.308-2.93-2.967.205zm1.308-2.93-1.872-2.583-1.095 2.788zM53.961 12.671l1.872 2.583.869-2.846zm-35.629 5.221 2.948.011-1.542-2.68z"/><path d="m21.28 17.903 1.401-2.653-2.943-.027zm1.401-2.653-1.401 2.653 2.963.047zm2.912-.022 2.896-.098-1.501-2.64zm2.896-.098 2.904-.187-1.483-2.573z"/><path d="m26.988 12.49 1.501 2.64 1.421-2.76zm1.501 2.64 1.512 2.624 1.392-2.811zM.361 28.089l-1.396-2.659-1.535 2.636zm-2.847-5.329 1.451 2.67 1.539-2.565zM-1.035 25.43l-2.955-.065 1.42 2.701z"/><path d="m-1.035 25.43-1.451-2.67-1.504 2.605zm2.999.132-2.999-.132 1.396 2.659zm-2.999-.132 2.999.132-1.46-2.697zM42.068-3.312l3.068-.017-1.456-2.53z"/><path d="m46.482-.725-1.346-2.604-1.642 2.593z"/><path d="m45.136-3.329-3.068.017 1.426 2.576zm3.049-.005-3.049.005 1.346 2.604zm4.137 2.903-1.135-2.786-1.767 2.56zm-4.137-2.903 3.002.117-1.221-2.668z"/><path d="m49.966-5.885 1.221 2.668 1.872-2.438z"/><path d="m51.187-3.217-3.002-.117L49.42-.657zm2.95.459-2.95-.459 1.135 2.786z"/><path d="m51.187-3.217 2.95.459-1.078-2.897zm5.857 1.23L55.243.199l2.784.841z"/><path d="m55.243.199 1.219 3.049 1.565-2.208z"/><path d="m55.243.199-1.737 2.166 2.956.883z"/><path d="M53.506 2.365 55.243.199l-2.921-.63zm.631-5.123L55.243.199l1.801-2.186z"/><path d="m55.243.199-1.106-2.957-1.815 2.327zm-65.284-.923 1.517-2.555-3.066-.013zm8.95-5.504-1.42 2.76 2.922-.119z"/><path d="m-2.511-3.468 1.486 2.603L.411-3.587z"/><path d="m-1.025-.865-1.486-2.603-1.476 2.697zm-1.486-2.603 1.42-2.76-2.904.188z"/><path d="m-5.474-3.323 2.963-.145-1.484-2.572zm2.963-.145-2.963.145 1.487 2.552zM-13.086-.792l3.045.068-1.549-2.568z"/><path d="m-14.533 1.776 1.447-2.568-3-.092zm7.558-12.802-1.459 2.777 2.959-.321zm-1.459 2.777 1.459-2.777-2.934.45zm-3.187-.049 3.187.049-1.475-2.327zm-6.025 4.722-2.943-.159 1.534 2.716zm-2.943-.159 2.943.159-1.511-2.761zm4.503 2.851-1.56-2.692-1.409 2.557z"/><path d="m-17.646-3.576 1.38-2.547-2.891-.214zm4.488-2.266 1.537-2.456-3.086-.101z"/><path d="m-16.266-6.123 3.108.281-1.549-2.557zm34.197-8.048-1.501-2.694-1.468 2.666zm-1.501-2.694-2.953.019 1.485 2.647z"/><path d="m16.43-16.865-1.525-2.717-1.428 2.736zm0 0 1.501 2.694 1.575-2.527z"/><path d="m18.102-19.273-1.672 2.408 3.076.167z"/><path d="m16.43-16.865 1.672-2.408-3.197-.309zm-2.949 5.305 2.978.028-1.497-2.667zm-3.013-.09 3.013.09-1.512-2.632z"/><path d="m11.969-14.192 1.512 2.632 1.481-2.639zm1.512 2.632-3.013-.09 1.549 2.692zm1.514 2.665-1.514-2.665-1.464 2.602zm-1.514-2.665 1.514 2.665 1.464-2.637zM25.421-.804l-2.962-.019 1.494 2.666z"/><path d="m25.421-.804-1.468 2.647 2.961-.001z"/><path d="m28.4-.786-2.979-.018 1.493 2.646zm-2.979-.018-1.496-2.659-1.466 2.64z"/><path d="m25.421-.804 1.482-2.623-2.978-.036zm1.482-2.623L25.421-.804l2.979.018zm-4.054 23.988 1.6 2.606 1.416-2.499zm0 0 3.016.107-1.622-2.718zm0 0-1.388 2.674 2.988-.068zm-1.569-2.658 1.569 2.658 1.394-2.611zm5.856.009-1.543-2.684-1.35 2.722zM28.723 20.601l-1.587-2.689-1.271 2.756z"/><path d="m25.865 20.668 1.271-2.756-2.893.038zm4.136-2.914-2.865.158 1.587 2.689zm-1.512-2.624-1.353 2.782 2.865-.158zm-1.353 2.782 1.353-2.782-2.896.098zM46.815-5.883l1.37 2.549 1.781-2.551zm0 0 1.667-2.486-3.209.002z"/><path d="m46.815-5.883-1.542-2.484-1.593 2.508zm1.667-2.486-1.667 2.486 3.151-.002z"/><path d="m46.815-5.883-1.679 2.554 3.049-.005z"/><path d="m45.136-3.329 1.679-2.554-3.135.024zM-7.004-.726-8.512 1.86l3.017-.009zm1.53-2.597-1.53 2.597 3.017-.045zm-1.53 2.597 1.509 2.577 1.508-2.622zM-8.512 1.86l1.508-2.586-3.037.002z"/><path d="m-8.524-3.279 1.52 2.553 1.53-2.597z"/><path d="m-7.004-.726-1.52-2.553-1.517 2.555zm-4.53 2.555-2.999-.053L-13 4.42zm0 0L-13 4.42l2.993.024zm0 0 3.022.031-1.529-2.584z"/><path d="m-8.512 1.86-3.022-.031 1.527 2.615zm-3.022-.031-1.552-2.621-1.447 2.568zM-13.086-.792l1.552 2.621 1.493-2.553zm6.13-5.032 1.482 2.501 1.479-2.717zm0 0-1.568 2.545 3.05-.044z"/><path d="m-6.956-5.824 2.961-.216-1.48-2.53z"/><path d="m-8.434-8.249 1.478 2.425 1.481-2.746zm-6.233 4.819-2.979-.146 1.56 2.692zm0 0 1.581 2.638 1.496-2.5zm1.581 2.638-1.581-2.638-1.419 2.546z"/><path d="m-17.646-3.576 2.979.146-1.599-2.693zm2.979.146 1.509-2.412-3.108-.281zm1.509-2.412-1.509 2.412 3.077.138zm33.043 26.415-1.553-2.681-1.401 2.661zm0 0-2.954-.02 1.579 2.698z"/><path d="m21.461 23.235-1.576-2.662-1.375 2.678zm-1.576-2.662 1.395-2.67-2.948-.011zm0 0 2.964-.012-1.569-2.658zm2.964-.012-2.964.012 1.576 2.662zM-10.062-5.801l1.628-2.448-3.187-.049zm0 0-3.096-.041 1.568 2.55zm1.538 2.522-1.538-2.522-1.528 2.509z"/><path d="m-13.158-5.842 3.096.041-1.559-2.497zm3.096.041 3.106-.023-1.478-2.425z"/><path d="m-6.956-5.824-3.106.023 1.538 2.522z"/></svg>