<svg xmlns="http://www.w3.org/2000/svg" viewBox="-108.902 0 300 244.512"><style>path{fill:none;stroke:#000;stroke-width:1;stroke-linejoin:bevel}</style><path d="M-50.644 232.71l-7.224 4.479 9.872 4.888z"/><path d="M-47.996 242.077l-9.872-4.888 2.38 7.323zM130.191 2.435l9.872 4.888L137.684 0zM-80.698 166.925l2.964 9.122 4.74-6.923zM140.063 7.323l-9.872-4.888 2.649 9.366zM-43.544 129.991l-8.883-.103 4.141 7.928zM-52.427 129.888l-4.823 7.895 8.964.033zM-91.91 107.466l-8.661-1.704 2.833 8.72zM-47.483 60.164l5.788 6.792 2.316-9.425zM-32.527 237.051l-9.286-5.098 1.35 7.676zM-54.3 223.612l-8.9-2.833 2.781 8.559z"/><path d="M-77.734 176.047l8.419 1.566-3.679-8.489zM191.098 164.391l-2.695-8.295-7.391 3.477z"/><path d="M191.098 164.391l-10.086-4.818 3.162 7.067zM11.982 215.232l-2.639 8.215 8.497-2.761zM19.412 162.03l4.396-7.895-8.893-.133zM36.082 50.485l4.034-8.783-8.201 1.197zM46.728 37.008l-6.612 4.694 10.099 2.081zM63.437 34.027l.919-10.201-7.412 2.408zM63.437 34.027l6.777-4.747-5.858-5.454zM-47.887 122.022l-4.633-8.069-4.109 7.79zM-47.887 122.022l-4.54 7.866 8.883.103z"/><path d="M-52.427 129.888l4.54-7.866-8.742-.279zM-81.805 120.315l-5.386 5.549 8.869 2.649zM-88.659 115.613l-3.251-8.147-5.828 7.016zM-88.659 115.613l6.854 4.702 2.768-7.407z"/><path d="M-81.805 120.315l8.345.582-5.577-7.989zM-73.46 120.897l-8.345-.582 3.483 8.198zM-34.99 208.382l8.661.065-3.717-8.077zM-26.329 208.447l4.983-8.021-8.7-.056zM-22.7 216.398l2.757 8.343 5.72-8.728zM-50.644 232.71l-9.775-3.372 2.551 7.851zM-41.813 231.953l-6.183 10.124 7.533-2.448z"/><path d="M-41.813 231.953l-8.831.757 2.648 9.367z"/><path d="M-50.644 232.71l8.831-.757-4.074-7.667z"/><path d="M-54.3 223.612l3.656 9.098 4.757-8.424z"/><path d="M-50.644 232.71l-3.656-9.098-6.119 5.726zM-49.002 215.915l3.115 8.371 5.389-8.378z"/><path d="M-49.002 215.915l-5.298 7.697 8.413.674zM-76.982 152.573l9.281.69-3.664-8.003zM-74.895 184.783l5.58-7.17-8.419-1.566zM-61.381 176.757l-4.308-8.242-3.626 9.098zM-69.315 177.613l3.626-9.098-7.305.609zM-48.11 168.068l4.052-7.479-9.566.12zM-44.058 160.589l-4.052 7.479 9.109.229zM153.898 176.478l8.314-2.702-5.504-5.677zM163.575 163.453l-1.363 10.323 7.261-2.359zM50.76 185.902l9.661.892-4.89-8.139zM82.284 192.271l6.417-4.718-10.474-1.833zM89.686 114.428l-8.944.002 4.473 7.895zM-88.936 141.569l5.401-6.557-8.352-2.523zM-87.191 125.864l3.656 9.148 5.213-6.499z"/><path d="M-83.535 135.012l-3.656-9.148-4.696 6.625zM1.487 145.89l4.445-7.869-8.937-.055zM5.932 138.021l-4.445 7.869 8.933.107zM46.114 194.027l4.646-8.125-8.996.246zM46.114 194.027l-4.034 8.783 8.201-1.198zM42.08 202.81l6.746 7.808 1.455-9.006zM48.826 210.618l7.87-2.557-6.415-6.449zM-3.71 201.24l3.73 8.051 5.022-8.305zM19.412 162.03l8.901.145-4.505-8.04zM23.503 122.109l4.494 8.066 4.305-8.001zM23.808 154.135l-4.5-8.036-4.393 7.903z"/><path d="M19.308 146.099l-8.888-.102 4.495 8.005zM28.168 146.204l-8.86-.105 4.5 8.036zM93.865 21.401l3.588-8.329-8.864 2.88zM93.865 21.401l-7.001 4.845 9.554 2.253zM13.648 73.926l4.709 7.973 4.184-8.01z"/><path d="M17.814 65.906l-4.166 8.02 8.893-.037zM25.5 36.451l-2.133 8.184 8.548-1.736z"/><path d="M23.367 44.635l2.133-8.184-8.341 2.71zM46.728 37.008l2.315-8.207-8.357 2.716zM33.369 33.894L25.5 36.451l6.415 6.448zM40.116 41.702l-6.747-7.808-1.454 9.005z"/><path d="M40.116 41.702l6.612-4.694-6.042-5.491z"/><path d="M40.116 41.702l.57-10.185-7.317 2.377zM78.718 27.614l-5.865-6.549-2.639 8.215zM72.853 21.065l-8.497 2.761 5.858 5.454z"/><path d="M73.371 36.15l5.347-8.536-8.504 1.666z"/><path d="M63.437 34.027l9.934 2.123-3.157-6.87zM58.528 106.359l-4.33 7.978 8.82.064zM73.371 36.15l-5.68 6.404 9.462.971z"/><path d="M67.691 42.554l5.68-6.404-9.934-2.123zM86.864 26.246l3.715 8.738 5.839-6.485zM134.367 68.792l9.209-1.037-4.999-6.538zM135.819 83.803l-9.566.119 4.786 7.404zM-71.703 68.034l-8.314 2.701 5.505 5.677zM-47.483 60.164l-2.773 8.156 8.561-1.364zM-50.256 68.32l2.773-8.156-8.673 2.818zM-57.164 105.845l-4.603-8.148-4.298 7.498zM-52.52 113.953l-8.851-.485 4.742 8.275z"/><path d="M-61.371 113.468l-3.767 7.891 8.509.384zM-57.164 105.845l-4.207 7.623 8.851.485z"/><path d="M-61.371 113.468l4.207-7.623-8.901-.65zM-61.148 129.687l8.721.201-4.202-8.145zM-65.138 121.359l3.99 8.328 4.519-7.944z"/><path d="M-52.427 129.888l-8.721-.201 3.898 8.096zM-61.148 129.687l-4.915 7.892 8.813.204zM-74.872 105.064l-9.026 1.314 4.861 6.53zM-88.659 115.613l4.761-9.235-8.012 1.088zM-83.898 106.378l-4.761 9.235 9.622-2.705zM-88.659 115.613l1.468 10.251 5.386-5.549z"/><path d="M-88.659 115.613l-6.307 7.4 7.775 2.851z"/><path d="M-94.966 123.013l6.307-7.4-9.079-1.131zM-87.191 125.864l-7.775-2.851 3.079 9.476zM-61.766 81.897l8.582-.053-4.198-8.718z"/><path d="M-53.184 81.844l-8.582.053 4.294 7.994zM-32.72 62.623l2.202-7.971-8.861 2.879zM-11.67 223.11l7.001-4.845-9.554-2.252z"/><path d="M-4.669 218.265l-1.724 10.294 7.68-2.495zM-19.943 224.741l8.273-1.631-2.553-7.097z"/><path d="M-4.669 218.265l-7.001 4.845 5.277 5.449zM-15.257 231.44l3.587-8.33-8.273 1.631zM-11.67 223.11l-3.587 8.33 8.864-2.881zM-22.7 216.398l-4.86 8.276 7.617.067zM-21.346 200.426l3.779 7.842 5.239-7.186z"/><path d="M-17.567 208.268l-3.779-7.842-4.983 8.021zM-22.7 216.398l5.133-8.13-8.762.179zM-17.567 208.268l-5.133 8.13 8.477-.385zM-25.325 192.402l-8.653-.227 3.932 8.195zM-21.346 200.426l-3.979-8.024-4.721 7.968zM-38.629 200.141l3.639 8.241 4.944-8.012z"/><path d="M-33.978 192.175l-4.651 7.966 8.583.229zM-83.287 158.955l6.305-6.382-9.089-2.185zM-73.088 160.689l-7.61 6.236 7.704 2.199zM-65.962 185.9l-6.157 7.427 7.668 2.907zM-65.962 185.9l4.581-9.143-7.934.856z"/><path d="M-74.895 184.783l8.933 1.117-3.353-8.287zM-65.962 185.9l-8.933-1.117 2.776 8.544zM-57.27 168.425l9.16-.357-5.514-7.359zM-57.27 168.425l-8.419.09 4.308 8.242zM-62.361 145.61l-3.702-8.031-5.302 7.681z"/><path d="M-66.063 137.579l3.702 8.031 5.111-7.827z"/><path d="M-67.701 153.263l5.34-7.653-9.004-.35z"/><path d="M-58.249 153.259l-4.112-7.649-5.34 7.653zM-48.844 153.185l-9.405.074 4.625 7.45zM-44.058 160.589l-4.786-7.404-4.78 7.524zM-7.491 130.083l-4.504 7.827 8.99.056zM-43.544 129.991l4.317 7.825 4.664-7.785z"/><path d="M-39.227 137.816l-4.317-7.825-4.742 7.825zM-44.008 145.546l4.781-7.73h-9.059zM-11.995 137.91l4.504 7.874 4.486-7.818zM-2.98 153.704l-4.511-7.92-4.498 7.757zM1.487 145.89l-8.978-.106 4.511 7.92z"/><path d="M-7.491 145.784l8.978.106-4.492-7.924zM147.997 169.987l5.901 6.491 2.81-8.379zM181.012 159.573l-4.074 9.419 7.236-2.352zM129.878 169.133l2.574 7.059 7.126-4.807zM147.997 169.987l-4.035-7.373-4.384 8.771zM139.36 138.667l4.602 8.148 4.298-7.498zM50.76 185.902l-4.472-7.716-4.524 7.962z"/><path d="M50.792 170.56l-4.504 7.626 9.243.469zM46.288 178.186l4.472 7.716 4.771-7.247zM88.749 197.646l-6.465-5.375-1.978 8.118zM85.271 138.203l-4.308 8.168 8.767-.357zM67.502 122.428l4.357-7.998-8.841-.029zM89.688 130.162l-8.883.164 4.466 7.877z"/><path d="M80.805 130.326l8.883-.164-4.473-7.837zM94.179 153.73l4.442 7.589 4.442-8.237zM103.119 168.687l-4.498-7.368-4.03 8.643zM117.058 160.502l-5.135 6.834 9.721.794zM94.179 153.73l4.439-8.152-8.888.436zM98.618 145.578l-4.439 8.152 8.884-.648zM-80.214 143.884l-8.722-2.315 2.865 8.819zM-80.214 143.884l3.232 8.689 5.617-7.313zM-76.982 152.573l-3.232-8.689-5.857 6.504z"/><path d="M-80.214 143.884l-3.321-8.872-5.401 6.557zM23.503 122.109l-4.496-8.056-4.313 8.031zM27.889 193.428l-4.211-7.726-4.698 8.004zM14.748 185.723l-4.548 8.011 8.78-.028z"/><path d="M23.678 185.702l-8.93.021 4.232 7.983z"/><path d="M14.748 185.723l8.93-.021-4.337-7.891zM35.467 207.504l-2.315 8.206 8.357-2.715z"/><path d="M33.152 215.71l2.315-8.206-8.521 1.708zM42.08 202.81l-.571 10.185 7.317-2.377z"/><path d="M42.08 202.81l-6.613 4.694 6.042 5.491zM1.287 226.064l2.191-9.166-8.147 1.367zM11.982 215.232l-8.504 1.666 5.865 6.549z"/><path d="M3.478 216.898l-2.191 9.166 8.056-2.617zM3.478 216.898L.02 209.291l-4.689 8.974zM10.2 193.734l4.304 8.223 4.476-8.251z"/><path d="M14.504 201.957l-4.304-8.223-5.158 7.252zM17.84 220.686l7.411-2.409-6.493-7.792zM25.251 218.277l7.901-2.567-6.206-6.498z"/><path d="M17.84 220.686l.918-10.201-6.776 4.747zM18.758 210.485l6.493 7.792 1.695-9.065zM10.42 145.997l-4.438 7.854 8.933.151zM5.982 153.851l-4.495-7.961-4.467 7.814z"/><path d="M1.487 145.89l4.495 7.961 4.438-7.854zM1.522 161.669l4.46-7.818-8.962-.147zM32.682 154.256l-4.514-8.052-4.36 7.931z"/><path d="M28.313 162.175l4.369-7.919-8.874-.121z"/><path d="M23.908 170.071l4.405-7.896-8.901-.145zM19.178 130.11l4.325-8.001-8.809-.025zM19.178 130.11l8.819.065-4.494-8.066zM102.138 19.771l-8.273 1.63 2.553 7.098zM93.865 21.401l8.273-1.63-4.685-6.699zM140.063 7.323l-7.223 4.478 9.774 3.372zM124.008 12.558l6.183-10.123-7.533 2.447zM-.089 52.241l1.978-8.119-8.443 2.744zM14.152 89.859l8.828.08-4.623-8.04zM21.775 57.718l-8.696.297 4.735 7.891z"/><path d="M13.079 58.015l8.696-.297-4.929-8.408zM40.431 58.364l-4.349-7.879-4.647 8.124zM40.431 58.364l-4.524 7.961 8.978-.02z"/><path d="M35.907 66.325l4.524-7.961-8.996.245z"/><path d="M27.082 51.341l-5.307 6.377 9.66.891zM36.082 50.485l-9 .856 4.353 7.268z"/><path d="M27.082 51.341l9-.856-4.167-7.586zM21.775 57.718l5.307-6.377-10.236-2.031z"/><path d="M23.367 44.635l3.715 6.706 4.833-8.442z"/><path d="M27.082 51.341l-3.715-6.706-6.521 4.675z"/><path d="M17.159 39.161l-.313 10.149 6.521-4.675z"/><path d="M17.159 39.161L9.837 41.54l7.009 7.77zM55.25 35.3l-8.522 1.708 3.487 6.775zM55.25 35.3l8.187-1.273-6.493-7.793z"/><path d="M55.25 35.3l-6.207-6.499-2.315 8.207z"/><path d="M49.043 28.801L55.25 35.3l1.694-9.066zM86.864 26.246l-5.955-7.799-2.191 9.167zM86.864 26.246l7.001-4.845-5.276-5.449z"/><path d="M86.864 26.246l1.725-10.294-7.68 2.495z"/><path d="M80.909 18.447l-8.056 2.618 5.865 6.549zM22.98 89.939l4.569 8.066 4.252-8.003zM41.098 122.256l-4.503-8.088-4.293 8.006z"/><path d="M36.595 114.168l4.503 8.088 4.295-8.002zM76.304 58.925l4.379 8.09L85.3 59.32zM67.691 42.554l4.305 8.223 5.157-7.252zM76.304 58.925l-4.308-8.148-4.548 8.011zM76.213 90.661l8.963.146-4.502-7.965z"/><path d="M82.175 35.22l-8.804.93 3.782 7.375zM82.175 35.22l-5.022 8.305 8.752-.254zM82.175 35.22l4.689-8.974-8.146 1.368z"/><path d="M73.371 36.15l8.804-.93-3.457-7.606zM82.175 35.22l8.404-.236-3.715-8.738zM90.579 34.984l-8.404.236 3.73 8.051zM103.541 44.085l-4.885 7.57 8.865.455zM120.824 44.371l3.856 8.324 4.716-7.829zM141.379 53.844l-8.314-.63 5.512 8.003zM124.68 52.695l8.385.519-3.669-8.348zM103.234 106.662l-4.515-7.821-4.528 7.761zM139.465 76.087l4.111-8.332-9.209 1.037z"/><path d="M143.576 67.755l-4.111 8.332 8.42-.09zM80.683 67.015l8.971.315-4.354-8.01zM98.656 51.655l4.358 8.156 4.507-7.701zM170.854 128.899l-1.468-10.251-5.386 5.549z"/><path d="M169.386 118.648l7.775 2.851-3.079-9.477zM-65.802 74.524l-5.901-6.49-2.809 8.378zM-65.802 74.524l4.036 7.373 4.384-8.771zM-87.278 73.095l-7.465 2.425 4.692 7.108zM-80.017 70.735l-7.261 2.36 5.898 7.964zM-100.571 105.762l4.746-6.41-7.79-2.959zM-94.621 91.344l-8.994 5.049 7.79 2.959zM-95.825 99.352l-4.746 6.41 8.661 1.704zM-94.621 91.344l-4.195-6.405-7.391 3.476zM-98.816 84.939l-3.162-7.068-6.924 2.25z"/><path d="M-98.816 84.939l-10.086-4.818 2.695 8.294zM-98.816 84.939l4.073-9.419-7.235 2.351zM-94.743 75.52l-4.073 9.419 8.765-2.311zM-98.816 84.939l4.195 6.405 4.57-8.716z"/><path d="M-94.621 91.344l-11.586-2.929 2.592 7.978zM-61.766 81.897l-4.696 8.014 8.99-.02zM-66.462 89.911l4.695 7.786 4.295-7.806zM-70.105 113.019l-3.355 7.878 8.322.462zM-70.105 113.019l-4.767-7.955-4.165 7.844zM-74.872 105.064l4.767 7.955 4.04-7.824z"/><path d="M-73.46 120.897l3.355-7.878-8.932-.111z"/><path d="M-61.371 113.468l-8.734-.449 4.967 8.34z"/><path d="M-70.105 113.019l8.734.449-4.694-8.273zM-16.484 114.454l8.992-.105-4.469-7.761zM-7.492 114.349l-8.992.105 4.507 7.79zM-39.001 122.163l-4.543 7.828 8.981.04z"/><path d="M-39.001 122.163l-8.886-.141 4.343 7.969zM-30.022 122.235l-8.979-.072 4.438 7.868zM-69.723 129.293l-3.737-8.396-4.862 7.616z"/><path d="M-73.46 120.897l3.737 8.396 4.585-7.934zM-61.148 129.687l-8.575-.394 3.66 8.286zM-69.723 129.293l8.575.394-3.99-8.328zM-32.858 230.192l-8.955 1.761 9.286 5.098zM-31.39 216.532l8.69-.134-3.629-7.951zM-31.39 216.532l-3.6-8.15-5.508 7.526z"/><path d="M-34.99 208.382l3.6 8.15 5.061-8.085zM-31.39 216.532l3.83 8.142 4.86-8.276zM-4.669 218.265l-3.714-8.737-5.84 6.485z"/><path d="M.02 209.291l-8.403.237 3.714 8.737z"/><path d="M-8.383 209.528l4.673-8.288-8.618-.158zM-8.383 209.528l8.403-.237-3.73-8.051zM-17.567 208.268l9.184 1.26-3.945-8.446z"/><path d="M-8.383 209.528l-9.184-1.26 3.344 7.745zM-34.99 208.382l-8.747-.492 3.239 8.018z"/><path d="M-43.737 207.89l-5.265 8.025 8.504-.007zM-38.629 200.141l-5.108 7.749 8.747.492zM-43.737 207.89l5.108-7.749-8.572-.496zM-49.002 215.915l-8.476-1.386 3.178 9.083z"/><path d="M-54.3 223.612l-3.178-9.083-5.722 6.25zM-65.689 168.515l-7.399-7.826.094 8.435z"/><path d="M-76.982 152.573l3.894 8.116 5.387-7.426zM-83.287 158.955l10.199 1.734-3.894-8.116z"/><path d="M-73.088 160.689l-10.199-1.734 2.589 7.97zM-53.212 145.596l9.204-.05-4.278-7.73z"/><path d="M-62.361 145.61l9.149-.014-4.038-7.813zM-57.25 137.783l4.038 7.813 4.926-7.78z"/><path d="M-53.212 145.596l-9.149.014 4.112 7.649zM-48.844 153.185l-4.368-7.589-5.037 7.663z"/><path d="M-53.212 145.596l4.368 7.589 4.836-7.639zM5.932 138.021l-4.479-7.939-4.458 7.884z"/><path d="M1.453 130.082l-8.944.001 4.486 7.883zM-25.528 130.05l-4.494-7.815-4.541 7.796zM-34.254 176.254l4.317-7.632-9.064-.325zM-30.2 153.209l9.141.157-4.558-7.8zM-48.844 153.185l9.393-.073-4.557-7.566zM-39.451 153.112l-9.393.073 4.786 7.404zM139.578 171.385l-1.227 10.144 7.557-2.455zM139.578 171.385l-7.126 4.807 5.899 5.337zM147.997 169.987l-2.089 9.087 7.99-2.596z"/><path d="M145.908 179.074l2.089-9.087-8.419 1.398zM126.315 160.806l-9.257-.304 4.586 7.628z"/><path d="M129.878 169.133l-3.563-8.327-4.671 7.324zM161.232 131.603l-4.165 7.844 9.027-1.313zM176.816 153.167l11.587 2.929-2.593-7.978zM153.129 161.575l-5.132 8.412 8.711-1.888zM153.129 161.575l-9.167 1.039 4.035 7.373zM41.752 170.288l9.04.272-4.649-8.077zM41.752 170.288l4.536 7.898 4.504-7.626zM65.349 195.202l3.767-8.706-8.695.298zM132.452 176.192l-2.773 8.155 8.672-2.818zM88.749 197.646l-.048-10.093-6.417 4.718zM88.749 197.646l7.427-2.413-7.475-7.68zM76.471 138.416l4.492 7.955 4.308-8.168zM80.805 130.326l-4.334 8.09 8.8-.213zM71.859 114.43l4.475 7.967 4.408-7.967zM80.742 114.43l-4.408 7.967 8.881-.072z"/><path d="M76.334 122.397l-4.475-7.967-4.357 7.998zM76.334 122.397l4.471 7.929 4.41-8.001zM107.496 160.357l4.885-7.343-9.318.068z"/><path d="M98.621 161.319l8.875-.962-4.433-7.275zM107.496 160.357l-8.875.962 4.498 7.368zM112.381 153.014l-4.885 7.343 9.562.145z"/><path d="M107.496 160.357l4.427 6.979 5.135-6.834z"/><path d="M111.923 167.336l-4.427-6.979-4.377 8.33zM112.318 137.781l-4.55 7.664 9.196.042zM112.381 153.014l-4.613-7.569-4.705 7.637zM107.768 145.445l4.613 7.569 4.583-7.527z"/><path d="M107.768 145.445l4.55-7.664-9.111.006z"/><path d="M98.618 145.578l9.15-.133-4.561-7.658zM107.768 145.445l-9.15.133 4.445 7.504zM89.688 130.162l4.469 7.761 4.522-7.866zM94.157 137.923l-8.886.28 4.459 7.811z"/><path d="M94.157 137.923l9.05-.136-4.528-7.73zM94.157 137.923l-4.469-7.761-4.417 8.041zM98.618 145.578l-4.461-7.655-4.427 8.091z"/><path d="M94.157 137.923l4.461 7.655 4.589-7.791zM19.007 114.053l-8.797.025 4.484 8.006zM36.595 114.168l-8.796-.075 4.503 8.081z"/><path d="M27.799 114.093l-4.296 8.016 8.799.065zM27.799 114.093l-8.792-.04 4.496 8.056zM19.007 114.053l8.792.04-4.515-8.077zM-3.076 106.308l8.801-.213-4.493-7.954zM-7.492 114.349l4.416-8.041-8.885.28zM-3.71 201.24l-3.999-8.139-4.619 7.981zM-20.818 184.7l-8.899-.393 4.392 8.095z"/><path d="M-25.325 192.402l-4.392-8.095-4.261 7.868zM27.889 193.428l5.016-7.224-9.227-.502zM31.98 200.728l3.487 6.776 6.613-4.694z"/><path d="M35.467 207.504l-3.487-6.776-5.034 8.484zM8.824 208.361l-5.346 8.537 8.504-1.666z"/><path d="M18.758 210.485l-9.934-2.124 3.158 6.871zM.02 209.291l8.804-.93-3.782-7.375zM3.478 216.898l5.346-8.537-8.804.93z"/><path d="M8.824 208.361l5.68-6.404-9.462-.971zM14.504 201.957l-5.68 6.404 9.934 2.124zM-2.942 169.458l8.939.213-4.475-8.002zM-16.38 176.93l4.451-7.746-8.99-.262zM10.468 161.839l8.944.191-4.497-8.028z"/><path d="M5.997 169.671l4.471-7.832-8.946-.17z"/><path d="M10.468 161.839l-4.486-7.988-4.46 7.818z"/><path d="M5.982 153.851l4.486 7.988 4.447-7.837zM41.559 154.405l4.584 8.078 4.251-7.973zM23.668 138.152l-4.36 7.947 8.86.105z"/><path d="M19.178 130.11l4.49 8.042 4.329-7.977zM94.173 122.267l-4.485 7.895 8.991-.105zM94.173 122.267l-4.487-7.839-4.471 7.897z"/><path d="M89.688 130.162l4.485-7.895-8.958.058zM103.185 122.245l-9.012.022 4.506 7.79z"/><path d="M103.207 137.787l4.523-7.759-9.051.029zM112.318 137.781l-4.588-7.753-4.523 7.759zM107.73 130.028l-4.545-7.783-4.506 7.812zM126.203 98.965l-9.228.037 4.447 7.693z"/><path d="M130.482 106.696l-4.279-7.731-4.781 7.73zM155.655 123.615l5.577 7.988 2.768-7.406zM155.283 83.822l-.093-8.434-7.305.609zM151.919 115.219l-3.66-8.287-4.916 7.892zM102.138 19.771l3.812-9.46-8.497 2.761zM105.95 10.311l9.103 4.009-.33-6.859zM124.008 12.558l-4.572 8.487 8.646-.82z"/><path d="M115.053 14.32l8.955-1.762-9.285-5.097z"/><path d="M124.008 12.558l-1.35-7.676-7.935 2.579zM119.436 21.045l4.572-8.487-8.955 1.762zM124.008 12.558l8.832-.757-2.649-9.366zM132.84 11.801l-8.832.757 4.074 7.667zM3.968 58.791l-10.474-1.833 5.851 8.424z"/><path d="M-.089 52.241l-6.417 4.717 10.474 1.833zM14.152 89.859l4.591 8.081 4.237-8.001zM18.743 97.94l8.806.065-4.569-8.066z"/><path d="M27.549 98.005l-8.806-.065 4.541 8.076zM4.601 73.606l-8.573.2 4.76 8.068z"/><path d="M-3.972 73.806l8.573-.2-5.256-8.224zM44.716 50.157l-4.6-8.455-4.034 8.783z"/><path d="M40.116 41.702l4.6 8.455 5.499-6.374zM40.431 58.364l4.285-8.207-8.634.328zM18.357 81.899l8.844.034-4.66-8.044z"/><path d="M22.98 89.939l4.221-8.006-8.844-.034zM27.201 81.933l-4.221 8.006 8.821.063zM26.664 65.856l-4.889-8.138-3.961 8.188z"/><path d="M21.775 57.718l4.889 8.138 4.771-7.247z"/><path d="M26.664 65.856l-8.85.05 4.727 7.983zM26.664 65.856l9.243.469-4.472-7.716zM8.575 50.445l-8.664 1.796 4.057 6.55zM8.575 50.445l4.504 7.57 3.767-8.705z"/><path d="M-.089 52.241l8.664-1.796-6.686-6.323zM13.079 58.015l-4.504-7.57-4.607 8.346z"/><path d="M8.575 50.445l1.262-8.905-7.948 2.582zM9.837 41.54l-1.262 8.905 8.271-1.135zM59.135 42.884l8.556-.33-4.254-8.527zM55.25 35.3l3.885 7.584 4.302-8.857z"/><path d="M59.135 42.884L55.25 35.3l-5.035 8.483zM27.997 130.175l8.806.083-4.501-8.084z"/><path d="M36.803 130.258l4.295-8.002-8.796-.082zM49.894 122.338l4.304-8.001-8.805-.083z"/><path d="M41.098 122.256l8.796.082-4.501-8.084zM67.266 74.675l-4.412-7.974-4.567 7.74zM77.153 43.525l3.959 7.817 4.793-8.071zM81.112 51.342l-4.808 7.583 8.996.395z"/><path d="M81.112 51.342l8.792.069-3.999-8.14zM89.904 51.411l-8.792-.069L85.3 59.32zM81.112 51.342l-9.116-.565 4.308 8.148z"/><path d="M71.996 50.777l9.116.565-3.959-7.817zM85.176 90.807l4.475-7.766-8.977-.199zM98.719 98.841l-9.033-.113 4.505 7.874zM45.179 98.186l8.848.122-4.514-8.052zM67.378 106.433l-8.85-.074 4.49 8.042zM71.859 114.43l-4.481-7.997-4.36 7.968zM62.783 82.482l4.483-7.807-8.979-.234zM104.896 28.114l-2.758-8.343-5.72 8.728zM89.904 51.411l4.62-7.982-8.619-.158z"/><path d="M94.524 43.429l-3.945-8.445-4.674 8.287zM94.524 43.429l-4.62 7.982 8.752.244zM103.541 44.085l-9.017-.656 4.132 8.226zM136.495 20.9l8.9 2.832-2.781-8.559zM132.84 11.801l3.655 9.099 6.119-5.727z"/><path d="M136.495 20.9l-3.655-9.099-4.758 8.424zM145.395 23.732l-8.9-2.832 3.179 9.082z"/><path d="M136.495 20.9l-5.297 7.696 8.476 1.386z"/><path d="M131.198 28.596l5.297-7.696-8.413-.675zM117.185 36.129l5.508-7.526-9.108-.623z"/><path d="M122.693 28.603l-3.257-7.558-5.851 6.935zM119.436 21.045l3.257 7.558 5.389-8.378z"/><path d="M122.693 28.603l8.505-.007-3.116-8.371zM159.929 68.465l-4.739 6.923 7.703 2.199zM131.198 28.596l3.218 8.521 5.258-7.135z"/><path d="M134.416 37.117l8.565 1.916-3.307-9.051z"/><path d="M148.266 32.569l-2.871-8.837-5.721 6.25zM142.981 39.033l5.285-6.464-8.592-2.587zM148.266 32.569l-5.285 6.464 8.244 2.643zM112.242 44.142l8.582.229-3.639-8.242zM112.242 44.142l-8.701-.057 3.98 8.025zM135.819 83.803l-5.513-7.36-4.053 7.479zM139.465 76.087l-9.159.356 5.513 7.36z"/><path d="M130.306 76.443l9.159-.356-5.098-7.295zM129.566 60.946l4.801 7.846 4.21-7.575zM129.566 60.946l3.499-7.732-8.385-.519z"/><path d="M133.065 53.214l-3.499 7.732 9.011.271zM103.014 59.811l8.898.393-4.391-8.094zM103.234 106.662l4.579-7.717-9.094-.104zM107.813 98.945l-4.559-7.799-4.535 7.695zM161.232 131.603l9.622-2.704-6.854-4.702zM170.854 128.899l6.307-7.4-7.775-2.851zM170.854 128.899l-9.622 2.704 4.862 6.531zM170.854 128.899l9.079 1.13-2.772-8.53zM-57.382 73.126l1.226-10.144-7.557 2.456zM-57.382 73.126l7.126-4.806-5.9-5.338zM-65.802 74.524l2.089-9.086-7.99 2.596zM-63.713 65.438l-2.089 9.086 8.42-1.398zM-80.017 70.735l-1.363 10.324 6.868-4.647zM-81.38 81.059l-5.898-7.964-2.773 9.533zM-70.922 97.048l-3.95 8.016 8.807.131z"/><path d="M-61.767 97.697l-9.155-.649 4.857 8.147zM-66.462 89.911l-4.46 7.137 9.155.649zM-66.063 137.579l-8.708-.677 3.406 8.358z"/><path d="M-74.771 136.902l-5.443 6.982 8.849 1.376zM-83.535 135.012l8.764 1.89-3.551-8.389z"/><path d="M-80.214 143.884l5.443-6.982-8.764-1.89zM-69.723 129.293l-5.048 7.609 8.708.677zM-74.771 136.902l5.048-7.609-8.599-.78zM-47.682 75.378l-2.574-7.058-7.126 4.806zM-50.256 68.32l2.574 7.058 5.987-8.422zM-53.184 81.844l5.502-6.466-9.7-2.252z"/><path d="M-47.682 75.378l8.233 1.004-2.246-9.426zM-23.608 60.454l1.519-8.541-8.429 2.739z"/><path d="M-32.72 62.623l9.112-2.169-6.91-5.802z"/><path d="M-25.743 68.743l2.135-8.289-9.112 2.169z"/><path d="M-23.608 60.454l-2.135 8.289 8.458-1.697zM-32.72 62.623l-6.659-5.092-2.316 9.425zM-32.72 62.623l-8.975 4.333 7.512 3.41z"/><path d="M-39.449 76.382l5.266-6.016-7.512-3.41zM-34.183 70.366l-5.266 6.016 9.721.794z"/><path d="M-25.743 68.743l-8.44 1.623 4.455 6.81zM-34.183 70.366l8.44-1.623-6.977-6.12zM-32.858 230.192l9.104 4.008-3.806-9.526zM-23.754 234.2l8.497-2.76-4.686-6.699z"/><path d="M-27.56 224.674l3.806 9.526 3.811-9.459z"/><path d="M-23.754 234.2l-9.104-4.008.331 6.859z"/><path d="M-32.858 230.192l-4.382-6.726-4.573 8.487zM-45.887 224.286l8.647-.82-3.258-7.558zM-41.813 231.953l4.573-8.487-8.647.82z"/><path d="M-37.24 223.466l4.382 6.726 5.298-5.518z"/><path d="M-31.39 216.532l-5.85 6.934 9.68 1.208z"/><path d="M-37.24 223.466l5.85-6.934-9.108-.624zM-65.962 185.9l9.58-2.606-4.999-6.537zM-56.382 183.294l-9.58 2.606 6.778 4.767zM-38.629 200.141l-3.856-8.325-4.716 7.829z"/><path d="M-42.485 191.816l3.856 8.325 4.651-7.966zM-48.11 168.068l4.925 7.844 4.184-7.615zM-43.185 175.912l8.931.342-4.747-7.957zM-64.451 196.234l8.746 2.687-3.479-8.254zM-65.962 185.9l1.511 10.334 5.267-5.567z"/><path d="M-55.705 198.921l-8.746-2.687 3.665 9.244zM-64.451 196.234l-4.579 6.602 8.244 2.642zM-69.03 202.836l4.579-6.602-7.668-2.907zM-55.705 198.921l3.484 8.474 5.02-7.75zM-52.221 207.395l8.484.495-3.464-8.245z"/><path d="M-43.737 207.89l-8.484-.495 3.219 8.52zM-52.221 207.395l-3.484-8.474-5.081 6.557z"/><path d="M-57.478 214.529l5.257-7.134-8.565-1.917zM-52.221 207.395l-5.257 7.134 8.476 1.386zM-69.03 202.836l2.959 9.106 5.285-6.464z"/><path d="M-66.071 211.942l8.593 2.587-3.308-9.051zM-57.478 214.529l-8.593-2.587 2.871 8.837zM-58.249 153.259l-5.003 7.457 9.628-.007zM-63.252 160.716l5.982 7.709 3.646-7.716z"/><path d="M-63.252 160.716l5.003-7.457-9.452.004zM-57.27 168.425l-5.982-7.709-2.437 7.799z"/><path d="M-63.252 160.716l-9.836-.027 7.399 7.826zM-73.088 160.689l9.836.027-4.449-7.453zM10.336 130.081l8.842.029-4.484-8.026zM10.336 130.081l-8.883.001 4.479 7.939zM-39.227 137.816l9.104-.006-4.44-7.779z"/><path d="M-21.038 137.85l-9.085-.04 4.506 7.756zM-25.528 130.05l-4.595 7.76 9.085.04zM-30.123 137.81l4.595-7.76-9.035-.019zM-16.49 130.074l8.999.009-4.486-7.839zM-16.49 130.074l-4.548 7.776 9.043.06z"/><path d="M-7.491 130.083l-8.999-.009 4.495 7.836z"/><path d="M-16.49 130.074l-9.038-.024 4.49 7.8z"/><path d="M-21.038 137.85l4.515 7.821 4.528-7.761z"/><path d="M-16.523 145.671l-4.515-7.821-4.579 7.716zM-7.491 145.784l-9.032-.113 4.534 7.87z"/><path d="M-16.523 145.671l9.032.113-4.504-7.874zM-21.059 153.366l4.536-7.695-9.094-.105z"/><path d="M-16.523 145.671l-4.536 7.695 9.07.175zM-21.059 153.366l4.572 7.872 4.498-7.697zM-11.929 169.184l-4.558-7.946-4.432 7.684zM-29.937 168.622l-4.798-7.855-4.266 7.53zM-34.735 160.767l-9.323-.178 5.057 7.708zM-39.451 153.112l4.716 7.655 4.535-7.558z"/><path d="M-34.735 160.767l-4.716-7.655-4.607 7.477zM121.669 153.136l-9.288-.122 4.677 7.488z"/><path d="M112.381 153.014l9.288.122-4.705-7.649zM126.315 160.806l-4.646-7.67-4.611 7.366zM121.669 153.136l4.646 7.67 4.677-6.827zM178.02 145.159l7.79 2.959-3.044-9.368z"/><path d="M185.81 148.118l-7.79-2.959-1.204 8.008z"/><path d="M176.816 153.167l1.204-8.008-7.915.967zM176.816 153.167l4.196 6.406 7.391-3.477zM176.938 168.992l-4.691-7.109-2.774 9.534zM172.247 161.883l4.691 7.109 4.074-9.419z"/><path d="M176.816 153.167l-4.569 8.716 8.765-2.31zM143.962 162.614l-8.582.053 4.198 8.718zM135.38 162.667l-5.502 6.466 9.7 2.252zM126.315 160.806l9.065 1.861-4.388-8.688z"/><path d="M135.38 162.667l-9.065-1.861 3.563 8.327zM139.667 154.621l-4.287 8.046 8.582-.053z"/><path d="M135.38 162.667l4.287-8.046-8.675-.642zM153.117 147.463l3.95-8.016-8.807-.13z"/><path d="M143.962 146.815l9.155.648-4.857-8.146zM130.083 122.49l-8.886-.142 4.598 7.934zM143.567 131.043l-4.207 7.624 8.9.65zM121.453 137.986l-9.135-.205 4.646 7.706z"/><path d="M121.453 137.986l8.999.274-4.657-7.978zM135.132 146.336l4.535 8.285 4.295-7.806z"/><path d="M139.667 154.621l-4.535-8.285-4.14 7.643zM139.36 138.667l-4.228 7.669 8.83.479zM130.452 138.26l4.68 8.076 4.228-7.669zM55.113 193.171l5.308-6.377-9.661-.892zM55.113 193.171l-8.999.856 4.167 7.585z"/><path d="M46.114 194.027l8.999-.856-4.353-7.269zM55.113 193.171l10.236 2.031-4.928-8.408zM123.891 177.556l5.987-8.423-8.234-1.003z"/><path d="M129.878 169.133l-5.987 8.423 8.561-1.364zM129.679 184.347l-5.788-6.791-2.316 9.424z"/><path d="M123.891 177.556l5.788 6.791 2.773-8.155zM107.938 175.768l3.985-8.432-8.804 1.351zM105.803 184.058l-1.519 8.54 8.43-2.739zM54.646 146.506l4.569 8.066 4.238-8.001z"/><path d="M59.215 154.572l-4.569-8.066-4.252 8.004zM71.985 130.434l-8.796.024 4.505 8.047zM76.471 138.416l-4.486-7.982-4.291 8.071z"/><path d="M63.189 130.458l8.796-.024-4.483-8.006zM71.985 130.434l4.486 7.982 4.334-8.09z"/><path d="M76.334 122.397l-4.349 8.037 8.82-.108zM71.985 130.434l4.349-8.037-8.832.031zM-7.491 130.083l4.471-7.896-8.957.057z"/><path d="M-3.02 122.187l-4.472-7.838-4.485 7.895zM1.453 130.082l-4.473-7.895-4.471 7.896zM-16.461 192.857l-8.864-.455 3.979 8.024zM-16.461 192.857l-4.885 7.569 9.018.656zM-16.461 192.857l-4.357-8.157-4.507 7.702z"/><path d="M-7.709 193.101l-8.752-.244 4.133 8.225zM23.908 170.071l8.911.133-4.506-8.029zM46.114 194.027l-8.635.328 4.601 8.455z"/><path d="M37.479 194.355l8.635-.328-4.35-7.879z"/><path d="M32.905 186.204l4.574 8.151 4.285-8.207z"/><path d="M37.479 194.355l-4.574-8.151-5.016 7.224zM31.98 200.728l5.499-6.373-9.59-.927z"/><path d="M37.479 194.355l-5.499 6.373 10.1 2.082zM14.504 201.957l8.556-.33-4.08-7.921zM23.06 201.627l-4.302 8.858 8.188-1.273z"/><path d="M23.06 201.627l4.829-8.199-8.909.278zM23.06 201.627l-8.556.33 4.254 8.528zM31.98 200.728l-8.92.899 3.886 7.585z"/><path d="M23.06 201.627l8.92-.899-4.091-7.3zM-2.942 169.458l4.455 8.039 4.484-7.826zM-29.937 168.622l4.633 7.999 4.385-7.699z"/><path d="M-29.717 184.307l4.413-7.686-8.95-.367z"/><path d="M-25.304 176.621l-4.633-7.999-4.317 7.632zM-25.304 176.621l-4.413 7.686 8.899.393z"/><path d="M-16.38 176.93l-8.924-.309 4.486 8.079z"/><path d="M-25.304 176.621l8.924.309-4.539-8.008zM23.908 170.071l-8.978-.234 4.411 7.974z"/><path d="M14.93 169.837l8.978.234-4.496-8.041zM14.93 169.837l-4.462-7.998-4.471 7.832z"/><path d="M10.468 161.839l4.462 7.998 4.482-7.807zM103.234 106.662l-4.549 7.775 9.038.024z"/><path d="M89.686 114.428l8.999.009-4.494-7.835zM98.685 114.437l4.5 7.808 4.538-7.784zM98.685 114.437l4.549-7.775-9.043-.06z"/><path d="M98.685 114.437l-4.512 7.83 9.012-.022z"/><path d="M94.173 122.267l4.512-7.83-8.999-.009zM103.185 122.245l9.033.031-4.495-7.815z"/><path d="M107.73 130.028l4.488-7.752-9.033-.031z"/><path d="M116.758 114.48l-4.54 7.796 8.979.072z"/><path d="M112.218 122.276l4.54-7.796-9.035-.019zM168.266 94.124l-2.783-8.568-6.306 6.382zM155.283 83.822l7.61-6.235-7.703-2.199z"/><path d="M165.483 85.556l-10.2-1.734 3.894 8.116z"/><path d="M155.283 83.822l10.2 1.734-2.59-7.969zM148.259 106.932l-8.814-.203 3.898 8.095zM156.967 107.61l-8.708-.678 3.66 8.287zM-8.988 65.697l5.016 8.109 3.317-8.424z"/><path d="M-6.506 56.958l-2.482 8.739 8.333-.315zM-6.554 46.866l-7.426 2.413 7.474 7.679z"/><path d="M-6.554 46.866l.048 10.092 6.417-4.717zM14.501 106.007l4.506 8.046 4.277-8.037z"/><path d="M10.21 114.078l4.291-8.071-8.776.088z"/><path d="M14.501 106.007l-4.291 8.071 8.797-.025z"/><path d="M18.743 97.94l-4.242 8.067 8.783.009zM8.848 66.109l-4.88-7.318-4.623 6.591z"/><path d="M8.848 66.109l4.231-8.094-9.111.776zM8.848 66.109l4.8 7.817 4.166-8.02z"/><path d="M13.079 58.015l-4.231 8.094 8.966-.203zM8.848 66.109l-4.247 7.497 9.047.32zM4.601 73.606l4.247-7.497-9.503-.727zM5.415 89.926l4.052-8.167-8.679.115zM13.648 73.926l-4.181 7.833 8.89.14z"/><path d="M9.467 81.759l4.685 8.1 4.205-7.96zM9.467 81.759l-4.052 8.167 8.737-.067zM9.467 81.759l-4.866-8.153-3.813 8.268z"/><path d="M4.601 73.606l4.866 8.153 4.181-7.833zM-3.972 73.806l-3.834 8.542 8.594-.474zM-25.743 68.743l4.819 7.082 3.639-8.779zM-20.924 75.825l-4.819-7.082-3.985 8.433zM58.517 58.809l4.337 7.892 4.594-7.913zM36.052 82.028l-8.851-.095 4.6 8.069zM40.884 106.168l-4.289 8 8.798.086zM63.189 130.458l-4.277 8.038 8.782.009zM58.912 138.496l4.541 8.075 4.241-8.066z"/><path d="M58.912 138.496l-4.266 8.01 8.807.065z"/><path d="M54.646 146.506l4.266-8.01-8.799-.068z"/><path d="M45.838 146.429l8.808.077-4.533-8.078zM45.838 146.429l-4.279 7.976 8.835.105z"/><path d="M54.646 146.506l-8.808-.077 4.556 8.081zM23.668 138.152l8.831.095-4.502-8.072zM32.499 138.247l-8.831-.095 4.5 8.052z"/><path d="M32.499 138.247l4.304-7.989-8.806-.083zM58.693 122.402l4.496 8.056 4.313-8.03z"/><path d="M58.693 122.402l8.809.026-4.484-8.027z"/><path d="M54.198 114.337l4.495 8.065 4.325-8.001z"/><path d="M49.894 122.338l8.799.064-4.495-8.065zM36.803 130.258l8.798.085-4.503-8.087zM45.601 130.343l4.293-8.005-8.796-.082zM85.2 106.546l4.486 7.882 4.505-7.826z"/><path d="M89.686 114.428l-4.486-7.882-4.458 7.884zM89.686 98.728l-4.486 7.818 8.991.056zM62.887 98.412l-8.86-.104 4.501 8.051zM67.378 106.433l-4.491-8.021-4.359 7.947zM49.376 74.307l4.506 8.03 4.405-7.896zM53.882 82.337l8.901.145-4.496-8.041zM119.436 21.045l-9.681-1.207 3.83 8.142z"/><path d="M109.755 19.838l9.681 1.207-4.383-6.725z"/><path d="M105.95 10.311l3.805 9.527 5.298-5.518zM109.755 19.838l-3.805-9.527-3.812 9.46zM104.896 28.114l4.859-8.276-7.617-.067zM109.755 19.838l-4.859 8.276 8.689-.134zM99.762 36.243l5.134-8.129-8.478.385z"/><path d="M90.579 34.984l9.183 1.259-3.344-7.744zM99.762 36.243l-5.238 7.186 9.017.656z"/><path d="M94.524 43.429l5.238-7.186-9.183-1.259zM151.51 66.898l-7.934.857 4.309 8.242zM155.19 75.388l-3.68-8.49-3.625 9.099zM151.51 66.898l8.419 1.567-2.838-8.737z"/><path d="M159.929 68.465l-8.419-1.567 3.68 8.49zM142.981 39.033l3.666 9.245 4.578-6.602zM146.647 48.278l-5.268 5.566 6.778 4.768zM146.647 48.278l7.668 2.906-3.09-9.508zM125.933 36.622l-5.109 7.749 8.572.495zM125.933 36.622l-3.24-8.019-5.508 7.526z"/><path d="M120.824 44.371l5.109-7.749-8.748-.493zM122.693 28.603l3.24 8.019 5.265-8.026zM125.933 36.622l8.483.495-3.218-8.521zM134.416 37.117l-8.483-.495 3.463 8.244zM89.904 51.411l4.262 8.104 4.49-7.86z"/><path d="M94.166 59.515l-4.262-8.104L85.3 59.32zM89.654 67.33l4.512-7.815-8.866-.195zM94.166 59.515l8.848.296-4.358-8.156zM94.166 59.515l4.41 8.066 4.438-7.77z"/><path d="M98.576 67.581l-4.41-8.066-4.512 7.815zM121.646 91.4l4.557 7.565 4.836-7.639zM126.253 83.922l-4.607 7.478 9.393-.074z"/><path d="M126.203 98.965l-4.557-7.565-4.671 7.602zM116.931 83.745l4.715 7.655 4.607-7.478zM125.38 68.6l4.926 7.843 4.061-7.651zM129.566 60.946L125.38 68.6l8.987.192zM120.824 44.371l-4.651 7.966 8.507.358zM116.173 52.337l-3.931-8.195-4.721 7.968z"/><path d="M112.242 44.142l3.931 8.195 4.651-7.966zM111.912 60.204l4.261-7.867-8.652-.227zM116.975 99.002l-4.657 7.699 9.104-.006zM112.318 106.701l-9.084-.039 4.489 7.799zM112.318 106.701l4.44 7.779 4.664-7.785zM116.758 114.48l-4.44-7.779-4.595 7.76zM112.318 106.701l-4.505-7.756-4.579 7.717z"/><path d="M107.813 98.945l4.505 7.756 4.657-7.699zM-65.802 74.524l-5.132 8.412 9.168-1.039z"/><path d="M-70.934 82.936l5.132-8.412-8.71 1.888zM-70.934 82.936l4.472 6.975 4.696-8.014z"/><path d="M-81.38 81.059l10.446 1.877-3.578-6.524zM-79.688 97.597l-4.21 8.781 9.026-1.314z"/><path d="M-70.922 97.048l-8.766.549 4.816 7.467zM-55.705 198.921l4.836-7.623-8.315-.631zM-56.382 183.294l5.513 8.004 3.498-7.732zM-50.869 191.298l-4.836 7.623 8.504.724z"/><path d="M-50.869 191.298l-5.513-8.004-2.802 7.373zM-42.485 191.816l-8.384-.518 3.668 8.347z"/><path d="M-50.869 191.298l8.384.518-4.886-8.25zM-56.382 183.294l4.211-7.574-9.21 1.037z"/><path d="M-52.171 175.72l-5.099-7.295-4.111 8.332z"/><path d="M-57.27 168.425l5.099 7.295 4.061-7.652zM-52.171 175.72l-4.211 7.574 9.011.272z"/><path d="M-43.185 175.912l-8.986-.192 4.8 7.846zM-52.171 175.72l8.986.192-4.925-7.844zM-38.54 183.97l-3.945 7.846 8.507.359z"/><path d="M-29.717 184.307l-8.823-.337 4.562 8.205z"/><path d="M-38.54 183.97l8.823.337-4.537-8.053zM-42.485 191.816l3.945-7.846-8.831-.404z"/><path d="M-43.185 175.912l4.645 8.058 4.286-7.716z"/><path d="M-38.54 183.97l-4.645-8.058-4.186 7.654zM23.668 138.152l-8.85-.073 4.49 8.02zM14.818 138.079l-8.886-.058 4.488 7.976z"/><path d="M19.308 146.099l-4.49-8.02-4.398 7.918z"/><path d="M14.818 138.079l8.85.073-4.49-8.042zM10.336 130.081l4.482 7.998 4.36-7.969zM14.818 138.079l-4.482-7.998-4.404 7.94zM-34.779 145.51l-4.672 7.602 9.251.097z"/><path d="M-34.779 145.51l4.579 7.699 4.583-7.643zM-34.779 145.51l-4.448-7.694-4.781 7.73zM-39.451 153.112l4.672-7.602-9.229.036z"/><path d="M-34.779 145.51l4.656-7.7-9.104.006zM-30.123 137.81l-4.656 7.7 9.162.056zM-25.528 130.05l4.538-7.783-9.032-.032zM-16.484 114.454l-4.506 7.813 9.013-.023zM-16.49 130.074l-4.5-7.807-4.538 7.783z"/><path d="M-20.99 122.267l4.5 7.807 4.513-7.83zM-7.455 161.47l8.977.199-4.502-7.965z"/><path d="M-7.455 161.47l4.475-7.766-9.009-.163zM-7.455 161.47l4.513 7.988 4.464-7.789z"/><path d="M-2.942 169.458l-4.513-7.988-4.474 7.714zM-7.455 161.47l-9.032-.232 4.558 7.946zM-16.487 161.238l9.032.232-4.534-7.929z"/><path d="M-16.487 161.238l-9.08-.233 4.648 7.917z"/><path d="M-25.567 161.005l-4.37 7.617 9.018.3zM-25.567 161.005l4.508-7.639-9.141-.157zM-25.567 161.005l9.08.233-4.572-7.872z"/><path d="M-25.567 161.005l-9.168-.238 4.798 7.855z"/><path d="M-34.735 160.767l9.168.238-4.633-7.796zM174.106 137.046l-3.252-8.147-4.76 9.235z"/><path d="M170.105 146.126l4.001-9.08-8.012 1.088zM179.933 130.029l-5.827 7.017 8.66 1.704z"/><path d="M170.854 128.899l3.252 8.147 5.827-7.017zM178.02 145.159l-3.914-8.113-4.001 9.08z"/><path d="M174.106 137.046l3.914 8.113 4.746-6.409zM139.667 154.621l8.99-.02-4.695-7.786zM148.657 154.601l-8.99.02 4.295 7.993z"/><path d="M153.129 161.575l-4.472-6.974-4.695 8.013zM148.657 154.601l4.46-7.138-9.155-.648zM158.598 155.279l-9.941-.678 4.472 6.974z"/><path d="M148.657 154.601l9.941.678-5.481-7.816zM125.739 114.521l4.743-7.825-9.06-.001zM125.739 114.521l-8.981-.041 4.439 7.868z"/><path d="M116.758 114.48l8.981.041-4.317-7.826zM130.083 122.49l-4.344-7.969-4.542 7.827zM134.716 130.559l-4.264 7.701 8.908.407z"/><path d="M130.452 138.26l4.264-7.701-8.921-.277zM134.716 130.559l-4.633-8.069-4.288 7.792z"/><path d="M130.083 122.49l4.633 8.069 4.109-7.79zM134.716 130.559l8.851.484-4.742-8.274zM143.567 131.043l-8.851-.484 4.644 8.108zM152.3 131.493l4.767 7.954 4.165-7.844z"/><path d="M157.067 139.447l-4.767-7.954-4.04 7.824zM155.655 123.615l-3.355 7.878 8.932.11z"/><path d="M152.3 131.493l-8.733-.45 4.693 8.274zM126.196 145.899l-4.743-7.913-4.489 7.501zM121.669 153.136l4.527-7.237-9.232-.412zM126.196 145.899l-4.527 7.237 9.323.843z"/><path d="M121.453 137.986l4.743 7.913 4.256-7.639zM126.196 145.899l8.936.437-4.68-8.076zM135.132 146.336l-8.936-.437 4.796 8.08zM69.116 186.496l4.504 7.571 4.607-8.347zM73.62 194.067l8.664-1.796-4.057-6.551z"/><path d="M82.284 192.271l-8.664 1.796 6.686 6.322zM65.349 195.202l8.271-1.135-4.504-7.571zM72.358 202.972l1.262-8.905-8.271 1.135zM73.62 194.067l-1.262 8.905 7.948-2.583zM65.036 205.351l.313-10.149-6.52 4.674zM58.829 199.876l-2.133 8.185 8.34-2.71z"/><path d="M56.696 208.061l2.133-8.185-8.548 1.736zM65.036 205.351l7.322-2.379-7.009-7.77zM55.113 193.171l3.716 6.705 6.52-4.674z"/><path d="M58.829 199.876l-3.716-6.705-4.832 8.441zM91.183 178.815l8.297-1.349-4.889-7.504z"/><path d="M99.48 177.466l3.639-8.779-8.528 1.275zM107.938 175.768l-8.458 1.698 6.323 6.592z"/><path d="M99.48 177.466l8.458-1.698-4.819-7.081zM116.378 174.145l7.513 3.411-2.247-9.426z"/><path d="M111.923 167.336l4.455 6.809 5.266-6.015zM123.891 177.556l-7.513-3.411-1.462 7.744z"/><path d="M107.938 175.768l8.44-1.623-4.455-6.809zM73.347 178.403l-4.231 8.093 9.111-.776zM86.168 170.705l5.015 8.11 3.408-8.853zM63.453 146.571l8.766-.026-4.525-8.04z"/><path d="M72.219 146.545l4.252-8.129-8.777.089zM76.471 138.416l-4.252 8.129 8.744-.174z"/><path d="M72.219 146.545l4.561 8.04 4.183-8.214zM50.792 170.56l4.203-7.982-8.852-.095z"/><path d="M46.143 162.483l8.852.095-4.601-8.068z"/><path d="M54.995 162.578l4.22-8.006-8.821-.062zM1.391 114.186l8.819-.108-4.485-7.983z"/><path d="M-3.076 106.308l4.467 7.878 4.334-8.091z"/><path d="M1.391 114.186l-4.467-7.878-4.416 8.041z"/><path d="M-3.02 122.187l4.411-8.001-8.883.163zM-11.971 184.996l-4.409-8.066-4.438 7.77zM-11.971 184.996l-4.49 7.861 8.752.244z"/><path d="M-16.461 192.857l4.49-7.861-8.847-.296zM28.403 178.121l-4.495-8.05-4.567 7.74z"/><path d="M23.678 185.702l4.725-7.581-9.062-.31zM32.905 186.204l-4.502-8.083-4.725 7.581zM28.403 178.121l4.416-7.917-8.911-.133zM37.211 162.293l-4.529-8.037-4.369 7.919zM37.211 162.293l4.541 7.995 4.391-7.805zM41.559 154.405l-4.348 7.888 8.932.19z"/><path d="M37.211 162.293l4.348-7.888-8.877-.149z"/><path d="M32.819 170.204l4.392-7.911-8.898-.118z"/><path d="M37.211 162.293l-4.392 7.911 8.933.084zM10.2 193.734l-9.116-.564 3.958 7.816z"/><path d="M1.084 193.17l-4.794 8.07 8.752-.254z"/><path d="M1.084 193.17l-8.793-.069 3.999 8.139zM10.414 177.698l4.334 8.025 4.593-7.912zM1.513 177.497l8.901.201-4.417-8.027z"/><path d="M10.414 177.698l4.516-7.861-8.933-.166z"/><path d="M14.93 169.837l-4.516 7.861 8.927.113zM116.799 130.122l-9.069-.094 4.588 7.753zM121.197 122.348l-4.398 7.774 8.996.16zM116.799 130.122l4.654 7.864 4.342-7.704z"/><path d="M121.453 137.986l-4.654-7.864-4.481 7.659z"/><path d="M116.799 130.122l-4.581-7.846-4.488 7.752zM112.218 122.276l4.581 7.846 4.398-7.774zM155.283 83.822l-5.386 7.427 9.28.689zM160.517 115.999l-4.862 7.616 8.345.582z"/><path d="M169.386 118.648l-8.869-2.649 3.483 8.198zM155.655 123.615l4.862-7.616-8.598-.78z"/><path d="M160.517 115.999l-3.55-8.389-5.048 7.609zM-8.988 65.697l-5.965-7.509-2.332 8.858z"/><path d="M-14.953 58.188l-8.655 2.266 6.323 6.592zM-23.608 60.454l8.655-2.266-7.136-6.275zM-14.953 58.188l5.965 7.509 2.482-8.739z"/><path d="M-13.98 49.279l-.973 8.909 8.447-1.23z"/><path d="M-14.953 58.188l.973-8.909-8.109 2.634zM5.415 89.926l4.562 8.04 4.175-8.107z"/><path d="M5.725 106.095l4.252-8.129-8.745.175zM9.977 97.966l-4.562-8.04-4.183 8.215zM9.977 97.966l8.766-.026-4.591-8.081zM9.977 97.966l4.524 8.041 4.242-8.067zM14.501 106.007l-4.524-8.041-4.252 8.129zM-11.984 90.782l4.178-8.434-8.619.845zM-48.257 106.251l-8.907-.406 4.644 8.108zM-44.12 83.706l-3.562-8.328-5.502 6.466z"/><path d="M-47.682 75.378l3.562 8.328 4.671-7.324zM-12.395 74.549l4.589 7.799 3.834-8.542zM-12.395 74.549l3.407-8.852-8.297 1.349z"/><path d="M-8.988 65.697l-3.407 8.852 8.423-.743z"/><path d="M-7.806 82.348l-4.589-7.799-4.03 8.644z"/><path d="M-12.395 74.549l-8.529 1.276 4.499 7.368z"/><path d="M-20.924 75.825l8.529-1.276-4.89-7.503zM63.215 50.806l8.781-.029-4.305-8.223zM71.996 50.777l-8.781.029 4.233 7.982zM59.135 42.884l4.08 7.922 4.476-8.252z"/><path d="M63.215 50.806l-4.698 8.003 8.931-.021zM62.854 66.701l-9.062-.31 4.495 8.05zM53.792 66.391l-4.416 7.916 8.911.134zM49.376 74.307l4.416-7.916-8.907-.086z"/><path d="M58.517 58.809l-4.725 7.582 9.062.31zM40.636 90.107l4.543 8.079 4.334-7.93zM40.636 90.107l-4.584-8.079-4.251 7.974zM31.404 73.952l-4.74-8.096-4.123 8.033zM27.201 81.933l4.203-7.981-8.863-.063zM26.664 65.856l4.74 8.096 4.503-7.627z"/><path d="M36.052 82.028l-4.648-8.076-4.203 7.981zM54.198 114.337l-4.502-8.073-4.303 7.99zM49.696 106.264l4.502 8.073 4.33-7.978z"/><path d="M54.027 98.308l-4.331 7.956 8.832.095zM49.696 106.264l4.331-7.956-8.848-.122zM40.884 106.168l8.812.096-4.517-8.078z"/><path d="M49.696 106.264l-8.812-.096 4.509 8.086zM32.082 106.084l-4.533-8.079-4.265 8.011zM27.799 114.093l4.283-8.009-8.798-.068zM32.082 106.084l-4.283 8.009 8.796.075z"/><path d="M40.884 106.168l-8.802-.084 4.513 8.084zM41.559 154.405l-4.543-8.08-4.334 7.931z"/><path d="M32.682 154.256l4.334-7.931-8.848-.121zM45.838 146.429l-8.822-.104 4.543 8.08z"/><path d="M37.016 146.325l-4.517-8.078-4.331 7.957zM58.693 122.402l-4.297 8.017 8.793.039zM58.912 138.496l-4.516-8.077-4.283 8.009z"/><path d="M54.396 130.419l4.516 8.077 4.277-8.038zM54.396 130.419l4.297-8.017-8.799-.064z"/><path d="M45.601 130.343l8.795.076-4.502-8.081zM54.396 130.419l-8.795-.076 4.512 8.085zM71.781 66.814l4.523-7.889-8.856-.137zM62.854 66.701l8.927.113-4.333-8.026z"/><path d="M71.781 66.814l8.902.201-4.379-8.09zM67.266 74.675l4.515-7.861-8.927-.113z"/><path d="M76.198 74.84l-4.417-8.026-4.515 7.861zM71.781 66.814l4.417 8.026 4.485-7.825zM71.727 82.673l-4.447 7.836 8.933.152zM71.727 82.673l4.486 7.988 4.461-7.819z"/><path d="M71.727 82.673l-8.944-.191 4.497 8.027z"/><path d="M62.783 82.482l8.944.191-4.461-7.998z"/><path d="M76.198 74.84l-4.471 7.833 8.947.169z"/><path d="M71.727 82.673l4.471-7.833-8.932-.165zM85.138 75.053l4.516-7.723-8.971-.315zM89.651 83.041l-4.513-7.988-4.464 7.789z"/><path d="M85.138 75.053l-8.94-.213 4.476 8.002z"/><path d="M76.198 74.84l8.94.213-4.455-8.038zM103.254 91.146l-9.07-.176 4.535 7.871zM94.184 90.97l-4.533-7.929-4.475 7.766z"/><path d="M94.184 90.97l-4.498 7.758 9.033.113z"/><path d="M89.686 98.728l4.498-7.758-9.008-.163z"/><path d="M94.184 90.97l4.498-7.696-9.031-.233zM98.682 83.274l-4.498 7.696 9.07.176zM67.28 90.509l4.495 8.006 4.438-7.854z"/><path d="M62.887 98.412l8.888.103-4.495-8.006z"/><path d="M71.775 98.515l-8.888-.103 4.491 8.021zM62.783 82.482l-4.395 7.895 8.892.132z"/><path d="M58.388 90.377l4.499 8.035 4.393-7.903zM54.027 98.308l4.361-7.931-8.875-.121zM62.887 98.412l-4.499-8.035-4.361 7.931z"/><path d="M53.882 82.337l4.506 8.04 4.395-7.895z"/><path d="M58.388 90.377l-4.506-8.04-4.369 7.919zM108.525 36.064l8.66.065-3.6-8.149z"/><path d="M104.896 28.114l3.629 7.95 5.06-8.084zM108.525 36.064l3.717 8.078 4.943-8.013zM112.242 44.142l-3.717-8.078-4.984 8.021z"/><path d="M99.762 36.243l8.763-.179-3.629-7.95zM108.525 36.064l-8.763.179 3.779 7.842zM148.157 58.612l-6.778-4.768-2.802 7.373z"/><path d="M146.647 48.278l1.51 10.334 6.158-7.428zM143.576 67.755l4.581-9.143-9.58 2.605zM154.315 51.184l-6.158 7.428 8.934 1.116zM148.157 58.612l3.353 8.286 5.581-7.17zM151.51 66.898l-3.353-8.286-4.581 9.143zM133.065 53.214l4.836-7.624-8.505-.724z"/><path d="M137.901 45.59l-3.485-8.473-5.02 7.749zM137.901 45.59l-4.836 7.624 8.314.63zM134.416 37.117l3.485 8.473 5.08-6.557zM137.901 45.59l8.746 2.688-3.666-9.245z"/><path d="M146.647 48.278l-8.746-2.688 3.478 8.254zM107.5 67.89l-8.924-.309 4.538 8.008zM111.912 60.204L107.5 67.89l8.949.367z"/><path d="M98.576 67.581l8.924.309-4.486-8.079zM107.5 67.89l4.412-7.686-8.898-.393zM107.5 67.89l4.632 8 4.317-7.633z"/><path d="M112.132 75.89l-4.632-8-4.386 7.699zM98.682 83.274l9.08.232-4.648-7.917zM107.762 83.506l-9.08-.232 4.572 7.872zM112.132 75.89l-4.37 7.616 9.169.239z"/><path d="M107.762 83.506l4.37-7.616-9.018-.301zM112.132 75.89l9.064.325-4.747-7.958zM130.306 76.443l-9.11-.228 5.057 7.707zM121.196 76.215l-4.265 7.53 9.322.177z"/><path d="M121.196 76.215l-9.064-.325 4.799 7.855zM125.38 68.6l-4.184 7.615 9.11.228z"/><path d="M121.196 76.215l4.184-7.615-8.931-.343zM120.736 60.541l-8.824-.337 4.537 8.053z"/><path d="M125.38 68.6l-4.644-8.059-4.287 7.716zM120.736 60.541l8.83.405-4.886-8.251zM120.736 60.541l4.644 8.059 4.186-7.654zM120.736 60.541l-4.563-8.204-4.261 7.867z"/><path d="M116.173 52.337l4.563 8.204 3.944-7.846zM-87.91 98.386l-7.915.966 3.915 8.114zM-83.898 106.378l-4.012-7.992-4 9.08z"/><path d="M-95.825 99.352l7.915-.966-6.711-7.042zM-79.688 97.597l-8.222.789 4.012 7.992zM-70.934 82.936l-5.469 6.296 9.941.679z"/><path d="M-76.403 89.232l5.481 7.816 4.46-7.137zM-76.403 89.232l5.469-6.296-10.446-1.877z"/><path d="M-76.403 89.232l-3.285 8.365 8.766-.549zM163.575 163.453l-10.446-1.878 3.579 6.524z"/><path d="M163.575 163.453l-6.867 4.646 5.504 5.677zM172.247 161.883l-8.672 1.57 5.898 7.964zM163.575 163.453l-4.977-8.174-5.469 6.296zM161.884 146.914l8.221-.788-4.011-7.992z"/><path d="M157.067 139.447l4.817 7.467 4.21-8.78zM153.117 147.463l8.767-.549-4.817-7.467z"/><path d="M158.598 155.279l3.286-8.365-8.767.549zM134.623 114.623l4.202 8.146 4.518-7.945zM134.623 114.623l4.822-7.894-8.963-.033z"/><path d="M134.623 114.623l-4.54 7.867 8.742.279zM139.445 106.729l-4.822 7.894 8.72.201zM134.623 114.623l-8.884-.102 4.344 7.969zM125.739 114.521l8.884.102-4.141-7.927zM147.333 123.152l8.322.463-3.736-8.396z"/><path d="M147.333 123.152l4.586-7.933-8.576-.395zM138.825 122.769l8.508.383-3.99-8.328zM143.567 131.043l3.766-7.891-8.508-.383zM152.3 131.493l-4.967-8.341-3.766 7.891z"/><path d="M147.333 123.152l4.967 8.341 3.355-7.878zM104.284 192.598l-7.136-6.275-.972 8.91zM97.148 186.323l-5.965-7.508-2.482 8.738zM96.176 195.233l.972-8.91-8.447 1.23z"/><path d="M97.148 186.323l7.136 6.275 1.519-8.54z"/><path d="M99.48 177.466l-2.332 8.857 8.655-2.265zM97.148 186.323l2.332-8.857-8.297 1.349zM114.916 181.889l-6.978-6.121-2.135 8.29z"/><path d="M121.575 186.98l-6.659-5.091-2.202 7.97z"/><path d="M114.916 181.889l-9.113 2.169 6.911 5.801zM114.916 181.889l1.462-7.744-8.44 1.623zM123.891 177.556l-8.975 4.333 6.659 5.091zM69.116 186.496l-4.734-7.89-3.961 8.188zM60.421 186.794l3.961-8.188-8.851.049zM73.347 178.403l-8.965.203 4.734 7.89zM90.002 162.163l8.619-.844-4.442-7.589z"/><path d="M98.621 161.319l-8.619.844 4.589 7.799zM90.002 162.163l-3.834 8.542 8.423-.743zM91.183 178.815l-8.333.314 5.851 8.424zM88.701 187.553l-5.851-8.424-4.623 6.591z"/><path d="M82.85 179.129l-9.503-.726 4.88 7.317z"/><path d="M73.347 178.403l9.503.726-5.256-8.223z"/><path d="M82.85 179.129l3.318-8.424-8.574.201zM86.168 170.705l-3.318 8.424 8.333-.314zM59.215 154.572l8.828.08-4.59-8.081zM76.78 154.585l-8.737.067 4.685 8.101zM72.219 146.545l-4.176 8.107 8.737-.067z"/><path d="M68.043 154.652l4.176-8.107-8.766.026zM5.862 122.114l4.474 7.967 4.358-7.997zM10.21 114.078l-4.348 8.036 8.832-.03z"/><path d="M10.336 130.081l-4.474-7.967-4.409 7.968z"/><path d="M5.862 122.114l-8.882.073 4.473 7.895z"/><path d="M5.862 122.114l-4.471-7.928-4.411 8.001z"/><path d="M1.391 114.186l4.471 7.928 4.348-8.036zM-7.459 177.182l4.517-7.724-8.987-.274zM-16.38 176.93l8.921.252-4.47-7.998z"/><path d="M-7.459 177.182l8.972.315-4.455-8.039zM-11.971 184.996l4.512-7.814-8.921-.252zM37.31 178.206l-4.405 7.998 8.859-.056z"/><path d="M46.288 178.186l-8.978.02 4.454 7.942z"/><path d="M41.752 170.288l-4.442 7.918 8.978-.02z"/><path d="M32.819 170.204l4.491 8.002 4.442-7.918z"/><path d="M28.403 178.121l8.907.085-4.491-8.002z"/><path d="M37.31 178.206l-8.907-.085 4.502 8.083zM5.892 185.587l-4.808 7.583 9.116.564z"/><path d="M14.748 185.723l-8.856-.136 4.308 8.147zM5.892 185.587l4.522-7.889-8.901-.201z"/><path d="M10.414 177.698l-4.522 7.889 8.856.136zM144.556 98.902l-5.111 7.827 8.814.203zM145.447 83.795l-5.982-7.708-3.646 7.716z"/><path d="M139.465 76.087l5.982 7.708 2.438-7.798zM145.447 83.795l9.836.027-7.398-7.825zM145.447 83.795l4.45 7.454 5.386-7.427zM162.41 100.627l5.856-6.503-9.089-2.186zM162.41 100.627l8.722 2.315-2.866-8.818zM5.415 89.926l-8.688.294 4.505 7.921z"/><path d="M-3.273 90.22l8.688-.294-4.627-8.052z"/><path d="M-7.806 82.348l4.533 7.872 4.061-8.346z"/><path d="M-11.984 90.782l8.711-.562-4.533-7.872zM-39.001 122.163l-4.598-7.934-4.288 7.793zM-47.887 122.022l4.288-7.793-8.921-.276zM-43.599 114.229l-4.658-7.978-4.263 7.702zM-25.535 114.483l4.545 7.784 4.506-7.813z"/><path d="M-20.99 122.267l-4.545-7.784-4.487 7.752zM-39.449 76.382l4.586 7.627 5.135-6.833z"/><path d="M-44.12 83.706l9.257.303-4.586-7.627zM-48.797 90.532l-4.387-8.688-4.288 8.047z"/><path d="M-48.797 90.532l4.677-6.826-9.064-1.862zM44.716 50.157l9.59.926-4.091-7.3z"/><path d="M54.306 51.083l4.829-8.199-8.92.899zM63.215 50.806l-8.909.277 4.211 7.726zM54.306 51.083l8.909-.277-4.08-7.922zM53.882 82.337l-8.898-.118 4.529 8.037zM44.984 82.219l8.898.118-4.506-8.03zM40.636 90.107l4.348-7.888-8.932-.191z"/><path d="M44.984 82.219l-4.348 7.888 8.877.149zM36.357 98.082l4.527 8.086 4.295-7.982zM36.357 98.082l4.279-7.975-8.835-.105z"/><path d="M27.549 98.005l8.808.077-4.556-8.08zM40.636 90.107l-4.279 7.975 8.822.104zM36.357 98.082l-4.275 8.002 8.802.084z"/><path d="M32.082 106.084l4.275-8.002-8.808-.077zM32.499 138.247l8.812.097-4.508-8.086zM45.601 130.343l-4.29 8.001 8.802.084zM41.311 138.344l4.527 8.085 4.275-8.001z"/><path d="M41.311 138.344l4.29-8.001-8.798-.085zM37.016 146.325l4.295-7.981-8.812-.097zM41.311 138.344l-4.295 7.981 8.822.104zM98.682 83.274l-4.557-7.947-4.474 7.714zM94.125 75.327l4.451-7.746-8.922-.251zM98.576 67.581l-4.451 7.746 8.989.262z"/><path d="M94.125 75.327l4.557 7.947 4.432-7.685zM94.125 75.327l-8.987-.274 4.513 7.988z"/><path d="M85.138 75.053l8.987.274-4.471-7.997zM80.708 98.622l8.978.106-4.51-7.921z"/><path d="M80.708 98.622l4.468-7.815-8.963-.146zM80.708 98.622l4.492 7.924 4.486-7.818zM71.775 98.515l8.933.107-4.495-7.961zM107.813 98.945l4.583-7.642-9.142-.157zM112.396 91.303l-4.583 7.642 9.162.057z"/><path d="M121.646 91.4l-9.25-.097 4.579 7.699zM112.396 91.303l9.25.097-4.715-7.655z"/><path d="M107.762 83.506l4.634 7.797 4.535-7.558z"/><path d="M112.396 91.303l-4.634-7.797-4.508 7.64zM-87.91 98.386l2.607-8.538-9.318 1.496z"/><path d="M-94.621 91.344l9.318-1.496-4.748-7.22zM-85.303 89.848l3.923-8.789-8.671 1.569zM-85.303 89.848l-2.607 8.538 8.222-.789z"/><path d="M-76.403 89.232l-8.9.616 5.615 7.749z"/><path d="M-85.303 89.848l8.9-.616-4.977-8.173zM167.499 154.664l-3.924 8.789 8.672-1.57zM167.499 154.664l9.317-1.497-6.711-7.041z"/><path d="M167.499 154.664l4.748 7.219 4.569-8.716zM163.575 163.453l3.924-8.789-8.901.615zM167.499 154.664l-5.615-7.75-3.286 8.365z"/><path d="M161.884 146.914l5.615 7.75 2.606-8.538zM54.995 162.578l8.844.035-4.624-8.041zM63.839 162.613l4.204-7.961-8.828-.08zM68.043 154.652l-4.204 7.961 8.889.14zM76.78 154.585l8.688-.293-4.505-7.921zM85.468 154.292l8.711-.562-4.449-7.716z"/><path d="M80.963 146.371l4.505 7.921 4.262-8.278zM85.468 154.292l4.534 7.871 4.177-8.433zM1.084 193.17l-4.189-7.979-4.604 7.91zM-7.459 177.182l4.354 8.009 4.618-7.694z"/><path d="M-3.105 185.191l-8.866-.195 4.262 8.105z"/><path d="M-3.105 185.191l-4.354-8.009-4.512 7.814zM5.892 185.587l-8.997-.396 4.189 7.979z"/><path d="M-3.105 185.191l8.997.396-4.379-8.09zM126.203 98.965l9.204-.049-4.368-7.59z"/><path d="M139.445 106.729l-4.038-7.813-4.925 7.78z"/><path d="M135.407 98.916l-9.204.049 4.279 7.731zM144.556 98.902l-9.149.014 4.038 7.813zM156.967 107.61l-3.407-8.358-5.301 7.68zM144.556 98.902l9.004.35-3.663-8.003z"/><path d="M149.897 91.249l3.663 8.003 5.617-7.314zM153.56 99.252l-9.004-.35 3.703 8.03zM162.41 100.627l-8.85-1.375 3.407 8.358z"/><path d="M153.56 99.252l8.85 1.375-3.233-8.689zM171.132 102.942l-5.402 6.557 8.352 2.523zM165.73 109.499l3.656 9.149 4.696-6.626z"/><path d="M165.73 109.499l-5.213 6.5 8.869 2.649z"/><path d="M160.517 115.999l5.213-6.5-8.763-1.889zM162.41 100.627l3.32 8.872 5.402-6.557z"/><path d="M165.73 109.499l-3.32-8.872-5.443 6.983zM-30.122 106.73l4.55-7.664-9.197-.041zM-3.273 90.22l-4.261 8.278 8.766-.357zM-7.534 98.498l4.458 7.81 4.308-8.167z"/><path d="M-3.076 106.308l-4.458-7.81-4.427 8.09zM-7.534 98.498l4.261-8.278-8.711.562z"/><path d="M-16.423 98.934l8.889-.436-4.45-7.716zM-7.534 98.498l-8.889.436 4.462 7.654zM-39.258 106.525l9.136.205-4.647-7.705z"/><path d="M-43.599 114.229l4.341-7.704-8.999-.274zM-20.924 75.825l-4.377 8.329 8.876-.961zM-25.301 84.154l4.377-8.329-8.804 1.351zM-34.863 84.009l9.562.145-4.427-6.978zM-52.937 98.176l-8.83-.479 4.603 8.148z"/><path d="M-61.767 97.697l8.83.479-4.535-8.285zM-48.257 106.251l-4.68-8.075-4.227 7.669zM-52.937 98.176l4.14-7.644-8.675-.641zM-39.474 91.375l4.611-7.366-9.257-.303z"/><path d="M-48.797 90.532l9.323.843-4.646-7.669zM53.792 66.391l-4.501-8.083-4.406 7.997zM49.291 58.308l-8.86.056 4.454 7.941z"/><path d="M49.291 58.308l-4.575-8.151-4.285 8.207zM49.291 58.308l4.501 8.083 4.725-7.582zM54.306 51.083l-5.015 7.225 9.226.501z"/><path d="M49.291 58.308l5.015-7.225-9.59-.926zM40.444 74.224l8.932.083-4.491-8.002zM31.404 73.952l9.04.272-4.537-7.899z"/><path d="M35.907 66.325l4.537 7.899 4.441-7.919z"/><path d="M40.444 74.224l-9.04-.272 4.648 8.076z"/><path d="M44.984 82.219l-4.54-7.995-4.392 7.804z"/><path d="M40.444 74.224l4.54 7.995 4.392-7.912zM76.263 106.49l-8.885-.057 4.481 7.997zM76.263 106.49l-4.404 7.94h8.883z"/><path d="M85.2 106.546l-8.937-.056 4.479 7.94zM76.263 106.49l-4.488-7.975-4.397 7.918z"/><path d="M76.263 106.49l4.445-7.868-8.933-.107zM80.708 98.622l-4.445 7.868 8.937.056zM68.547 170.586l4.8 7.817 4.247-7.497z"/><path d="M68.547 170.586l9.047.32-4.866-8.153zM68.547 170.586l-4.165 8.02 8.965-.203z"/><path d="M63.839 162.613l4.708 7.973 4.181-7.833zM81.408 162.637l-4.628-8.052-4.052 8.168zM86.168 170.705l-4.76-8.068-3.814 8.269z"/><path d="M77.594 170.906l3.814-8.269-8.68.116zM90.002 162.163l-8.594.474 4.76 8.068z"/><path d="M85.468 154.292l-4.06 8.345 8.594-.474z"/><path d="M81.408 162.637l4.06-8.345-8.688.293zM140.444 91.253l4.112 7.649 5.341-7.653zM140.444 91.253l5.003-7.458-9.628.008zM140.444 91.253l-4.625-7.45-4.78 7.523z"/><path d="M145.447 83.795l-5.003 7.458 9.453-.004zM140.444 91.253l-5.037 7.663 9.149-.014z"/><path d="M135.407 98.916l5.037-7.663-9.405.073zM-21.012 106.725l-4.523 7.758 9.051-.029zM-16.423 98.934l-4.589 7.791 9.051-.137z"/><path d="M-21.012 106.725l4.528 7.729 4.523-7.866zM-25.535 114.483l4.523-7.758-9.11.005z"/><path d="M-25.572 99.066l4.56 7.659 4.589-7.791z"/><path d="M-21.012 106.725l-4.56-7.659-4.55 7.664zM-34.603 114.389l-8.996-.16 4.598 7.934zM-34.603 114.389l-4.398 7.774 8.979.072zM-34.603 114.389l9.068.094-4.587-7.753z"/><path d="M-25.535 114.483l-9.068-.094 4.581 7.846zM-34.603 114.389l-4.655-7.864-4.341 7.704z"/><path d="M-39.258 106.525l4.655 7.864 4.481-7.659zM-20.868 91.429l4.445 7.505 4.439-8.152zM-20.868 91.429l-4.704 7.637 9.149-.132z"/><path d="M-20.868 91.429l8.884-.647-4.441-7.589z"/><path d="M-25.301 84.154l4.433 7.275 4.443-8.236zM-44.001 98.612l-8.936-.436 4.68 8.075zM-44.001 98.612l4.743 7.913 4.489-7.5zM-39.258 106.525l-4.743-7.913-4.256 7.639z"/><path d="M-52.937 98.176l8.936.436-4.796-8.08zM-44.001 98.612l4.527-7.237-9.323-.843zM-39.474 91.375l-4.527 7.237 9.232.413zM59.654 170.623l-4.659-8.045-4.203 7.982zM59.654 170.623l-8.862-.063 4.739 8.095zM64.382 178.606l-4.728-7.983-4.123 8.032z"/><path d="M59.654 170.623l4.185-8.01-8.844-.035z"/><path d="M59.654 170.623l8.893-.037-4.708-7.973zM68.547 170.586l-8.893.037 4.728 7.983zM-30.185 91.498l4.884-7.344-9.562-.145zM-30.185 91.498l-9.289-.123 4.705 7.65zM-25.572 99.066l-4.613-7.568-4.584 7.527z"/><path d="M-39.474 91.375l9.289.123-4.678-7.489z"/><path d="M-30.185 91.498l9.317-.069-4.433-7.275zM-20.868 91.429l-9.317.069 4.613 7.568z"/></svg>