<svg xmlns="http://www.w3.org/2000/svg" viewBox="-150 0 300 281.05"><style>path{fill:none;stroke:#000;stroke-width:1;stroke-linejoin:bevel}</style><path d="M134.999 214.172l11.704 9.345 2.418-10.93zm-270.42-21.66l-14.579 8.03 10.4 2.788zm56.477-127.511l-1.334 11.01 14.362-3.829zm165.618 203.88l8.759-7.05-13.973-3.133zM-66.378 281.05l11.882-1.369-7.699-10.381zm-29.055-19.219l6.686-12.172-12.04-.169z"/><path d="M-74.284 269.599l7.906 11.451 4.183-11.75zm4.429-53.707l12.762-.143-6.551-10.932zm110.76 45.404l1.593 15.107 7.456-8.327zm-54.944-231.91l7.196 11.26L0 31.056zm7.317 76.377l-6.419 10.642L0 116.41z"/><path d="M6.722 105.763H-6.722L0 116.41zm-76.881-23.611l-10.119-6.141.338 12.583zm76.492 89.405l6.288-11.144L0 160.538zm12.597.016l-6.309-11.16-6.288 11.144z"/><path d="M12.621 160.413l-6.314-11.092L0 160.538z"/><path d="M6.307 149.321l6.314 11.092 6.359-11.08zm26.105-21.908l-12.945-.142 6.055 11.046z"/><path d="M19.467 127.271l12.945.142-6.182-11.004zm56.111-74.498l-7.768 8.669 11.134 3.559zm3.366 12.228L67.81 61.442l-1.894 10.74zm.996 23.593l.338-12.583-10.119 6.141zM6.722 105.763l13.541.046-6.874-10.537zm57.856-73.478l-8.033 8.388 14.188 1.288zm71.351 213.879l-12.332-.28 4.305 10.203zm-49.255 22.717l-8.668 11.795 11.093-1.958zm0 0l13.15 6.342-4.391-13.392z"/><path d="M99.824 275.223l-13.15-6.342 2.425 9.837zm-188.571-25.564l-5.724-11.553-6.316 11.384zm14.463 19.94l-3.722 11.077 11.628.374zm-14.463-19.94l7.287 9.039 6.18-10.616z"/><path d="M-81.46 258.698l-7.287-9.039-6.686 12.172zm143.399-10.693l-6.007-9.974-7.845 11.417zm26.808 1.654l6.686 12.172 5.354-12.341zm6.686 12.172l-6.686-12.172-7.287 9.039zm-139.801-46.127l-12.725.045 6.713 11.002zm-6.399-32.845l-6.521 10.952 12.8-.139zm-6.521 10.952l6.521-10.952-12.832-.035zm50.955-22.254H6.333L0 160.538zm-6.288-11.144l6.288 11.144L0 160.538zM0 182.628l-6.333-11.071-6.284 11.1z"/><path d="M-6.333 171.557L0 182.628l6.333-11.071zm-48.957 86.667l14.385 3.072-7.182-11.848zm-43.419-121.191l-8.964 8.545 13.43 1.74zm-31.693 11.098l12.319 1.874-3.467-10.63zM29.031 257.805l-5.959 8.465 9.413 5.756z"/><path d="M23.072 266.27l5.959-8.465-14.511 1.459zm31.424 13.411l-4.542-11.605-7.456 8.327zM-64.578 32.285l14.774-1.671-7.554-6.779z"/><path d="M-49.804 30.614l.948-14.295-8.502 7.516z"/><path d="M-48.856 16.319l-.948 14.295 10.534-3.555z"/><path d="M-39.27 27.059l6.986-9.007-7.564-7.712z"/><path d="M-39.27 27.059l-.578-16.719-9.008 5.979zm-28.54 34.383l-7.768-8.669-3.366 12.228zM6.605 84.518l6.432-10.825L0 73.687z"/><path d="M-6.605 84.518h13.21L0 73.687zm-60.503 8.879l-12.832-4.803 2.06 11.468zm-11.836-28.396l13.028 7.181-1.894-10.74z"/><path d="M-67.81 61.442l1.894 10.74 9.8-9.784zm1.894 10.74l-4.243 9.97 11.92 1.556zm-4.243 9.97l4.243-9.97-14.362 3.829zm57.538 78.261l-6.359-11.08-6.253 11.222zM32.016 39.258l-6.582 11.979 11.909.237z"/><path d="M25.434 51.237l6.582-11.979-12.536 1.215zm-143.517 98.768l5.863 9.56 4.547-13.987zm41.723 54.742l6.505 11.145 6.211-11.075zM6.1 0H-6.1L0 10.869zm25.916 39.258l11.445 1.165-4.191-13.364zm11.445 1.165l-11.445-1.165 5.327 12.216zm0 0l6.27 11.025 6.814-10.775z"/><path d="M49.731 51.448l-6.27-11.025-6.118 11.051zm0 0l12.58-.574-5.766-10.201z"/><path d="M56.545 40.673l5.766 10.201 8.422-8.913zm19.033 12.1l-13.267-1.899 5.499 10.568z"/><path d="M62.311 50.874l13.267 1.899-4.845-10.812zm15.569 49.188l-14.68 3.596 11.256 6.794zm36.089 150.556l13.933 5.469-4.305-10.203z"/><path d="M113.969 250.618l5.676 13.031 8.257-7.562zm21.749-25.742l6.408 10.551 4.577-11.91zm-57.712 55.8l-3.722-11.077-7.906 11.451zm-3.722-11.077l12.39-.718-5.214-10.183zm0 0l3.722 11.077 8.668-11.795zm-181.103-30.82l-7.15 11.839 13.182-1.128zm0 0l-5.725-13.265-4.898 10.734z"/><path d="M-113.969 250.618l7.15-11.839-10.623-2.531z"/><path d="M-112.544 225.514l5.725 13.265 5.797-11.785zm5.725 13.265l12.348-.673-6.551-11.112zm12.348-.673l-12.348.673 6.032 10.711zm12.284-.043l-6.56 11.596 13.467-1.577z"/><path d="M-69.063 237.455l-13.124.608 6.907 10.019zm-13.124.608l-12.284.043 5.724 11.553zm4.181 42.613l-8.668-11.795-2.425 9.837zm-8.668-11.795l-13.15 6.342 10.725 3.495z"/><path d="M-99.824 275.223l13.15-6.342-8.759-7.05zm13.15-6.342l8.668 11.795 3.722-11.077zm5.214-10.183l-5.214 10.183 12.39.718zm-5.214 10.183l5.214-10.183-13.973 3.133zm18.235-10.375l-5.845 11.093 12.089-.299zm13.149-.282l-13.149.282 6.244 10.794zm-26.17.474l13.021-.192-6.841-10.424z"/><path d="M-68.439 258.506l-13.021.192 7.176 10.901zm-73.687-23.079l6.197 10.737 6.206-10.746zM-150 200.542l.879 12.045 9.521-9.257zm.879 12.045l14.122 1.585-4.601-10.842zm24.827 11.785l-5.429 11.046 12.281.83z"/><path d="M-112.544 225.514l-11.75-1.142 6.852 11.876zm17.111 36.317l-14.214 8.607 9.823 4.785z"/><path d="M-95.433 261.831l-11.458-1.808-2.756 10.415z"/><path d="M-106.891 260.023l11.458 1.808-5.354-12.341zm-7.078-9.405l7.078 9.405 6.104-10.533z"/><path d="M-119.645 263.649l12.754-3.626-7.078-9.405z"/><path d="M-106.891 260.023l-12.754 3.626 9.998 6.789zm-16.706-14.139l9.628 4.734-3.473-14.37zm0 0l-12.332.28 8.027 9.923z"/><path d="M-129.723 235.418l6.126 10.466 6.155-9.636z"/><path d="M-135.929 246.164l12.332-.28-6.126-10.466zm21.96 4.454l-13.933 5.469 8.257 7.562z"/><path d="M-113.969 250.618l-9.628-4.734-4.305 10.203zm202.916-90.742l-5.902-10.662-6.685 11.317zm-38.18 22.983l6.24-10.82-12.725-.236zm4.523 75.365l6.649-10.219-13.852 1.443zm33.457-8.565l-13.467-1.577 6.18 10.616zm-76.399-23.022l13.228-.936-6.821-10.208zm-44.193-11.433l13.09.289-6.487-10.933zm-31.127 11.649l5.879-11.104-12.762.143z"/><path d="M-57.093 215.749l-5.879 11.104 12.592-.102zm1.161 22.282l-7.04-11.178-6.091 10.602z"/><path d="M-62.972 226.853l7.04 11.178 5.552-11.28zm19.213 11.095l-12.173.083 7.845 11.417z"/><path d="M-55.932 238.031l12.173-.083-6.621-11.197zm11.564-22.327l-6.495-10.97-6.23 11.015zm-12.725.045l6.23-11.015-12.781.083z"/><path d="M-57.288 193.811l6.425 10.923 6.375-11.062z"/><path d="M-50.863 204.734l-6.425-10.923-6.356 11.006zm31.989-11l-12.773-.111 6.405 10.937zm-6.383-11.076l6.383 11.076 6.257-11.077z"/><path d="M-18.874 193.734l-6.383-11.076-6.39 10.965zm31.491-11.077l6.313-11.084-12.597-.016z"/><path d="M0 182.628l12.617.029-6.284-11.1zm-12.348 44.009l-8.536 9.613 10.382 2.805z"/><path d="M-10.502 239.055l-10.382-2.805-.215 12.045z"/><path d="M-21.099 248.295l.215-12.045-10.637 1.945zm10.597-9.24l-10.597 9.24 14.147 2.785zm-88.207-102.022l6.023-13.306-10.349 3.895zm-22.841 2.342l3.467 10.63 10.41-4.427z"/><path d="M-121.55 139.375l13.877 6.203-5.069-12.685zm8.808-6.482l14.033 4.14-4.326-9.411z"/><path d="M-98.709 137.033l-14.033-4.14 5.069 12.685zm22.611 3.968l-6.947 8.213 13.669 1.478zm2.887-10.423l-8.602-9.302-4.693 13.696zm-8.602-9.302l8.602 9.302 3.596-10.233zm-25.86 24.302l6.66 12.18 6.77-10.44zm6.66 12.18l-11.207 1.807 5.52 10.893z"/><path d="M-112.22 159.565l11.207-1.807-6.66-12.18zm133.319 88.73l7.932 9.51 6.636-9.001zm0 0L6.952 251.08l7.568 8.184zm7.932 9.51l-7.932-9.51-6.579 10.969zM-70.733 41.961l14.188-1.288-8.033-8.388z"/><path d="M-56.545 40.673l6.741-10.059-14.774 1.671zm30.428-11.804l-6.167-10.817-6.986 9.007zm14.112-18.03L-6.1 0l-12.456 1.939zM-6.1 0l-5.905 10.839L0 10.869zm-.264 62.673l-6.439-10.965-6.378 10.988zm19.401 11.02l-6.673-11.02L0 73.687zm6.144-10.997l-12.817-.023 6.673 11.02z"/><path d="M6.364 62.673H-6.364L0 73.687zm-40.446 43.204l-14.365.42 9.389 10.164zm21.045-32.184l6.432 10.825L0 73.687z"/><path d="M-6.364 62.673l-6.673 11.02L0 73.687z"/><path d="M-13.037 73.693l6.673-11.02-12.817.023zm0 0l-6.726 11.002 13.158-.177zM0 95.179l6.722 10.584 6.667-10.491z"/><path d="M6.722 105.763L0 95.179l-6.722 10.584zM0 95.179l6.605-10.661h-13.21zm6.605-10.661L0 95.179l13.389.093zm-76.764-2.366l3.051 11.245 8.869-9.689zm3.051 11.245l-3.051-11.245-9.781 6.442zm60.801 55.924l-6.314 11.092L0 160.538zm0 0l-12.673.012 6.359 11.08zM-18.98 149.333l12.673-.012-6.461-11.09z"/><path d="M-12.768 138.231l6.461 11.09L0 138.21zm6.461 11.09H6.307L0 138.21zm12.614 0H-6.307L0 160.538zm19.702-75.367l-6.828-11.258-6.144 10.997zm8.073 31.923l-13.819-.068 5.967 10.6zm28.229-55.003l-6.195 11.524 11.694-.956z"/><path d="M56.116 62.398l6.195-11.524-12.58.574zm.891 109.641l-6.431-11.129-6.294 10.893zm-76.474-44.768l12.975-.03-6.649-10.836z"/><path d="M-13.141 116.405l6.649 10.836L0 116.41zm6.649 10.836l-6.276 10.99L0 138.21z"/><path d="M-6.492 127.241l-12.975.03 6.699 10.96zm12.984 0H-6.492L0 138.21zm-12.984 0H6.492L0 116.41zm12.799 22.08l6.461-11.09L0 138.21zm6.461-11.09l6.212 11.102 6.542-11.016z"/><path d="M12.768 138.231l-6.461 11.09 12.673.012z"/><path d="M19.467 127.271l-6.699 10.96 12.754.086z"/><path d="M6.492 127.241l6.276 10.99 6.699-10.96z"/><path d="M12.768 138.231l-6.276-10.99L0 138.21zm7.495-32.422l-7.122 10.596 13.089.004zm-7.122 10.596l-6.419-10.642L0 116.41zm0 0l6.326 10.866 6.763-10.862zm0 0l7.122-10.596-13.541-.046z"/><path d="M13.141 116.405l-6.649 10.836 12.975.03z"/><path d="M6.492 127.241l6.649-10.836L0 116.41zm-131.759 32.753l-5.135-11.863-7.138 9.611zm-5.135-11.863l5.135 11.863 7.184-9.989z"/><path d="M-125.267 159.994l13.047-.429-5.863-9.56zm-10.154 32.518l-13.81-2.873-.769 10.903zm11.127 31.86l3.13-10.455-13.835.255zm3.13-10.455l-3.13 10.455 11.75 1.142zM32.016 39.258l-5.899-10.389-6.637 11.604zm-5.899-10.389l5.899 10.389 7.254-12.199zm-12.078.517l12.078-.517-5.406-11.952z"/><path d="M26.117 28.869l-12.078.517 5.441 11.087zm-12.078.517l-7.262-8.213L0 31.056zm-7.262-8.213l7.262 8.213 6.672-12.469zm43.027 9.441l14.774 1.671-7.22-8.45zm0 0l-.948-14.295-9.586 10.74zm-.948-14.295l.948 14.295 7.554-6.779z"/><path d="M64.578 32.285l-14.774-1.671 6.741 10.059zm-14.774-1.671l-6.343 9.809 13.084.25z"/><path d="M43.461 40.423l6.343-9.809-10.534-3.555zm23.647 52.974l12.832-4.803-9.781-6.442zm10.772 6.665l-10.772-6.665-3.908 10.261z"/><path d="M67.108 93.397l10.772 6.665 2.06-11.468zm-21.986 35.134l14.027-.764-8.545-9.212z"/><path d="M59.149 127.767l-14.027.764 6.128 10.133zm1.146-14.003l2.905-10.106-14.753 2.639zm-1.146 14.003l1.146-14.003-9.691 4.791zm1.146-14.003l9.32 6.581 4.841-9.893z"/><path d="M60.295 113.764l14.161-3.312-11.256-6.794zm46.596 146.259l7.078-9.405-13.182-1.128zm-11.458 1.808l11.458-1.808-6.104-10.533zm0 0l4.391 13.392 9.823-4.785z"/><path d="M95.433 261.831l14.214 8.607-2.756-10.415z"/><path d="M106.891 260.023l12.754 3.626-5.676-13.031zm12.754 3.626l-12.754-3.626 2.756 10.415zm22.481-28.222l-12.403-.009 6.206 10.746z"/><path d="M135.929 246.164l-6.206-10.746-6.126 10.466z"/><path d="M129.723 235.418l12.403.009-6.408-10.551zm-212.357-19.691l6.274-10.98-12.699-.115zm6.274-10.98l-6.274 10.98 12.779.165zm-19.098 10.946l12.824.034-6.425-11.095zm33.519 32.312l6.007-9.974-13.131-.576zm0 0l-7.124-10.55-6.217 10.627zm0 0l6.649 10.219 7.203-8.776z"/><path d="M-55.932 238.031l-6.007 9.974 13.852 1.443zm-6.007 9.974l-6.5 10.501 13.149-.282zm-6.5 10.501l6.5-10.501-13.341.077zm-73.687-23.079l6.408-10.551-10.985-1.359zm7.127-21.255l-11.704 9.345 10.985 1.359zm-.719 10.704l-6.408 10.551 12.403-.009z"/><path d="M-134.999 214.172l-14.122-1.585 2.418 10.93zm-.719 10.704l11.424-.504-10.705-10.2z"/><path d="M-124.294 224.372l-11.424.504 5.995 10.542zm236.514-64.807l-4.547-13.987-6.66 12.18zm-17.977-12.247l-5.296 12.558 12.066-2.118z"/><path d="M107.673 145.578l-13.43 1.74 6.77 10.44zm-13.43 1.74l-11.198 1.896 5.902 10.662zm41.178 45.194l-9.696-10.527-4.19 10.842zm-21.452 58.106l-7.15-11.839-6.032 10.711zm-82.322-56.995l-6.405 10.937 12.915-.092z"/><path d="M25.242 204.56l6.405-10.937-12.773.111zm15.663 56.736l-11.874-3.491 3.454 14.221zm-5.238-12.492l5.238 12.492 7.182-11.848zm5.238 12.492l-8.42 10.73 10.013 4.377z"/><path d="M29.031 257.805l11.874 3.491-5.238-12.492zm26.259.419l-14.385 3.072 9.049 6.78z"/><path d="M40.905 261.296l14.385-3.072-7.203-8.776zm21.29 8.004l-7.699 10.381 11.882 1.369zm-7.699 10.381l7.699-10.381-12.241-1.224zm19.788-10.082l-12.089-.299 4.183 11.75z"/><path d="M62.195 269.3l-6.905-11.076-5.336 9.852zm-18.436-31.352l-8.092 10.856 12.42.644z"/><path d="M55.932 238.031l-12.173-.083 4.328 11.5zm-12.173-.083l6.621-11.197-12.598.054z"/><path d="M50.38 226.751l-6.621 11.197 12.173.083zm0 0l-6.012-11.047-6.586 11.101zm-12.223-22.283l6.211 11.236 6.495-10.97zM-6.952 251.08L0 240.923l-10.502-1.868zM0 240.923l10.502-1.868L0 228.692zm10.502-1.868L0 240.923l6.952 10.157zm-48.284-12.25l5.937-11.601-12.523.5z"/><path d="M-37.782 226.805l-6.586-11.101-6.012 11.047zm0 0l-5.977 11.143 12.238.247z"/><path d="M-43.759 237.948l5.977-11.143-12.598-.054zm5.602-33.48l6.312 10.736 6.603-10.644zm6.51-10.845l-6.51 10.845 12.915.092z"/><path d="M-38.157 204.468l6.51-10.845-12.841.049zm6.312 10.736l-6.312-10.736-6.211 11.236zm-6.312-10.736l-12.706.266 6.495 10.97z"/><path d="M-50.863 204.734l12.706-.266-6.331-10.796zm.096-21.875l-6.24-10.82-6.592 10.785zm-12.478-21.562l6.325-11.264-12.456.659zM0 228.692l-12.348-2.055 1.846 12.418zm0 0l10.502 10.363 1.846-12.418zm0 12.231v-12.231l-10.502 10.363zm12.617-58.266l-6.345 11.094 12.602-.017zm-6.345 11.094l6.345-11.094L0 182.628zm-25.027 21.742l6.345-10.601-12.832-.332z"/><path d="M-12.41 204.892l-6.464-11.158-6.368 10.826zm-37.544 63.184l-4.542 11.605 11.998-3.278zm0 0l-5.336-9.852-6.905 11.076z"/><path d="M-54.496 279.681l4.542-11.605-12.241 1.224z"/><path d="M-49.954 268.076l9.049-6.78-14.385-3.072zm7.456 8.327l1.593-15.107-9.049 6.78z"/><path d="M-42.498 276.403l10.013-4.377-8.42-10.73zm21.399-28.108l6.579 10.969 7.568-8.184zm-14.568.509l-8.092-10.856-4.328 11.5z"/><path d="M-43.759 237.948l8.092 10.856 4.146-10.609zm2.854 23.348l5.238-12.492-12.42.644zm5.238-12.492l14.568-.509-10.422-10.1zm-57.019-125.077l6.18 11.245 4.693-13.696zm6.18 11.245l-12.203 2.061 4.466 10.285zm13.295-4.394l-13.295 4.394 10.408 6.029z"/><path d="M-86.506 134.972l-6.18-11.245-6.023 13.306zm0 0l3.461 14.242 6.947-8.213z"/><path d="M-83.045 149.214l-3.461-14.242-7.737 12.346zm6.685 11.317l13.115.766-6.131-10.605z"/><path d="M-83.045 149.214l6.685 11.317 6.984-9.839zm34.598-42.917l-2.157 12.258 11.546-2.094zm-27.913 98.45l-6.446-11.188-6.253 11.073zm-12.544-22.638l-6.166-11.764-6.06 11.612z"/><path d="M-95.07 170.345l-11.63.113 5.57 11.499zm0 0l6.166 11.764 6.344-10.769z"/><path d="M-95.07 170.345l-5.943-12.587-5.687 12.7zm116.169 77.95l-10.597-9.24-3.55 12.025zm-.215-12.045l4.692-10.549-13.228.936z"/><path d="M10.502 239.055l10.382-2.805-8.536-9.613zm10.597 9.24l-.215-12.045-10.382 2.805zm-83.41-197.421l-5.499 10.568 11.694.956z"/><path d="M-49.731 51.448l-12.58-.574 6.195 11.524zm-25.847 1.325l13.267-1.899-8.422-8.913zm13.267-1.899l-13.267 1.899 7.768 8.669zm0 0l5.766-10.201-14.188 1.288z"/><path d="M-56.545 40.673l-5.766 10.201 12.58.574zm6.741-10.059l6.343 9.809 4.191-13.364z"/><path d="M-37.343 51.474l-6.118-11.051-6.27 11.025z"/><path d="M-56.545 40.673l13.084-.25-6.343-9.809zm13.084-.25l-13.084.25 6.814 10.775zm22.75-23.506l-5.406 11.952 12.078.517zm-5.406 11.952l5.406-11.952-11.573 1.135zm0 0l6.637 11.604 5.441-11.087zm12.078.517l-5.441 11.087 12.637.173zm-5.441 11.087l6.677 11.235 5.96-11.062zm33.519-11.087l-7.196 11.26 12.637-.173zm-20.882 11.26H6.843L0 31.056z"/><path d="M6.843 40.646l7.196-11.26L0 31.056zm-50.731 22.112l-5.843-11.31-6.385 10.95zm0 0l6.545-11.284-12.388-.026zm0 0l12.329.091-5.784-11.375zm23.625 43.051l7.122 10.596 6.419-10.642zM-45.72 84.665l5.249 11.131 7.567-10.855z"/><path d="M-34.082 105.877l-6.389-10.081-7.976 10.501zm14.319-21.182l-6.246-10.741-6.895 10.987zm-11.796-21.846l5.55 11.105 6.828-11.258zm18.522 10.844l-12.972.261 6.246 10.741z"/><path d="M-26.009 73.954l12.972-.261-6.144-10.997zm-51.871 26.108l3.424 10.39 11.256-6.794zm58.9 49.271l-12.616.291 6.363 10.931zm86.088-55.936l-13.467 1.841 9.559 8.42zm-8.869-9.689l8.869 9.689 3.051-11.245zm0 0l-4.598 11.53 13.467-1.841zm-4.598 11.53l4.598-11.53-12.519.957zM32.904 84.941l6.06-11.035-12.955.048z"/><path d="M38.964 73.906l-6.06 11.035 12.816-.276zm-6.552 53.507l6.646-10.952-12.828-.052zm6.646-10.952l-4.976-10.584-7.852 10.532zm6.064 12.07l-6.064-12.07-6.646 10.952zm-6.064-12.07l6.064 12.07 5.482-9.976zm24.187 44.836l-12.669-.387 6.431 11.129zm-188.97 20.688l-9.696 10.527 13.886.315zm-1.696 21.346l-8-10.819-4.179 10.818z"/><path d="M-134.999 214.172l7.578-10.841-12.179-.001zm-.422-21.66l8 10.819 5.886-10.504z"/><path d="M-121.164 213.917l-6.257-10.586-7.578 10.841zm25.706 1.776l-12.591-.874 7.027 12.175z"/><path d="M-108.049 214.819l-4.495 10.695 11.522 1.48z"/><path d="M-108.049 214.819l-13.115-.902 8.62 11.597zM39.848 10.34l-.578 16.719 9.586-10.74zm0 0l-7.564 7.712 6.986 9.007z"/><path d="M29.063 5.206l3.221 12.846 7.564-7.712z"/><path d="M32.284 18.052L29.063 5.206l-8.352 11.711z"/><path d="M26.117 28.869l6.167-10.817-11.573-1.135z"/><path d="M32.284 18.052l-6.167 10.817 13.153-1.81zm-20.279-7.213L6.1 0 0 10.869z"/><path d="M6.1 0l5.905 10.839 6.551-8.9zm12.456 1.939l2.155 14.978 8.352-11.711zm0 0l-6.551 8.9 8.706 6.078z"/><path d="M12.005 10.839L6.777 21.173l13.934-4.256zM6.777 21.173l5.228-10.334L0 10.869zm66.434 109.405l2.887 10.423 10.408-6.029zm0 0l8.602-9.302-12.198-.931zm-14.062-2.811l10.466-7.422-9.32-6.581zm0 0l14.062 2.811-3.596-10.233zm-147.693 99.011l-6.914-11.085-5.564 11.301z"/><path d="M-94.471 238.106l5.927-11.328-12.478.216zm12.284-.043l-6.357-11.285-5.927 11.328zm-6.357-11.285l5.91-11.051-12.824-.034zm226.084-69.036l-7.138-9.611-5.135 11.863zm2.06 45.588l9.521 9.257.879-12.045zm-4.179-10.818l4.179 10.818 10.4-2.788z"/><path d="M135.421 192.512l14.579 8.03-.769-10.903zm-23.201-32.947l6.823 11.244 6.224-10.815z"/><path d="M149.231 189.639l-12.072-8.235-1.738 11.108z"/><path d="M137.159 181.404l12.072 8.235-2.336-11.035zm0 0l-11.434.581 9.696 10.527zm-42.688 56.702l-5.724 11.553 12.04-.169zm12.348.673l-12.348-.673 6.316 11.384zm-43.574-77.482l6.689 10.463 6.426-11.229zm6.689 10.463l-6.689-10.463-6.238 10.742zm54.36 52.612l5.429 11.046 5.995-10.542zm-99.037-41.714l6.34-11.021-12.667-.064zm-12.64-.001l12.64.001-6.327-11.085z"/><path d="M25.257 182.658l-12.64-.001 6.257 11.077z"/><path d="M31.647 193.623l-6.39-10.965-6.383 11.076zm12.841.049l-6.331 10.796 12.706.266z"/><path d="M44.488 193.672l-12.841-.049 6.51 10.845zm30.792 54.41l-6.841 10.424 13.021.192zm-19.99 10.142l13.149.282-6.5-10.501zm13.149.282l5.845 11.093 7.176-10.901z"/><path d="M68.439 258.506l6.841-10.424-13.341-.077zM62.195 269.3l6.244-10.794-13.149-.282z"/><path d="M68.439 258.506L62.195 269.3l12.089.299zm-36.594-43.302l-6.603-10.644-6.487 10.933zm-6.269 10.497l6.269-10.497-13.09.289zm6.269-10.497l-6.269 10.497 12.206 1.104zm-6.603-10.644l6.603 10.644 6.312-10.736zm6.603 10.644l12.523.5-6.211-11.236z"/><path d="M44.368 215.704l-12.523-.5 5.937 11.601zm-69.944 9.997l13.228.936-6.407-11.144z"/><path d="M-31.845 215.204l6.269 10.497 6.821-10.208z"/><path d="M-20.884 236.25l-4.692-10.549-5.945 12.494z"/><path d="M-25.576 225.701l4.692 10.549 8.536-9.613z"/><path d="M-37.782 226.805l12.206-1.104-6.269-10.497z"/><path d="M-25.576 225.701l-12.206 1.104 6.261 11.39zm-37.979-86.586l-9.656-8.537-2.887 10.423zm0 0l-12.543 1.886 6.722 9.691zm0 0l6.635 10.918 5.67-11.369z"/><path d="M-56.92 150.033l-6.635-10.918-5.821 11.577zm37.99 21.54l12.597-.016-6.288-11.144z"/><path d="M-18.93 171.573l6.309-11.16-12.612.142z"/><path d="M-6.333 171.557l-12.597.016 6.313 11.084zm-12.597.016l-6.327 11.085 12.64-.001zm0 0l-12.667.064 6.34 11.021z"/><path d="M-31.597 171.637l12.667-.064-6.303-11.018zm-.05 21.986l-6.339-10.916-6.502 10.965zm-6.339-10.916l-12.781.152 6.279 10.813z"/><path d="M-25.257 182.658l-12.729.049 6.339 10.916zm-6.34-11.021l-6.389 11.07 12.729-.049zm37.559 44.736l6.386 10.264 6.407-11.144z"/><path d="M5.962 216.373L0 228.692l12.348-2.055zm-12.234-22.622H6.272L0 182.628z"/><path d="M-6.272 193.751L0 182.628l-12.617.029z"/><path d="M-18.874 193.734l12.602.017-6.345-11.094zm25.146.017H-6.272L0 204.97z"/><path d="M-6.272 193.751l-6.138 11.141L0 204.97z"/><path d="M-12.41 204.892l6.138-11.141-12.602-.017zm-20.075 67.134l3.454-14.221-11.874 3.491zm3.454-14.221l-3.454 14.221 9.413-5.756z"/><path d="M-14.52 259.264l-14.511-1.459 5.959 8.465z"/><path d="M-29.031 257.805l14.511 1.459-6.579-10.969zm-6.636-9.001l6.636 9.001 7.932-9.51z"/><path d="M-29.031 257.805l-6.636-9.001-5.238 12.492zm-27.976-85.766l-12.927-.279 6.335 11.064z"/><path d="M-69.934 171.76l12.927.279-6.238-10.742z"/><path d="M-76.36 160.531l6.426 11.229 6.689-10.463z"/><path d="M-69.934 171.76l-6.426-11.229-6.2 10.809zm24.812-43.229l12.71-1.118-6.646-10.952z"/><path d="M-50.604 118.555l5.482 9.976 6.064-12.07zm-44.787 74.712l6.487-11.158-12.226-.152zm-12.822-.282l12.822.282-5.739-11.31z"/><path d="M-95.391 193.267l12.585.292-6.098-11.45z"/><path d="M-82.806 193.559l-12.585-.292 6.332 11.365zm25.518.252l-12.769-.038 6.413 11.044z"/><path d="M-70.057 193.773l12.769.038-6.311-10.987zm0 0l-6.303 10.974 12.716.07z"/><path d="M-70.057 193.773l-12.749-.214 6.446 11.188zm-18.89-33.897l5.902-10.662-11.198-1.896zm-12.066-2.118l12.066 2.118-5.296-12.558zm24.653 2.773l-12.587-.655 6.387 11.464zm-12.587-.655l12.587.655-6.685-11.317z"/><path d="M-95.07 170.345l6.123-10.469-12.066-2.118z"/><path d="M-88.947 159.876l-6.123 10.469 12.51.995zm120.468 78.319l-10.422 10.1 14.568.509zm-5.945-12.494l5.945 12.494 6.261-11.39z"/><path d="M43.759 237.948l-12.238.247 4.146 10.609zm-12.238.247l12.238-.247-5.977-11.143zm0 0l-10.637-1.945.215 12.045zm-10.637-1.945l10.637 1.945-5.945-12.494zM-12.005 10.839l5.228 10.334L0 10.869z"/><path d="M-6.777 21.173l-7.262 8.213L0 31.056zm0 0H6.777L0 10.869z"/><path d="M6.777 21.173H-6.777L0 31.056zm-27.488-4.256l13.934 4.256-5.228-10.334zm13.934 4.256l-13.934-4.256 6.672 12.469zM-18.556 1.939l-10.507 3.267 8.352 11.711z"/><path d="M-32.284 18.052l3.221-12.846-10.785 5.134zm11.573-1.135l-8.352-11.711-3.221 12.846z"/><path d="M-18.556 1.939l-2.155 14.978 8.706-6.078zm-6.878 49.298l-6.125 11.612 12.378-.153zm12.631.471l-12.631-.471 6.253 11.459zm-18.756 11.141l6.125-11.612-11.909.237zm12.079-22.376l-5.954 10.764 12.631.471zm44.914 10.764l-12.631.471 6.378 10.988z"/><path d="M12.803 51.708l12.631-.471-5.954-10.764zm0 0L6.364 62.673l12.817.023z"/><path d="M6.843 40.646l5.96 11.062 6.677-11.235zM-45.72 84.665l-6.418-11.267-6.101 10.31zm-20.196-12.483l13.778 1.216-3.978-11zm13.778 1.216l-13.778-1.216 7.677 11.526z"/><path d="M-52.138 73.398l8.25-10.64-12.228-.36zm25.908 43.011l6.763 10.862 6.326-10.866zm0 0l-7.852-10.532-4.976 10.584zm-6.182 11.004l6.182-11.004-12.828.052zm6.182-11.004l-6.182 11.004 12.945-.142z"/><path d="M-26.23 116.409l5.967-10.6-13.819.068z"/><path d="M-20.263 105.809l-5.967 10.6 13.089-.004zm.5-21.114l6.374 10.577 6.784-10.754zM0 95.179l-13.389.093 6.667 10.491z"/><path d="M-13.389 95.272L0 95.179l-6.605-10.661zm0 0l-6.874 10.537 13.541-.046zm-40.252-.034l7.921-10.573-12.519-.957zm-13.467-1.841l13.467 1.841-4.598-11.53zm26.637 2.399l-13.17-.558 5.194 11.059zm-13.17-.558l13.17.558-5.249-11.131zm-20.815 15.214l14.161 3.312-2.905-10.106zm15.307 17.315l-10.466-7.422-3.596 10.233zm39.682-.496l-6.055 11.046 12.754-.086z"/><path d="M-32.412 127.413l6.89 10.904 6.055-11.046zm6.89 10.904l6.542 11.016 6.212-11.102z"/><path d="M-25.522 138.317l-6.074 11.307 12.616-.291zm-31.485 33.722l6.431-11.129-12.669.387zm6.431-11.129l-6.344-10.877-6.325 11.264zM6.605 84.518l13.158.177-6.726-11.002z"/><path d="M19.763 84.695l-13.158-.177 6.784 10.754zm0 0l6.246-10.741-12.972-.261zm0 0l13.141.246-6.895-10.987zm20.708 11.101l13.17-.558-7.921-10.573z"/><path d="M32.904 84.941l7.567 10.855 5.249-11.131zm46.04-19.94l-13.028 7.181 14.362 3.829z"/><path d="M80.278 76.011l-14.362-3.829 4.243 9.97zM56.116 62.398l9.8 9.784 1.894-10.74zm9.8 9.784l-7.677 11.526 11.92-1.556zm-34.357-9.333l-6.125-11.612-6.253 11.459zm-6.125-11.612l6.125 11.612 5.784-11.375z"/><path d="M26.009 73.954l5.55-11.105-12.378-.153zm12.955-.048l-7.405-11.057-5.55 11.105zm-1.017 86.738l-6.35 10.993 12.685.166zm12.629.266l-12.629-.266 6.335 11.159zm-6.175-11.259l-6.454 10.993 12.629.266zm.721-21.12l-6.98 10.318 13.108-.185zm-6.98 10.318l6.98-10.318-12.71-1.118z"/><path d="M38.142 138.849l-5.73-11.436-6.89 10.904zm0 0l6.259 10.802 6.849-10.987zm31.234 11.843l13.669-1.478-6.947-8.213zm13.669-1.478l-13.669 1.478 6.984 9.839zm-13.669 1.478l-6.131 10.605 13.115-.766zM-106.7 170.458l-6.737 11.506 12.307-.007zm-6.737 11.506l5.224 11.021 7.083-11.028z"/><path d="M-108.213 192.985l-5.224-11.021-8.098 10.863z"/><path d="M-113.437 181.964l-12.288.021 4.19 10.842zm-23.722-.56l-5.879-13.397-3.857 10.597z"/><path d="M-149.231 189.639l12.072-8.235-9.736-2.8zm13.81 2.873l-1.738-11.108-12.072 8.235z"/><path d="M-125.725 181.985l-11.434-.581 1.738 11.108zm11.327 21.594l6.185-10.594-13.322-.158z"/><path d="M-127.421 203.331l13.023.248-7.137-10.752zm13.023.248l-13.023-.248 6.257 10.586z"/><path d="M-108.049 214.819l-6.349-11.24-6.766 10.338zm220.791-81.926l-14.033 4.14 8.964 8.545z"/><path d="M98.709 137.033l14.033-4.14-9.707-5.271zm0 0l-4.466 10.285 13.43-1.74z"/><path d="M92.686 123.727l6.023 13.306 4.326-9.411zM-75.953 226.864l-6.234 11.199 13.124-.608zm0 0l12.981-.011-6.883-10.961z"/><path d="M-62.972 226.853l-12.981.011 6.89 10.591zm-19.662-11.126l6.681 11.137 6.098-10.972z"/><path d="M-88.544 226.778l12.591.086-6.681-11.137zm12.591.086l-12.591-.086 6.357 11.285zm183.626-81.286l10.41 4.427 3.467-10.63z"/><path d="M107.673 145.578l13.877-6.203-8.808-6.482zm4.547 13.987l5.863-9.56-10.41-4.427zm5.863-9.56l-5.863 9.56 13.047.429z"/><path d="M130.402 148.131l-12.319 1.874 7.184 9.989z"/><path d="M118.083 150.005l12.319-1.874-8.852-8.756zm9.338 53.326l8-10.819-13.886.315z"/><path d="M127.421 203.331l12.179-.001-4.179-10.818zM106.7 170.458l5.52-10.893-11.207-1.807zm0 0l12.343.351-6.823-11.244zm36.338-2.451l-5.879 13.397 9.736-2.8zm-80.066 58.846l-12.592-.102 5.552 11.28zm66.751 8.565l-12.281.83 6.155 9.636z"/><path d="M117.442 236.248l-3.473 14.37 9.628-4.734z"/><path d="M117.442 236.248l-10.623 2.531 7.15 11.839zm6.852-11.876l-6.852 11.876 12.281-.83zm-99.037-41.714l12.729.049-6.389-11.07zm6.34-11.021l6.389 11.07 6.296-10.904z"/><path d="M37.986 182.707l12.781.152-6.485-11.056zm0 0l-12.729-.049 6.39 10.965zm6.502 10.965l-6.502-10.965-6.339 10.916z"/><path d="M37.986 182.707l6.502 10.965 6.279-10.813zM25.242 204.56l-12.832.332 6.345 10.601zm-12.832.332l-6.138-11.141L0 204.97z"/><path d="M12.41 204.892l12.832-.332-6.368-10.826z"/><path d="M6.272 193.751l6.138 11.141 6.464-11.158zm-.31 22.622l6.448-11.481L0 204.97zm6.448-11.481l-6.448 11.481 12.793-.88zm-24.758 21.745l6.386-10.264-12.793-.88zM0 228.692l-5.962-12.319-6.386 10.264zm-12.41-23.8l6.448 11.481L0 204.97z"/><path d="M-5.962 216.373l-6.448-11.481-6.345 10.601zm11.924 0H-5.962L0 228.692zm-11.924 0H5.962L0 204.97zm-82.942-34.264l12.589.55-6.245-11.319zm6.098 11.45l6.491-10.9-12.589-.55zm12.872-21.799l-6.381 10.899 12.716.165z"/><path d="M-76.315 182.659l6.381-10.899-12.626-.42zm6.258 11.114l-6.258-11.114-6.491 10.9z"/><path d="M-76.315 182.659l6.258 11.114 6.458-10.949zm32.854-142.236l11.445-1.165-7.254-12.199z"/><path d="M-32.016 39.258l5.899-10.389-13.153-1.81zm0 0l-11.445 1.165 6.118 11.051zm0 0l12.536 1.215-6.637-11.604z"/><path d="M-32.016 39.258l6.582 11.979 5.954-10.764zm6.582 11.979l-6.582-11.979-5.327 12.216zm12.631.471L0 51.439l-6.843-10.793zM0 51.439l-12.803.269 6.439 10.965zm6.364 11.234L0 51.439l-6.364 11.234z"/><path d="M0 51.439l6.843-10.793H-6.843zm0 0l12.803.269-5.96-11.062zm12.803.269L0 51.439l6.364 11.234zm-56.691 11.05l4.924 11.148 7.405-11.057zm4.924 11.148l-6.756 10.759 12.816.276zm12.955.048l-12.955-.048 6.06 11.035z"/><path d="M-38.964 73.906l12.955.048-5.55-11.105zm-13.174-.508l13.174.508-4.924-11.148zm13.174.508l-13.174-.508 6.418 11.267zm12.097 21.566l7.104-10.777-13.141.246zm6.604 10.337l-6.604-10.337-7.215 10.405z"/><path d="M-40.471 95.796l13.604-.324-6.037-10.531z"/><path d="M-26.867 95.472l-13.604.324 6.389 10.081zm13.478-.2l-13.478.2 6.604 10.337zm-13.478.2l13.478-.2-6.374-10.577zm-51.013 4.59l14.68 3.596-3.908-10.261zm17.585 13.702l11.848-7.467-14.753-2.639zm6.654-18.526l-9.559 8.42 14.753 2.639z"/><path d="M-63.2 103.658l9.559-8.42-13.467-1.841zm-11.256 6.794l4.841 9.893 9.32-6.581zm14.161 3.312l9.691 4.791 2.157-12.258zm1.146 14.003l-4.406 11.348 12.305-.451z"/><path d="M-45.122 128.531l-14.027-.764 7.899 10.897zm-18.433 10.584l4.406-11.348-14.062 2.811zm4.406-11.348l14.027.764-5.482-9.976zm0 0l-1.146-14.003-9.32 6.581z"/><path d="M-60.295 113.764l1.146 14.003 8.545-9.212zm22.153 25.085l-6.98-10.318-6.128 10.133z"/><path d="M-45.122 128.531l6.98 10.318 5.73-11.436zm19.6 9.786l-12.62.532 6.546 10.775z"/><path d="M-38.142 138.849l12.62-.532-6.89-10.904zm.156 43.858l-6.296-10.904-6.485 11.056zm-6.296-10.904l-12.725.236 6.24 10.82z"/><path d="M-44.282 171.803l6.296 10.904 6.389-11.07zm0 0l-6.294-10.893-6.431 11.129zm97.923-76.565l-5.194 11.059 14.753-2.639zm6.654 18.526l-11.848-7.467 2.157 12.258z"/><path d="M48.447 106.297l-9.389 10.164 11.546 2.094zm-9.389 10.164l9.389-10.164-14.365-.42z"/><path d="M40.471 95.796l7.976 10.501 5.194-11.059z"/><path d="M48.447 106.297l-7.976-10.501-6.389 10.081zm-21.58-10.825l-7.104-10.777-6.374 10.577zm-6.604 10.337l6.604-10.337-13.478-.2zm13.819.068l-7.215-10.405-6.604 10.337z"/><path d="M19.763 84.695l7.104 10.777 6.037-10.531zm7.104 10.777l13.604.324-7.567-10.855zm13.604.324l-13.604-.324 7.215 10.405zm11.667-22.398l-13.174.508 6.756 10.759zm6.101 10.31l-6.101-10.31-6.418 11.267z"/><path d="M65.916 72.182l-13.778 1.216 6.101 10.31z"/><path d="M52.138 73.398l13.778-1.216-9.8-9.784zm-39.517 87.015l12.612.142-6.253-11.222zm12.612.142l-12.612-.142 6.309 11.16zm6.364 11.082l-6.364-11.082-6.303 11.018zm6.35-10.993l-12.714-.089 6.364 11.082zm18.973-10.611l-12.519-.382 6.175 11.259zm-12.519-.382l12.519.382-5.67-11.369z"/><path d="M63.245 161.297l-6.325-11.264-6.344 10.877z"/><path d="M69.376 150.692l-12.456-.659 6.325 11.264zm-181.596 8.873l-6.823 11.244 12.343-.351z"/><path d="M-125.267 159.994l6.224 10.815 6.823-11.244zm11.83 21.97l-5.606-11.155-6.682 11.176z"/><path d="M-119.043 170.809l5.606 11.155 6.737-11.506zm17.429 33.35l-6.435 10.66 12.591.874zm6.223-10.892l-6.223 10.892 12.555.473z"/><path d="M-101.614 204.159l6.156 11.534 6.399-11.061zm0 0l6.223-10.892-12.822-.282zm0 0l-12.784-.58 6.349 11.24z"/><path d="M-114.398 203.579l12.784.58-6.599-11.174zm187.609-73.001l13.295 4.394-4.693-13.696zm9.834 18.636l3.461-14.242-10.408 6.029zm11.198-1.896l-7.737-12.346-3.461 14.242z"/><path d="M86.506 134.972l6.18-11.245-10.873-2.451zm0 0l12.203 2.061-6.023-13.306z"/><path d="M98.709 137.033l-12.203-2.061 7.737 12.346zM139.6 203.33l-4.601 10.842 14.122-1.585z"/><path d="M134.999 214.172l.719 10.704 10.985-1.359z"/><path d="M134.999 214.172l-10.705 10.2 11.424.504z"/><path d="M124.294 224.372l10.705-10.2-13.835-.255zm3.127-21.041l7.578 10.841 4.601-10.842zm7.578 10.841l-7.578-10.841-6.257 10.586zm-13.835-.255l-6.766-10.338-6.349 11.24zm-6.766-10.338l-12.784.58 6.435 10.66zm0 0l13.023-.248-5.886-10.504z"/><path d="M127.421 203.331l-13.023.248 6.766 10.338z"/><path d="M108.213 192.985l6.185 10.594 7.137-10.752z"/><path d="M114.398 203.579l-6.185-10.594-6.599 11.174zm4.645-32.77l12.533-.495-6.309-10.32z"/><path d="M131.576 170.314l5.964-12.572-12.273 2.252zm0 0l-12.533.495 6.682 11.176zm5.583 11.09l-5.583-11.09-5.851 11.671zm5.879-13.397l-11.462 2.307 5.583 11.09zm-11.462 2.307l11.462-2.307-5.498-10.265zm-30.554 56.68l-6.551 11.112 12.348.673z"/><path d="M101.022 226.994l-12.478-.216 5.927 11.328zm-12.478-.216l-6.357 11.285 12.284.043zm-6.357 11.285l-6.907 10.019 13.467 1.577z"/><path d="M94.471 238.106l-12.284-.043 6.56 11.596zm-50.103-22.402l12.725.045-6.23-11.015zm12.725.045l-12.725-.045 6.012 11.047zm0 0l5.879 11.104 6.883-10.961zm5.879 11.104l-5.879-11.104-6.713 11.002zm-18.484-33.181l12.8.139-6.521-10.952z"/><path d="M57.288 193.811l-12.8-.139 6.375 11.062zM-50.576 160.91l6.175-11.259-12.519.382zm-6.344-10.877l12.519-.382-6.849-10.987zm18.778-11.184l-6.259 10.802 12.805-.027z"/><path d="M-44.401 149.651l6.259-10.802-13.108-.185zm75.96-86.802l12.329-.091-6.545-11.284zm12.329-.091l5.843-11.31-12.388.026zm0 0l12.228-.36-6.385-10.95zm0 0l-12.329.091 7.405 11.057z"/><path d="M52.138 73.398l-8.25-10.64-4.924 11.148z"/><path d="M43.888 62.758l8.25 10.64 3.978-11zm-12.292 86.866l6.351 11.02 6.454-10.993zm0 0l6.546-10.775-12.62-.532zm-12.616-.291l12.616.291-6.074-11.307zm19.162-10.484l-6.546 10.775 12.805.027z"/><path d="M31.596 149.624l-6.363 10.931 12.714.089z"/><path d="M25.233 160.555l6.363-10.931-12.616-.291zm38.322-21.44l-4.406-11.348-7.899 10.897zm9.656-8.537l-9.656 8.537 12.543 1.886z"/><path d="M63.555 139.115l9.656-8.537-14.062-2.811zm0 0l5.821 11.577 6.722-9.691z"/><path d="M63.555 139.115l-6.635 10.918 12.456.659zm-6.635 10.918l6.635-10.918-12.305-.451zm-199.958 17.974l11.462 2.307-5.964-12.572z"/><path d="M-137.159 181.404l5.583-11.09-11.462-2.307zm5.583-11.09l6.309-10.32-12.273-2.252zm0 0l-5.583 11.09 11.434.581z"/><path d="M-119.043 170.809l-12.533-.495 5.851 11.671zm-12.533-.495l12.533.495-6.224-10.815zm250.619.495l-5.606 11.155 12.288.021zm6.682 11.176l-12.288-.021 8.098 10.863zM106.7 170.458l6.737 11.506 5.606-11.155zm6.737 11.506l-5.224 11.021 13.322-.158zM76.36 204.747l6.274 10.98 6.425-11.095z"/><path d="M82.634 215.727l-6.274-10.98-6.505 11.145zm29.91 9.787l8.62-11.597-13.115.902zm0 0l11.75-1.142-3.13-10.455z"/><path d="M117.442 236.248l-4.898-10.734-5.725 13.265z"/><path d="M112.544 225.514l4.898 10.734 6.852-11.876zm0 0l-11.522 1.48 5.797 11.785z"/><path d="M101.022 226.994l11.522-1.48-4.495-10.695zm.592-22.835l-6.156 11.534 12.591-.874z"/><path d="M95.458 215.693l6.156-11.534-12.555.473z"/><path d="M82.634 215.727l12.824-.034-6.399-11.061zm12.824-.034l-12.824.034 5.91 11.051zm5.564 11.301l-5.564-11.301-6.914 11.085z"/><path d="M95.458 215.693l5.564 11.301 7.027-12.175zM75.28 248.082l-6.217-10.627-7.124 10.55z"/><path d="M61.939 248.005l7.124-10.55-13.131.576z"/><path d="M69.063 237.455l-6.091-10.602-7.04 11.178zm13.124.608l-13.124-.608 6.217 10.627zm-31.42-55.204l12.832-.035-6.592-10.785z"/><path d="M63.599 182.824l6.335-11.064-12.927.279zm0 0l-6.311 10.987 12.769-.038z"/><path d="M57.288 193.811l6.311-10.987-12.832.035zm-95.235-33.167l-6.335 11.159 12.685-.166z"/><path d="M-37.947 160.644l6.35 10.993 6.364-11.082z"/><path d="M-31.596 149.624l-6.351 11.02 12.714-.089zm-12.686 22.179l6.335-11.159-12.629.266z"/><path d="M-37.947 160.644l-6.454-10.993-6.175 11.259z"/><path d="M-44.401 149.651l6.454 10.993 6.351-11.02zM95.07 170.345l11.63.113-5.687-12.7z"/><path d="M88.947 159.876l6.123 10.469 5.943-12.587zm12.667 44.283l-6.223-10.892-6.332 11.365z"/><path d="M108.213 192.985l-12.822.282 6.223 10.892zm-50.925.826l6.356 11.006 6.413-11.044z"/><path d="M57.093 215.749l6.551-10.932-12.781-.083z"/><path d="M63.644 204.817l-6.551 10.932 12.762.143zm0 0l-6.356-11.006-6.425 10.923zm12.716-.07l-12.716.07 6.211 11.075z"/><path d="M63.644 204.817l12.716-.07-6.303-10.974zm-.672 22.036l12.981.011-6.098-10.972z"/><path d="M75.953 226.864l6.681-11.137-12.779.165zm6.681-11.137l-6.681 11.137 12.591-.086zm-6.681 11.137l6.234 11.199 6.357-11.285z"/><path d="M75.953 226.864l-6.89 10.591 13.124.608z"/><path d="M69.063 237.455l6.89-10.591-12.981-.011zm7.252-54.796l-12.716.165 6.458 10.949z"/><path d="M63.599 182.824l12.716-.165-6.381-10.899zm31.471-12.479l6.06 11.612 5.57-11.499zm6.06 11.612l12.307.007-6.737-11.506zm12.307.007l-12.307-.007 7.083 11.028z"/><path d="M101.13 181.957l-6.06-11.612-6.166 11.764z"/><path d="M95.391 193.267l5.739-11.31-12.226.152z"/><path d="M101.13 181.957l-5.739 11.31 12.822-.282zm-18.324 11.602l-6.446 11.188 12.699-.115zm0 0l12.585-.292-6.487-11.158z"/><path d="M76.36 204.747l6.446-11.188-12.749.214zm19.031-11.48l-12.585.292 6.253 11.073zm-19.076-10.608l6.491 10.9 6.098-11.45z"/><path d="M82.806 193.559l-6.491-10.9-6.258 11.114zm12.264-23.214l-12.51.995 6.344 10.769z"/><path d="M82.56 171.34l6.387-11.464-12.587.655z"/><path d="M69.934 171.76l12.626-.42-6.2-10.809zm12.626-.42l12.51-.995-6.123-10.469zm-6.245 11.319l6.245-11.319-12.626.42zm6.245-11.319l-6.245 11.319 12.589-.55z"/></svg>