<svg xmlns="http://www.w3.org/2000/svg" viewBox="-50 -33.269 100 66.538"><style>path{fill:#c8c5bd;stroke:navy;stroke-width:.5;stroke-linejoin:bevel}</style><path d="m-49.606 5.11 3.724-4.95L-50 .169zm3.724-4.95-3.776-4.928L-50 .169zm66.859-28.444 3.997-3.998-5.3-.916zM-4.997 31.224 0 28.868l-4.928-2.301zm10.983-4.275L0 28.868l4.461 2.15zM-9.158-32.477l3.172 5.528 1.525-4.069zm-35.194 43.632 3.692-2.105-3.928-3.704zm0 0-4.096-1.102 2.351 5.6zm9.514 3.549-3.091 4.34 5.839.016zm-.41-42.379-4.594 3.715 4.817 1.096zm53.944 22.79 5.167-.058-2.525-4.782z"/><path d="m23.863-4.943-5.167.058 2.567 4.746z"/><path d="m18.696-4.885-2.612-4.578-2.683 4.736z"/><path d="m16.084-9.463 2.612 4.578 2.642-4.84zm0 0-5.321.207 2.638 4.529zm-42.32 37.13-4.209 2.686 5.471 1.929zm23.168-5.763-5.318.903 3.458 3.76zm-7.207 6.039 5.278 3.281.069-4.657z"/><path d="m-8.386 22.807-1.889 5.136 5.347-1.376zm32.834-8.489-2.609 4.44 5.502.453zm-2.609 4.44 2.609-4.44-5.341-.276zm26.714-9.044-4.072 1.128 1.782 4.494zM6.229 17.755l2.972 5.152 2.236-4.507zM-9.158-32.477l-2.126 4.402 5.298 1.126zm-21.11 8.266-4.98-3.464.223 4.811zm-2.111 5.387-2.667 4.399 5.441.154zm2.464 43.24-5.058 3.441 4.528 2.496zm-8.014-5.372 3.208 4.037 2.631-4.021z"/><path d="m-39.585 24.205 4.864-1.124-3.208-4.037zm4.864-1.124-4.864 1.124 4.612 3.652zm-8.546-2.992 3.682 4.116 1.656-5.161zm2.805-5.326-5.635.89 2.83 4.436zm70.067-.492-5.157.047 2.893 4.893zM-26.381.147l-2.635 4.841 5.153-.045z"/><path d="m-21.263.139-5.118.008 2.518 4.796zm-14.981.002-2.885 4.444 5.007.581zm-12.204 9.912 3.86-4.707-5.018-.236zm3.86-4.707L-45.882.16l-3.724 4.95zm.236 5.809-.236-5.809-3.86 4.707zM-39.129 4.585l-5.459.761 3.928 3.704zm2.634 5.534-2.634-5.534-1.531 4.465z"/><path d="m-39.129 4.585 2.634 5.534 2.373-4.953zm-1.505-19.057-2.85-5.327-2.779 4.463z"/><path d="m-40.634-14.472-5.629-.864 1.782 4.494zM26.381-.147l-5.118.008 2.684 4.797zm0 0-2.518-4.796-2.6 4.804zm2.978-14.392-2.916 4.774 5.095-.14z"/><path d="m23.863-4.943 2.58-4.822-5.105.04zM0-28.868l-4.461-2.15-1.525 4.069zm4.997-2.356L0-28.868l4.928 2.301zm5.766 21.968-2.76 4.551 5.398-.022zm10.214-19.028 5.259.617-1.262-4.615z"/><path d="m18.796-14.272-2.712 4.809 5.254-.262zm11.649-16.081-4.209 2.686 3.679 3.251z"/><path d="m26.236-27.667 4.209-2.686-5.471-1.929zM49.658 4.768l-5.011.261 3.906 4.685zm-14.82-19.472-5.479.165 2.179 4.634z"/><path d="m36.495-10.119-1.657-4.585-3.3 4.799zm-1.657-4.585 1.657 4.585 3.967-4.644zM11.284 28.075l3.039 5.176 2.138-4.766zm-35.292-4.6-2.228 4.192 5.259.617zm8.306 5.041-3.972 4.682 5.083.071z"/><path d="m-24.974 32.282 3.997-3.998-5.259-.617z"/><path d="m-24.974 32.282 5.3.916-1.303-4.914zM0 28.868l.747-4.324-5.675 2.023z"/><path d="m.747 24.544-3.815-2.64-1.86 4.663zm5.239 2.405L.747 24.544 0 28.868zm-16.919-8.47 5.387-.557-2.613-4.237z"/><path d="m-5.546 17.922 3.055-4.116-5.668-.121z"/><path d="m-2.491 13.806-3.055 4.116 5.953.376zm-3.055 4.116-5.387.557 2.547 4.328zm2.478 3.982-2.478-3.982-2.84 4.885z"/><path d="m-5.546 17.922 2.478 3.982 3.475-3.606zm-13.104 5.763-5.358-.21 3.031 4.809zm8.375 4.258.466 4.678 4.812-1.397zm34.723-13.625-2.927-4.865-2.414 4.589zM18.696-4.885l-2.62 4.747 5.187-.001z"/><path d="m16.076-.138 2.62-4.747-5.295.158zm.514 18.852 5.249.044-2.732-4.716z"/><path d="m13.866 13.835 2.724 4.879 2.517-4.672z"/><path d="m16.59 18.714-2.724-4.879-2.429 4.565zm7.89 4.587 5.788.91-2.927-5zm-2.641-4.543 2.641 4.543 2.861-4.09zm-15.61-1.003-3.267-4.058-2.555 4.601z"/><path d="m2.962 13.697-5.453.109 2.898 4.492zm3.024 13.252 3.172 5.528 2.126-4.402z"/><path d="m5.986 26.949-1.525 4.069 4.697 1.459zm5.298 1.126-2.126 4.402 5.165.774zm0 0-2.083-5.168-3.215 4.042zM-5.552-9.122l-3.046-4.358-2.428 4.451zm-19.613-23.11-1.523 4.661 5.154-.622zm-5.552 2.004 4.029 2.657 1.523-4.661zm3.376 11.017-5.038.387 2.774 4.553zM34.182 4.87l-2.507 4.748 4.935.209zm-63.198.118 2.573 4.777 2.58-4.822zm5.069-9.646-2.661-4.824-2.482 4.792zM-26.381.147l2.434-4.805-5.143-.032z"/><path d="m-21.263.139-2.684-4.797-2.434 4.805zm-2.684-4.797 2.684 4.797 2.474-4.756zm-16.515 19.421-2.805 5.326 5.338-1.045zm-3.89-3.608 3.89 3.608-.198-5.713z"/><path d="m-34.838 14.704-5.624.059 2.533 4.281zm-5.624.059-3.89-3.608-1.745 4.498zm0 0 3.967-4.644-4.165-1.069z"/><path d="m-36.495 10.119-3.967 4.644 5.624-.059zm-1.677-28.898 5.793-.045-2.646-4.04z"/><path d="m-39.842-23.96 1.67 5.181 3.147-4.085zm4.796 9.535-3.126-4.354-2.462 4.307z"/><path d="m-32.379-18.824-5.793.045 3.126 4.354zm-11.105-.975 5.312 1.02-1.67-5.181zM-38.172-18.779l-5.312-1.02 2.85 5.327zm19.476 23.664L-21.263.139l-2.6 4.804zm0 0 2.612 4.578 2.683-4.736zM31.427-.152l2.755 5.022 2.062-5.011zM-.747-24.544 0-28.868l-5.986 1.919zM0-28.868l-.747 4.324 5.675-2.023zM5.277-9.275l5.486.019-2.604-4.429zm0 0 2.726 4.57 2.76-4.551zm20.959-18.392-2.228 4.192 5.907-.941zm-2.228 4.192-3.031-4.809-2.327 4.599z"/><path d="m20.977-28.284 3.031 4.809 2.228-4.192zm-7.496 4.713 2.652 4.681 2.517-4.795zm10.693 8.978 2.269 4.828 2.916-4.774z"/><path d="m26.443-9.765-2.269-4.828-2.836 4.868zm-2.269-4.828-5.378.321 2.542 4.547zM34.182 4.87l5.006-.573-2.944-4.438zm5.006-.573 2.333-4.449-5.277.011z"/><path d="m39.188 4.297-5.006.573 2.428 4.957zm0 0 5.459.732-3.126-5.181zm-1.259-23.341-3.091 4.34 5.624-.059z"/><path d="M44.647 5.029 45.882-.16l-4.361.008zM45.882-.16l3.776 4.928L50-.169z"/><path d="m45.882-.16-1.235 5.189 5.011-.261zm3.724-4.95L45.882-.16 50-.169zM.747 24.544l-.34-6.246-3.475 3.606zm8.454-1.637-4.964-1.052 1.749 5.094zm-4.964-1.052 1.992-4.1-5.822.543z"/><path d="m4.237 21.855 4.964 1.052-2.972-5.152zm-3.49 2.689 3.49-2.689-3.83-3.557zm3.49-2.689-3.49 2.689 5.239 2.405zm-15.17-3.376-2.548 5.092 5.095-.764z"/><path d="m-13.481 23.571 2.548-5.092-5.2.411zm0 0 3.206 4.372 1.889-5.136z"/><path d="m-18.65 23.685 5.169-.114-2.652-4.681zm34.944-14.45-2.428 4.6 5.241.207z"/><path d="m21.521 9.453-5.227-.218 2.813 4.807zM2.752 4.573 5.366-.063 0 0z"/><path d="m-2.631 4.641 5.383-.068L0 0zm27.796 27.591 1.523-4.661-5.154.622zm5.552-2.004-4.029-2.657-1.523 4.661z"/><path d="m26.688 27.571 4.029 2.657-.449-6.017zm-2.208-4.27 2.208 4.27 3.58-3.36zm-7.89-4.587 2.64 4.815 2.609-4.771zm2.64 4.815 5.25-.228-2.641-4.543zm11.038.682 2.111-5.387-5.038.387z"/><path d="m32.379 18.824-2.774-4.553-2.264 4.94zm-18.513-4.989-5.268-.355 2.839 4.92z"/><path d="m8.598 13.48-2.369 4.275 5.208.645z"/><path d="m8.598 13.48-5.636.217 3.267 4.058zm-22.921-46.731-2.138 4.766 5.177.41z"/><path d="m-14.323-33.251 3.039 5.176 2.126-4.402z"/><path d="m-16.461-28.485 2.283 5.002 2.894-4.592zm2.283 5.002-2.283-5.002-2.769 4.956zm0 0-2.412 4.769 5.153.314z"/><path d="m-16.59-18.714 2.412-4.769-5.052-.046zm-15.789-.11 2.111-5.387-4.757 1.347z"/><path d="m-30.268-24.211-.449-6.017-4.531 2.553zm3.58-3.36-3.58 3.36 5.788.91z"/><path d="m-30.268-24.211 3.58-3.36-4.029-2.657zm2.927 5-2.927-5-2.111 5.387z"/><path d="m-30.268-24.211 2.927 5 2.861-4.09zm3.66 14.729 2.16-4.836-5.157.047z"/><path d="m-24.448-14.318-2.893-4.893-2.264 4.94zm54.053 28.589-2.997-4.789-2.16 4.836zm-8.084-4.818 5.087.029-2.661-4.824zm5.087.029-5.087-.029 2.927 4.865zM31.675 9.618l-5.067-.136 2.997 4.789zm-63.213.287 2.522-4.917-5.106.178z"/><path d="m-36.495 10.119 4.957-.214-2.584-4.739z"/><path d="m-31.538 9.905-4.957.214 1.657 4.585zm0 0 5.095-.14-2.573-4.777zm-.137-19.523 5.067.136-2.997-4.789z"/><path d="m-35.046-14.425 3.371 4.807 2.07-4.653zm8.438 4.943-5.067-.136 2.585 4.928zM-31.675-9.618l-2.507 4.748 5.092.18zm.248 9.77 5.046-.005-2.709-4.837zm2.411 4.836L-31.427.152l-2.695 5.014z"/><path d="m-31.427.152 2.411 4.836 2.635-4.841zm0 0-4.817-.011 2.122 5.025z"/><path d="m-31.427.152-2.755-5.022-2.062 5.011z"/><path d="m-34.182-4.87 2.755 5.022 2.337-4.842zm-10.465-.159-5.011.261L-45.882.16zm31.127 19.033 2.587 4.475 2.774-4.794z"/><path d="m-10.933 18.479-2.587-4.475-2.613 4.886zm-7.863-4.207 5.276-.268-2.564-4.541z"/><path d="m-13.52 14.004-5.276.268 2.663 4.618zm-7.818-4.279 2.542 4.547 2.712-4.809zm-5.105.04 5.105-.04-2.525-4.782z"/><path d="m-21.338 9.725-5.105.04 2.269 4.828zm2.542 4.547-2.542-4.547-2.836 4.868zm.1-9.387-2.642 4.84 5.254-.262z"/><path d="m-21.338 9.725 2.642-4.84-5.167.058zM-5.552-9.122l-2.582 4.606 5.382-.057zm-2.582 4.606 2.582-4.606-5.474.093zm0 0-5.388.044 2.798 4.586z"/><path d="m-13.522-4.472 5.388-.044-2.892-4.513zM-21.263.139l5.187-.001-2.713-4.755zm5.187-.001-2.62 4.747 5.295-.158zm5.352-.024-5.352.024 2.675 4.589z"/><path d="m-18.696 4.885 2.62-4.747-5.187.001z"/><path d="m-16.076.138 2.554-4.61-5.267-.145zm2.554-4.61-2.554 4.61 5.352-.024z"/><path d="m-13.522-4.472-2.772-4.763-2.495 4.618z"/><path d="m-16.294-9.235 2.772 4.763 2.496-4.557zM26.381-.147l2.635-4.841-5.153.045zm.062-9.618 2.573 4.777 2.522-4.917z"/><path d="m29.016-4.988-2.573-4.777-2.58 4.822zm2.411 4.836-2.411-4.836-2.635 4.841zM-8.598-13.48l2.369-4.275-5.208-.645zm24.3-15.036 3.972-4.682-5.083-.071zm-5.427.573-5.278-3.281-.069 4.657z"/><path d="m10.275-27.943-5.347 1.376 3.458 3.76zm3.206 4.372-3.206-4.372-1.889 5.136zm-3.206-4.372-.466-4.678-4.812 1.397zm5.809 18.48-2.564-4.541-2.757 4.748zm-5.321.207 2.757-4.748-5.361.319z"/><path d="m18.796-14.272-5.276.268 2.564 4.541zm-2.663-4.618-2.613 4.886 5.276-.268zm0 0 5.302-.09-2.785-4.705z"/><path d="m21.435-18.98 2.573-4.495-5.358-.21zm0 0-5.302.09 2.663 4.618zm2.739 4.387-2.739-4.387-2.639 4.708zm10.664-.111L32.09-19.06l-2.731 4.521z"/><path d="m37.929-19.044-5.839-.016 2.748 4.356zm6.423 7.889 4.096 1.102-2.351-5.6zM41.521-.152l-2.392-4.433-2.885 4.444zm-67.757 27.819-3.679-3.251-.53 5.937zm-8.485-4.586 4.806 1.335-2.175-5.356zm4.806 1.335-4.806-1.335-.252 4.776z"/><path d="m-24.008 23.475-5.907.941 3.679 3.251zm-2.996-4.007-2.911 4.948 5.907-.941zM-29.915 24.416l2.911-4.948-5.086-.408zm8.48-5.436 2.785 4.705 2.517-4.795z"/><path d="m-18.65 23.685-2.785-4.705-2.573 4.495z"/><path d="m-18.796 14.272-2.639 4.708 5.302-.09z"/><path d="m-21.435 18.98 2.639-4.708-5.378.321zm-5.569.488 5.569-.488-2.739-4.387zm5.569-.488-5.569.488 2.996 4.007zm6.844 14.289 4.782-.648-.466-4.678zm-1.111-4.753-5.275-.232 1.303 4.914zm0 0-2.948-4.831-2.327 4.599z"/><path d="m-14.591 33.269 4.316-5.326-5.427.573zm-1.111-4.753 2.221-4.945-5.169.114z"/><path d="m-13.481 23.571-2.221 4.945 5.427-.573zM16.076-.138l2.713 4.755 2.474-4.756zm2.713 4.755 2.732 4.836 2.426-4.795z"/><path d="m21.263-.139-2.474 4.756 5.158.041zm-2.474 4.756L16.076-.138l-2.554 4.61zm0 0-2.495 4.618 5.227.218z"/><path d="m16.294 9.235 2.495-4.618-5.267-.145zm-8.16-4.719L5.366-.063 2.752 4.573zM2.631-4.641l-5.383.068L0 0zm2.646-4.634L2.631-4.641l5.372-.064zM2.631-4.641 5.366-.063l2.637-4.642z"/><path d="M5.366-.063 2.631-4.641 0 0zm-7.857 13.869-2.786-4.531-2.882 4.41zm16.669 9.677 2.412-4.769-5.153-.314zM9.201 22.907l4.977.576-2.741-5.083zm4.977.576-2.894 4.592 5.177.41z"/><path d="m11.284 28.075 2.894-4.592-4.977-.576zm2.894-4.592 5.052.046-2.64-4.815zm5.052.046-5.052-.046 2.283 5.002z"/><path d="m16.461 28.485 3.261 4.708 1.812-5zm8.704 3.747-3.631-4.039-1.812 5z"/><path d="m16.461 28.485-2.138 4.766 5.399-.058zm5.073-.292 5.154-.622-2.208-4.27zm-2.304-4.664 2.304 4.664 2.946-4.892z"/><path d="m21.534 28.193-2.304-4.664-2.769 4.956zM40.769 8.77l-1.581-4.473-2.578 5.53zm3.712 2.072.166-5.813-3.878 3.741zm0 0 4.072-1.128-3.906-4.685z"/><path d="m39.188 4.297 1.581 4.473 3.878-3.741zm1.581 4.473-.135 5.702 3.847-3.63zM40.634 14.472l.135-5.702-4.159 1.057zm-.792 9.488 3.642-4.161-5.312-1.02z"/><path d="m46.263 15.336-1.782-4.494-3.847 3.63z"/><path d="m43.484 19.799-2.85-5.327-2.462 4.307z"/><path d="m46.263 15.336-5.629-.864 2.85 5.327zm-15.995 8.875.449 6.017 4.531-2.553z"/><path d="m30.268 24.211 4.98 3.464-.223-4.811z"/><path d="m39.842 23.96-4.817-1.096.223 4.811z"/><path d="m35.025 22.864 4.817 1.096-1.67-5.181z"/><path d="m32.379 18.824 2.646 4.04 3.147-4.085z"/><path d="m35.025 22.864-2.646-4.04-2.111 5.387zm.021-8.439 5.588.047-4.024-4.645z"/><path d="m31.675 9.618 3.371 4.807 1.564-4.598z"/><path d="m35.046 14.425-3.371-4.807-2.07 4.653zm5.588.047-5.588-.047 3.126 4.354zm-8.255 4.352 2.667-4.399-5.441-.154zm2.667-4.399-2.667 4.399 5.793-.045zm-56.58-42.618-2.946 4.892 5.25-.228z"/><path d="m-21.534-28.193-5.154.622 2.208 4.27z"/><path d="m-19.722-33.193-1.812 5 5.073-.292z"/><path d="m-25.165-32.232 3.631 4.039 1.812-5z"/><path d="m-19.722-33.193 3.261 4.708 2.138-4.766zm3.261 4.708-5.073.292 2.304 4.664z"/><path d="m-24.48-23.301 2.641 4.543 2.609-4.771zm-2.861 4.09 5.502.453-2.641-4.543zm10.751.497-5.249-.044 2.732 4.716z"/><path d="m-21.839-18.758 5.249.044-2.64-4.815zm-2.609 4.44 2.609-4.44-5.502-.453zm2.609-4.44-2.609 4.44 5.341.276zM31.427-.152 29.09 4.69l5.092.18zM29.09 4.69 26.381-.147l-2.434 4.805zm0 0 2.585 4.928 2.507-4.748z"/><path d="m29.09 4.69 2.337-4.842-5.046.005zm0 0-2.482 4.792 5.067.136z"/><path d="M26.608 9.482 29.09 4.69l-5.143-.032zm-53.612 9.986-2.355-4.929-2.731 4.521z"/><path d="m-26.443 9.765-2.916 4.774 5.185.054zm-2.916 4.774-5.479.165 2.748 4.356z"/><path d="m-29.359 14.539 2.355 4.929 2.83-4.875zm-2.179-4.634 2.179 4.634 2.916-4.774z"/><path d="m-29.359 14.539-2.179-4.634-3.3 4.799zm-15.122-25.381 3.712 2.072.135-5.702zm-.107 16.188 3.067-5.194-4.361.008zm8.344-5.205-5.277.011 2.392 4.433zm-5.277.011-3.067 5.194 5.459-.761zm0 0-3.126-5.181L-45.882.16zM-5.366.063l2.735 4.578L0 0z"/><path d="M-2.752-4.573-5.366.063 0 0zM-5.366.063l-2.768-4.579-2.59 4.63z"/><path d="M-8.134-4.516-5.366.063l2.614-4.636zm-8.456-14.198 2.724 4.879 2.429-4.565z"/><path d="m-8.598-13.48-5.268-.355 2.84 4.806zm-5.268-.355 5.268.355-2.839-4.92zm0 0-2.724-4.879-2.517 4.672z"/><path d="m-16.294-9.235 2.428-4.6-5.241-.207z"/><path d="m-13.866-13.835-2.428 4.6 5.268.206zm-7.655 4.382-2.426 4.795 5.158.041zm0 0-2.927-4.865-2.16 4.836z"/><path d="m-23.947-4.658 2.426-4.795-5.087-.029zm-.501-9.66 2.927 4.865 2.414-4.589zm8.154 5.083-5.227-.218 2.732 4.836z"/><path d="m-21.521-9.453 5.227.218-2.813-4.807zM4.928-26.567l-1.86 4.663 5.318-.903z"/><path d="m-.747-24.544 3.815 2.64 1.86-4.663zm3.238 10.738 2.786 4.531 2.882-4.41zm-16.669-9.677 4.977.576-2.083-5.168z"/><path d="m-11.284-28.075 2.083 5.168 3.215-4.042zm2.083 5.168-4.977-.576 2.741 5.083zm2.972 5.152-2.972-5.152-2.236 4.507zm27.206-10.529-5.275-.232 2.948 4.831zm-6.386-4.985-4.782.648.466 4.678z"/><path d="m15.702-28.516-2.221 4.945 5.169-.114zm0 0 5.275.232-1.303-4.914zm-1.111-4.753-4.316 5.326 5.427-.573z"/><path d="m15.702-28.516-5.427.573 3.206 4.372zm-4.769 10.037 2.548-5.092-5.095.764z"/><path d="m10.933-18.479 5.2-.411-2.652-4.681zm0 0 2.587 4.475 2.613-4.886z"/><path d="m13.52-14.004-2.587-4.475-2.774 4.794zm13.484-5.464-2.83 4.875 5.185.054zm-5.569.488 5.569-.488-2.996-4.007zm2.573-4.495 2.996 4.007 2.911-4.948z"/><path d="m27.004-19.468-5.569.488 2.739 4.387zm5.086.408-5.086-.408 2.355 4.929z"/><path d="m27.004-19.468 5.086.408-2.175-5.356zm7.969-8.389-4.528-2.496-.53 5.937z"/><path d="m34.973-27.857-5.058 3.441 4.806 1.335z"/><path d="m34.721-23.081 4.864-1.124-4.612-3.652zm4.864-1.124-4.864 1.124 3.208 4.037zm-4.864 1.124L32.09-19.06l5.839.016z"/><path d="m32.09-19.06 2.631-4.021-4.806-1.335zm11.177-1.029-3.682-4.116-1.656 5.161zm0 0-5.338 1.045 2.533 4.281z"/><path d="m40.462-14.763 3.89 3.608 1.745-4.498zm0 0 5.635-.89-2.83-4.436zm7.986 4.71-3.86 4.707 5.018.236zM45.882-.16l-1.294-5.186-3.067 5.194z"/><path d="M44.588-5.346 45.882-.16l3.724-4.95zm0 0-5.459.761 2.392 4.433zm-10.466.18L31.427-.152l4.817.011zm0 0 2.373-4.953-4.957.214z"/><path d="m29.016-4.988 5.106-.178-2.584-4.739zm5.106-.178-5.106.178 2.411 4.836zm5.007.581-5.007-.581 2.122 5.025zm-5.007-.581 5.007.581-2.634-5.534zM16.076-.138l-5.352.024 2.798 4.586z"/><path d="m8.003-4.705 2.721 4.591 2.677-4.613zm2.721 4.591 5.352-.024-2.675-4.589z"/><path d="m5.366-.063 5.358-.051-2.721-4.591zm2.768 4.579 2.59-4.63-5.358.051z"/><path d="m10.724-.114-2.59 4.63 5.388-.044z"/><path d="m11.026 9.029 5.268.206-2.772-4.763zm5.268.206-5.268-.206 2.84 4.806z"/><path d="M11.026 9.029 8.598 13.48l5.268.355zM8.134 4.516l2.892 4.513 2.496-4.557zm-5.172 9.181L.13 9.192l-2.621 4.614zm-5.593-9.056L.13 9.192l2.622-4.619z"/><path d="M-5.277 9.275.13 9.192l-2.761-4.551zM.13 9.192l-5.407.083 2.786 4.531zm-16.214.271 5.321-.207-2.638-4.529zm5.321-.207-2.757 4.748 5.361-.319zm-2.757 4.748 2.757-4.748-5.321.207z"/><path d="m-5.277 9.275-5.486-.019 2.604 4.429zm-39.37-14.304-3.906-4.685-1.105 4.946zm0 0 3.878-3.741-3.712-2.072z"/><path d="m-44.647-5.029.166-5.813-4.072 1.128z"/><path d="m-48.553-9.714 4.072-1.128-1.782-4.494zm11.943-.113 4.935.209-3.371-4.807z"/><path d="m-36.61-9.827 1.564-4.598-5.588-.047zm4.935.209-4.935-.209 2.428 4.957zm-9.094.848 4.159-1.057-4.024-4.645zm43.4 4.129L-.13-9.192l-2.622 4.619z"/><path d="m-.13-9.192-5.422.07 2.8 4.549zm0 0 2.761 4.551 2.646-4.634z"/><path d="M2.491-13.806-.13-9.192l5.407-.083zM40.66-9.05l3.692-2.105-3.89-3.608z"/><path d="M36.495-10.119 40.66-9.05l-.198-5.713zm8.093 4.773-.236-5.809L40.66-9.05zm-5.459.761L40.66-9.05l-4.165-1.069z"/><path d="M44.588-5.346 40.66-9.05l-1.531 4.465zm0 0 3.86-4.707-4.096-1.102zM11.026 9.029l-5.474.093 3.046 4.358zm-5.474.093 2.582-4.606-5.382.057z"/><path d="M8.598 13.48 5.552 9.122l-2.59 4.575zM5.552 9.122l5.474-.093-2.892-4.513z"/><path d="m5.552 9.122-5.422.07 2.832 4.505z"/><path d="m.13 9.192 5.422-.07-2.8-4.549zm-8.133-4.487 2.726 4.57 2.646-4.634zm0 0L-5.366.063l-5.358.051z"/><path d="M-8.003 4.705-10.724.114l-2.677 4.613zM-5.366.063l-2.637 4.642 5.372-.064zm-2.637 4.642-2.76 4.551 5.486.019z"/><path d="m-10.763 9.256 2.76-4.551-5.398.022zM-39.188-4.297l-1.581-4.473-3.878 3.741zm0 0L-41.521.152l5.277-.011z"/><path d="m-34.182-4.87-5.006.573 2.944 4.438zM-41.521.152l2.333-4.449-5.459-.732z"/><path d="m-39.188-4.297 2.578-5.53-4.159 1.057zm2.578-5.53-2.578 5.53 5.006-.573zm36.203-8.471-.34-6.246-3.49 2.689zm-3.83-3.557 3.49-2.689-5.239-2.405zm-4.964-1.052 4.964 1.052-1.749-5.094zm4.964 1.052-4.964-1.052 2.972 5.152z"/><path d="m-.407-18.298 3.475-3.606-3.815-2.64zm0 0-3.83-3.557-1.992 4.1zm5.953.376-3.055 4.116 5.668.121zm-2.478-3.982 2.478 3.982 2.84-4.885zm2.478 3.982 5.387-.557-2.547-4.328z"/><path d="m10.933-18.479-5.387.557 2.613 4.237zm-5.387.557-5.953-.376 2.898 4.492z"/><path d="m-.407-18.298 5.953.376-2.478-3.982zm-2.555 4.601 2.555-4.601-5.822.543zm0 0-5.636.217 3.046 4.358z"/><path d="m-2.962-13.697-3.267-4.058-2.369 4.275zm2.555-4.601-2.555 4.601 5.453-.109z"/><path d="M-2.962-13.697-.13-9.192l2.621-4.614z"/><path d="m-.13-9.192-2.832-4.505-2.59 4.575z"/></svg>