<svg xmlns="http://www.w3.org/2000/svg" viewBox="-50 0 100 100"><style>path{fill:none;stroke:#969696;stroke-width:.5;stroke-linejoin:bevel}</style><path d="M11.179 100l-2.502-7.448L3.892 100z"/><path d="M8.677 92.552L11.179 100l5.434-7.004zM42.665 0L50 6.751V0zM-42.665 100L-50 93.249V100zM-43.717 58.402L-50 62.47l8.257 3.408z"/><path d="M-50 62.47l6.283-4.068L-50 54.293zM-42.171 50.735L-50 46.864v7.429z"/><path d="M-42.171 50.735L-50 54.293l6.283 4.109zM-42.849 42.063L-50 46.864l7.829 3.871z"/><path d="M-42.849 42.063l.678 8.672 5.63-5.31zM-50 46.864l7.151-4.801L-50 39.254zM-37.539 78.617l2.13 7.537 4.876-7.375zM-41.743 65.878L-50 62.47v7.263zM-41.743 65.878L-50 69.733l6.568 4.023z"/><path d="M-35.409 86.154l8.36-.507-3.484-6.868zM-11.205 100l-3.558-7.288-4.114 7.288zM-14.763 92.712l-7.715.035 3.601 7.253z"/><path d="M-22.478 92.747L-26.607 100h7.73zM30.088 7.294L26.607 0l-4.129 7.253z"/><path d="M26.607 0l3.481 7.294L34.363 0zM11.179 100h7.218l-1.784-7.004zM25 91.893L18.397 100H25z"/><path d="M18.397 100L25 91.893l-8.387 1.103zM50 37.53l-6.283 4.068L50 45.707z"/><path d="M43.717 41.598L50 37.53l-8.257-3.408zM50 45.707l-6.283-4.109-1.546 7.667zM50 45.707l-7.829 3.558L50 53.136z"/><path d="M35.593 28.623l-2.797 6.708 8.947-1.209zM-11.872 57.474l-8.257.247 4.354 6.74zM-19.423 71.423l8.153-.102-4.505-6.86z"/><path d="M-11.27 71.321l-8.153.102 4.507 6.991zM-50 31.741L-42.258 25H-50zM-42.258 25l5.152 6.002L-33.378 25zM-34.578 38.128l-8.444-3.924.173 7.859zM16.312 49.255l3.817-6.976-8.257.247zM20.129 42.279l-3.817 6.976 8.402-.293zM8.82 63.852l3.548-7.453-7.994.524zM4.982 71.03l-8.116.169 4.259 6.981zM12.262 85.179l-3.585 7.373 7.936.444zM12.262 85.179l-7.61.121 4.025 7.252zM-43.215 82.726l7.806 3.428-2.13-7.537zM-35.593 71.377l-1.946 7.24 7.006.162zM-27.641 71.52l-7.952-.143 5.06 7.402zM-35.593 71.377l2.797-6.708-8.947 1.209z"/><path d="M-35.593 71.377l7.952.143-5.155-6.851zM-43.432 73.756l7.839-2.379-6.15-5.499zM-35.593 71.377l-7.839 2.379 5.893 4.861zM-27.049 85.647l-3.039 7.059 7.61.041z"/><path d="M-30.088 92.706l3.039-7.059-8.36.507zM-30.088 92.706l3.481 7.294 4.129-7.253z"/><path d="M-26.607 100l-3.481-7.294-4.275 7.294zM33.138 48.212l3.403 6.363 5.63-5.31zM16.312 49.255l4.244 6.642 4.158-6.935z"/><path d="M20.556 55.897l-4.244-6.642-3.944 7.144zM37.106 68.998l-7.982-.801L33.378 75zM29.124 68.197l-3.838-5.912-4.67 7.146zM25.286 62.285l3.838 5.912 5.454-6.325zM50 22.207l-6.568 4.037L50 30.267zM41.743 34.122L50 37.53v-7.263z"/><path d="M41.743 34.122L50 30.267l-6.568-4.023z"/><path d="M43.432 26.244l-7.839 2.379 6.15 5.499zM22.824 21.524l4.817 6.956 2.892-7.259zM32.796 35.331l-5.155-6.851-3.486 6.812zM35.593 28.623l-7.952-.143 5.155 6.851z"/><path d="M27.641 28.48l7.952.143-5.06-7.402zM-3.707 57.209l8.081-.286L0 50zM-3.707 57.209l-4.379-6.838-3.786 7.103z"/><path d="M-8.086 50.371l4.379 6.838L0 50zM-42.171 50.735l9.033 1.053-3.403-6.363zM-27.641 71.52l3.486-6.812-8.641-.039z"/><path d="M-20.129 57.721l-4.026 6.987 8.38-.247zM-19.423 71.423l-4.732-6.715-3.486 6.812z"/><path d="M-24.155 64.708l4.732 6.715 3.648-6.962zM-22.824 78.476l-4.817-6.956-2.892 7.259zM-27.049 85.647l4.225-7.171-7.709.303zM-19.423 71.423l-3.401 7.053 7.908-.062z"/><path d="M-22.824 78.476l3.401-7.053-8.218.097zM-25 8.107L-18.397 0H-25zM-18.397 0L-25 8.107l8.387-1.103z"/><path d="M-11.179 0h-7.218l1.784 7.004z"/><path d="M-25 8.107l5.791 5.85 2.596-6.953z"/><path d="M-19.209 13.957L-25 8.107v8.998z"/><path d="M-17.487 22.086l-1.722-8.129L-25 17.105zM-29.124 31.803L-25 25h-8.378zM-13.067 29.152l8.085-.182-4.265-6.976zM-17.487 22.086l4.42 7.066 3.82-7.158zM-4.374 43.077l-3.712 7.294L0 50z"/><path d="M-8.086 50.371l3.712-7.294-7.994.524zM3.707 42.791l-8.081.286L0 50zM12.368 56.399l-4.282-6.77-3.712 7.294z"/><path d="M4.374 56.923l3.712-7.294L0 50zM8.086 49.629l8.226-.374-4.44-6.729zM16.312 49.255l-8.226.374 4.282 6.77zM3.707 42.791l4.379 6.838 3.786-7.103z"/><path d="M8.086 49.629l-4.379-6.838L0 50z"/><path d="M7.508 35.703l-3.801 7.088 8.165-.265zM7.508 35.703l3.762-7.024-8.136.122zM11.27 28.679l-4.344-6.994-3.792 7.116zM6.926 21.685l4.344 6.994 3.646-7.093zM26.607 0h-7.73l3.601 7.253z"/><path d="M18.877 0l-4.114 7.288 7.715-.035z"/><path d="M14.763 7.288L18.877 0h-7.672zM22.824 21.524l-3.834-7.078-4.074 7.14zM14.763 7.288l4.227 7.158 3.488-7.193z"/><path d="M6.988 7.315l7.775-.027L11.205 0zM3.6 0l3.388 7.315L11.205 0zM-11.179 0l2.502 7.448L-3.892 0z"/><path d="M-8.677 7.448L-11.179 0l-5.434 7.004zM-29.124 31.803L-33.378 25l-3.728 6.002zM-29.124 31.803l-5.454 6.325 9.292-.413zM-29.124 31.803l-7.982-.801 2.528 7.126z"/><path d="M-34.578 38.128l-2.528-7.126-5.916 3.202z"/><path d="M-43.022 34.204L-50 31.741v7.513zM-42.849 42.063l-.173-7.859-6.978 5.05z"/><path d="M-50 31.741l6.978 2.463.764-9.204zM-34.578 38.128l-8.271 3.935 6.308 3.362z"/><path d="M-43.022 34.204l5.916-3.202L-42.258 25zM13.067 70.848L8.82 63.852 4.982 71.03zM19.209 86.043L25 91.893v-8.998z"/><path d="M25 91.893l-5.791-5.85-2.596 6.953z"/><path d="M19.209 86.043l-6.947-.864 4.351 7.817zM-50 77.793l6.568-4.037L-50 69.733zM-43.432 73.756L-50 77.793l6.785 4.933z"/><path d="M-43.215 82.726L-50 77.793v7.79zM-43.432 73.756l.217 8.97 5.676-4.109z"/><path d="M-43.324 90.721l.109-7.995L-50 85.583zM-42.665 100l-.659-9.279L-50 93.249z"/><path d="M-43.324 90.721L-50 85.583v7.666zM.824 92.644L-3.6 100h7.492z"/><path d="M8.677 92.552l-7.853.092L3.892 100z"/><path d="M4.652 85.3L.824 92.644l7.853-.092zM-6.926 78.315l-4.344-6.994-3.646 7.093zM-3.134 71.199l-3.792 7.116 8.051-.135z"/><path d="M-6.926 78.315l3.792-7.116-8.136.122zM-11.022 85.496l4.096-7.181-7.99.099zM50 6.751l-6.676 2.528L50 14.417z"/><path d="M43.324 9.279L50 6.751 42.665 0zM43.717 41.598l-6.873.157 5.327 7.51z"/><path d="M36.844 41.755l6.873-.157-1.974-7.476zM32.796 35.331l4.048 6.424 4.899-7.633zM36.844 41.755l-3.706 6.457 9.033 1.053zM50 68.259L42.258 75H50zM50 53.136l-7.151 4.801L50 60.746zM42.849 57.937L50 53.136l-7.829-3.871zM36.541 54.575l6.308 3.362-.678-8.672zM28.878 55.62l4.26-7.408-8.424.75zM28.878 55.62l-3.592 6.665 9.292-.413z"/><path d="M36.541 54.575l-7.663 1.045 5.7 6.252z"/><path d="M33.138 48.212l-4.26 7.408 7.663-1.045zM20.556 55.897l8.322-.277-4.164-6.658zM28.878 55.62l-8.322.277 4.73 6.388zM17.487 77.914L25 75l-4.384-5.569z"/><path d="M25 75l4.124-6.803-8.508 1.234zM29.124 68.197L25 75h8.378zM35.593 28.623l1.946-7.24-7.006-.162zM37.539 21.383l-2.13-7.537-4.876 7.375z"/><path d="M43.432 26.244l-5.893-4.861-1.946 7.24zM43.432 26.244L50 22.207l-6.785-4.933zM11.27 28.679l8.153-.102-4.507-6.991z"/><path d="M19.423 28.577l3.401-7.053-7.908.062zM19.423 28.577l8.218-.097-4.817-6.956zM27.641 28.48l-8.218.097 4.732 6.715zM-3.134 71.199l-4.374-6.902-3.762 7.024zM-7.508 64.297l-4.364-6.823-3.903 6.987z"/><path d="M-11.27 71.321l3.762-7.024-8.267.164zM-7.508 64.297l3.801-7.088-8.165.265zM-32.796 64.669l-4.048-6.424-4.899 7.633z"/><path d="M-36.844 58.245l-6.873.157 1.974 7.476z"/><path d="M-43.717 58.402l6.873-.157-5.327-7.51zM-36.844 58.245l3.706-6.457-9.033-1.053zM-18.99 85.554l7.968-.058-3.894-7.082zM-18.99 85.554l-8.059.093 4.571 7.1z"/><path d="M-14.763 92.712l-4.227-7.158-3.488 7.193z"/><path d="M-11.022 85.496l-7.968.058 4.227 7.158z"/><path d="M-18.99 85.554l-3.834-7.078-4.225 7.171z"/><path d="M-22.824 78.476l3.834 7.078 4.074-7.14zM-4.982 28.97l4.305 6.933 3.811-7.102zM-.677 35.903l-3.697 7.174 8.081-.286z"/><path d="M7.508 35.703l-8.185.2 4.384 6.888zM-.677 35.903l8.185-.2-4.374-6.902zM-4.982 28.97l3.857-7.15-8.122.174z"/><path d="M-1.125 21.82l-3.527-7.12-4.595 7.294zM-1.125 21.82l-3.857 7.15 8.116-.169z"/><path d="M-4.652 14.7l3.527 7.12 4.258-7.239zM-1.125 21.82l8.051-.135-3.793-7.104zM6.926 21.685l-8.051.135 4.259 6.981zM27.049 14.353l8.36-.507-5.321-6.552zM27.049 14.353l-4.225 7.171 7.709-.303z"/><path d="M27.049 14.353l3.039-7.059-7.61-.041zM35.409 13.846l-8.36.507 3.484 6.868zM27.049 14.353l-8.059.093 3.834 7.078zM18.99 14.446l8.059-.093-4.571-7.1zM18.99 14.446l-7.968.058 3.894 7.082z"/><path d="M11.022 14.504l-4.096 7.181 7.99-.099zM6.926 21.685l4.096-7.181-7.889.077zM11.022 14.504l7.968-.058-4.227-7.158z"/><path d="M6.988 7.315l4.034 7.189 3.741-7.216z"/><path d="M11.022 14.504L6.988 7.315l-3.855 7.266zM-4.652 14.7l-7.61.121 3.015 7.173zM-12.262 14.821l-5.225 7.265 8.24-.092z"/><path d="M-19.209 13.957l6.947.864-4.351-7.817z"/><path d="M-12.262 14.821l-6.947-.864 1.722 8.129zM-8.677 7.448l-3.585 7.373 7.61-.121zM-12.262 14.821l3.585-7.373-7.936-.444zM6.988 7.315l-7.812.041 3.957 7.225z"/><path d="M-.824 7.356L-4.652 14.7l7.785-.119zM-.824 7.356L3.6 0h-7.492zM-.824 7.356l7.812-.041L3.6 0z"/><path d="M-8.677 7.448l7.853-.092L-3.892 0z"/><path d="M-.824 7.356l-7.853.092 4.025 7.252zM4.652 85.3l4.595-7.294-8.122.174z"/><path d="M9.247 78.006L4.982 71.03l-3.857 7.15zM9.247 78.006L4.652 85.3l7.61-.121z"/><path d="M9.247 78.006l3.82-7.158-8.085.182zM16.792 63.009l3.764-7.112-8.188.502z"/><path d="M25.286 62.285l-8.494.724 3.824 6.422zM8.82 63.852l7.972-.843-4.424-6.61z"/><path d="M20.556 55.897l-3.764 7.112 8.494-.724zM13.067 70.848l3.725-7.839-7.972.843zM16.792 63.009l-3.725 7.839 7.549-1.417zM-43.324 90.721l7.915-4.567-7.806-3.428zM-30.088 92.706l-7.466.966 3.191 6.328z"/><path d="M-37.554 93.672L-42.665 100h8.302zM-37.554 93.672l7.466-.966-5.321-6.552z"/><path d="M-43.324 90.721l5.77 2.951 2.145-7.518z"/><path d="M-37.554 93.672l-5.77-2.951.659 9.279zM-6.988 92.685l-4.034-7.189-3.741 7.216zM-3.6 100l-3.388-7.315-4.217 7.315z"/><path d="M-6.988 92.685l-7.775.027 3.558 7.288zM.824 92.644l-7.812.041L-3.6 100zM30.088 7.294l7.466-.966L34.363 0z"/><path d="M37.554 6.328L42.665 0h-8.302zM35.409 13.846l2.145-7.518-7.466.966zM37.554 6.328l5.77 2.951L42.665 0zM28.351 41.908l4.445-6.577-8.641-.039zM28.351 41.908l-8.222.371 4.585 6.683z"/><path d="M20.129 42.279l8.222-.371-4.196-6.616zM33.138 48.212l-4.787-6.304-3.637 7.054z"/><path d="M36.844 41.755l-8.493.153 4.787 6.304z"/><path d="M28.351 41.908l8.493-.153-4.048-6.424zM37.106 68.998l-2.528-7.126-5.454 6.325zM34.578 61.872l2.528 7.126 5.916-3.202zM42.258 75l-5.152-6.002L33.378 75z"/><path d="M34.578 61.872l8.444 3.924-.173-7.859zM20.129 42.279l-4.354-6.74-3.903 6.987zM15.775 35.539l-8.267.164 4.364 6.823z"/><path d="M15.775 35.539l4.354 6.74 4.026-6.987zM7.508 35.703l8.267-.164-4.505-6.86zM15.775 35.539l3.648-6.962-8.153.102z"/><path d="M19.423 28.577l-3.648 6.962 8.38-.247zM8.82 63.852l-8.143.245 4.305 6.933z"/><path d="M.677 64.097l8.143-.245-4.446-6.929zM.677 64.097l-3.811 7.102 8.116-.169z"/><path d="M-3.707 57.209l4.384 6.888 3.697-7.174z"/><path d="M-7.508 64.297l8.185-.2-4.384-6.888z"/><path d="M.677 64.097l-8.185.2 4.374 6.902zM-8.086 50.371l-8.226.374 4.44 6.729zM-16.312 50.745l8.226-.374-4.282-6.77z"/><path d="M-16.312 50.745l-3.817 6.976 8.257-.247z"/><path d="M-16.312 50.745l-8.402.293 4.585 6.683zM-28.351 58.092l-8.493.153 4.048 6.424zM-24.155 64.708l-4.196-6.616-4.445 6.577z"/><path d="M-28.351 58.092l4.196 6.616 4.026-6.987zM-36.844 58.245l8.493-.153-4.787-6.304z"/><path d="M-28.351 58.092l3.637-7.054-8.424.75zM-24.714 51.038l-3.637 7.054 8.222-.371zM-28.878 44.38l-5.7-6.252-1.963 7.297z"/><path d="M-33.138 51.788l4.26-7.408-7.663 1.045z"/><path d="M-34.578 38.128l5.7 6.252 3.592-6.665z"/><path d="M-24.714 51.038l-4.164-6.658-4.26 7.408zM-25 25l7.513-2.914L-25 17.105zM-20.616 30.569l-8.508 1.234 3.838 5.912zM-20.616 30.569l7.549-1.417-4.42-7.066z"/><path d="M-16.792 36.991l-3.824-6.422-4.67 7.146z"/><path d="M-20.616 30.569l3.824 6.422 3.725-7.839zM-25 25l4.384 5.569 3.129-8.483z"/><path d="M-20.616 30.569L-25 25l-4.124 6.803zM-13.067 29.152l4.247 6.996 3.838-7.178z"/><path d="M-4.374 43.077l-4.446-6.929-3.548 7.453z"/><path d="M-8.82 36.148l-7.972.843 4.424 6.61zM-16.792 36.991l7.972-.843-4.247-6.996zM-.677 35.903l-8.143.245 4.446 6.929z"/><path d="M-8.82 36.148l8.143-.245-4.305-6.933zM13.067 70.848l4.42 7.066 3.129-8.483zM17.487 77.914l1.722 8.129L25 82.895z"/><path d="M17.487 77.914L25 82.895V75zM19.209 86.043l-1.722-8.129-5.225 7.265z"/><path d="M9.247 78.006l8.24-.092-4.42-7.066z"/><path d="M17.487 77.914l-8.24.092 3.015 7.173zM-3.133 85.419l7.785-.119-3.527-7.12zM-3.133 85.419l3.957 7.225L4.652 85.3z"/><path d="M-6.926 78.315l3.793 7.104 4.258-7.239z"/><path d="M-3.133 85.419l-3.793-7.104-4.096 7.181zM-3.133 85.419l-3.855 7.266 7.812-.041z"/><path d="M-6.988 92.685l3.855-7.266-7.889.077zM43.324 9.279l-.109 7.995L50 14.417zM43.432 26.244l-.217-8.97-5.676 4.109zM43.215 17.274L50 22.207v-7.79z"/><path d="M37.539 21.383l5.676-4.109-7.806-3.428zM43.324 9.279l-5.77-2.951-2.145 7.518z"/><path d="M43.324 9.279l-7.915 4.567 7.806 3.428zM42.849 57.937l.173 7.859L50 60.746zM43.022 65.796L50 68.259v-7.513z"/><path d="M50 68.259l-6.978-2.463L42.258 75zM34.578 61.872l8.271-3.935-6.308-3.362z"/><path d="M43.022 65.796l-5.916 3.202L42.258 75zM-16.792 36.991l-3.764 7.112 8.188-.502zM-20.556 44.103l4.244 6.642 3.944-7.144z"/><path d="M-20.556 44.103l3.764-7.112-8.494.724z"/><path d="M-16.312 50.745l-4.244-6.642-4.158 6.935z"/><path d="M-20.556 44.103l-8.322.277 4.164 6.658z"/><path d="M-28.878 44.38l8.322-.277-4.73-6.388z"/></svg>