<svg xmlns="http://www.w3.org/2000/svg" viewBox="-50 -40.17 100 93.683"><style>path{fill:#c8c5bd;stroke:navy;stroke-width:.5;stroke-linejoin:bevel}</style><path d="M44.998 31.223l3.905 3.105.806-3.647zM-45.145 24L-50 26.657l3.467.955zM-26.308-18.535l-.45 3.674 4.786-1.273zM28.882 49.459l2.922-2.349-4.658-1.046zM-22.114 53.513l3.96-.458-2.567-3.46zM-31.804 47.11l2.227-4.059-4.014-.055z"/><path d="M-24.751 49.697l2.637 3.816 1.393-3.918zM-23.284 31.79l4.254-.05-2.184-3.643zM13.627 46.923l.528 5.038 2.486-2.775zM-4.675-30.373l2.396 3.756L0-29.814zM-2.242-4.922l-2.141 3.544L0-1.376z"/><path d="M2.242-4.922h-4.484L0-1.376zM-23.389-12.811l-3.369-2.05.109 4.2zM2.113 17.009l2.094-3.718L0 13.343zM6.311 17.009l-2.104-3.718-2.094 3.718z"/><path d="M4.207 13.291L2.101 9.597 0 13.343z"/><path d="M2.101 9.597l2.106 3.694 2.118-3.696zM10.806 2.287L6.49 2.242l2.017 3.68zM6.49 2.242l4.316.045-2.058-3.666zM25.18-22.613l-2.582 2.896 3.71 1.182z"/><path d="M26.308-18.535l-3.71-1.182-.626 3.583zM26.649-10.661l.109-4.2-3.369 2.05zM2.242-4.922l4.517.013-2.293-3.507zM21.502-29.44l-2.669 2.806 4.726.418zM45.309 41.885l-4.111-.09 1.433 3.4zM28.882 49.459l-2.891 3.931 3.698-.651zM28.882 49.459l4.383 2.116-1.461-4.465z"/><path d="M33.265 51.575l-4.383-2.116.807 3.28zM-29.577 43.051l-1.91-3.85-2.104 3.795zM-24.751 49.697l-1.24 3.693 3.877.123zM-29.577 43.051l2.431 3.013 2.059-3.54z"/><path d="M-27.146 46.064l-2.431-3.013-2.227 4.059zM20.64 42.496l-2-3.327-2.617 3.805zM29.577 43.051l2.227 4.059 1.787-4.114zM31.804 47.11l-2.227-4.059-2.431 3.013zM-14.789 31.723l-4.241.017 2.239 3.667zM-16.922 20.774l-2.174 3.652 4.266-.048zM-19.096 24.426l2.174-3.652-4.277-.009zM-2.113 17.009h4.226L0 13.343z"/><path d="M-4.207 13.291l2.094 3.718L0 13.343zM0 20.697l-2.113-3.688-2.094 3.697z"/><path d="M-2.113 17.009L0 20.697l2.113-3.688zM-18.421 45.901l4.794 1.022-2.396-3.949zM-32.899 5.507l-2.988 2.848 4.475.581zM-43.459 9.198l4.104.63-1.154-3.546zM9.67 45.759l-1.987 2.823 3.136 1.919z"/><path d="M7.683 48.582l1.987-2.823-4.836.487zM18.154 53.055l-1.513-3.869-2.486 2.775zM-21.502-29.44l4.918-.544-2.505-2.272zM-16.584-29.984l.33-4.77-2.835 2.498zM-16.254-34.754l-.33 4.77 3.509-1.168zM-10.759-34.155l-2.492-2.586-3.003 1.987z"/><path d="M-10.759-34.155l-5.495-.599 3.179 3.602zM-22.598-19.717l-2.582-2.896-1.128 4.078zM2.203-11.997l2.144-3.606L0-15.604z"/><path d="M-2.203-11.997h4.406L0-15.604zM-22.376-9.059l-4.273-1.602.685 3.829zM-26.308-18.535l4.336 2.401-.626-3.583zM-22.598-19.717l.626 3.583 3.27-3.256zM-21.972-16.134l-1.417 3.323 3.971.524z"/><path d="M-23.389-12.811l1.417-3.323-4.786 1.273zM-4.207 13.291l-2.118-3.696-2.086 3.74zM10.661-27.085L8.472-23.09l3.969.072z"/><path d="M8.472-23.09l2.189-3.995-4.174.408zM-39.355 9.828l1.951 3.189 1.517-4.662zM-25.453 28.076l2.169 3.714 2.07-3.693zM2.029-40.17h-4.058L0-36.545zM10.661-27.085l3.815.381-1.401-4.448z"/><path d="M14.476-26.704l-3.815-.381 1.78 4.067zM14.476-26.704l2.093 3.669 2.264-3.599z"/><path d="M16.569-23.035l-2.093-3.669-2.035 3.686zM16.569-23.035l4.191-.202-1.927-3.397z"/><path d="M18.833-26.634l1.927 3.397 2.799-2.979zM25.18-22.613l-4.42-.624 1.838 3.52zM20.76-23.237l4.42.624-1.621-3.603zM25.964-6.832l-4.89 1.197 3.748 2.274zM37.986 43.372l4.645 1.823-1.433-3.4zM37.986 43.372l1.891 4.345 2.754-2.522zM45.24 34.792l2.137 3.511 1.526-3.975zM25.991 53.39l-1.24-3.693-2.637 3.816zM24.751 49.697l4.131-.238-1.736-3.395z"/><path d="M24.751 49.697l1.24 3.693 2.891-3.931zM-35.603 39.426l-2.383 3.946 4.395-.376zM-35.603 39.426l-1.911-4.422-1.632 3.579z"/><path d="M-37.986 43.372l2.383-3.946-3.543-.843zM-37.514 35.004l1.911 4.422 1.931-3.93z"/><path d="M-35.603 39.426l4.116-.225-2.185-3.705zM-31.487 39.201l-4.116.225 2.012 3.57zM-27.392 39.185l-2.185 3.866 4.49-.527z"/><path d="M-23.017 38.979l-4.375.206 2.305 3.339zM-27.392 39.185l-4.095.016 1.91 3.85zM-25.991 53.39l-2.891-3.931-.807 3.28zM-28.882 49.459l-4.383 2.116 3.576 1.164z"/><path d="M-33.265 51.575l4.383-2.116-2.922-2.349zM-28.882 49.459l2.891 3.931 1.24-3.693z"/><path d="M-27.146 46.064l-1.736 3.395 4.131.238z"/><path d="M-28.882 49.459l1.736-3.395-4.658 1.046zM-22.805 45.997l-1.946 3.7 4.03-.102zM-18.421 45.901l-4.384.096 2.084 3.598zM-27.146 46.064l4.341-.067-2.282-3.473z"/><path d="M-22.805 45.997l-4.341.067 2.395 3.633zM-47.377 38.303l2.068 3.582 2.069-3.579zM-50 26.657l.291 4.024 3.176-3.069zM-49.709 30.681l4.711.542-1.535-3.611zM-41.431 34.624l-1.809 3.682 4.094.277z"/><path d="M-37.514 35.004l-3.917-.38 2.285 3.959zM-31.804 47.11l-4.738 2.871 3.277 1.594zM-31.804 47.11l-3.821-.603-.917 3.474z"/><path d="M-35.625 46.507l3.821.603-1.787-4.114zM-37.986 43.372l2.361 3.135 2.034-3.511z"/><path d="M-39.877 47.717l4.252-1.21-2.361-3.135zM-35.625 46.507l-4.252 1.21 3.335 2.264zM-41.198 41.795l3.212 1.577-1.16-4.789zM-41.198 41.795l-4.111.09 2.678 3.31zM-43.24 38.306l2.042 3.489 2.052-3.212z"/><path d="M-45.309 41.885l4.111-.09-2.042-3.489zM-37.986 43.372l-4.645 1.823 2.754 2.522z"/><path d="M-37.986 43.372l-3.212-1.577-1.433 3.4zM29.647 13.122l-1.968-3.555-2.229 3.77zM16.922 20.774l2.079-3.606-4.241-.081zM18.421 45.901l2.219-3.405-4.617.478zM29.577 43.051l-4.49-.527 2.059 3.54zM4.115 35.365l4.409-.312-2.273-3.403zM-10.615 31.555l4.364.095-2.163-3.644zM-20.988 35.443l1.958-3.703-4.254.05zM-19.03 31.74l-1.958 3.703 4.197-.036zM-18.64 39.169l-2.348-3.726-2.029 3.536z"/><path d="M-20.988 35.443l2.348 3.726 1.849-3.762zM-14.582 39.139l-4.058.03 2.617 3.805zM-18.64 39.169l4.058-.03-2.209-3.732zM-14.789 31.723l-2.165-3.656-2.076 3.673zM-19.03 31.74l2.076-3.673-4.26.03zM-19.096 24.426l2.142 3.641 2.124-3.689z"/><path d="M-16.954 28.067l-2.142-3.641-2.118 3.671zM-6.292 24.398l-4.258-.038 2.136 3.646zM-8.42 20.704l2.128 3.694 2.085-3.692z"/><path d="M-6.292 24.398l-2.128-3.694-2.13 3.656zM4.207 20.706l2.104-3.697H2.113z"/><path d="M0 20.697l4.207.009-2.094-3.697zM-4.115 35.365l-2.844 3.205 3.461.936zM-3.498 39.506l-3.461-.936-.069 4.017z"/><path d="M-7.028 42.587l.069-4.017-3.544.65z"/><path d="M-3.498 39.506l-3.53 3.081 4.714.932zM-32.899 5.507l2.008-4.436-3.447 1.297zM-40.509 6.282l1.154 3.546 3.468-1.473z"/><path d="M-40.509 6.282l4.622 2.073-1.687-4.232zM-37.574 4.123l4.675 1.384-1.439-3.139z"/><path d="M-32.899 5.507l-4.675-1.384 1.687 4.232zM-25.363 6.83l-2.316 2.737 4.558.489zM-24.403 3.355l-2.866-3.1-1.564 4.566z"/><path d="M-27.269.255l2.866 3.1 1.198-3.41zM-35.887 8.355l2.218 4.061 2.257-3.48zM-33.669 12.416l-3.735.601 1.838 3.633zM-37.404 13.017l3.735-.601-2.218-4.061zM7.028 42.587l2.642 3.172 2.213-3.002zM7.028 42.587l-4.714.932 2.52 2.727z"/><path d="M9.67 45.759l-2.642-3.172-2.194 3.659zM-23.559-26.216l4.726-.418-2.669-2.806zM-18.833-26.634l2.249-3.35-4.918.544zM-8.696-30.549l-2.063-3.606-2.316 3.003zM-4-36.554l1.971-3.616-4.141.643zM-2.029-40.17L-4-36.554l4 .009zM-2.121-19.274l-2.144-3.655-2.128 3.66zM4.347-15.603l-2.226-3.671L0-15.604z"/><path d="M6.393-19.269l-4.272-.005 2.226 3.671zM2.121-19.274h-4.242L0-15.604zM-11.368-4.889l-4.79.137 3.132 3.388zM-4.347-15.603l2.144 3.606L0-15.604z"/><path d="M-2.121-19.274l-2.226 3.671L0-15.604z"/><path d="M-4.347-15.603l2.226-3.671-4.272.005zM-4.347-15.603l-2.244 3.663 4.388-.057zM0-8.446l2.242 3.524 2.224-3.494z"/><path d="M2.242-4.922L0-8.446l-2.242 3.524zM0-8.446l2.203-3.551h-4.406zM2.203-11.997L0-8.446l4.466.03zM-23.389-12.811l1.013 3.752 2.958-3.228zM-22.376-9.059l-1.013-3.752-3.26 2.15zM-2.101 9.597l-2.106 3.694L0 13.343zM-2.101 9.597l-4.224-.002 2.118 3.696z"/><path d="M-6.325 9.595l4.224.002-2.154-3.7zM-4.255 5.897l2.154 3.7L0 5.89z"/><path d="M-2.101 9.597h4.202L0 5.89zM2.101 9.597h-4.202L0 13.343zM8.672-15.52l-2.279-3.749-2.046 3.666zM11.368-4.889l-4.609-.02 1.989 3.53zM20.76-23.237l-2.058 3.847 3.896-.327zM18.702-19.39l2.058-3.847-4.191.202zM19.001 17.168l-2.145-3.712-2.096 3.631zM-6.49 2.242l4.326-.009-2.219-3.611z"/><path d="M-4.383-1.378l2.219 3.611L0-1.376z"/><path d="M-2.164 2.233l-2.091 3.664L0 5.89z"/><path d="M-2.164 2.233l-4.326.009 2.235 3.655zM2.164 2.233h-4.328L0 5.89zM-2.164 2.233h4.328L0-1.376zM2.101 9.597l2.154-3.7L0 5.89zM4.255 5.897l2.07 3.698 2.182-3.673z"/><path d="M4.255 5.897l-2.154 3.7 4.224-.002zM6.49 2.242L4.255 5.897l4.252.025z"/><path d="M2.164 2.233l2.091 3.664L6.49 2.242zM4.255 5.897L2.164 2.233 0 5.89zM6.759-4.909L4.383-1.378l4.365-.001zM4.383-1.378L2.242-4.922 0-1.376z"/><path d="M4.383-1.378l2.107 3.62 2.258-3.621zM4.383-1.378l2.376-3.531-4.517-.013z"/><path d="M4.383-1.378L2.164 2.233l4.326.009z"/><path d="M2.164 2.233l2.219-3.611L0-1.376zM-41.752 13.157l-1.707-3.959-2.38 3.2z"/><path d="M-43.459 9.198l1.707 3.959 2.397-3.329zM-41.752 13.157l4.348-.14-1.951-3.189zM-45.145 24l-4.596-.977-.259 3.634zM-41.431 34.624l1.044-3.487-4.611.086zM-40.387 31.137l-1.044 3.487 3.917.38zM10.661-27.085l-1.965-3.464-2.209 3.872z"/><path d="M8.696-30.549l1.965 3.464 2.414-4.067zM4.675-30.373l4.021-.176L6.9-34.532zM8.696-30.549l-4.021.176 1.812 3.696zM4.675-30.373L2.258-33.11 0-29.814z"/><path d="M2.258-33.11l2.417 2.737L6.9-34.532zM16.584-29.984l4.918.544-2.413-2.816zM16.584-29.984l-.33-4.77-3.179 3.602z"/><path d="M16.254-34.754l.33 4.77 2.505-2.272z"/><path d="M21.502-29.44l-4.918-.544 2.249 3.35z"/><path d="M16.584-29.984l-2.108 3.28 4.357.07z"/><path d="M14.476-26.704l2.108-3.28-3.509-1.168zM22.376-9.059l4.273-1.602-3.26-2.15zM25.964-6.832l-3.588-2.227-1.302 3.424zM22.376-9.059l3.588 2.227.685-3.829zM15.042 2.659l4.674-.25-2.84-3.076zM19.716 2.409l-4.674.25 2.039 3.38zM20.107-2.263l.967-3.372-4.916.883z"/><path d="M19.716 2.409l.391-4.672-3.231 1.596zM20.107-2.263l3.098 2.208 1.617-3.306z"/><path d="M20.107-2.263l4.715-1.098-3.748-2.274zM35.625 46.507l2.361-3.135-4.395-.376z"/><path d="M31.804 47.11l3.821-.603-2.034-3.511zM31.804 47.11l1.461 4.465 3.277-1.594z"/><path d="M31.804 47.11l4.738 2.871-.917-3.474zM35.625 46.507l4.252 1.21-1.891-4.345zM39.877 47.717l-4.252-1.21.917 3.474zM47.377 38.303l-4.137.003 2.069 3.579zM45.309 41.885l-2.069-3.579-2.042 3.489z"/><path d="M43.24 38.306l4.137-.003-2.137-3.511zM-27.544 31.738l2.091-3.662-4.234-.036zM-25.453 28.076l-2.091 3.662 4.26.052zM-31.818 31.728l4.274.01-2.143-3.698zM-20.64 42.496l2-3.327-4.377-.19z"/><path d="M-20.64 42.496l-2.377-3.517-2.07 3.545zM-20.64 42.496l2.219 3.405 2.398-2.927zM-18.64 39.169l-2 3.327 4.617.478z"/><path d="M-20.64 42.496l-2.165 3.501 4.384-.096z"/><path d="M-22.805 45.997l2.165-3.501-4.447.028zM-47.377 38.303l2.137-3.511-3.663-.464z"/><path d="M-44.998 31.223l-3.905 3.105 3.663.464zM-45.24 34.792l-2.137 3.511 4.137.003z"/><path d="M-44.998 31.223l-4.711-.542.806 3.647z"/><path d="M-45.24 34.792l3.809-.168-3.567-3.401zM-41.431 34.624l-3.809.168 2 3.514zM37.404 13.017l-1.517-4.662-2.218 4.061zM31.412 8.936l-1.765 4.186 4.022-.706z"/><path d="M35.887 8.355l-4.475.581 2.257 3.48zM31.412 8.936l-3.733.631 1.968 3.555zM45.145 24l-3.236-3.509-1.395 3.615zM37.986 43.372l-2.383-3.946-2.012 3.57zM10.55 24.36l-2.136 3.646 4.305-.03zM8.414 28.006l2.136-3.646-4.258.038zM13.627 46.923L9.67 45.759l1.149 4.742z"/><path d="M11.883 42.757l1.744 4.166 2.396-3.949zM13.627 46.923l-2.808 3.578 3.336 1.46zM9.67 45.759l3.957 1.164-1.744-4.166z"/><path d="M18.421 45.901l-4.794 1.022 3.014 2.263z"/><path d="M13.627 46.923l4.794-1.022-2.398-2.927zM20.721 49.595l-2.567 3.46 3.96.458z"/><path d="M18.154 53.055l2.567-3.46-4.08-.409zM24.751 49.697l-4.03-.102 1.393 3.918zM20.721 49.595l-2.3-3.694-1.78 3.285zM14.582 39.139l-2.699 3.618 4.14.217zM18.64 39.169l-4.058-.03 1.441 3.835z"/><path d="M14.582 39.139l2.209-3.732-4.199.016z"/><path d="M16.791 35.407l-2.209 3.732 4.058.03zM16.791 35.407l-2.002-3.684-2.197 3.7z"/><path d="M12.719 27.976l2.07 3.747 2.165-3.656zM-2.314 43.519L0 40.138l-3.498-.632zM0 40.138l3.498-.632L0 36.054zM3.498 39.506L0 40.138l2.314 3.381zM-12.592 35.423l1.977-3.868-4.174.168z"/><path d="M-12.592 35.423l-2.197-3.7-2.002 3.684zM-12.592 35.423l-1.99 3.716 4.079.081z"/><path d="M-14.582 39.139l1.99-3.716-4.199-.016zM-12.719 27.976l2.104 3.579 2.201-3.549z"/><path d="M-10.55 24.36l-2.169 3.616 4.305.03z"/><path d="M-12.719 27.976l2.169-3.616-4.28.018zM-10.615 31.555l-2.104-3.579-2.07 3.747z"/><path d="M-12.719 27.976l-4.235.091 2.165 3.656zM-16.954 28.067l4.235-.091-2.111-3.598zM-16.922 20.774l-2.079-3.606-2.198 3.597zM-21.079 13.589l2.109-3.758-4.151.225zM0 36.054l-4.115-.689.617 4.141zM0 36.054l3.498 3.452.617-4.141zM0 40.138v-4.084l-3.498 3.452zM4.207 20.706l-2.116 3.698 4.201-.006z"/><path d="M2.091 24.404l2.116-3.698L0 20.697zM-6.251 31.65l2.114-3.533-4.277-.111z"/><path d="M-4.137 28.117l-2.155-3.719-2.122 3.608zM-16.641 49.186l-1.513 3.869 3.999-1.094zM-16.641 49.186l-1.78-3.285-2.3 3.694zM-18.154 53.055l1.513-3.869-4.08.409z"/><path d="M-16.641 49.186l3.014-2.263-4.794-1.022zM-14.155 51.961l.528-5.038-3.014 2.263z"/><path d="M-14.155 51.961l3.336-1.46-2.808-3.578zM-7.028 42.587l2.194 3.659 2.52-2.727zM-11.883 42.757l-2.699-3.618-1.441 3.835z"/><path d="M-14.582 39.139l2.699 3.618 1.38-3.537zM-13.627 46.923l1.744-4.166-4.14.217z"/><path d="M-11.883 42.757l4.855-.17-3.475-3.367zM-30.891 1.071l2.058 3.75 1.564-4.566zM-28.833 4.821l-4.066.686 1.487 3.429zM-24.403 3.355l-4.43 1.466 3.47 2.009z"/><path d="M-28.833 4.821l-2.058-3.75-2.008 4.436zM-28.833 4.821l1.154 4.746 2.316-2.737z"/><path d="M-27.679 9.567l-1.154-4.746-2.579 4.115zM-25.45 13.337l4.371.252-2.042-3.533z"/><path d="M-27.679 9.567l2.229 3.77 2.329-3.281zM-16.158-4.752l-.718 4.085 3.85-.697zM-25.453 28.076l-2.149-3.728-2.085 3.692zM-29.635 20.532l-2.054-3.921-2.022 3.872zM-31.689 16.611l-3.877.039 1.855 3.833z"/><path d="M-31.689 16.611l2.054 3.921 2.116-3.591zM-31.689 16.611l-1.98-4.195-1.897 4.234zM7.028 42.587l-3.53-3.081-1.184 4.013zM6.959 38.57l1.565-3.517-4.409.312zM3.498 39.506l3.461-.936-2.844-3.205z"/><path d="M7.028 42.587l-.069-4.017-3.461.936zM-20.76-23.237l-1.838 3.52 3.896.327zM-16.569-23.035l-4.191-.202 2.058 3.847z"/><path d="M-25.18-22.613l4.42-.624-2.799-2.979z"/><path d="M-20.76-23.237l-4.42.624 2.582 2.896zM-20.76-23.237l1.927-3.397-4.726.418zM-18.833-26.634l-1.927 3.397 4.191.202zM-16.584-29.984l2.108 3.28 1.401-4.448z"/><path d="M-12.441-23.018l-2.035-3.686-2.093 3.669z"/><path d="M-18.833-26.634l4.357-.07-2.108-3.28z"/><path d="M-14.476-26.704l-4.357.07 2.264 3.599zM-6.9-34.532l-1.796 3.983 4.021.176zM-8.696-30.549l1.796-3.983-3.859.377z"/><path d="M-8.696-30.549l2.209 3.872 1.812-3.696zM-4.675-30.373l-1.812 3.696 4.208.06zM-6.487-26.677l2.222 3.748 1.986-3.688zM4.675-30.373l-2.396 3.756 4.208-.06zM-2.279-26.617h4.558L0-29.814z"/><path d="M2.279-26.617l2.396-3.756L0-29.814zM-14.627-19.261l-1.942-3.774-2.133 3.645z"/><path d="M-14.627-19.261l2.186-3.757-4.128-.017zM-14.627-19.261l4.109.038-1.923-3.795zM-6.759-4.909l2.376 3.531 2.141-3.544zM-15.246-11.962l1.748 3.713 2.524-3.614z"/><path d="M-11.368-4.889l-2.13-3.36-2.66 3.497zM-6.591-11.94l-2.081-3.58-2.302 3.657zM-10.518-19.223l1.846 3.703 2.279-3.749z"/><path d="M-4.347-15.603l-4.325.083 2.081 3.58z"/><path d="M-8.672-15.52l4.325-.083-2.046-3.666zM-25.964-6.832l1.142 3.471 3.748-2.274zM-6.325 9.595l-4.206.096 2.12 3.644zM22.376-9.059l-4.488.618 3.186 2.806zM19.418-12.287l2.958 3.228 1.013-3.752z"/><path d="M19.418-12.287l-1.53 3.846 4.488-.618z"/><path d="M17.888-8.441l1.53-3.846-4.172.325zM10.974-11.863l2.017-3.68-4.319.023zM12.991-15.543l-2.017 3.68 4.272-.099zM10.806 2.287l2.22-3.651-4.278-.015zM13.026-1.364l-1.658-3.525-2.62 3.51zM15.042 2.659l-2.016-4.023-2.22 3.651z"/><path d="M13.026-1.364l2.016 4.023 1.834-3.326zM21.079 13.589l-4.223-.133 2.145 3.712zM-41.909 20.491L-45.145 24l4.631.106zM-42.475 27.607L-45.145 24l-1.388 3.612z"/><path d="M-44.998 31.223l2.523-3.616-4.058.005zM-45.145 24l2.67 3.607 1.961-3.501z"/><path d="M-40.387 31.137l-2.088-3.53-2.523 3.616zM-31.818 31.728l-4.198-.29 2.344 4.058z"/><path d="M-36.016 31.438l-1.498 3.566 3.842.492zM-36.016 31.438l-4.371-.301 2.873 3.867zM10.759-34.155l5.495-.599-3.003-1.987z"/><path d="M10.759-34.155l2.316 3.003 3.179-3.602zM9.666-38.443l1.093 4.288 2.492-2.586z"/><path d="M10.759-34.155l-1.093-4.288L6.9-34.532z"/><path d="M8.696-30.549l2.063-3.606-3.859-.377zM10.759-34.155l-2.063 3.606 4.379-.603zM4-36.554L2.029-40.17 0-36.545z"/><path d="M2.029-40.17L4-36.554l2.17-2.973zM6.17-39.527l.73 4.995 2.766-3.911z"/><path d="M6.17-39.527L4-36.554l2.9 2.022zM4-36.554L2.258-33.11 6.9-34.532z"/><path d="M2.258-33.11L4-36.554l-4 .009zM24.403 3.355l.96 3.475 3.47-2.009zM24.403 3.355l2.866-3.1-4.064-.31z"/><path d="M19.716 2.409l3.489-2.464-3.098-2.208z"/><path d="M19.716 2.409l4.687.946-1.198-3.41zM-29.512 35.423l-2.306-3.695-1.854 3.768zM-31.487 39.201l1.975-3.778-4.16.073z"/><path d="M-27.392 39.185l-2.12-3.762-1.975 3.778zM-29.512 35.423l1.968-3.685-4.274-.01zM45.839 12.398l-2.38-3.2-1.707 3.959zM46.533 27.612l3.176 3.069.291-4.024z"/><path d="M45.145 24l1.388 3.612L50 26.657z"/><path d="M45.145 24L50 26.657l-.259-3.634zM37.404 13.017l2.276 3.749 2.072-3.609z"/><path d="M49.741 23.023l-4.024-2.731L45.145 24z"/><path d="M45.717 20.292l4.024 2.731-.782-3.681zM45.717 20.292l-3.808.199L45.145 24zM31.487 39.201l-1.91 3.85 4.014-.055zM35.603 39.426l-4.116-.225 2.104 3.795zM21.079 13.589l2.231 3.489 2.14-3.741z"/><path d="M23.31 17.078l-2.231-3.489-2.078 3.579zM41.431 34.624l1.809 3.682 2-3.514zM8.42 20.704l2.113-3.674-4.222-.021z"/><path d="M4.207 20.706l4.213-.002-2.109-3.695zM8.42 20.704l-4.213.002 2.085 3.692zM10.55 24.36l-2.13-3.656-2.128 3.694zM14.83 24.378l-2.111 3.598 4.235.091z"/><path d="M14.83 24.378l-4.28-.018 2.169 3.616zM25.087 42.524l-2.282 3.473 4.341.067zM18.421 45.901l4.384.096-2.165-3.501zM22.805 45.997l1.946 3.7 2.395-3.633z"/><path d="M22.805 45.997l2.282-3.473-4.447-.028zM20.721 49.595l2.084-3.598-4.384-.096zM22.805 45.997l-2.084 3.598 4.03.102zM10.615 31.555l-2.201-3.549-2.163 3.644z"/><path d="M8.524 35.053l2.091-3.498-4.364.095zM10.615 31.555l-2.091 3.498 4.068.37z"/><path d="M8.414 28.006l2.201 3.549 2.104-3.579zM10.615 31.555l4.174.168-2.07-3.747zM14.789 31.723l-4.174-.168 1.977 3.868zM-8.524 35.053l4.409.312-2.136-3.715zM-10.615 31.555l2.091 3.498 2.273-3.403zM-6.959 38.57l-1.565-3.517-1.979 4.167z"/><path d="M-8.524 35.053l1.565 3.517 2.844-3.205zM-12.592 35.423l4.068-.37-2.091-3.498z"/><path d="M-8.524 35.053l-4.068.37 2.089 3.797zM-21.182 6.194l-3.221-2.839-.96 3.475zM-21.182 6.194l-4.181.636 2.242 3.226zM-21.182 6.194l2.212 3.637 1.889-3.792z"/><path d="M-18.97 9.831l-2.212-3.637-1.939 3.862zM-6.311 17.009h4.198l-2.094-3.718zM-6.311 17.009l2.104-3.718-4.204.044zM-2.113 17.009h-4.198l2.104 3.697z"/><path d="M-6.311 17.009l-2.109 3.695 4.213.002zM-6.311 17.009l-4.222.021 2.113 3.674z"/><path d="M-10.533 17.03l4.222-.021-2.1-3.674zM-10.55 24.36l-2.112-3.639-2.168 3.657z"/><path d="M-12.662 20.721l-4.26.053 2.092 3.604zM-8.42 20.704l-4.242.017 2.112 3.639z"/><path d="M-10.533 17.03l-2.129 3.691 4.242-.017zM1.987 31.945l2.128 3.42 2.136-3.715z"/><path d="M1.987 31.945L0 36.054l4.115-.689zM-2.091 24.404h4.182L0 20.697z"/><path d="M-2.091 24.404L0 20.697l-4.207.009zM-6.292 24.398l4.201.006-2.116-3.698zM2.091 24.404h-4.182L0 28.143z"/><path d="M-2.091 24.404l-2.046 3.713L0 28.143z"/><path d="M-4.137 28.117l2.046-3.713-4.201-.006zM-10.819 50.501l1.149-4.742-3.957 1.164zM-9.67 45.759l-1.149 4.742 3.136-1.919z"/><path d="M-4.834 46.246l-4.836-.487 1.987 2.823z"/><path d="M-9.67 45.759l4.836.487-2.194-3.659z"/><path d="M-11.883 42.757l2.213 3.002 2.642-3.172zM-9.67 45.759l-2.213-3.002-1.744 4.166zM-19.001 17.168l-4.309-.09 2.111 3.687zM-23.31 17.078l4.309.09-2.078-3.579zM-25.45 13.337l2.14 3.741 2.231-3.489z"/><path d="M-23.31 17.078l-2.14-3.741-2.069 3.604zM-15.042 2.659l4.236-.372-2.22-3.651zM-16.876-.667l1.834 3.326 2.016-4.023zM-31.798 24.252l2.163-3.72-4.076-.049zM-36.073 24.159l4.275.093-1.913-3.769zM-31.798 24.252l4.196.096-2.033-3.816zM-27.602 24.348l-4.196-.096 2.111 3.788zM-19.096 24.426l-4.256-.009 2.138 3.68z"/><path d="M-23.352 24.417l4.256.009-2.103-3.661zM-23.352 24.417l-2.101 3.659 4.239.021z"/><path d="M-23.352 24.417l-4.25-.069 2.149 3.728zM-29.647 13.122l1.968-3.555-3.733-.631z"/><path d="M-33.669 12.416l4.022.706-1.765-4.186zM-25.45 13.337l-4.197-.215 2.128 3.819z"/><path d="M-29.647 13.122l4.197.215-2.229-3.77zM-31.689 16.611l2.042-3.489-4.022-.706zM-29.647 13.122l-2.042 3.489 4.17.33zM10.503 39.22l-3.475 3.367 4.855.17zM8.524 35.053l1.979 4.167 2.089-3.797z"/><path d="M14.582 39.139l-4.079.081 1.38 3.537zM10.503 39.22l4.079-.081-1.99-3.716zM10.503 39.22l-3.544-.65.069 4.017z"/><path d="M6.959 38.57l3.544.65-1.979-4.167zM-4-36.554l1.742 3.444L0-36.545zM-2.258-33.11l-2.417 2.737L0-29.814zM-2.258-33.11h4.516L0-36.545z"/><path d="M2.258-33.11h-4.516L0-29.814zM-6.9-34.532l4.642 1.422L-4-36.554zM-2.258-33.11L-6.9-34.532l2.225 4.159zM-6.17-39.527l-3.496 1.084 2.766 3.911zM-10.759-34.155l1.093-4.288-3.585 1.702z"/><path d="M-6.9-34.532l-2.766-3.911-1.093 4.288zM-6.17-39.527l-.73 4.995 2.9-2.022zM-8.472-23.09l-2.046 3.867 4.125-.046z"/><path d="M-4.265-22.929l-4.207-.161 2.079 3.821zM-10.518-19.223l2.046-3.867-3.969.072z"/><path d="M-6.487-26.677l-1.985 3.587 4.207.161zM8.472-23.09l-4.207.161 2.128 3.66z"/><path d="M4.265-22.929l4.207-.161-1.985-3.587zM4.265-22.929l-2.144 3.655 4.272.005zM2.279-26.617l1.986 3.688 2.222-3.748zM-15.246-11.962l-2.136-3.758-2.036 3.433zM-21.972-16.134l4.59.414-1.32-3.67zM-17.382-15.72l-4.59-.414 2.554 3.847z"/><path d="M-17.382-15.72l2.755-3.541-4.075-.129zM-8.748-1.379l2.258 3.621 2.107-3.62zM-8.748-1.379l-2.62-3.51-1.658 3.525z"/><path d="M-10.806 2.287l2.058-3.666-4.278.015zM-8.748-1.379l-2.058 3.666 4.316-.045zM-8.748-1.379l1.989-3.53-4.609.02z"/><path d="M-6.759-4.909l-1.989 3.53 4.365.001zM-6.591-11.94l2.125 3.524 2.263-3.581zM0-8.446l-4.466.03 2.224 3.494z"/><path d="M-4.466-8.416L0-8.446l-2.203-3.551zM-4.466-8.416l-2.293 3.507 4.517-.013zM-17.888-8.441l2.642-3.521-4.172-.325zM-22.376-9.059l4.488.618-1.53-3.846zM-13.498-8.249l-4.39-.192 1.73 3.689z"/><path d="M-17.888-8.441l4.39.192-1.748-3.713zM-24.822-3.361l4.715 1.098-.967-3.372zM-19.716 2.409l-3.489-2.464-1.198 3.41zM-6.49 2.242l-2.017 3.68 4.252-.025zM-10.806 2.287l2.299 3.635 2.017-3.68z"/><path d="M-8.507 5.922l2.182 3.673 2.07-3.698z"/><path d="M-8.507 5.922l-2.024 3.769 4.206-.096zM-19.001 17.168l2.145-3.712-4.223.133z"/><path d="M-16.856 13.456l-2.114-3.625-2.109 3.758zM2.203-11.997l4.388.057-2.244-3.663z"/><path d="M6.591-11.94l-4.388-.057 2.263 3.581zM6.591-11.94l2.081-3.58-4.325-.083zM6.591-11.94l4.383.077-2.302-3.657zM13.498-8.249l4.39-.192-2.642-3.521z"/><path d="M10.974-11.863l2.524 3.614 1.748-3.713zM26.308-18.535l-4.336 2.401 4.786 1.273zM26.758-14.861l-4.786-1.273 1.417 3.323zM18.702-19.39l3.27 3.256.626-3.583z"/><path d="M21.972-16.134l-2.554 3.847 3.971-.524zM10.518-19.223L8.472-23.09l-2.079 3.821z"/><path d="M8.472-23.09l2.046 3.867 1.923-3.795z"/><path d="M8.672-15.52l1.846-3.703-4.125-.046zM12.991-15.543l-2.473-3.68-1.846 3.703zM12.648 13.365l-2.115 3.665 4.227.057zM16.856 13.456l-4.208-.091 2.112 3.722z"/><path d="M14.798 9.701l-2.15 3.664 4.208.091zM15.042 2.659l-2.329 3.44 4.368-.06z"/><path d="M12.713 6.099l2.329-3.44-4.236-.372zM12.713 6.099l-1.907-3.812-2.299 3.635zM12.713 6.099l2.085 3.602 2.283-3.662zM23.121 10.056l4.558-.489-2.316-2.737zM27.679 9.567l-4.558.489 2.329 3.281z"/><path d="M23.121 10.056l-2.042 3.533 4.371-.252zM-35.566 16.65l-2.247 3.835 4.102-.002z"/><path d="M-37.813 20.485l1.74 3.674 2.362-3.676z"/><path d="M-36.073 24.159l-1.74-3.674-2.701 3.621z"/><path d="M-37.813 20.485l-4.096.006 1.395 3.615zM-45.717 20.292l-1.955-4.476-1.287 3.526z"/><path d="M-49.741 23.023l4.024-2.731-3.242-.95z"/><path d="M-45.145 24l-.572-3.708-4.024 2.731zM-41.909 20.491l-3.808-.199.572 3.708zM-38.134 27.691l2.061-3.532-4.441-.053z"/><path d="M-42.475 27.607l4.341.084-2.38-3.585zM-38.134 27.691l-4.341-.084 2.088 3.53zM-36.016 31.438l-2.118-3.747-2.253 3.446zM37.574 4.123l-4.675 1.384 2.988 2.848zM32.899 5.507l4.675-1.384-3.236-1.755z"/><path d="M32.899 5.507l-1.487 3.429 4.475-.581zM30.891 1.071l2.008 4.436 1.439-3.139zM-25.315 35.45l-2.077 3.735 4.375-.206zM-25.315 35.45l4.327-.007-2.296-3.653z"/><path d="M-20.988 35.443l-4.327.007 2.298 3.529z"/><path d="M-27.544 31.738l2.229 3.712 2.031-3.66zM-29.512 35.423l4.197.027-2.229-3.712zM-25.315 35.45l-4.197-.027 2.12 3.762zM35.887 8.355l3.468 1.473 1.154-3.546zM35.887 8.355l4.622-2.073-2.935-2.159z"/><path d="M37.404 13.017l1.951-3.189-3.468-1.473z"/><path d="M39.355 9.828l-1.951 3.189 4.348.14zM43.459 9.198l-4.104.63 2.397 3.329zM39.355 9.828l4.104-.63-2.95-2.916zM42.475 27.607L45.145 24l-4.631.106zM42.475 27.607l4.058.005L45.145 24z"/><path d="M35.566 16.65l1.838-3.633-3.735-.601z"/><path d="M35.566 16.65l4.114.116-2.276-3.749zM47.672 15.816l-1.955 4.476 3.242-.95zM20.988 35.443l-4.197-.036 1.849 3.762zM43.24 38.306l-4.094.277 2.052 3.212z"/><path d="M39.146 38.583l-1.16 4.789 3.212-1.577z"/><path d="M39.146 38.583l-3.543.843 2.383 3.946zM41.431 34.624l-2.285 3.959 4.094-.277zM8.42 20.704l4.242.017-2.129-3.691z"/><path d="M10.533 17.03l2.129 3.691 2.098-3.634zM12.662 20.721l4.26.053-2.162-3.687z"/><path d="M12.662 20.721l-4.242-.017 2.13 3.656z"/><path d="M14.83 24.378l-2.168-3.657-2.112 3.639zM12.662 20.721l2.168 3.657 2.092-3.604zM8.414 28.006l-4.277.111 2.114 3.533zM4.137 28.117l-2.046-3.713L0 28.143z"/><path d="M4.137 28.117l4.277-.111-2.122-3.608z"/><path d="M2.091 24.404l2.046 3.713 2.155-3.719zM1.987 31.945l2.15-3.828L0 28.143z"/><path d="M4.137 28.117l-2.15 3.828 4.264-.295zM-4.115 35.365l2.128-3.42-4.264-.295zM0 36.054l-1.987-4.109-2.128 3.42zM-4.137 28.117l2.15 3.828L0 28.143z"/><path d="M-1.987 31.945l-2.15-3.828-2.114 3.533zM1.987 31.945h-3.974L0 36.054zM-1.987 31.945h3.974L0 28.143zM-29.635 20.532l4.197.181-2.081-3.772z"/><path d="M-27.602 24.348l2.164-3.635-4.197-.181zM-23.31 17.078l-2.128 3.635 4.239.052z"/><path d="M-25.438 20.713l2.128-3.635-4.209-.137zM-23.352 24.417l-2.086-3.704-2.164 3.635z"/><path d="M-25.438 20.713l2.086 3.704 2.153-3.652zM-14.476-26.704l3.815-.381-2.414-4.067zM-10.661-27.085l1.965-3.464-4.379-.603zM-10.661-27.085l-3.815.381 2.035 3.686zM-10.661-27.085l4.174.408-2.209-3.872zM-10.661-27.085l2.189 3.995 1.985-3.587z"/><path d="M-8.472-23.09l-2.189-3.995-1.78 4.067zM-4.265-22.929L0-23.018l-2.279-3.599z"/><path d="M0-23.018l-4.265.089 2.144 3.655z"/><path d="M2.121-19.274L0-23.018l-2.121 3.744zM0-23.018l2.279-3.599h-4.558zM0-23.018l4.265.089-1.986-3.688z"/><path d="M4.265-22.929L0-23.018l2.121 3.744zM-14.627-19.261l1.636 3.718 2.473-3.68zM-12.991-15.543l-2.255 3.581 4.272.099z"/><path d="M-8.672-15.52l-4.319-.023 2.017 3.68z"/><path d="M-12.991-15.543l4.319.023-1.846-3.703zM-17.382-15.72l4.391.177-1.636-3.718zM-12.991-15.543l-4.391-.177 2.136 3.758zM-8.962-8.353l2.371-3.587-4.383.077zM-6.759-4.909l-2.203-3.444-2.406 3.464z"/><path d="M-13.498-8.249l4.536-.104-2.012-3.51zM-8.962-8.353l-4.536.104 2.13 3.36zM-4.466-8.416l-4.496.063 2.203 3.444z"/><path d="M-8.962-8.353l4.496-.063-2.125-3.524zM-25.964-6.832l4.89 1.197-1.302-3.424zM-20.107-2.263l3.949-2.489-4.916-.883z"/><path d="M-17.888-8.441l-3.186 2.806 4.916.883z"/><path d="M-21.074-5.635l3.186-2.806-4.488-.618zM-24.822-3.361l1.617 3.306 3.098-2.208zM-20.107-2.263l3.231 1.596.718-4.085zM-19.716 2.409l-1.466 3.785 4.101-.155z"/><path d="M-15.042 2.659l-4.674-.25 2.635 3.63z"/><path d="M-21.182 6.194l1.466-3.785-4.687.946z"/><path d="M-19.716 2.409l4.674.25-1.834-3.326zM-19.716 2.409l-.391-4.672-3.098 2.208z"/><path d="M-20.107-2.263l.391 4.672 2.84-3.076zM-12.713 6.099l-2.329-3.44-2.039 3.38z"/><path d="M-15.042 2.659l2.329 3.44 1.907-3.812z"/><path d="M-8.507 5.922l-4.206.177 2.182 3.592z"/><path d="M-12.713 6.099l4.206-.177-2.299-3.635zM-12.662 20.721l-2.098-3.634-2.162 3.687z"/><path d="M-14.76 17.087l-4.241.081 2.079 3.606zM-14.76 17.087l2.098 3.634 2.129-3.691zM-14.76 17.087l-2.096-3.631-2.145 3.712zM17.888-8.441l-1.73 3.689 4.916-.883zM20.107-2.263l-3.949-2.489.718 4.085z"/><path d="M16.158-4.752l-3.132 3.388 3.85.697zM13.026-1.364l3.132-3.388-4.79-.137zM13.498-8.249l2.66 3.497 1.73-3.689z"/><path d="M16.158-4.752l-2.66-3.497-2.13 3.36zM8.962-8.353L6.591-11.94 4.466-8.416zM6.759-4.909l2.203-3.444-4.496-.063zM11.368-4.889L8.962-8.353 6.759-4.909z"/><path d="M6.591-11.94l2.371 3.587 2.012-3.51zM8.962-8.353l4.536.104-2.524-3.614zM13.498-8.249l-4.536-.104 2.406 3.464zM17.382-15.72l-4.391.177 2.255 3.581z"/><path d="M19.418-12.287l-2.036-3.433-2.136 3.758zM21.972-16.134l-4.59.414 2.036 3.433z"/><path d="M17.382-15.72l4.59-.414-3.27-3.256zM4.207 13.291l4.204.044-2.086-3.74zM8.411 13.335l-4.204-.044 2.104 3.718zM10.533 17.03l-2.122-3.695-2.1 3.674z"/><path d="M12.648 13.365l-4.237-.03 2.122 3.695zM18.97 9.831l-4.172-.13 2.058 3.755z"/><path d="M14.798 9.701l4.172.13-1.889-3.792z"/><path d="M21.079 13.589L18.97 9.831l-2.114 3.625zM23.121 10.056l-4.151-.225 2.109 3.758zM-37.404 13.017l-2.276 3.749 4.114-.116z"/><path d="M-41.752 13.157l2.072 3.609 2.276-3.749zM-37.813 20.485l-1.867-3.719-2.229 3.725z"/><path d="M-39.68 16.766l1.867 3.719 2.247-3.835zM-33.872 27.884l-2.144 3.554 4.198.29zM-31.798 24.252l-2.074 3.632 4.185.156z"/><path d="M-33.872 27.884l2.054 3.844 2.131-3.688zM-33.872 27.884l2.074-3.632-4.275-.093zM-33.872 27.884l-4.262-.193 2.118 3.747z"/><path d="M-38.134 27.691l4.262.193-2.201-3.725zM24.403 3.355l4.43 1.466L27.269.255zM27.679 9.567l1.154-4.746-3.47 2.009zM31.412 8.936l-2.579-4.115-1.154 4.746z"/><path d="M28.833 4.821l2.058-3.75-3.622-.816zM28.833 4.821l4.066.686-2.008-4.436z"/><path d="M32.899 5.507l-4.066-.686 2.579 4.115zM46.533 27.612l-1.535 3.611 4.711-.542zM44.998 31.223l.242 3.569 3.663-.464z"/><path d="M44.998 31.223l-3.567 3.401 3.809.168z"/><path d="M41.431 34.624l3.567-3.401-4.611-.086zM42.475 27.607l2.523 3.616 1.535-3.611zM44.998 31.223l-2.523-3.616-2.088 3.53z"/><path d="M40.387 31.137l-2.253-3.446-2.118 3.747z"/><path d="M38.134 27.691l-4.262.193 2.144 3.554zM38.134 27.691l4.341-.084-1.961-3.501zM42.475 27.607l-4.341.084 2.253 3.446z"/><path d="M36.073 24.159l2.061 3.532 2.38-3.585z"/><path d="M38.134 27.691l-2.061-3.532-2.201 3.725zM39.68 16.766l4.176-.17-2.104-3.439z"/><path d="M43.856 16.596l1.983-4.198-4.087.759zM43.856 16.596l-4.176.17 2.229 3.725z"/><path d="M45.717 20.292l-1.861-3.696-1.947 3.895z"/><path d="M47.672 15.816l-3.816.78 1.861 3.696z"/><path d="M43.856 16.596l3.816-.78-1.833-3.418zM33.672 35.496l-2.185 3.705 4.116.225z"/><path d="M33.672 35.496l-4.16-.073 1.975 3.778z"/><path d="M29.512 35.423l-2.12 3.762 4.095.016zM27.392 39.185l-2.305 3.339 4.49.527z"/><path d="M31.487 39.201l-4.095-.016 2.185 3.866zM14.789 31.723l4.241.017-2.076-3.673z"/><path d="M19.03 31.74l-4.241-.017 2.002 3.684zM19.03 31.74l1.958 3.703 2.296-3.653z"/><path d="M20.988 35.443L19.03 31.74l-2.239 3.667zM14.83 24.378l4.266.048-2.174-3.652zM19.096 24.426l-4.266-.048 2.124 3.689zM-16.856 13.456l2.058-3.755-4.172.13zM-18.97 9.831l4.172-.13-2.283-3.662zM-12.713 6.099l-2.085 3.602 4.267-.01z"/><path d="M-14.798 9.701l2.085-3.602-4.368-.06zM10.518-19.223l4.109-.038-2.186-3.757z"/><path d="M14.627-19.261l1.942-3.774-4.128.017zM14.627-19.261l4.075-.129-2.133-3.645zM14.627-19.261l-4.109.038 2.473 3.68zM17.382-15.72l-2.755-3.541-1.636 3.718z"/><path d="M14.627-19.261l2.755 3.541 1.32-3.67zM10.531 9.691l2.117 3.674 2.15-3.664zM10.531 9.691l2.182-3.592-4.206-.177z"/><path d="M6.325 9.595l4.206.096-2.024-3.769z"/><path d="M12.713 6.099l-2.182 3.592 4.267.01z"/><path d="M10.531 9.691l-2.12 3.644 4.237.03zM8.411 13.335l2.12-3.644-4.206-.096zM21.182 6.194l-1.466-3.785-2.635 3.63zM24.403 3.355l-3.221 2.839 4.181.636z"/><path d="M21.182 6.194l3.221-2.839-4.687-.946zM21.182 6.194l1.939 3.862 2.242-3.226z"/><path d="M21.182 6.194L18.97 9.831l4.151.225zM18.97 9.831l2.212-3.637-4.101-.155zM-47.672 15.816l3.816.78-1.983-4.198zM-45.717 20.292l1.861-3.696-3.816-.78z"/><path d="M-43.856 16.596l2.104-3.439-4.087-.759zM-43.856 16.596l-1.861 3.696 3.808.199z"/><path d="M-39.68 16.766l-4.176-.17 1.947 3.895z"/><path d="M-43.856 16.596l4.176.17-2.072-3.609zM39.68 16.766l-1.867 3.719 4.096.006zM41.909 20.491l-4.096-.006 2.701 3.621z"/><path d="M35.566 16.65l2.247 3.835 1.867-3.719zM37.813 20.485l-1.74 3.674 4.441-.053zM25.453 28.076l2.091 3.662 2.143-3.698z"/><path d="M27.544 31.738l-2.091-3.662-2.169 3.714zM37.514 35.004l2.873-3.867-4.371.301zM37.514 35.004l3.917-.38-1.044-3.487zM39.146 38.583l-1.632-3.579-1.911 4.422z"/><path d="M37.514 35.004l1.632 3.579 2.285-3.959zM37.514 35.004l-3.842.492 1.931 3.93z"/><path d="M33.672 35.496l3.842-.492-1.498-3.566zM33.872 27.884l-2.054 3.844 4.198-.29z"/><path d="M31.818 31.728l2.054-3.844-4.185.156z"/><path d="M27.544 31.738l4.274-.01-2.131-3.688zM31.818 31.728l-4.274.01 1.968 3.685z"/><path d="M33.672 35.496l-1.854-3.768-2.306 3.695zM31.818 31.728l1.854 3.768 2.344-4.058zM25.087 42.524l-2.07-3.545-2.377 3.517z"/><path d="M20.64 42.496l2.377-3.517-4.377.19z"/><path d="M23.017 38.979l-2.029-3.536-2.348 3.726zM27.392 39.185l-4.375-.206 2.07 3.545zM16.922 20.774l4.277-.009-2.198-3.597z"/><path d="M21.199 20.765l2.111-3.687-4.309.09zM21.199 20.765l-2.103 3.661 4.256-.009z"/><path d="M19.096 24.426l2.103-3.661-4.277.009zM-12.648 13.365l-2.112 3.722 4.227-.057z"/><path d="M-12.648 13.365l2.115 3.665 2.122-3.695z"/><path d="M-10.531 9.691l-2.117 3.674 4.237-.03zM-14.76 17.087l2.112-3.722-4.208.091z"/><path d="M-12.648 13.365l-2.15-3.664-2.058 3.755z"/><path d="M-14.798 9.701l2.15 3.664 2.117-3.674zM31.689 16.611l3.877.039-1.897-4.234zM29.647 13.122l2.042 3.489 1.98-4.195zM33.872 27.884l-2.074-3.632-2.111 3.788z"/><path d="M36.073 24.159l-4.275.093 2.074 3.632zM19.096 24.426l2.118 3.671 2.138-3.68z"/><path d="M19.03 31.74l2.184-3.643-4.26-.03z"/><path d="M21.214 28.097L19.03 31.74l4.254.05zM21.214 28.097l-2.118-3.671-2.142 3.641z"/><path d="M25.453 28.076l-4.239.021 2.07 3.693z"/><path d="M21.214 28.097l4.239-.021-2.101-3.659zM20.988 35.443l4.327.007-2.031-3.66z"/><path d="M25.315 35.45l2.229-3.712-4.26.052z"/><path d="M27.544 31.738l-2.229 3.712 4.197-.027zM25.315 35.45l2.077 3.735 2.12-3.762z"/><path d="M25.315 35.45l-2.298 3.529 4.375.206zM23.017 38.979l2.298-3.529-4.327-.007zM25.438 20.713l-4.239.052 2.153 3.652z"/><path d="M21.199 20.765l4.239-.052-2.128-3.635zM31.689 16.611l2.022 3.872 1.855-3.833zM33.711 20.483l4.102.002-2.247-3.835zM37.813 20.485l-4.102-.002 2.362 3.676z"/><path d="M33.711 20.483l-2.022-3.872-2.054 3.921z"/><path d="M31.798 24.252l1.913-3.769-4.076.049zM33.711 20.483l-1.913 3.769 4.275-.093zM27.602 24.348l-2.149 3.728 4.234-.036z"/><path d="M27.602 24.348l4.196-.096-2.163-3.72zM25.453 28.076l2.149-3.728-4.25.069z"/><path d="M31.798 24.252l-4.196.096 2.085 3.692z"/><path d="M25.438 20.713l2.164 3.635 2.033-3.816z"/><path d="M27.602 24.348l-2.164-3.635-2.086 3.704zM31.689 16.611l-4.17.33 2.116 3.591zM27.519 16.941l2.128-3.819-4.197.215z"/><path d="M23.31 17.078l4.209-.137-2.069-3.604zM27.519 16.941l4.17-.33-2.042-3.489zM25.438 20.713l2.081-3.772-4.209.137z"/><path d="M27.519 16.941l-2.081 3.772 4.197-.181z"/></svg>