<svg xmlns="http://www.w3.org/2000/svg" viewBox="-150 0 300 300"><style>path{fill:none;stroke:#000;stroke-width:1;stroke-linejoin:bevel}</style><path d="M33.492 300l-7.542-22.327L11.6 300zm-7.542-22.327L33.492 300l16.303-20.998zM128.031 0L150 20.27V0zm-256.062 300L-150 279.73V300zm-3.116-124.924L-150 187.293l24.762 10.202z"/><path d="M-150 187.293l18.853-12.217L-150 162.771zm23.499-35.212L-150 140.503v22.268z"/><path d="M-126.501 152.081L-150 162.771l18.853 12.305zm-2.021-25.982L-150 140.503l23.499 11.578zm0 0l2.021 25.982 16.915-15.914zM-150 140.503l21.478-14.404L-150 117.71zm37.329 95.242l6.367 22.652 14.625-22.141zm-12.567-38.25L-150 187.293v21.793zm0 0L-150 209.086l19.682 12.057z"/><path d="M-106.304 258.397l25.048-1.504-10.423-20.637zM-33.724 300l-10.697-21.87L-56.74 300zm-10.697-21.87l-23.135.094L-56.74 300z"/><path d="M-67.556 278.224L-79.916 300h23.176zM90.366 21.913L79.916 0l-12.36 21.776z"/><path d="M79.916 0l10.45 21.913L103.155 0zM33.492 300h21.681l-5.378-20.998zM75 275.685L55.173 300H75z"/><path d="M55.173 300L75 275.685l-25.205 3.317zM150 112.707l-18.853 12.217L150 137.229z"/><path d="M131.147 124.924L150 112.707l-24.762-10.202zM150 137.229l-18.853-12.305-4.646 22.995zm0 0l-23.499 10.69L150 159.497zM106.815 85.99l-8.396 20.14 26.819-3.625zm-142.46 86.376l-24.754.694 13.003 20.26zm-22.716 41.839l24.439-.263-13.474-20.622zm24.439-.263l-24.439.263 13.489 21.013zM-150 95.202L-126.774 75H-150zM-126.774 75l15.484 17.988L-100.134 75zm23.096 39.313l-25.372-11.747.528 23.533zm152.581 33.546l11.496-20.919-24.754.694zm11.496-20.919l-11.496 20.919 25.202-.842zm-34.053 64.696l10.677-22.353-23.968 1.532zm-11.523 21.521l-24.346.469 12.779 20.958zm21.911 42.421L25.95 277.673l23.845 1.329zm0 0l-22.872.36 12.088 21.735zm-166.412-7.496l23.374 10.315-6.367-22.652zm22.863-34.072l-5.856 21.735 20.992.511z"/><path d="M-82.988 214.464l-23.827-.454 15.136 22.246zm-23.827-.454l8.396-20.14-26.819 3.625z"/><path d="M-106.815 214.01l23.827.454-15.431-20.594zm-23.503 7.133l23.503-7.133-18.423-16.515zm23.503-7.133l-23.503 7.133 17.647 14.602zm25.559 42.883l-9.11 21.194 22.81.137zm-9.11 21.194l9.11-21.194-25.048 1.504zm0 0L-79.916 300l12.36-21.776zM-79.916 300l-10.45-21.913L-103.155 300zM99.377 144.78l10.209 19.053 16.915-15.914zm-50.474 3.079l12.681 19.945 12.521-20.787z"/><path d="M61.584 167.804l-12.681-19.945-11.88 21.424zm49.706 39.208l-23.972-2.393L100.134 225zm-23.972-2.393L75.75 186.958l-13.998 21.423z"/><path d="M75.75 186.958l11.568 17.661 16.36-18.932zM150 66.711l-19.682 12.146L150 90.914zm-24.762 35.794L150 112.707V90.914z"/><path d="M125.238 102.505L150 90.914l-19.682-12.057z"/><path d="M130.318 78.857l-23.503 7.133 18.423 16.515zM68.574 64.629l14.414 20.907 8.691-21.792zm29.845 41.501L82.988 85.536l-10.472 20.446z"/><path d="M106.815 85.99l-23.827-.454 15.431 20.594z"/><path d="M82.988 85.536l23.827.454-15.136-22.246zm-94.158 86.087l24.225-.808L0 150zm0 0l-13.069-20.562-11.406 21.305z"/><path d="M-24.239 151.061l13.069 20.562L0 150zm-102.262 1.02l27.124 3.139-10.209-19.053zm43.513 62.383l10.472-20.446-25.903-.148zm22.589-41.404l-12.117 20.958 25.12-.698zm2.038 41.145l-14.155-20.187-10.472 20.446z"/><path d="M-72.516 194.018l14.155 20.187 10.965-20.885zm3.942 41.353l-14.414-20.907-8.691 21.792z"/><path d="M-81.256 256.893l12.682-21.522-23.105.885zm22.895-42.688l-10.213 21.166 23.702-.153z"/><path d="M-68.574 235.371l10.213-21.166-24.627.259zM-75 24.315L-55.173 0H-75zM-55.173 0L-75 24.315l25.205-3.317z"/><path d="M-33.492 0h-21.681l5.378 20.998z"/><path d="M-75 24.315l17.386 17.527 7.819-20.844z"/><path d="M-57.614 41.842L-75 24.315v27.001zm5.198 24.36l-5.198-24.36L-75 51.316zm-34.902 29.179L-75 75h-25.134zm48.23-8.012l24.265-.526-12.826-20.926z"/><path d="M-52.416 66.202l13.328 21.167 11.439-21.452zm39.361 62.983l-11.184 21.876L0 150zm-11.184 21.876l11.184-21.876-23.968 1.532z"/><path d="M11.17 128.377l-24.225.808L0 150zm25.853 40.906l-12.784-20.344-11.184 21.876zm-23.968 1.532l11.184-21.876L0 150zm11.184-21.876l24.664-1.08-13.258-20.225z"/><path d="M48.903 147.859l-24.664 1.08 12.784 20.344z"/><path d="M11.17 128.377l13.069 20.562 11.406-21.305z"/><path d="M24.239 148.939L11.17 128.377 0 150zm-1.625-41.819L11.17 128.377l24.475-.743zm0 0l11.308-21.062-24.399.316zm11.308-21.062L20.907 65.044 9.523 86.374zM20.907 65.044l13.015 21.014 10.95-21.276zM79.916 0H56.74l10.816 21.776z"/><path d="M56.74 0L44.421 21.87l23.135-.094z"/><path d="M44.421 21.87L56.74 0H33.724zm24.153 42.759L57.1 43.362l-12.228 21.42zM44.421 21.87L57.1 43.362l10.456-21.586z"/><path d="M21.092 21.94l23.329-.07L33.724 0z"/><path d="M10.899 0l10.193 21.94L33.724 0zm-44.391 0l7.542 22.327L-11.6 0zm7.542 22.327L-33.492 0l-16.303 20.998zm-61.368 73.054L-100.134 75l-11.156 17.988zm0 0l-16.36 18.932 27.928-1.271z"/><path d="M-87.318 95.381l-23.972-2.393 7.612 21.325z"/><path d="M-103.678 114.313l-7.612-21.325-17.76 9.578zm-25.372-11.747L-150 95.202v22.508zm.528 23.533l-.528-23.533L-150 117.71z"/><path d="M-150 95.202l20.95 7.364L-126.774 75zm46.322 19.111l-24.844 11.786 18.936 10.068zm-25.372-11.747l17.76-9.578L-126.774 75zM39.088 212.631l-12.742-20.995-11.523 21.521zm18.526 45.527L75 275.685v-27.001z"/><path d="M75 275.685l-17.386-17.527-7.819 20.844zm-17.386-17.527l-20.88-2.58 13.061 23.424zM-150 233.289l19.682-12.146L-150 209.086zm19.682-12.146L-150 233.289l20.322 14.793z"/><path d="M-129.678 248.082L-150 233.289v23.407z"/><path d="M-130.318 221.143l.64 26.939 17.007-12.337zm.315 50.96l.325-24.021-20.322 8.614zm1.972 27.897l-1.972-27.897L-150 279.73z"/><path d="M-130.003 272.103L-150 256.696v23.034zm132.365 5.841L-10.899 300H11.6z"/><path d="M25.95 277.673l-23.588.271L11.6 300zm-12.088-21.735l-11.5 22.006 23.588-.271zm-34.769-20.982l-13.015-21.014-10.95 21.276zm11.384-21.33l-11.384 21.33 24.163-.372z"/><path d="M-20.907 234.956l11.384-21.33-24.399.316zM-33.2 256.488l12.293-21.532-23.965.262zM150 20.27l-19.997 7.627L150 43.304z"/><path d="M130.003 27.897L150 20.27 128.031 0zm1.144 97.027l-20.62.492 15.974 22.503zm-20.62.492l20.62-.492-5.909-22.419z"/><path d="M98.419 106.13l12.108 19.286 14.711-22.911zm12.108 19.286l-11.15 19.364 27.124 3.139zM150 204.798L126.774 225H150zm0-45.301l-21.478 14.404L150 182.29z"/><path d="M128.522 173.901L150 159.497l-23.499-11.578zm-18.936-10.068l18.936 10.068-2.021-25.982zm-23.019 3.159l12.81-22.212-25.272 2.237zm0 0L75.75 186.958l27.928-1.271zm23.019-3.159l-23.019 3.159 17.111 18.695zM99.377 144.78l-12.81 22.212 23.019-3.159z"/><path d="M61.584 167.804l24.983-.812-12.462-19.975z"/><path d="M86.567 166.992l-24.983.812 14.166 19.154zm-34.151 66.806L75 225l-13.248-16.619z"/><path d="M75 225l12.318-20.381-25.566 3.762zm12.318-20.381L75 225h25.134zM106.815 85.99l5.856-21.735-20.992-.511zm5.856-21.735l-6.367-22.652-14.625 22.141zm17.647 14.602l-17.647-14.602-5.856 21.735zm0 0L150 66.711l-20.322-14.793zm-96.396 7.201l24.439-.263-13.489-21.013z"/><path d="M58.361 85.795l10.213-21.166-23.702.153zm0 0l24.627-.259-14.414-20.907zm24.627-.259l-24.627.259 14.155 20.187zm-92.511 128.09l-13.091-20.746-11.308 21.062zm-13.091-20.746l-13.031-20.514-11.751 20.954z"/><path d="M-33.922 213.942l11.308-21.062-24.782.44zm11.308-21.062l11.444-21.257-24.475.743zm-75.805.99l-12.108-19.286-14.711 22.911z"/><path d="M-110.527 174.584l-20.62.492 5.909 22.419z"/><path d="M-131.147 175.076l20.62-.492-15.974-22.503z"/><path d="M-110.527 174.584l11.15-19.364-27.124-3.139zm53.427 82.054l23.9-.15-11.672-21.27zm0 0l-24.156.255 13.7 21.331zm12.679 21.492L-57.1 256.638l-10.456 21.586z"/><path d="M-33.2 256.488l-23.9.15 12.679 21.492zm-23.9.15l-11.474-21.267-12.682 21.522z"/><path d="M-68.574 235.371l11.474 21.267 12.228-21.42zm53.751-148.528l12.895 20.826L9.523 86.374z"/><path d="M-1.928 107.669l-11.127 21.516 24.225-.808z"/><path d="M22.614 107.12l-24.542.549 13.098 20.708zm-24.542.549l24.542-.549L9.523 86.374zm-12.895-20.826l11.567-21.427-24.393.501z"/><path d="M-3.256 65.416l-10.606-21.354-13.787 21.855zm0 0l-11.567 21.427 24.346-.469z"/><path d="M-13.862 44.062l10.606 21.354L9.522 43.723zm10.606 21.354l24.163-.372L9.522 43.723zm24.163-.372l-24.163.372L9.523 86.374zm60.349-21.937l25.048-1.504-15.938-19.69zm0 0L68.574 64.629l23.105-.885z"/><path d="M81.256 43.107l9.11-21.194-22.81-.137zm25.048-1.504l-25.048 1.504 10.423 20.637zm-25.048 1.504l-24.156.255 11.474 21.267z"/><path d="M57.1 43.362l24.156-.255-13.7-21.331zm0 0l-23.9.15 11.672 21.27z"/><path d="M33.2 43.512L20.907 65.044l23.965-.262z"/><path d="M20.907 65.044L33.2 43.512l-23.678.211zM33.2 43.512l23.9-.15L44.421 21.87z"/><path d="M21.092 21.94L33.2 43.512 44.421 21.87z"/><path d="M33.2 43.512L21.092 21.94 9.522 43.723zm-47.062.55l-22.872.36 9.085 21.495zm-22.872.36l-15.682 21.78 24.767-.285z"/><path d="M-57.614 41.842l20.88 2.58-13.061-23.424zm20.88 2.58l-20.88-2.58 5.198 24.36z"/><path d="M-25.95 22.327l-10.784 22.095 22.872-.36zm-10.784 22.095l10.784-22.095-23.845-1.329zM21.092 21.94l-23.454.116L9.522 43.723z"/><path d="M-2.362 22.056l-11.5 22.006 23.384-.339zm0 0L10.899 0H-11.6zm0 0l23.454-.116L10.899 0z"/><path d="M-25.95 22.327l23.588-.271L-11.6 0z"/><path d="M-2.362 22.056l-23.588.271 12.088 21.735zm16.224 233.882l13.787-21.855-24.393.501z"/><path d="M27.649 234.083l-12.826-20.926-11.567 21.427zm0 0l-13.787 21.855 22.872-.36z"/><path d="M27.649 234.083l11.439-21.452-24.265.526zm22.611-44.955l11.324-21.324-24.561 1.479zm25.49-2.17l-25.49 2.17 11.492 19.253z"/><path d="M26.346 191.636l23.914-2.508-13.237-19.845z"/><path d="M61.584 167.804L50.26 189.128l25.49-2.17zm-22.496 44.827l11.172-23.503-23.914 2.508z"/><path d="M50.26 189.128l-11.172 23.503 22.664-4.25zm-180.263 82.975l23.699-13.706-23.374-10.315zm39.637 5.984l-22.371 2.915 9.582 18.998z"/><path d="M-112.737 281.002L-128.031 300h24.876zm0 0l22.371-2.915-15.938-19.69z"/><path d="M-130.003 272.103l17.266 8.899 6.433-22.605z"/><path d="M-112.737 281.002l-17.266-8.899 1.972 27.897zm91.645-2.942L-33.2 256.488l-11.221 21.642zM-10.899 300l-10.193-21.94L-33.724 300z"/><path d="M-21.092 278.06l-23.329.07L-33.724 300zm23.454-.116l-23.454.116L-10.899 300zM90.366 21.913l22.371-2.915L103.155 0z"/><path d="M112.737 18.998L128.031 0h-24.876zm-6.433 22.605l6.433-22.605-22.371 2.915zm6.433-22.605l17.266 8.899L128.031 0zM85.054 125.861l13.365-19.731-25.903-.148zm0 0l-24.655 1.079 13.706 20.077z"/><path d="M60.399 126.94l24.655-1.079-12.538-19.879zm38.978 17.84l-14.323-18.919-10.949 21.156zm11.15-19.364l-25.473.445 14.323 18.919z"/><path d="M85.054 125.861l25.473-.445-12.108-19.286zm26.236 81.151l-7.612-21.325-16.36 18.932z"/><path d="M103.678 185.687l7.612 21.325 17.76-9.578zM126.774 225l-15.484-17.988L100.134 225z"/><path d="M103.678 185.687l25.372 11.747-.528-23.533zM60.399 126.94l-13.003-20.26-11.751 20.954z"/><path d="M47.396 106.68l-24.782.44 13.031 20.514zm0 0l13.003 20.26 12.117-20.958z"/><path d="M22.614 107.12l24.782-.44-13.474-20.622zm24.782-.44l10.965-20.885-24.439.263z"/><path d="M58.361 85.795L47.396 106.68l25.12-.698zM26.346 191.636l-24.418.695 12.895 20.826z"/><path d="M1.928 192.331l24.418-.695-13.291-20.821zm0 0l-11.451 21.295 24.346-.469z"/><path d="M-11.17 171.623l13.098 20.708 11.127-21.516z"/><path d="M-22.614 192.88l24.542-.549-13.098-20.708zm24.542-.549l-24.542.549 13.091 20.746zm-26.167-41.27l-24.664 1.08 13.258 20.225zm-24.664 1.08l24.664-1.08-12.784-20.344z"/><path d="M-48.903 152.141l-11.496 20.919 24.754-.694z"/><path d="M-48.903 152.141l-25.202.842 13.706 20.077zm-36.151 21.998l-25.473.445 12.108 19.286zm12.538 19.879l-12.538-19.879-13.365 19.731z"/><path d="M-85.054 174.139l12.538 19.879 12.117-20.958zm-25.473.445l25.473-.445-14.323-18.919z"/><path d="M-85.054 174.139l10.949-21.156-25.272 2.237zm10.949-21.156l-10.949 21.156 24.655-1.079zm-12.462-19.975l-17.111-18.695-5.908 21.854z"/><path d="M-99.377 155.22l12.81-22.212-23.019 3.159zm-4.301-40.907l17.111 18.695 10.817-19.966z"/><path d="M-74.105 152.983l-12.462-19.975-12.81 22.212zM-75 75l22.584-8.798L-75 51.316zm13.248 16.619l-25.566 3.762 11.568 17.661zm0 0l22.664-4.25-13.328-21.167zm11.492 19.253l-11.492-19.253-13.998 21.423z"/><path d="M-61.752 91.619l11.492 19.253 11.172-23.503zM-75 75l13.248 16.619 9.336-25.417z"/><path d="M-61.752 91.619L-75 75l-12.318 20.381zm22.664-4.25l12.742 20.995 11.523-21.521zm26.033 41.816l-13.291-20.821-10.677 22.353zm-13.291-20.821l-23.914 2.508 13.237 19.845z"/><path d="M-50.26 110.872l23.914-2.508-12.742-20.995zm48.332-3.203l-24.418.695 13.291 20.821z"/><path d="M-26.346 108.364l24.418-.695-12.895-20.826zm65.434 104.267l13.328 21.167 9.336-25.417zm13.328 21.167l5.198 24.36L75 248.684z"/><path d="M52.416 233.798L75 248.684V225zm5.198 24.36l-5.198-24.36-15.682 21.78zm-29.965-24.075l24.767-.285-13.328-21.167z"/><path d="M52.416 233.798l-24.767.285 9.085 21.495zm-61.938 22.479l23.384-.339-10.606-21.354z"/><path d="M-9.522 256.277l11.884 21.667 11.5-22.006zm-11.385-21.321l11.385 21.321 12.778-21.693z"/><path d="M-9.522 256.277l-11.385-21.321-12.293 21.532zm0 0l-11.57 21.783 23.454-.116z"/><path d="M-21.092 278.06l11.57-21.783-23.678.211zM130.003 27.897l-.325 24.021L150 43.304zm.315 50.96l-.64-26.939-17.007 12.337zm-.64-26.939L150 66.711V43.304zm-17.007 12.337l17.007-12.337-23.374-10.315zm17.332-36.358l-17.266-8.899-6.433 22.605z"/><path d="M130.003 27.897l-23.699 13.706 23.374 10.315zm-1.481 146.004l.528 23.533L150 182.29zm.528 23.533l20.95 7.364V182.29zm20.95 7.364l-20.95-7.364L126.774 225zm-46.322-19.111l24.844-11.786-18.936-10.068z"/><path d="M129.05 197.434l-17.76 9.578L126.774 225zm-179.31-86.562l-11.324 21.324 24.561-1.479z"/><path d="M-61.584 132.196l12.681 19.945 11.88-21.424zm0 0l11.324-21.324-25.49 2.17z"/><path d="M-48.903 152.141l-12.681-19.945-12.521 20.787zm-12.681-19.945l-24.983.812 12.462 19.975z"/><path d="M-86.567 133.008l24.983-.812-14.166-19.154z"/></svg>