<svg xmlns="http://www.w3.org/2000/svg" viewBox="-50 -33.269 100 66.538"><style>path{fill:#c8c5bd;stroke:navy;stroke-width:.5;stroke-linejoin:bevel}</style><path d="M-49.606 5.11l3.724-4.95L-50 .169zM-45.882.16l-3.776-4.928L-50 .169zM20.977-28.284l3.997-3.998-5.3-.916zM-4.997 31.224L0 28.868l-4.928-2.301zM5.986 26.949L0 28.868l4.461 2.15zM-9.158-32.477l3.172 5.528 1.525-4.069zM-44.352 11.155l3.692-2.105-3.928-3.704zM-44.352 11.155l-4.096-1.102 2.351 5.6zM-34.838 14.704l-3.091 4.34 5.839.016zM-35.248-27.675l-4.594 3.715 4.817 1.096zM18.696-4.885l5.167-.058-2.525-4.782z"/><path d="M23.863-4.943l-5.167.058 2.567 4.746z"/><path d="M18.696-4.885l-2.612-4.578-2.683 4.736z"/><path d="M16.084-9.463l2.612 4.578 2.642-4.84zM16.084-9.463l-5.321.207 2.638 4.529zM-26.236 27.667l-4.209 2.686 5.471 1.929zM-3.068 21.904l-5.318.903 3.458 3.76zM-10.275 27.943l5.278 3.281.069-4.657z"/><path d="M-8.386 22.807l-1.889 5.136 5.347-1.376zM24.448 14.318l-2.609 4.44 5.502.453zM21.839 18.758l2.609-4.44-5.341-.276zM48.553 9.714l-4.072 1.128 1.782 4.494zM6.229 17.755l2.972 5.152 2.236-4.507zM-9.158-32.477l-2.126 4.402 5.298 1.126zM-30.268-24.211l-4.98-3.464.223 4.811zM-32.379-18.824l-2.667 4.399 5.441.154zM-29.915 24.416l-5.058 3.441 4.528 2.496zM-37.929 19.044l3.208 4.037 2.631-4.021z"/><path d="M-39.585 24.205l4.864-1.124-3.208-4.037zM-34.721 23.081l-4.864 1.124 4.612 3.652zM-43.267 20.089l3.682 4.116 1.656-5.161zM-40.462 14.763l-5.635.89 2.83 4.436zM29.605 14.271l-5.157.047 2.893 4.893zM-26.381.147l-2.635 4.841 5.153-.045z"/><path d="M-21.263.139l-5.118.008 2.518 4.796zM-36.244.141l-2.885 4.444 5.007.581zM-48.448 10.053l3.86-4.707-5.018-.236zM-44.588 5.346L-45.882.16l-3.724 4.95zM-44.352 11.155l-.236-5.809-3.86 4.707z"/><path d="M-39.129 4.585l-5.459.761 3.928 3.704zM-36.495 10.119l-2.634-5.534-1.531 4.465z"/><path d="M-39.129 4.585l2.634 5.534 2.373-4.953zM-40.634-14.472l-2.85-5.327-2.779 4.463z"/><path d="M-40.634-14.472l-5.629-.864 1.782 4.494zM26.381-.147l-5.118.008 2.684 4.797zM26.381-.147l-2.518-4.796-2.6 4.804zM29.359-14.539l-2.916 4.774 5.095-.14z"/><path d="M23.863-4.943l2.58-4.822-5.105.04zM0-28.868l-4.461-2.15-1.525 4.069zM4.997-31.224L0-28.868l4.928 2.301zM10.763-9.256l-2.76 4.551 5.398-.022zM20.977-28.284l5.259.617-1.262-4.615z"/><path d="M18.796-14.272l-2.712 4.809 5.254-.262zM30.445-30.353l-4.209 2.686 3.679 3.251z"/><path d="M26.236-27.667l4.209-2.686-5.471-1.929zM49.658 4.768l-5.011.261 3.906 4.685zM34.838-14.704l-5.479.165 2.179 4.634z"/><path d="M36.495-10.119l-1.657-4.585-3.3 4.799zM34.838-14.704l1.657 4.585 3.967-4.644zM11.284 28.075l3.039 5.176 2.138-4.766zM-24.008 23.475l-2.228 4.192 5.259.617zM-15.702 28.516l-3.972 4.682 5.083.071z"/><path d="M-24.974 32.282l3.997-3.998-5.259-.617z"/><path d="M-24.974 32.282l5.3.916-1.303-4.914zM0 28.868l.747-4.324-5.675 2.023z"/><path d="M.747 24.544l-3.815-2.64-1.86 4.663zM5.986 26.949L.747 24.544 0 28.868zM-10.933 18.479l5.387-.557-2.613-4.237z"/><path d="M-5.546 17.922l3.055-4.116-5.668-.121z"/><path d="M-2.491 13.806l-3.055 4.116 5.953.376zM-5.546 17.922l-5.387.557 2.547 4.328zM-3.068 21.904l-2.478-3.982-2.84 4.885z"/><path d="M-5.546 17.922l2.478 3.982 3.475-3.606zM-18.65 23.685l-5.358-.21 3.031 4.809zM-10.275 27.943l.466 4.678 4.812-1.397zM24.448 14.318l-2.927-4.865-2.414 4.589zM18.696-4.885l-2.62 4.747 5.187-.001z"/><path d="M16.076-.138l2.62-4.747-5.295.158zM16.59 18.714l5.249.044-2.732-4.716z"/><path d="M13.866 13.835l2.724 4.879 2.517-4.672z"/><path d="M16.59 18.714l-2.724-4.879-2.429 4.565zM24.48 23.301l5.788.91-2.927-5zM21.839 18.758l2.641 4.543 2.861-4.09zM6.229 17.755l-3.267-4.058-2.555 4.601z"/><path d="M2.962 13.697l-5.453.109 2.898 4.492zM5.986 26.949l3.172 5.528 2.126-4.402z"/><path d="M5.986 26.949l-1.525 4.069 4.697 1.459zM11.284 28.075l-2.126 4.402 5.165.774zM11.284 28.075l-2.083-5.168-3.215 4.042zM-5.552-9.122l-3.046-4.358-2.428 4.451zM-25.165-32.232l-1.523 4.661 5.154-.622zM-30.717-30.228l4.029 2.657 1.523-4.661zM-27.341-19.211l-5.038.387 2.774 4.553zM34.182 4.87l-2.507 4.748 4.935.209zM-29.016 4.988l2.573 4.777 2.58-4.822zM-23.947-4.658l-2.661-4.824-2.482 4.792zM-26.381.147l2.434-4.805-5.143-.032z"/><path d="M-21.263.139l-2.684-4.797-2.434 4.805zM-23.947-4.658l2.684 4.797 2.474-4.756zM-40.462 14.763l-2.805 5.326 5.338-1.045zM-44.352 11.155l3.89 3.608-.198-5.713z"/><path d="M-34.838 14.704l-5.624.059 2.533 4.281zM-40.462 14.763l-3.89-3.608-1.745 4.498zM-40.462 14.763l3.967-4.644-4.165-1.069z"/><path d="M-36.495 10.119l-3.967 4.644 5.624-.059zM-38.172-18.779l5.793-.045-2.646-4.04z"/><path d="M-39.842-23.96l1.67 5.181 3.147-4.085zM-35.046-14.425l-3.126-4.354-2.462 4.307z"/><path d="M-32.379-18.824l-5.793.045 3.126 4.354zM-43.484-19.799l5.312 1.02-1.67-5.181z"/><path d="M-38.172-18.779l-5.312-1.02 2.85 5.327zM-18.696 4.885L-21.263.139l-2.6 4.804zM-18.696 4.885l2.612 4.578 2.683-4.736zM31.427-.152l2.755 5.022 2.062-5.011zM-.747-24.544L0-28.868l-5.986 1.919zM0-28.868l-.747 4.324 5.675-2.023zM5.277-9.275l5.486.019-2.604-4.429zM5.277-9.275l2.726 4.57 2.76-4.551zM26.236-27.667l-2.228 4.192 5.907-.941zM24.008-23.475l-3.031-4.809-2.327 4.599z"/><path d="M20.977-28.284l3.031 4.809 2.228-4.192zM13.481-23.571l2.652 4.681 2.517-4.795zM24.174-14.593l2.269 4.828 2.916-4.774z"/><path d="M26.443-9.765l-2.269-4.828-2.836 4.868zM24.174-14.593l-5.378.321 2.542 4.547zM34.182 4.87l5.006-.573-2.944-4.438zM39.188 4.297l2.333-4.449-5.277.011z"/><path d="M39.188 4.297l-5.006.573 2.428 4.957zM39.188 4.297l5.459.732-3.126-5.181zM37.929-19.044l-3.091 4.34 5.624-.059z"/><path d="M44.647 5.029L45.882-.16l-4.361.008zM45.882-.16l3.776 4.928L50-.169z"/><path d="M45.882-.16l-1.235 5.189 5.011-.261zM49.606-5.11L45.882-.16 50-.169zM.747 24.544l-.34-6.246-3.475 3.606zM9.201 22.907l-4.964-1.052 1.749 5.094zM4.237 21.855l1.992-4.1-5.822.543z"/><path d="M4.237 21.855l4.964 1.052-2.972-5.152zM.747 24.544l3.49-2.689-3.83-3.557zM4.237 21.855l-3.49 2.689 5.239 2.405zM-10.933 18.479l-2.548 5.092 5.095-.764z"/><path d="M-13.481 23.571l2.548-5.092-5.2.411zM-13.481 23.571l3.206 4.372 1.889-5.136z"/><path d="M-18.65 23.685l5.169-.114-2.652-4.681zM16.294 9.235l-2.428 4.6 5.241.207z"/><path d="M21.521 9.453l-5.227-.218 2.813 4.807zM2.752 4.573L5.366-.063 0 0z"/><path d="M-2.631 4.641l5.383-.068L0 0zM25.165 32.232l1.523-4.661-5.154.622zM30.717 30.228l-4.029-2.657-1.523 4.661z"/><path d="M26.688 27.571l4.029 2.657-.449-6.017zM24.48 23.301l2.208 4.27 3.58-3.36zM16.59 18.714l2.64 4.815 2.609-4.771zM19.23 23.529l5.25-.228-2.641-4.543zM30.268 24.211l2.111-5.387-5.038.387z"/><path d="M32.379 18.824l-2.774-4.553-2.264 4.94zM13.866 13.835l-5.268-.355 2.839 4.92z"/><path d="M8.598 13.48l-2.369 4.275 5.208.645z"/><path d="M8.598 13.48l-5.636.217 3.267 4.058zM-14.323-33.251l-2.138 4.766 5.177.41z"/><path d="M-14.323-33.251l3.039 5.176 2.126-4.402z"/><path d="M-16.461-28.485l2.283 5.002 2.894-4.592zM-14.178-23.483l-2.283-5.002-2.769 4.956zM-14.178-23.483l-2.412 4.769 5.153.314z"/><path d="M-16.59-18.714l2.412-4.769-5.052-.046zM-32.379-18.824l2.111-5.387-4.757 1.347z"/><path d="M-30.268-24.211l-.449-6.017-4.531 2.553zM-26.688-27.571l-3.58 3.36 5.788.91z"/><path d="M-30.268-24.211l3.58-3.36-4.029-2.657zM-27.341-19.211l-2.927-5-2.111 5.387z"/><path d="M-30.268-24.211l2.927 5 2.861-4.09zM-26.608-9.482l2.16-4.836-5.157.047z"/><path d="M-24.448-14.318l-2.893-4.893-2.264 4.94zM29.605 14.271l-2.997-4.789-2.16 4.836zM21.521 9.453l5.087.029-2.661-4.824zM26.608 9.482l-5.087-.029 2.927 4.865z"/><path d="M31.675 9.618l-5.067-.136 2.997 4.789zM-31.538 9.905l2.522-4.917-5.106.178z"/><path d="M-36.495 10.119l4.957-.214-2.584-4.739z"/><path d="M-31.538 9.905l-4.957.214 1.657 4.585zM-31.538 9.905l5.095-.14-2.573-4.777zM-31.675-9.618l5.067.136-2.997-4.789z"/><path d="M-35.046-14.425l3.371 4.807 2.07-4.653zM-26.608-9.482l-5.067-.136 2.585 4.928z"/><path d="M-31.675-9.618l-2.507 4.748 5.092.18zM-31.427.152l5.046-.005-2.709-4.837zM-29.016 4.988L-31.427.152l-2.695 5.014z"/><path d="M-31.427.152l2.411 4.836 2.635-4.841zM-31.427.152l-4.817-.011 2.122 5.025z"/><path d="M-31.427.152l-2.755-5.022-2.062 5.011z"/><path d="M-34.182-4.87l2.755 5.022 2.337-4.842zM-44.647-5.029l-5.011.261L-45.882.16zM-13.52 14.004l2.587 4.475 2.774-4.794z"/><path d="M-10.933 18.479l-2.587-4.475-2.613 4.886zM-18.796 14.272l5.276-.268-2.564-4.541z"/><path d="M-13.52 14.004l-5.276.268 2.663 4.618zM-21.338 9.725l2.542 4.547 2.712-4.809zM-26.443 9.765l5.105-.04-2.525-4.782z"/><path d="M-21.338 9.725l-5.105.04 2.269 4.828zM-18.796 14.272l-2.542-4.547-2.836 4.868zM-18.696 4.885l-2.642 4.84 5.254-.262z"/><path d="M-21.338 9.725l2.642-4.84-5.167.058zM-5.552-9.122l-2.582 4.606 5.382-.057zM-8.134-4.516l2.582-4.606-5.474.093zM-8.134-4.516l-5.388.044 2.798 4.586z"/><path d="M-13.522-4.472l5.388-.044-2.892-4.513zM-21.263.139l5.187-.001-2.713-4.755zM-16.076.138l-2.62 4.747 5.295-.158zM-10.724.114l-5.352.024 2.675 4.589z"/><path d="M-18.696 4.885l2.62-4.747-5.187.001z"/><path d="M-16.076.138l2.554-4.61-5.267-.145zM-13.522-4.472l-2.554 4.61 5.352-.024z"/><path d="M-13.522-4.472l-2.772-4.763-2.495 4.618z"/><path d="M-16.294-9.235l2.772 4.763 2.496-4.557zM26.381-.147l2.635-4.841-5.153.045zM26.443-9.765l2.573 4.777 2.522-4.917z"/><path d="M29.016-4.988l-2.573-4.777-2.58 4.822zM31.427-.152l-2.411-4.836-2.635 4.841zM-8.598-13.48l2.369-4.275-5.208-.645zM15.702-28.516l3.972-4.682-5.083-.071zM10.275-27.943l-5.278-3.281-.069 4.657z"/><path d="M10.275-27.943l-5.347 1.376 3.458 3.76zM13.481-23.571l-3.206-4.372-1.889 5.136zM10.275-27.943l-.466-4.678-4.812 1.397zM16.084-9.463l-2.564-4.541-2.757 4.748zM10.763-9.256l2.757-4.748-5.361.319z"/><path d="M18.796-14.272l-5.276.268 2.564 4.541zM16.133-18.89l-2.613 4.886 5.276-.268zM16.133-18.89l5.302-.09-2.785-4.705z"/><path d="M21.435-18.98l2.573-4.495-5.358-.21zM21.435-18.98l-5.302.09 2.663 4.618zM24.174-14.593l-2.739-4.387-2.639 4.708zM34.838-14.704L32.09-19.06l-2.731 4.521z"/><path d="M37.929-19.044l-5.839-.016 2.748 4.356zM44.352-11.155l4.096 1.102-2.351-5.6zM41.521-.152l-2.392-4.433-2.885 4.444zM-26.236 27.667l-3.679-3.251-.53 5.937zM-34.721 23.081l4.806 1.335-2.175-5.356zM-29.915 24.416l-4.806-1.335-.252 4.776z"/><path d="M-24.008 23.475l-5.907.941 3.679 3.251zM-27.004 19.468l-2.911 4.948 5.907-.941z"/><path d="M-29.915 24.416l2.911-4.948-5.086-.408zM-21.435 18.98l2.785 4.705 2.517-4.795z"/><path d="M-18.65 23.685l-2.785-4.705-2.573 4.495z"/><path d="M-18.796 14.272l-2.639 4.708 5.302-.09z"/><path d="M-21.435 18.98l2.639-4.708-5.378.321zM-27.004 19.468l5.569-.488-2.739-4.387zM-21.435 18.98l-5.569.488 2.996 4.007zM-14.591 33.269l4.782-.648-.466-4.678zM-15.702 28.516l-5.275-.232 1.303 4.914zM-15.702 28.516l-2.948-4.831-2.327 4.599z"/><path d="M-14.591 33.269l4.316-5.326-5.427.573zM-15.702 28.516l2.221-4.945-5.169.114z"/><path d="M-13.481 23.571l-2.221 4.945 5.427-.573zM16.076-.138l2.713 4.755 2.474-4.756zM18.789 4.617l2.732 4.836 2.426-4.795z"/><path d="M21.263-.139l-2.474 4.756 5.158.041zM18.789 4.617L16.076-.138l-2.554 4.61zM18.789 4.617l-2.495 4.618 5.227.218z"/><path d="M16.294 9.235l2.495-4.618-5.267-.145zM8.134 4.516L5.366-.063 2.752 4.573zM2.631-4.641l-5.383.068L0 0zM5.277-9.275L2.631-4.641l5.372-.064zM2.631-4.641L5.366-.063l2.637-4.642z"/><path d="M5.366-.063L2.631-4.641 0 0zM-2.491 13.806l-2.786-4.531-2.882 4.41zM14.178 23.483l2.412-4.769-5.153-.314z"/><path d="M9.201 22.907l4.977.576-2.741-5.083zM14.178 23.483l-2.894 4.592 5.177.41z"/><path d="M11.284 28.075l2.894-4.592-4.977-.576zM14.178 23.483l5.052.046-2.64-4.815zM19.23 23.529l-5.052-.046 2.283 5.002z"/><path d="M16.461 28.485l3.261 4.708 1.812-5zM25.165 32.232l-3.631-4.039-1.812 5z"/><path d="M16.461 28.485l-2.138 4.766 5.399-.058zM21.534 28.193l5.154-.622-2.208-4.27zM19.23 23.529l2.304 4.664 2.946-4.892z"/><path d="M21.534 28.193l-2.304-4.664-2.769 4.956zM40.769 8.77l-1.581-4.473-2.578 5.53zM44.481 10.842l.166-5.813-3.878 3.741zM44.481 10.842l4.072-1.128-3.906-4.685z"/><path d="M39.188 4.297l1.581 4.473 3.878-3.741zM40.769 8.77l-.135 5.702 3.847-3.63z"/><path d="M40.634 14.472l.135-5.702-4.159 1.057zM39.842 23.96l3.642-4.161-5.312-1.02z"/><path d="M46.263 15.336l-1.782-4.494-3.847 3.63z"/><path d="M43.484 19.799l-2.85-5.327-2.462 4.307z"/><path d="M46.263 15.336l-5.629-.864 2.85 5.327zM30.268 24.211l.449 6.017 4.531-2.553z"/><path d="M30.268 24.211l4.98 3.464-.223-4.811z"/><path d="M39.842 23.96l-4.817-1.096.223 4.811z"/><path d="M35.025 22.864l4.817 1.096-1.67-5.181z"/><path d="M32.379 18.824l2.646 4.04 3.147-4.085z"/><path d="M35.025 22.864l-2.646-4.04-2.111 5.387zM35.046 14.425l5.588.047-4.024-4.645z"/><path d="M31.675 9.618l3.371 4.807 1.564-4.598z"/><path d="M35.046 14.425l-3.371-4.807-2.07 4.653zM40.634 14.472l-5.588-.047 3.126 4.354zM32.379 18.824l2.667-4.399-5.441-.154zM35.046 14.425l-2.667 4.399 5.793-.045zM-21.534-28.193l-2.946 4.892 5.25-.228z"/><path d="M-21.534-28.193l-5.154.622 2.208 4.27z"/><path d="M-19.722-33.193l-1.812 5 5.073-.292z"/><path d="M-25.165-32.232l3.631 4.039 1.812-5z"/><path d="M-19.722-33.193l3.261 4.708 2.138-4.766zM-16.461-28.485l-5.073.292 2.304 4.664z"/><path d="M-24.48-23.301l2.641 4.543 2.609-4.771zM-27.341-19.211l5.502.453-2.641-4.543zM-16.59-18.714l-5.249-.044 2.732 4.716z"/><path d="M-21.839-18.758l5.249.044-2.64-4.815zM-24.448-14.318l2.609-4.44-5.502-.453zM-21.839-18.758l-2.609 4.44 5.341.276zM31.427-.152L29.09 4.69l5.092.18zM29.09 4.69L26.381-.147l-2.434 4.805zM29.09 4.69l2.585 4.928 2.507-4.748z"/><path d="M29.09 4.69l2.337-4.842-5.046.005zM29.09 4.69l-2.482 4.792 5.067.136z"/><path d="M26.608 9.482L29.09 4.69l-5.143-.032zM-27.004 19.468l-2.355-4.929-2.731 4.521z"/><path d="M-26.443 9.765l-2.916 4.774 5.185.054zM-29.359 14.539l-5.479.165 2.748 4.356z"/><path d="M-29.359 14.539l2.355 4.929 2.83-4.875zM-31.538 9.905l2.179 4.634 2.916-4.774z"/><path d="M-29.359 14.539l-2.179-4.634-3.3 4.799zM-44.481-10.842l3.712 2.072.135-5.702zM-44.588 5.346l3.067-5.194-4.361.008zM-36.244.141l-5.277.011 2.392 4.433zM-41.521.152l-3.067 5.194 5.459-.761zM-41.521.152l-3.126-5.181L-45.882.16zM-5.366.063l2.735 4.578L0 0z"/><path d="M-2.752-4.573L-5.366.063 0 0zM-5.366.063l-2.768-4.579-2.59 4.63z"/><path d="M-8.134-4.516L-5.366.063l2.614-4.636zM-16.59-18.714l2.724 4.879 2.429-4.565z"/><path d="M-8.598-13.48l-5.268-.355 2.84 4.806zM-13.866-13.835l5.268.355-2.839-4.92zM-13.866-13.835l-2.724-4.879-2.517 4.672z"/><path d="M-16.294-9.235l2.428-4.6-5.241-.207z"/><path d="M-13.866-13.835l-2.428 4.6 5.268.206zM-21.521-9.453l-2.426 4.795 5.158.041zM-21.521-9.453l-2.927-4.865-2.16 4.836z"/><path d="M-23.947-4.658l2.426-4.795-5.087-.029zM-24.448-14.318l2.927 4.865 2.414-4.589zM-16.294-9.235l-5.227-.218 2.732 4.836z"/><path d="M-21.521-9.453l5.227.218-2.813-4.807zM4.928-26.567l-1.86 4.663 5.318-.903z"/><path d="M-.747-24.544l3.815 2.64 1.86-4.663zM2.491-13.806l2.786 4.531 2.882-4.41zM-14.178-23.483l4.977.576-2.083-5.168z"/><path d="M-11.284-28.075l2.083 5.168 3.215-4.042zM-9.201-22.907l-4.977-.576 2.741 5.083zM-6.229-17.755l-2.972-5.152-2.236 4.507zM20.977-28.284l-5.275-.232 2.948 4.831zM14.591-33.269l-4.782.648.466 4.678z"/><path d="M15.702-28.516l-2.221 4.945 5.169-.114zM15.702-28.516l5.275.232-1.303-4.914zM14.591-33.269l-4.316 5.326 5.427-.573z"/><path d="M15.702-28.516l-5.427.573 3.206 4.372zM10.933-18.479l2.548-5.092-5.095.764z"/><path d="M10.933-18.479l5.2-.411-2.652-4.681zM10.933-18.479l2.587 4.475 2.613-4.886z"/><path d="M13.52-14.004l-2.587-4.475-2.774 4.794zM27.004-19.468l-2.83 4.875 5.185.054zM21.435-18.98l5.569-.488-2.996-4.007zM24.008-23.475l2.996 4.007 2.911-4.948z"/><path d="M27.004-19.468l-5.569.488 2.739 4.387zM32.09-19.06l-5.086-.408 2.355 4.929z"/><path d="M27.004-19.468l5.086.408-2.175-5.356zM34.973-27.857l-4.528-2.496-.53 5.937z"/><path d="M34.973-27.857l-5.058 3.441 4.806 1.335z"/><path d="M34.721-23.081l4.864-1.124-4.612-3.652zM39.585-24.205l-4.864 1.124 3.208 4.037zM34.721-23.081L32.09-19.06l5.839.016z"/><path d="M32.09-19.06l2.631-4.021-4.806-1.335zM43.267-20.089l-3.682-4.116-1.656 5.161zM43.267-20.089l-5.338 1.045 2.533 4.281z"/><path d="M40.462-14.763l3.89 3.608 1.745-4.498zM40.462-14.763l5.635-.89-2.83-4.436zM48.448-10.053l-3.86 4.707 5.018.236zM45.882-.16l-1.294-5.186-3.067 5.194z"/><path d="M44.588-5.346L45.882-.16l3.724-4.95zM44.588-5.346l-5.459.761 2.392 4.433zM34.122-5.166L31.427-.152l4.817.011zM34.122-5.166l2.373-4.953-4.957.214z"/><path d="M29.016-4.988l5.106-.178-2.584-4.739zM34.122-5.166l-5.106.178 2.411 4.836zM39.129-4.585l-5.007-.581 2.122 5.025zM34.122-5.166l5.007.581-2.634-5.534zM16.076-.138l-5.352.024 2.798 4.586z"/><path d="M8.003-4.705l2.721 4.591 2.677-4.613zM10.724-.114l5.352-.024-2.675-4.589z"/><path d="M5.366-.063l5.358-.051-2.721-4.591zM8.134 4.516l2.59-4.63-5.358.051z"/><path d="M10.724-.114l-2.59 4.63 5.388-.044z"/><path d="M11.026 9.029l5.268.206-2.772-4.763zM16.294 9.235l-5.268-.206 2.84 4.806z"/><path d="M11.026 9.029L8.598 13.48l5.268.355zM8.134 4.516l2.892 4.513 2.496-4.557zM2.962 13.697L.13 9.192l-2.621 4.614zM-2.631 4.641L.13 9.192l2.622-4.619z"/><path d="M-5.277 9.275L.13 9.192l-2.761-4.551zM.13 9.192l-5.407.083 2.786 4.531zM-16.084 9.463l5.321-.207-2.638-4.529zM-10.763 9.256l-2.757 4.748 5.361-.319zM-13.52 14.004l2.757-4.748-5.321.207z"/><path d="M-5.277 9.275l-5.486-.019 2.604 4.429zM-44.647-5.029l-3.906-4.685-1.105 4.946zM-44.647-5.029l3.878-3.741-3.712-2.072z"/><path d="M-44.647-5.029l.166-5.813-4.072 1.128z"/><path d="M-48.553-9.714l4.072-1.128-1.782-4.494zM-36.61-9.827l4.935.209-3.371-4.807z"/><path d="M-36.61-9.827l1.564-4.598-5.588-.047zM-31.675-9.618l-4.935-.209 2.428 4.957zM-40.769-8.77l4.159-1.057-4.024-4.645zM2.631-4.641L-.13-9.192l-2.622 4.619z"/><path d="M-.13-9.192l-5.422.07 2.8 4.549zM-.13-9.192l2.761 4.551 2.646-4.634z"/><path d="M2.491-13.806L-.13-9.192l5.407-.083zM40.66-9.05l3.692-2.105-3.89-3.608z"/><path d="M36.495-10.119L40.66-9.05l-.198-5.713zM44.588-5.346l-.236-5.809L40.66-9.05zM39.129-4.585L40.66-9.05l-4.165-1.069z"/><path d="M44.588-5.346L40.66-9.05l-1.531 4.465zM44.588-5.346l3.86-4.707-4.096-1.102zM11.026 9.029l-5.474.093 3.046 4.358zM5.552 9.122l2.582-4.606-5.382.057z"/><path d="M8.598 13.48L5.552 9.122l-2.59 4.575zM5.552 9.122l5.474-.093-2.892-4.513z"/><path d="M5.552 9.122l-5.422.07 2.832 4.505z"/><path d="M.13 9.192l5.422-.07-2.8-4.549zM-8.003 4.705l2.726 4.57 2.646-4.634zM-8.003 4.705L-5.366.063l-5.358.051z"/><path d="M-8.003 4.705L-10.724.114l-2.677 4.613zM-5.366.063l-2.637 4.642 5.372-.064zM-8.003 4.705l-2.76 4.551 5.486.019z"/><path d="M-10.763 9.256l2.76-4.551-5.398.022zM-39.188-4.297l-1.581-4.473-3.878 3.741zM-39.188-4.297L-41.521.152l5.277-.011z"/><path d="M-34.182-4.87l-5.006.573 2.944 4.438zM-41.521.152l2.333-4.449-5.459-.732z"/><path d="M-39.188-4.297l2.578-5.53-4.159 1.057zM-36.61-9.827l-2.578 5.53 5.006-.573zM-.407-18.298l-.34-6.246-3.49 2.689zM-4.237-21.855l3.49-2.689-5.239-2.405zM-9.201-22.907l4.964 1.052-1.749-5.094zM-4.237-21.855l-4.964-1.052 2.972 5.152z"/><path d="M-.407-18.298l3.475-3.606-3.815-2.64zM-.407-18.298l-3.83-3.557-1.992 4.1zM5.546-17.922l-3.055 4.116 5.668.121zM3.068-21.904l2.478 3.982 2.84-4.885zM5.546-17.922l5.387-.557-2.547-4.328z"/><path d="M10.933-18.479l-5.387.557 2.613 4.237zM5.546-17.922l-5.953-.376 2.898 4.492z"/><path d="M-.407-18.298l5.953.376-2.478-3.982zM-2.962-13.697l2.555-4.601-5.822.543zM-2.962-13.697l-5.636.217 3.046 4.358z"/><path d="M-2.962-13.697l-3.267-4.058-2.369 4.275zM-.407-18.298l-2.555 4.601 5.453-.109z"/><path d="M-2.962-13.697L-.13-9.192l2.621-4.614z"/><path d="M-.13-9.192l-2.832-4.505-2.59 4.575z"/></svg>