<svg xmlns="http://www.w3.org/2000/svg" viewBox="-150 0 300 199.509"><style>path{fill:none;stroke:#000;stroke-width:1;stroke-linejoin:bevel}</style><path d="M-148.895 114.578l11.243-14.824H-150zm11.243-14.824l-11.243-14.824L-150 99.754zM63.733 15.021L75.041 2.94 58.847.146zm-78.01 178.135L0 186.357l-16.26-6.529zm30.537-13.328L0 186.357l14.277 6.799zM-14.277 6.353l-17.999 9.246 16.016 4.081zm-118.972 126.425l11.091-6.28-11.705-11.169zm0 0l-12.248-3.353 6.974 16.845zm28.42 10.697l-9.305 13.052 17.44.086zm-.423-127.071l-13.838 11.055 14.502 3.333zM56.293 85.496l15.477-.152-7.439-14.375z"/><path d="M71.77 85.344l-15.477.152 7.56 14.258z"/><path d="M56.293 85.496L48.62 71.709l-8.166 14.264z"/><path d="M48.62 71.709l7.673 13.787 8.038-14.527zm0 0l-15.873.664 7.707 13.6zM-79.344 182.658l-12.288 8.018 16.591 5.892zm68.316-17.503l-15.389 3.174 10.157 11.499zm-21.248 18.755l17.999 9.246-1.983-13.328z"/><path d="M-26.417 168.329l-5.859 15.581 16.016-4.082zm99.371-25.191l-8.038 13.235 16.596 1.423zm-8.038 13.235l8.038-13.235-16.077-.894zm80.581-26.948l-12.248 3.353 5.274 13.492zM17.749 153.144l8.668 15.185 7.166-13.271zM-28.214 2.156l-4.062 13.443 17.999-9.246zm-62.022 24.625l-15.016-10.377.664 14.388zm-6.458 16.115l-8.135 13.138 16.37.482zm6.458 129.832l-15.016 10.376 13.62 7.572zm-23.898-16.201l9.546 12.189 7.894-12.103zm-4.956 15.523l14.502-3.334-9.546-12.189zm14.502-3.334l-14.502 3.334 13.838 11.054zm-25.508-9.09l11.006 12.424 4.956-15.523zm8.458-15.991l-16.885 2.635 8.427 13.356zm210.097-.642l-15.505.145 8.558 14.658zM-79.194 99.754l-8.011 14.524 15.435-.113z"/><path d="M-63.853 99.754h-15.341l7.424 14.411zm-44.906 0l-8.739 13.332 15.009 1.735zm-36.738 29.671l11.634-14.096-15.032-.751zm11.634-14.096l-3.789-15.575-11.243 14.824z"/><path d="M-133.249 132.778l-.614-17.449-11.634 14.096zm15.751-19.692l-16.365 2.243 11.705 11.169zm7.82 16.608l-7.82-16.608-4.66 13.412z"/><path d="M-117.498 113.086l7.82 16.608 7.189-14.873zm-4.14-57.212l-8.458-15.991-8.427 13.356zm0 0l-16.885-2.635 5.274 13.492zm200.832 43.88H63.853l7.917 14.411zm0 0l-7.424-14.41-7.917 14.41zm9.265-43.238l-8.846 14.355 15.233-.417zM71.77 85.344l7.843-14.473-15.282.098zM0 13.152l-14.277-6.799-1.983 13.327zm14.277-6.799L0 13.152l16.26 6.528zm18.47 66.02l-8.493 13.58 16.2.02zm30.986-57.352l15.611 1.83L75.041 2.94zm-6.856 42.243L48.62 71.709l15.711-.74zM91.632 8.833l-12.288 8.018 10.892 9.93z"/><path d="M79.344 16.851l12.288-8.018L75.041 2.94zm69.551 97.727l-15.032.751 11.634 14.096zm-44.066-58.544l-16.37.482 6.387 13.938zm4.849 13.781l-4.849-13.781-9.983 14.42zm-4.849-13.781l4.849 13.781 11.96-13.941zM32.276 183.91l10.719 15.599 5.239-14.271zm-104.989-13.967l-6.631 12.715 15.611 1.83zm24.479 15.295l-10.613 14.124 15.852.147zm-26.807 11.33l11.308-12.08-15.611-1.83zm0 0l16.194 2.794-4.886-14.874zM0 186.357v-13.272l-16.26 6.743z"/><path d="M0 173.085l-11.028-7.93-5.232 14.673zm16.26 6.743L0 173.085v13.272zm-49.843-24.77l15.834-1.914-7.453-12.725z"/><path d="M-17.749 153.144l9.531-12.239-16.984-.486z"/><path d="M-8.218 140.905l-9.531 12.239L0 154.449z"/><path d="M-17.749 153.144l-15.834 1.914 7.166 13.271z"/><path d="M-11.028 165.155l-6.721-12.011-8.668 15.185zm-6.721-12.011l6.721 12.011L0 154.449zm-39.057 17.428l-15.907-.629 8.98 14.545zm24.53 13.338l4.062 13.442 13.937-4.196zm105.23-40.772l-8.623-14.599-7.454 13.705zM56.293 85.496l-7.991 14.258h15.551z"/><path d="M48.302 99.754l7.991-14.258-15.839.477zm.779 56.432l15.835.187-8.039-14.129zm-7.962-14.683l7.962 14.683 7.796-13.942zm7.962 14.683l-7.962-14.683-7.536 13.555zm23.632 13.757l17.523 2.785-8.724-14.932zm-7.797-13.57l7.797 13.57 8.799-12.147zm-47.167-3.229l-9.531-12.239L0 154.449zm-9.531-12.239H-8.218L0 154.449zm19.996 56.447l4.062-13.442-17.999 9.246z"/><path d="M32.276 183.91l-16.016-4.082-1.983 13.328zm0 0l-4.062 13.442 14.781 2.157z"/><path d="M32.276 183.91l-5.859-15.581-10.157 11.499zM-16.283 72.222l-8.919-13.132-7.545 13.283zM-75.041 2.94l-4.303 13.911 15.611-1.83zm-16.591 5.893l12.288 8.018 4.303-13.911zm10.12 32.88l-15.182 1.183 8.235 13.62zm184.001 73.108l-7.643 14.234 14.832.639zm-189.694-.543l7.592 14.359 7.843-14.472zm15.435-28.934l-7.843-14.473-7.592 14.359zm-7.424 14.41l7.424-14.41-15.435-.114zm15.341 0l-7.917-14.41-7.424 14.41zm-7.917-14.41l7.917 14.41 7.56-14.258zm-49.868 58.291l-8.458 15.991 15.962-3.099zm-11.611-10.857l11.611 10.857-.52-17.137zm28.42 10.697l-16.809.16 7.504 12.892zm-16.809.16l-11.611-10.857-5.274 13.492z"/><path d="M-121.638 143.635l11.96-13.941-12.48-3.196zm11.96-13.941l-11.96 13.941 16.809-.16zm-4.456-86.712l17.44-.086-7.894-12.104z"/><path d="M-119.09 27.459l4.956 15.523 9.546-12.19zm14.261 28.575l-9.305-13.052-7.504 12.892z"/><path d="M-96.694 42.896l-17.44.086 9.305 13.052zm-33.402-3.013l15.962 3.099-4.956-15.523z"/><path d="M-114.134 42.982l-15.962-3.099 8.458 15.991zm57.841 71.03l-7.56-14.258-7.917 14.411zm0 0l7.673 13.788 8.166-14.265zM94.322 99.754l8.167 15.067 6.27-15.067zM0 26.424V13.152l-16.26 6.528zm0-13.272v13.272l16.26-6.744zm16.283 59.07l16.464.151-7.545-13.283zm0 0l7.971 13.731 8.493-13.58zm63.061-55.371l-6.631 12.714 17.523-2.784zm-6.631 12.714l-8.98-14.544-6.927 13.916z"/><path d="M63.733 15.021l8.98 14.544 6.631-12.714zm-22.28 14.102l7.628 14.2 7.725-14.386zm31.501 27.248l6.659 14.5 8.846-14.355z"/><path d="M79.613 70.871l-6.659-14.5-8.623 14.598z"/><path d="M72.954 56.371l-16.077.893 7.454 13.705zm29.535 58.45l15.009-1.735-8.739-13.332zm15.009-1.735l7.082-13.332h-15.821zm0 0l-15.009 1.735 7.189 14.873zm0 0l16.365 2.243-9.283-15.575zm-3.364-70.104l-9.305 13.052 16.809-.16z"/><path d="M133.863 115.329l3.789-15.575H124.58zm3.789-15.575l11.243 14.824L150 99.754z"/><path d="M137.652 99.754l-3.789 15.575 15.032-.751zm11.243-14.824l-11.243 14.824H150zM0 173.085v-18.636l-11.028 10.706zm26.417-4.756l-15.389-3.174 5.232 14.673zm-15.389-3.174l6.721-12.011L0 154.449z"/><path d="M11.028 165.155l15.389 3.174-8.668-15.185zM0 173.085l11.028-7.93L0 154.449zm11.028-7.93L0 173.085l16.26 6.743zm-44.611-10.097l-7.87 15.328 15.036-2.057zm-7.87 15.328l7.87-15.328-15.498 1.128z"/><path d="M-41.453 170.386l9.177 13.524 5.859-15.581z"/><path d="M-56.806 170.572l15.353-.186-7.628-14.2zM48.62 127.8l-7.501 13.703 15.758.741z"/><path d="M64.331 128.539L48.62 127.8l8.257 14.444zM8.089 113.545l8.041-13.791H0z"/><path d="M-8.089 113.545H8.089L0 99.754zm83.13 83.023l4.303-13.91-15.611 1.83zm16.591-5.892l-12.288-8.018-4.303 13.91z"/><path d="M79.344 182.658l12.288 8.018-1.396-17.948z"/><path d="M72.713 169.943l6.631 12.715 10.892-9.93zm-23.632-13.757l7.725 14.386 8.11-14.199zm7.725 14.386l15.907-.629-7.797-13.57zm33.43 2.156l6.458-16.115-15.182 1.183z"/><path d="M96.694 156.613l-8.235-13.62-6.947 14.803zm-55.575-15.11l-15.917-1.084 8.381 14.639zm-15.917-1.084l-7.453 12.725 15.834 1.914z"/><path d="M25.202 140.419l-16.984.486 9.531 12.239zM-42.995 0l-5.239 14.27 15.958 1.329z"/><path d="M-42.995 0l10.719 15.599 4.062-13.443zm-5.239 14.27l6.781 14.853 9.177-13.524zm6.781 14.853l-6.781-14.853-8.572 14.667zm0 0l-7.628 14.2 15.498 1.128zm-7.628 14.2l7.628-14.2-15.353-.186zm-47.613-.427l6.458-16.115-14.352 4.011zm6.458-16.115l-1.396-17.948-13.62 7.571zm10.892-9.93l-10.892 9.93 17.523 2.784z"/><path d="M-90.236 26.781l10.892-9.93-12.288-8.018zm8.724 14.932l-8.724-14.932-6.458 16.115z"/><path d="M-90.236 26.781l8.724 14.932 8.799-12.148zm10.623 44.09l6.659-14.5-15.505.145zm6.659-14.5l-8.558-14.658-6.947 14.803zm161.413 86.622l-8.846-14.356-6.659 14.501zm-24.128-14.454l15.282.098-7.843-14.472z"/><path d="M79.613 128.637l-15.282-.098 8.623 14.599zm15.233.418l-15.233-.418 8.846 14.356zm-189.692 0l7.641-14.777-15.284.543z"/><path d="M-109.678 129.694l14.832-.639-7.643-14.234zm14.832-.639l-14.832.639 4.849 13.781zm0 0l15.233-.418-7.592-14.359zm0-58.601l15.233.417-8.846-14.355z"/><path d="M-104.829 56.034l9.983 14.42 6.387-13.938zm25.216 14.837l-15.233-.417 7.641 14.776z"/><path d="M-94.846 70.454l-7.643 14.234 15.284.542zm.524 29.3h15.128l-8.011-14.524zm7.117 14.524l-7.117-14.524-8.167 15.067z"/><path d="M-94.322 99.754l7.117 14.524 8.011-14.524zm0 0h-14.437l6.27 15.067zm0 0l-8.167-15.066-6.27 15.066z"/><path d="M-102.489 84.688l8.167 15.066 7.117-14.524zm-31.374-.508l-15.032.75 11.243 14.824zm92.744 57.323l7.536 13.555 8.381-14.639z"/><path d="M-33.583 155.058l-7.536-13.555-7.962 14.683zm-23.294-12.814l15.758-.741-7.501-13.703z"/><path d="M-41.119 141.503l-15.758.741 7.796 13.942zm-23.212-12.964l7.454 13.705 8.257-14.444zm-15.282.098l15.282-.098-7.439-14.374zm15.282-.098l-15.282.098 6.659 14.501z"/><path d="M-56.877 142.244l-7.454-13.705-8.623 14.599zm.584-28.232l-8.038 14.527 15.711-.739zm-8.038 14.527l8.038-14.527-15.477.153zm48.048-56.317l-7.971 13.731 16.165.011z"/><path d="M-24.254 85.953l7.971-13.731-16.464.151zm0 0l-16.2.02 8.222 13.781z"/><path d="M-40.454 85.973l16.2-.02-8.493-13.58zm-23.399 13.781h15.551l-7.991-14.258zm15.551 0l-7.991 14.258 15.839-.477z"/><path d="M-32.232 99.754h-16.07l7.848 13.781zm-24.061 14.258l7.991-14.258h-15.551zm7.991-14.258l7.848-13.781-15.839-.477z"/><path d="M-40.454 85.973l-7.848 13.781h16.07zm0 0l-8.166-14.264-7.673 13.787zm-8.166-14.264l8.166 14.264 7.707-13.6zM79.194 99.754l8.011-14.524-15.435.114zm.419-28.883l7.592 14.359 7.641-14.776z"/><path d="M87.205 85.23l-7.592-14.359-7.843 14.473zm7.117 14.524L87.205 85.23l-8.011 14.524zM-25.202 59.09l7.453-12.726-15.834-1.913zm73.436-44.82L58.847.146 42.995 0zm-15.958 1.329L14.277 6.353 16.26 19.68zm0 0L16.26 19.68l10.157 11.5zm9.177 13.524l-9.177-13.524-5.859 15.581z"/><path d="M32.276 15.599L28.214 2.156 14.277 6.353zm16.344 56.11l-7.501-13.703-8.372 14.367z"/><path d="M32.747 72.373l8.372-14.367-15.917 1.084zm24.13-15.109l-15.758.742 7.501 13.703zm-7.796-13.941l-7.962 14.683 15.758-.742zm0 0l15.835-.187-8.11-14.199z"/><path d="M64.916 43.136l7.797-13.571-15.907-.628zm0 0l-15.835.187 7.796 13.941zm8.038 13.235l-8.038-13.235-8.039 14.128zm31.875-.337l-8.135-13.138-8.235 13.62zm9.305-13.052l-17.44-.086 8.135 13.138zm19.115 23.749l12.248 3.353-6.974-16.845zm-8.669 33.023l-7.082-13.331-8.739 13.331zm-203.924 82.904l-10.892-9.93-1.396 17.948z"/><path d="M-104.588 168.716l14.352 4.012-6.458-16.115zm14.352 4.012l-14.352-4.012-.664 14.388zm17.523-2.785l-17.523 2.785 10.892 9.93z"/><path d="M-81.512 157.796l-8.724 14.932 17.523-2.785z"/><path d="M-90.236 172.728l8.724-14.932-15.182-1.183zm25.32-16.355l8.11 14.199 7.725-14.386z"/><path d="M-56.806 170.572l-8.11-14.199-7.797 13.57zm-.071-28.328l-8.039 14.129 15.835-.187z"/><path d="M-64.916 156.373l8.039-14.129-16.077.894z"/><path d="M-81.512 157.796l16.596-1.423-8.038-13.235zm16.596-1.423l-16.596 1.423 8.799 12.147zm21.921 43.136l14.781-2.157-4.062-13.442zm-5.239-14.271l-15.499-.75 4.886 14.874zm0 0l-8.572-14.666-6.927 13.916z"/><path d="M-42.995 199.509l10.719-15.599-15.958 1.328zm-5.239-14.271l6.781-14.852-15.353.186zm6.781-14.852l-6.781 14.852 15.958-1.328zm89.755-70.632l7.991 14.258 7.56-14.258zm7.991 14.258l8.038 14.527 7.439-14.374z"/><path d="M63.853 99.754l-7.56 14.258 15.477.153zm-7.56 14.258l-7.991-14.258-7.848 13.781zm0 0L48.62 127.8l15.711.739z"/><path d="M48.62 127.8l7.673-13.788-15.839-.477zm-24.366-14.244L16.13 99.754l-8.041 13.791zM8.089 85.964H-8.089L0 99.754zm8.194-13.742L8.089 85.964l16.165-.011z"/><path d="M8.089 85.964l8.041 13.79 8.124-13.801zm8.041 13.79l-8.041-13.79L0 99.754zm-24.348 41.151l-8.065-13.619-8.919 13.133zm49.671 29.481l7.628-14.2-15.498-1.128z"/><path d="M26.417 168.329l15.036 2.057-7.87-15.328zm15.036 2.057l-9.177 13.524 15.958 1.328z"/><path d="M32.276 183.91l9.177-13.524-15.036-2.057zm9.177-13.524l15.353.186-7.725-14.386z"/><path d="M56.806 170.572l-15.353-.186 6.781 14.852zm-8.572 14.666l10.613 14.124 4.886-14.874zm26.807 11.33l-11.308-12.08-4.886 14.874zm-26.807-11.33l-5.239 14.271 15.852-.147zm15.499-.75l15.611-1.83-6.631-12.715z"/><path d="M56.806 170.572l6.927 13.916 8.98-14.545z"/><path d="M63.733 184.488l-6.927-13.916-8.572 14.666zm58.425-57.99l-4.66-13.412-7.82 16.608zm11.091 6.28l.614-17.449-11.705 11.169z"/><path d="M133.249 132.778l12.248-3.353-11.634-14.096z"/><path d="M117.498 113.086l4.66 13.412 11.705-11.169zm4.66 13.412l-.52 17.137 11.611-10.857z"/><path d="M121.638 143.635l.52-17.137-12.48 3.196zm-2.548 28.415l11.006-12.424-15.962-3.099zm19.433-25.78l-5.274-13.492-11.611 10.857z"/><path d="M130.096 159.626l-8.458-15.991-7.504 12.892z"/><path d="M138.523 146.27l-16.885-2.635 8.458 15.991zm-48.287 26.458l1.396 17.948 13.62-7.572zm0 0l15.016 10.376-.664-14.388zm28.854-.678l-14.502-3.334.664 14.388z"/><path d="M104.588 168.716l14.502 3.334-4.956-15.523z"/><path d="M96.694 156.613l7.894 12.103 9.546-12.189zm7.894 12.103l-7.894-12.103-6.458 16.115zm.241-25.241l16.809.16-11.96-13.941z"/><path d="M94.846 129.055l9.983 14.42 4.849-13.781zm9.983 14.42l-9.983-14.42-6.387 13.938zm16.809.16l-16.809-.16 9.305 13.052zm-24.944 12.978l8.135-13.138-16.37-.482z"/><path d="M104.829 143.475l-8.135 13.138 17.44-.086zM-63.733 15.021l-8.98 14.544 15.907-.628zm0 0l-15.611 1.83 6.631 12.714zM-58.847.146l-4.886 14.875 15.499-.751z"/><path d="M-75.041 2.94l11.308 12.081L-58.847.146zM-58.847.146l10.613 14.124L-42.995 0z"/><path d="M-48.234 14.27l-15.499.751 6.927 13.916zm-24.479 15.295l7.797 13.571 8.11-14.199zm-8.799 12.148l16.596 1.423-7.797-13.571zm32.431 1.61l-15.835-.187 8.039 14.128z"/><path d="M-64.916 43.136l15.835.187-7.725-14.386zm-8.038 13.235l8.038-13.235-16.596-1.423zm8.038-13.235l-8.038 13.235 16.077.893zM94.322 99.754l-7.117 14.524 15.284.543zm-7.117 14.524l-8.011-14.524-7.424 14.411zm0 0l7.641 14.777 7.643-14.234z"/><path d="M87.205 114.278l7.117-14.524H79.194zm0 0l-7.592 14.359 15.233.418z"/><path d="M79.613 128.637l7.592-14.359-15.435-.113zm-161.125 29.159l-6.947-14.803-8.235 13.62zm1.899-29.159l-8.846 14.356 15.505.145z"/><path d="M-88.459 142.993l-16.37.482 8.135 13.138zm0 0l6.947 14.803 8.558-14.658zm-6.387-13.938l6.387 13.938 8.846-14.356z"/><path d="M-88.459 142.993l-6.387-13.938-9.983 14.42zm-44.79-76.262l11.091 6.279.52-17.136zm-.614 48.598l9.283-15.575h-13.072zm25.104-15.575h-15.821l7.082 13.332z"/><path d="M-124.58 99.754l-9.283 15.575 16.365-2.243zm0 0l-9.283-15.574-3.789 15.574zm108.45 0l8.041 13.791L0 99.754zm8.041-13.79l-8.041 13.79H0zm-8.041 13.79l-8.124-13.801-7.978 13.801z"/><path d="M-24.254 85.953l8.124 13.801 8.041-13.79zm-24.827-42.63l7.962 14.683 7.536-13.555zm23.879 15.767l-15.917-1.084 8.372 14.367z"/><path d="M-41.119 58.006l15.917 1.084-8.381-14.639zm0 0l-7.962-14.683-7.796 13.941z"/><path d="M-48.62 71.709l7.501-13.703-15.758-.742zm7.501-13.703l-7.501 13.703 15.873.664zm-23.212 12.963l-7.439 14.375 15.477.152zm0 0l-8.623-14.598-6.659 14.5z"/><path d="M-71.77 85.344l7.439-14.375-15.282-.098z"/><path d="M-72.954 56.371l8.623 14.598 7.454-13.705zm24.334 15.338l-15.711-.74 8.038 14.527z"/><path d="M-64.331 70.969l15.711.74-8.257-14.445zM16.26 19.68l-5.232 14.674 15.389-3.174zM0 26.424l11.028 7.93L16.26 19.68zm8.218 32.179l8.065 13.619 8.919-13.132zm-49.671-29.48l15.036 2.057-5.859-15.581z"/><path d="M-32.276 15.599l5.859 15.581 10.157-11.5zm5.859 15.581l-15.036-2.057 7.87 15.328zm8.668 15.184l-8.668-15.184-7.166 13.271zm81.482-31.343l-15.499-.751 8.572 14.667zM42.995 0L28.214 2.156l4.062 13.443z"/><path d="M48.234 14.27l-6.781 14.853 15.353-.186zm0 0l15.499.751L58.847.146zM42.995 0L32.276 15.599l15.958-1.329z"/><path d="M48.234 14.27l-15.958 1.329 9.177 13.524zM33.583 44.451l7.87-15.328-15.036 2.057zm0 0l15.498-1.128-7.628-14.2zm0 0l7.536 13.555 7.962-14.683z"/><path d="M41.119 58.006l-7.536-13.555-8.381 14.639zm40.393-16.293l-8.558 14.658 15.505.145zm-16.596 1.423l16.596-1.423-8.799-12.148z"/><path d="M72.713 29.565l8.799 12.148 8.724-14.932zm8.799 12.148l-16.596 1.423 8.038 13.235zm15.182 1.183l-15.182-1.183 6.947 14.803z"/><path d="M81.512 41.713l15.182 1.183-6.458-16.115zm23.74-25.309l-13.62-7.571-1.396 17.948zm0 0L90.236 26.781l14.352 4.011z"/><path d="M104.588 30.792l14.502-3.333-13.838-11.055zm14.502-3.333l-14.502 3.333 9.546 12.19zm-14.502 3.333l-7.894 12.104 17.44.086z"/><path d="M96.694 42.896l7.894-12.104-14.352-4.011zm33.402-3.013L119.09 27.459l-4.956 15.523zm0 0l-15.962 3.099 7.504 12.892zm-8.458 15.991l11.611 10.857 5.274-13.492z"/><path d="M121.638 55.874l16.885-2.635-8.427-13.356zm23.859 14.21L133.863 84.18l15.032.75zm-7.845 29.67l-3.789-15.574-9.283 15.574z"/><path d="M133.863 84.18l3.789 15.574 11.243-14.824zm0 0l-16.365 2.243 7.082 13.331zm-31.374.508l-8.167 15.066h14.437zm0 0l7.189-14.873-14.832.639zm-15.284.542l15.284-.542-7.643-14.234z"/><path d="M102.489 84.688l-15.284.542 7.117 14.524zm15.009 1.735l-15.009-1.735 6.27 15.066z"/><path d="M102.489 84.688l15.009 1.735-7.82-16.608zM48.302 99.754h-16.07l8.222 13.781zM24.254 85.953l7.978 13.801 8.222-13.781z"/><path d="M32.232 99.754h16.07l-7.848-13.781zm-16.102 0h16.102l-7.978-13.801z"/><path d="M24.254 113.556l7.978-13.802H16.13zm7.978-13.802l-7.978 13.802 16.2-.021zm.515 27.382l15.873.664-8.166-14.265zm15.873.664l-15.873-.664 8.372 14.367z"/><path d="M32.747 127.136l-7.545 13.283 15.917 1.084zm-8.493-13.58l8.493 13.58 7.707-13.601zM8.218 140.905L0 127.273l-8.218 13.632zm-16.307-27.36L0 127.273l8.089-13.728zm-8.194 13.741L0 127.273l-8.089-13.728zM0 127.273l-16.283.013 8.065 13.619zm-48.62.527l15.873-.664-7.707-13.601zm15.873-.664l-8.372 14.367 15.917-1.084z"/><path d="M-41.119 141.503l8.372-14.367-15.873.664zm24.836-14.217l-16.464-.15 7.545 13.283zm-117.58-43.106l-11.634-14.096-3.398 14.846zm0 0l11.705-11.17-11.091-6.279z"/><path d="M-133.863 84.18l.614-17.449-12.248 3.353zm-11.634-14.096l12.248-3.353-5.274-13.492zm35.819-.269l14.832.639-9.983-14.42z"/><path d="M-109.678 69.815l4.849-13.781-16.809-.16zm14.832.639l-14.832-.639 7.189 14.873zm-27.312 2.556l12.48-3.195-11.96-13.941zM8.089 85.964L0 72.236l-8.089 13.728z"/><path d="M0 72.236l-16.283-.014 8.194 13.742zm0 0l8.089 13.728 8.194-13.742z"/><path d="M8.218 58.603L0 72.236l16.283-.014zm113.94 14.407l11.091-6.279-11.611-10.857z"/><path d="M109.678 69.815l12.48 3.195-.52-17.136zm24.185 14.365l-.614-17.449-11.091 6.279zm-16.365 2.243l4.66-13.413-12.48-3.195zm16.365-2.243l-11.705-11.17-4.66 13.413zm0 0l11.634-14.096-12.248-3.353zM32.747 127.136l-16.464.15 8.919 13.133zm-16.464.15l7.971-13.73-16.165-.011zm8.919 13.133l-8.919-13.133-8.065 13.619z"/><path d="M16.283 127.286l16.464-.15-8.493-13.58zm0 0L0 127.273l8.218 13.632z"/><path d="M0 127.273l16.283.013-8.194-13.741zm-24.254-13.717l7.971 13.73 8.194-13.741zm0 0l8.124-13.802h-16.102z"/><path d="M-24.254 113.556l-7.978-13.802-8.222 13.781zm8.124-13.802l-8.124 13.802 16.165-.011zm-8.124 13.802l-8.493 13.58 16.464.15z"/><path d="M-32.747 127.136l8.493-13.58-16.2-.021zm-84.751-40.713l-4.66-13.413-11.705 11.17zm0 0l-7.082 13.331h15.821z"/><path d="M-102.489 84.688l-15.009 1.735 8.739 13.331zm-22.091 15.066l7.082-13.331-16.365-2.243zm7.082-13.331l7.82-16.608-12.48 3.195z"/><path d="M-109.678 69.815l-7.82 16.608 15.009-1.735zM0 45.06V26.424l-11.028 7.93z"/><path d="M-11.028 34.354L0 26.424l-16.26-6.744zm-15.389-3.174l15.389 3.174-5.232-14.674z"/><path d="M-11.028 34.354l-15.389-3.174 8.668 15.184zM0 45.06l11.028-10.706L0 26.424zm0 0l-11.028-10.706-6.721 12.01zm17.749 1.304L8.218 58.603l16.984.487zm-6.721-12.01l6.721 12.01 8.668-15.184z"/><path d="M17.749 46.364l15.834-1.913-7.166-13.271zm15.834-1.913l-15.834 1.913 7.453 12.726zm-15.834 1.913L0 45.06l8.218 13.543z"/><path d="M0 45.06l17.749 1.304-6.721-12.01zm-8.218 13.543L0 45.06l-17.749 1.304zm0 0l-16.984.487 8.919 13.132z"/><path d="M-8.218 58.603l-9.531-12.239-7.453 12.726zM0 45.06l-8.218 13.543H8.218zm-8.218 13.543L0 72.236l8.218-13.633zM0 72.236l-8.218-13.633-8.065 13.619z"/></svg>