<svg xmlns="http://www.w3.org/2000/svg" viewBox="-50 0 100 93.683"><style>path{fill:none;stroke:#969696;stroke-width:.5;stroke-linejoin:bevel}</style><path d="M44.998 71.394l3.905 3.104.806-3.647zM-45.145 64.171L-50 66.828l3.467.954zM-26.308 21.635l-.45 3.674 4.786-1.273zM28.882 89.63l2.922-2.35-4.658-1.046zM-22.114 93.683l3.96-.458-2.567-3.46zM-31.804 87.28l2.227-4.058-4.014-.055zM-24.751 89.867l2.637 3.816 1.393-3.918zM-23.284 71.961l4.254-.051-2.184-3.643zM13.627 87.094l.528 5.037 2.486-2.775zM-4.675 9.798l2.396 3.756L0 10.356zM-2.242 35.248l-2.141 3.544L0 38.795z"/><path d="M2.242 35.248h-4.484L0 38.795zM-23.389 27.36l-3.369-2.051.109 4.2zM2.113 57.18l2.094-3.719L0 53.513zM6.311 57.179l-2.104-3.718-2.094 3.719z"/><path d="M4.207 53.461l-2.106-3.694L0 53.513z"/><path d="M2.101 49.767l2.106 3.694 2.118-3.696zM10.806 42.457l-4.316-.045 2.017 3.68zM6.49 42.412l4.316.045-2.058-3.666zM25.18 17.557l-2.582 2.896 3.71 1.182zM26.308 21.635l-3.71-1.182-.626 3.583zM26.649 29.509l.109-4.2-3.369 2.051zM2.242 35.248l4.517.013-2.293-3.507zM21.502 10.73l-2.669 2.807 4.726.417zM45.309 82.056l-4.111-.091 1.433 3.401zM28.882 89.63l-2.891 3.93 3.698-.651zM28.882 89.63l4.383 2.115-1.461-4.465z"/><path d="M33.265 91.745l-4.383-2.115.807 3.279zM-29.577 83.222l-1.91-3.851-2.104 3.796zM-24.751 89.867l-1.24 3.693 3.877.123zM-29.577 83.222l2.431 3.012 2.059-3.54z"/><path d="M-27.146 86.234l-2.431-3.012-2.227 4.058zM20.64 82.666l-2-3.327-2.617 3.805zM29.577 83.222l2.227 4.058 1.787-4.113zM31.804 87.28l-2.227-4.058-2.431 3.012zM-14.789 71.893l-4.241.017 2.239 3.667zM-16.922 60.944l-2.174 3.653 4.266-.049zM-19.096 64.597l2.174-3.653-4.277-.009zM-2.113 57.18h4.226L0 53.513z"/><path d="M-4.207 53.461l2.094 3.719L0 53.513zM0 60.867l-2.113-3.687-2.094 3.697z"/><path d="M-2.113 57.18L0 60.867l2.113-3.687zM-18.421 86.071l4.794 1.023-2.396-3.95zM-32.899 45.677l-2.988 2.848 4.475.582zM-43.459 49.368l4.104.631-1.154-3.547zM9.67 85.929l-1.987 2.823 3.136 1.919z"/><path d="M7.683 88.752l1.987-2.823-4.836.488zM18.154 93.225l-1.513-3.869-2.486 2.775zM-21.502 10.73l4.918-.544-2.505-2.272z"/><path d="M-16.584 10.186l.33-4.77-2.835 2.498zM-16.254 5.416l-.33 4.77 3.509-1.168zM-10.759 6.015l-2.492-2.586-3.003 1.987z"/><path d="M-10.759 6.015l-5.495-.599 3.179 3.602zM-22.598 20.453l-2.582-2.896-1.128 4.078zM2.203 28.174l2.144-3.607L0 24.566z"/><path d="M-2.203 28.174h4.406L0 24.566zM-22.376 31.111l-4.273-1.602.685 3.829zM-26.308 21.635l4.336 2.401-.626-3.583zM-22.598 20.453l.626 3.583 3.27-3.256zM-21.972 24.036l-1.417 3.324 3.971.523z"/><path d="M-23.389 27.36l1.417-3.324-4.786 1.273zM-4.207 53.461l-2.118-3.696-2.086 3.74zM10.661 13.085L8.472 17.08l3.969.073zM8.472 17.08l2.189-3.995-4.174.409zM-39.355 49.999l1.951 3.189 1.517-4.663zM-25.453 68.246l2.169 3.715 2.07-3.694zM2.029 0h-4.058L0 3.625zM10.661 13.085l3.815.381-1.401-4.448z"/><path d="M14.476 13.466l-3.815-.381 1.78 4.068zM14.476 13.466l2.093 3.669 2.264-3.598z"/><path d="M16.569 17.135l-2.093-3.669-2.035 3.687zM16.569 17.135l4.191-.202-1.927-3.396z"/><path d="M18.833 13.537l1.927 3.396 2.799-2.979zM25.18 17.557l-4.42-.624 1.838 3.52zM20.76 16.933l4.42.624-1.621-3.603zM25.964 33.338l-4.89 1.197 3.748 2.274zM37.986 83.543l4.645 1.823-1.433-3.401zM37.986 83.543l1.891 4.344 2.754-2.521zM45.24 74.963l2.137 3.511 1.526-3.976zM25.991 93.56l-1.24-3.693-2.637 3.816zM24.751 89.867l4.131-.237-1.736-3.396z"/><path d="M24.751 89.867l1.24 3.693 2.891-3.93zM-35.603 79.596l-2.383 3.947 4.395-.376zM-35.603 79.596l-1.911-4.421-1.632 3.578z"/><path d="M-37.986 83.543l2.383-3.947-3.543-.843z"/><path d="M-37.514 75.175l1.911 4.421 1.931-3.929zM-35.603 79.596l4.116-.225-2.185-3.704z"/><path d="M-31.487 79.371l-4.116.225 2.012 3.571zM-27.392 79.355l-2.185 3.867 4.49-.528z"/><path d="M-23.017 79.15l-4.375.205 2.305 3.339zM-27.392 79.355l-4.095.016 1.91 3.851zM-25.991 93.56l-2.891-3.93-.807 3.279zM-28.882 89.63l-4.383 2.115 3.576 1.164z"/><path d="M-33.265 91.745l4.383-2.115-2.922-2.35zM-28.882 89.63l2.891 3.93 1.24-3.693zM-27.146 86.234l-1.736 3.396 4.131.237z"/><path d="M-28.882 89.63l1.736-3.396-4.658 1.046zM-22.805 86.168l-1.946 3.699 4.03-.102zM-18.421 86.071l-4.384.097 2.084 3.597zM-27.146 86.234l4.341-.066-2.282-3.474z"/><path d="M-22.805 86.168l-4.341.066 2.395 3.633zM-47.377 78.474l2.068 3.582 2.069-3.58zM-50 66.828l.291 4.023 3.176-3.069zM-49.709 70.851l4.711.543-1.535-3.612zM-41.431 74.794l-1.809 3.682 4.094.277z"/><path d="M-37.514 75.175l-3.917-.381 2.285 3.959zM-31.804 87.28l-4.738 2.871 3.277 1.594z"/><path d="M-31.804 87.28l-3.821-.603-.917 3.474z"/><path d="M-35.625 86.677l3.821.603-1.787-4.113z"/><path d="M-37.986 83.543l2.361 3.134 2.034-3.51z"/><path d="M-39.877 87.887l4.252-1.21-2.361-3.134zM-35.625 86.677l-4.252 1.21 3.335 2.264zM-41.198 81.965l3.212 1.578-1.16-4.79zM-41.198 81.965l-4.111.091 2.678 3.31zM-43.24 78.476l2.042 3.489 2.052-3.212z"/><path d="M-45.309 82.056l4.111-.091-2.042-3.489zM-37.986 83.543l-4.645 1.823 2.754 2.521z"/><path d="M-37.986 83.543l-3.212-1.578-1.433 3.401zM29.647 53.292l-1.968-3.555-2.229 3.77zM16.922 60.944l2.079-3.606-4.241-.081zM18.421 86.071l2.219-3.405-4.617.478zM29.577 83.222l-4.49-.528 2.059 3.54zM4.115 75.535l4.409-.311-2.273-3.404zM-10.615 71.725l4.364.095-2.163-3.644zM-20.988 75.614l1.958-3.704-4.254.051z"/><path d="M-19.03 71.91l-1.958 3.704 4.197-.037zM-18.64 79.339l-2.348-3.725-2.029 3.536z"/><path d="M-20.988 75.614l2.348 3.725 1.849-3.762zM-14.582 79.309l-4.058.03 2.617 3.805z"/><path d="M-18.64 79.339l4.058-.03-2.209-3.732zM-14.789 71.893l-2.165-3.656-2.076 3.673z"/><path d="M-19.03 71.91l2.076-3.673-4.26.03zM-19.096 64.597l2.142 3.64 2.124-3.689z"/><path d="M-16.954 68.237l-2.142-3.64-2.118 3.67zM-6.292 64.568l-4.258-.038 2.136 3.646zM-8.42 60.875l2.128 3.693 2.085-3.691z"/><path d="M-6.292 64.568l-2.128-3.693-2.13 3.655zM4.207 60.877l2.104-3.698-4.198.001z"/><path d="M0 60.867l4.207.01-2.094-3.697zM-4.115 75.535l-2.844 3.206 3.461.935zM-3.498 79.676l-3.461-.935-.069 4.016z"/><path d="M-7.028 82.757l.069-4.016-3.544.649z"/><path d="M-3.498 79.676l-3.53 3.081 4.714.933zM-32.899 45.677l2.008-4.435-3.447 1.296zM-40.509 46.452l1.154 3.547 3.468-1.474z"/><path d="M-40.509 46.452l4.622 2.073-1.687-4.231zM-37.574 44.294l4.675 1.383-1.439-3.139z"/><path d="M-32.899 45.677l-4.675-1.383 1.687 4.231zM-25.363 47l-2.316 2.737 4.558.489zM-24.403 43.525l-2.866-3.099-1.564 4.565z"/><path d="M-27.269 40.426l2.866 3.099 1.198-3.409zM-35.887 48.525l2.218 4.061 2.257-3.479zM-33.669 52.586l-3.735.602 1.838 3.632z"/><path d="M-37.404 53.188l3.735-.602-2.218-4.061zM7.028 82.757l2.642 3.172 2.213-3.001zM7.028 82.757l-4.714.933 2.52 2.727z"/><path d="M9.67 85.929l-2.642-3.172-2.194 3.66zM-23.559 13.954l4.726-.417-2.669-2.807zM-18.833 13.537l2.249-3.351-4.918.544zM-8.696 9.622l-2.063-3.607-2.316 3.003zM-4 3.616L-2.029 0-6.17.643zM-2.029 0L-4 3.616l4 .009zM-2.121 20.896l-2.144-3.655-2.128 3.661zM4.347 24.567l-2.226-3.671L0 24.566z"/><path d="M6.393 20.902l-4.272-.006 2.226 3.671z"/><path d="M2.121 20.896h-4.242L0 24.566zM-11.368 35.281l-4.79.137 3.132 3.388zM-4.347 24.567l2.144 3.607L0 24.566z"/><path d="M-2.121 20.896l-2.226 3.671L0 24.566zM-4.347 24.567l2.226-3.671-4.272.006zM-4.347 24.567l-2.244 3.663 4.388-.056zM0 31.724l2.242 3.524 2.224-3.494z"/><path d="M2.242 35.248L0 31.724l-2.242 3.524zM0 31.724l2.203-3.55h-4.406zM2.203 28.174L0 31.724l4.466.03zM-23.389 27.36l1.013 3.751 2.958-3.228zM-22.376 31.111l-1.013-3.751-3.26 2.149zM-2.101 49.767l-2.106 3.694L0 53.513zM-2.101 49.767l-4.224-.002 2.118 3.696z"/><path d="M-6.325 49.765l4.224.002-2.154-3.7z"/><path d="M-4.255 46.067l2.154 3.7L0 46.061zM-2.101 49.767h4.202L0 46.061zM2.101 49.767h-4.202L0 53.513zM8.672 24.65l-2.279-3.748-2.046 3.665zM11.368 35.281l-4.609-.02 1.989 3.53zM20.76 16.933l-2.058 3.847 3.896-.327z"/><path d="M18.702 20.78l2.058-3.847-4.191.202zM19.001 57.338l-2.145-3.712-2.096 3.631zM-6.49 42.412l4.326-.008-2.219-3.612z"/><path d="M-4.383 38.792l2.219 3.612L0 38.795zM-2.164 42.404l-2.091 3.663L0 46.061z"/><path d="M-2.164 42.404l-4.326.008 2.235 3.655zM2.164 42.404h-4.328L0 46.061zM-2.164 42.404h4.328L0 38.795zM2.101 49.767l2.154-3.7L0 46.061zM4.255 46.067l2.07 3.698 2.182-3.673z"/><path d="M4.255 46.067l-2.154 3.7 4.224-.002zM6.49 42.412l-2.235 3.655 4.252.025z"/><path d="M2.164 42.404l2.091 3.663 2.235-3.655zM4.255 46.067l-2.091-3.663L0 46.061zM6.759 35.261l-2.376 3.531 4.365-.001zM4.383 38.792l-2.141-3.544L0 38.795z"/><path d="M4.383 38.792l2.107 3.62 2.258-3.621zM4.383 38.792l2.376-3.531-4.517-.013zM4.383 38.792l-2.219 3.612 4.326.008z"/><path d="M2.164 42.404l2.219-3.612L0 38.795zM-41.752 53.327l-1.707-3.959-2.38 3.2z"/><path d="M-43.459 49.368l1.707 3.959 2.397-3.328z"/><path d="M-41.752 53.327l4.348-.139-1.951-3.189zM-45.145 64.171l-4.596-.978-.259 3.635zM-41.431 74.794l1.044-3.486-4.611.086zM-40.387 71.308l-1.044 3.486 3.917.381zM10.661 13.085L8.696 9.622l-2.209 3.872z"/><path d="M8.696 9.622l1.965 3.463 2.414-4.067zM4.675 9.798l4.021-.176L6.9 5.639zM8.696 9.622l-4.021.176 1.812 3.696zM4.675 9.798L2.258 7.06 0 10.356z"/><path d="M2.258 7.06l2.417 2.738L6.9 5.639zM16.584 10.186l4.918.544-2.413-2.816zM16.584 10.186l-.33-4.77-3.179 3.602z"/><path d="M16.254 5.416l.33 4.77 2.505-2.272zM21.502 10.73l-4.918-.544 2.249 3.351z"/><path d="M16.584 10.186l-2.108 3.28 4.357.071z"/><path d="M14.476 13.466l2.108-3.28-3.509-1.168zM22.376 31.111l4.273-1.602-3.26-2.149zM25.964 33.338l-3.588-2.227-1.302 3.424zM22.376 31.111l3.588 2.227.685-3.829zM15.042 42.829l4.674-.25-2.84-3.076zM19.716 42.579l-4.674.25 2.039 3.381zM20.107 37.907l.967-3.372-4.916.883z"/><path d="M19.716 42.579l.391-4.672-3.231 1.596zM20.107 37.907l3.098 2.209 1.617-3.307z"/><path d="M20.107 37.907l4.715-1.098-3.748-2.274zM35.625 86.677l2.361-3.134-4.395-.376z"/><path d="M31.804 87.28l3.821-.603-2.034-3.51zM31.804 87.28l1.461 4.465 3.277-1.594z"/><path d="M31.804 87.28l4.738 2.871-.917-3.474z"/><path d="M35.625 86.677l4.252 1.21-1.891-4.344zM39.877 87.887l-4.252-1.21.917 3.474zM47.377 78.474l-4.137.002 2.069 3.58zM45.309 82.056l-2.069-3.58-2.042 3.489z"/><path d="M43.24 78.476l4.137-.002-2.137-3.511zM-27.544 71.908l2.091-3.662-4.234-.036zM-25.453 68.246l-2.091 3.662 4.26.053zM-31.818 71.898l4.274.01-2.143-3.698zM-20.64 82.666l2-3.327-4.377-.189z"/><path d="M-20.64 82.666l-2.377-3.516-2.07 3.544zM-20.64 82.666l2.219 3.405 2.398-2.927z"/><path d="M-18.64 79.339l-2 3.327 4.617.478zM-20.64 82.666l-2.165 3.502 4.384-.097z"/><path d="M-22.805 86.168l2.165-3.502-4.447.028zM-47.377 78.474l2.137-3.511-3.663-.465z"/><path d="M-44.998 71.394l-3.905 3.104 3.663.465z"/><path d="M-45.24 74.963l-2.137 3.511 4.137.002zM-44.998 71.394l-4.711-.543.806 3.647z"/><path d="M-45.24 74.963l3.809-.169-3.567-3.4zM-41.431 74.794l-3.809.169 2 3.513zM37.404 53.188l-1.517-4.663-2.218 4.061zM31.412 49.107l-1.765 4.185 4.022-.706z"/><path d="M35.887 48.525l-4.475.582 2.257 3.479zM31.412 49.107l-3.733.63 1.968 3.555zM45.145 64.171l-3.236-3.509-1.395 3.614zM37.986 83.543l-2.383-3.947-2.012 3.571zM10.55 64.53l-2.136 3.646 4.305-.03zM8.414 68.176l2.136-3.646-4.258.038zM13.627 87.094L9.67 85.929l1.149 4.742z"/><path d="M11.883 82.928l1.744 4.166 2.396-3.95zM13.627 87.094l-2.808 3.577 3.336 1.46z"/><path d="M9.67 85.929l3.957 1.165-1.744-4.166zM18.421 86.071l-4.794 1.023 3.014 2.262z"/><path d="M13.627 87.094l4.794-1.023-2.398-2.927zM20.721 89.765l-2.567 3.46 3.96.458z"/><path d="M18.154 93.225l2.567-3.46-4.08-.409zM24.751 89.867l-4.03-.102 1.393 3.918z"/><path d="M20.721 89.765l-2.3-3.694-1.78 3.285zM14.582 79.309l-2.699 3.619 4.14.216z"/><path d="M18.64 79.339l-4.058-.03 1.441 3.835zM14.582 79.309l2.209-3.732-4.199.016z"/><path d="M16.791 75.577l-2.209 3.732 4.058.03zM16.791 75.577l-2.002-3.684-2.197 3.7zM12.719 68.146l2.07 3.747 2.165-3.656zM-2.314 83.69L0 80.308l-3.498-.632zM0 80.308l3.498-.632L0 76.224zM3.498 79.676L0 80.308l2.314 3.382zM-12.592 75.593l1.977-3.868-4.174.168z"/><path d="M-12.592 75.593l-2.197-3.7-2.002 3.684zM-12.592 75.593l-1.99 3.716 4.079.081z"/><path d="M-14.582 79.309l1.99-3.716-4.199-.016zM-12.719 68.146l2.104 3.579 2.201-3.549z"/><path d="M-10.55 64.53l-2.169 3.616 4.305.03z"/><path d="M-12.719 68.146l2.169-3.616-4.28.018zM-10.615 71.725l-2.104-3.579-2.07 3.747z"/><path d="M-12.719 68.146l-4.235.091 2.165 3.656zM-16.954 68.237l4.235-.091-2.111-3.598zM-16.922 60.944l-2.079-3.606-2.198 3.597zM-21.079 53.759l2.109-3.757-4.151.224zM0 76.224l-4.115-.689.617 4.141zM0 76.224l3.498 3.452.617-4.141z"/><path d="M0 80.308v-4.084l-3.498 3.452zM4.207 60.877l-2.116 3.697 4.201-.006zM2.091 64.574l2.116-3.697L0 60.867zM-6.251 71.82l2.114-3.533-4.277-.111z"/><path d="M-4.137 68.287l-2.155-3.719-2.122 3.608zM-16.641 89.356l-1.513 3.869 3.999-1.094zM-16.641 89.356l-1.78-3.285-2.3 3.694zM-18.154 93.225l1.513-3.869-4.08.409z"/><path d="M-16.641 89.356l3.014-2.262-4.794-1.023zM-14.155 92.131l.528-5.037-3.014 2.262zM-14.155 92.131l3.336-1.46-2.808-3.577zM-7.028 82.757l2.194 3.66 2.52-2.727zM-11.883 82.928l-2.699-3.619-1.441 3.835z"/><path d="M-14.582 79.309l2.699 3.619 1.38-3.538zM-13.627 87.094l1.744-4.166-4.14.216z"/><path d="M-11.883 82.928l4.855-.171-3.475-3.367zM-30.891 41.242l2.058 3.749 1.564-4.565zM-28.833 44.991l-4.066.686 1.487 3.43zM-24.403 43.525l-4.43 1.466 3.47 2.009z"/><path d="M-28.833 44.991l-2.058-3.749-2.008 4.435zM-28.833 44.991l1.154 4.746L-25.363 47z"/><path d="M-27.679 49.737l-1.154-4.746-2.579 4.116zM-25.45 53.507l4.371.252-2.042-3.533z"/><path d="M-27.679 49.737l2.229 3.77 2.329-3.281zM-16.158 35.418l-.718 4.085 3.85-.697zM-25.453 68.246l-2.149-3.728-2.085 3.692zM-29.635 60.702l-2.054-3.92-2.022 3.871zM-31.689 56.782l-3.877.038 1.855 3.833z"/><path d="M-31.689 56.782l2.054 3.92 2.116-3.59zM-31.689 56.782l-1.98-4.196-1.897 4.234zM7.028 82.757l-3.53-3.081-1.184 4.014zM6.959 78.741l1.565-3.517-4.409.311z"/><path d="M3.498 79.676l3.461-.935-2.844-3.206z"/><path d="M7.028 82.757l-.069-4.016-3.461.935zM-20.76 16.933l-1.838 3.52 3.896.327zM-16.569 17.135l-4.191-.202 2.058 3.847z"/><path d="M-25.18 17.557l4.42-.624-2.799-2.979z"/><path d="M-20.76 16.933l-4.42.624 2.582 2.896zM-20.76 16.933l1.927-3.396-4.726.417zM-18.833 13.537l-1.927 3.396 4.191.202zM-16.584 10.186l2.108 3.28 1.401-4.448z"/><path d="M-12.441 17.153l-2.035-3.687-2.093 3.669z"/><path d="M-18.833 13.537l4.357-.071-2.108-3.28z"/><path d="M-14.476 13.466l-4.357.071 2.264 3.598zM-6.9 5.639l-1.796 3.983 4.021.176z"/><path d="M-8.696 9.622L-6.9 5.639l-3.859.376zM-8.696 9.622l2.209 3.872 1.812-3.696zM-4.675 9.798l-1.812 3.696 4.208.06zM-6.487 13.494l2.222 3.747 1.986-3.687zM4.675 9.798l-2.396 3.756 4.208-.06zM-2.279 13.554h4.558L0 10.356z"/><path d="M2.279 13.554l2.396-3.756L0 10.356zM-14.627 20.909l-1.942-3.774-2.133 3.645z"/><path d="M-14.627 20.909l2.186-3.756-4.128-.018zM-14.627 20.909l4.109.038-1.923-3.794zM-6.759 35.261l2.376 3.531 2.141-3.544zM-15.246 28.209l1.748 3.712 2.524-3.614zM-11.368 35.281l-2.13-3.36-2.66 3.497zM-6.591 28.23l-2.081-3.58-2.302 3.657zM-10.518 20.947l1.846 3.703 2.279-3.748zM-4.347 24.567l-4.325.083 2.081 3.58z"/><path d="M-8.672 24.65l4.325-.083-2.046-3.665zM-25.964 33.338l1.142 3.471 3.748-2.274zM-6.325 49.765l-4.206.096 2.12 3.644zM22.376 31.111l-4.488.618 3.186 2.806zM19.418 27.883l2.958 3.228 1.013-3.751z"/><path d="M19.418 27.883l-1.53 3.846 4.488-.618z"/><path d="M17.888 31.729l1.53-3.846-4.172.326zM10.974 28.307l2.017-3.68-4.319.023zM12.991 24.627l-2.017 3.68 4.272-.098zM10.806 42.457l2.22-3.651-4.278-.015z"/><path d="M13.026 38.806l-1.658-3.525-2.62 3.51zM15.042 42.829l-2.016-4.023-2.22 3.651zM13.026 38.806l2.016 4.023 1.834-3.326zM21.079 53.759l-4.223-.133 2.145 3.712zM-41.909 60.662l-3.236 3.509 4.631.105zM-42.475 67.777l-2.67-3.606-1.388 3.611z"/><path d="M-44.998 71.394l2.523-3.617-4.058.005zM-45.145 64.171l2.67 3.606 1.961-3.501z"/><path d="M-40.387 71.308l-2.088-3.531-2.523 3.617zM-31.818 71.898l-4.198-.29 2.344 4.059zM-36.016 71.608l-1.498 3.567 3.842.492zM-36.016 71.608l-4.371-.3 2.873 3.867zM10.759 6.015l5.495-.599-3.003-1.987zM10.759 6.015l2.316 3.003 3.179-3.602z"/><path d="M9.666 1.727l1.093 4.288 2.492-2.586z"/><path d="M10.759 6.015L9.666 1.727 6.9 5.639zM8.696 9.622l2.063-3.607L6.9 5.639zM10.759 6.015L8.696 9.622l4.379-.604zM4 3.616L2.029 0 0 3.625z"/><path d="M2.029 0L4 3.616 6.17.643zM6.17.643l.73 4.996 2.766-3.912z"/><path d="M6.17.643L4 3.616l2.9 2.023z"/><path d="M4 3.616L2.258 7.06 6.9 5.639z"/><path d="M2.258 7.06L4 3.616l-4 .009zM24.403 43.525l.96 3.475 3.47-2.009zM24.403 43.525l2.866-3.099-4.064-.31z"/><path d="M19.716 42.579l3.489-2.463-3.098-2.209zM19.716 42.579l4.687.946-1.198-3.409zM-29.512 75.593l-2.306-3.695-1.854 3.769z"/><path d="M-31.487 79.371l1.975-3.778-4.16.074zM-27.392 79.355l-2.12-3.762-1.975 3.778z"/><path d="M-29.512 75.593l1.968-3.685-4.274-.01zM45.839 52.568l-2.38-3.2-1.707 3.959zM46.533 67.782l3.176 3.069.291-4.023z"/><path d="M45.145 64.171l1.388 3.611L50 66.828z"/><path d="M45.145 64.171L50 66.828l-.259-3.635zM37.404 53.188l2.276 3.748 2.072-3.609zM49.741 63.193l-4.024-2.731-.572 3.709z"/><path d="M45.717 60.462l4.024 2.731-.782-3.68zM45.717 60.462l-3.808.2 3.236 3.509zM31.487 79.371l-1.91 3.851 4.014-.055z"/><path d="M35.603 79.596l-4.116-.225 2.104 3.796zM21.079 53.759l2.231 3.489 2.14-3.741zM23.31 57.248l-2.231-3.489-2.078 3.579zM41.431 74.794l1.809 3.682 2-3.513zM8.42 60.875l2.113-3.675-4.222-.021z"/><path d="M4.207 60.877l4.213-.002-2.109-3.696zM8.42 60.875l-4.213.002 2.085 3.691zM10.55 64.53l-2.13-3.655-2.128 3.693zM14.83 64.548l-2.111 3.598 4.235.091z"/><path d="M14.83 64.548l-4.28-.018 2.169 3.616zM25.087 82.694l-2.282 3.474 4.341.066zM18.421 86.071l4.384.097-2.165-3.502zM22.805 86.168l1.946 3.699 2.395-3.633z"/><path d="M22.805 86.168l2.282-3.474-4.447-.028zM20.721 89.765l2.084-3.597-4.384-.097zM22.805 86.168l-2.084 3.597 4.03.102zM10.615 71.725l-2.201-3.549-2.163 3.644zM8.524 75.224l2.091-3.499-4.364.095z"/><path d="M10.615 71.725l-2.091 3.499 4.068.369z"/><path d="M8.414 68.176l2.201 3.549 2.104-3.579z"/><path d="M10.615 71.725l4.174.168-2.07-3.747zM14.789 71.893l-4.174-.168 1.977 3.868zM-8.524 75.224l4.409.311-2.136-3.715zM-10.615 71.725l2.091 3.499 2.273-3.404zM-6.959 78.741l-1.565-3.517-1.979 4.166z"/><path d="M-8.524 75.224l1.565 3.517 2.844-3.206zM-12.592 75.593l4.068-.369-2.091-3.499zM-8.524 75.224l-4.068.369 2.089 3.797zM-21.182 46.364l-3.221-2.839-.96 3.475zM-21.182 46.364l-4.181.636 2.242 3.226zM-21.182 46.364l2.212 3.638 1.889-3.792zM-18.97 50.002l-2.212-3.638-1.939 3.862zM-6.311 57.179l4.198.001-2.094-3.719zM-6.311 57.179l2.104-3.718-4.204.044zM-2.113 57.18l-4.198-.001 2.104 3.698z"/><path d="M-6.311 57.179l-2.109 3.696 4.213.002zM-6.311 57.179l-4.222.021 2.113 3.675z"/><path d="M-10.533 57.2l4.222-.021-2.1-3.674zM-10.55 64.53l-2.112-3.639-2.168 3.657z"/><path d="M-12.662 60.891l-4.26.053 2.092 3.604zM-8.42 60.875l-4.242.016 2.112 3.639z"/><path d="M-10.533 57.2l-2.129 3.691 4.242-.016zM1.987 72.115l2.128 3.42 2.136-3.715zM1.987 72.115L0 76.224l4.115-.689zM-2.091 64.574h4.182L0 60.867z"/><path d="M-2.091 64.574L0 60.867l-4.207.01zM-6.292 64.568l4.201.006-2.116-3.697zM2.091 64.574h-4.182L0 68.313z"/><path d="M-2.091 64.574l-2.046 3.713L0 68.313z"/><path d="M-4.137 68.287l2.046-3.713-4.201-.006zM-10.819 90.671l1.149-4.742-3.957 1.165zM-9.67 85.929l-1.149 4.742 3.136-1.919zM-4.834 86.417l-4.836-.488 1.987 2.823z"/><path d="M-9.67 85.929l4.836.488-2.194-3.66z"/><path d="M-11.883 82.928l2.213 3.001 2.642-3.172zM-9.67 85.929l-2.213-3.001-1.744 4.166zM-19.001 57.338l-4.309-.09 2.111 3.687zM-23.31 57.248l4.309.09-2.078-3.579zM-25.45 53.507l2.14 3.741 2.231-3.489z"/><path d="M-23.31 57.248l-2.14-3.741-2.069 3.605zM-15.042 42.829l4.236-.372-2.22-3.651zM-16.876 39.503l1.834 3.326 2.016-4.023zM-31.798 64.423l2.163-3.721-4.076-.049z"/><path d="M-36.073 64.329l4.275.094-1.913-3.77zM-31.798 64.423l4.196.095-2.033-3.816zM-27.602 64.518l-4.196-.095 2.111 3.787zM-19.096 64.597l-4.256-.01 2.138 3.68z"/><path d="M-23.352 64.587l4.256.01-2.103-3.662zM-23.352 64.587l-2.101 3.659 4.239.021zM-23.352 64.587l-4.25-.069 2.149 3.728zM-29.647 53.292l1.968-3.555-3.733-.63z"/><path d="M-33.669 52.586l4.022.706-1.765-4.185zM-25.45 53.507l-4.197-.215 2.128 3.82z"/><path d="M-29.647 53.292l4.197.215-2.229-3.77zM-31.689 56.782l2.042-3.49-4.022-.706zM-29.647 53.292l-2.042 3.49 4.17.33zM10.503 79.39l-3.475 3.367 4.855.171zM8.524 75.224l1.979 4.166 2.089-3.797zM14.582 79.309l-4.079.081 1.38 3.538z"/><path d="M10.503 79.39l4.079-.081-1.99-3.716zM10.503 79.39l-3.544-.649.069 4.016z"/><path d="M6.959 78.741l3.544.649-1.979-4.166zM-4 3.616l1.742 3.444L0 3.625z"/><path d="M-2.258 7.06l-2.417 2.738L0 10.356zM-2.258 7.06h4.516L0 3.625z"/><path d="M2.258 7.06h-4.516L0 10.356zM-6.9 5.639l4.642 1.421L-4 3.616z"/><path d="M-2.258 7.06L-6.9 5.639l2.225 4.159zM-6.17.643l-3.496 1.084L-6.9 5.639zM-10.759 6.015l1.093-4.288-3.585 1.702z"/><path d="M-6.9 5.639l-2.766-3.912-1.093 4.288zM-6.17.643l-.73 4.996L-4 3.616zM-8.472 17.08l-2.046 3.867 4.125-.045z"/><path d="M-4.265 17.241l-4.207-.161 2.079 3.822zM-10.518 20.947l2.046-3.867-3.969.073z"/><path d="M-6.487 13.494l-1.985 3.586 4.207.161zM8.472 17.08l-4.207.161 2.128 3.661z"/><path d="M4.265 17.241l4.207-.161-1.985-3.586zM4.265 17.241l-2.144 3.655 4.272.006z"/><path d="M2.279 13.554l1.986 3.687 2.222-3.747zM-15.246 28.209l-2.136-3.759-2.036 3.433z"/><path d="M-21.972 24.036l4.59.414-1.32-3.67z"/><path d="M-17.382 24.45l-4.59-.414 2.554 3.847zM-17.382 24.45l2.755-3.541-4.075-.129zM-8.748 38.791l2.258 3.621 2.107-3.62zM-8.748 38.791l-2.62-3.51-1.658 3.525zM-10.806 42.457l2.058-3.666-4.278.015z"/><path d="M-8.748 38.791l-2.058 3.666 4.316-.045zM-8.748 38.791l1.989-3.53-4.609.02z"/><path d="M-6.759 35.261l-1.989 3.53 4.365.001zM-6.591 28.23l2.125 3.524 2.263-3.58zM0 31.724l-4.466.03 2.224 3.494z"/><path d="M-4.466 31.754L0 31.724l-2.203-3.55zM-4.466 31.754l-2.293 3.507 4.517-.013zM-17.888 31.729l2.642-3.52-4.172-.326z"/><path d="M-22.376 31.111l4.488.618-1.53-3.846zM-13.498 31.921l-4.39-.192 1.73 3.689z"/><path d="M-17.888 31.729l4.39.192-1.748-3.712zM-24.822 36.809l4.715 1.098-.967-3.372zM-19.716 42.579l-3.489-2.463-1.198 3.409zM-6.49 42.412l-2.017 3.68 4.252-.025z"/><path d="M-10.806 42.457l2.299 3.635 2.017-3.68zM-8.507 46.092l2.182 3.673 2.07-3.698z"/><path d="M-8.507 46.092l-2.024 3.769 4.206-.096zM-19.001 57.338l2.145-3.712-4.223.133zM-16.856 53.626l-2.114-3.624-2.109 3.757zM2.203 28.174l4.388.056-2.244-3.663zM6.591 28.23l-4.388-.056 2.263 3.58zM6.591 28.23l2.081-3.58-4.325-.083zM6.591 28.23l4.383.077-2.302-3.657zM13.498 31.921l4.39-.192-2.642-3.52z"/><path d="M10.974 28.307l2.524 3.614 1.748-3.712zM26.308 21.635l-4.336 2.401 4.786 1.273zM26.758 25.309l-4.786-1.273 1.417 3.324zM18.702 20.78l3.27 3.256.626-3.583zM21.972 24.036l-2.554 3.847 3.971-.523zM10.518 20.947L8.472 17.08l-2.079 3.822z"/><path d="M8.472 17.08l2.046 3.867 1.923-3.794z"/><path d="M8.672 24.65l1.846-3.703-4.125-.045zM12.991 24.627l-2.473-3.68-1.846 3.703zM12.648 53.535L10.533 57.2l4.227.057zM16.856 53.626l-4.208-.091 2.112 3.722z"/><path d="M14.798 49.871l-2.15 3.664 4.208.091zM15.042 42.829l-2.329 3.44 4.368-.059z"/><path d="M12.713 46.269l2.329-3.44-4.236-.372zM12.713 46.269l-1.907-3.812-2.299 3.635zM12.713 46.269l2.085 3.602 2.283-3.661zM23.121 50.226l4.558-.489L25.363 47zM27.679 49.737l-4.558.489 2.329 3.281z"/><path d="M23.121 50.226l-2.042 3.533 4.371-.252zM-35.566 56.82l-2.247 3.835 4.102-.002zM-37.813 60.655l1.74 3.674 2.362-3.676z"/><path d="M-36.073 64.329l-1.74-3.674-2.701 3.621z"/><path d="M-37.813 60.655l-4.096.007 1.395 3.614zM-45.717 60.462l-1.955-4.476-1.287 3.527z"/><path d="M-49.741 63.193l4.024-2.731-3.242-.949zM-45.145 64.171l-.572-3.709-4.024 2.731zM-41.909 60.662l-3.808-.2.572 3.709zM-38.134 67.861l2.061-3.532-4.441-.053z"/><path d="M-42.475 67.777l4.341.084-2.38-3.585zM-38.134 67.861l-4.341-.084 2.088 3.531zM-36.016 71.608l-2.118-3.747-2.253 3.447zM37.574 44.294l-4.675 1.383 2.988 2.848z"/><path d="M32.899 45.677l4.675-1.383-3.236-1.756zM32.899 45.677l-1.487 3.43 4.475-.582z"/><path d="M30.891 41.242l2.008 4.435 1.439-3.139zM-25.315 75.62l-2.077 3.735 4.375-.205zM-25.315 75.62l4.327-.006-2.296-3.653zM-20.988 75.614l-4.327.006 2.298 3.53zM-27.544 71.908l2.229 3.712 2.031-3.659z"/><path d="M-29.512 75.593l4.197.027-2.229-3.712zM-25.315 75.62l-4.197-.027 2.12 3.762zM35.887 48.525l3.468 1.474 1.154-3.547z"/><path d="M35.887 48.525l4.622-2.073-2.935-2.158zM37.404 53.188l1.951-3.189-3.468-1.474z"/><path d="M39.355 49.999l-1.951 3.189 4.348.139zM43.459 49.368l-4.104.631 2.397 3.328zM39.355 49.999l4.104-.631-2.95-2.916zM42.475 67.777l2.67-3.606-4.631.105z"/><path d="M42.475 67.777l4.058.005-1.388-3.611zM35.566 56.82l1.838-3.632-3.735-.602z"/><path d="M35.566 56.82l4.114.116-2.276-3.748zM47.672 55.986l-1.955 4.476 3.242-.949zM20.988 75.614l-4.197-.037 1.849 3.762zM43.24 78.476l-4.094.277 2.052 3.212z"/><path d="M39.146 78.753l-1.16 4.79 3.212-1.578z"/><path d="M39.146 78.753l-3.543.843 2.383 3.947zM41.431 74.794l-2.285 3.959 4.094-.277zM8.42 60.875l4.242.016-2.129-3.691z"/><path d="M10.533 57.2l2.129 3.691 2.098-3.634z"/><path d="M12.662 60.891l4.26.053-2.162-3.687zM12.662 60.891l-4.242-.016 2.13 3.655zM14.83 64.548l-2.168-3.657-2.112 3.639zM12.662 60.891l2.168 3.657 2.092-3.604zM8.414 68.176l-4.277.111 2.114 3.533zM4.137 68.287l-2.046-3.713L0 68.313z"/><path d="M4.137 68.287l4.277-.111-2.122-3.608zM2.091 64.574l2.046 3.713 2.155-3.719zM1.987 72.115l2.15-3.828L0 68.313zM4.137 68.287l-2.15 3.828 4.264-.295zM-4.115 75.535l2.128-3.42-4.264-.295zM0 76.224l-1.987-4.109-2.128 3.42z"/><path d="M-4.137 68.287l2.15 3.828L0 68.313z"/><path d="M-1.987 72.115l-2.15-3.828-2.114 3.533zM1.987 72.115h-3.974L0 76.224zM-1.987 72.115h3.974L0 68.313zM-29.635 60.702l4.197.181-2.081-3.771zM-27.602 64.518l2.164-3.635-4.197-.181zM-23.31 57.248l-2.128 3.635 4.239.052z"/><path d="M-25.438 60.883l2.128-3.635-4.209-.136zM-23.352 64.587l-2.086-3.704-2.164 3.635z"/><path d="M-25.438 60.883l2.086 3.704 2.153-3.652zM-14.476 13.466l3.815-.381-2.414-4.067zM-10.661 13.085l1.965-3.463-4.379-.604zM-10.661 13.085l-3.815.381 2.035 3.687zM-10.661 13.085l4.174.409-2.209-3.872zM-10.661 13.085l2.189 3.995 1.985-3.586z"/><path d="M-8.472 17.08l-2.189-3.995-1.78 4.068zM-4.265 17.241L0 17.153l-2.279-3.599zM0 17.153l-4.265.088 2.144 3.655z"/><path d="M2.121 20.896L0 17.153l-2.121 3.743zM0 17.153l2.279-3.599h-4.558zM0 17.153l4.265.088-1.986-3.687zM4.265 17.241L0 17.153l2.121 3.743zM-14.627 20.909l1.636 3.718 2.473-3.68zM-12.991 24.627l-2.255 3.582 4.272.098z"/><path d="M-8.672 24.65l-4.319-.023 2.017 3.68z"/><path d="M-12.991 24.627l4.319.023-1.846-3.703zM-17.382 24.45l4.391.177-1.636-3.718z"/><path d="M-12.991 24.627l-4.391-.177 2.136 3.759zM-8.962 31.817l2.371-3.587-4.383.077zM-6.759 35.261l-2.203-3.444-2.406 3.464z"/><path d="M-13.498 31.921l4.536-.104-2.012-3.51zM-8.962 31.817l-4.536.104 2.13 3.36zM-4.466 31.754l-4.496.063 2.203 3.444z"/><path d="M-8.962 31.817l4.496-.063-2.125-3.524zM-25.964 33.338l4.89 1.197-1.302-3.424z"/><path d="M-20.107 37.907l3.949-2.489-4.916-.883z"/><path d="M-17.888 31.729l-3.186 2.806 4.916.883zM-21.074 34.535l3.186-2.806-4.488-.618zM-24.822 36.809l1.617 3.307 3.098-2.209zM-20.107 37.907l3.231 1.596.718-4.085zM-19.716 42.579l-1.466 3.785 4.101-.154z"/><path d="M-15.042 42.829l-4.674-.25 2.635 3.631z"/><path d="M-21.182 46.364l1.466-3.785-4.687.946z"/><path d="M-19.716 42.579l4.674.25-1.834-3.326zM-19.716 42.579l-.391-4.672-3.098 2.209zM-20.107 37.907l.391 4.672 2.84-3.076zM-12.713 46.269l-2.329-3.44-2.039 3.381z"/><path d="M-15.042 42.829l2.329 3.44 1.907-3.812z"/><path d="M-8.507 46.092l-4.206.177 2.182 3.592z"/><path d="M-12.713 46.269l4.206-.177-2.299-3.635zM-12.662 60.891l-2.098-3.634-2.162 3.687z"/><path d="M-14.76 57.257l-4.241.081 2.079 3.606zM-14.76 57.257l2.098 3.634 2.129-3.691zM-14.76 57.257l-2.096-3.631-2.145 3.712zM17.888 31.729l-1.73 3.689 4.916-.883zM20.107 37.907l-3.949-2.489.718 4.085z"/><path d="M16.158 35.418l-3.132 3.388 3.85.697zM13.026 38.806l3.132-3.388-4.79-.137zM13.498 31.921l2.66 3.497 1.73-3.689z"/><path d="M16.158 35.418l-2.66-3.497-2.13 3.36zM8.962 31.817L6.591 28.23l-2.125 3.524zM6.759 35.261l2.203-3.444-4.496-.063z"/><path d="M11.368 35.281l-2.406-3.464-2.203 3.444zM6.591 28.23l2.371 3.587 2.012-3.51z"/><path d="M8.962 31.817l4.536.104-2.524-3.614zM13.498 31.921l-4.536-.104 2.406 3.464zM17.382 24.45l-4.391.177 2.255 3.582z"/><path d="M19.418 27.883l-2.036-3.433-2.136 3.759zM21.972 24.036l-4.59.414 2.036 3.433zM17.382 24.45l4.59-.414-3.27-3.256zM4.207 53.461l4.204.044-2.086-3.74zM8.411 53.505l-4.204-.044 2.104 3.718zM10.533 57.2l-2.122-3.695-2.1 3.674zM12.648 53.535l-4.237-.03 2.122 3.695zM18.97 50.002l-4.172-.131 2.058 3.755zM14.798 49.871l4.172.131-1.889-3.792zM21.079 53.759l-2.109-3.757-2.114 3.624z"/><path d="M23.121 50.226l-4.151-.224 2.109 3.757zM-37.404 53.188l-2.276 3.748 4.114-.116z"/><path d="M-41.752 53.327l2.072 3.609 2.276-3.748zM-37.813 60.655l-1.867-3.719-2.229 3.726z"/><path d="M-39.68 56.936l1.867 3.719 2.247-3.835zM-33.872 68.054l-2.144 3.554 4.198.29zM-31.798 64.423l-2.074 3.631 4.185.156z"/><path d="M-33.872 68.054l2.054 3.844 2.131-3.688zM-33.872 68.054l2.074-3.631-4.275-.094zM-33.872 68.054l-4.262-.193 2.118 3.747z"/><path d="M-38.134 67.861l4.262.193-2.201-3.725zM24.403 43.525l4.43 1.466-1.564-4.565zM27.679 49.737l1.154-4.746L25.363 47zM31.412 49.107l-2.579-4.116-1.154 4.746zM28.833 44.991l2.058-3.749-3.622-.816zM28.833 44.991l4.066.686-2.008-4.435z"/><path d="M32.899 45.677l-4.066-.686 2.579 4.116zM46.533 67.782l-1.535 3.612 4.711-.543zM44.998 71.394l.242 3.569 3.663-.465z"/><path d="M44.998 71.394l-3.567 3.4 3.809.169zM41.431 74.794l3.567-3.4-4.611-.086z"/><path d="M42.475 67.777l2.523 3.617 1.535-3.612zM44.998 71.394l-2.523-3.617-2.088 3.531z"/><path d="M40.387 71.308l-2.253-3.447-2.118 3.747z"/><path d="M38.134 67.861l-4.262.193 2.144 3.554zM38.134 67.861l4.341-.084-1.961-3.501zM42.475 67.777l-4.341.084 2.253 3.447zM36.073 64.329l2.061 3.532 2.38-3.585z"/><path d="M38.134 67.861l-2.061-3.532-2.201 3.725zM39.68 56.936l4.176-.17-2.104-3.439z"/><path d="M43.856 56.766l1.983-4.198-4.087.759zM43.856 56.766l-4.176.17 2.229 3.726zM45.717 60.462l-1.861-3.696-1.947 3.896z"/><path d="M47.672 55.986l-3.816.78 1.861 3.696z"/><path d="M43.856 56.766l3.816-.78-1.833-3.418zM33.672 75.667l-2.185 3.704 4.116.225z"/><path d="M33.672 75.667l-4.16-.074 1.975 3.778z"/><path d="M29.512 75.593l-2.12 3.762 4.095.016zM27.392 79.355l-2.305 3.339 4.49.528z"/><path d="M31.487 79.371l-4.095-.016 2.185 3.867zM14.789 71.893l4.241.017-2.076-3.673z"/><path d="M19.03 71.91l-4.241-.017 2.002 3.684zM19.03 71.91l1.958 3.704 2.296-3.653zM20.988 75.614L19.03 71.91l-2.239 3.667zM14.83 64.548l4.266.049-2.174-3.653z"/><path d="M19.096 64.597l-4.266-.049 2.124 3.689zM-16.856 53.626l2.058-3.755-4.172.131z"/><path d="M-18.97 50.002l4.172-.131-2.283-3.661zM-12.713 46.269l-2.085 3.602 4.267-.01z"/><path d="M-14.798 49.871l2.085-3.602-4.368-.059zM10.518 20.947l4.109-.038-2.186-3.756z"/><path d="M14.627 20.909l1.942-3.774-4.128.018zM14.627 20.909l4.075-.129-2.133-3.645zM14.627 20.909l-4.109.038 2.473 3.68zM17.382 24.45l-2.755-3.541-1.636 3.718z"/><path d="M14.627 20.909l2.755 3.541 1.32-3.67zM10.531 49.861l2.117 3.674 2.15-3.664zM10.531 49.861l2.182-3.592-4.206-.177z"/><path d="M6.325 49.765l4.206.096-2.024-3.769z"/><path d="M12.713 46.269l-2.182 3.592 4.267.01z"/><path d="M10.531 49.861l-2.12 3.644 4.237.03z"/><path d="M8.411 53.505l2.12-3.644-4.206-.096zM21.182 46.364l-1.466-3.785-2.635 3.631zM24.403 43.525l-3.221 2.839 4.181.636z"/><path d="M21.182 46.364l3.221-2.839-4.687-.946zM21.182 46.364l1.939 3.862L25.363 47z"/><path d="M21.182 46.364l-2.212 3.638 4.151.224z"/><path d="M18.97 50.002l2.212-3.638-4.101-.154zM-47.672 55.986l3.816.78-1.983-4.198zM-45.717 60.462l1.861-3.696-3.816-.78z"/><path d="M-43.856 56.766l2.104-3.439-4.087-.759zM-43.856 56.766l-1.861 3.696 3.808.2z"/><path d="M-39.68 56.936l-4.176-.17 1.947 3.896z"/><path d="M-43.856 56.766l4.176.17-2.072-3.609zM39.68 56.936l-1.867 3.719 4.096.007zM41.909 60.662l-4.096-.007 2.701 3.621z"/><path d="M35.566 56.82l2.247 3.835 1.867-3.719zM37.813 60.655l-1.74 3.674 4.441-.053zM25.453 68.246l2.091 3.662 2.143-3.698z"/><path d="M27.544 71.908l-2.091-3.662-2.169 3.715zM37.514 75.175l2.873-3.867-4.371.3zM37.514 75.175l3.917-.381-1.044-3.486zM39.146 78.753l-1.632-3.578-1.911 4.421z"/><path d="M37.514 75.175l1.632 3.578 2.285-3.959zM37.514 75.175l-3.842.492 1.931 3.929zM33.672 75.667l3.842-.492-1.498-3.567zM33.872 68.054l-2.054 3.844 4.198-.29z"/><path d="M31.818 71.898l2.054-3.844-4.185.156z"/><path d="M27.544 71.908l4.274-.01-2.131-3.688zM31.818 71.898l-4.274.01 1.968 3.685z"/><path d="M33.672 75.667l-1.854-3.769-2.306 3.695zM31.818 71.898l1.854 3.769 2.344-4.059zM25.087 82.694l-2.07-3.544-2.377 3.516zM20.64 82.666l2.377-3.516-4.377.189z"/><path d="M23.017 79.15l-2.029-3.536-2.348 3.725zM27.392 79.355l-4.375-.205 2.07 3.544zM16.922 60.944l4.277-.009-2.198-3.597z"/><path d="M21.199 60.935l2.111-3.687-4.309.09zM21.199 60.935l-2.103 3.662 4.256-.01z"/><path d="M19.096 64.597l2.103-3.662-4.277.009zM-12.648 53.535l-2.112 3.722 4.227-.057z"/><path d="M-12.648 53.535l2.115 3.665 2.122-3.695z"/><path d="M-10.531 49.861l-2.117 3.674 4.237-.03zM-14.76 57.257l2.112-3.722-4.208.091z"/><path d="M-12.648 53.535l-2.15-3.664-2.058 3.755z"/><path d="M-14.798 49.871l2.15 3.664 2.117-3.674zM31.689 56.782l3.877.038-1.897-4.234z"/><path d="M29.647 53.292l2.042 3.49 1.98-4.196zM33.872 68.054l-2.074-3.631-2.111 3.787zM36.073 64.329l-4.275.094 2.074 3.631zM19.096 64.597l2.118 3.67 2.138-3.68z"/><path d="M19.03 71.91l2.184-3.643-4.26-.03z"/><path d="M21.214 68.267L19.03 71.91l4.254.051zM21.214 68.267l-2.118-3.67-2.142 3.64z"/><path d="M25.453 68.246l-4.239.021 2.07 3.694z"/><path d="M21.214 68.267l4.239-.021-2.101-3.659zM20.988 75.614l4.327.006-2.031-3.659zM25.315 75.62l2.229-3.712-4.26.053zM27.544 71.908l-2.229 3.712 4.197-.027zM25.315 75.62l2.077 3.735 2.12-3.762z"/><path d="M25.315 75.62l-2.298 3.53 4.375.205zM23.017 79.15l2.298-3.53-4.327-.006zM25.438 60.883l-4.239.052 2.153 3.652z"/><path d="M21.199 60.935l4.239-.052-2.128-3.635zM31.689 56.782l2.022 3.871 1.855-3.833zM33.711 60.653l4.102.002-2.247-3.835zM37.813 60.655l-4.102-.002 2.362 3.676z"/><path d="M33.711 60.653l-2.022-3.871-2.054 3.92z"/><path d="M31.798 64.423l1.913-3.77-4.076.049zM33.711 60.653l-1.913 3.77 4.275-.094zM27.602 64.518l-2.149 3.728 4.234-.036z"/><path d="M27.602 64.518l4.196-.095-2.163-3.721zM25.453 68.246l2.149-3.728-4.25.069z"/><path d="M31.798 64.423l-4.196.095 2.085 3.692z"/><path d="M25.438 60.883l2.164 3.635 2.033-3.816z"/><path d="M27.602 64.518l-2.164-3.635-2.086 3.704zM31.689 56.782l-4.17.33 2.116 3.59z"/><path d="M27.519 57.112l2.128-3.82-4.197.215z"/><path d="M23.31 57.248l4.209-.136-2.069-3.605zM27.519 57.112l4.17-.33-2.042-3.49zM25.438 60.883l2.081-3.771-4.209.136zM27.519 57.112l-2.081 3.771 4.197-.181z"/></svg>