<svg xmlns="http://www.w3.org/2000/svg" viewBox="-50 -50 100 100"><style>path{fill:#c8c5bd;stroke:navy;stroke-width:.5;stroke-linejoin:bevel}</style><path d="m11.179 50-2.502-7.448L3.892 50z"/><path d="M8.677 42.552 11.179 50l5.434-7.004zM42.665-50 50-43.249V-50zm-85.33 100L-50 43.249V50zm-1.052-41.598L-50 12.47l8.257 3.408z"/><path d="m-50 12.47 6.283-4.068L-50 4.293zM-42.171.735-50-3.136v7.429z"/><path d="M-42.171.735-50 4.293l6.283 4.109zm-.678-8.672L-50-3.136l7.829 3.871z"/><path d="m-42.849-7.937.678 8.672 5.63-5.31zM-50-3.136l7.151-4.801L-50-10.746zm12.461 31.753 2.13 7.537 4.876-7.375zm-4.204-12.739L-50 12.47v7.263zm0 0L-50 19.733l6.568 4.023z"/><path d="m-35.409 36.154 8.36-.507-3.484-6.868zM-11.205 50l-3.558-7.288L-18.877 50z"/><path d="m-14.763 42.712-7.715.035L-18.877 50z"/><path d="M-22.478 42.747-26.607 50h7.73zm52.566-85.453L26.607-50l-4.129 7.253z"/><path d="m26.607-50 3.481 7.294L34.363-50zM11.179 50h7.218l-1.784-7.004zM25 41.893 18.397 50H25z"/><path d="M18.397 50 25 41.893l-8.387 1.103zM50-12.47l-6.283 4.068L50-4.293z"/><path d="M43.717-8.402 50-12.47l-8.257-3.408z"/><path d="m50-4.293-6.283-4.109-1.546 7.667zm0 0L42.171-.735 50 3.136zM35.593-21.377l-2.797 6.708 8.947-1.209zM-11.872 7.474l-8.257.247 4.354 6.74z"/><path d="m-19.423 21.423 8.153-.102-4.505-6.86zm8.153-.102-8.153.102 4.507 6.991zM-50-18.259-42.258-25H-50zM-42.258-25l5.152 6.002L-33.378-25zm7.68 13.128-8.444-3.924.173 7.859zM16.312-.745l3.817-6.976-8.257.247zm3.817-6.976L16.312-.745l8.402-.293zM8.82 13.852l3.548-7.453-7.994.524zM4.982 21.03l-8.116.169 4.259 6.981zm7.28 14.149-3.585 7.373 7.936.444z"/><path d="m12.262 35.179-7.61.121 4.025 7.252zm-55.477-2.453 7.806 3.428-2.13-7.537zm7.622-11.349-1.946 7.24 7.006.162zm7.952.143-7.952-.143 5.06 7.402zm-7.952-.143 2.797-6.708-8.947 1.209z"/><path d="m-35.593 21.377 7.952.143-5.155-6.851zm-7.839 2.379 7.839-2.379-6.15-5.499zm7.839-2.379-7.839 2.379 5.893 4.861zm8.544 14.27-3.039 7.059 7.61.041z"/><path d="m-30.088 42.706 3.039-7.059-8.36.507zm0 0L-26.607 50l4.129-7.253z"/><path d="m-26.607 50-3.481-7.294L-34.363 50zM33.138-1.788l3.403 6.363 5.63-5.31zM16.312-.745l4.244 6.642 4.158-6.935z"/><path d="M20.556 5.897 16.312-.745l-3.944 7.144zm16.55 13.101-7.982-.801L33.378 25zm-7.982-.801-3.838-5.912-4.67 7.146zm-3.838-5.912 3.838 5.912 5.454-6.325zM50-27.793l-6.568 4.037L50-19.733zm-8.257 11.915L50-12.47v-7.263z"/><path d="M41.743-15.878 50-19.733l-6.568-4.023z"/><path d="m43.432-23.756-7.839 2.379 6.15 5.499zm-20.608-4.72 4.817 6.956 2.892-7.259zm9.972 13.807-5.155-6.851-3.486 6.812zm2.797-6.708-7.952-.143 5.155 6.851z"/><path d="m27.641-21.52 7.952.143-5.06-7.402zM-3.707 7.209l8.081-.286L0 0zm0 0L-8.086.371l-3.786 7.103z"/><path d="m-8.086.371 4.379 6.838L0 0zm-34.085.364 9.033 1.053-3.403-6.363zm14.53 20.785 3.486-6.812-8.641-.039z"/><path d="m-20.129 7.721-4.026 6.987 8.38-.247z"/><path d="m-19.423 21.423-4.732-6.715-3.486 6.812z"/><path d="m-24.155 14.708 4.732 6.715 3.648-6.962zm1.331 13.768-4.817-6.956-2.892 7.259zm-4.225 7.171 4.225-7.171-7.709.303zm7.626-14.224-3.401 7.053 7.908-.062z"/><path d="m-22.824 28.476 3.401-7.053-8.218.097zM-25-41.893-18.397-50H-25zM-18.397-50-25-41.893l8.387-1.103z"/><path d="M-11.179-50h-7.218l1.784 7.004zM-25-41.893l5.791 5.85 2.596-6.953z"/><path d="M-19.209-36.043-25-41.893v8.998zm1.722 8.129-1.722-8.129L-25-32.895zm-11.637 9.717L-25-25h-8.378zm16.057-2.651 8.085-.182-4.265-6.976zm-4.42-7.066 4.42 7.066 3.82-7.158zM-4.374-6.923-8.086.371 0 0zM-8.086.371l3.712-7.294-7.994.524z"/><path d="m3.707-7.209-8.081.286L0 0zm8.661 13.608L8.086-.371 4.374 6.923z"/><path d="M4.374 6.923 8.086-.371 0 0zM8.086-.371l8.226-.374-4.44-6.729zm8.226-.374-8.226.374 4.282 6.77z"/><path d="M3.707-7.209 8.086-.371l3.786-7.103z"/><path d="M8.086-.371 3.707-7.209 0 0zm-.578-13.926L3.707-7.209l8.165-.265zm0 0 3.762-7.024-8.136.122z"/><path d="m11.27-21.321-4.344-6.994-3.792 7.116zm-4.344-6.994 4.344 6.994 3.646-7.093zM26.607-50h-7.73l3.601 7.253z"/><path d="m18.877-50-4.114 7.288 7.715-.035z"/><path d="M14.763-42.712 18.877-50h-7.672zm8.061 14.236-3.834-7.078-4.074 7.14zm-8.061-14.236 4.227 7.158 3.488-7.193z"/><path d="m6.988-42.685 7.775-.027L11.205-50zM3.6-50l3.388 7.315L11.205-50zm-14.779 0 2.502 7.448L-3.892-50z"/><path d="M-8.677-42.552-11.179-50l-5.434 7.004zm-20.447 24.355L-33.378-25l-3.728 6.002zm0 0-5.454 6.325 9.292-.413zm0 0-7.982-.801 2.528 7.126z"/><path d="m-34.578-11.872-2.528-7.126-5.916 3.202z"/><path d="M-43.022-15.796-50-18.259v7.513zm.173 7.859-.173-7.859-6.978 5.05z"/><path d="m-50-18.259 6.978 2.463.764-9.204zm15.422 6.387-8.271 3.935 6.308 3.362z"/><path d="m-43.022-15.796 5.916-3.202L-42.258-25zm56.089 36.644L8.82 13.852 4.982 21.03zm6.142 15.195L25 41.893v-8.998z"/><path d="m25 41.893-5.791-5.85-2.596 6.953z"/><path d="m19.209 36.043-6.947-.864 4.351 7.817zM-50 27.793l6.568-4.037L-50 19.733zm6.568-4.037L-50 27.793l6.785 4.933z"/><path d="M-43.215 32.726-50 27.793v7.79zm-.217-8.97.217 8.97 5.676-4.109zm.108 16.965.109-7.995L-50 35.583zm.659 9.279-.659-9.279L-50 43.249z"/><path d="M-43.324 40.721-50 35.583v7.666zM.824 42.644-3.6 50h7.492z"/><path d="m8.677 42.552-7.853.092L3.892 50z"/><path d="M4.652 35.3.824 42.644l7.853-.092zm-11.578-6.985-4.344-6.994-3.646 7.093zm3.792-7.116-3.792 7.116 8.051-.135z"/><path d="m-6.926 28.315 3.792-7.116-8.136.122zm-4.096 7.181 4.096-7.181-7.99.099zM50-43.249l-6.676 2.528L50-35.583z"/><path d="M43.324-40.721 50-43.249 42.665-50zm.393 32.319-6.873.157 5.327 7.51z"/><path d="m36.844-8.245 6.873-.157-1.974-7.476zm-4.048-6.424 4.048 6.424 4.899-7.633zm4.048 6.424-3.706 6.457 9.033 1.053zM50 18.259 42.258 25H50zm0-15.123-7.151 4.801L50 10.746zM42.849 7.937 50 3.136 42.171-.735z"/><path d="m36.541 4.575 6.308 3.362-.678-8.672zM28.878 5.62l4.26-7.408-8.424.75zm0 0-3.592 6.665 9.292-.413z"/><path d="M36.541 4.575 28.878 5.62l5.7 6.252z"/><path d="m33.138-1.788-4.26 7.408 7.663-1.045zM20.556 5.897l8.322-.277-4.164-6.658zm8.322-.277-8.322.277 4.73 6.388zM17.487 27.914 25 25l-4.384-5.569zM25 25l4.124-6.803-8.508 1.234zm4.124-6.803L25 25h8.378zm6.469-39.574 1.946-7.24-7.006-.162zm1.946-7.24-2.13-7.537-4.876 7.375zM43.432-23.756l-5.893-4.861-1.946 7.24zm0 0L50-27.793l-6.785-4.933zM11.27-21.321l8.153-.102-4.507-6.991z"/><path d="m19.423-21.423 3.401-7.053-7.908.062zm0 0 8.218-.097-4.817-6.956zm8.218-.097-8.218.097 4.732 6.715zM-3.134 21.199l-4.374-6.902-3.762 7.024zm-4.374-6.902-4.364-6.823-3.903 6.987z"/><path d="m-11.27 21.321 3.762-7.024-8.267.164zm3.762-7.024 3.801-7.088-8.165.265zm-25.288.372-4.048-6.424-4.899 7.633zm-4.048-6.424-6.873.157 1.974 7.476zM-43.717 8.402l6.873-.157-5.327-7.51z"/><path d="m-36.844 8.245 3.706-6.457-9.033-1.053zm17.854 27.309 7.968-.058-3.894-7.082zm0 0-8.059.093 4.571 7.1z"/><path d="m-14.763 42.712-4.227-7.158-3.488 7.193z"/><path d="m-11.022 35.496-7.968.058 4.227 7.158z"/><path d="m-18.99 35.554-3.834-7.078-4.225 7.171z"/><path d="m-22.824 28.476 3.834 7.078 4.074-7.14zM-4.982-21.03l4.305 6.933 3.811-7.102zm4.305 6.933-3.697 7.174 8.081-.286zm8.185-.2-8.185.2 4.384 6.888z"/><path d="m-.677-14.097 8.185-.2-4.374-6.902zm-4.305-6.933 3.857-7.15-8.122.174z"/><path d="m-1.125-28.18-3.527-7.12-4.595 7.294zm0 0-3.857 7.15 8.116-.169z"/><path d="m-4.652-35.3 3.527 7.12 4.258-7.239z"/><path d="m-1.125-28.18 8.051-.135-3.793-7.104zm8.051-.135-8.051.135 4.259 6.981zm20.123-7.332 8.36-.507-5.321-6.552zm0 0-4.225 7.171 7.709-.303z"/><path d="m27.049-35.647 3.039-7.059-7.61-.041z"/><path d="m35.409-36.154-8.36.507 3.484 6.868zm-8.36.507-8.059.093 3.834 7.078zm-8.059.093 8.059-.093-4.571-7.1zm0 0-7.968.058 3.894 7.082zM11.022-35.496l-4.096 7.181 7.99-.099z"/><path d="m6.926-28.315 4.096-7.181-7.889.077zm4.096-7.181 7.968-.058-4.227-7.158zm-4.034-7.189 4.034 7.189 3.741-7.216z"/><path d="m11.022-35.496-4.034-7.189-3.855 7.266zm-15.674.196-7.61.121 3.015 7.173zM-12.262-35.179l-5.225 7.265 8.24-.092zm-6.947-.864 6.947.864-4.351-7.817z"/><path d="m-12.262-35.179-6.947-.864 1.722 8.129zm3.585-7.373-3.585 7.373 7.61-.121z"/><path d="m-12.262-35.179 3.585-7.373-7.936-.444zm19.25-7.506-7.812.041 3.957 7.225zm-7.812.041L-4.652-35.3l7.785-.119z"/><path d="M-.824-42.644 3.6-50h-7.492zm0 0 7.812-.041L3.6-50z"/><path d="m-8.677-42.552 7.853-.092L-3.892-50zm7.853-.092-7.853.092 4.025 7.252zM4.652 35.3l4.595-7.294-8.122.174z"/><path d="M9.247 28.006 4.982 21.03l-3.857 7.15zm0 0L4.652 35.3l7.61-.121zm0 0 3.82-7.158-8.085.182zm7.545-14.997 3.764-7.112-8.188.502zm8.494-.724-8.494.724 3.824 6.422z"/><path d="m8.82 13.852 7.972-.843-4.424-6.61zm11.736-7.955-3.764 7.112 8.494-.724z"/><path d="m13.067 20.848 3.725-7.839-7.972.843zm3.725-7.839-3.725 7.839 7.549-1.417zm-60.116 27.712 7.915-4.567-7.806-3.428zm13.236 1.985-7.466.966L-34.363 50zM-37.554 43.672-42.665 50h8.302zm0 0 7.466-.966-5.321-6.552z"/><path d="m-43.324 40.721 5.77 2.951 2.145-7.518z"/><path d="m-37.554 43.672-5.77-2.951.659 9.279zm30.566-.987-4.034-7.189-3.741 7.216zM-3.6 50l-3.388-7.315L-11.205 50z"/><path d="m-6.988 42.685-7.775.027L-11.205 50zm7.812-.041-7.812.041L-3.6 50zm29.264-85.35 7.466-.966L34.363-50zM37.554-43.672 42.665-50h-8.302z"/><path d="m35.409-36.154 2.145-7.518-7.466.966zm2.145-7.518 5.77 2.951L42.665-50zm-9.203 35.58 4.445-6.577-8.641-.039zm0 0-8.222.371 4.585 6.683z"/><path d="m20.129-7.721 8.222-.371-4.196-6.616zm13.009 5.933-4.787-6.304-3.637 7.054z"/><path d="m36.844-8.245-8.493.153 4.787 6.304zm-8.493.153 8.493-.153-4.048-6.424zm8.755 27.09-2.528-7.126-5.454 6.325z"/><path d="m34.578 11.872 2.528 7.126 5.916-3.202zM42.258 25l-5.152-6.002L33.378 25zm-7.68-13.128 8.444 3.924-.173-7.859zM20.129-7.721l-4.354-6.74-3.903 6.987zm-4.354-6.74-8.267.164 4.364 6.823z"/><path d="m15.775-14.461 4.354 6.74 4.026-6.987zm-8.267.164 8.267-.164-4.505-6.86zm8.267-.164 3.648-6.962-8.153.102z"/><path d="m19.423-21.423-3.648 6.962 8.38-.247zM8.82 13.852l-8.143.245 4.305 6.933z"/><path d="m.677 14.097 8.143-.245-4.446-6.929zm0 0-3.811 7.102 8.116-.169z"/><path d="m-3.707 7.209 4.384 6.888 3.697-7.174zm-3.801 7.088 8.185-.2-4.384-6.888z"/><path d="m.677 14.097-8.185.2 4.374 6.902zM-8.086.371l-8.226.374 4.44 6.729z"/><path d="m-16.312.745 8.226-.374-4.282-6.77zm0 0-3.817 6.976 8.257-.247z"/><path d="m-16.312.745-8.402.293 4.585 6.683zm-12.039 7.347-8.493.153 4.048 6.424zm4.196 6.616-4.196-6.616-4.445 6.577z"/><path d="m-28.351 8.092 4.196 6.616 4.026-6.987zm-8.493.153 8.493-.153-4.787-6.304z"/><path d="m-28.351 8.092 3.637-7.054-8.424.75zm3.637-7.054-3.637 7.054 8.222-.371zm-4.164-6.658-5.7-6.252-1.963 7.297zm-4.26 7.408 4.26-7.408-7.663 1.045z"/><path d="m-34.578-11.872 5.7 6.252 3.592-6.665zm9.864 12.91-4.164-6.658-4.26 7.408zM-25-25l7.513-2.914L-25-32.895zm4.384 5.569-8.508 1.234 3.838 5.912zm0 0 7.549-1.417-4.42-7.066zm3.824 6.422-3.824-6.422-4.67 7.146z"/><path d="m-20.616-19.431 3.824 6.422 3.725-7.839zM-25-25l4.384 5.569 3.129-8.483z"/><path d="M-20.616-19.431-25-25l-4.124 6.803zm7.549-1.417 4.247 6.996 3.838-7.178zM-4.374-6.923l-4.446-6.929-3.548 7.453zm-4.446-6.929-7.972.843 4.424 6.61z"/><path d="m-16.792-13.009 7.972-.843-4.247-6.996zm16.115-1.088-8.143.245 4.446 6.929z"/><path d="m-8.82-13.852 8.143-.245-4.305-6.933zm21.887 34.7 4.42 7.066 3.129-8.483zm4.42 7.066 1.722 8.129L25 32.895z"/><path d="M17.487 27.914 25 32.895V25zm1.722 8.129-1.722-8.129-5.225 7.265z"/><path d="m9.247 28.006 8.24-.092-4.42-7.066z"/><path d="m17.487 27.914-8.24.092 3.015 7.173zm-20.62 7.505 7.785-.119-3.527-7.12zm0 0 3.957 7.225L4.652 35.3z"/><path d="m-6.926 28.315 3.793 7.104 4.258-7.239z"/><path d="m-3.133 35.419-3.793-7.104-4.096 7.181zm0 0-3.855 7.266 7.812-.041z"/><path d="m-6.988 42.685 3.855-7.266-7.889.077zm50.312-83.406-.109 7.995L50-35.583zm.108 16.965-.217-8.97-5.676 4.109zm-.217-8.97L50-27.793v-7.79z"/><path d="m37.539-28.617 5.676-4.109-7.806-3.428zm5.785-12.104-5.77-2.951-2.145 7.518z"/><path d="m43.324-40.721-7.915 4.567 7.806 3.428zm-.475 48.658.173 7.859L50 10.746zm.173 7.859L50 18.259v-7.513z"/><path d="m50 18.259-6.978-2.463L42.258 25zm-15.422-6.387 8.271-3.935-6.308-3.362z"/><path d="m43.022 15.796-5.916 3.202L42.258 25zm-59.814-28.805-3.764 7.112 8.188-.502z"/><path d="m-20.556-5.897 4.244 6.642 3.944-7.144zm0 0 3.764-7.112-8.494.724z"/><path d="m-16.312.745-4.244-6.642-4.158 6.935z"/><path d="m-20.556-5.897-8.322.277 4.164 6.658z"/><path d="m-28.878-5.62 8.322-.277-4.73-6.388z"/></svg>