<svg xmlns="http://www.w3.org/2000/svg" viewBox="-50 0 100 66.538"><style>path{fill:none;stroke:#969696;stroke-width:.5;stroke-linejoin:bevel}</style><path d="M-49.606 38.379l3.724-4.95-4.118.008z"/><path d="M-45.882 33.429l-3.776-4.928-.342 4.936zM20.977 4.985L24.974.987l-5.3-.916zM-4.997 64.493L0 62.137l-4.928-2.301zM5.986 60.218L0 62.137l4.461 2.15zM-9.158.792l3.172 5.528 1.525-4.069zM-44.352 44.424l3.692-2.105-3.928-3.704zM-44.352 44.424l-4.096-1.102 2.351 5.599zM-34.838 47.973l-3.091 4.34 5.839.016zM-35.248 5.594l-4.594 3.715 4.817 1.096zM18.696 28.384l5.167-.058-2.525-4.783z"/><path d="M23.863 28.326l-5.167.058 2.567 4.746z"/><path d="M18.696 28.384l-2.612-4.578-2.683 4.736z"/><path d="M16.084 23.806l2.612 4.578 2.642-4.841zM16.084 23.806l-5.321.207 2.638 4.529zM-26.236 60.936l-4.209 2.686 5.471 1.929zM-3.068 55.173l-5.318.903 3.458 3.76zM-10.275 61.212l5.278 3.281.069-4.657z"/><path d="M-8.386 56.076l-1.889 5.136 5.347-1.376zM24.448 47.587l-2.609 4.44 5.502.452z"/><path d="M21.839 52.027l2.609-4.44-5.341-.276zM48.553 42.983l-4.072 1.128 1.782 4.494zM6.229 51.024l2.972 5.152 2.236-4.508zM-9.158.792l-2.126 4.402 5.298 1.126zM-30.268 9.058l-4.98-3.464.223 4.811zM-32.379 14.445l-2.667 4.399 5.441.154zM-29.915 57.685l-5.058 3.441 4.528 2.496zM-37.929 52.313l3.208 4.037 2.631-4.021z"/><path d="M-39.585 57.474l4.864-1.124-3.208-4.037zM-34.721 56.35l-4.864 1.124 4.612 3.652z"/><path d="M-43.267 53.357l3.682 4.117 1.656-5.161zM-40.462 48.031l-5.635.89 2.83 4.436zM29.605 47.54l-5.157.047 2.893 4.892zM-26.381 33.416l-2.635 4.841 5.153-.046z"/><path d="M-21.263 33.407l-5.118.009 2.518 4.795zM-36.244 33.41l-2.885 4.443 5.007.582zM-48.448 43.322l3.86-4.707-5.018-.236zM-44.588 38.615l-1.294-5.186-3.724 4.95zM-44.352 44.424l-.236-5.809-3.86 4.707zM-39.129 37.853l-5.459.762 3.928 3.704z"/><path d="M-36.495 43.388l-2.634-5.535-1.531 4.466z"/><path d="M-39.129 37.853l2.634 5.535 2.373-4.953zM-40.634 18.797l-2.85-5.327-2.779 4.463z"/><path d="M-40.634 18.797l-5.629-.864 1.782 4.494zM26.381 33.122l-5.118.008 2.684 4.797z"/><path d="M26.381 33.122l-2.518-4.796-2.6 4.804zM29.359 18.73l-2.916 4.774 5.095-.14zM23.863 28.326l2.58-4.822-5.105.039zM0 4.401l-4.461-2.15-1.525 4.069zM4.997 2.045L0 4.401l4.928 2.301zM10.763 24.013l-2.76 4.551 5.398-.022zM20.977 4.985l5.259.617L24.974.987zM18.796 18.997l-2.712 4.809 5.254-.263zM30.445 2.916l-4.209 2.686 3.679 3.251z"/><path d="M26.236 5.602l4.209-2.686L24.974.987zM49.658 38.037l-5.011.261 3.906 4.685zM34.838 18.565l-5.479.165 2.179 4.634z"/><path d="M36.495 23.15l-1.657-4.585-3.3 4.799zM34.838 18.565l1.657 4.585 3.967-4.644zM11.284 61.344l3.039 5.176 2.138-4.766zM-24.008 56.744l-2.228 4.192 5.259.616zM-15.702 61.785l-3.972 4.682 5.083.071zM-24.974 65.551l3.997-3.999-5.259-.616zM-24.974 65.551l5.3.916-1.303-4.915zM0 62.137l.747-4.324-5.675 2.023zM.747 57.813l-3.815-2.64-1.86 4.663zM5.986 60.218L.747 57.813 0 62.137zM-10.933 51.748l5.387-.557-2.613-4.237z"/><path d="M-5.546 51.191l3.055-4.116-5.668-.121zM-2.491 47.075l-3.055 4.116 5.953.376zM-5.546 51.191l-5.387.557 2.547 4.328z"/><path d="M-3.068 55.173l-2.478-3.982-2.84 4.885z"/><path d="M-5.546 51.191l2.478 3.982 3.475-3.606zM-18.65 56.954l-5.358-.21 3.031 4.808zM-10.275 61.212l.466 4.677 4.812-1.396zM24.448 47.587l-2.927-4.865-2.414 4.589zM18.696 28.384l-2.62 4.747 5.187-.001z"/><path d="M16.076 33.131l2.62-4.747-5.295.158zM16.59 51.982l5.249.045-2.732-4.716z"/><path d="M13.866 47.104l2.724 4.878 2.517-4.671z"/><path d="M16.59 51.982l-2.724-4.878-2.429 4.564zM24.48 56.569l5.788.911-2.927-5.001zM21.839 52.027l2.641 4.542 2.861-4.09zM6.229 51.024l-3.267-4.059-2.555 4.602zM2.962 46.965l-5.453.11 2.898 4.492zM5.986 60.218l3.172 5.528 2.126-4.402z"/><path d="M5.986 60.218l-1.525 4.069 4.697 1.459zM11.284 61.344l-2.126 4.402 5.165.774zM11.284 61.344l-2.083-5.168-3.215 4.042zM-5.552 24.147l-3.046-4.358-2.428 4.451zM-25.165 1.037l-1.523 4.661 5.154-.622z"/><path d="M-30.717 3.041l4.029 2.657 1.523-4.661zM-27.341 14.058l-5.038.387 2.774 4.553zM34.182 38.139l-2.507 4.748 4.935.209zM-29.016 38.257l2.573 4.777 2.58-4.823zM-23.947 28.611l-2.661-4.824-2.482 4.792z"/><path d="M-26.381 33.416l2.434-4.805-5.143-.032z"/><path d="M-21.263 33.407l-2.684-4.796-2.434 4.805zM-23.947 28.611l2.684 4.796 2.474-4.755zM-40.462 48.031l-2.805 5.326 5.338-1.044zM-44.352 44.424l3.89 3.607-.198-5.712z"/><path d="M-34.838 47.973l-5.624.058 2.533 4.282zM-40.462 48.031l-3.89-3.607-1.745 4.497zM-40.462 48.031l3.967-4.643-4.165-1.069z"/><path d="M-36.495 43.388l-3.967 4.643 5.624-.058zM-38.172 14.49l5.793-.045-2.646-4.04zM-39.842 9.309l1.67 5.181 3.147-4.085zM-35.046 18.844l-3.126-4.354-2.462 4.307zM-32.379 14.445l-5.793.045 3.126 4.354zM-43.484 13.47l5.312 1.02-1.67-5.181z"/><path d="M-38.172 14.49l-5.312-1.02 2.85 5.327zM-18.696 38.154l-2.567-4.747-2.6 4.804zM-18.696 38.154l2.612 4.577 2.683-4.736zM31.427 33.117l2.755 5.022 2.062-5.011zM-.747 8.725L0 4.401-5.986 6.32zM0 4.401l-.747 4.324 5.675-2.023zM5.277 23.994l5.486.019-2.604-4.429zM5.277 23.994l2.726 4.57 2.76-4.551zM26.236 5.602l-2.228 4.192 5.907-.941zM24.008 9.794l-3.031-4.809-2.327 4.599z"/><path d="M20.977 4.985l3.031 4.809 2.228-4.192zM13.481 9.698l2.652 4.681 2.517-4.795zM24.174 18.676l2.269 4.828 2.916-4.774z"/><path d="M26.443 23.504l-2.269-4.828-2.836 4.867zM24.174 18.676l-5.378.321 2.542 4.546zM34.182 38.139l5.006-.573-2.944-4.438z"/><path d="M39.188 37.566l2.333-4.449-5.277.011zM39.188 37.566l-5.006.573 2.428 4.957zM39.188 37.566l5.459.732-3.126-5.181zM37.929 14.225l-3.091 4.34 5.624-.059z"/><path d="M44.647 38.298l1.235-5.189-4.361.008zM45.882 33.109l3.776 4.928L50 33.1z"/><path d="M45.882 33.109l-1.235 5.189 5.011-.261zM49.606 28.159l-3.724 4.95L50 33.1zM.747 57.813l-.34-6.246-3.475 3.606zM9.201 56.176l-4.964-1.052 1.749 5.094zM4.237 55.124l1.992-4.1-5.822.543z"/><path d="M4.237 55.124l4.964 1.052-2.972-5.152zM.747 57.813l3.49-2.689-3.83-3.557zM4.237 55.124l-3.49 2.689 5.239 2.405zM-10.933 51.748l-2.548 5.091 5.095-.763z"/><path d="M-13.481 56.839l2.548-5.091-5.2.411zM-13.481 56.839l3.206 4.373 1.889-5.136z"/><path d="M-18.65 56.954l5.169-.115-2.652-4.68zM16.294 42.504l-2.428 4.6 5.241.207z"/><path d="M21.521 42.722l-5.227-.218 2.813 4.807zM2.752 37.842l2.614-4.636L0 33.269z"/><path d="M-2.631 37.91l5.383-.068L0 33.269zM25.165 65.501l1.523-4.661-5.154.622zM30.717 63.497l-4.029-2.657-1.523 4.661z"/><path d="M26.688 60.84l4.029 2.657-.449-6.017z"/><path d="M24.48 56.569l2.208 4.271 3.58-3.36zM16.59 51.982l2.64 4.816 2.609-4.771zM19.23 56.798l5.25-.229-2.641-4.542zM30.268 57.48l2.111-5.387-5.038.386z"/><path d="M32.379 52.093l-2.774-4.553-2.264 4.939zM13.866 47.104l-5.268-.355 2.839 4.919z"/><path d="M8.598 46.749l-2.369 4.275 5.208.644z"/><path d="M8.598 46.749l-5.636.216 3.267 4.059zM-14.323.018l-2.138 4.766 5.177.41z"/><path d="M-14.323.018l3.039 5.176L-9.158.792z"/><path d="M-16.461 4.784l2.283 5.002 2.894-4.592zM-14.178 9.786l-2.283-5.002-2.769 4.956zM-14.178 9.786l-2.412 4.769 5.153.314z"/><path d="M-16.59 14.555l2.412-4.769-5.052-.046zM-32.379 14.445l2.111-5.387-4.757 1.347zM-30.268 9.058l-.449-6.017-4.531 2.553z"/><path d="M-26.688 5.698l-3.58 3.36 5.788.91zM-30.268 9.058l3.58-3.36-4.029-2.657zM-27.341 14.058l-2.927-5-2.111 5.387z"/><path d="M-30.268 9.058l2.927 5 2.861-4.09zM-26.608 23.787l2.16-4.836-5.157.047z"/><path d="M-24.448 18.951l-2.893-4.893-2.264 4.94zM29.605 47.54l-2.997-4.79-2.16 4.837zM21.521 42.722l5.087.028-2.661-4.823z"/><path d="M26.608 42.75l-5.087-.028 2.927 4.865zM31.675 42.887l-5.067-.137 2.997 4.79zM-31.538 43.174l2.522-4.917-5.106.178z"/><path d="M-36.495 43.388l4.957-.214-2.584-4.739z"/><path d="M-31.538 43.174l-4.957.214 1.657 4.585zM-31.538 43.174l5.095-.14-2.573-4.777zM-31.675 23.651l5.067.136-2.997-4.789z"/><path d="M-35.046 18.844l3.371 4.807 2.07-4.653z"/><path d="M-26.608 23.787l-5.067-.136 2.585 4.928zM-31.675 23.651l-2.507 4.748 5.092.18z"/><path d="M-31.427 33.421l5.046-.005-2.709-4.837zM-29.016 38.257l-2.411-4.836-2.695 5.014z"/><path d="M-31.427 33.421l2.411 4.836 2.635-4.841zM-31.427 33.421l-4.817-.011 2.122 5.025z"/><path d="M-31.427 33.421l-2.755-5.022-2.062 5.011z"/><path d="M-34.182 28.399l2.755 5.022 2.337-4.842zM-44.647 28.24l-5.011.261 3.776 4.928zM-13.52 47.273l2.587 4.475 2.774-4.794z"/><path d="M-10.933 51.748l-2.587-4.475-2.613 4.886zM-18.796 47.541l5.276-.268-2.564-4.542z"/><path d="M-13.52 47.273l-5.276.268 2.663 4.618zM-21.338 42.994l2.542 4.547 2.712-4.81zM-26.443 43.034l5.105-.04-2.525-4.783zM-21.338 42.994l-5.105.04 2.269 4.828z"/><path d="M-18.796 47.541l-2.542-4.547-2.836 4.868zM-18.696 38.154l-2.642 4.84 5.254-.263zM-21.338 42.994l2.642-4.84-5.167.057zM-5.552 24.147l-2.582 4.606 5.382-.057zM-8.134 28.753l2.582-4.606-5.474.093zM-8.134 28.753l-5.388.044 2.798 4.586z"/><path d="M-13.522 28.797l5.388-.044-2.892-4.513zM-21.263 33.407h5.187l-2.713-4.755zM-16.076 33.407l-2.62 4.747 5.295-.159z"/><path d="M-10.724 33.383l-5.352.024 2.675 4.588zM-18.696 38.154l2.62-4.747h-5.187zM-16.076 33.407l2.554-4.61-5.267-.145z"/><path d="M-13.522 28.797l-2.554 4.61 5.352-.024zM-13.522 28.797l-2.772-4.763-2.495 4.618zM-16.294 24.034l2.772 4.763 2.496-4.557zM26.381 33.122l2.635-4.842-5.153.046zM26.443 23.504l2.573 4.776 2.522-4.916z"/><path d="M29.016 28.28l-2.573-4.776-2.58 4.822z"/><path d="M31.427 33.117l-2.411-4.837-2.635 4.842zM-8.598 19.789l2.369-4.275-5.208-.645zM15.702 4.753L19.674.071 14.591 0zM10.275 5.326L4.997 2.045l-.069 4.657zM10.275 5.326L4.928 6.702l3.458 3.76zM13.481 9.698l-3.206-4.372-1.889 5.136z"/><path d="M10.275 5.326L9.809.648 4.997 2.045zM16.084 23.806l-2.564-4.541-2.757 4.748z"/><path d="M10.763 24.013l2.757-4.748-5.361.319zM18.796 18.997l-5.276.268 2.564 4.541z"/><path d="M16.133 14.379l-2.613 4.886 5.276-.268zM16.133 14.379l5.302-.09-2.785-4.705z"/><path d="M21.435 14.289l2.573-4.495-5.358-.21zM21.435 14.289l-5.302.09 2.663 4.618z"/><path d="M24.174 18.676l-2.739-4.387-2.639 4.708zM34.838 18.565l-2.748-4.356-2.731 4.521zM37.929 14.225l-5.839-.016 2.748 4.356zM44.352 22.114l4.096 1.102-2.351-5.6zM41.521 33.117l-2.392-4.433-2.885 4.444zM-26.236 60.936l-3.679-3.251-.53 5.937zM-34.721 56.35l4.806 1.335-2.175-5.356zM-29.915 57.685l-4.806-1.335-.252 4.776z"/><path d="M-24.008 56.744l-5.907.941 3.679 3.251zM-27.004 52.737l-2.911 4.948 5.907-.941z"/><path d="M-29.915 57.685l2.911-4.948-5.086-.408zM-21.435 52.249l2.785 4.705 2.517-4.795z"/><path d="M-18.65 56.954l-2.785-4.705-2.573 4.495zM-18.796 47.541l-2.639 4.708 5.302-.09z"/><path d="M-21.435 52.249l2.639-4.708-5.378.321zM-27.004 52.737l5.569-.488-2.739-4.387zM-21.435 52.249l-5.569.488 2.996 4.007zM-14.591 66.538l4.782-.649-.466-4.677zM-15.702 61.785l-5.275-.233 1.303 4.915zM-15.702 61.785l-2.948-4.831-2.327 4.598z"/><path d="M-14.591 66.538l4.316-5.326-5.427.573zM-15.702 61.785l2.221-4.946-5.169.115zM-13.481 56.839l-2.221 4.946 5.427-.573zM16.076 33.131l2.713 4.755 2.474-4.756zM18.789 37.886l2.732 4.836 2.426-4.795z"/><path d="M21.263 33.13l-2.474 4.756 5.158.041zM18.789 37.886l-2.713-4.755-2.554 4.61zM18.789 37.886l-2.495 4.618 5.227.218z"/><path d="M16.294 42.504l2.495-4.618-5.267-.145zM8.134 37.785l-2.768-4.579-2.614 4.636zM2.631 28.628l-5.383.068L0 33.269zM5.277 23.994l-2.646 4.634 5.372-.064z"/><path d="M2.631 28.628l2.735 4.578 2.637-4.642zM5.366 33.206l-2.735-4.578L0 33.269zM-2.491 47.075l-2.786-4.531-2.882 4.41zM14.178 56.752l2.412-4.77-5.153-.314zM9.201 56.176l4.977.576-2.741-5.084zM14.178 56.752l-2.894 4.592 5.177.41z"/><path d="M11.284 61.344l2.894-4.592-4.977-.576zM14.178 56.752l5.052.046-2.64-4.816zM19.23 56.798l-5.052-.046 2.283 5.002z"/><path d="M16.461 61.754l3.261 4.708 1.812-5zM25.165 65.501l-3.631-4.039-1.812 5z"/><path d="M16.461 61.754l-2.138 4.766 5.399-.058zM21.534 61.462l5.154-.622-2.208-4.271z"/><path d="M19.23 56.798l2.304 4.664 2.946-4.893z"/><path d="M21.534 61.462l-2.304-4.664-2.769 4.956zM40.769 42.039l-1.581-4.473-2.578 5.53zM44.481 44.111l.166-5.813-3.878 3.741zM44.481 44.111l4.072-1.128-3.906-4.685z"/><path d="M39.188 37.566l1.581 4.473 3.878-3.741zM40.769 42.039l-.135 5.702 3.847-3.63z"/><path d="M40.634 47.741l.135-5.702-4.159 1.057zM39.842 57.228l3.642-4.161-5.312-1.019z"/><path d="M46.263 48.605l-1.782-4.494-3.847 3.63z"/><path d="M43.484 53.067l-2.85-5.326-2.462 4.307z"/><path d="M46.263 48.605l-5.629-.864 2.85 5.326zM30.268 57.48l.449 6.017 4.531-2.553zM30.268 57.48l4.98 3.464-.223-4.811z"/><path d="M39.842 57.228l-4.817-1.095.223 4.811z"/><path d="M35.025 56.133l4.817 1.095-1.67-5.18z"/><path d="M32.379 52.093l2.646 4.04 3.147-4.085z"/><path d="M35.025 56.133l-2.646-4.04-2.111 5.387zM35.046 47.694l5.588.047-4.024-4.645z"/><path d="M31.675 42.887l3.371 4.807 1.564-4.598z"/><path d="M35.046 47.694l-3.371-4.807-2.07 4.653zM40.634 47.741l-5.588-.047 3.126 4.354zM32.379 52.093l2.667-4.399-5.441-.154z"/><path d="M35.046 47.694l-2.667 4.399 5.793-.045zM-21.534 5.076l-2.946 4.892 5.25-.228z"/><path d="M-21.534 5.076l-5.154.622 2.208 4.27zM-19.722.076l-1.812 5 5.073-.292z"/><path d="M-25.165 1.037l3.631 4.039 1.812-5z"/><path d="M-19.722.076l3.261 4.708 2.138-4.766zM-16.461 4.784l-5.073.292 2.304 4.664zM-24.48 9.968l2.641 4.543 2.609-4.771zM-27.341 14.058l5.502.453-2.641-4.543zM-16.59 14.555l-5.249-.044 2.732 4.716z"/><path d="M-21.839 14.511l5.249.044-2.64-4.815zM-24.448 18.951l2.609-4.44-5.502-.453zM-21.839 14.511l-2.609 4.44 5.341.276zM31.427 33.117l-2.337 4.841 5.092.181zM29.09 37.958l-2.709-4.836-2.434 4.805zM29.09 37.958l2.585 4.929 2.507-4.748z"/><path d="M29.09 37.958l2.337-4.841-5.046.005zM29.09 37.958l-2.482 4.792 5.067.137z"/><path d="M26.608 42.75l2.482-4.792-5.143-.031zM-27.004 52.737l-2.355-4.929-2.731 4.521zM-26.443 43.034l-2.916 4.774 5.185.054z"/><path d="M-29.359 47.808l-5.479.165 2.748 4.356zM-29.359 47.808l2.355 4.929 2.83-4.875zM-31.538 43.174l2.179 4.634 2.916-4.774z"/><path d="M-29.359 47.808l-2.179-4.634-3.3 4.799zM-44.481 22.427l3.712 2.072.135-5.702zM-44.588 38.615l3.067-5.195-4.361.009zM-36.244 33.41l-5.277.01 2.392 4.433zM-41.521 33.42l-3.067 5.195 5.459-.762z"/><path d="M-41.521 33.42l-3.126-5.18-1.235 5.189zM-5.366 33.332l2.735 4.578L0 33.269z"/><path d="M-2.752 28.696l-2.614 4.636L0 33.269zM-5.366 33.332l-2.768-4.579-2.59 4.63z"/><path d="M-8.134 28.753l2.768 4.579 2.614-4.636zM-16.59 14.555l2.724 4.879 2.429-4.565zM-8.598 19.789l-5.268-.355 2.84 4.806zM-13.866 19.434l5.268.355-2.839-4.92zM-13.866 19.434l-2.724-4.879-2.517 4.672z"/><path d="M-16.294 24.034l2.428-4.6-5.241-.207zM-13.866 19.434l-2.428 4.6 5.268.206zM-21.521 23.815l-2.426 4.796 5.158.041zM-21.521 23.815l-2.927-4.864-2.16 4.836z"/><path d="M-23.947 28.611l2.426-4.796-5.087-.028zM-24.448 18.951l2.927 4.864 2.414-4.588z"/><path d="M-16.294 24.034l-5.227-.219 2.732 4.837z"/><path d="M-21.521 23.815l5.227.219-2.813-4.807zM4.928 6.702l-1.86 4.663 5.318-.903z"/><path d="M-.747 8.725l3.815 2.64 1.86-4.663zM2.491 19.463l2.786 4.531 2.882-4.41zM-14.178 9.786l4.977.576-2.083-5.168z"/><path d="M-11.284 5.194l2.083 5.168 3.215-4.042zM-9.201 10.362l-4.977-.576 2.741 5.083z"/><path d="M-6.229 15.514l-2.972-5.152-2.236 4.507zM20.977 4.985l-5.275-.232 2.948 4.831zM14.591 0L9.809.648l.466 4.678z"/><path d="M15.702 4.753l-2.221 4.945 5.169-.114zM15.702 4.753l5.275.232L19.674.071zM14.591 0l-4.316 5.326 5.427-.573z"/><path d="M15.702 4.753l-5.427.573 3.206 4.372zM10.933 14.79l2.548-5.092-5.095.764z"/><path d="M10.933 14.79l5.2-.411-2.652-4.681zM10.933 14.79l2.587 4.475 2.613-4.886zM13.52 19.265l-2.587-4.475-2.774 4.794zM27.004 13.801l-2.83 4.875 5.185.054zM21.435 14.289l5.569-.488-2.996-4.007z"/><path d="M24.008 9.794l2.996 4.007 2.911-4.948zM27.004 13.801l-5.569.488 2.739 4.387zM32.09 14.209l-5.086-.408 2.355 4.929z"/><path d="M27.004 13.801l5.086.408-2.175-5.356zM34.973 5.412l-4.528-2.496-.53 5.937z"/><path d="M34.973 5.412l-5.058 3.441 4.806 1.335z"/><path d="M34.721 10.188l4.864-1.124-4.612-3.652zM39.585 9.064l-4.864 1.124 3.208 4.037zM34.721 10.188l-2.631 4.021 5.839.016z"/><path d="M32.09 14.209l2.631-4.021-4.806-1.335zM43.267 13.18l-3.682-4.116-1.656 5.161zM43.267 13.18l-5.338 1.045 2.533 4.281zM40.462 18.506l3.89 3.608 1.745-4.498z"/><path d="M40.462 18.506l5.635-.89-2.83-4.436zM48.448 23.216l-3.86 4.706 5.018.237zM45.882 33.109l-1.294-5.187-3.067 5.195z"/><path d="M44.588 27.922l1.294 5.187 3.724-4.95zM44.588 27.922l-5.459.762 2.392 4.433zM34.122 28.103l-2.695 5.014 4.817.011zM34.122 28.103l2.373-4.953-4.957.214z"/><path d="M29.016 28.28l5.106-.177-2.584-4.739zM34.122 28.103l-5.106.177 2.411 4.837zM39.129 28.684l-5.007-.581 2.122 5.025z"/><path d="M34.122 28.103l5.007.581-2.634-5.534zM16.076 33.131l-5.352.024 2.798 4.586zM8.003 28.564l2.721 4.591 2.677-4.613z"/><path d="M10.724 33.155l5.352-.024-2.675-4.589zM5.366 33.206l5.358-.051-2.721-4.591z"/><path d="M8.134 37.785l2.59-4.63-5.358.051zM10.724 33.155l-2.59 4.63 5.388-.044zM11.026 42.298l5.268.206-2.772-4.763z"/><path d="M16.294 42.504l-5.268-.206 2.84 4.806zM11.026 42.298l-2.428 4.451 5.268.355zM8.134 37.785l2.892 4.513 2.496-4.557zM2.962 46.965L.13 42.461l-2.621 4.614zM-2.631 37.91L.13 42.461l2.622-4.619z"/><path d="M-5.277 42.544l5.407-.083-2.761-4.551zM.13 42.461l-5.407.083 2.786 4.531zM-16.084 42.731l5.321-.206-2.638-4.53zM-10.763 42.525l-2.757 4.748 5.361-.319z"/><path d="M-13.52 47.273l2.757-4.748-5.321.206zM-5.277 42.544l-5.486-.019 2.604 4.429zM-44.647 28.24l-3.906-4.686-1.105 4.947zM-44.647 28.24l3.878-3.741-3.712-2.072z"/><path d="M-44.647 28.24l.166-5.813-4.072 1.127z"/><path d="M-48.553 23.554l4.072-1.127-1.782-4.494zM-36.61 23.442l4.935.209-3.371-4.807z"/><path d="M-36.61 23.442l1.564-4.598-5.588-.047zM-31.675 23.651l-4.935-.209 2.428 4.957z"/><path d="M-40.769 24.499l4.159-1.057-4.024-4.645zM2.631 28.628L-.13 24.077l-2.622 4.619z"/><path d="M-.13 24.077l-5.422.07 2.8 4.549zM-.13 24.077l2.761 4.551 2.646-4.634z"/><path d="M2.491 19.463L-.13 24.077l5.407-.083zM40.66 24.219l3.692-2.105-3.89-3.608z"/><path d="M36.495 23.15l4.165 1.069-.198-5.713zM44.588 27.922l-.236-5.808-3.692 2.105zM39.129 28.684l1.531-4.465-4.165-1.069z"/><path d="M44.588 27.922l-3.928-3.703-1.531 4.465zM44.588 27.922l3.86-4.706-4.096-1.102zM11.026 42.298l-5.474.093 3.046 4.358zM5.552 42.391l2.582-4.606-5.382.057z"/><path d="M8.598 46.749l-3.046-4.358-2.59 4.574zM5.552 42.391l5.474-.093-2.892-4.513zM5.552 42.391l-5.422.07 2.832 4.504z"/><path d="M.13 42.461l5.422-.07-2.8-4.549zM-8.003 37.973l2.726 4.571 2.646-4.634zM-8.003 37.973l2.637-4.641-5.358.051z"/><path d="M-8.003 37.973l-2.721-4.59-2.677 4.612zM-5.366 33.332l-2.637 4.641 5.372-.063zM-8.003 37.973l-2.76 4.552 5.486.019z"/><path d="M-10.763 42.525l2.76-4.552-5.398.022zM-39.188 28.972l-1.581-4.473-3.878 3.741zM-39.188 28.972l-2.333 4.448 5.277-.01z"/><path d="M-34.182 28.399l-5.006.573 2.944 4.438zM-41.521 33.42l2.333-4.448-5.459-.732zM-39.188 28.972l2.578-5.53-4.159 1.057z"/><path d="M-36.61 23.442l-2.578 5.53 5.006-.573zM-.407 14.971l-.34-6.246-3.49 2.689z"/><path d="M-4.237 11.414l3.49-2.689-5.239-2.405zM-9.201 10.362l4.964 1.052-1.749-5.094zM-4.237 11.414l-4.964-1.052 2.972 5.152zM-.407 14.971l3.475-3.606-3.815-2.64zM-.407 14.971l-3.83-3.557-1.992 4.1zM5.546 15.347l-3.055 4.116 5.668.121z"/><path d="M3.068 11.365l2.478 3.982 2.84-4.885z"/><path d="M5.546 15.347l5.387-.557-2.547-4.328zM10.933 14.79l-5.387.557 2.613 4.237zM5.546 15.347l-5.953-.376 2.898 4.492z"/><path d="M-.407 14.971l5.953.376-2.478-3.982zM-2.962 19.572l2.555-4.601-5.822.543zM-2.962 19.572l-5.636.217 3.046 4.358z"/><path d="M-2.962 19.572l-3.267-4.058-2.369 4.275zM-.407 14.971l-2.555 4.601 5.453-.109zM-2.962 19.572l2.832 4.505 2.621-4.614zM-.13 24.077l-2.832-4.505-2.59 4.575z"/></svg>