<svg xmlns="http://www.w3.org/2000/svg" viewBox="-150 0 300 199.509"><style>path{fill:none;stroke:#000;stroke-width:1;stroke-linejoin:bevel}</style><path d="M-148.895 114.578l11.243-14.824H-150zM-137.652 99.754l-11.243-14.824L-150 99.754zM63.733 15.021L75.041 2.94 58.847.146zM-14.277 193.156L0 186.357l-16.26-6.529zM16.26 179.828L0 186.357l14.277 6.799zM-14.277 6.353l-17.999 9.246 16.016 4.081zM-133.249 132.778l11.091-6.28-11.705-11.169zM-133.249 132.778l-12.248-3.353 6.974 16.845zM-104.829 143.475l-9.305 13.052 17.44.086zM-105.252 16.404l-13.838 11.055 14.502 3.333zM56.293 85.496l15.477-.152-7.439-14.375z"/><path d="M71.77 85.344l-15.477.152 7.56 14.258z"/><path d="M56.293 85.496L48.62 71.709l-8.166 14.264z"/><path d="M48.62 71.709l7.673 13.787 8.038-14.527zM48.62 71.709l-15.873.664 7.707 13.6zM-79.344 182.658l-12.288 8.018 16.591 5.892zM-11.028 165.155l-15.389 3.174 10.157 11.499zM-32.276 183.91l17.999 9.246-1.983-13.328z"/><path d="M-26.417 168.329l-5.859 15.581 16.016-4.082zM72.954 143.138l-8.038 13.235 16.596 1.423zM64.916 156.373l8.038-13.235-16.077-.894zM145.497 129.425l-12.248 3.353 5.274 13.492zM17.749 153.144l8.668 15.185 7.166-13.271zM-28.214 2.156l-4.062 13.443 17.999-9.246zM-90.236 26.781l-15.016-10.377.664 14.388zM-96.694 42.896l-8.135 13.138 16.37.482zM-90.236 172.728l-15.016 10.376 13.62 7.572zM-114.134 156.527l9.546 12.189 7.894-12.103zM-119.09 172.05l14.502-3.334-9.546-12.189z"/><path d="M-104.588 168.716l-14.502 3.334 13.838 11.054zM-130.096 159.626l11.006 12.424 4.956-15.523zM-121.638 143.635l-16.885 2.635 8.427 13.356zM88.459 142.993l-15.505.145 8.558 14.658zM-79.194 99.754l-8.011 14.524 15.435-.113z"/><path d="M-63.853 99.754h-15.341l7.424 14.411zM-108.759 99.754l-8.739 13.332 15.009 1.735zM-145.497 129.425l11.634-14.096-15.032-.751zM-133.863 115.329l-3.789-15.575-11.243 14.824z"/><path d="M-133.249 132.778l-.614-17.449-11.634 14.096zM-117.498 113.086l-16.365 2.243 11.705 11.169zM-109.678 129.694l-7.82-16.608-4.66 13.412z"/><path d="M-117.498 113.086l7.82 16.608 7.189-14.873zM-121.638 55.874l-8.458-15.991-8.427 13.356zM-121.638 55.874l-16.885-2.635 5.274 13.492zM79.194 99.754H63.853l7.917 14.411zM79.194 99.754l-7.424-14.41-7.917 14.41zM88.459 56.516l-8.846 14.355 15.233-.417zM71.77 85.344l7.843-14.473-15.282.098zM0 13.152l-14.277-6.799-1.983 13.327zM14.277 6.353L0 13.152l16.26 6.528zM32.747 72.373l-8.493 13.58 16.2.02zM63.733 15.021l15.611 1.83L75.041 2.94zM56.877 57.264L48.62 71.709l15.711-.74zM91.632 8.833l-12.288 8.018 10.892 9.93z"/><path d="M79.344 16.851l12.288-8.018L75.041 2.94zM148.895 114.578l-15.032.751 11.634 14.096zM104.829 56.034l-16.37.482 6.387 13.938zM109.678 69.815l-4.849-13.781-9.983 14.42z"/><path d="M104.829 56.034l4.849 13.781 11.96-13.941zM32.276 183.91l10.719 15.599 5.239-14.271zM-72.713 169.943l-6.631 12.715 15.611 1.83zM-48.234 185.238l-10.613 14.124 15.852.147z"/><path d="M-75.041 196.568l11.308-12.08-15.611-1.83zM-75.041 196.568l16.194 2.794-4.886-14.874zM0 186.357v-13.272l-16.26 6.743z"/><path d="M0 173.085l-11.028-7.93-5.232 14.673zM16.26 179.828L0 173.085v13.272zM-33.583 155.058l15.834-1.914-7.453-12.725z"/><path d="M-17.749 153.144l9.531-12.239-16.984-.486z"/><path d="M-8.218 140.905l-9.531 12.239L0 154.449z"/><path d="M-17.749 153.144l-15.834 1.914 7.166 13.271z"/><path d="M-11.028 165.155l-6.721-12.011-8.668 15.185zM-17.749 153.144l6.721 12.011L0 154.449zM-56.806 170.572l-15.907-.629 8.98 14.545zM-32.276 183.91l4.062 13.442 13.937-4.196zM72.954 143.138l-8.623-14.599-7.454 13.705zM56.293 85.496l-7.991 14.258h15.551z"/><path d="M48.302 99.754l7.991-14.258-15.839.477zM49.081 156.186l15.835.187-8.039-14.129zM41.119 141.503l7.962 14.683 7.796-13.942zM49.081 156.186l-7.962-14.683-7.536 13.555zM72.713 169.943l17.523 2.785-8.724-14.932zM64.916 156.373l7.797 13.57 8.799-12.147zM17.749 153.144l-9.531-12.239L0 154.449z"/><path d="M8.218 140.905H-8.218L0 154.449zM28.214 197.352l4.062-13.442-17.999 9.246z"/><path d="M32.276 183.91l-16.016-4.082-1.983 13.328zM32.276 183.91l-4.062 13.442 14.781 2.157z"/><path d="M32.276 183.91l-5.859-15.581-10.157 11.499zM-16.283 72.222l-8.919-13.132-7.545 13.283zM-75.041 2.94l-4.303 13.911 15.611-1.83zM-91.632 8.833l12.288 8.018 4.303-13.911zM-81.512 41.713l-15.182 1.183 8.235 13.62zM102.489 114.821l-7.643 14.234 14.832.639zM-87.205 114.278l7.592 14.359 7.843-14.472zM-71.77 85.344l-7.843-14.473-7.592 14.359zM-79.194 99.754l7.424-14.41-15.435-.114zM-63.853 99.754l-7.917-14.41-7.424 14.41zM-71.77 85.344l7.917 14.41 7.56-14.258zM-121.638 143.635l-8.458 15.991 15.962-3.099zM-133.249 132.778l11.611 10.857-.52-17.137zM-104.829 143.475l-16.809.16 7.504 12.892zM-121.638 143.635l-11.611-10.857-5.274 13.492z"/><path d="M-121.638 143.635l11.96-13.941-12.48-3.196zM-109.678 129.694l-11.96 13.941 16.809-.16zM-114.134 42.982l17.44-.086-7.894-12.104z"/><path d="M-119.09 27.459l4.956 15.523 9.546-12.19zM-104.829 56.034l-9.305-13.052-7.504 12.892z"/><path d="M-96.694 42.896l-17.44.086 9.305 13.052zM-130.096 39.883l15.962 3.099-4.956-15.523z"/><path d="M-114.134 42.982l-15.962-3.099 8.458 15.991zM-56.293 114.012l-7.56-14.258-7.917 14.411zM-56.293 114.012l7.673 13.788 8.166-14.265zM94.322 99.754l8.167 15.067 6.27-15.067zM0 26.424V13.152l-16.26 6.528zM0 13.152v13.272l16.26-6.744zM16.283 72.222l16.464.151-7.545-13.283zM16.283 72.222l7.971 13.731 8.493-13.58zM79.344 16.851l-6.631 12.714 17.523-2.784zM72.713 29.565l-8.98-14.544-6.927 13.916z"/><path d="M63.733 15.021l8.98 14.544 6.631-12.714zM41.453 29.123l7.628 14.2 7.725-14.386zM72.954 56.371l6.659 14.5 8.846-14.355z"/><path d="M79.613 70.871l-6.659-14.5-8.623 14.598z"/><path d="M72.954 56.371l-16.077.893 7.454 13.705zM102.489 114.821l15.009-1.735-8.739-13.332z"/><path d="M117.498 113.086l7.082-13.332h-15.821zM117.498 113.086l-15.009 1.735 7.189 14.873zM117.498 113.086l16.365 2.243-9.283-15.575zM114.134 42.982l-9.305 13.052 16.809-.16z"/><path d="M133.863 115.329l3.789-15.575H124.58zM137.652 99.754l11.243 14.824L150 99.754z"/><path d="M137.652 99.754l-3.789 15.575 15.032-.751zM148.895 84.93l-11.243 14.824H150zM0 173.085v-18.636l-11.028 10.706zM26.417 168.329l-15.389-3.174 5.232 14.673zM11.028 165.155l6.721-12.011L0 154.449z"/><path d="M11.028 165.155l15.389 3.174-8.668-15.185zM0 173.085l11.028-7.93L0 154.449zM11.028 165.155L0 173.085l16.26 6.743zM-33.583 155.058l-7.87 15.328 15.036-2.057zM-41.453 170.386l7.87-15.328-15.498 1.128z"/><path d="M-41.453 170.386l9.177 13.524 5.859-15.581z"/><path d="M-56.806 170.572l15.353-.186-7.628-14.2zM48.62 127.8l-7.501 13.703 15.758.741z"/><path d="M64.331 128.539L48.62 127.8l8.257 14.444zM8.089 113.545l8.041-13.791H0z"/><path d="M-8.089 113.545H8.089L0 99.754zM75.041 196.568l4.303-13.91-15.611 1.83zM91.632 190.676l-12.288-8.018-4.303 13.91z"/><path d="M79.344 182.658l12.288 8.018-1.396-17.948z"/><path d="M72.713 169.943l6.631 12.715 10.892-9.93zM49.081 156.186l7.725 14.386 8.11-14.199zM56.806 170.572l15.907-.629-7.797-13.57zM90.236 172.728l6.458-16.115-15.182 1.183z"/><path d="M96.694 156.613l-8.235-13.62-6.947 14.803zM41.119 141.503l-15.917-1.084 8.381 14.639zM25.202 140.419l-7.453 12.725 15.834 1.914z"/><path d="M25.202 140.419l-16.984.486 9.531 12.239zM-42.995 0l-5.239 14.27 15.958 1.329z"/><path d="M-42.995 0l10.719 15.599 4.062-13.443zM-48.234 14.27l6.781 14.853 9.177-13.524zM-41.453 29.123l-6.781-14.853-8.572 14.667zM-41.453 29.123l-7.628 14.2 15.498 1.128z"/><path d="M-49.081 43.323l7.628-14.2-15.353-.186zM-96.694 42.896l6.458-16.115-14.352 4.011zM-90.236 26.781l-1.396-17.948-13.62 7.571zM-79.344 16.851l-10.892 9.93 17.523 2.784z"/><path d="M-90.236 26.781l10.892-9.93-12.288-8.018zM-81.512 41.713l-8.724-14.932-6.458 16.115z"/><path d="M-90.236 26.781l8.724 14.932 8.799-12.148zM-79.613 70.871l6.659-14.5-15.505.145z"/><path d="M-72.954 56.371l-8.558-14.658-6.947 14.803zM88.459 142.993l-8.846-14.356-6.659 14.501zM64.331 128.539l15.282.098-7.843-14.472z"/><path d="M79.613 128.637l-15.282-.098 8.623 14.599zM94.846 129.055l-15.233-.418 8.846 14.356zM-94.846 129.055l7.641-14.777-15.284.543z"/><path d="M-109.678 129.694l14.832-.639-7.643-14.234zM-94.846 129.055l-14.832.639 4.849 13.781zM-94.846 129.055l15.233-.418-7.592-14.359zM-94.846 70.454l15.233.417-8.846-14.355z"/><path d="M-104.829 56.034l9.983 14.42 6.387-13.938zM-79.613 70.871l-15.233-.417 7.641 14.776z"/><path d="M-94.846 70.454l-7.643 14.234 15.284.542zM-94.322 99.754h15.128l-8.011-14.524zM-87.205 114.278l-7.117-14.524-8.167 15.067z"/><path d="M-94.322 99.754l7.117 14.524 8.011-14.524zM-94.322 99.754h-14.437l6.27 15.067zM-94.322 99.754l-8.167-15.066-6.27 15.066z"/><path d="M-102.489 84.688l8.167 15.066 7.117-14.524zM-133.863 84.18l-15.032.75 11.243 14.824zM-41.119 141.503l7.536 13.555 8.381-14.639z"/><path d="M-33.583 155.058l-7.536-13.555-7.962 14.683zM-56.877 142.244l15.758-.741-7.501-13.703z"/><path d="M-41.119 141.503l-15.758.741 7.796 13.942zM-64.331 128.539l7.454 13.705 8.257-14.444zM-79.613 128.637l15.282-.098-7.439-14.374zM-64.331 128.539l-15.282.098 6.659 14.501z"/><path d="M-56.877 142.244l-7.454-13.705-8.623 14.599zM-56.293 114.012l-8.038 14.527 15.711-.739zM-64.331 128.539l8.038-14.527-15.477.153zM-16.283 72.222l-7.971 13.731 16.165.011z"/><path d="M-24.254 85.953l7.971-13.731-16.464.151zM-24.254 85.953l-16.2.02 8.222 13.781z"/><path d="M-40.454 85.973l16.2-.02-8.493-13.58zM-63.853 99.754h15.551l-7.991-14.258zM-48.302 99.754l-7.991 14.258 15.839-.477z"/><path d="M-32.232 99.754h-16.07l7.848 13.781zM-56.293 114.012l7.991-14.258h-15.551zM-48.302 99.754l7.848-13.781-15.839-.477z"/><path d="M-40.454 85.973l-7.848 13.781h16.07zM-40.454 85.973l-8.166-14.264-7.673 13.787zM-48.62 71.709l8.166 14.264 7.707-13.6zM79.194 99.754l8.011-14.524-15.435.114zM79.613 70.871l7.592 14.359 7.641-14.776z"/><path d="M87.205 85.23l-7.592-14.359-7.843 14.473zM94.322 99.754L87.205 85.23l-8.011 14.524zM-25.202 59.09l7.453-12.726-15.834-1.913zM48.234 14.27L58.847.146 42.995 0zM32.276 15.599L14.277 6.353 16.26 19.68zM32.276 15.599L16.26 19.68l10.157 11.5zM41.453 29.123l-9.177-13.524-5.859 15.581z"/><path d="M32.276 15.599L28.214 2.156 14.277 6.353zM48.62 71.709l-7.501-13.703-8.372 14.367z"/><path d="M32.747 72.373l8.372-14.367-15.917 1.084zM56.877 57.264l-15.758.742 7.501 13.703zM49.081 43.323l-7.962 14.683 15.758-.742zM49.081 43.323l15.835-.187-8.11-14.199z"/><path d="M64.916 43.136l7.797-13.571-15.907-.628zM64.916 43.136l-15.835.187 7.796 13.941zM72.954 56.371l-8.038-13.235-8.039 14.128zM104.829 56.034l-8.135-13.138-8.235 13.62zM114.134 42.982l-17.44-.086 8.135 13.138zM133.249 66.731l12.248 3.353-6.974-16.845zM124.58 99.754l-7.082-13.331-8.739 13.331zM-79.344 182.658l-10.892-9.93-1.396 17.948z"/><path d="M-104.588 168.716l14.352 4.012-6.458-16.115zM-90.236 172.728l-14.352-4.012-.664 14.388zM-72.713 169.943l-17.523 2.785 10.892 9.93z"/><path d="M-81.512 157.796l-8.724 14.932 17.523-2.785z"/><path d="M-90.236 172.728l8.724-14.932-15.182-1.183zM-64.916 156.373l8.11 14.199 7.725-14.386z"/><path d="M-56.806 170.572l-8.11-14.199-7.797 13.57zM-56.877 142.244l-8.039 14.129 15.835-.187z"/><path d="M-64.916 156.373l8.039-14.129-16.077.894z"/><path d="M-81.512 157.796l16.596-1.423-8.038-13.235zM-64.916 156.373l-16.596 1.423 8.799 12.147zM-42.995 199.509l14.781-2.157-4.062-13.442zM-48.234 185.238l-15.499-.75 4.886 14.874zM-48.234 185.238l-8.572-14.666-6.927 13.916z"/><path d="M-42.995 199.509l10.719-15.599-15.958 1.328zM-48.234 185.238l6.781-14.852-15.353.186zM-41.453 170.386l-6.781 14.852 15.958-1.328zM48.302 99.754l7.991 14.258 7.56-14.258zM56.293 114.012l8.038 14.527 7.439-14.374z"/><path d="M63.853 99.754l-7.56 14.258 15.477.153zM56.293 114.012l-7.991-14.258-7.848 13.781zM56.293 114.012L48.62 127.8l15.711.739z"/><path d="M48.62 127.8l7.673-13.788-15.839-.477zM24.254 113.556L16.13 99.754l-8.041 13.791zM8.089 85.964H-8.089L0 99.754zM16.283 72.222L8.089 85.964l16.165-.011z"/><path d="M8.089 85.964l8.041 13.79 8.124-13.801zM16.13 99.754l-8.041-13.79L0 99.754zM-8.218 140.905l-8.065-13.619-8.919 13.133zM41.453 170.386l7.628-14.2-15.498-1.128z"/><path d="M26.417 168.329l15.036 2.057-7.87-15.328zM41.453 170.386l-9.177 13.524 15.958 1.328z"/><path d="M32.276 183.91l9.177-13.524-15.036-2.057zM41.453 170.386l15.353.186-7.725-14.386z"/><path d="M56.806 170.572l-15.353-.186 6.781 14.852zM48.234 185.238l10.613 14.124 4.886-14.874z"/><path d="M75.041 196.568l-11.308-12.08-4.886 14.874zM48.234 185.238l-5.239 14.271 15.852-.147zM63.733 184.488l15.611-1.83-6.631-12.715z"/><path d="M56.806 170.572l6.927 13.916 8.98-14.545z"/><path d="M63.733 184.488l-6.927-13.916-8.572 14.666zM122.158 126.498l-4.66-13.412-7.82 16.608zM133.249 132.778l.614-17.449-11.705 11.169z"/><path d="M133.249 132.778l12.248-3.353-11.634-14.096z"/><path d="M117.498 113.086l4.66 13.412 11.705-11.169zM122.158 126.498l-.52 17.137 11.611-10.857z"/><path d="M121.638 143.635l.52-17.137-12.48 3.196zM119.09 172.05l11.006-12.424-15.962-3.099zM138.523 146.27l-5.274-13.492-11.611 10.857z"/><path d="M130.096 159.626l-8.458-15.991-7.504 12.892z"/><path d="M138.523 146.27l-16.885-2.635 8.458 15.991zM90.236 172.728l1.396 17.948 13.62-7.572z"/><path d="M90.236 172.728l15.016 10.376-.664-14.388z"/><path d="M119.09 172.05l-14.502-3.334.664 14.388z"/><path d="M104.588 168.716l14.502 3.334-4.956-15.523z"/><path d="M96.694 156.613l7.894 12.103 9.546-12.189zM104.588 168.716l-7.894-12.103-6.458 16.115zM104.829 143.475l16.809.16-11.96-13.941z"/><path d="M94.846 129.055l9.983 14.42 4.849-13.781zM104.829 143.475l-9.983-14.42-6.387 13.938zM121.638 143.635l-16.809-.16 9.305 13.052z"/><path d="M96.694 156.613l8.135-13.138-16.37-.482z"/><path d="M104.829 143.475l-8.135 13.138 17.44-.086zM-63.733 15.021l-8.98 14.544 15.907-.628zM-63.733 15.021l-15.611 1.83 6.631 12.714zM-58.847.146l-4.886 14.875 15.499-.751z"/><path d="M-75.041 2.94l11.308 12.081L-58.847.146zM-58.847.146l10.613 14.124L-42.995 0z"/><path d="M-48.234 14.27l-15.499.751 6.927 13.916zM-72.713 29.565l7.797 13.571 8.11-14.199zM-81.512 41.713l16.596 1.423-7.797-13.571zM-49.081 43.323l-15.835-.187 8.039 14.128z"/><path d="M-64.916 43.136l15.835.187-7.725-14.386zM-72.954 56.371l8.038-13.235-16.596-1.423zM-64.916 43.136l-8.038 13.235 16.077.893zM94.322 99.754l-7.117 14.524 15.284.543zM87.205 114.278l-8.011-14.524-7.424 14.411zM87.205 114.278l7.641 14.777 7.643-14.234z"/><path d="M87.205 114.278l7.117-14.524H79.194zM87.205 114.278l-7.592 14.359 15.233.418z"/><path d="M79.613 128.637l7.592-14.359-15.435-.113zM-81.512 157.796l-6.947-14.803-8.235 13.62zM-79.613 128.637l-8.846 14.356 15.505.145z"/><path d="M-88.459 142.993l-16.37.482 8.135 13.138zM-88.459 142.993l6.947 14.803 8.558-14.658zM-94.846 129.055l6.387 13.938 8.846-14.356z"/><path d="M-88.459 142.993l-6.387-13.938-9.983 14.42zM-133.249 66.731l11.091 6.279.52-17.136zM-133.863 115.329l9.283-15.575h-13.072zM-108.759 99.754h-15.821l7.082 13.332z"/><path d="M-124.58 99.754l-9.283 15.575 16.365-2.243zM-124.58 99.754l-9.283-15.574-3.789 15.574zM-16.13 99.754l8.041 13.791L0 99.754zM-8.089 85.964l-8.041 13.79H0zM-16.13 99.754l-8.124-13.801-7.978 13.801z"/><path d="M-24.254 85.953l8.124 13.801 8.041-13.79zM-49.081 43.323l7.962 14.683 7.536-13.555zM-25.202 59.09l-15.917-1.084 8.372 14.367z"/><path d="M-41.119 58.006l15.917 1.084-8.381-14.639zM-41.119 58.006l-7.962-14.683-7.796 13.941z"/><path d="M-48.62 71.709l7.501-13.703-15.758-.742zM-41.119 58.006l-7.501 13.703 15.873.664zM-64.331 70.969l-7.439 14.375 15.477.152zM-64.331 70.969l-8.623-14.598-6.659 14.5z"/><path d="M-71.77 85.344l7.439-14.375-15.282-.098z"/><path d="M-72.954 56.371l8.623 14.598 7.454-13.705zM-48.62 71.709l-15.711-.74 8.038 14.527z"/><path d="M-64.331 70.969l15.711.74-8.257-14.445zM16.26 19.68l-5.232 14.674 15.389-3.174zM0 26.424l11.028 7.93L16.26 19.68zM8.218 58.603l8.065 13.619 8.919-13.132zM-41.453 29.123l15.036 2.057-5.859-15.581z"/><path d="M-32.276 15.599l5.859 15.581 10.157-11.5zM-26.417 31.18l-15.036-2.057 7.87 15.328zM-17.749 46.364l-8.668-15.184-7.166 13.271zM63.733 15.021l-15.499-.751 8.572 14.667zM42.995 0L28.214 2.156l4.062 13.443z"/><path d="M48.234 14.27l-6.781 14.853 15.353-.186zM48.234 14.27l15.499.751L58.847.146zM42.995 0L32.276 15.599l15.958-1.329z"/><path d="M48.234 14.27l-15.958 1.329 9.177 13.524zM33.583 44.451l7.87-15.328-15.036 2.057zM33.583 44.451l15.498-1.128-7.628-14.2zM33.583 44.451l7.536 13.555 7.962-14.683z"/><path d="M41.119 58.006l-7.536-13.555-8.381 14.639zM81.512 41.713l-8.558 14.658 15.505.145zM64.916 43.136l16.596-1.423-8.799-12.148z"/><path d="M72.713 29.565l8.799 12.148 8.724-14.932zM81.512 41.713l-16.596 1.423 8.038 13.235zM96.694 42.896l-15.182-1.183 6.947 14.803z"/><path d="M81.512 41.713l15.182 1.183-6.458-16.115zM105.252 16.404l-13.62-7.571-1.396 17.948zM105.252 16.404L90.236 26.781l14.352 4.011z"/><path d="M104.588 30.792l14.502-3.333-13.838-11.055zM119.09 27.459l-14.502 3.333 9.546 12.19zM104.588 30.792l-7.894 12.104 17.44.086z"/><path d="M96.694 42.896l7.894-12.104-14.352-4.011zM130.096 39.883L119.09 27.459l-4.956 15.523zM130.096 39.883l-15.962 3.099 7.504 12.892zM121.638 55.874l11.611 10.857 5.274-13.492z"/><path d="M121.638 55.874l16.885-2.635-8.427-13.356zM145.497 70.084L133.863 84.18l15.032.75zM137.652 99.754l-3.789-15.574-9.283 15.574z"/><path d="M133.863 84.18l3.789 15.574 11.243-14.824zM133.863 84.18l-16.365 2.243 7.082 13.331zM102.489 84.688l-8.167 15.066h14.437zM102.489 84.688l7.189-14.873-14.832.639zM87.205 85.23l15.284-.542-7.643-14.234z"/><path d="M102.489 84.688l-15.284.542 7.117 14.524zM117.498 86.423l-15.009-1.735 6.27 15.066z"/><path d="M102.489 84.688l15.009 1.735-7.82-16.608zM48.302 99.754h-16.07l8.222 13.781zM24.254 85.953l7.978 13.801 8.222-13.781z"/><path d="M32.232 99.754h16.07l-7.848-13.781zM16.13 99.754h16.102l-7.978-13.801z"/><path d="M24.254 113.556l7.978-13.802H16.13zM32.232 99.754l-7.978 13.802 16.2-.021z"/><path d="M32.747 127.136l15.873.664-8.166-14.265zM48.62 127.8l-15.873-.664 8.372 14.367z"/><path d="M32.747 127.136l-7.545 13.283 15.917 1.084zM24.254 113.556l8.493 13.58 7.707-13.601zM8.218 140.905L0 127.273l-8.218 13.632zM-8.089 113.545L0 127.273l8.089-13.728z"/><path d="M-16.283 127.286L0 127.273l-8.089-13.728zM0 127.273l-16.283.013 8.065 13.619zM-48.62 127.8l15.873-.664-7.707-13.601zM-32.747 127.136l-8.372 14.367 15.917-1.084z"/><path d="M-41.119 141.503l8.372-14.367-15.873.664zM-16.283 127.286l-16.464-.15 7.545 13.283zM-133.863 84.18l-11.634-14.096-3.398 14.846zM-133.863 84.18l11.705-11.17-11.091-6.279z"/><path d="M-133.863 84.18l.614-17.449-12.248 3.353zM-145.497 70.084l12.248-3.353-5.274-13.492zM-109.678 69.815l14.832.639-9.983-14.42z"/><path d="M-109.678 69.815l4.849-13.781-16.809-.16zM-94.846 70.454l-14.832-.639 7.189 14.873zM-122.158 73.01l12.48-3.195-11.96-13.941zM8.089 85.964L0 72.236l-8.089 13.728z"/><path d="M0 72.236l-16.283-.014 8.194 13.742zM0 72.236l8.089 13.728 8.194-13.742z"/><path d="M8.218 58.603L0 72.236l16.283-.014zM122.158 73.01l11.091-6.279-11.611-10.857z"/><path d="M109.678 69.815l12.48 3.195-.52-17.136zM133.863 84.18l-.614-17.449-11.091 6.279zM117.498 86.423l4.66-13.413-12.48-3.195z"/><path d="M133.863 84.18l-11.705-11.17-4.66 13.413zM133.863 84.18l11.634-14.096-12.248-3.353zM32.747 127.136l-16.464.15 8.919 13.133zM16.283 127.286l7.971-13.73-16.165-.011zM25.202 140.419l-8.919-13.133-8.065 13.619z"/><path d="M16.283 127.286l16.464-.15-8.493-13.58zM16.283 127.286L0 127.273l8.218 13.632z"/><path d="M0 127.273l16.283.013-8.194-13.741zM-24.254 113.556l7.971 13.73 8.194-13.741zM-24.254 113.556l8.124-13.802h-16.102z"/><path d="M-24.254 113.556l-7.978-13.802-8.222 13.781zM-16.13 99.754l-8.124 13.802 16.165-.011z"/><path d="M-24.254 113.556l-8.493 13.58 16.464.15z"/><path d="M-32.747 127.136l8.493-13.58-16.2-.021zM-117.498 86.423l-4.66-13.413-11.705 11.17zM-117.498 86.423l-7.082 13.331h15.821z"/><path d="M-102.489 84.688l-15.009 1.735 8.739 13.331zM-124.58 99.754l7.082-13.331-16.365-2.243zM-117.498 86.423l7.82-16.608-12.48 3.195z"/><path d="M-109.678 69.815l-7.82 16.608 15.009-1.735zM0 45.06V26.424l-11.028 7.93z"/><path d="M-11.028 34.354L0 26.424l-16.26-6.744zM-26.417 31.18l15.389 3.174-5.232-14.674z"/><path d="M-11.028 34.354l-15.389-3.174 8.668 15.184zM0 45.06l11.028-10.706L0 26.424zM0 45.06l-11.028-10.706-6.721 12.01zM17.749 46.364L8.218 58.603l16.984.487zM11.028 34.354l6.721 12.01 8.668-15.184z"/><path d="M17.749 46.364l15.834-1.913-7.166-13.271zM33.583 44.451l-15.834 1.913 7.453 12.726zM17.749 46.364L0 45.06l8.218 13.543z"/><path d="M0 45.06l17.749 1.304-6.721-12.01zM-8.218 58.603L0 45.06l-17.749 1.304zM-8.218 58.603l-16.984.487 8.919 13.132z"/><path d="M-8.218 58.603l-9.531-12.239-7.453 12.726zM0 45.06l-8.218 13.543H8.218zM-8.218 58.603L0 72.236l8.218-13.633zM0 72.236l-8.218-13.633-8.065 13.619z"/></svg>