<svg xmlns="http://www.w3.org/2000/svg" viewBox="-150 0 300 281.05"><style>path{fill:none;stroke:#000;stroke-width:1;stroke-linejoin:bevel}</style><path d="M134.999 214.172l11.704 9.345 2.418-10.93zM-135.421 192.512l-14.579 8.03 10.4 2.788zM-78.944 65.001l-1.334 11.01 14.362-3.829zM86.674 268.881l8.759-7.05-13.973-3.133zM-66.378 281.05l11.882-1.369-7.699-10.381zM-95.433 261.831l6.686-12.172-12.04-.169z"/><path d="M-74.284 269.599l7.906 11.451 4.183-11.75zM-69.855 215.892l12.762-.143-6.551-10.932zM40.905 261.296l1.593 15.107 7.456-8.327zM-14.039 29.386l7.196 11.26L0 31.056zM-6.722 105.763l-6.419 10.642L0 116.41z"/><path d="M6.722 105.763H-6.722L0 116.41zM-70.159 82.152l-10.119-6.141.338 12.583zM6.333 171.557l6.288-11.144L0 160.538zM18.93 171.573l-6.309-11.16-6.288 11.144z"/><path d="M12.621 160.413l-6.314-11.092L0 160.538z"/><path d="M6.307 149.321l6.314 11.092 6.359-11.08zM32.412 127.413l-12.945-.142 6.055 11.046z"/><path d="M19.467 127.271l12.945.142-6.182-11.004zM75.578 52.773l-7.768 8.669 11.134 3.559z"/><path d="M78.944 65.001L67.81 61.442l-1.894 10.74zM79.94 88.594l.338-12.583-10.119 6.141zM6.722 105.763l13.541.046-6.874-10.537zM64.578 32.285l-8.033 8.388 14.188 1.288zM135.929 246.164l-12.332-.28 4.305 10.203zM86.674 268.881l-8.668 11.795 11.093-1.958zM86.674 268.881l13.15 6.342-4.391-13.392z"/><path d="M99.824 275.223l-13.15-6.342 2.425 9.837zM-88.747 249.659l-5.724-11.553-6.316 11.384zM-74.284 269.599l-3.722 11.077 11.628.374zM-88.747 249.659l7.287 9.039 6.18-10.616z"/><path d="M-81.46 258.698l-7.287-9.039-6.686 12.172zM61.939 248.005l-6.007-9.974-7.845 11.417zM88.747 249.659l6.686 12.172 5.354-12.341z"/><path d="M95.433 261.831l-6.686-12.172-7.287 9.039zM-44.368 215.704l-12.725.045 6.713 11.002zM-50.767 182.859l-6.521 10.952 12.8-.139z"/><path d="M-57.288 193.811l6.521-10.952-12.832-.035zM-6.333 171.557H6.333L0 160.538z"/><path d="M-12.621 160.413l6.288 11.144L0 160.538z"/><path d="M0 182.628l-6.333-11.071-6.284 11.1z"/><path d="M-6.333 171.557L0 182.628l6.333-11.071zM-55.29 258.224l14.385 3.072-7.182-11.848zM-98.709 137.033l-8.964 8.545 13.43 1.74zM-130.402 148.131l12.319 1.874-3.467-10.63zM29.031 257.805l-5.959 8.465 9.413 5.756z"/><path d="M23.072 266.27l5.959-8.465-14.511 1.459zM54.496 279.681l-4.542-11.605-7.456 8.327zM-64.578 32.285l14.774-1.671-7.554-6.779z"/><path d="M-49.804 30.614l.948-14.295-8.502 7.516z"/><path d="M-48.856 16.319l-.948 14.295 10.534-3.555z"/><path d="M-39.27 27.059l6.986-9.007-7.564-7.712z"/><path d="M-39.27 27.059l-.578-16.719-9.008 5.979zM-67.81 61.442l-7.768-8.669-3.366 12.228zM6.605 84.518l6.432-10.825L0 73.687z"/><path d="M-6.605 84.518h13.21L0 73.687zM-67.108 93.397l-12.832-4.803 2.06 11.468zM-78.944 65.001l13.028 7.181-1.894-10.74z"/><path d="M-67.81 61.442l1.894 10.74 9.8-9.784zM-65.916 72.182l-4.243 9.97 11.92 1.556zM-70.159 82.152l4.243-9.97-14.362 3.829zM-12.621 160.413l-6.359-11.08-6.253 11.222zM32.016 39.258l-6.582 11.979 11.909.237z"/><path d="M25.434 51.237l6.582-11.979-12.536 1.215zM-118.083 150.005l5.863 9.56 4.547-13.987zM-76.36 204.747l6.505 11.145 6.211-11.075zM6.1 0H-6.1L0 10.869zM32.016 39.258l11.445 1.165-4.191-13.364zM43.461 40.423l-11.445-1.165 5.327 12.216zM43.461 40.423l6.27 11.025 6.814-10.775z"/><path d="M49.731 51.448l-6.27-11.025-6.118 11.051zM49.731 51.448l12.58-.574-5.766-10.201z"/><path d="M56.545 40.673l5.766 10.201 8.422-8.913zM75.578 52.773l-13.267-1.899 5.499 10.568z"/><path d="M62.311 50.874l13.267 1.899-4.845-10.812zM77.88 100.062l-14.68 3.596 11.256 6.794zM113.969 250.618l13.933 5.469-4.305-10.203z"/><path d="M113.969 250.618l5.676 13.031 8.257-7.562zM135.718 224.876l6.408 10.551 4.577-11.91zM78.006 280.676l-3.722-11.077-7.906 11.451zM74.284 269.599l12.39-.718-5.214-10.183z"/><path d="M74.284 269.599l3.722 11.077 8.668-11.795zM-106.819 238.779l-7.15 11.839 13.182-1.128zM-106.819 238.779l-5.725-13.265-4.898 10.734z"/><path d="M-113.969 250.618l7.15-11.839-10.623-2.531z"/><path d="M-112.544 225.514l5.725 13.265 5.797-11.785zM-106.819 238.779l12.348-.673-6.551-11.112zM-94.471 238.106l-12.348.673 6.032 10.711zM-82.187 238.063l-6.56 11.596 13.467-1.577z"/><path d="M-69.063 237.455l-13.124.608 6.907 10.019zM-82.187 238.063l-12.284.043 5.724 11.553zM-78.006 280.676l-8.668-11.795-2.425 9.837zM-86.674 268.881l-13.15 6.342 10.725 3.495z"/><path d="M-99.824 275.223l13.15-6.342-8.759-7.05zM-86.674 268.881l8.668 11.795 3.722-11.077zM-81.46 258.698l-5.214 10.183 12.39.718zM-86.674 268.881l5.214-10.183-13.973 3.133zM-68.439 258.506l-5.845 11.093 12.089-.299zM-55.29 258.224l-13.149.282 6.244 10.794zM-81.46 258.698l13.021-.192-6.841-10.424z"/><path d="M-68.439 258.506l-13.021.192 7.176 10.901zM-142.126 235.427l6.197 10.737 6.206-10.746zM-150 200.542l.879 12.045 9.521-9.257zM-149.121 212.587l14.122 1.585-4.601-10.842zM-124.294 224.372l-5.429 11.046 12.281.83z"/><path d="M-112.544 225.514l-11.75-1.142 6.852 11.876zM-95.433 261.831l-14.214 8.607 9.823 4.785z"/><path d="M-95.433 261.831l-11.458-1.808-2.756 10.415z"/><path d="M-106.891 260.023l11.458 1.808-5.354-12.341zM-113.969 250.618l7.078 9.405 6.104-10.533z"/><path d="M-119.645 263.649l12.754-3.626-7.078-9.405z"/><path d="M-106.891 260.023l-12.754 3.626 9.998 6.789zM-123.597 245.884l9.628 4.734-3.473-14.37zM-123.597 245.884l-12.332.28 8.027 9.923z"/><path d="M-129.723 235.418l6.126 10.466 6.155-9.636z"/><path d="M-135.929 246.164l12.332-.28-6.126-10.466zM-113.969 250.618l-13.933 5.469 8.257 7.562z"/><path d="M-113.969 250.618l-9.628-4.734-4.305 10.203zM88.947 159.876l-5.902-10.662-6.685 11.317zM50.767 182.859l6.24-10.82-12.725-.236zM55.29 258.224l6.649-10.219-13.852 1.443zM88.747 249.659l-13.467-1.577 6.18 10.616zM12.348 226.637l13.228-.936-6.821-10.208zM-31.845 215.204l13.09.289-6.487-10.933zM-62.972 226.853l5.879-11.104-12.762.143z"/><path d="M-57.093 215.749l-5.879 11.104 12.592-.102zM-55.932 238.031l-7.04-11.178-6.091 10.602z"/><path d="M-62.972 226.853l7.04 11.178 5.552-11.28zM-43.759 237.948l-12.173.083 7.845 11.417z"/><path d="M-55.932 238.031l12.173-.083-6.621-11.197zM-44.368 215.704l-6.495-10.97-6.23 11.015zM-57.093 215.749l6.23-11.015-12.781.083z"/><path d="M-57.288 193.811l6.425 10.923 6.375-11.062z"/><path d="M-50.863 204.734l-6.425-10.923-6.356 11.006zM-18.874 193.734l-12.773-.111 6.405 10.937zM-25.257 182.658l6.383 11.076 6.257-11.077z"/><path d="M-18.874 193.734l-6.383-11.076-6.39 10.965zM12.617 182.657l6.313-11.084-12.597-.016z"/><path d="M0 182.628l12.617.029-6.284-11.1zM-12.348 226.637l-8.536 9.613 10.382 2.805z"/><path d="M-10.502 239.055l-10.382-2.805-.215 12.045z"/><path d="M-21.099 248.295l.215-12.045-10.637 1.945zM-10.502 239.055l-10.597 9.24 14.147 2.785zM-98.709 137.033l6.023-13.306-10.349 3.895zM-121.55 139.375l3.467 10.63 10.41-4.427z"/><path d="M-121.55 139.375l13.877 6.203-5.069-12.685zM-112.742 132.893l14.033 4.14-4.326-9.411z"/><path d="M-98.709 137.033l-14.033-4.14 5.069 12.685zM-76.098 141.001l-6.947 8.213 13.669 1.478zM-73.211 130.578l-8.602-9.302-4.693 13.696zM-81.813 121.276l8.602 9.302 3.596-10.233zM-107.673 145.578l6.66 12.18 6.77-10.44zM-101.013 157.758l-11.207 1.807 5.52 10.893z"/><path d="M-112.22 159.565l11.207-1.807-6.66-12.18zM21.099 248.295l7.932 9.51 6.636-9.001zM21.099 248.295L6.952 251.08l7.568 8.184zM29.031 257.805l-7.932-9.51-6.579 10.969zM-70.733 41.961l14.188-1.288-8.033-8.388z"/><path d="M-56.545 40.673l6.741-10.059-14.774 1.671zM-26.117 28.869l-6.167-10.817-6.986 9.007zM-12.005 10.839L-6.1 0l-12.456 1.939zM-6.1 0l-5.905 10.839L0 10.869zM-6.364 62.673l-6.439-10.965-6.378 10.988zM13.037 73.693l-6.673-11.02L0 73.687zM19.181 62.696l-12.817-.023 6.673 11.02z"/><path d="M6.364 62.673H-6.364L0 73.687zM-34.082 105.877l-14.365.42 9.389 10.164zM-13.037 73.693l6.432 10.825L0 73.687z"/><path d="M-6.364 62.673l-6.673 11.02L0 73.687z"/><path d="M-13.037 73.693l6.673-11.02-12.817.023zM-13.037 73.693l-6.726 11.002 13.158-.177zM0 95.179l6.722 10.584 6.667-10.491z"/><path d="M6.722 105.763L0 95.179l-6.722 10.584zM0 95.179l6.605-10.661h-13.21zM6.605 84.518L0 95.179l13.389.093zM-70.159 82.152l3.051 11.245 8.869-9.689z"/><path d="M-67.108 93.397l-3.051-11.245-9.781 6.442zM-6.307 149.321l-6.314 11.092L0 160.538z"/><path d="M-6.307 149.321l-12.673.012 6.359 11.08z"/><path d="M-18.98 149.333l12.673-.012-6.461-11.09z"/><path d="M-12.768 138.231l6.461 11.09L0 138.21zM-6.307 149.321H6.307L0 138.21zM6.307 149.321H-6.307L0 160.538zM26.009 73.954l-6.828-11.258-6.144 10.997zM34.082 105.877l-13.819-.068 5.967 10.6zM62.311 50.874l-6.195 11.524 11.694-.956z"/><path d="M56.116 62.398l6.195-11.524-12.58.574zM57.007 172.039l-6.431-11.129-6.294 10.893zM-19.467 127.271l12.975-.03-6.649-10.836z"/><path d="M-13.141 116.405l6.649 10.836L0 116.41zM-6.492 127.241l-6.276 10.99L0 138.21z"/><path d="M-6.492 127.241l-12.975.03 6.699 10.96zM6.492 127.241H-6.492L0 138.21zM-6.492 127.241H6.492L0 116.41zM6.307 149.321l6.461-11.09L0 138.21zM12.768 138.231l6.212 11.102 6.542-11.016z"/><path d="M12.768 138.231l-6.461 11.09 12.673.012z"/><path d="M19.467 127.271l-6.699 10.96 12.754.086z"/><path d="M6.492 127.241l6.276 10.99 6.699-10.96z"/><path d="M12.768 138.231l-6.276-10.99L0 138.21zM20.263 105.809l-7.122 10.596 13.089.004zM13.141 116.405l-6.419-10.642L0 116.41zM13.141 116.405l6.326 10.866 6.763-10.862zM13.141 116.405l7.122-10.596-13.541-.046z"/><path d="M13.141 116.405l-6.649 10.836 12.975.03z"/><path d="M6.492 127.241l6.649-10.836L0 116.41zM-125.267 159.994l-5.135-11.863-7.138 9.611zM-130.402 148.131l5.135 11.863 7.184-9.989z"/><path d="M-125.267 159.994l13.047-.429-5.863-9.56zM-135.421 192.512l-13.81-2.873-.769 10.903zM-124.294 224.372l3.13-10.455-13.835.255zM-121.164 213.917l-3.13 10.455 11.75 1.142zM32.016 39.258l-5.899-10.389-6.637 11.604zM26.117 28.869l5.899 10.389 7.254-12.199zM14.039 29.386l12.078-.517-5.406-11.952z"/><path d="M26.117 28.869l-12.078.517 5.441 11.087zM14.039 29.386l-7.262-8.213L0 31.056zM6.777 21.173l7.262 8.213 6.672-12.469zM49.804 30.614l14.774 1.671-7.22-8.45zM49.804 30.614l-.948-14.295-9.586 10.74zM48.856 16.319l.948 14.295 7.554-6.779z"/><path d="M64.578 32.285l-14.774-1.671 6.741 10.059zM49.804 30.614l-6.343 9.809 13.084.25z"/><path d="M43.461 40.423l6.343-9.809-10.534-3.555zM67.108 93.397l12.832-4.803-9.781-6.442z"/><path d="M77.88 100.062l-10.772-6.665-3.908 10.261z"/><path d="M67.108 93.397l10.772 6.665 2.06-11.468zM45.122 128.531l14.027-.764-8.545-9.212z"/><path d="M59.149 127.767l-14.027.764 6.128 10.133zM60.295 113.764l2.905-10.106-14.753 2.639zM59.149 127.767l1.146-14.003-9.691 4.791zM60.295 113.764l9.32 6.581 4.841-9.893z"/><path d="M60.295 113.764l14.161-3.312-11.256-6.794zM106.891 260.023l7.078-9.405-13.182-1.128z"/><path d="M95.433 261.831l11.458-1.808-6.104-10.533zM95.433 261.831l4.391 13.392 9.823-4.785z"/><path d="M95.433 261.831l14.214 8.607-2.756-10.415z"/><path d="M106.891 260.023l12.754 3.626-5.676-13.031zM119.645 263.649l-12.754-3.626 2.756 10.415zM142.126 235.427l-12.403-.009 6.206 10.746z"/><path d="M135.929 246.164l-6.206-10.746-6.126 10.466z"/><path d="M129.723 235.418l12.403.009-6.408-10.551zM-82.634 215.727l6.274-10.98-12.699-.115zM-76.36 204.747l-6.274 10.98 12.779.165z"/><path d="M-95.458 215.693l12.824.034-6.425-11.095zM-61.939 248.005l6.007-9.974-13.131-.576z"/><path d="M-61.939 248.005l-7.124-10.55-6.217 10.627zM-61.939 248.005l6.649 10.219 7.203-8.776z"/><path d="M-55.932 238.031l-6.007 9.974 13.852 1.443zM-61.939 248.005l-6.5 10.501 13.149-.282zM-68.439 258.506l6.5-10.501-13.341.077zM-142.126 235.427l6.408-10.551-10.985-1.359zM-134.999 214.172l-11.704 9.345 10.985 1.359zM-135.718 224.876l-6.408 10.551 12.403-.009z"/><path d="M-134.999 214.172l-14.122-1.585 2.418 10.93zM-135.718 224.876l11.424-.504-10.705-10.2z"/><path d="M-124.294 224.372l-11.424.504 5.995 10.542zM112.22 159.565l-4.547-13.987-6.66 12.18zM94.243 147.318l-5.296 12.558 12.066-2.118z"/><path d="M107.673 145.578l-13.43 1.74 6.77 10.44zM94.243 147.318l-11.198 1.896 5.902 10.662zM135.421 192.512l-9.696-10.527-4.19 10.842zM113.969 250.618l-7.15-11.839-6.032 10.711zM31.647 193.623l-6.405 10.937 12.915-.092z"/><path d="M25.242 204.56l6.405-10.937-12.773.111zM40.905 261.296l-11.874-3.491 3.454 14.221zM35.667 248.804l5.238 12.492 7.182-11.848zM40.905 261.296l-8.42 10.73 10.013 4.377z"/><path d="M29.031 257.805l11.874 3.491-5.238-12.492zM55.29 258.224l-14.385 3.072 9.049 6.78z"/><path d="M40.905 261.296l14.385-3.072-7.203-8.776zM62.195 269.3l-7.699 10.381 11.882 1.369zM54.496 279.681l7.699-10.381-12.241-1.224zM74.284 269.599l-12.089-.299 4.183 11.75z"/><path d="M62.195 269.3l-6.905-11.076-5.336 9.852zM43.759 237.948l-8.092 10.856 12.42.644z"/><path d="M55.932 238.031l-12.173-.083 4.328 11.5zM43.759 237.948l6.621-11.197-12.598.054z"/><path d="M50.38 226.751l-6.621 11.197 12.173.083zM50.38 226.751l-6.012-11.047-6.586 11.101zM38.157 204.468l6.211 11.236 6.495-10.97zM-6.952 251.08L0 240.923l-10.502-1.868zM0 240.923l10.502-1.868L0 228.692zM10.502 239.055L0 240.923l6.952 10.157zM-37.782 226.805l5.937-11.601-12.523.5z"/><path d="M-37.782 226.805l-6.586-11.101-6.012 11.047zM-37.782 226.805l-5.977 11.143 12.238.247z"/><path d="M-43.759 237.948l5.977-11.143-12.598-.054zM-38.157 204.468l6.312 10.736 6.603-10.644z"/><path d="M-31.647 193.623l-6.51 10.845 12.915.092z"/><path d="M-38.157 204.468l6.51-10.845-12.841.049zM-31.845 215.204l-6.312-10.736-6.211 11.236zM-38.157 204.468l-12.706.266 6.495 10.97z"/><path d="M-50.863 204.734l12.706-.266-6.331-10.796zM-50.767 182.859l-6.24-10.82-6.592 10.785zM-63.245 161.297l6.325-11.264-12.456.659zM0 228.692l-12.348-2.055 1.846 12.418zM0 228.692l10.502 10.363 1.846-12.418zM0 240.923v-12.231l-10.502 10.363zM12.617 182.657l-6.345 11.094 12.602-.017zM6.272 193.751l6.345-11.094L0 182.628zM-18.755 215.493l6.345-10.601-12.832-.332z"/><path d="M-12.41 204.892l-6.464-11.158-6.368 10.826zM-49.954 268.076l-4.542 11.605 11.998-3.278zM-49.954 268.076l-5.336-9.852-6.905 11.076z"/><path d="M-54.496 279.681l4.542-11.605-12.241 1.224z"/><path d="M-49.954 268.076l9.049-6.78-14.385-3.072zM-42.498 276.403l1.593-15.107-9.049 6.78z"/><path d="M-42.498 276.403l10.013-4.377-8.42-10.73zM-21.099 248.295l6.579 10.969 7.568-8.184zM-35.667 248.804l-8.092-10.856-4.328 11.5z"/><path d="M-43.759 237.948l8.092 10.856 4.146-10.609zM-40.905 261.296l5.238-12.492-12.42.644zM-35.667 248.804l14.568-.509-10.422-10.1zM-92.686 123.727l6.18 11.245 4.693-13.696zM-86.506 134.972l-12.203 2.061 4.466 10.285zM-73.211 130.578l-13.295 4.394 10.408 6.029z"/><path d="M-86.506 134.972l-6.18-11.245-6.023 13.306zM-86.506 134.972l3.461 14.242 6.947-8.213z"/><path d="M-83.045 149.214l-3.461-14.242-7.737 12.346zM-76.36 160.531l13.115.766-6.131-10.605z"/><path d="M-83.045 149.214l6.685 11.317 6.984-9.839zM-48.447 106.297l-2.157 12.258 11.546-2.094zM-76.36 204.747l-6.446-11.188-6.253 11.073zM-88.904 182.109l-6.166-11.764-6.06 11.612z"/><path d="M-95.07 170.345l-11.63.113 5.57 11.499zM-95.07 170.345l6.166 11.764 6.344-10.769z"/><path d="M-95.07 170.345l-5.943-12.587-5.687 12.7zM21.099 248.295l-10.597-9.24-3.55 12.025zM20.884 236.25l4.692-10.549-13.228.936z"/><path d="M10.502 239.055l10.382-2.805-8.536-9.613zM21.099 248.295l-.215-12.045-10.382 2.805zM-62.311 50.874l-5.499 10.568 11.694.956z"/><path d="M-49.731 51.448l-12.58-.574 6.195 11.524zM-75.578 52.773l13.267-1.899-8.422-8.913zM-62.311 50.874l-13.267 1.899 7.768 8.669zM-62.311 50.874l5.766-10.201-14.188 1.288z"/><path d="M-56.545 40.673l-5.766 10.201 12.58.574zM-49.804 30.614l6.343 9.809 4.191-13.364z"/><path d="M-37.343 51.474l-6.118-11.051-6.27 11.025z"/><path d="M-56.545 40.673l13.084-.25-6.343-9.809zM-43.461 40.423l-13.084.25 6.814 10.775zM-20.711 16.917l-5.406 11.952 12.078.517zM-26.117 28.869l5.406-11.952-11.573 1.135zM-26.117 28.869l6.637 11.604 5.441-11.087zM-14.039 29.386l-5.441 11.087 12.637.173zM-19.48 40.473l6.677 11.235 5.96-11.062zM14.039 29.386l-7.196 11.26 12.637-.173zM-6.843 40.646H6.843L0 31.056z"/><path d="M6.843 40.646l7.196-11.26L0 31.056zM-43.888 62.758l-5.843-11.31-6.385 10.95z"/><path d="M-43.888 62.758l6.545-11.284-12.388-.026zM-43.888 62.758l12.329.091-5.784-11.375zM-20.263 105.809l7.122 10.596 6.419-10.642zM-45.72 84.665l5.249 11.131 7.567-10.855z"/><path d="M-34.082 105.877l-6.389-10.081-7.976 10.501zM-19.763 84.695l-6.246-10.741-6.895 10.987zM-31.559 62.849l5.55 11.105 6.828-11.258zM-13.037 73.693l-12.972.261 6.246 10.741z"/><path d="M-26.009 73.954l12.972-.261-6.144-10.997zM-77.88 100.062l3.424 10.39 11.256-6.794zM-18.98 149.333l-12.616.291 6.363 10.931zM67.108 93.397l-13.467 1.841 9.559 8.42zM58.239 83.708l8.869 9.689 3.051-11.245zM58.239 83.708l-4.598 11.53 13.467-1.841z"/><path d="M53.641 95.238l4.598-11.53-12.519.957zM32.904 84.941l6.06-11.035-12.955.048z"/><path d="M38.964 73.906l-6.06 11.035 12.816-.276zM32.412 127.413l6.646-10.952-12.828-.052z"/><path d="M39.058 116.461l-4.976-10.584-7.852 10.532zM45.122 128.531l-6.064-12.07-6.646 10.952zM39.058 116.461l6.064 12.07 5.482-9.976zM63.245 161.297l-12.669-.387 6.431 11.129zM-125.725 181.985l-9.696 10.527 13.886.315zM-127.421 203.331l-8-10.819-4.179 10.818z"/><path d="M-134.999 214.172l7.578-10.841-12.179-.001zM-135.421 192.512l8 10.819 5.886-10.504z"/><path d="M-121.164 213.917l-6.257-10.586-7.578 10.841zM-95.458 215.693l-12.591-.874 7.027 12.175z"/><path d="M-108.049 214.819l-4.495 10.695 11.522 1.48z"/><path d="M-108.049 214.819l-13.115-.902 8.62 11.597zM39.848 10.34l-.578 16.719 9.586-10.74zM39.848 10.34l-7.564 7.712 6.986 9.007z"/><path d="M29.063 5.206l3.221 12.846 7.564-7.712z"/><path d="M32.284 18.052L29.063 5.206l-8.352 11.711z"/><path d="M26.117 28.869l6.167-10.817-11.573-1.135z"/><path d="M32.284 18.052l-6.167 10.817 13.153-1.81zM12.005 10.839L6.1 0 0 10.869z"/><path d="M6.1 0l5.905 10.839 6.551-8.9zM18.556 1.939l2.155 14.978 8.352-11.711zM18.556 1.939l-6.551 8.9 8.706 6.078z"/><path d="M12.005 10.839L6.777 21.173l13.934-4.256zM6.777 21.173l5.228-10.334L0 10.869zM73.211 130.578l2.887 10.423 10.408-6.029zM73.211 130.578l8.602-9.302-12.198-.931zM59.149 127.767l10.466-7.422-9.32-6.581zM59.149 127.767l14.062 2.811-3.596-10.233zM-88.544 226.778l-6.914-11.085-5.564 11.301z"/><path d="M-94.471 238.106l5.927-11.328-12.478.216zM-82.187 238.063l-6.357-11.285-5.927 11.328zM-88.544 226.778l5.91-11.051-12.824-.034zM137.54 157.742l-7.138-9.611-5.135 11.863zM139.6 203.33l9.521 9.257.879-12.045zM135.421 192.512l4.179 10.818 10.4-2.788z"/><path d="M135.421 192.512l14.579 8.03-.769-10.903zM112.22 159.565l6.823 11.244 6.224-10.815z"/><path d="M149.231 189.639l-12.072-8.235-1.738 11.108z"/><path d="M137.159 181.404l12.072 8.235-2.336-11.035zM137.159 181.404l-11.434.581 9.696 10.527zM94.471 238.106l-5.724 11.553 12.04-.169z"/><path d="M106.819 238.779l-12.348-.673 6.316 11.384zM63.245 161.297l6.689 10.463 6.426-11.229z"/><path d="M69.934 171.76l-6.689-10.463-6.238 10.742zM124.294 224.372l5.429 11.046 5.995-10.542zM25.257 182.658l6.34-11.021-12.667-.064zM12.617 182.657l12.64.001-6.327-11.085z"/><path d="M25.257 182.658l-12.64-.001 6.257 11.077z"/><path d="M31.647 193.623l-6.39-10.965-6.383 11.076zM44.488 193.672l-6.331 10.796 12.706.266z"/><path d="M44.488 193.672l-12.841-.049 6.51 10.845zM75.28 248.082l-6.841 10.424 13.021.192zM55.29 258.224l13.149.282-6.5-10.501zM68.439 258.506l5.845 11.093 7.176-10.901z"/><path d="M68.439 258.506l6.841-10.424-13.341-.077zM62.195 269.3l6.244-10.794-13.149-.282z"/><path d="M68.439 258.506L62.195 269.3l12.089.299zM31.845 215.204l-6.603-10.644-6.487 10.933zM25.576 225.701l6.269-10.497-13.09.289zM31.845 215.204l-6.269 10.497 12.206 1.104zM25.242 204.56l6.603 10.644 6.312-10.736zM31.845 215.204l12.523.5-6.211-11.236z"/><path d="M44.368 215.704l-12.523-.5 5.937 11.601zM-25.576 225.701l13.228.936-6.407-11.144z"/><path d="M-31.845 215.204l6.269 10.497 6.821-10.208z"/><path d="M-20.884 236.25l-4.692-10.549-5.945 12.494z"/><path d="M-25.576 225.701l4.692 10.549 8.536-9.613z"/><path d="M-37.782 226.805l12.206-1.104-6.269-10.497z"/><path d="M-25.576 225.701l-12.206 1.104 6.261 11.39zM-63.555 139.115l-9.656-8.537-2.887 10.423zM-63.555 139.115l-12.543 1.886 6.722 9.691zM-63.555 139.115l6.635 10.918 5.67-11.369z"/><path d="M-56.92 150.033l-6.635-10.918-5.821 11.577zM-18.93 171.573l12.597-.016-6.288-11.144z"/><path d="M-18.93 171.573l6.309-11.16-12.612.142z"/><path d="M-6.333 171.557l-12.597.016 6.313 11.084zM-18.93 171.573l-6.327 11.085 12.64-.001zM-18.93 171.573l-12.667.064 6.34 11.021z"/><path d="M-31.597 171.637l12.667-.064-6.303-11.018zM-31.647 193.623l-6.339-10.916-6.502 10.965zM-37.986 182.707l-12.781.152 6.279 10.813z"/><path d="M-25.257 182.658l-12.729.049 6.339 10.916zM-31.597 171.637l-6.389 11.07 12.729-.049zM5.962 216.373l6.386 10.264 6.407-11.144z"/><path d="M5.962 216.373L0 228.692l12.348-2.055zM-6.272 193.751H6.272L0 182.628z"/><path d="M-6.272 193.751L0 182.628l-12.617.029z"/><path d="M-18.874 193.734l12.602.017-6.345-11.094zM6.272 193.751H-6.272L0 204.97z"/><path d="M-6.272 193.751l-6.138 11.141L0 204.97z"/><path d="M-12.41 204.892l6.138-11.141-12.602-.017zM-32.485 272.026l3.454-14.221-11.874 3.491zM-29.031 257.805l-3.454 14.221 9.413-5.756z"/><path d="M-14.52 259.264l-14.511-1.459 5.959 8.465z"/><path d="M-29.031 257.805l14.511 1.459-6.579-10.969zM-35.667 248.804l6.636 9.001 7.932-9.51z"/><path d="M-29.031 257.805l-6.636-9.001-5.238 12.492zM-57.007 172.039l-12.927-.279 6.335 11.064z"/><path d="M-69.934 171.76l12.927.279-6.238-10.742z"/><path d="M-76.36 160.531l6.426 11.229 6.689-10.463z"/><path d="M-69.934 171.76l-6.426-11.229-6.2 10.809zM-45.122 128.531l12.71-1.118-6.646-10.952z"/><path d="M-50.604 118.555l5.482 9.976 6.064-12.07zM-95.391 193.267l6.487-11.158-12.226-.152z"/><path d="M-108.213 192.985l12.822.282-5.739-11.31z"/><path d="M-95.391 193.267l12.585.292-6.098-11.45z"/><path d="M-82.806 193.559l-12.585-.292 6.332 11.365zM-57.288 193.811l-12.769-.038 6.413 11.044z"/><path d="M-70.057 193.773l12.769.038-6.311-10.987zM-70.057 193.773l-6.303 10.974 12.716.07z"/><path d="M-70.057 193.773l-12.749-.214 6.446 11.188zM-88.947 159.876l5.902-10.662-11.198-1.896zM-101.013 157.758l12.066 2.118-5.296-12.558zM-76.36 160.531l-12.587-.655 6.387 11.464z"/><path d="M-88.947 159.876l12.587.655-6.685-11.317z"/><path d="M-95.07 170.345l6.123-10.469-12.066-2.118z"/><path d="M-88.947 159.876l-6.123 10.469 12.51.995zM31.521 238.195l-10.422 10.1 14.568.509zM25.576 225.701l5.945 12.494 6.261-11.39z"/><path d="M43.759 237.948l-12.238.247 4.146 10.609zM31.521 238.195l12.238-.247-5.977-11.143zM31.521 238.195l-10.637-1.945.215 12.045z"/><path d="M20.884 236.25l10.637 1.945-5.945-12.494zM-12.005 10.839l5.228 10.334L0 10.869z"/><path d="M-6.777 21.173l-7.262 8.213L0 31.056zM-6.777 21.173H6.777L0 10.869z"/><path d="M6.777 21.173H-6.777L0 31.056zM-20.711 16.917l13.934 4.256-5.228-10.334z"/><path d="M-6.777 21.173l-13.934-4.256 6.672 12.469zM-18.556 1.939l-10.507 3.267 8.352 11.711z"/><path d="M-32.284 18.052l3.221-12.846-10.785 5.134zM-20.711 16.917l-8.352-11.711-3.221 12.846z"/><path d="M-18.556 1.939l-2.155 14.978 8.706-6.078zM-25.434 51.237l-6.125 11.612 12.378-.153zM-12.803 51.708l-12.631-.471 6.253 11.459zM-31.559 62.849l6.125-11.612-11.909.237zM-19.48 40.473l-5.954 10.764 12.631.471zM25.434 51.237l-12.631.471 6.378 10.988z"/><path d="M12.803 51.708l12.631-.471-5.954-10.764zM12.803 51.708L6.364 62.673l12.817.023z"/><path d="M6.843 40.646l5.96 11.062 6.677-11.235zM-45.72 84.665l-6.418-11.267-6.101 10.31zM-65.916 72.182l13.778 1.216-3.978-11zM-52.138 73.398l-13.778-1.216 7.677 11.526z"/><path d="M-52.138 73.398l8.25-10.64-12.228-.36zM-26.23 116.409l6.763 10.862 6.326-10.866zM-26.23 116.409l-7.852-10.532-4.976 10.584z"/><path d="M-32.412 127.413l6.182-11.004-12.828.052zM-26.23 116.409l-6.182 11.004 12.945-.142z"/><path d="M-26.23 116.409l5.967-10.6-13.819.068z"/><path d="M-20.263 105.809l-5.967 10.6 13.089-.004zM-19.763 84.695l6.374 10.577 6.784-10.754zM0 95.179l-13.389.093 6.667 10.491z"/><path d="M-13.389 95.272L0 95.179l-6.605-10.661zM-13.389 95.272l-6.874 10.537 13.541-.046zM-53.641 95.238l7.921-10.573-12.519-.957zM-67.108 93.397l13.467 1.841-4.598-11.53zM-40.471 95.796l-13.17-.558 5.194 11.059z"/><path d="M-53.641 95.238l13.17.558-5.249-11.131zM-74.456 110.452l14.161 3.312-2.905-10.106zM-59.149 127.767l-10.466-7.422-3.596 10.233zM-19.467 127.271l-6.055 11.046 12.754-.086z"/><path d="M-32.412 127.413l6.89 10.904 6.055-11.046zM-25.522 138.317l6.542 11.016 6.212-11.102z"/><path d="M-25.522 138.317l-6.074 11.307 12.616-.291zM-57.007 172.039l6.431-11.129-12.669.387z"/><path d="M-50.576 160.91l-6.344-10.877-6.325 11.264zM6.605 84.518l13.158.177-6.726-11.002z"/><path d="M19.763 84.695l-13.158-.177 6.784 10.754zM19.763 84.695l6.246-10.741-12.972-.261zM19.763 84.695l13.141.246-6.895-10.987zM40.471 95.796l13.17-.558-7.921-10.573z"/><path d="M32.904 84.941l7.567 10.855 5.249-11.131zM78.944 65.001l-13.028 7.181 14.362 3.829z"/><path d="M80.278 76.011l-14.362-3.829 4.243 9.97zM56.116 62.398l9.8 9.784 1.894-10.74zM65.916 72.182l-7.677 11.526 11.92-1.556zM31.559 62.849l-6.125-11.612-6.253 11.459z"/><path d="M25.434 51.237l6.125 11.612 5.784-11.375z"/><path d="M26.009 73.954l5.55-11.105-12.378-.153zM38.964 73.906l-7.405-11.057-5.55 11.105zM37.947 160.644l-6.35 10.993 12.685.166z"/><path d="M50.576 160.91l-12.629-.266 6.335 11.159z"/><path d="M44.401 149.651l-6.454 10.993 12.629.266zM45.122 128.531l-6.98 10.318 13.108-.185zM38.142 138.849l6.98-10.318-12.71-1.118z"/><path d="M38.142 138.849l-5.73-11.436-6.89 10.904zM38.142 138.849l6.259 10.802 6.849-10.987zM69.376 150.692l13.669-1.478-6.947-8.213zM83.045 149.214l-13.669 1.478 6.984 9.839z"/><path d="M69.376 150.692l-6.131 10.605 13.115-.766zM-106.7 170.458l-6.737 11.506 12.307-.007zM-113.437 181.964l5.224 11.021 7.083-11.028z"/><path d="M-108.213 192.985l-5.224-11.021-8.098 10.863z"/><path d="M-113.437 181.964l-12.288.021 4.19 10.842zM-137.159 181.404l-5.879-13.397-3.857 10.597z"/><path d="M-149.231 189.639l12.072-8.235-9.736-2.8zM-135.421 192.512l-1.738-11.108-12.072 8.235z"/><path d="M-125.725 181.985l-11.434-.581 1.738 11.108zM-114.398 203.579l6.185-10.594-13.322-.158z"/><path d="M-127.421 203.331l13.023.248-7.137-10.752zM-114.398 203.579l-13.023-.248 6.257 10.586z"/><path d="M-108.049 214.819l-6.349-11.24-6.766 10.338zM112.742 132.893l-14.033 4.14 8.964 8.545z"/><path d="M98.709 137.033l14.033-4.14-9.707-5.271zM98.709 137.033l-4.466 10.285 13.43-1.74z"/><path d="M92.686 123.727l6.023 13.306 4.326-9.411zM-75.953 226.864l-6.234 11.199 13.124-.608zM-75.953 226.864l12.981-.011-6.883-10.961z"/><path d="M-62.972 226.853l-12.981.011 6.89 10.591zM-82.634 215.727l6.681 11.137 6.098-10.972z"/><path d="M-88.544 226.778l12.591.086-6.681-11.137zM-75.953 226.864l-12.591-.086 6.357 11.285zM107.673 145.578l10.41 4.427 3.467-10.63z"/><path d="M107.673 145.578l13.877-6.203-8.808-6.482zM112.22 159.565l5.863-9.56-10.41-4.427zM118.083 150.005l-5.863 9.56 13.047.429z"/><path d="M130.402 148.131l-12.319 1.874 7.184 9.989z"/><path d="M118.083 150.005l12.319-1.874-8.852-8.756zM127.421 203.331l8-10.819-13.886.315z"/><path d="M127.421 203.331l12.179-.001-4.179-10.818zM106.7 170.458l5.52-10.893-11.207-1.807zM106.7 170.458l12.343.351-6.823-11.244zM143.038 168.007l-5.879 13.397 9.736-2.8zM62.972 226.853l-12.592-.102 5.552 11.28zM129.723 235.418l-12.281.83 6.155 9.636z"/><path d="M117.442 236.248l-3.473 14.37 9.628-4.734z"/><path d="M117.442 236.248l-10.623 2.531 7.15 11.839zM124.294 224.372l-6.852 11.876 12.281-.83zM25.257 182.658l12.729.049-6.389-11.07z"/><path d="M31.597 171.637l6.389 11.07 6.296-10.904z"/><path d="M37.986 182.707l12.781.152-6.485-11.056zM37.986 182.707l-12.729-.049 6.39 10.965zM44.488 193.672l-6.502-10.965-6.339 10.916z"/><path d="M37.986 182.707l6.502 10.965 6.279-10.813zM25.242 204.56l-12.832.332 6.345 10.601zM12.41 204.892l-6.138-11.141L0 204.97z"/><path d="M12.41 204.892l12.832-.332-6.368-10.826z"/><path d="M6.272 193.751l6.138 11.141 6.464-11.158zM5.962 216.373l6.448-11.481L0 204.97zM12.41 204.892l-6.448 11.481 12.793-.88zM-12.348 226.637l6.386-10.264-12.793-.88zM0 228.692l-5.962-12.319-6.386 10.264zM-12.41 204.892l6.448 11.481L0 204.97z"/><path d="M-5.962 216.373l-6.448-11.481-6.345 10.601zM5.962 216.373H-5.962L0 228.692zM-5.962 216.373H5.962L0 204.97zM-88.904 182.109l12.589.55-6.245-11.319z"/><path d="M-82.806 193.559l6.491-10.9-12.589-.55zM-69.934 171.76l-6.381 10.899 12.716.165z"/><path d="M-76.315 182.659l6.381-10.899-12.626-.42zM-70.057 193.773l-6.258-11.114-6.491 10.9z"/><path d="M-76.315 182.659l6.258 11.114 6.458-10.949zM-43.461 40.423l11.445-1.165-7.254-12.199z"/><path d="M-32.016 39.258l5.899-10.389-13.153-1.81zM-32.016 39.258l-11.445 1.165 6.118 11.051zM-32.016 39.258l12.536 1.215-6.637-11.604z"/><path d="M-32.016 39.258l6.582 11.979 5.954-10.764zM-25.434 51.237l-6.582-11.979-5.327 12.216zM-12.803 51.708L0 51.439l-6.843-10.793zM0 51.439l-12.803.269 6.439 10.965zM6.364 62.673L0 51.439l-6.364 11.234z"/><path d="M0 51.439l6.843-10.793H-6.843zM0 51.439l12.803.269-5.96-11.062zM12.803 51.708L0 51.439l6.364 11.234zM-43.888 62.758l4.924 11.148 7.405-11.057zM-38.964 73.906l-6.756 10.759 12.816.276z"/><path d="M-26.009 73.954l-12.955-.048 6.06 11.035z"/><path d="M-38.964 73.906l12.955.048-5.55-11.105zM-52.138 73.398l13.174.508-4.924-11.148zM-38.964 73.906l-13.174-.508 6.418 11.267zM-26.867 95.472l7.104-10.777-13.141.246zM-20.263 105.809l-6.604-10.337-7.215 10.405z"/><path d="M-40.471 95.796l13.604-.324-6.037-10.531z"/><path d="M-26.867 95.472l-13.604.324 6.389 10.081zM-13.389 95.272l-13.478.2 6.604 10.337zM-26.867 95.472l13.478-.2-6.374-10.577zM-77.88 100.062l14.68 3.596-3.908-10.261zM-60.295 113.764l11.848-7.467-14.753-2.639zM-53.641 95.238l-9.559 8.42 14.753 2.639z"/><path d="M-63.2 103.658l9.559-8.42-13.467-1.841zM-74.456 110.452l4.841 9.893 9.32-6.581zM-60.295 113.764l9.691 4.791 2.157-12.258zM-59.149 127.767l-4.406 11.348 12.305-.451z"/><path d="M-45.122 128.531l-14.027-.764 7.899 10.897zM-63.555 139.115l4.406-11.348-14.062 2.811zM-59.149 127.767l14.027.764-5.482-9.976zM-59.149 127.767l-1.146-14.003-9.32 6.581z"/><path d="M-60.295 113.764l1.146 14.003 8.545-9.212zM-38.142 138.849l-6.98-10.318-6.128 10.133z"/><path d="M-45.122 128.531l6.98 10.318 5.73-11.436zM-25.522 138.317l-12.62.532 6.546 10.775z"/><path d="M-38.142 138.849l12.62-.532-6.89-10.904zM-37.986 182.707l-6.296-10.904-6.485 11.056zM-44.282 171.803l-12.725.236 6.24 10.82z"/><path d="M-44.282 171.803l6.296 10.904 6.389-11.07zM-44.282 171.803l-6.294-10.893-6.431 11.129zM53.641 95.238l-5.194 11.059 14.753-2.639zM60.295 113.764l-11.848-7.467 2.157 12.258z"/><path d="M48.447 106.297l-9.389 10.164 11.546 2.094zM39.058 116.461l9.389-10.164-14.365-.42z"/><path d="M40.471 95.796l7.976 10.501 5.194-11.059z"/><path d="M48.447 106.297l-7.976-10.501-6.389 10.081zM26.867 95.472l-7.104-10.777-6.374 10.577zM20.263 105.809l6.604-10.337-13.478-.2zM34.082 105.877l-7.215-10.405-6.604 10.337z"/><path d="M19.763 84.695l7.104 10.777 6.037-10.531zM26.867 95.472l13.604.324-7.567-10.855zM40.471 95.796l-13.604-.324 7.215 10.405zM52.138 73.398l-13.174.508 6.756 10.759zM58.239 83.708l-6.101-10.31-6.418 11.267z"/><path d="M65.916 72.182l-13.778 1.216 6.101 10.31z"/><path d="M52.138 73.398l13.778-1.216-9.8-9.784zM12.621 160.413l12.612.142-6.253-11.222zM25.233 160.555l-12.612-.142 6.309 11.16zM31.597 171.637l-6.364-11.082-6.303 11.018zM37.947 160.644l-12.714-.089 6.364 11.082zM56.92 150.033l-12.519-.382 6.175 11.259z"/><path d="M44.401 149.651l12.519.382-5.67-11.369z"/><path d="M63.245 161.297l-6.325-11.264-6.344 10.877z"/><path d="M69.376 150.692l-12.456-.659 6.325 11.264zM-112.22 159.565l-6.823 11.244 12.343-.351z"/><path d="M-125.267 159.994l6.224 10.815 6.823-11.244zM-113.437 181.964l-5.606-11.155-6.682 11.176z"/><path d="M-119.043 170.809l5.606 11.155 6.737-11.506zM-101.614 204.159l-6.435 10.66 12.591.874zM-95.391 193.267l-6.223 10.892 12.555.473z"/><path d="M-101.614 204.159l6.156 11.534 6.399-11.061zM-101.614 204.159l6.223-10.892-12.822-.282zM-101.614 204.159l-12.784-.58 6.349 11.24z"/><path d="M-114.398 203.579l12.784.58-6.599-11.174zM73.211 130.578l13.295 4.394-4.693-13.696zM83.045 149.214l3.461-14.242-10.408 6.029zM94.243 147.318l-7.737-12.346-3.461 14.242z"/><path d="M86.506 134.972l6.18-11.245-10.873-2.451zM86.506 134.972l12.203 2.061-6.023-13.306z"/><path d="M98.709 137.033l-12.203-2.061 7.737 12.346zM139.6 203.33l-4.601 10.842 14.122-1.585z"/><path d="M134.999 214.172l.719 10.704 10.985-1.359z"/><path d="M134.999 214.172l-10.705 10.2 11.424.504z"/><path d="M124.294 224.372l10.705-10.2-13.835-.255zM127.421 203.331l7.578 10.841 4.601-10.842zM134.999 214.172l-7.578-10.841-6.257 10.586z"/><path d="M121.164 213.917l-6.766-10.338-6.349 11.24z"/><path d="M114.398 203.579l-12.784.58 6.435 10.66zM114.398 203.579l13.023-.248-5.886-10.504z"/><path d="M127.421 203.331l-13.023.248 6.766 10.338z"/><path d="M108.213 192.985l6.185 10.594 7.137-10.752z"/><path d="M114.398 203.579l-6.185-10.594-6.599 11.174zM119.043 170.809l12.533-.495-6.309-10.32z"/><path d="M131.576 170.314l5.964-12.572-12.273 2.252zM131.576 170.314l-12.533.495 6.682 11.176zM137.159 181.404l-5.583-11.09-5.851 11.671zM143.038 168.007l-11.462 2.307 5.583 11.09zM131.576 170.314l11.462-2.307-5.498-10.265zM101.022 226.994l-6.551 11.112 12.348.673z"/><path d="M101.022 226.994l-12.478-.216 5.927 11.328zM88.544 226.778l-6.357 11.285 12.284.043zM82.187 238.063l-6.907 10.019 13.467 1.577z"/><path d="M94.471 238.106l-12.284-.043 6.56 11.596zM44.368 215.704l12.725.045-6.23-11.015zM57.093 215.749l-12.725-.045 6.012 11.047zM57.093 215.749l5.879 11.104 6.883-10.961zM62.972 226.853l-5.879-11.104-6.713 11.002zM44.488 193.672l12.8.139-6.521-10.952z"/><path d="M57.288 193.811l-12.8-.139 6.375 11.062zM-50.576 160.91l6.175-11.259-12.519.382zM-56.92 150.033l12.519-.382-6.849-10.987zM-38.142 138.849l-6.259 10.802 12.805-.027z"/><path d="M-44.401 149.651l6.259-10.802-13.108-.185zM31.559 62.849l12.329-.091-6.545-11.284z"/><path d="M43.888 62.758l5.843-11.31-12.388.026zM43.888 62.758l12.228-.36-6.385-10.95zM43.888 62.758l-12.329.091 7.405 11.057z"/><path d="M52.138 73.398l-8.25-10.64-4.924 11.148z"/><path d="M43.888 62.758l8.25 10.64 3.978-11zM31.596 149.624l6.351 11.02 6.454-10.993zM31.596 149.624l6.546-10.775-12.62-.532zM18.98 149.333l12.616.291-6.074-11.307zM38.142 138.849l-6.546 10.775 12.805.027z"/><path d="M31.596 149.624l-6.363 10.931 12.714.089z"/><path d="M25.233 160.555l6.363-10.931-12.616-.291zM63.555 139.115l-4.406-11.348-7.899 10.897zM73.211 130.578l-9.656 8.537 12.543 1.886z"/><path d="M63.555 139.115l9.656-8.537-14.062-2.811zM63.555 139.115l5.821 11.577 6.722-9.691z"/><path d="M63.555 139.115l-6.635 10.918 12.456.659zM56.92 150.033l6.635-10.918-12.305-.451zM-143.038 168.007l11.462 2.307-5.964-12.572z"/><path d="M-137.159 181.404l5.583-11.09-11.462-2.307zM-131.576 170.314l6.309-10.32-12.273-2.252zM-131.576 170.314l-5.583 11.09 11.434.581z"/><path d="M-119.043 170.809l-12.533-.495 5.851 11.671zM-131.576 170.314l12.533.495-6.224-10.815zM119.043 170.809l-5.606 11.155 12.288.021zM125.725 181.985l-12.288-.021 8.098 10.863zM106.7 170.458l6.737 11.506 5.606-11.155z"/><path d="M113.437 181.964l-5.224 11.021 13.322-.158zM76.36 204.747l6.274 10.98 6.425-11.095z"/><path d="M82.634 215.727l-6.274-10.98-6.505 11.145zM112.544 225.514l8.62-11.597-13.115.902zM112.544 225.514l11.75-1.142-3.13-10.455z"/><path d="M117.442 236.248l-4.898-10.734-5.725 13.265z"/><path d="M112.544 225.514l4.898 10.734 6.852-11.876zM112.544 225.514l-11.522 1.48 5.797 11.785z"/><path d="M101.022 226.994l11.522-1.48-4.495-10.695zM101.614 204.159l-6.156 11.534 12.591-.874z"/><path d="M95.458 215.693l6.156-11.534-12.555.473z"/><path d="M82.634 215.727l12.824-.034-6.399-11.061zM95.458 215.693l-12.824.034 5.91 11.051zM101.022 226.994l-5.564-11.301-6.914 11.085z"/><path d="M95.458 215.693l5.564 11.301 7.027-12.175zM75.28 248.082l-6.217-10.627-7.124 10.55z"/><path d="M61.939 248.005l7.124-10.55-13.131.576z"/><path d="M69.063 237.455l-6.091-10.602-7.04 11.178zM82.187 238.063l-13.124-.608 6.217 10.627zM50.767 182.859l12.832-.035-6.592-10.785z"/><path d="M63.599 182.824l6.335-11.064-12.927.279zM63.599 182.824l-6.311 10.987 12.769-.038z"/><path d="M57.288 193.811l6.311-10.987-12.832.035zM-37.947 160.644l-6.335 11.159 12.685-.166z"/><path d="M-37.947 160.644l6.35 10.993 6.364-11.082z"/><path d="M-31.596 149.624l-6.351 11.02 12.714-.089zM-44.282 171.803l6.335-11.159-12.629.266z"/><path d="M-37.947 160.644l-6.454-10.993-6.175 11.259z"/><path d="M-44.401 149.651l6.454 10.993 6.351-11.02zM95.07 170.345l11.63.113-5.687-12.7z"/><path d="M88.947 159.876l6.123 10.469 5.943-12.587zM101.614 204.159l-6.223-10.892-6.332 11.365z"/><path d="M108.213 192.985l-12.822.282 6.223 10.892zM57.288 193.811l6.356 11.006 6.413-11.044z"/><path d="M57.093 215.749l6.551-10.932-12.781-.083z"/><path d="M63.644 204.817l-6.551 10.932 12.762.143zM63.644 204.817l-6.356-11.006-6.425 10.923zM76.36 204.747l-12.716.07 6.211 11.075z"/><path d="M63.644 204.817l12.716-.07-6.303-10.974zM62.972 226.853l12.981.011-6.098-10.972z"/><path d="M75.953 226.864l6.681-11.137-12.779.165zM82.634 215.727l-6.681 11.137 12.591-.086zM75.953 226.864l6.234 11.199 6.357-11.285z"/><path d="M75.953 226.864l-6.89 10.591 13.124.608z"/><path d="M69.063 237.455l6.89-10.591-12.981-.011zM76.315 182.659l-12.716.165 6.458 10.949z"/><path d="M63.599 182.824l12.716-.165-6.381-10.899zM95.07 170.345l6.06 11.612 5.57-11.499zM101.13 181.957l12.307.007-6.737-11.506zM113.437 181.964l-12.307-.007 7.083 11.028z"/><path d="M101.13 181.957l-6.06-11.612-6.166 11.764z"/><path d="M95.391 193.267l5.739-11.31-12.226.152z"/><path d="M101.13 181.957l-5.739 11.31 12.822-.282zM82.806 193.559l-6.446 11.188 12.699-.115zM82.806 193.559l12.585-.292-6.487-11.158z"/><path d="M76.36 204.747l6.446-11.188-12.749.214zM95.391 193.267l-12.585.292 6.253 11.073zM76.315 182.659l6.491 10.9 6.098-11.45z"/><path d="M82.806 193.559l-6.491-10.9-6.258 11.114zM95.07 170.345l-12.51.995 6.344 10.769z"/><path d="M82.56 171.34l6.387-11.464-12.587.655z"/><path d="M69.934 171.76l12.626-.42-6.2-10.809zM82.56 171.34l12.51-.995-6.123-10.469zM76.315 182.659l6.245-11.319-12.626.42zM82.56 171.34l-6.245 11.319 12.589-.55z"/></svg>