<svg xmlns="http://www.w3.org/2000/svg" width="500" height="250"><path d="M-1.172-32.035h506.953a8.297 8.297 0 0 1 8.297 8.297V278.64a8.297 8.297 0 0 1-8.297 8.296H-1.172a8.297 8.297 0 0 1-8.297-8.296V-23.74a8.297 8.297 0 0 1 8.297-8.296Zm0 0" style="stroke:none;fill-rule:nonzero;fill:#f2f2f2;fill-opacity:1"/><path d="M.043.05-.39.8h.866Zm0 0" style="fill-rule:nonzero;fill:#f18f01;fill-opacity:1;stroke-width:.05;stroke-linecap:butt;stroke-linejoin:miter;stroke:#4d4d4d;stroke-opacity:1;stroke-miterlimit:4" transform="matrix(83.33333 0 0 83.33333 142.638 59.375)"/><path d="m-.39.8-.433.75h.866Zm0 0" style="fill-rule:nonzero;fill:#048ba8;fill-opacity:1;stroke-width:.05;stroke-linecap:butt;stroke-linejoin:miter;stroke:#4d4d4d;stroke-opacity:1;stroke-miterlimit:4" transform="matrix(83.33333 0 0 83.33333 142.638 59.375)"/><path d="m-.39.8.433.75L.476.8Zm0 0" style="fill-rule:nonzero;fill:#2e4057;fill-opacity:1;stroke-width:.05;stroke-linecap:butt;stroke-linejoin:bevel;stroke:#4d4d4d;stroke-opacity:1;stroke-miterlimit:4" transform="matrix(83.33333 0 0 83.33333 142.638 59.375)"/><path d="m.476.8-.433.75H.91Zm0 0" style="fill-rule:nonzero;fill:#99c24d;fill-opacity:1;stroke-width:.05;stroke-linecap:butt;stroke-linejoin:miter;stroke:#4d4d4f;stroke-opacity:1;stroke-miterlimit:4" transform="matrix(83.33333 0 0 83.33333 142.638 59.375)"/><path d="M247.637 141.875v-4.5h-.164c-1.168 1.945-2.836 3.418-5 4.418-2.223.941-4.586 1.414-7.086 1.414-5.778 0-10.582-2.082-14.414-6.25-3.782-4.223-5.668-9.25-5.668-15.082 0-5.89 1.86-10.89 5.582-15 3.777-4.168 8.554-6.25 14.336-6.25 5.332 0 9.468 1.75 12.414 5.25V77.293h14.168v64.582Zm-2-26.332c-1.664-1.777-3.887-2.668-6.664-2.668-2.782 0-5 .89-6.668 2.668-1.614 1.723-2.418 3.86-2.418 6.414 0 2.559.804 4.695 2.418 6.418 1.668 1.668 3.886 2.5 6.668 2.5 2.777 0 5-.832 6.664-2.5 1.668-1.668 2.5-3.805 2.5-6.418 0-2.555-.832-4.691-2.5-6.414ZM284.805 101.875v5h.168c3.109-4.168 7.277-6.25 12.5-6.25 6.386 0 10.941 2.527 13.664 7.582 1.336-2.387 3.222-4.25 5.668-5.582 2.445-1.332 5.054-2 7.832-2 9.113 0 13.668 5.277 13.668 15.832v25.418h-14.168v-19.168l-.082-2.75c0-.555-.114-1.441-.332-2.664-.168-1.277-.446-2.25-.836-2.918-.332-.61-.887-1.168-1.664-1.668-.836-.555-1.809-.832-2.918-.832-1.223 0-2.278.25-3.168.75-.887.445-1.582 1-2.082 1.668-.446.61-.805 1.473-1.082 2.582l-.336 2.918-.082 2.914v19.168h-14.168v-19.168l-.082-2.332-.168-2.418c-.11-1.055-.278-1.887-.5-2.5-.278-.61-.664-1.25-1.164-1.914-.391-.668-.973-1.168-1.75-1.5-.782-.277-1.668-.418-2.668-.418-.946 0-1.805.14-2.582.418a4.595 4.595 0 0 0-1.918 1.5l-1 1.914c-.278.613-.473 1.445-.582 2.5l-.168 2.418v21.5h-14.168v-40ZM378.637 103.207l-4.75 9c-2.5-1.277-5.055-1.914-7.664-1.914a6.982 6.982 0 0 0-3 .664c-.946.5-1.418 1.168-1.418 2 0 .39.082.75.25 1.086l.668.832.914.5 1.168.5 1.168.25c.332 0 .718.082 1.164.25l1 .082c7.777 1.559 11.668 5.5 11.668 11.836 0 4.887-1.89 8.61-5.668 11.164-3.664 2.5-8.055 3.75-13.164 3.75-5.782 0-11.168-1.555-16.168-4.664l5.168-9.836c1.554 1.113 3.386 2.059 5.5 2.836 2.164.777 4.054 1.164 5.664 1.164 1.113 0 2.14-.25 3.086-.75.941-.555 1.414-1.305 1.414-2.25 0-.555-.164-1.055-.5-1.5-.278-.441-.75-.805-1.414-1.082l-1.918-.668-5-1.164c-2.778-.723-4.973-1.863-6.582-3.418-1.668-1.555-2.5-3.945-2.5-7.168 0-3.11.914-5.75 2.75-7.914 1.718-2.223 3.859-3.809 6.414-4.75 2.613-1 5.445-1.5 8.5-1.5 5 0 9.39.832 13.168 2.5ZM387.473 77.293h14.164v29.75h.086c3.218-4.277 7.468-6.418 12.75-6.418 5 0 8.75 1.5 11.25 4.5 2.554 3 3.832 7.11 3.832 12.332v24.418h-14.168v-20.5c0-2.89-.446-5.195-1.332-6.918-.832-1.664-2.5-2.5-5-2.5-2.668 0-4.582.89-5.75 2.668-1.114 1.832-1.668 4.082-1.668 6.75v20.5h-14.164Zm0 0" style="stroke:none;fill-rule:nonzero;fill:#4d4d4d;fill-opacity:1"/></svg>