<svg xmlns="http://www.w3.org/2000/svg" viewBox="-50 -49.939 100 99.877"><style>path{fill:#c8c5bd;stroke:navy;stroke-width:.5;stroke-linejoin:bevel}</style><path d="m-20.971-18.29-2.651-4.671-2.466 4.793zm13.56 67.738 4.935.491-2.343-4.858zm0 0-2.278-4.553-2.745 3.534z"/><path d="m-9.689 44.895 2.278 4.553 2.592-4.367zm32.648-5.129 5.865 1.09-2.118-4.43z"/><path d="m28.824 40.856-5.865-1.09L25 43.301zm-5.865-1.09L20.97 45.39 25 43.301zM2.658 22.755l2.614-4.534H0zM-18.42-22.878l-2.551 4.588 5.204.027z"/><path d="m-20.971-18.29 2.551-4.588-5.202-.083zm-16.25 27.322-2.532-4.263-3.348 4.606z"/><path d="m-39.753 4.769-5.146.146 1.798 4.46zm13.321 22.95-2.211-5.02-2.589 4.379zM-24.006 32.042l2.863-4.541-5.289.218zm2.863-4.541-2.863 4.541 5.625-.205zm5.376-9.238-5.204.027 2.551 4.588zm-5.204.027 5.204-.027-2.611-4.584zm18.4 22.258-5.263.039 3.015 4.494zm-5.263.039-1.855 4.308 4.87.186zm40.287-78.624-3.629-2.819-2.118 4.43zM2.63 4.556 0 9.113l5.261-.001zM20.779 35.99l2.18 3.776 3.747-3.34zm2.843-13.029-2.479 4.54 5.289.218z"/><path d="m21.143 27.501 2.479-4.54-5.202-.083zm-10.618-9.272L7.89 13.667l-2.618 4.554z"/><path d="m7.89 13.667 2.635 4.562 2.619-4.553zM2.63 4.556 5.261 0H0zm5.26 9.111 2.632-4.554-5.261-.001z"/><path d="M10.522 9.113 7.89 13.667l5.254.009zm-22.956-57.542-4.28 1.305 3.282 5.11zm22.123 3.534 2.745-3.534-5.023-1.019zm-32.648 5.129 1.989-5.624-4.03 2.089zm-5.865-1.09 5.865 1.09L-25-43.301zm-10.243 27.347 1.846 4.477 3.242-4.424zm15.492-.102 2.604-4.679-5.117.122zm-21.324 8.696L-41.557 0l1.804-4.769zm5.146 9.684L-41.557 0l-3.342 4.915zm5.365-.209-5.365.209 2.532 4.263zm13.417 13.73-2.604-4.679-2.513 4.557z"/><path d="m-23.575 13.611 2.604 4.679 2.593-4.611zm-5.068 9.088 5.021.262-2.466-4.793zm5.021.262 2.651-4.671-5.117-.122zm2.651-4.671-2.651 4.671 5.202-.083z"/><path d="m-23.622 22.961-5.021-.262 2.211 5.02zm2.479 4.54-2.479-4.54-2.81 4.758zm-2.479-4.54 2.479 4.54 2.723-4.623zm13.019 4.43 5.249-.085-2.578-4.52zm13.261-4.636h-5.316L0 27.222zm-7.93-4.534 2.614 4.534L0 18.221z"/><path d="M-2.658 22.755h5.316L0 18.221zm0 0-2.614-4.534-2.66 4.565zm-2.696 4.551 2.696-4.551-5.274.031zM-2.658 22.755l-2.696 4.551L0 27.222zm-10.486-9.079-2.636-4.565-2.598 4.568zm-2.623 4.587 2.623-4.587-5.234.003zM-2.69 31.677h5.38L0 27.222z"/><path d="m-5.354 27.306 2.664 4.371L0 27.222zm23.547 14.035 2.777 4.049 1.989-5.624z"/><path d="m20.779 35.99-2.586 5.351 4.766-1.575z"/><path d="m18.193 41.341 2.586-5.351-5.033.821zm29.965-54.788-1.63-4.859-2.803 4.249zm-6.707-4.92 5.077.061-2.042-4.519zm5.077.061-5.077-.061 2.274 4.31zM35.724-34.983l-1.688 4.145 5.082-.304zm-6.054 2.344 6.054-2.344-3.271-3.054zM-2.63 4.556h-5.262l2.631 4.556zm0 0h5.26L0 0z"/><path d="m0 9.113-2.63-4.557-2.631 4.556z"/><path d="M-2.63 4.556 0 9.113l2.63-4.557zm-.001 9.113-2.63-4.557-2.629 4.555zm0 0-2.641 4.552H0zm-2.641 4.552 2.641-4.552-5.259-.002z"/><path d="M-2.631 13.669 0 9.113l-5.261-.001zm41.749 17.473-5.082-.304 1.688 4.145zm-10.294 9.714 3.629-2.819-5.747-1.611zm3.629-2.819-2.783-5.398-2.964 3.787z"/><path d="m29.67 32.639 2.783 5.398 3.271-3.054z"/><path d="m29.67 32.639 6.054 2.344-1.688-4.145zm0 0-5.664-.597 2.7 4.384z"/><path d="m24.006 32.042 5.664.597-3.238-4.92z"/><path d="m21.143 27.501 2.863 4.541 2.426-4.323zm2.863 4.541-3.227 3.948 5.927.436zm15.061-18.533-1.846-4.477-3.242 4.424z"/><path d="m37.221 9.032 1.846 4.477 4.034-4.134zm-21.454 9.231 2.611-4.584-5.234-.003z"/><path d="m10.525 18.229 5.242.034-2.623-4.587zM7.892 4.556 5.261 0 2.63 4.556zm0 0H2.63l2.631 4.556z"/><path d="m10.522 9.113-2.63-4.557-2.631 4.556zm5.28-36.484-2.636 4.567 5.254-.074zM0-45.233l-4.819.152 2.248 4.533zm-4.819.152L0-45.233l-2.476-4.706z"/><path d="M-5.336-36.155 0-36.066l-2.571-4.482zm-7.098-12.274-.998 6.415 3.743-2.881zm25.866 6.415-.998-6.415-2.745 3.534zm-8.096 5.859L0-36.066l2.69 4.389zm2.738 4.218-2.738-4.218-2.646 4.478zm-21.218 18.261 2.619-4.553-5.242-.034zM0-9.113l-2.631-4.556-2.63 4.557zm2.658-13.642h-5.316L0-18.221zm-10.59-.031 2.578-4.52-5.249-.085zm5.274.031-2.696-4.551-2.578 4.52zm-20.301-17.011-3.747 3.34 5.927.436zm-3.747 3.34 3.747-3.34-5.865-1.09zm.274 8.707-2.211 5.02 5.021-.262zm2.81 4.758-5.021.262 2.555 4.531z"/><path d="m-13.245-32.061-2.557 4.69 5.199-.02zm.079 9.257 5.234.018-2.671-4.605zm0 0-5.254-.074 2.653 4.615zm2.641 4.575-2.641-4.575-2.601 4.541z"/><path d="m-13.166-22.804 2.641 4.575 2.593-4.557zm0 0-2.636-4.567-2.618 4.493z"/><path d="m-15.802-27.371 2.636 4.567 2.563-4.587zm0 0-5.341-.13 2.723 4.623z"/><path d="m-18.42-22.878-2.723-4.623-2.479 4.54zm-2.723-4.623-5.289-.218 2.81 4.758zM-49.167-9.087l-.627 4.553 4.895-.381zm1.009-4.36-1.009 4.36 6.066-.288zm19.38-.062 5.203-.102-2.513-4.557zM-7.892 4.556-10.521 0l-2.632 4.556zm-38.636 13.75 2.803-4.249-4.433-.61zm-3.266-13.772.627 4.553 4.268-4.172zM-44.899 4.915l-4.268 4.172 6.066.288zm1.798 4.46-5.057 4.072 4.433.61z"/><path d="m-43.101 9.375-6.066-.288 1.009 4.36zM-45.918 0l-3.876-4.534L-50 0zm-3.876 4.534L-45.918 0H-50zM-45.918 0l-3.876 4.534 4.895.381z"/><path d="M-49.794-4.534-45.918 0l1.019-4.915zM-45.918 0h4.361l-3.342-4.915zm4.361 0h-4.361l1.019 4.915zm59.973 4.545L21.049 0h-5.268zM21.049 0l-2.633-4.545L15.781 0zm7.729-13.509-5.203-.102 2.75 4.594z"/><path d="m28.778-13.509-2.69-4.659-2.513 4.557zm-2.69-4.659 2.69 4.659 2.456-4.524zM31.605 0l-2.583 4.513 5.366.047z"/><path d="M29.022 4.513 31.605 0h-5.273zm0-9.026L31.605 0l2.783-4.56z"/><path d="m31.605 0-2.583-4.513L26.332 0zm17.562 9.087-4.268-4.172-1.798 4.46zM39.753-4.769l-2.532-4.263-2.833 4.472zm-83.478 18.826 4.658-.548-4.034-4.134z"/><path d="m-39.067 13.509 1.846-4.477-5.88.343zm0 0 5.088-.053-3.242-4.424zm20.651-8.964 2.636 4.566 2.627-4.555z"/><path d="m-33.979 13.456 2.284-4.479-5.526.055z"/><path d="m-31.695 8.977-2.693-4.417-2.833 4.472zm10.552 18.524 5.341-.13-2.618-4.493z"/><path d="m-15.802 27.371-5.341.13 2.762 4.336zm5.28-18.258 2.63-4.557h-5.261zm5.261-.001-5.261.001 2.632 4.554zM-15.78 9.111l5.258.002-2.631-4.557z"/><path d="m-7.892 4.556-2.63 4.557 5.261-.001zm-5.252 9.12 2.622-4.563-5.258-.002zM-10.522 9.113l-2.622 4.563 5.254-.009zm-.003 9.116 5.253-.008-2.618-4.554zm5.253-.008-5.253.008 2.593 4.557zm-5.253.008-2.619-4.553-2.623 4.587z"/><path d="m-13.144 13.676 2.619 4.553 2.635-4.562zm28.946 13.695 5.341.13-2.723-4.623zm-7.87-4.585-2.66-4.565-2.614 4.534z"/><path d="m7.932 22.786 2.593-4.557-5.253-.008zM-7.834 40.587l2.498-4.432-5.453.595z"/><path d="m-5.336 36.155-2.498 4.432 5.263-.039zm17.77 12.274 4.28-1.305-3.282-5.11zm5.759-7.088-1.479 5.783 4.256-1.734zm-31.625.673 5.598-1.427-2.955-3.837zm5.598-1.427-5.598 1.427 3.743 2.881zm-5.598 1.427-2.314-5.203-2.447 4.53z"/><path d="m-15.746 36.811 2.314 5.203 2.643-5.264zm57.197-55.178-2.384 4.858 4.658-.548zm-23.07-13.47-5.136-.224 2.557 4.69zm11.289-.802 4.366 1.801 1.688-4.145zm0 0 2.783-5.398-5.747 1.611zm0 0-5.664.597 2.426 4.323z"/><path d="m24.006-32.042 5.664-.597-2.964-3.787zm2.082 13.874-5.117-.122 2.604 4.679zM2.631 13.669l5.259-.002-2.629-4.555zM0 9.113l2.631 4.556 2.63-4.557zm5.272 9.108-2.641-4.552L0 18.221z"/><path d="m7.89 13.667-5.259.002 2.641 4.552z"/><path d="M-2.631 13.669h5.262L0 9.113zm5.262 0h-5.262L0 18.221zm26.147-.16-5.203.102 2.513 4.557z"/><path d="m23.575 13.611 5.203-.102-2.453-4.492zm19.526-4.236.624 4.682 4.433-.61zm.624 4.682 2.803 4.249 1.63-4.859zm-.624-4.682 5.057 4.072 1.009-4.36z"/><path d="m39.067 13.509 4.658.548-.624-4.682zm-2.666 4.538 2.666-4.538-5.088-.053zm-12.779 4.914 5.021-.262-2.555-4.531zm5.021-.262-5.021.262 2.81 4.758zm7.989 4.015 2.486 4.428 2.892-4.028z"/><path d="m39.118 31.142-2.486-4.428-2.596 4.124zm-15.496-8.181-2.651-4.671-2.551 4.588zm-.047-9.35-2.604 4.679 5.117-.122z"/><path d="m20.971 18.29 2.651 4.671 2.466-4.793zm0 0 2.604-4.679-5.197.068zm-5.204-.027 5.204.027-2.593-4.611zM20.971 18.29l-5.204-.027 2.653 4.615zM7.892 4.556 10.521 0h-5.26zm5.353-36.617-2.642 4.67 5.199.02zM10.603-27.391l2.642-4.67-5.171.124zm2.563 4.587-2.563-4.587-2.671 4.605z"/><path d="m10.603-27.391 2.563 4.587 2.636-4.567zM-2.631-13.669h5.262L0-18.221zm5.262 0h-5.262L0-9.113zm-7.45-31.412-2.592-4.367-2.278 4.553z"/><path d="m-9.689-44.895 2.278-4.553-5.023 1.019zm2.278-4.553 2.592 4.367 2.343-4.858z"/><path d="m0-45.233 2.476-4.706h-4.952zm-18.193 3.892 1.479-5.783-4.256 1.734zm0 0-4.766 1.575 2.18 3.776z"/><path d="m-22.959-39.766 4.766-1.575-2.777-4.049z"/><path d="m-18.193-41.341 4.761-.673-3.282-5.11zm10.359.754 2.498 4.432 2.765-4.393zM-4.819-45.081l-3.015 4.494 5.263.039z"/><path d="m-7.834-40.587 3.015-4.494-4.87.186zm2.498 4.432-2.498-4.432-2.955 3.837z"/><path d="m-7.834-40.587-5.598-1.427 2.643 5.264z"/><path d="m-13.432-42.014 5.598 1.427-1.855-4.308zm26.864 0-3.743-2.881-1.855 4.308zm0 0 3.282-5.11-4.28-1.305zM2.571-40.548 0-45.233l-2.571 4.685z"/><path d="m0-36.066 2.571-4.482h-5.142zm5.336-.089-2.765-4.393L0-36.066z"/><path d="m2.571-40.548 2.765 4.393 2.498-4.432zm-20.949 26.869-5.197.068 2.539 4.535z"/><path d="m-20.971-18.29 2.593 4.611 2.611-4.584z"/><path d="m-23.575-13.611 5.197-.068-2.593-4.611zm5.197-.068 5.234.003-2.623-4.587zm7.853-4.55 5.253.008-2.66-4.565zm7.867-4.526-2.614 4.534H0z"/><path d="m-5.272-18.221 2.614-4.534-5.274-.031zm0 0 2.641 4.552L0-18.221zm7.93-4.534L0-27.222l-2.658 4.467z"/><path d="m0-27.222-5.354-.084 2.696 4.551zm-46.528 8.916-1.63 4.859 4.433-.61zm14.075-19.731 5.747 1.611-2.118-4.43zm-3.948 19.99-2.666 4.538 5.088.053zm28.327-13.89 2.738-4.218-5.453-.595zm2.72 4.631-2.72-4.631-2.529 4.546z"/><path d="m-8.074-31.937-5.171-.124 2.642 4.67zm-5.171-.124 5.171.124-2.715-4.813zm-13.461-4.365 2.7 4.384 3.227-3.948zm5.563 8.925-2.863-4.541-2.426 4.323zM-37.221-9.032l-5.88-.343 3.348 4.606z"/><path d="m-43.101-9.375-1.798 4.46 5.146.146zm0 0 4.034-4.134-4.658-.548zm0 0 5.88.343-1.846-4.477z"/><path d="m-43.101-9.375-6.066.288 4.268 4.172zm-5.057-4.072 5.057 4.072-.624-4.682zM-2.63-4.556 0-9.113l-5.261.001zm21.008 18.235L15.78 9.111l-2.636 4.565z"/><path d="m15.78 9.111-5.258.002 2.622 4.563zm13.242-4.598-5.322.011 2.625 4.493zM23.7 4.524l5.322-.011L26.332 0z"/><path d="M21.049 0 23.7 4.524 26.332 0z"/><path d="m18.416 4.545 5.284-.021L21.049 0zM23.7-4.524 21.049 0h5.283zm0 0 5.322.011-2.697-4.504z"/><path d="M29.022-4.513 23.7-4.524 26.332 0zM23.7-4.524l-5.284-.021L21.049 0zm5.322.011 2.673-4.464-5.37-.04zm2.673-4.464-2.673 4.464 5.366-.047z"/><path d="m37.221-9.032-5.526.055 2.693 4.417z"/><path d="m31.695-8.977-2.917-4.532-2.453 4.492zM44.899 4.915 45.918 0h-4.361zm-7.678 4.117 2.532-4.263-5.365-.209zm2.532-4.263-2.532 4.263 5.88.343z"/><path d="m39.753 4.769 5.146.146L41.557 0zm5.146.146-5.146-.146 3.348 4.606zm-84.072 17.701-5.313.209 2.476 4.289zM-23.7 4.524l5.284.021L-21.049 0zM-10.521 0h-5.26l2.628 4.556zm-7.895-4.545L-15.781 0l2.628-4.556z"/><path d="M-15.781 0h5.26l-2.632-4.556zm0 0-2.635-4.545L-21.049 0zm-2.635 4.545L-15.781 0h-5.268zM-15.781 0l-2.635 4.545 5.263.011zm-20.981 0h-4.795l1.804 4.769zm-4.795 0h4.795l-2.991-4.769zm7.169 4.56L-36.762 0l-2.991 4.769zM-31.605 0h-5.157l2.374 4.56zm8.03 13.611-5.203-.102 2.69 4.659zM-28.778 13.509l5.203.102-2.75-4.594zm0 0-2.917-4.532-2.284 4.479z"/><path d="m-31.695 8.977 2.917 4.532 2.453-4.492zm-2.341 21.861-5.082.304 3.394 3.841zm13.257 5.152 5.033.821-2.635-4.974z"/><path d="m-24.006 32.042 3.227 3.948 2.398-4.153zm8.26 4.769-5.033-.821 2.586 5.351z"/><path d="m-26.706 36.426 5.927-.436-3.227-3.948zm10.96.385 2.501-4.75-5.136-.224zm2.501-4.75-2.501 4.75 4.957-.061zm0 0-2.557-4.69-2.579 4.466z"/><path d="m-15.802 27.371 2.557 4.69 2.642-4.67zm0 0 2.636-4.567-5.254.074zm2.636-4.567 2.563 4.587 2.671-4.605z"/><path d="m-13.166 22.804-2.601-4.541-2.653 4.615zm0 0-2.636 4.567 5.199.02z"/><path d="m-13.166 22.804 2.641-4.575-5.242.034zm2.641-4.575-2.641 4.575 5.234-.018zM20.779 35.99l-2.398-4.153-2.635 4.974zm-2.398-4.153 5.625.205-2.863-4.541z"/><path d="m24.006 32.042-5.625-.205 2.398 4.153zm-8.204-4.671 2.579 4.466 2.762-4.336zM2.69 31.677l2.664-4.371L0 27.222z"/><path d="m5.354 27.306-2.696-4.551L0 27.222zm2.72 4.631-2.72-4.631-2.664 4.371zm-2.72-4.631 2.72 4.631 2.529-4.546zm2.578-4.52-2.578 4.52 5.249.085zm-2.578 4.52 2.578-4.52-5.274-.031zm7.812-4.502 2.636 4.567 2.618-4.493z"/><path d="m15.767 18.263-2.601 4.541 5.254.074zm-2.601 4.541 2.601-4.541-5.242-.034z"/><path d="m15.802 27.371-2.636-4.567-2.563 4.587z"/><path d="m7.932 22.786 5.234.018-2.641-4.575z"/><path d="m13.166 22.804-5.234-.018 2.671 4.605zm-7.83 13.351 2.738-4.218-5.384-.26zM0 45.233l-2.571-4.685-2.248 4.533zm-2.476 4.706L0 45.233l-4.819-.152z"/><path d="m0 45.233 2.571-4.685h-5.142zm2.571-4.685L0 45.233l4.819-.152zM0 45.233l2.476 4.706 2.343-4.858z"/><path d="M2.476 49.939 0 45.233l-2.476 4.706zm4.935-.491 5.023-1.019-2.745-3.534z"/><path d="m4.819 45.081 2.592 4.367 2.278-4.553zm-2.343 4.858 4.935-.491-2.592-4.367zm-14.91-1.51 2.745-3.534-3.743-2.881zm-8.536-3.039 4.256 1.734-1.479-5.783z"/><path d="m-16.714 47.124 3.282-5.11-4.761-.673zm4.28 1.305-.998-6.415-3.282 5.11zm48.835-66.476 2.666 4.538 2.384-4.858zm0 0-2.571-4.454-2.596 4.468zm-2.571-4.454-5.187-.198 2.591 4.666zM28.643-22.699l-2.555 4.531 5.146.135zm-4.637-9.343-2.863 4.541 5.289-.218zm-2.863 4.541-5.341.13 2.618 4.493z"/><path d="m18.381-31.837 2.762 4.336 2.863-4.541z"/><path d="m21.143-27.501-2.762-4.336-2.579 4.466zm-5.376 9.238 5.204-.027-2.551-4.588z"/><path d="m13.166-22.804 2.601 4.541 2.653-4.615zM31.695 8.977l-2.673-4.464-2.697 4.504zm0 0 5.526.055-2.833-4.472z"/><path d="m29.022 4.513 2.673 4.464 2.693-4.417zm8.199 4.519-5.526-.055 2.284 4.479z"/><path d="m28.778 13.509 2.917-4.532-5.37.04zm2.917-4.532-2.917 4.532 5.201-.053zm-.461 9.056 5.167.014-2.422-4.591zm0 0-2.456-4.524-2.69 4.659z"/><path d="m28.778 13.509 2.456 4.524 2.745-4.577zm7.623 4.538-5.167-.014 2.596 4.468z"/><path d="m31.234 18.033-2.591 4.666 5.187-.198z"/><path d="m28.643 22.699 2.591-4.666-5.146.135zm0 0 2.589 4.379 2.598-4.577zm1.027 9.94 1.562-5.561-4.8.641zm4.366-1.801-2.804-3.76-1.562 5.561z"/><path d="m31.232 27.078-2.589-4.379-2.211 5.02zm0 0 5.4-.364-2.802-4.213zm5.4-.364-5.4.364 2.804 3.76zM5.261-9.112l-2.63-4.557L0-9.113zm-18.693-32.902-2.314 5.203 4.957.061zm-2.314 5.203 2.501 4.75 2.456-4.689zm-2.447-4.53 2.447 4.53 2.314-5.203z"/><path d="m-15.746-36.811-2.447-4.53-2.586 5.351zm38.705-2.955 5.865-1.09L25-43.301zm5.865-1.09-5.865 1.09 3.747 3.34z"/><path d="m20.97-45.39 1.989 5.624L25-43.301zm-7.725 13.329-2.456-4.689-2.715 4.813z"/><path d="m5.336-36.155 5.453-.595-2.955-3.837z"/><path d="m10.789-36.75-5.453.595 2.738 4.218zm0 0 2.643-5.264-5.598 1.427zM2.476-49.939l2.343 4.858 2.592-4.367zm2.343 4.858 4.87.186-2.278-4.553z"/><path d="m9.689-44.895-4.87-.186 3.015 4.494zm-4.87-.186-2.343-4.858L0-45.233z"/><path d="m2.571-40.548 2.248-4.533L0-45.233z"/><path d="m4.819-45.081-2.248 4.533 5.263-.039zM-18.416-4.545l2.636-4.566-5.256.035zm2.636-4.566 2.627 4.555 2.631-4.557zm2.636-4.565-2.636 4.565 5.258-.002zm-2.636 4.565-2.636 4.566 5.263-.011zm-2.598-4.568 2.598 4.568 2.636-4.565z"/><path d="m-15.78-9.111-2.598-4.568-2.658 4.603zm7.89-4.556-5.254-.009 2.622 4.563z"/><path d="m-5.261-9.112-2.629-4.555-2.632 4.554zm-7.883-4.564 5.254.009-2.635-4.562z"/><path d="m-2.631-13.669-5.259.002 2.629 4.555z"/><path d="m-5.272-18.221-2.618 4.554 5.259-.002z"/><path d="m-7.89-13.667 2.618-4.554-5.253-.008zm18.493-13.724-5.249.085 2.578 4.52zm-5.249.085 2.72-4.631-5.384.26z"/><path d="m5.354-27.306-2.696 4.551 5.274-.031zm0 0 5.249-.085-2.529-4.546z"/><path d="M5.354-27.306 0-27.222l2.658 4.467z"/><path d="m0-27.222 5.354-.084-2.664-4.371zm-29.67-5.417-6.054-2.344 1.688 4.145zm-14.816 9.814 5.313.209-2.837-4.498zm13.252 4.792 2.456 4.524 2.69-4.659zm2.591-4.666-2.591 4.666 5.146-.135z"/><path d="m-28.778-13.509-2.456-4.524-2.745 4.577zm-2.456-4.524-5.167-.014 2.422 4.591zM-2.69-31.677 0-27.222l2.69-4.455zM0-36.066l-2.69 4.389h5.38z"/><path d="m-5.336-36.155 2.646 4.478L0-36.066zM0-27.222l-2.69-4.455-2.664 4.371z"/><path d="m-2.69-31.677-5.384-.26 2.72 4.631z"/><path d="m-8.074-31.937 5.384.26-2.646-4.478zM-2.63 4.556-5.261 0l-2.631 4.556z"/><path d="m-5.261 0 2.631 4.556L0 0zm0 0h-5.26l2.629 4.556zm2.631-4.556L-5.261 0H0zm15.783 9.112H7.892l2.63 4.557zm0 0 5.263-.011L15.781 0z"/><path d="m10.521 0 2.632 4.556L15.781 0z"/><path d="M13.153 4.556 10.521 0 7.892 4.556zm0 0 2.627 4.555 2.636-4.566zm2.627 4.555-2.627-4.555-2.631 4.557zm7.795 4.5-2.539-4.535-2.658 4.603zm-2.539-4.535 2.539 4.535 2.75-4.594z"/><path d="m15.78 9.111 5.256-.035-2.62-4.531zm5.256-.035-5.256.035 2.598 4.568zm0 0L23.7 4.524l-5.284.021z"/><path d="m23.7 4.524-2.664 4.552 5.289-.059zm26.094-9.058L45.918 0H50zm0 9.068-4.895.381 4.268 4.172z"/><path d="M49.794 4.534 45.918 0l-1.019 4.915z"/><path d="m45.918 0 3.876 4.534L50 0zm-9.156 0 2.991-4.769-5.365.209zm0 0h-5.157l2.783 4.56z"/><path d="M31.605 0h5.157l-2.374-4.56zm8.148-4.769L36.762 0h4.795zM36.762 0l2.991 4.769L41.557 0z"/><path d="M39.753 4.769 36.762 0l-2.374 4.56zm-68.396 17.93-5.187-.198 2.598 4.577zm-12.808-4.332-5.077-.061 2.042 4.519zm0 0 2.384-4.858-4.658.548z"/><path d="m-46.528 18.306 5.077.061-2.274-4.31zm7.355 4.31-2.278-4.249-3.035 4.458zM-15.78 9.111l-5.256-.035 2.658 4.603zm-5.256-.035-2.539 4.535 5.197.068z"/><path d="m-23.575 13.611 2.539-4.535-5.289-.059z"/><path d="m-18.416 4.545-2.62 4.531 5.256.035z"/><path d="m-23.7 4.524 2.664 4.552 2.62-4.531zm2.664 4.552L-23.7 4.524l-2.625 4.493zm-7.986-4.563L-31.605 0l-2.783 4.56zm0 0-2.673 4.464 5.37.04z"/><path d="m-31.695 8.977 2.673-4.464-5.366.047zm7.995-4.453-5.322-.011 2.697 4.504zm0-9.048 5.284-.021-2.62-4.531zm5.284-.021-5.284.021L-21.049 0zm-13.279-4.432 2.917-4.532-5.201.053z"/><path d="m-37.221-9.032 5.526.055-2.284-4.479zm7.551 41.671 2.964 3.787 2.7-4.384zm0 0 3.238-4.92-4.8-.641z"/><path d="m-29.67 32.639 5.664-.597-2.426-4.323zm-4.366-1.801 4.366 1.801-1.562-5.561zm11.077 8.928 1.989 5.624 2.777-4.049zm0 0-5.865 1.09L-25 43.301z"/><path d="m-20.97 45.39-1.989-5.624L-25 43.301zm-1.989-5.624-3.747-3.34-2.118 4.43zm0 0 2.18-3.776-5.927.436z"/><path d="m-20.779 35.99-2.18 3.776 4.766 1.575zm12.705-4.053 5.384-.26-2.664-4.371z"/><path d="m-8.074 31.937 2.738 4.218 2.646-4.478zm-2.529-4.546 2.529 4.546 2.72-4.631z"/><path d="m-5.336 36.155-2.738-4.218-2.715 4.813z"/><path d="m-13.245 32.061 5.171-.124-2.529-4.546z"/><path d="m-8.074 31.937-5.171.124 2.456 4.689zm16.148 0 5.171.124-2.642-4.67z"/><path d="m13.245 32.061 2.557-4.69-5.199.02zm0 0 5.136-.224-2.579-4.466zm5.136-.224-5.136.224 2.501 4.75zm-4.949 10.177 4.761-.673-2.447-4.53zM13.432 42.014l3.282 5.11 1.479-5.783zm-.998 6.415.998-6.415-3.743 2.881zM-2.69 31.677 0 36.066l2.69-4.389zM0 36.066l-5.336.089 2.765 4.393z"/><path d="M-5.336 36.155 0 36.066l-2.69-4.389zm7.907 4.393L0 36.066l-2.571 4.482zM5.336 36.155 0 36.066l2.571 4.482z"/><path d="m0 36.066 5.336.089-2.646-4.478zm36.632-62.78 5.378-.4-2.892-4.028z"/><path d="m34.036-30.838 2.596 4.124 2.486-4.428zm-.057 17.382-2.284 4.479 5.526-.055z"/><path d="m39.067-13.509-5.088.053 3.242 4.424zm-10.289 0 5.201.053-2.745-4.577zm2.917 4.532 2.284-4.479-5.201-.053z"/><path d="m36.401-18.047-2.422 4.591 5.088-.053zm-2.422 4.591 2.422-4.591-5.167.014zm-10.357-9.505 5.021.262-2.211-5.02zm-2.651 4.671 2.651-4.671-5.202.083zm2.651-4.671-2.651 4.671 5.117.122z"/><path d="m28.643-22.699-5.021-.262 2.466 4.793zm-7.5-4.802 2.479 4.54 2.81-4.758zm2.479 4.54-2.479-4.54-2.723 4.623zm-.047 9.35-2.539 4.535 5.289.059zm.125 9.087-2.664-4.552-2.62 4.531zm-2.664-4.552L23.7-4.524l2.625-4.493zM2.658-22.755l2.614 4.534 2.66-4.565z"/><path d="m5.272-18.221-2.614-4.534L0-18.221zm-2.641 4.552 2.641-4.552H0zm38.82 32.036 2.274-4.31-4.658-.548z"/><path d="m43.725 14.057-2.274 4.31 5.077-.061zm-7.324 3.99 5.05.32-2.384-4.858zm5.05.32 3.035 4.458 2.042-4.519zM18.416-4.545l-5.263-.011L15.781 0z"/><path d="M13.153-4.556 10.521 0h5.26zm-15.783 0h5.26L0-9.113zm5.26 0h-5.26L0 0zM5.261 0 2.63-4.556 0 0z"/><path d="m2.63-4.556 2.631-4.556L0-9.113zm-26.636-27.486 5.625.205-2.398-4.153zm5.625.205-2.762 4.336 5.341.13z"/><path d="m-13.245-32.061-5.136.224 2.579 4.466zm-5.136.224-5.625-.205 2.863 4.541zm2.635-4.974-2.635 4.974 5.136-.224z"/><path d="m-18.381-31.837 2.635-4.974-5.033.821zm36.762 0-2.635-4.974-2.501 4.75zm-7.592-4.913 4.957-.061-2.314-5.203z"/><path d="m15.746-36.811-4.957.061 2.456 4.689zm-54.864 5.669 5.082.304-1.688-4.145zm7.886 4.064 2.589 4.379 2.211-5.02zm-7.835 13.569-2.384-4.858-2.274 4.31zM-41.451-18.367l-5.077.061 2.803 4.249z"/><path d="m-46.528-18.306 5.077-.061-3.035-4.458zm10.127.259-5.05-.32 2.384 4.858z"/><path d="m-39.173-22.616-2.278 4.249 5.05.32z"/><path d="m-41.451-18.367 2.278-4.249-5.313-.209zm28.298 13.811h5.261l-2.63-4.557z"/><path d="m-7.892-4.556 2.631-4.556-5.261-.001zM-10.521 0l2.629-4.556h-5.261zm2.629-4.556h5.262l-2.631-4.556zm0 0L-5.261 0l2.631-4.556z"/><path d="m-5.261 0-2.631-4.556L-10.521 0zm53.419-13.447-4.433-.61-.624 4.682zm-87.276 44.589 2.486-4.428-5.378.4z"/><path d="m-36.632 26.714-2.541-4.098-2.837 4.498zm0 0 2.596 4.124 2.804-3.76zm2.596 4.124-2.596-4.124-2.486 4.428z"/><path d="m-36.632 26.714 2.802-4.213-5.343.115zm2.802-4.213-2.802 4.213 5.4.364zm5.052-8.992-2.456 4.524 5.146.135zm-2.456 4.524 2.591 4.666 2.555-4.531zm0 0 2.456-4.524-5.201-.053z"/><path d="m-31.234 18.033-2.596 4.468 5.187.198zM-26.332 0l-2.69-4.513L-31.605 0zm-2.69 4.513L-26.332 0h-5.273zM-26.332 0l2.632 4.524L-21.049 0z"/><path d="m-26.332 0-2.69 4.513 5.322.011zm0 0 2.632-4.524-5.322.011zm2.632-4.524L-26.332 0h5.283z"/><path d="m-23.7-4.524-2.625-4.493-2.697 4.504zm.125-9.087-2.75 4.594 5.289-.059z"/><path d="m-28.778-13.509 2.453 4.492 2.75-4.594zm2.453 4.492 2.625 4.493 2.664-4.552zm0 0-5.37.04 2.673 4.464z"/><path d="m-31.695-8.977 5.37-.04-2.453-4.492zm2.673 4.464-5.366-.047L-31.605 0zM-36.762 0l2.374-4.56-5.365-.209zm2.374-4.56-2.833-4.472-2.532 4.263z"/><path d="M-34.388-4.56-36.762 0h5.157zm0 0 2.693-4.417-5.526-.055z"/><path d="m-31.695-8.977-2.693 4.417 5.366.047zm4.989 45.403-5.747 1.611 3.629 2.819z"/><path d="m-35.724 34.983 3.271 3.054 2.783-5.398z"/><path d="m-35.724 34.983 6.054-2.344-4.366-1.801zm6.054-2.344-2.783 5.398 5.747-1.611zm37.504 7.948-5.263-.039 2.248 4.533z"/><path d="m7.834 40.587-3.015 4.494 4.87-.186zm0 0-2.498-4.432-2.765 4.393zm5.598 1.427-5.598-1.427 1.855 4.308zm17.8-69.092-1.562-5.561-3.238 4.92z"/><path d="m28.643-22.699 2.589-4.379-4.8-.641zm1.027-9.94 1.562 5.561 2.804-3.76zm1.562 5.561-2.589 4.379 5.187.198z"/><path d="m36.632-26.714-5.4-.364 2.598 4.577z"/><path d="m31.232-27.078 5.4.364-2.596-4.124zm10.778-.036-2.837 4.498 5.313-.209zm-2.837 4.498-2.772 4.569 5.05-.32z"/><path d="m39.173-22.616 2.278 4.249 3.035-4.458zm-2.772 4.569 2.772-4.569-5.343.115zm.231-8.667 2.541 4.098 2.837-4.498z"/><path d="m39.173-22.616-2.541-4.098-2.802 4.213zm0 45.232-2.772-4.569-2.571 4.454zm-2.541 4.098 2.541-4.098-5.343-.115zm2.541-4.098-2.541 4.098 5.378.4z"/><path d="m44.486 22.825-5.313-.209 2.837 4.498zm-3.035-4.458-2.278 4.249 5.313.209z"/><path d="m39.173 22.616 2.278-4.249-5.05-.32zM13.153-4.556H7.892L10.521 0z"/><path d="M10.521 0 7.892-4.556 5.261 0zM2.63-4.556h5.262L5.261-9.112z"/><path d="M7.892-4.556H2.63L5.261 0zM20.779-35.99l-2.398 4.153 5.625-.205z"/><path d="m20.779-35.99 3.227 3.948 2.7-4.384z"/><path d="m22.959-39.766-2.18 3.776 5.927-.436zm-2.18 3.776-5.033-.821 2.635 4.974zm-44.785 3.948-5.664-.597 3.238 4.92zM-32.453-38.037l2.783 5.398 2.964-3.787z"/><path d="m-29.67-32.639 5.664.597-2.7-4.384zm0 0-2.783-5.398-3.271 3.054zm-1.562 5.561 1.562-5.561-4.366 1.801zM-29.67-32.639l-1.562 5.561 4.8-.641zm-4.16 10.138-5.343-.115 2.772 4.569zm0 0 2.596 4.468 2.591-4.666zm2.596 4.468-2.596-4.468-2.571 4.454z"/><path d="m-31.232-27.078-2.598 4.577 5.187-.198zm70.299 13.569 4.034 4.134.624-4.682zm.686 8.74 3.348-4.606-5.88.343z"/><path d="m43.101-9.375-4.034-4.134-1.846 4.477zm5.057-4.072-5.057 4.072 6.066.288zM-33.83 22.501l-2.571-4.454-2.772 4.569zm-7.621-4.134 5.05-.32-2.666-4.538z"/><path d="m-39.067 13.509 2.666 4.538 2.422-4.591zm2.666 4.538-5.05.32 2.278 4.249zm5.167-.014-5.167.014 2.571 4.454z"/><path d="m-36.401 18.047 5.167-.014-2.745-4.577zM5.336 36.155l5.453.595-2.715-4.813z"/><path d="m13.245 32.061-2.456 4.689 4.957.061z"/><path d="m10.789 36.75 2.456-4.689-5.171-.124zm0 0 2.643 5.264 2.314-5.203z"/><path d="m10.789 36.75-2.955 3.837 5.598 1.427z"/><path d="m7.834 40.587 2.955-3.837-5.453-.595zm2.691-58.816 5.242-.034-2.601-4.541z"/><path d="m10.525-18.229 2.641-4.575-5.234.018z"/><path d="m5.272-18.221 5.253-.008-2.593-4.557zm5.253-.008 2.619 4.553 2.623-4.587zm5.242-.034 2.611 4.584 2.593-4.611zm5.204-.027-2.593 4.611 5.197.068z"/><path d="m18.378-13.679 2.658 4.603 2.539-4.535zm-5.234.003 5.234-.003-2.611-4.584zm-2.622 4.563-2.63 4.557h5.261z"/><path d="m7.892-4.556 2.63-4.557-5.261.001zm5.54-37.458 4.761.673-1.479-5.783z"/><path d="m18.193-41.341 2.777-4.049-4.256-1.734zm0 0 4.766 1.575-1.989-5.624zm-2.447 4.53 2.447-4.53-4.761-.673zm5.033.821-2.586-5.351-2.447 4.53z"/><path d="m18.193-41.341 2.586 5.351 2.18-3.776zm-54.825 14.627-2.486-4.428-2.892 4.028zm-2.541 4.098 2.541-4.098-5.378-.4z"/><path d="m-39.118-31.142 2.486 4.428 2.596-4.124zm2.486 4.428 5.4-.364-2.804-3.76zm0 0 2.802 4.213 2.598-4.577z"/><path d="m-33.83-22.501-2.802-4.213-2.541 4.098zM44.899-4.915l-5.146.146L41.557 0zM45.918 0l-1.019-4.915L41.557 0z"/><path d="m49.794-4.534-4.895-.381L45.918 0z"/><path d="m49.167-9.087-4.268 4.172 4.895.381z"/><path d="m43.101-9.375 1.798 4.46 4.268-4.172z"/><path d="m44.899-4.915-1.798-4.46-3.348 4.606zm-26.521-8.764L15.78-9.111l5.256.035z"/><path d="m21.036-9.076-5.256-.035 2.636 4.566zm-5.256-.035-2.627 4.555 5.263.011zm0 0 2.598-4.568-5.234.003z"/><path d="m10.522-9.113 5.258.002-2.636-4.565z"/><path d="m15.78-9.111-5.258-.002 2.631 4.557zm-7.89-4.556 2.635-4.562-5.253.008zM5.261-9.112l2.629-4.555-5.259-.002z"/><path d="m7.89-13.667-2.618-4.554-2.641 4.552zm2.635-4.562L7.89-13.667l5.254-.009zm-.003 9.116L7.89-13.667 5.261-9.112zM7.89-13.667l2.632 4.554 2.622-4.563z"/></svg>