<svg xmlns="http://www.w3.org/2000/svg" viewBox="-41.442 -41.442 100 100.028"><style>path{fill:#c8c5bd;stroke:navy;stroke-width:.5;stroke-linejoin:bevel}</style><path d="m51.548 45.031 2.612-5.492-6.627.721zm-10.385 5.113-7.101 1.062 3.748 3.749zm3.988 4.367-7.341.444 3.632 3.631zm-3.988-4.367-3.353 4.811 7.341-.444zM38.264 33.69l-6.575-.372 3.706 5.171zm-5.981 8.824 5.141 2.943-2.029-6.968z"/><path d="m44.484 45.379 7.064-.348-4.015-4.771zm0 0-7.06.078 3.739 4.687zm-82.147-65.897.185-7.396-3.964 3.617zm22.935 16.055-3.59-4.927-2.328 5.888zm-3.59-4.927-6.543 1.673 4.215 4.215zM7.565-40.973l-5.983-.469 3.176 5.852zm-5.983-.469-2.594 5.731 5.77.121zm-14.432 6.407 2.275-5.466-6.3 1.52zm2.275-5.466-2.275 5.466 6.062-.462zM23.15 6.977l3.351 4.96 3.329-5.205z"/><path d="m26.501 11.937-3.351-4.96-3.347 5.446zm-4.704 27.004 2.669-5.777-6.798 1.649zm2.669-5.777 7.223.154-2.172-5.185zm12.958 12.293-7.114 1.997 3.752 3.752zm0 0-3.362 5.749 7.101-1.062z"/><path d="m32.283 42.514-1.973 4.94 7.114-1.997zm-1.973 4.94 1.973-4.94-6.291.622zm14.841 7.057 3.361-4.481-7.349.114zm-.667-9.132 4.028 4.651 3.036-4.999z"/><path d="m48.512 50.03-4.028-4.651-3.321 4.765zM15.136-32.092l-1.5-7.763-2.899 4.467z"/><path d="m7.565-40.973 3.172 5.585 2.899-4.467z"/><path d="m10.737-35.388-3.172-5.585-2.807 5.383z"/><path d="m8.444-30.139 2.293-5.249-5.979-.202zm-18.679.008-2.615-4.904-4.464 3.21z"/><path d="m-12.85-35.035 2.615 4.904 3.447-5.366zM-24.861-7.717l.961-5.964-5.514 1.412zm-7.737-15.944-4.88-4.253-.185 7.396zm13.012-2.051 2.272-6.113-5.751 1.181zm3.67 5.29-3.67-5.29-2.515 5.925zm-6.321-16.659-5.506 2.6 4.678 3.837z"/><path d="m-17.314-31.825-4.923-5.256-.828 6.437zm.439-7.156-.439 7.156 4.464-3.21z"/><path d="m-16.875-38.981-5.362 1.9 4.923 5.256zm15.863 3.27-3.448-5.582-2.328 5.796z"/><path d="m-4.46-41.293 3.448 5.582 2.594-5.731zm0 0-6.115.792 3.787 5.004zM39.423 1.586l6.282.159-3.292-5.514z"/><path d="m36.005-3.786 3.418 5.372 2.99-5.355zM.606 17.751 4.5 21.645l2.48-7.034zM4.5 21.645l4.223 4.223 1.736-6.41zm13.168 13.168 1.176-5.754-5.753 1.177zm-4.436-21.51 3.496 4.694 3.075-5.574z"/><path d="m16.728 17.997-3.496-4.694-2.773 6.155zm9.673-16.422L23.15 6.977l6.68-.245zm5.882 40.939-3.934-4.775-2.357 5.397zm-.594-9.196-3.34 4.421 7.046.75zm-3.34 4.421-6.552 1.202 4.195 4.195zm0 0 3.934 4.775 3.112-4.025z"/><path d="m24.466 33.164 3.883 4.575 3.34-4.421z"/><path d="m28.349 37.739-3.883-4.575-2.669 5.777zM57.742 27.18l-5.23 2.062 3.722 4.413z"/><path d="m52.512 29.242 5.23-2.062-5.928-3.607zm-8.453 5.416-2.496-6.236-3.299 5.268zm-6.635 10.799 3.637-5.291-5.666-1.677zm3.637-5.291 3.423 5.213 3.049-5.119z"/><path d="m41.061 40.166-2.797-6.476-2.869 4.799zm3.423 5.213-3.423-5.213-3.637 5.291z"/><path d="m41.061 40.166 2.998-5.508-5.795-.968zm2.998-5.508-2.998 5.508 6.472.094zM7.649-8.529l-6.505.472 3.034 5.041zm-6.505.472-2.445-5.273-4.044 5.703z"/><path d="m1.144-8.057-3.753 5.54 6.787-.499z"/><path d="m-2.609-2.517 3.753-5.54-6.489.43zm0 0-6.817.715 3.486 4.698z"/><path d="m-9.426-1.802 6.817-.715-2.736-5.11z"/><path d="m-11.207-8.538 1.781 6.736 4.081-5.825zm0 0-7.111-.852 3.59 4.927z"/><path d="m-9.426-1.802-1.781-6.736-3.521 4.075zM1.939 12.164l-5.795 1.125 4.462 4.462z"/><path d="m-16.131 1.013 1.403-5.476-5.918.961zM18.85-38.349l1.895 6.891 3.314-4.839zm22.713 66.771 3.981-5.359-6.261-.347zm4.81-16.52 6.304.292-1.971-5.327z"/><path d="M52.677 12.194 57.98 8.59l-7.274-1.723zM36.106-14.512l3.349-4.643-5.164-2.036zm-69.808-2.045 1.104-7.104-5.065 3.143zm4.889-11.766 1.07-6.158-5.398 3.288zm0 0 5.748-2.321-4.678-3.837zm-4.328-2.87-4.337 3.279 4.88 4.253z"/><path d="m-33.141-31.193.543 7.532 3.785-4.662zM-18.318-9.39l-5.582-4.291-.961 5.964z"/><path d="m-18.318-9.39-.131-5.69-5.451 1.399z"/><path d="m-23.9-13.681 5.451-1.399-3.652-4.707z"/><path d="m-18.449-15.08 2.533-5.342-6.185.635zm51.463 37.665-6.052-.454 2.555 6.002zM26.962 22.131l6.052.454-3.086-5.645zm6.052.454 3.204-5.397-6.29-.248zM36.218 17.188l-3.204 5.397 6.269.131zm7.275-10.34L36.612 6.7l3.169 5.182z"/><path d="m46.373 11.902-2.88-5.054-3.712 5.034zm-2.88-5.054 2.88 5.054 4.333-5.035z"/><path d="m36.612 6.7 6.881.148-4.07-5.262z"/><path d="m43.493 6.848 2.212-5.103-6.282-.159z"/><path d="m45.705 1.745-2.212 5.103 7.213.019zm.157-10.903-6.601.081 3.152 5.308zm-6.601.081-3.155-5.435-3.254 5.25zm-3.256 5.291 3.256-5.291-6.409-.185z"/><path d="m39.261-9.077-3.256 5.291 6.408.017zM8.723 25.868l5.905-1.771-4.169-4.639zm5.905-1.771-5.905 1.771 4.368 4.368zm4.216 4.962-4.216-4.962-1.537 6.139z"/><path d="m14.628 24.097 4.216 4.962 1.646-6.398zm0 0 2.1-6.1-6.269 1.461z"/><path d="m16.728 17.997-2.1 6.1 5.862-1.436zm6.422-11.02-6.525.496 3.178 4.95z"/><path d="m16.625 7.473-3.393 5.83 6.571-.88zM6.98 14.611l-2.249-7.03-2.792 4.583zm-6.374 3.14 6.374-3.14-5.041-2.447zm6.374-3.14L4.5 21.645l5.959-2.187z"/><path d="M13.232 13.303 6.98 14.611l3.479 4.847zm19.686-11.78L36.612 6.7l2.811-5.114z"/><path d="m36.612 6.7-3.694-5.177-3.088 5.209zm-.607-10.486-3.087 5.309 6.505.063z"/><path d="m32.918 1.523-6.517.052 3.429 5.157zm17.123 33.338-5.982-.203 3.474 5.602z"/><path d="m54.16 39.539-4.119-4.678-2.508 5.399zm-4.119-4.678 4.119 4.678 2.074-5.884z"/><path d="m52.512 29.242-2.471 5.619 6.193-1.206zm-20.823 4.076 3.897-5.207-6.069.022zm3.897-5.207-3.897 5.207 6.575.372z"/><path d="m35.586 28.111-2.572-5.526-3.497 5.548zm-2.572-5.526 2.572 5.526 3.697-5.395zM35.586 28.111l5.977.311-2.28-5.706zm5.977.311-5.977-.311 2.678 5.579zM11.208-14.225 7.649-8.529l6.395-.32zm5.77 10.747-6.294.206 2.942 5.554z"/><path d="m10.684-3.272 6.294-.206-2.934-5.371zM7.535 2.227l3.149-5.499-6.506.256z"/><path d="M10.684-3.272 7.535 2.227l6.091.055zM7.649-8.529l3.035 5.257 3.36-5.577zm3.035 5.257L7.649-8.529 4.178-3.016zM7.535 2.227l-6.523.066 3.719 5.288z"/><path d="m1.012 2.293 6.523-.066-3.357-5.243zm0 0-3.621-4.81-3.331 5.413zm-3.621-4.81 3.621 4.81 3.166-5.309zm1.308-10.813-5.903-.389 1.859 6.092zm-5.903-.389-4.003 5.181 5.862.911zm-8.927 14.732 6.705-2.815-5.302-2.661z"/><path d="m-9.426-1.802-2.799 6.721 6.285-2.023z"/><path d="m-12.225 4.919 4.139 4.139 2.146-6.162z"/><path d="m-16.131 1.013 3.906 3.906 2.799-6.721zM8.444-30.139l6.692-1.953-4.399-3.296z"/><path d="m15.136-32.092 3.714-6.257-5.214-1.506zm0 0 5.609.634-1.895-6.891zm11.289 2.606 7.201-1.371-4.633-2.932z"/><path d="m26.425-29.486 2.568-4.303-4.934-2.508zm-5.68-1.972 5.68 1.972-2.366-6.811zM26.425-29.486l-5.68-1.972 3.004 6.447zm4.541 3.807-4.541-3.807-2.676 4.475zm-4.541-3.807 4.541 3.807 2.66-5.178zm-27.437-6.225 3.189 5.697 2.581-5.576zm3.189 5.697 6.267-.125-3.686-5.451zm0 0 3.236 5.37 3.031-5.495z"/><path d="m5.413-24.644-3.236-5.37-3.048 5.521z"/><path d="m2.165-19.024 3.248-5.62-6.284.151zm3.248-5.62-3.248 5.62 6.339-.613zm-19.037-1.232 3.389-4.255-7.079-1.694zm0 0-2.292 5.454 5.69.799z"/><path d="m-19.586-25.712 5.962-.164-3.69-5.949z"/><path d="m-15.916-20.422 2.292-5.454-5.962.164zm8.726-4.242-6.434-1.212 3.398 6.253z"/><path d="m-13.624-25.876 6.434 1.212-3.045-5.467zm66.301 38.07 5.881 2.544-.578-6.148zm-4.327 5.408-2.806 5.461 6.27.51zm0 0 4.327-5.408-6.304-.292zm3.036-16.19-5.681.333 5.001 5.122z"/><path d="m56.873 2.991-6.167 3.876L57.98 8.59z"/><path d="m56.873 2.991-5.487-1.579-.68 5.455zm-25.907-28.67 7.06-1.773-4.4-3.405zM38.026-27.452l-7.06 1.773 3.325 4.488z"/><path d="m34.291-21.191 7.713-2.537-3.978-3.724zm0 0 5.164 2.036 2.549-4.573zm-62.588 2.462 4.397 5.048 1.799-6.106z"/><path d="m-23.9-13.681-4.397-5.048-1.117 6.46zm-9.802-2.876 5.405-2.172-4.301-4.932z"/><path d="m-28.297-18.729-5.405 2.172 4.288 4.288zm54.798 30.666-3.18 5.282 6.607-.279z"/><path d="m23.321 17.219 3.18-5.282-6.698.486z"/><path d="m16.728 17.997 6.593-.778-3.518-4.796zm6.593-.778-6.593.778 3.762 4.664z"/><path d="m26.962 22.131-3.641-4.912-2.831 5.442zm-3.641-4.912 3.641 4.912 2.966-5.191zm.773 10.162.372 5.783 5.051-5.031zm-5.25 1.678 5.25-1.678-3.604-4.72z"/><path d="m24.466 33.164-.372-5.783-5.25 1.678z"/><path d="m24.466 33.164-5.622-4.105-1.176 5.754zm2.496-11.033-2.868 5.25 5.423.752z"/><path d="m24.094 27.381 2.868-5.25-6.472.53zm9.112-15.608-6.705.164 3.427 5.003zM36.612 6.7l-3.406 5.073 6.575.109zm-10.111 5.237 6.705-.164-3.376-5.041z"/><path d="M33.206 11.773 36.612 6.7l-6.782.032zm3.012 5.415-3.012-5.415-3.278 5.167z"/><path d="m33.206 11.773 3.012 5.415 3.563-5.306zm9.537-25.869-3.288-5.059-3.349 4.643zm-3.482 5.019 3.482-5.019-6.637-.416zm3.482-5.019-3.482 5.019 6.601-.081zM19.975 1.802l6.426-.227-3.07-5.408z"/><path d="m16.978-3.478 2.997 5.28 3.356-5.635z"/><path d="m19.975 1.802-2.997-5.28-3.352 5.76zm6.426-.227-6.426.227 3.175 5.175zm-6.426.227-3.35 5.671 6.525-.496z"/><path d="m16.625 7.473 3.35-5.671-6.349.48zm-6.28.787-2.81-6.033-2.804 5.354zM7.535 2.227l2.81 6.033 3.281-5.978z"/><path d="m10.345 8.26 6.28-.787-2.999-5.191z"/><path d="m16.625 7.473-6.28.787 2.887 5.043z"/><path d="M10.345 8.26 6.98 14.611l6.252-1.308z"/><path d="m6.98 14.611 3.365-6.351-5.614-.679zM29.612-3.852l6.393.066-3.153-5.476zm-3.211 5.427 3.211-5.427-6.281.019z"/><path d="m32.918 1.523-3.306-5.375-3.211 5.427z"/><path d="m29.612-3.852 3.306 5.375 3.087-5.309zm15.932 26.915 1.576 5.88 4.694-5.37zm1.576 5.88 5.392.299-.698-5.669zm0 0-5.557-.521 2.496 6.236z"/><path d="m47.12 28.943-1.576-5.88-3.981 5.359zm0 0 2.921 5.918 2.471-5.619z"/><path d="m50.041 34.861-2.921-5.918-3.061 5.715zM11.208-14.225l3.394-5.808-6.098.396zM-1.945 7.337l-1.911 5.952 5.795-1.125z"/><path d="m4.731 7.581-6.676-.244 3.884 4.827zM-8.086 9.058l6.141-1.721-3.995-4.441z"/><path d="m-3.856 13.289 1.911-5.952-6.141 1.721zM1.012 2.293l-2.957 5.044 6.676.244z"/><path d="m-1.945 7.337 2.957-5.044-6.952.603zm-9.262-15.875-1.923-5.52-5.188 4.668zm-4.709-11.884 2.786 6.364 2.904-5.565z"/><path d="m-13.13-14.058-5.319-1.022.131 5.69z"/><path d="m-18.449-15.08 5.319 1.022-2.786-6.364zm11.245 1.361-5.926-.339 1.923 5.52zM-13.13-14.058l5.926.339-3.022-5.904zm33.543 4.889-3.435 5.691 6.353-.355z"/><path d="m16.978-3.478 3.435-5.691-6.369.32zm13.988-22.201-3.435 5.292 6.76-.804zm-3.435 5.292 3.435-5.292-7.217.668zm-6.792.437 6.792-.437-3.782-4.624z"/><path d="m23.925-14.839 3.606-5.548-6.792.437zM-3.94-29.982l-3.25 5.318 6.319.171zm0 0 2.928-5.729-5.776.214z"/><path d="m-10.235-30.131 6.295.149-2.848-5.515zm3.045 5.467 3.25-5.318-6.295-.149z"/><path d="m-3.94-29.982 6.117-.032-3.189-5.697zm6.117-.032-6.117.032 3.069 5.489zM7.649-8.529l-2.69-5.254-3.815 5.726zm-2.69-5.254 6.249-.442-2.704-5.412zm0 0-6.26.453 2.445 5.273zm6.249-.442-6.249.442 2.69 5.254zm-6.249.442-2.794-5.241-3.466 5.694z"/><path d="m2.165-19.024 2.794 5.241 3.545-5.854zm-9.355-5.64 3.18 5.581 3.139-5.41zm-.014 10.945 3.194-5.364-6.216-.54z"/><path d="m-4.01-19.083-3.18-5.581-3.036 5.041zm0 0-3.194 5.364 5.903.389zm0 0 6.175.059-3.036-5.469z"/><path d="m2.165-19.024-6.175-.059 2.709 5.753zm40.283 36.33 3.925-5.404-6.592-.02zm3.096 5.757-3.096-5.757-3.165 5.41z"/><path d="m36.218 17.188 6.23.118-2.667-5.424zm6.23.118-6.23-.118 3.065 5.528zm5.902.296-5.902-.296 3.096 5.757z"/><path d="m42.448 17.306 5.902.296-1.977-5.7zm16.008 4.05-6.642 2.217 5.928 3.607z"/><path d="M58.456 21.356 53.803 18.1l-1.989 5.473z"/><path d="M58.558 14.738 53.803 18.1l4.653 3.256z"/><path d="m53.803 18.1 4.755-3.362-5.881-2.544z"/><path d="m48.35 17.602 5.453.498-1.126-5.906zm5.453.498-5.453-.498 3.464 5.971zM54.94-3.264l-3.554 4.676 5.487 1.579zm-83.753-25.059 3.158 4.083 2.59-6.404zM-25.655-24.24l6.069-1.472-3.479-4.932zm6.069-1.472-6.069 1.472 3.554 4.453zm-6.069 1.472-3.158-4.083-3.785 4.662zm-2.642 5.511 2.642-5.511-6.943.579zm2.642-5.511-2.642 5.511 6.196-1.058zm65.11 5.085 6.578.025-4.029-4.598zm3.288 5.059 3.29-5.034-6.578-.025zM11.908-25.661l-6.495 1.017 3.091 5.007z"/><path d="m5.413-24.644 6.495-1.017-3.464-4.478zm6.495-1.017 3.228-6.431-6.692 1.953z"/><path d="m14.602-20.033-2.694-5.628-3.404 6.024zm0 0 2.858 5.578 3.279-5.495zm2.858 5.578-6.252.23 2.836 5.376zm0 0 6.465-.384-3.186-5.111zm0 0-2.858-5.578-3.394 5.808zm0 0 2.953 5.286 3.512-5.67z"/><path d="m20.413-9.169-2.953-5.286-3.416 5.606zm9.199 5.317-2.859-5.665-3.422 5.684zm-2.859-5.665 2.859 5.665 3.24-5.41z"/><path d="m26.753-9.517-6.34.348 2.918 5.336zm-6.34.348 6.34-.348-2.828-5.322zm28.208 5.178 3.861-4.951-6.62-.216z"/><path d="m48.621-3.991-2.759-5.167-3.449 5.389z"/><path d="m45.705 1.745 2.916-5.736-6.208.222zm5.681-.333-2.765-5.403-2.916 5.736z"/><path d="m54.94-3.264-6.319-.727 2.765 5.403zm-6.319-.727 6.319.727-2.458-5.678zm3.861-4.951-2.983-5.293-3.637 5.077zm-2.983-5.293-6.756.139 3.119 4.938z"/><path d="m49.499-14.235-3.466-4.895-3.29 5.034zM20.745-31.458l-2.999 5.551 6.003.896z"/><path d="m17.746-25.907 2.993 5.957 3.01-5.061zm-2.61-6.185 2.61 6.185 2.999-5.551z"/><path d="m17.746-25.907-3.144 5.874 6.137.083zm0 0-5.838.246 2.694 5.628z"/><path d="m11.908-25.661 5.838-.246-2.61-6.185zm15.623 5.274 2.805 5.096 3.955-5.9zm2.805 5.096 5.77.779-1.815-6.679z"/><path d="m36.106-14.512-5.77-.779 2.516 6.029zm-5.77-.779-2.805-5.096-3.606 5.548zm-3.583 5.774 3.583-5.774-6.411.452zm3.583-5.774-3.583 5.774 6.099.255z"/></svg>