<svg xmlns="http://www.w3.org/2000/svg" viewBox="-50 -28.79 100 57.579"><style>path{fill:#c8c5bd;stroke:navy;stroke-width:.5;stroke-linejoin:bevel}</style><path d="m-46.864 4.853 3.641-5.021L-50-.001zm16.076 15.12 5.111 2.87-.506-6.395zm47.699-41.258 4.028-3.652-6.051-1.979zm-48.252 1.664-4.381 3.131 5.15 4.183zm14.43-1.664 2.023-5.631-6.051 1.979zm-9.098-1.393-5.332 3.057 4.601 2.986zm4.816 4.974.254-7.233-5.07 2.259zm42.132-7.233-4.028 3.652 4.282 3.581zM-8.98 5.458-5.966.006-12.1-.035zm-12.014-.083-3.192 5.568 5.812.373zm12.302 11.242 5.794.473-3.018-5.913zm-12.393.805-3.101-6.479-1.997 5.505z"/><path d="m-25.677 22.843 4.592-5.421-5.098-.974zm1.491-11.9 3.101 6.479 2.711-6.106zM-35.74-9.982l.018-6.508-4.358 3.801zm5.808 9.246 2.702-5.887-5.746 1.031zm-6.714.132 6.714-.132-3.044-4.856zM-27.23-6.623l-2.702 5.887 6.057-.223zm16.073-15.423-3.731-4.87-2.023 5.631zm32.096-2.891.254 7.233 4.816-4.974zM39.871 4.716l3.352-4.884-6.577-.436zm3.352-4.884 3.641 5.021L50-.001zM-2.898 17.09 0 11.388l-5.916-.211zM15.11-5.758l5.862-.333-2.808-5.579zM43.35 9.264l-7.386.179 3.68 3.661z"/><path d="m35.964 9.443-.42 7.186 4.1-3.525zm-9.781 7.005-.506 6.395 5.111-2.87zm4.605 3.525 4.756-3.344-4.568-3.153zM-15.135 5.605l6.155-.147-3.12-5.493zm0 0-5.859-.23 2.62 5.941zm.356 21.338 5.837 1.227-2.303-6.197zm0 0-2.207-5.749-3.731 3.828z"/><path d="m-20.717 25.022 3.731-3.828-4.099-3.772z"/><path d="m-16.986 21.194 2.207 5.749 3.534-4.97zm-3.731 3.828-.368-7.6-4.592 5.421zm-.255-31.113L-24-11.605l-3.23 4.982zm0 0-6.258-.532 3.355 5.664zM-43.223-.168l-3.756-4.525L-50-.001zm15.993-6.455-3.342-5.684-2.404 6.715zm-4.111-12.998.769 7.314 3.832-4.328z"/><path d="m-30.572-12.307 6.572.702-2.74-5.03zm6.572.702-6.572-.702 3.342 5.684zm-11.74 1.623 5.168-2.325-5.15-4.183zm5.168-2.325-5.168 2.325 2.764 4.39zm-5.392 21.75-7.386-.179 3.706 3.84zm24.807-31.489 2.176-6.119-5.907 1.249zm23.021 11.108 3.246 5.18 3.054-5.912zm-.707-11.108 5.754.761-2.023-5.631zM-2.957-5.623-5.966.006 0 .022z"/><path d="M2.957-5.623h-5.914L0 .022zm.007 11.279L5.966.006 0 .022z"/><path d="M5.966.006 2.957-5.623 0 .022zm-8.93 5.65h5.928L0 .022zm0 0-6.016-.198 3.064 5.719z"/><path d="m-5.966.006 3.002 5.65L0 .022z"/><path d="m-8.98 5.458 6.016.198-3.002-5.65zm6.016.198L0 11.388l2.964-5.732z"/><path d="m0 11.388-2.964-5.732-2.952 5.521zm2.995 17.401 5.947-.619-3.286-5.414zm0 0L0 23.022l-2.995 5.767zM0 23.022l2.995 5.767 2.661-6.033zm0-11.634 5.916-.211-2.952-5.521zm20.994-6.013 5.507-1.053-2.626-5.281zm5.507-1.053-5.507 1.053 3.192 5.568zm6.846-.252L29.932-.736l-3.431 5.058zM29.932-.736l3.415 4.806 3.299-4.674z"/><path d="m26.501 4.322 3.431-5.058-6.057-.223zm6.846-.252-6.846.252 3.12 4.228zm6.524.646 3.479 4.548 3.514-4.411zm-6.524-.646-3.726 4.48 6.343.893z"/><path d="m39.871 4.716 6.993.137-3.641-5.021zm-6.524-.646 6.524.646-3.225-5.32zm6.524.646-3.907 4.727 7.386-.179zm-6.524-.646 2.617 5.373 3.907-4.727zm-3.726 4.48-5.435 2.393 6.79 2.533z"/><path d="m30.976 13.476 4.988-4.033-6.343-.893zM29.621 8.55l-3.12-4.228-2.315 6.621z"/><path d="m35.964 9.443-4.988 4.033 4.568 3.153zm-5.176 10.53.188-6.497-4.793 2.972z"/><path d="m26.183 16.448 4.793-2.972-6.79-2.533zM-8.98 5.458l-2.981 5.391 6.045.328zm-2.981 5.391 3.269 5.768 2.776-5.44z"/><path d="m-15.135 5.605 3.174 5.244 2.981-5.391z"/><path d="m-11.961 10.849-3.174-5.244-3.239 5.711zm6.305 11.907-3.036-6.139-2.553 5.356zM0 23.022l-5.656-.266 2.661 6.033z"/><path d="m-8.692 16.617 3.036 6.139 2.758-5.666z"/><path d="M-5.656 22.756 0 23.022l-2.898-5.932zm-3.286 5.414 3.286-5.414-5.589-.783zm3.286-5.414-3.286 5.414 5.947.619zm-.31-22.75-3-5.485L-12.1-.035z"/><path d="m-2.957-5.623-6.009.144 3 5.485z"/><path d="m-8.966-5.479 6.009-.144-2.91-5.55zM-20.994 5.375l2.949-5.534-5.83-.8zm2.949-5.534 2.91 5.764 3.035-5.64z"/><path d="m-15.135 5.605-2.91-5.764-2.949 5.534zm-2.91-5.764-2.927-5.932-2.903 5.132zm-22.035-12.53-3.62 3.825 3.94 3.529zm.209 17.405-3.352-4.884-3.641 5.021zM-43.223-.168l6.577-.436-3.114-4.731zm16.722 4.49-6.846-.252 3.726 4.48zm-4.287 15.651 4.605-3.525-4.793-2.972zm-4.756-3.344-.42-7.186-3.68 3.661zM0-23.03l-2.877 5.944h5.754zm5.867 11.857 2.772-5.479-5.762-.434zm0 0 5.997.235-3.225-5.714zm8.742-5.086-2.745 5.321 6.3-.732zm6.584-1.445-6.584 1.445 3.555 4.589zm-6.584 1.445 6.584-1.445-4.282-3.581z"/><path d="m11.864-10.938 2.745-5.321-5.97-.393z"/><path d="m14.609-16.259-3.452-5.787-2.518 5.394z"/><path d="m11.157-22.046 3.452 5.787 2.302-5.026zM24-11.605l-2.807-6.099-3.029 6.034zm-3.028 5.514L24-11.605l-5.836-.065zm26.007 1.398L43.223-.168 50-.001zM43.223-.168l3.756-4.525-7.219-.642zM35.74-9.982l-5.168-2.325 2.404 6.715z"/><path d="m40.08-12.689-4.34 2.707 4.02 4.647zM5.966.006 8.98 5.458 12.1-.035z"/><path d="M8.98 5.458 5.966.006l-3.002 5.65zm0 0-3.064 5.719 6.045-.328z"/><path d="M5.916 11.177 8.98 5.458l-6.016.198zM2.898 17.09 0 23.022l5.656-.266zm0 0L0 11.388l-2.898 5.702z"/><path d="m0 23.022 2.898-5.932h-5.796z"/><path d="m2.898 17.09 3.018-5.913L0 11.388zM18.045-.159l2.927-5.932-5.862.333zm0 0L15.11-5.758 12.1-.035zm2.927-5.932L18.045-.159l5.83-.8zM18.045-.159l2.949 5.534 2.881-6.334zm3.04 17.581 5.098-.974-1.997-5.505zm5.098-.974-5.098.974 4.592 5.421zm-40.843-.378-2.326 5.124 5.741.779z"/><path d="m-8.692 16.617-5.968-.547 3.415 5.903zm-12.393.805 6.425-1.352-3.714-4.754zm4.099 3.772 2.326-5.124-6.425 1.352z"/><path d="m-11.961 10.849-2.699 5.221 5.968.547z"/><path d="m-14.66 16.07 2.699-5.221-6.413.467zm2.796-27.008 2.898 5.459 3.099-5.694zm-23.876.956-4.02 4.647 6.784-.257z"/><path d="m-40.08-12.689.32 7.354 4.02-4.647z"/><path d="m-36.646-.604 3.67-4.988-6.784.257zm-3.114-4.731-3.94-3.529-3.279 4.171zm-3.463 5.167 3.463-5.167-7.219.642zm6.577-.436 3.299 4.674 3.415-4.806zm6.714-.132 3.431 5.058 2.626-5.281zM-26.501 4.322l5.507 1.053-2.881-6.334z"/><path d="m-20.994 5.375-5.507-1.053 2.315 6.621zm-5.507-1.053-3.431-5.058-3.415 4.806zm-9.463 5.121-3.907-4.727-3.479 4.548zm-7.386-.179 3.479-4.548-6.993.137z"/><path d="m-39.871 4.716 3.225-5.32-6.577.436zm3.225-5.32-3.225 5.32 6.524-.646zm3.299 4.674-6.524.646 3.907 4.727zm0 0-2.617 5.373 6.343-.893zm24.366-32.235 3.375 5.394 2.601-6.019z"/><path d="m-5.606-22.771-3.375-5.394-2.176 6.119zM0-23.03l-5.606.259 2.729 5.685z"/><path d="M-5.606-22.771 0-23.03l-3.005-5.76zm14.587-5.394 2.176 6.119 3.731-4.87zM0-11.363l-2.877-5.723-2.99 5.913z"/><path d="M-2.957-5.623 0-11.363l-5.867.19zm.08-11.463L0-11.363l2.877-5.723zM0-11.363l-2.957 5.74h5.914z"/><path d="M5.867-11.173 0-11.363l2.957 5.74z"/><path d="m0-11.363 5.867.19-2.99-5.913zm11.864.425L8.966-5.479l6.144-.279zm3.246 5.18-6.144.279L12.1-.035zM8.966-5.479l-3 5.485L12.1-.035z"/><path d="m5.966.006 3-5.485-6.009-.144zm-.099-11.179 3.099 5.694 2.898-5.459z"/><path d="m8.966-5.479-3.099-5.694-2.91 5.55zm21.606-6.828L27.23-6.623l5.746 1.031zM27.23-6.623l-6.258.532 2.903 5.132zm0 0 2.702 5.887 3.044-4.856zm2.702 5.887L27.23-6.623 23.875-.959zM24-11.605l3.23 4.982 3.342-5.684z"/><path d="M27.23-6.623 24-11.605l-3.028 5.514zm-.49-10.012 4.601-2.986-5.332-3.057z"/><path d="m21.193-17.704 5.547 1.069-.731-6.043zM24-11.605l2.74-5.03-5.547-1.069z"/><path d="M26.74-16.635 24-11.605l6.572-.702zm6.236 11.043 3.67 4.988 3.114-4.731zM29.932-.736l6.714.132-3.67-4.988zm13.291.568L39.76-5.335 36.646-.604zM39.76-5.335l7.219.642L43.7-8.864zm.32-7.354-.32 7.354 3.94-3.529z"/><path d="m39.76-5.335-4.02-4.647-2.764 4.39zM5.916 11.177l2.776 5.44 3.269-5.768zm2.776 5.44 5.968-.547-2.699-5.221z"/><path d="m2.898 17.09 5.794-.473-2.776-5.44zm5.794-.473-5.794.473 2.758 5.666zM8.98 5.458l6.155.147L12.1-.035zm6.155.147L8.98 5.458l2.981 5.391zm2.91-5.764-2.91 5.764 5.859-.23z"/><path d="m15.135 5.605 2.91-5.764-5.945.124zm1.851 15.589-2.207 5.749 5.938-1.921zm3.731 3.828 4.96-2.179-4.592-5.421zm-3.731-3.828 4.099-3.772-6.425-1.352z"/><path d="m20.717 25.022.368-7.6-4.099 3.772zM-20.972-6.091l2.808-5.579-5.836.065zm-10.004 19.567 1.355-4.926-6.343.893zM-30.788 19.973l-.188-6.497-4.568 3.153zm6.602-9.03-6.79 2.533 4.793 2.972z"/><path d="m-35.544 16.629 4.568-3.153-4.988-4.033zm11.358-5.686-5.435-2.393-1.355 4.926zm0 0-2.315-6.621-3.12 4.228zm15.547-27.595-3.225 5.714 5.997-.235z"/><path d="m-2.877-17.086-5.762.434 2.772 5.479zm-2.729-5.685-3.033 6.119 5.762-.434zM-8.639-16.652l3.033-6.119-5.551.725zM0-23.03l3.005-5.76h-6.01zm35.722 6.54.018 6.508 4.34-2.707zM35.74-9.982l-.018-6.508-5.15 4.183zm-4.399-9.639-4.601 2.986 3.832 4.328z"/><path d="m31.341-19.621-.769 7.314 5.15-4.183zM14.66 16.07l3.714-4.754-6.413-.467zm6.334-10.695-2.62 5.941 5.812-.373zm.091 12.047-2.711-6.106-3.714 4.754z"/><path d="m18.374 11.316 2.711 6.106 3.101-6.479zm-3.239-5.711 3.239 5.711 2.62-5.941zm3.239 5.711-3.239-5.711-3.174 5.244zm-3.595 15.627-3.534-4.97-2.303 6.197zm-3.534-4.97-2.553-5.356-3.036 6.139z"/><path d="m8.942 28.17 2.303-6.197-5.589.783zm-.25-11.553 2.553 5.356 3.415-5.903zm8.294 4.577-5.741.779 3.534 4.97z"/><path d="m11.245 21.973 5.741-.779-2.326-5.124zM-24-11.605l2.807-6.099-5.547 1.069z"/><path d="m-21.193-17.704-4.816-4.974-.731 6.043zm0 0 4.282-3.581-4.028-3.652zm3.029 6.034-3.029-6.034L-24-11.605zm3.054 5.912-2.935 5.599 5.945.124z"/><path d="m-8.966-5.479-6.144-.279 3.01 5.723zm-9.079 5.32 2.935-5.599-5.862-.333zm6.181-10.779-3.246 5.18 6.144.279z"/><path d="m-15.11-5.758-3.054-5.912-2.808 5.579z"/><path d="m-18.164-11.67 3.054 5.912 3.246-5.18zm26.803-4.982-3.033-6.119-2.729 5.685z"/><path d="m11.157-22.046-5.551-.725 3.033 6.119zm-5.551-.725L0-23.03l2.877 5.944z"/><path d="m8.981-28.165-3.375 5.394 5.551.725zm-3.375 5.394L3.005-28.79 0-23.03z"/><path d="m3.005-28.79 2.601 6.019 3.375-5.394zm-17.614 12.531-3.555 4.589 6.3.732zm0 0 5.97-.393-2.518-5.394z"/><path d="m-14.609-16.259 3.452-5.787-5.754.761zm5.97-.393-5.97.393 2.745 5.321zm-5.97.393-6.584-1.445 3.029 6.034z"/><path d="m-21.193-17.704 6.584 1.445-2.302-5.026z"/></svg>