<svg xmlns="http://www.w3.org/2000/svg" viewBox="-50 -39.831 100 97.566"><style>path{fill:#c8c5bd;stroke:navy;stroke-width:.5;stroke-linejoin:bevel}</style><path d="M-42.668 41.481-50 46.771l7.686 3.221zm6.152-22.467-5.094-6.517-3.015 8.219zM-41.61 12.497l5.094 6.517 3.376-7.451zm49.604-1.219L0 11.244l3.981 7.749zM3.899 3.457l4.095 7.821 4.138-7.317z"/><path d="M7.994 11.278 3.899 3.457 0 11.244zM0-31.625v-8.206l-7.015 5.359zm-16.331 15.169-2.226-7.138-5.807 6.738zm25.845-3.45 3.622-9.159-8.194 3.2zM4.029 34.475 0 42.278l8.055-.236zm32.045 11.141-8.057 1.342 5.655 5.935zM20.423 33.52l-4.273 7.848 8.234-1.031zM-38.07 4.659l-3.54 7.838 8.47-.934z"/><path d="m-36.516 19.014 7.967.026-4.591-7.477zm11.21-21.724-4.131-7.312-4.569 7.171zm0 0 4.573 6.923 4.386-7.208zM3.899 3.457h-7.798L0 11.244z"/><path d="m-3.899 3.457-4.095 7.821L0 11.244zm-9.237-32.522-5.421 5.471 9.043 3.688zm25.155 47.923-4.025-7.58-4.013 7.715zm17.418-28.88-5.073-6.834-3.552 7.381zm-13.09 7.027 8.959.285-4.494-6.765zm13.09-7.027L25.306-2.71l8.7-.141z"/><path d="m25.306-2.71 4.131-7.312-8.625.547zm3.959 35.915-8.842.315 3.961 6.817zm-1.248 13.753-2.675 8.059 8.33-2.124zM12.133 34.111l8.29-.591-4.378-7.197zm0 0-8.104.364 4.026 7.567zm0 0 4.017 7.257 4.273-7.848zm4.017 7.257-4.017-7.257-4.078 7.931zM8.493 57.433l-4.451-7.442L0 57.735zM0 42.278l4.042 7.713 4.013-7.949zm39.217-8.055 9.58 3.384-1.641-7.958zm3.097 15.769.354-8.511-6.594 4.135zm0 0-6.24-4.376-2.402 7.277zM50 46.771l-1.203-9.164-6.129 3.874z"/><path d="m50 46.771-7.332-5.29-.354 8.511zm-82.739-20.008 4.19-7.723-7.967-.026zm-3.335 18.853-6.24 4.376 8.642 2.901zM-38.07 4.659l8.635-.353-4.571-7.157zm8.635-.353 4.129-7.016-8.7-.141zm0 0-8.635.353 4.93 6.904zm0 0 8.702-.093-4.573-6.923zM4.942-25.865l2.073-8.607L0-31.625zM0-31.625l7.015-2.847L0-39.831zm4.942 5.76 8.194-3.2-6.121-5.407zm-11.957-8.607-6.121 5.407 8.194 3.2z"/><path d="m-7.015-34.472 2.073 8.607L0-31.625zm2.073 8.607L0-19.416l4.942-6.449zm-15.87 16.39-4.494 6.765 8.959-.285zm0 0 4.481-6.981-8.033-.4z"/><path d="m-29.437-10.022 8.625.547-3.552-7.381zm8.625.547-8.625-.547 4.131 7.312zm0 0 8.895-1.081-4.414-5.9zm8.895-1.081-8.895 1.081 4.465 6.48zm-4.414-5.9 6.817-3.45-9.043-3.688zm3.195-12.609 3.622 9.159 4.572-5.959zm3.622 9.159-2.403 9.35 7.58-1.878z"/><path d="m-11.917-10.556 2.403-9.35-6.817 3.45zm0 0 4.053 6.779 3.527-8.657z"/><path d="m-7.864-3.777-4.053-6.779-4.43 7.561zm24.195-12.679 8.033-.4-5.807-6.738z"/><path d="m24.364-16.856-8.033.4 4.481 6.981zM16.347-2.995l-8.483-.782 4.268 7.738z"/><path d="M7.864-3.777 3.899 3.457l8.233.504zm32.164 30.528 7.128 2.898-2.531-8.933zM28.017 46.958l5.12-7.664-8.753 1.043zm14.651-5.477-9.531-2.187 2.937 6.322z"/><path d="m33.137 39.294-5.12 7.664 8.057-1.342zm0 0-3.872-6.089-4.881 7.132zM16.15 41.368l3.948 7.093 4.286-8.124zm3.948 7.093 7.919-1.503-3.633-6.621zm0 0 5.244 6.556 2.675-8.059zm5.244 6.556-5.244-6.556-3.152 8.066zm-29.384-5.026L0 42.278l-8.055-.236zm0 0-4.451 7.442L0 57.735zm0 0h8.084L0 42.278zM4.042 49.991h-8.084L0 57.735zM-7.979 26.636l-8.066-.313 3.912 7.788zm-39.177 3.013 7.128-2.898-4.597-6.035z"/><path d="m-40.028 26.751 3.512-7.737-8.109 1.702zm0 0-7.128 2.898 7.939 4.574z"/><path d="m-32.739 26.763-7.289-.012.811 7.472z"/><path d="m-40.028 26.751 7.289.012-3.777-7.749zm12.011 20.207-8.057-1.342 2.402 7.277zm-11.2-12.735-7.939-4.574-1.641 7.958zm-3.451 7.258-6.129-3.874L-50 46.771z"/><path d="m-39.217 34.223-9.58 3.384 6.129 3.874zm3.143 11.393-6.594-4.135.354 8.511zm11.314-34.089-3.789 7.513 8.307-.239zm8.463-.14-8.463.14 4.518 7.274zM-28.549 19.04l3.789-7.513-8.38.036zm3.789-7.513 8.463-.14-4.436-7.174z"/><path d="m-29.435 4.306 4.675 7.221 4.027-7.314zm4.675 7.221-4.675-7.221-3.705 7.257zm16.766-.249 4.013 7.715L0 11.244z"/><path d="m0 11.244-3.981 7.749h7.962zm0 15.53-3.981-7.781-3.998 7.643zm-3.981-7.781L0 26.774l3.981-7.781zM0 42.278l-4.029-7.803-4.026 7.567z"/><path d="m-4.029 34.475-8.104-.364 4.078 7.931zm8.058 0h-8.058L0 42.278z"/><path d="m-4.029 34.475-3.95-7.839-4.154 7.475zM0 26.774l-4.029 7.701h8.058z"/><path d="M-4.029 34.475 0 26.774l-7.979-.138zm12.008-7.839 4.04-7.778-8.038.135zm4.04-7.778-4.04 7.778 8.066-.313z"/><path d="m7.979 26.636 4.154 7.475 3.912-7.788z"/><path d="m12.133 34.111-4.154-7.475-3.95 7.839z"/><path d="M7.979 26.636 0 26.774l4.029 7.701z"/><path d="m0 26.774 7.979-.138-3.998-7.643zm-4.942-52.639h9.884L0-31.625zm9.279 13.431L0-19.416l-4.337 6.982z"/><path d="m-9.514-19.906 9.514.49-4.942-6.449zm9.514.49-9.514-.49 5.177 7.472zm-16.297 30.803 4.165-7.426-8.601.252z"/><path d="m-20.733 4.213 8.601-.252-4.215-6.956z"/><path d="m-3.899 3.457-8.233.504 4.138 7.317z"/><path d="m-12.132 3.961-4.165 7.426 8.303-.109z"/><path d="m-7.864-3.777-4.268 7.738 8.233-.504zm-4.268 7.738 4.268-7.738-8.483.782zm32.374 14.84-8.223.057 4.026 7.465zm9.193-14.495 8.635.353-4.064-7.51z"/><path d="m25.306-2.71 4.129 7.016 4.571-7.157zM0-4.815l4.337-7.619h-8.674zm0 0-3.899 8.272h7.798z"/><path d="m0-4.815-7.864 1.038 3.965 7.234z"/><path d="M-7.864-3.777 0-4.815l-4.337-7.619zM0-4.815l7.864 1.038-3.527-8.657zm7.864 1.038L0-4.815l3.899 8.272zm8.467-12.679-4.414 5.9 8.895 1.081z"/><path d="m11.917-10.556 4.43 7.561 4.465-6.48z"/><path d="M11.917-10.556 7.864-3.777l8.483.782zM7.864-3.777l4.053-6.779-7.58-1.878zM41.61 12.497l-5.094 6.517 8.109 1.702z"/><path d="m36.516 19.014 3.512 7.737 4.597-6.035zm3.512 7.737-.811 7.472 7.939-4.574zm-.811 7.472 3.451 7.258 6.129-3.874zm-6.08 5.071 6.08-5.071-9.952-1.018z"/><path d="m39.217 34.223-6.08 5.071 9.531 2.187zM4.042 49.991l8.058-.522-4.045-7.427z"/><path d="m12.1 49.469 4.05-8.101-8.095.674zm0 0-3.607 7.964 8.453-.906z"/><path d="m12.1 49.469-8.058.522 4.451 7.442zm0 0 7.998-1.008-3.948-7.093zm7.998-1.008L12.1 49.469l4.846 7.058zM-28.549 19.04l4.222 7.16 4.085-7.399zm-4.19 7.723 8.412-.563-4.222-7.16z"/><path d="m-24.327 26.2 8.282.123-4.197-7.522zm-1.015 28.817-2.675-8.059-5.655 5.935zm5.244-6.556-5.244 6.556 8.396 1.51z"/><path d="m-25.342 55.017 5.244-6.556-7.919-1.503zm-2.675-8.059-5.12-7.664-2.937 6.322zm-5.12-7.664-9.531 2.187 6.594 4.135z"/><path d="m-42.668 41.481 9.531-2.187-6.08-5.071zm26.623-15.158 4.026-7.465-8.223-.057zm-.252-14.936 4.278 7.471 4.025-7.58z"/><path d="m-12.019 18.858-4.278-7.471-3.945 7.414zm0 0-4.026 7.465 8.066.313zm8.038.135-8.038-.135 4.04 7.778z"/><path d="m-12.019 18.858 8.038.135-4.013-7.715zm24.038 0 4.278-7.471-8.303-.109z"/><path d="m7.994 11.278 8.303.109-4.165-7.426zm8.303.109 3.945 7.414 4.518-7.274z"/><path d="m20.242 18.801-3.945-7.414-4.278 7.471zm9.023 14.404L24.327 26.2l-3.904 7.32zm-8.842.315 3.904-7.32-8.282.123zm3.904-7.32-4.085-7.399-4.197 7.522zM9.514-19.906l6.817 3.45 2.226-7.138z"/><path d="m9.514-19.906 9.043-3.688-5.421-5.471zM0-19.416l9.514-.49-4.572-5.959zm9.514-.49L0-19.416l4.337 6.982zm0 0 2.403 9.35 4.414-5.9z"/><path d="m11.917-10.556-2.403-9.35-5.177 7.472zM38.07 4.659l-4.93 6.904 8.47.934zm-4.93 6.904-3.705-7.257-4.675 7.221z"/><path d="m29.435 4.306 3.705 7.257 4.93-6.904zm3.705 7.257 3.376 7.451 5.094-6.517zm-45.273 22.548-4.017 7.257 8.095.674zM20.733 4.213l-4.386-7.208-4.215 6.956zm0 0 8.702.093-4.129-7.016z"/><path d="m20.733 4.213 4.573-6.923-8.959-.285zm8.702.093-8.702-.093 4.027 7.314zM20.733 4.213l-4.436 7.174 8.463.14z"/><path d="m16.297 11.387 4.436-7.174-8.601-.252zm20.219 7.627-3.777 7.749 7.289-.012zm2.701 15.209-6.478-7.46-3.474 6.442z"/><path d="m32.739 26.763 6.478 7.46.811-7.472zm0 0-8.412-.563 4.938 7.005zm-57.066-.563 3.904 7.32 4.378-7.197zm8.282.123-4.378 7.197 8.29.591z"/><path d="m-20.423 33.52 4.273 7.848 4.017-7.257zm11.93 23.913-3.607-7.964-4.846 7.058zm-3.607-7.964 8.058.522-4.013-7.949zm8.058.522-8.058-.522 3.607 7.964zM-12.1 49.469l-7.998-1.008 3.152 8.066z"/><path d="m-12.1 49.469-4.05-8.101-3.948 7.093zm-4.05-8.101 4.05 8.101 4.045-7.427zM24.327 26.2l4.222-7.16-8.307-.239z"/><path d="m28.549 19.04 4.591-7.477-8.38-.036z"/><path d="m20.242 18.801 8.307.239-3.789-7.513zm12.898-7.238-4.591 7.477 7.967-.026zm-.401 15.2-4.19-7.723-4.222 7.16zm-4.19-7.723 4.19 7.723 3.777-7.749zm-57.814 14.165 4.938-7.005-8.412.563z"/><path d="m-29.265 33.205-3.474-6.442-6.478 7.46zm-3.872 6.089 3.872-6.089-9.952 1.018zm3.872-6.089 8.842.315-3.904-7.32zm13.115 8.163-8.234-1.031 4.286 8.124z"/><path d="m-20.098 48.461-4.286-8.124-3.633 6.621z"/><path d="m-24.384 40.337-8.753-1.043 5.12 7.664zm3.961-6.817-3.961 6.817 8.234 1.031zm-8.842-.315 4.881 7.132 3.961-6.817z"/><path d="m-24.384 40.337-4.881-7.132-3.872 6.089z"/></svg>