<svg xmlns="http://www.w3.org/2000/svg" viewBox="-100 -66.665 100 133.33"><style>path{fill:#c8c5bd;stroke:navy;stroke-width:.5;stroke-linejoin:bevel}</style><path d="m0 57.735-5.754-3.729-.732 7.016zm-23.988-91.776 3.777-5.676-6.993-.769zM-40.74 66.254l-2.588-6.767-4.406 5.606zm-14.479-11.146 7.988-1.936-4.748-4.591zm19.361-35.706 1.419 8.191 4.608-6.269zm23.668 37.039-.936 7.089 6.64-2.508z"/><path d="m-5.754 54.006-6.436 2.435 5.704 4.581zm-43.017-96.284-7.34-.239 3.284 6.126zm8.031 108.532 3.946-6.272-6.534-.495zm-9.367-7.445-4.83 4.26 7.203 2.024z"/><path d="m-43.328 59.487-6.779-.678 2.373 6.284zm-11.609 3.582 4.83-4.26-5.112-3.701zm7.706-9.897-2.876 5.637 6.779.678zM-50.107 58.809l2.876-5.637-7.988 1.936zm14.249-39.407-4.082 4.732 5.501 3.459zm0 0 3.984-5.532-6.374-1.667z"/><path d="m-31.874 13.87-3.984 5.532 6.027 1.922z"/><path d="m-34.439 27.593 7.13.101-2.522-6.37zm-22.419 3.16 7.281-.49-4.107-5.917zm7.281-.49-7.281.49 4.049 5.716zm-.478-12.293-7.082.208 3.453 6.168z"/><path d="m-57.137 18.178 7.082-.208-3.304-6.08zm1.918 36.93-6.567-.909.683 6.408zm0 0-5.884 5.499 6.166 2.462zm-6.567-.909-5.977 2.889 6.66 3.519zm41.961 11.084-4.479-5.463-2.584 6.534zm8.601-15.694-4.798-4.773-2.261 6.771zm0 0-.966 6.852 6.436-2.435zm-76.841-24.133 6.781-.645-3.752-6.27zm67.854-65.173-2.818-6.732-4.175 5.963zm1.94-11.907 7.087 1.998-1.006-6.835zm-48.749 1.786-6.575-3.298 2.297 8.116zM-73.595-53.136l6.575 3.298-.769-7.235zm39.83 119.801-3.029-6.683-3.946 6.272zm1.891-52.795-1.139-7.347-5.235 5.68z"/><path d="m-33.013 6.523-8.47.189 3.235 5.491zm-42.205-18.716 7.491.133-3.28-6.183zm27.987 65.365 3.08-5.852-7.828 1.261zM-74.34 24.618l3.715 6.427 3.173-6.399zm13.695.041 3.787 6.094 3.174-6.407z"/><path d="m-57.137 18.178-3.508 6.481 6.961-.313zm14.868 11.82 7.83-2.405-5.501-3.459zm-.539-12.295 6.95 1.699-2.39-7.199zm6.95 1.699-6.95-1.699 2.868 6.431zm-25.928 34.797-5.216-4.327-.761 7.216zm43.303 3.907.2-6.519-7.164 1.694zm6.293-1.665-6.293 1.665 5.357 5.424zM-18.483 58.106l-1.342 7.177 6.699-1.753z"/><path d="m-19.825 65.283 1.342-7.177-5.821 1.714zm1.542-13.696 6.093 4.854.966-6.852zM-18.283 51.587l-.2 6.519 6.293-1.665zm-80.498-64.279-.915 6.334 6.577-.501zm17.497 37.503 3.076-6.478-6.828.208zm6.944-.193-3.868-6.285-3.076 6.478zM-78.208 18.333l-4.761-5.998-2.067 6.206zm10.481-30.393-3.742 5.935 7.479.12z"/><path d="m-71.469-6.125 3.742-5.935-7.491-.133zm-11.5 18.46-7.886.596 5.819 5.61zm-5.096 13.121 3.26 5.878 3.521-6.523zm3.26 5.878-7.098.509 3.7 6.022zM-91.903 31.843l7.098-.509-3.26-5.878zm62.219-53.598 2.507-6.226-7.262.219zM-45.507-36.08l-3.264-6.198-4.056 5.887zm25.657-29.209 1.35 7.162 5.356-5.409zm-3.179 18.84 7.071 1.562-2.313-6.737zm7.071 1.562-7.071-1.562 2.818 6.732z"/><path d="m-15.958-44.887 4.774-4.739-7.087-1.998zm-57.769 7.637 6.342-.687-3.913-7.083zm32.943-28.999-6.994 1.166 4.399 5.6zm16.453 6.409 4.481-5.449-7.073-1.069zm-1.133 6.524 6.964-4.811-5.831-1.713z"/><path d="m-19.85-65.289-4.481 5.449 5.831 1.713zm-47.939 8.216 5.971 2.899.679-6.417z"/><path d="m-67.02-49.838 5.202-4.336-5.971-2.899zm14.988 1.282-4.079 6.039 7.34.239zm4.748-4.607 7.306-.215-3.401-6.105zm-20.677 65.236 3.781-6.081-7.411.062zM-88.532-.069l2.315-6.568-6.902-.222zm2.315-6.568-2.315 6.568 6.453.005zm37.501 48.932-7.359.281 4.096 6.005z"/><path d="m-56.075 42.576 7.359-.281-4.093-5.826zm7.359-.281 4.565 5.025 3.1-6.195z"/><path d="m-44.151 47.32-4.565-5.025-3.263 6.286zm7.357 12.662-3.132-6.612-3.402 6.117zm-3.132-6.612-7.305-.198 3.903 6.315z"/><path d="m-39.926 53.37-4.225-6.05-3.08 5.852zm21.443 4.736-6.964-4.825 1.143 6.539zM-46.7 23.963l4.431 6.035 2.329-5.864zm0 0-3.355-5.993-3.629 6.376z"/><path d="m-49.577 30.263 2.877-6.3-6.984.383zm7.308-.265-4.431-6.035-2.877 6.3z"/><path d="m-42.808 17.703-3.892 6.26 6.76.171z"/><path d="m-46.7 23.963 3.892-6.26-7.247.267zm-9.375 18.613-3.042 5.942 7.138.063z"/><path d="m-59.117 48.518 3.898 6.59 3.24-6.527z"/><path d="m-59.117 48.518-2.669 5.681 6.567.909z"/><path d="m-59.117 48.518-7.885 1.354 5.216 4.327zm-7.885 1.354-6.582 3.272 5.821 3.944zm-6.582 3.272 6.582-3.272-4.314-4.813zm12.939-28.485-3.509-6.397-3.298 6.384zm-3.509-6.397 3.509 6.397 3.508-6.481zm-11.227-6.124-3.598-5.961-3.99 6.158z"/><path d="m-78.208 18.333 2.827-6.195-7.588.197z"/><path d="m-78.979 6.177 3.598 5.961 3.79-6.084zm3.598 5.961 7.42-.065-3.63-6.019z"/><path d="m-75.041-.053-3.938 6.23 7.388-.123zm-3.938 6.23 3.938-6.23-7.038-.011zm-12.295 13.171 3.209 6.108 3.029-6.915z"/><path d="m-90.855 12.931-.419 6.417 6.238-.807zm13.263 18.016 6.967.098-3.715-6.427z"/><path d="m-77.592 30.947 3.252-6.329-6.944.193zm-7.213.387 7.213-.387-3.692-6.136zm78.311-92.36.759 7.006L0-57.735zm-57.293 17.524-3.233-6.336-4.278 4.818zm-3.598 5.565 3.598-5.565-7.511-1.518zm.094 13.384-6.926-.052 3.21 6.362zm-20.88-13.358 7.113.94-2.754-6.576zm13.954 13.306-3.295-6.345-3.685 6.103zM-81.058-36.971l3.546 6.021 3.785-6.3zm2.46-11.974 7.3 3.925-2.297-8.116z"/><path d="m-83.812-43.547 6.665.855-1.451-6.253z"/><path d="m-77.147-42.692 3.42 5.442 2.429-7.77zm-1.451-6.253 1.451 6.253 5.849-2.328zm-2.46 11.974 3.911-5.721-6.665-.855z"/><path d="m-77.147-42.692-3.911 5.721 7.331-.279zm46.145 8.53 3.825 6.181 3.189-6.06z"/><path d="m-31.002-34.162 7.014.121-3.216-6.445zm0 0-6.81-.523 3.373 6.923zm3.825 6.181-3.825-6.181-3.437 6.4z"/><path d="m-31.002-34.162-2.999-6.694-3.811 6.171z"/><path d="m-34.001-40.856 2.999 6.694 3.798-6.324zm-11.506 4.776 4.413-5.074-7.677-1.124z"/><path d="m-41.094-41.154-4.413 5.074 7.695 1.395zm0 0 7.093.298-2.951-6.348z"/><path d="m-34.001-40.856-7.093-.298 3.282 6.469zm0 0 4.115-6.324-7.066-.024z"/><path d="m-23.029-46.449-6.857-.731 2.682 6.694z"/><path d="m-29.886-47.18-4.115 6.324 6.797.37zm-25.377-7.907-5.876-5.504-.679 6.417zm24.809-4.75 6.123-.003-2.592-6.518zM-41.483 6.712l-4.557 5.225 7.792.266zm-8.572 11.258 4.015-6.033-7.319-.047zm4.015-6.033 3.232 5.766 4.56-5.5z"/><path d="m-42.808 17.703-3.232-5.766-4.015 6.033zm-6.343-11.782 3.111 6.016 4.557-5.225z"/><path d="m-46.04 11.937-3.111-6.016-4.208 5.969zm-3.111-6.016 3.846-5.774-7.546-.117z"/><path d="m-45.305.147-3.846 5.774 7.668.791zm-28.912-24.752-3.866 6.232 7.076.13zm-3.866 6.232 2.865 6.18 4.211-6.05z"/><path d="m-78.083-18.373 3.866-6.232-6.98-.242zm0 0-4.771 5.947 7.636.233z"/><path d="m-84.958-18.612 6.875.239-3.114-6.474z"/><path d="m-78.083-18.373-6.875-.239 2.104 6.186zM-99.696-6.358l5.348 6.292 1.229-6.793z"/><path d="m-94.348-.066-5.348-6.292L-100-.073zm-5.362 6.278 5.362-6.278L-100-.073zm5.362-6.278-5.362 6.278 6.571.515z"/><path d="m-88.532-.069-5.816.003 1.209 6.793z"/><path d="m-94.348-.066 5.816-.003-4.587-6.79zm3.493 12.997 4.587-6.42-6.871.216zm4.587-6.42 7.289-.334-3.1-6.241zM-78.979 6.177l-7.289.334 3.299 5.824zm-7.289.334-4.587 6.42 7.886-.596z"/><path d="m-88.532-.069 2.264 6.58 4.189-6.575z"/><path d="m-86.268 6.511-2.264-6.58-4.607 6.796zm40.807 29.562 3.192-6.075-7.308.265z"/><path d="m-45.461 36.073-4.116-5.81-3.232 6.206zm0 0-3.255 6.222 7.665-1.17z"/><path d="m-48.716 42.295 3.255-6.222-7.348.396zm32.694 2.521-7.027 1.564 4.766 5.207z"/><path d="m-23.049 46.38 7.027-1.564-4.276-5.217zm-2.398 6.901 2.398-6.901-6.821.739zm2.398-6.901-2.398 6.901 7.164-1.694zm-7.369 13.443-3.347 6.842 6.877-.311zm6.114-.003-6.114.003 3.53 6.531z"/><path d="m-33.765 66.665 3.347-6.842-6.376.159zm8.318-13.384-4.971 6.542 6.114-.003zm-5.58-19.262 6.928-.166-3.21-6.159zm0 0 3.718-6.325-7.13-.101zm-8.899 19.351 3.016-6.2-7.241.15z"/><path d="m-44.151 47.32 7.241-.15-4.141-6.045zm10.165-6.542-2.924 6.392 7.04-.051z"/><path d="m-36.91 47.17 2.924-6.392-7.065.347zm-23.344-10.009 4.179 5.415 3.266-6.107z"/><path d="m-56.858 30.753-3.396 6.408 7.445-.692zm-3.783-18.743-3.539-6.018-3.781 6.081zm0 0 3.504 6.168 3.778-6.288zm-3.513 6.252 3.513-6.252-7.32.063z"/><path d="m-60.641 12.01-3.513 6.252 7.017-.084zm-10.551 6.255 7.038-.003-3.807-6.189zm0 0-3.148 6.353 6.888.028zm0 0-7.016.068 3.868 6.285z"/><path d="m-64.154 18.262-7.038.003 3.74 6.381zm-11.227-6.124 4.189 6.127 3.231-6.192z"/><path d="m-71.192 18.265-4.189-6.127-2.827 6.195zm-7.705-24.55-7.32-.352 4.138 6.573zm-3.957-6.141 3.957 6.141 3.679-5.908zm3.957 6.141 7.428.16-3.749-6.068z"/><path d="m-78.897-6.285-3.957-6.141-3.363 5.789zm0 0 3.856 6.232 3.572-6.072z"/><path d="m-75.041-.053-3.856-6.232-3.182 6.221zm-19.892 25.547 3.03 6.349 3.838-6.387zM-91.274 19.348l-3.659 6.146 6.868-.038z"/><path d="m-94.933 25.494 3.659-6.146-6.062-.691zM-99.71 6.212l.902 6.337 5.669-5.822z"/><path d="m-98.808 12.549 7.953.382-2.284-6.204zm7.953.382-7.953-.382 1.472 6.108zm0 0-6.481 5.726 6.062.691zm7.024 30.594 2.729-6.563-7.101.903z"/><path d="m-81.102 36.962-3.703-5.628-3.398 6.531zm0 0 3.51-6.015-7.213.387zm62.831-88.586 6.081-4.837-6.31-1.666zm-.229-6.503 6.31 1.666-.954-7.075zm6.31 1.666 5.696-4.565-6.65-2.51zm0 0 6.455 2.441-.759-7.006z"/><path d="m-5.735-54.02-6.455-2.441 1.006 6.835zm-46.297 5.464-7.124.077 3.045 5.962zm-7.124.077-2.662-5.695-5.202 4.336zm-4.631 4.977 4.631-4.977-7.864-1.359zM-59.156-48.479l-4.631 4.977 7.676.985zm-1.064 11.446-7.165-.904 3.545 6.828z"/><path d="m-56.111-42.517-4.109 5.484 7.393.642zm-4.109 5.484-3.567-6.469-3.598 5.565z"/><path d="m-63.787-43.502 3.567 6.469 4.109-5.484zm-3.598 5.565-3.141 6.948 6.686-.12z"/><path d="m-70.526-30.989 3.141-6.948-6.342.687zm0 0 3.235 6.436 3.451-6.556z"/><path d="m-67.291-24.553-3.235-6.436-3.691 6.384z"/><path d="m-70.526-30.989-6.986.039 3.295 6.345z"/><path d="m-77.512-30.95 6.986-.039-3.201-6.261zm-10.659-6.961 3.422 6.542 3.691-5.602z"/><path d="m-84.749-31.369-3.422-6.542-3.693 5.995zm0 0 7.237.419-3.546-6.021zm7.237.419-7.237-.419 3.552 6.522zm37.534-22.428-4.227 6.057 7.253.117zm-4.227 6.057-7.827-1.235 3.261 6.278z"/><path d="m-52.032-48.556 7.827 1.235-3.079-5.842zm7.827 1.235 4.227-6.057-7.306.215zm0 0 3.111 6.167 4.142-6.05z"/><path d="m-41.094-41.154-3.111-6.167-4.566 5.043zm-9.062-17.645 2.872 5.636 3.905-6.32z"/><path d="m-47.778-65.083-2.378 6.284 6.777-.684z"/><path d="m-54.979-63.055 4.823 4.256 2.378-6.284zm21.173-3.61 3.352 6.828 3.531-6.521zm8.342 13.349 7.193 1.692-.229-6.503zm0 0 2.435 6.867 4.758-5.175zm0 0-4.422 6.136 6.857.731z"/><path d="m-30.454-59.837 4.99 6.521 1.133-6.524zM-75.041-.053l7.282.018-3.71-6.09z"/><path d="m-71.469-6.125 3.71 6.09 3.769-5.97zm7.289 12.117-3.579-6.027-3.832 6.089z"/><path d="m-67.759-.035-7.282-.018 3.45 6.107zm7.403.023-7.403-.023 3.579 6.027z"/><path d="m-67.759-.035 7.403.023-3.634-5.993zm34.746 6.558-5.531-5.119-2.939 5.308z"/><path d="m-38.544 1.404 5.531 5.119-.311-7.65z"/><path d="m-33.324-1.127.431-6.519-7.517 2.152zm-5.22 2.531L-45.305.147l3.822 6.565zM-91.227-19.43l-3.664-6.164-2.407 6.807zm.444 6.399-6.515-5.756-1.483 6.095zM-27.23 40.38l-6.756.398 4.116 6.341zm0 0 4.181 6 2.751-6.781zm3.131-6.527-3.131 6.527 6.932-.781z"/><path d="m-23.049 46.38-4.181-6-2.64 6.739zm-4.181-6-3.797-6.361-2.959 6.759zm-3.797-6.361 3.797 6.361 3.131-6.527z"/><path d="m-33.986 40.778-3.802-6.175-3.263 6.522zm-3.802-6.175-7.673 1.47 4.41 5.052zm-4.481-4.605 4.481 4.605 3.349-7.01z"/><path d="m-45.461 36.073 7.673-1.47-4.481-4.605zm7.673-1.47 6.761-.584-3.412-6.426z"/><path d="m-31.027 34.019-6.761.584 3.802 6.175zm.609 25.804-2.38-6.393-3.996 6.552zm-2.38-6.393 7.351-.149-4.423-6.162z"/><path d="m-32.798 53.43-7.128-.06 3.132 6.612zm0 0 2.38 6.393 4.971-6.542z"/><path d="m-32.798 53.43-4.112-6.26-3.016 6.2zm-4.112-6.26 4.112 6.26 2.928-6.311zm-30.092 2.702 3.221-6.293-7.535 1.48zm3.221-6.293-3.667-5.548-3.868 7.028zM-63.781 43.579l4.664 4.939 3.042-5.942z"/><path d="m-59.117 48.518-4.664-4.939-3.221 6.293zm-4.664-4.939 3.527-6.418-7.194.87zm3.527-6.418-3.527 6.418 7.706-1.003zm-3.699-5.907 3.308-6.595-6.807-.013zM-70.625 31.045l6.672.209-3.499-6.608zm9.98-6.386-3.308 6.595 7.095-.501z"/><path d="m-67.448 38.031 3.495-6.777-6.672-.209z"/><path d="m-63.953 31.254 3.699 5.907 3.396-6.408z"/><path d="m-60.254 37.161-3.699-5.907-3.495 6.777zm11.103-31.24-7.572.008 3.364 5.961zM-56.723 5.929l7.572-.008-3.7-5.891zm0 0-3.633-5.941-3.824 6.004z"/><path d="m-60.356-.012 3.633 5.941L-52.851.03z"/><path d="m-60.641 12.01 3.918-6.081-7.457.063zm3.918-6.081-3.918 6.081 7.282-.12zm-14.593 39.13-5.85-2.365-1.438 6.244z"/><path d="m-77.166 42.694-6.665.831 5.227 5.413z"/><path d="m-71.316 45.059-7.288 3.879 5.02 4.206zm-5.85-2.365-3.936-5.732-2.729 6.563zm21.903-97.781 3.231 6.531 4.748-4.607zm0 0 .284-7.968-6.16 2.464zm-3.893 6.608 3.893-6.608-6.555.913z"/><path d="m-55.263-55.087-3.893 6.608 7.124-.077zm0 0 5.107-3.712-4.823-4.256z"/><path d="m-50.156-58.799-5.107 3.712 7.979 1.924zm10.178 5.421 3.138-6.611-6.539.506z"/><path d="m-36.84-59.989-3.944-6.26-2.595 6.766zm3.034-6.676-3.034 6.676 6.386.152z"/><path d="m-36.84-59.989 3.034-6.676-6.978.416zm7.156 38.234-6.233 2.13 4.201 5.031zm-30.615 9.869-7.428-.174 3.737 6.055zm-34.592-13.708 6.884.077-3.857-6.399zm6.884.077 3.049 6.905 3.761-6.235z"/><path d="m-88.007-25.517 3.258-5.852-7.115-.547zm3.258-5.852-3.258 5.852 6.81.67zm-3.258 5.852-3.22 6.087 6.269.818z"/><path d="m-91.227-19.43 3.22-6.087-6.884-.077zm5.01 12.793-4.566-6.394-2.336 6.172zm3.363-5.789-7.929-.605 4.566 6.394zm-7.929-.605-7.998.339 5.662 5.833z"/><path d="m-84.958-18.612-5.825 5.581 7.929.605zm-5.825 5.581-.444-6.399-6.071.643z"/><path d="m-91.227-19.43.444 6.399 5.825-5.581zm23.779 57.461-6.334-.763 2.466 7.791zM-73.782 37.268l6.334.763-3.177-6.986z"/><path d="m-77.592 30.947 3.81 6.321 3.157-6.223zm-3.51 6.015 7.32.306-3.81-6.321zM-77.166 42.694l3.384-5.426-7.32-.306zm3.384-5.426-3.384 5.426 5.85 2.365zm40.945-90.725-7.141.079 3.026 6.174zm7.373.141-7.373-.141 2.951 6.277zm-4.422 6.136-2.951-6.277-4.115 6.253zM-32.837-53.457l7.373.141-4.99-6.521z"/><path d="m-36.84-59.989 4.003 6.532 2.383-6.38z"/><path d="m-32.837-53.457-4.003-6.532-3.138 6.611zM-49.57-30.174l4.063-5.906-7.32-.311zm-17.721 5.621 6.834.092-3.383-6.648zm31.374 4.928 1.478-8.137-5.559 3.518zm0 0 6.233-2.13-4.755-6.007zM-45.305.147l-3.29-5.782L-52.851.03zm6.988-12.435 5.424 4.642 1.177-6.948z"/><path d="m-35.917-19.625-2.4 7.337 6.601-2.306zM-56.768-30.56l-3.452-6.473-3.62 5.924zm-3.452-6.473 3.452 6.473 3.941-5.831zm3.452 6.473 7.198.386-3.257-6.217zm7.198.386-7.198-.386 3.244 6.501zM-56.768-30.56l-3.689 6.099 6.933.402z"/><path d="m-60.457-24.461 3.689-6.099-7.072-.549zm-3.442 6.32-3.392-6.412-3.716 6.31z"/><path d="m-67.727-12.06 3.828-6.081-7.108-.102zm7.428.174-3.6-6.255-3.828 6.081z"/><path d="m-63.899-18.141 3.442-6.32-6.834-.092zm18.392-17.939 3.203 6.032 4.492-4.637z"/><path d="m-37.812-34.685-4.492 4.637 7.865 2.286zm-11.758 4.511 7.266.126-3.203-6.032zm7.266.126 2.306 5.804 5.559-3.518zM-56.408-5.847l-3.948 5.835 7.505.042z"/><path d="m-60.356-.012 3.948-5.835-7.582-.158z"/><path d="m-56.408-5.847-3.891-6.039-3.691 5.881zm7.813.212-7.813-.212L-52.851.03zm10.051 7.039-1.866-6.898-4.895 5.641z"/><path d="m-33.324-1.127-7.086-4.367 1.866 6.898zm-7.086-4.367-8.185-.141 3.29 5.782z"/><path d="m-48.595-5.635 8.185.141-4.974-5.754zm8.185.141 2.093-6.794-7.067 1.04z"/><path d="m-38.317-12.288-2.093 6.794 7.517-2.152zm-7.067 1.04 2.583-6.425-6.924.138zm5.386-12.996-2.803 6.571 6.884-1.952z"/><path d="m-42.801-17.673 4.484 5.385 2.4-7.337z"/><path d="m-38.317-12.288-4.484-5.385-2.583 6.425zm-22.14-12.173 3.643 6.543 3.29-6.141z"/><path d="m-53.524-24.059-3.29 6.141 7.089.383zm-10.375 5.918 7.085.223-3.643-6.543zm7.085.223-7.085-.223 3.6 6.255z"/><path d="m-46.703-23.871-2.867-6.303-3.954 6.115zm0 0-6.821-.188 3.799 6.524z"/><path d="m-46.703-23.871 4.399-6.177-7.266-.126zm4.399-6.177-4.399 6.177 6.705-.373zm-4.399 6.177 3.902 6.198 2.803-6.571z"/><path d="m-42.801-17.673-3.902-6.198-3.022 6.336zM-56.408-5.847l3.546-5.738-7.437-.301z"/><path d="m-52.862-11.585 7.478.337-4.341-6.287zm0 0 4.267 5.95 3.211-5.613z"/><path d="m-52.862-11.585-3.546 5.738 7.813.212zm0 0-3.952-6.333-3.485 6.032z"/><path d="m-56.814-17.918 3.952 6.333 3.137-5.95z"/></svg>