<svg xmlns="http://www.w3.org/2000/svg" viewBox="-50.859 -50.857 100 101.713"><style>path{fill:#c8c5bd;stroke:navy;stroke-width:.5;stroke-linejoin:bevel}</style><path d="m42.644 16.294 5.115 1.188-3.042-5.558z"/><path d="m44.717 11.924 3.042 5.558 1.382-4.378zm-2.073 4.37 2.073-4.37-4.618-1.231zm3.32-38.063-2.293-4.297-2.86 5.452zm-94.877 35.7 1.719 5.026 2.865-4.63zm19.735-9.33-5.61.066 2.753 4.482zm-5.104 9.148 5.364.032-3.117-4.632zM-34.788 4.667-37.194 0l-3.167 4.891zM4.825 50.629l5.251-.778-3.32-4.36zm-24.887-3.895 4.475 1.677-1.894-5.878zM-4.124-9.003l-5.628-.027 3.211 4.465z"/><path d="m-9.752-9.03 5.628.027-3.441-4.649zm-11.227-9.706-2.716-4.947-2.459 5.064zM-18.389-23.446l-5.306-.237 2.716 4.947zM-.451-50.857l-5.252.319 2.414 4.577zm-1.607 18.786-2.988 4.184 5.589.565zm-10.525-11.185-2.662 5.358 5.037.058zm6.88-7.282-2.774 4.68 5.188-.103z"/><path d="m-8.477-45.858 2.774-4.68-5.337.892zm48.576 56.551-4.707-1.255 1.988 5.879zm-45.251 7.791-2.634 4.769 5.353-.106zm8.358-41.088L.164-18.55l5.662.76zm19.572-12.589 3.076 4.007 2.883-4.607zM33.78-38.02l-4.061-3.252-.982 5.479zM19.964-5.324l5.158-1.375-3.511-3.862zm8.193-21.592-2.303-4.27-3.077 4.862zm-1.789 14.743-1.246 5.474 4.988-1.33z"/><path d="m25.122-6.699 1.246-5.474-4.757 1.612zm-64.643 20.523-4.328-4.226-.48 4.729zm5.468-36.972-5.53-.172 2.838 4.787zm5.135 36.929-2.502 4.704 5.266.134z"/><path d="m-34.282 13.749 2.862 4.736 2.502-4.704zm-11.372-8.691 1.805 4.54 3.488-4.707zm55.73 44.793 1.599-5.225-4.919.865zm1.599-5.225 3.588 3.888 1.46-4.819zm3.588 3.888-3.588-3.888-1.599 5.225zM2.749 14.058l3.077 3.732 1.415-5.795z"/><path d="m-23.563 13.862-5.355-.081 2.764 4.838zM-.543-4.763l-3.581-4.24-2.417 4.438z"/><path d="m-.543-4.763 2.005-4.736-5.586.496zM-9.752 9.03l3.211-4.465-5.796-.011zm-2.585-13.584 2.585-4.476-5.578-.107z"/><path d="m-9.752-9.03-2.585 4.476 5.796-.011zm-8.487-4.847-2.617 4.698 5.526.042zm13.193-14.01-5.328-.198 2.588 4.832z"/><path d="m-10.374-28.085-2.673 4.807 5.261.025zm-18.357 4.735 2.211-5.368-4.772.808z"/><path d="m-34.053-23.148 5.322-.202-2.561-4.56z"/><path d="m-28.731-23.35 5.036-.333-2.825-5.035zm5.036-.333-5.036.333 2.577 4.731zm2.599-4.621-2.8-4.751-2.624 4.337z"/><path d="m-23.896-33.055 2.8 4.751 2.987-4.393zm2.8 4.751-2.599 4.621 5.306.237z"/><path d="m-23.695-23.683 2.599-4.621-5.424-.414zm6.214-18.85 2.236 4.635 2.662-5.358zm49.084 74.482-5.749-.763 2.883 4.607zm5.618 2.709 3.54-4.242-4.913-.517zm8.743-12.889 1.795-4.287-5.115-1.188zm-51.116-3.285 2.754-4.711-5.167-.121zm6.614-8.985 5.779 2.496-1.935-5.551zm3.161-8.266.683 5.211 4.252-3.895zm9.997 2.666 1.422 4.825 3.922-3.4zM3.206-22.604 6.1-26.92l-5.557-.402zm-5.639-.543-2.613-4.74-2.74 4.634z"/><path d="m-5.046-27.887 2.613 4.74 2.976-4.175zm2.613 4.74 5.639.543-2.663-4.718zm5.639.543-5.639-.543L.164-18.55z"/><path d="m-2.433-23.147-2.719 4.663 5.316-.066zm-2.719 4.663 2.719-4.663-5.353-.106zm-5.236.021 5.236-.021-2.634-4.769zM-13.047-23.278l2.659 4.815 2.602-4.79z"/><path d="m-5.152-18.484-5.236.021 2.823 4.811zm21.194 9.76 5.569-1.837-3.715-2.89z"/><path d="m22.205-16.495-4.309 3.044 3.715 2.89z"/><path d="m17.896-13.451 4.309-3.044-6.007-1.106zm11.823-27.821-4.585 1.926 3.603 3.553z"/><path d="m25.134-39.346 4.585-1.926-4.713-3.015zm0 0-2.356 4.153 5.959-.6zm-3.523 49.907 3.511-3.862-5.158-1.375zm4.757 1.612-1.246-5.474-3.511 3.862z"/><path d="m25.122 6.699 1.246 5.474 3.742-4.144zm7.989-32.679-4.954-.936 1.894 5.01zm2.281 16.542-3.583-3.51-1.699 4.919zm-3.583-3.51-5.441.775 3.742 4.144zm-69.622 22.18 3.025-4.565-5.573.224zm0 0 3.531 4.517 2.247-4.6z"/><path d="m-34.788 4.667-3.025 4.565 5.778-.083zm.506 9.082-3.531-4.517-1.708 4.592zm-3.531-4.517-6.036.366 4.328 4.226z"/><path d="m-43.849 9.598 6.036-.366-2.548-4.341zm12.557 18.312-2.73 3.936 4.328 1.994z"/><path d="m-26.52 28.718-4.772-.808 1.598 5.93zm6.16 8.264 2.879 5.551 2.236-4.635zm-24.674-60.616 5.451.314-2.824-4.756zm8.142-3.912 2.839 4.398 2.761-4.762z"/><path d="m-36.892-27.546-2.433-4.706-3.082 4.176zm0 0-2.691 4.226 5.53.172z"/><path d="m-39.583-23.32 2.691-4.226-5.515-.53zm2.838 41.853 2.463-4.784-5.239.075zm0 0 5.325-.048-2.862-4.736zm-7.104-8.935-5.064 4.333 4.584.396z"/><path d="m-43.849 9.598-6.131-.187 1.067 4.52zm-1.805-4.54-4.326 4.353 6.131.187zM-49.98 9.411l4.326-4.353-4.988-.364zM-37.194 0h-4.939l1.772 4.891z"/><path d="m-42.133 0-3.521 5.058 5.293-.167zm57.396 48.514 5.299-1.997-3.839-2.822zm-.509-17.503 2.838 4.606 2.549-4.904zm-.305 8.571-2.774 5.044 5.048-.931zm-3.727-22.431 1.867-4.408-5.348-.748zm-4.896.639 4.896-.639-3.481-5.156zm-2.37 13.823 2.881 4.332 2.659-4.74z"/><path d="m6.337 35.945-2.881-4.332-2.503 4.794zm-22.022-17.363-2.704 4.864 5.342-.168zm7.899 4.671-2.602-4.79-2.659 4.815zm-2.602-4.79 5.236.021-2.413-4.832z"/><path d="m-5.152 18.484-5.236-.021 2.602 4.79zm-5.236-.021-5.297.119 2.638 4.696zm-10.468-9.284-2.707 4.683 5.324.015zM-4.473 0l3.93-4.763-5.998.198zm3.93-4.763L-4.473 0H0zm-1.855-9.01-2.754-4.711-2.413 4.832zm-1.726 4.77 1.726-4.77-5.167.121zm-1.028-9.481 2.754 4.711L.164-18.55zm6.614 8.985-3.86-4.274-1.726 4.77z"/><path d="M5.306-6.444-.543-4.763l5.166 3.53z"/><path d="m4.623-1.233-5.166-3.53L0 0zm.683-5.211L1.462-9.499-.543-4.763zM4.623-1.233l4.935-1.316-4.252-3.895zM-15.273 0l-2.716-4.578L-20.806 0zm-5.583-9.179 2.867 4.601 2.659-4.559z"/><path d="m-12.337-4.554-5.652-.024L-15.273 0z"/><path d="m-17.989-4.578 5.652.024-2.993-4.583zm-5.574-9.284 2.584-4.874-5.175.117zm0 0 5.324-.015-2.74-4.859zm2.707 4.683-2.707-4.683-2.84 4.701z"/><path d="m-18.239-13.877-5.324.015 2.707 4.683z"/><path d="m-23.563-13.862-5.355.081 2.515 4.62z"/><path d="m-28.918-13.781 5.355-.081-2.591-4.757zm-3.117 4.632 2.857 4.548 2.775-4.56zm2.857 4.548-2.857-4.548-2.753 4.482zm-2.857-4.548 3.117-4.632-5.364.032z"/><path d="m-28.918-13.781-3.117 4.632 5.632-.012zm2.398-14.937-3.174-5.122-1.598 5.93z"/><path d="m-23.896-33.055-5.798-.785 3.174 5.122zm10.994.08-2.343-4.923-2.864 5.201zM-15.245-37.898l2.343 4.923 2.694-4.865zM-31.42-18.485l2.502 4.704 2.764-4.838zm0 0-2.633-4.663-2.692 4.615z"/><path d="m-34.282-13.749 2.862-4.736-5.325-.048z"/><path d="m-28.918-13.781-2.502-4.704-2.862 4.736zm-2.502-4.704 2.689-4.865-5.322.202zm2.689-4.865-2.689 4.865 5.266-.134zm21.927-18.078-5.779-1.828 2.375 5.416zm0 0 5.443.226-1.928-4.759z"/><path d="m-8.477-45.858 1.673 4.43 3.515-4.533z"/><path d="m-6.804-41.428-1.673-4.43-4.106 2.602zm0 0 2.273 4.627 3.17-4.401z"/><path d="m-4.531-36.801-2.273-4.627-3.404 3.588zm-10.714-1.097-5.115.916 2.251 4.285zm-5.115.916-3.536 3.927 5.787.358z"/><path d="m-17.481-42.533-2.879 5.551 5.115-.916zm4.898-.723 4.106-2.602-2.563-3.788zm0 0 1.543-6.39-4.547 1.235zm-4.898.723 1.894-5.878-4.475 1.677z"/><path d="m-15.587-48.411-1.894 5.878 4.898-.723zm41.441 79.597-3.077-4.862-2.636 4.389zm5.749.763 5.618 2.709-1.373-4.759zm-1.884 9.323 4.061-3.252-5.043-2.227z"/><path d="m33.78 38.02-2.177-6.071-2.866 3.844zm-2.177-6.071 2.177 6.071 3.441-3.362zM-.543 4.763l5.166-3.53L0 0zm0 0L-4.473 0l-2.068 4.565z"/><path d="m-4.473 0 3.93 4.763L0 0zm7.679 22.604L.164 18.55l-2.597 4.597z"/><path d="m.164 18.55-5.316-.066 2.719 4.663zm0 0 5.662-.76-3.077-3.732z"/><path d="m5.826 17.79-5.662.76 3.042 4.054z"/><path d="m.164 18.55-2.562-4.777-2.754 4.711z"/><path d="M-2.398 13.773.164 18.55l2.585-4.492zm14.987-1.03-2.037-4.994-3.311 4.246zm-2.037-4.994 4.068-3.85-5.062-1.35zm0 0L5.306 6.444l1.935 5.551z"/><path d="m5.306 6.444 5.246 1.305-.994-5.2zm10.736 2.28-5.49-.975 2.037 4.994zm-5.49-.975 5.49.975-1.422-4.825zm11.059 2.812-1.647-5.237-3.922 3.4zm0 0-3.715 2.89 4.309 3.044z"/><path d="m21.611 10.561-5.569-1.837 1.854 4.727z"/><path d="m17.896 13.451-1.854-4.727-3.453 4.019zm13.913-.503 3.583-3.51-5.282-1.409zm-5.441-.775 5.441.775-1.699-4.919zM-9.752-9.03l-3.126-4.719-2.452 4.612zm-3.126-4.719 3.126 4.719 2.187-4.622zm0 0-5.361-.128 2.909 4.74zm2.49-4.714-2.49 4.714 5.313.097zM8.686-22.26l-5.48-.344 2.62 4.814zM6.1-26.92l2.586 4.66 3.024-4.46z"/><path d="M8.686-22.26 6.1-26.92l-2.894 4.316zm0 0 5.265.32-2.241-4.78zm3.903 9.517 5.307-.708-1.698-4.15zm9.616-3.752 4.163 4.322 1.068-4.834zm0 0-.594 5.934 4.757-1.612zm-2.467-4.95-5.787-.495 2.247 4.339zm2.467 4.95-2.467-4.95-3.54 3.844zM-1.361-41.202l3.114-4.741-5.042-.018z"/><path d="m1.753-45.943-2.204-4.914-2.838 4.896zm-.8 9.536-5.484-.394 2.473 4.73zm-5.484-.394 5.484.394-2.314-4.795zm19.285 5.79-5.758-.194 2.714 4.485z"/><path d="M8.996-31.205 6.1-26.92l5.61.2zm16.858.019-5.713.473 2.636 4.389z"/><path d="m22.778-35.193-2.637 4.48 5.713-.473zm20.893 9.127-5.068.703 2.208 4.749zm-15.514-.85 3.446-5.033-5.749.763zm-2.303-4.27 5.749-.763-2.866-3.844zm5.749-.763 2.177-6.071-5.043 2.227z"/><path d="m33.111-25.98-1.508-5.969-3.446 5.033zm2.644 4.959-2.644-4.959-3.06 4.074zM35.755-21.021l2.848-4.342-5.492-.617zm2.848-4.342-2.848 4.342 5.056.407zm6.114 13.439 3.042-5.558-5.115 1.188zm3.042-5.558-3.042 5.558 4.424-1.18zm-5.115 1.188 3.32-5.475-5.153 1.155zm-2.545 5.601 2.545-5.601-5.264.977z"/><path d="m44.717-11.924-2.073-4.37-2.545 5.601zm-2.073-4.37 5.115-1.188-1.795-4.287zm-74.857 55.65 5.783-1.746-3.264-3.77z"/><path d="m-29.694 33.84-4.328-1.994-1.67 4.385zm-1.726-15.355 2.689 4.865 2.577-4.731zm4.9 10.233-2.211-5.368-2.561 4.56zm16.146-.633 2.588-4.832-5.261.025zm0 0-2.528 4.89 5.247-.205zm-13.522 4.97-2.624-4.337-3.174 5.122z"/><path d="m-26.43 37.61 2.534-4.555-5.798.785zm-.09-8.892 2.624 4.337 2.8-4.751zm6.16 8.264-3.536-3.927-2.534 4.555zm-1.986 3.9 2.284 5.852 2.581-4.201zm2.284 5.852-2.284-5.852-1.937 3.805z"/><path d="m-20.36 36.982-1.986 3.9 4.865 1.651z"/><path d="m-22.346 40.882 1.986-3.9-6.07.628zm-19.612-59.795-3.076-4.721-2.16 4.677zm2.375-4.407-2.375 4.407 5.213.38z"/><path d="m-45.034-23.634 3.076 4.721 2.375-4.407zM-37.194 0h5.357l-2.951-4.667zm8.016 4.601L-31.837 0l-2.951 4.667zM-31.837 0h-5.357l2.406 4.667zm0 0 2.659-4.601-5.61-.066zM-26.339 0h-5.498l2.659 4.601zm-5.498 0h5.498l-2.839-4.601zm-15.357 18.957 5.236-.044-2.371-4.586zm5.236-.044 2.437-5.089-4.808.503zm0 0 5.213-.38-2.776-4.709zm-3.696-13.855L-46.563 0l-4.079 4.694z"/><path d="M-50.642 4.694-46.563 0h-4.296zM-46.563 0l-4.079-4.694L-50.859 0zm4.43 0h-4.43l.909 5.058zM3.901 40.914l2.436-4.969-5.384.462zm21.953-9.728-3.076 4.007 5.959.6z"/><path d="m22.778 35.193 3.076-4.007-5.713-.473z"/><path d="m17.592 35.617 5.186-.424-2.637-4.48zm-5.765-.239 2.927-4.367-5.758.194z"/><path d="m6.337 35.945 5.49-.567-2.831-4.173zm8.417-4.934-2.927 4.367 5.765.239zm-2.927 4.367 2.622 4.204 3.143-3.965zm2.927-4.367L11.71 26.72l-2.714 4.485zm-11.298.602-5.514.458 3.011 4.336zm-19.043 16.798 3.004-5.155-4.898-.723z"/><path d="m-17.481 42.533 4.898.723-2.662-5.358zm-3.498-23.797 5.294-.154-2.554-4.705zm0 0-2.584-4.874-2.591 4.757z"/><path d="m-23.563 13.862 2.584 4.874 2.74-4.859zm2.584 4.874 2.59 4.71 2.704-4.864zM-9.752 9.03l-3.126 4.719 5.313-.097z"/><path d="m-15.685 18.582 2.807-4.833-5.361.128zm5.297-.119-2.49-4.714-2.807 4.833zM-12.878 13.749l2.49 4.714 2.823-4.811zm-13.525-4.588-2.775-4.56-2.857 4.548zm-2.515 4.62 2.515-4.62-5.632-.012zm5.355.081-2.84-4.701-2.515 4.62z"/><path d="m-20.856 9.179-5.547-.018 2.84 4.701zM-15.273 0l-2.716 4.578 5.652-.024z"/><path d="M-17.989 4.578-15.273 0h-5.533zM-9.771 0h-5.502l2.936 4.554zm0 0-2.566-4.554L-15.273 0zm3.23 4.565L-9.771 0l-2.566 4.554z"/><path d="M-12.337-4.554-9.771 0l3.23-4.565zM-4.473 0h-5.298l3.23 4.565z"/><path d="M-9.771 0h5.298l-2.068-4.565zm12.52-14.058 4.492 2.063-1.415-5.795z"/><path d="m.164-18.55 2.585 4.492 3.077-3.732zm7.077 6.555L1.462-9.499l3.844 3.055z"/><path d="m7.241-11.995-4.492-2.063-1.287 4.559z"/><path d="m2.749-14.058-5.147.285 3.86 4.274z"/><path d="m-2.398-13.773 5.147-.285L.164-18.55zm-21.185 9.185 2.727-4.591-5.547.018zm0 0L-26.339 0h5.533zm-5.595-.013 5.595.013-2.82-4.573z"/><path d="m-26.339 0 2.756-4.588-5.595-.013zm2.756-4.588 5.594.01-2.867-4.601z"/><path d="m-17.989-4.578-5.594-.01L-20.806 0zm15.931-27.493-5.597-.699 2.609 4.883zm-5.597-.699 3.124-4.031-5.677-1.039z"/><path d="m-7.655-32.77-2.719 4.685 5.328.198zm3.124-4.031-3.124 4.031 5.597.699z"/><path d="m-7.655-32.77-5.247-.205 2.528 4.89zm-5.247-.205 5.247.205-2.553-5.07zm2.528 4.89-5.251.03 2.578 4.777z"/><path d="m-13.047-23.278-2.578-4.777-2.764 4.609zm-8.049-5.026 5.471.249-2.484-4.642z"/><path d="m-15.625-28.055-5.471-.249 2.707 4.858zm0 0 2.723-4.92-5.207.278zm2.723-4.92-2.723 4.92 5.251-.03zm-9.444-7.907 4.865-1.651-2.581-4.201z"/><path d="m-22.346-40.882 2.284-5.852-4.221 2.047z"/><path d="m-28.347-42.226 6.001 1.344-1.937-3.805zm6.001 1.344 1.986 3.9 2.879-5.551zM-4.124 9.003l-5.628.027 2.187 4.622zm-5.628.027 5.628-.027-2.417-4.438z"/><path d="m-2.398 13.773-1.726-4.77-3.441 4.649zm-1.726-4.77 3.581-4.24-5.998-.198zm-14.115-22.88 2.554-4.705-5.294-.154z"/><path d="m-15.685-18.582-2.704-4.864-2.59 4.71z"/><path d="m-15.685-18.582 2.638-4.696-5.342-.168z"/><path d="m-15.685-18.582 5.297.119-2.659-4.815z"/><path d="m-15.685-18.582 2.807 4.833 2.49-4.714z"/><path d="m-12.878-13.749-2.807-4.833-2.554 4.705zm23.6-3.402L8.686-22.26l-2.86 4.47zm-3.481 5.156 3.481-5.156-4.896-.639zm6.71-9.945-3.229 4.789 5.476-.45zm-5.265-.32 2.036 5.109 3.229-4.789zm3.903 9.517-1.867-4.408-3.481 5.156z"/><path d="m10.722-17.151 1.867 4.408 3.609-4.858zm-.17 9.402-.994 5.2 5.062-1.35zm-.994 5.2.994-5.2-5.246 1.305z"/><path d="m10.552-7.749-3.311-4.246-1.935 5.551z"/><path d="m10.552-7.749 2.037-4.994-5.348.748zm17.605-19.167-3.201 5.208 5.095-.198zm-3.201 5.208 2.48 4.701 2.615-4.899z"/><path d="m24.956-21.708 3.201-5.208-5.38.592z"/><path d="m27.436-17.007-2.48-4.701-2.751 5.213z"/><path d="m24.956-21.708-5.218.263 2.467 4.95zm-5.218.263 5.218-.263-2.179-4.616zM3.901-40.914l-2.148-5.029-3.114 4.741zM.953-36.407l2.948-4.507-5.262-.288zm.8-9.536 3.072-4.686-5.276-.228zm23.381 6.597-4.787-1.132 2.431 5.285zm-10.685-.236-2.774-5.044-2.558 4.364zM6.1-26.92l-2.644-4.693-2.913 4.291z"/><path d="m3.456-31.613-5.514-.458 2.601 4.749z"/><path d="M3.456-31.613.953-36.407l-3.011 4.336zm5.54.408-5.54-.408L6.1-26.92zm2.831-4.173 2.622-4.204-5.332-.68zm0 0-2.831 4.173 5.758.194zm2.124 13.438 3.299-4.2-5.54-.58zm3.299-4.2 2.488 4.695 3.039-4.879z"/><path d="m17.25-26.14-2.496-4.871-3.044 4.291zm2.488 4.695L17.25-26.14l-3.299 4.2z"/><path d="m17.25-26.14 2.891-4.573-5.387-.298zm2.891-4.573L17.25-26.14l5.527-.184zm20.62.297-2.158 5.053 5.068-.703zm-8.952 17.468.801-4.528-5.174.469zm-4.373-4.059 5.174-.469-2.559-4.43z"/><path d="m31.809-12.948-4.373-4.059-1.068 4.834zm.801-4.528 3.145-3.545-5.704-.885zm-68.302 53.707 1.67-4.385-5.303.406zm5.998-2.391-5.998 2.391 3.479 3.125zm-7.051-15.307 2.692 4.615 2.633-4.663zM-34.053 23.148l5.322.202-2.689-4.865zm5.322.202-5.322-.202 2.761 4.762zm10.342.096 2.764 4.609 2.578-4.777z"/><path d="m-15.625 28.055-2.764-4.609-2.707 4.858zm5.251.03-5.251-.03 2.723 4.92zm-5.251-.03 5.251.03-2.673-4.807zm-16.588 11.301 3.866 2.87 1.917-4.616zm3.866 2.87 6.001-1.344-4.084-3.272zm6.001-1.344-6.001 1.344 4.064 2.461zm-22.688-17.248 3.076-4.721-5.236.044zm48.935 17.28-2.148 5.029 5.003-.452zm-2.148 5.029 3.072 4.686 1.931-5.138zm23.381-6.597 4.585 1.926-.982-5.479zM29.719 41.272l-4.585-1.926-.128 4.941z"/><path d="m20.347 40.478 4.659 3.809.128-4.941zm2.431-5.285 2.356 4.153 3.603-3.553zM9.117 40.262l-5.216.652 2.855 4.577zm2.558 4.364-2.558-4.364-2.361 5.229z"/><path d="m14.449 39.582-5.332.68 2.558 4.364zM3.901 40.914l5.216-.652-2.78-4.317z"/><path d="m11.827 35.378-2.71 4.884 5.332-.68z"/><path d="m9.117 40.262 2.71-4.884-5.49.567zM6.1 26.92l-2.644 4.693 5.54-.408zm5.61-.2-5.61.2 2.896 4.285zm11.067-.396-5.527-.184 2.891 4.573zm-5.527-.184-2.496 4.871 5.387-.298z"/><path d="m17.25 26.14-5.54.58 3.044 4.291zm-19.308 5.931-2.473 4.73 5.484-.394z"/><path d="m-4.531 36.801 2.473-4.73-5.597.699zm-3.255-13.548 2.74 4.634 2.613-4.74z"/><path d="m-5.046 27.887-5.328.198 2.719 4.685z"/><path d="m-10.374 28.085 5.328-.198-2.74-4.634z"/><path d="m-2.058 32.071-2.988-4.184-2.609 4.883zm-3.645 18.467-2.774-4.68-2.563 3.788z"/><path d="m-12.583 43.256 1.543 6.39 2.563-3.788zm0 0 4.106 2.602 1.673-4.43z"/><path d="m-12.583 43.256-3.004 5.155 4.547 1.235zm-11.112-19.573-2.825 5.035 5.424-.414z"/><path d="m-18.389 23.446-5.306.237 2.599 4.621zm-10.342-.096 5.036.333-2.459-5.064zm5.036.333-5.036-.333 2.211 5.368z"/><path d="m-20.979 18.736-2.716 4.947 5.306-.237z"/><path d="m-23.695 23.683 2.716-4.947-5.175-.117zM-26.339 0l2.756 4.588L-20.806 0z"/><path d="M-23.583 4.588-26.339 0l-2.839 4.601z"/><path d="m-26.403 9.161 2.82-4.573-5.595.013zm2.82-4.573-2.82 4.573 5.547.018z"/><path d="m-17.989 4.578-5.594.01 2.727 4.591z"/><path d="m-23.583 4.588 5.594-.01L-20.806 0zm8.253 4.549-5.526.042 2.617 4.698zm2.452 4.612-2.452-4.612-2.909 4.74zm-2.452-4.612 5.578-.107-2.585-4.476z"/><path d="m-15.33 9.137 2.452 4.612 3.126-4.719zm-2.659-4.559 2.659 4.559 2.993-4.583z"/><path d="m-15.33 9.137-2.659-4.559-2.867 4.601zm-18.692-40.983-2.87 4.3 5.6-.364zm-5.303-.406 5.303.406-1.67-4.385zm2.433 4.706 2.87-4.3-5.303-.406zm7.198-6.294-4.328 1.994 2.73 3.936zm0 0-2.519-5.516-3.479 3.125z"/><path d="m-29.694-33.84-5.998-2.391 1.67 4.385z"/><path d="m-26.43-37.61-5.783-1.746 2.519 5.516zm0 0-3.264 3.77 5.798.785z"/><path d="m-20.36-36.982-6.07-.628 2.534 4.555zm-11.853-2.374 5.783 1.746-1.917-4.616z"/><path d="m-22.346-40.882-4.084 3.272 6.07.628z"/><path d="m-26.43-37.61 4.084-3.272-6.001-1.344zM1.462 9.499l-3.86 4.274 5.147.285z"/><path d="m1.462 9.499 1.287 4.559 4.492-2.063zm3.844-3.055-.683-5.211-5.166 3.53zm0 0L-.543 4.763l2.005 4.736z"/><path d="m-4.124 9.003 5.586.496-2.005-4.736zm5.586.496-5.586-.496 1.726 4.77zm25.974 7.508 4.373-4.059-5.441-.775zm8.319 4.014-3.145-3.545-2.559 4.43zM19.964-5.324l-3.922-3.4-1.422 4.825zm-7.375-7.419 3.453 4.019 1.854-4.727zm3.453 4.019 3.922 3.4 1.647-5.237z"/><path d="m10.552-7.749 5.49-.975-3.453-4.019z"/><path d="m16.042-8.724-5.49.975 4.068 3.85zm8.964-35.563-4.444-2.23-.215 6.039zM25.006-44.287l-4.659 3.809 4.787 1.132zm-18.25-1.204-2.855 4.577 5.216.652zm-1.931-5.138 1.931 5.138 3.32-4.36zm-.924 9.715 2.855-4.577-5.003-.452z"/><path d="m6.756-45.491-1.931-5.138-3.072 4.686zm0 0 4.919.865-1.599-5.225z"/><path d="m11.675-44.626-4.919-.865 2.361 5.229zm8.672 4.148-2.755 4.861 5.186.424zm-.206 9.765-2.549-4.904-2.838 4.606z"/><path d="m17.592-35.617 2.549 4.904 2.637-4.48zm0 0 2.755-4.861-5.898.896z"/><path d="m11.827-35.378 5.765-.239-3.143-3.965z"/><path d="m17.592-35.617-5.765.239 2.927 4.367zM3.456-31.613l2.881-4.332-5.384-.462z"/><path d="m6.337-35.945-2.436-4.969-2.948 4.507z"/><path d="m3.901-40.914 2.436 4.969 2.78-4.317zm2.436 4.969-2.881 4.332 5.54.408z"/><path d="m11.827-35.378-5.49-.567 2.659 4.74z"/><path d="m6.337-35.945 5.49.567-2.71-4.884zm30.884 1.287-5.618 2.709 4.245 2.05zm1.382 9.295-2.755-4.536-2.737 3.919z"/><path d="M37.221-34.658 33.78-38.02l-2.177 6.071zm-1.373 4.759-4.245-2.05 1.508 5.969zm4.913-.517-4.913.517 2.755 4.536zm-4.913.517 4.913-.517-3.54-4.242zm-.093 8.878 1.625 5.704 3.431-5.297zm1.625 5.704 5.264-.977-1.833-4.32zm0 0-5.571 2.369 3.583 3.51z"/><path d="m40.099-10.693-2.719-4.624-1.988 5.879zm-7.489-6.783 4.77 2.159-1.625-5.704z"/><path d="m37.38-15.317-4.77-2.159-.801 4.528zm-74.272 42.863-5.515.53 3.082 4.176zm2.87 4.3-2.87-4.3-2.433 4.706z"/><path d="m-36.892 27.546 2.87 4.3 2.73-3.936zm2.839-4.398-2.839 4.398 5.6.364zm15.944 9.549-2.251 4.285 5.115.916zm5.207.278-5.207-.278 2.864 5.201zm-10.994.08 5.787-.358-2.987-4.393z"/><path d="m-18.109 32.697-5.787.358 3.536 3.927zm2.484-4.642-2.484 4.642 5.207.278z"/><path d="m-18.109 32.697 2.484-4.642-5.471.249zM-37.813-9.232l5.778.083-2.247-4.6z"/><path d="m-32.035-9.149-5.778-.083 3.025 4.565zM1.753 45.943l-2.204 4.914 5.276-.228zm18.594-5.465-5.898-.896 2.274 4.113zm.215 6.039-.215-6.039-3.624 3.217z"/><path d="m14.449 39.582 5.898.896-2.755-4.861zm5.898.896 2.431-5.285-5.186.424z"/><path d="m20.347 40.478 4.787-1.132-2.356-4.153zm0 0 .215 6.039 4.444-2.23zM8.686 22.26l-2.86-4.47-2.62 4.814z"/><path d="m8.686 22.26 2.036-5.109-4.896.639zm0 0L6.1 26.92l5.61-.2z"/><path d="m6.1 26.92 2.586-4.66-5.48.344zm4.622-9.769 5.476.45-3.609-4.858zM16.198 17.601l1.698-4.15-5.307-.708zm1.698-4.15-1.698 4.15 6.007-1.106zM-10.208 37.84l-2.694-4.865-2.343 4.923zm-2.694-4.865 2.694 4.865 2.553-5.07zm2.694 4.865-2.375 5.416 5.779-1.828z"/><path d="m-12.583 43.256 2.375-5.416-5.037.058zm8.052-6.455-5.677 1.039 3.404 3.588zm-5.677 1.039 5.677-1.039-3.124-4.031zm8.847 3.362 5.262-.288-2.948-4.507zm0 0 3.114 4.741 2.148-5.029zM-4.531 36.801l3.17 4.401 2.314-4.795z"/><path d="m-1.361 41.202-3.17-4.401-2.273 4.627zm1.904-13.88-2.601 4.749 5.514-.458zm0 0L6.1 26.92l-2.894-4.316zm0 0 2.663-4.718-5.639.543z"/><path d="m6.1 26.92-5.557.402 2.913 4.291zm-5.557.402-5.589.565 2.988 4.184zM-5.046 27.887l5.589-.565-2.976-4.175zm43.649-2.524 2.158 5.053 2.91-4.35z"/><path d="m40.761 30.416-2.158-5.053-2.755 4.536zm-8.952-17.468 5.571 2.369-1.988-5.879z"/><path d="m40.099 10.693-2.719 4.624 5.264.977zm-7.489 6.783 4.77-2.159-5.571-2.369z"/><path d="m35.755 21.021 1.625-5.704-4.77 2.159zm-7.598 5.895-5.38-.592 3.077 4.862zm3.446 5.033-3.446-5.033-2.303 4.27zm-6.647-10.241 3.201 5.208 1.894-5.01zm3.201 5.208-3.201-5.208-2.179 4.616zm-5.952-10.421 4.163-4.322-4.757-1.612zm0 0 5.231.512-1.068-4.834zm5.231.512 5.174.469-.801-4.528z"/><path d="m32.61 17.476-5.174-.469 2.615 4.899zm-7.654 4.232 2.48-4.701-5.231-.512zm2.48-4.701-2.48 4.701 5.095.198zM11.675-44.626l3.588-3.888-5.187-1.337zM-39.583 23.32l-5.451.314 2.627 4.442zm-2.375-4.407 2.375 4.407 2.838-4.787zm2.375 4.407 5.53-.172-2.692-4.615z"/><path d="m-45.034 23.634 5.451-.314-2.375-4.407zm5.451-.314 2.691 4.226 2.839-4.398z"/><path d="m-36.892 27.546-2.691-4.226-2.824 4.756zM-46.563 0l.909-5.058-4.988.364zm.909-5.058L-46.563 0h4.43zm-4.326-4.353 4.326 4.353 1.805-4.54z"/><path d="m-45.654-5.058-4.326-4.353-.662 4.717zm-3.259-8.873 4.584-.396-2.865-4.63zM-44.329-14.327l2.371-4.586-5.236-.044zm.48 4.729-5.064-4.333-1.067 4.52z"/><path d="m-43.849-9.598-.48-4.729-4.584.396zm63.587 31.043 5.218.263-2.751-5.213z"/><path d="m24.956 21.708-5.218-.263 3.039 4.879zm-5.218-.263L17.25 26.14l5.527.184z"/><path d="m16.198 17.601 3.54 3.844 2.467-4.95zM-.451 50.857l-2.838-4.896-2.414 4.577z"/><path d="m-3.289 45.961-5.188-.103 2.774 4.68z"/><path d="m-8.477 45.858 5.188.103-3.515-4.533zm5.188.103 2.838 4.896 2.204-4.914z"/><path d="m-1.361 41.202-1.928 4.759 5.042-.018zm-1.928 4.759 1.928-4.759-5.443.226zm44.1-25.347-2.208 4.749 5.068.703zm0 0 5.153 1.155-3.32-5.475z"/><path d="m45.964 21.769-5.153-1.155 2.86 5.452zm-7.361 3.594 2.208-4.749-5.056.407z"/><path d="m40.811 20.614-3.431-5.297-1.625 5.704z"/><path d="m37.38 15.317 3.431 5.297 1.833-4.32zM33.111 25.98l5.492-.617-2.848-4.342z"/><path d="m33.111 25.98 2.644-4.959-5.704.885zm0 0-1.508 5.969 4.245-2.05zm5.492-.617-5.492.617 2.737 3.919z"/><path d="m28.157 26.916 4.954-.936-3.06-4.074z"/><path d="m33.111 25.98-4.954.936 3.446 5.033zM20.347-40.478l-3.624-3.217-2.274 4.113zm-3.624-3.217-5.048-.931 2.774 5.044z"/><path d="m20.562-46.517-3.839 2.822 3.624 3.217zm-5.299-1.997 1.46 4.819 3.839-2.822zm1.46 4.819-1.46-4.819-3.588 3.888zM-40.361-4.891l2.548-4.341-6.036-.366zm0 0L-37.194 0l2.406-4.667z"/><path d="M-40.361-4.891-42.133 0h4.939z"/><path d="m-37.813-9.232-2.548 4.341 5.573.224zm-7.841 4.174 5.293.167-3.488-4.707z"/><path d="m-40.361-4.891-5.293-.167L-42.133 0zm.84-8.933 1.708 4.592 3.531-4.517zm0 0 5.239.075-2.463-4.784zM-41.958-18.913l2.437 5.089 2.776-4.709zm4.145 9.681-1.708-4.592-4.328 4.226zm-1.708-4.592-4.808-.503.48 4.729z"/><path d="m-44.329-14.327 4.808.503-2.437-5.089zM17.25 26.14l-3.299-4.2-2.241 4.78zm-8.564-3.88 5.265-.32-3.229-4.789z"/><path d="m13.951 21.94-5.265.32 3.024 4.46zm0 0 2.247-4.339-5.476-.45zm0 0 5.787-.495-3.54-3.844zm5.787-.495-5.787.495 3.299 4.2z"/></svg>