<svg xmlns="http://www.w3.org/2000/svg" viewBox="0 0 100 100"><style>path{fill:#c8c5bd;stroke:navy;stroke-width:.5;stroke-linejoin:bevel}</style><path d="m24.769 95.388.01 4.612h4.544zm0 0 5.851-.202-2.897-4.431zm26.986.006L55 100l1.142-5.709zM22.107 33.679l-1.574 4.723 5.624-1.61zM5.032 100l-3.521-4.533L0 100z"/><path d="M1.511 95.467 5.032 100l1.997-4.852zM20.231 100l4.538-4.612-6.039-.042z"/><path d="M24.769 95.388 20.231 100h4.548zM15.213 100h5.018l-1.501-4.654zm9.556-4.612L29.323 100l1.297-4.814zm66.362-47.423 5.25-1.584-3.578-3.578zm0 0-1.343 5.177 5.117-1.574zM77.113 33.324l5.112-1.099-3.676-3.676zM41.804 63.449l-5.297 1.001 3.613 3.974z"/><path d="m36.507 64.45 5.297-1.001-2.614-4.27zm44.108-13.538-.868 5.32 4.97-1.529zM57.124 89.378l1.035-5.175-4.96.913zM34.245 100l1.966-4.893-5.591.079zm0 0-3.625-4.814L29.323 100zM50.003 5.768l3.924-1.841L50 0z"/><path d="m46.093 3.907 3.91 1.861L50 0zm3.91 1.861-3.91-1.861 1.051 5.825zm5.58 57.899-3.779-3.91-1.188 5.438zM12.741 95.243 15.213 100l3.517-4.654zm4.376-46.595-1.63 4.891 5.49-.716z"/><path d="m21.986 46.929-1.009 5.894 4.301-2.881zm74.395-.548-1.476 5.187L100 50z"/><path d="m91.131 47.965 3.774 3.603 1.476-5.187zm-1.86-8.694-3.51-3.51-1.88 5.135zm3.532 3.532-3.532-3.532-1.833 5.148zM72.995 31.278l-2.902-4.087-2.583 4.896z"/><path d="m70.093 27.191-5.806.607 3.223 4.289zm15.668 8.57-5.323 1.513 3.443 3.622z"/><path d="m82.225 32.225-1.787 5.049 5.323-1.513z"/><path d="m80.438 37.274 1.787-5.049-5.112 1.099zm-21.35 42.285-3.622-5.466-1.848 4.854zm-11.562-2.603 1.92 4.611 4.172-2.62zm23.731-23.315-1.092 5.539 4.863-1.496zm-5.093 1.91-1.012 5.172 5.013-1.543z"/><path d="m65.152 60.723 1.012-5.172-4.965.733zm25.979-12.758-5.302 1.516 3.959 3.661zm-1.343 5.177-3.959-3.661-1.112 5.222zm-3.959-3.661-5.214 1.431 4.102 3.791zm-28.515 2.227 5.101-.627-2.573-4.604zM33.24 80.858l2.532-5.264-6.035 1.457zm-2.118-13.653-.437 5.366L35 70z"/><path d="m36.507 64.45-5.385 2.755L35 70zm0 0L35 70l5.12-1.576zm-9.053 17.237 5.786-.829-3.503-3.807zm3.166 13.499 2.826-4.74-5.723.309zM36.211 95.107l-2.765-4.661-2.826 4.74zm9.882-91.2-3.629 3.629 4.68 2.196zm4.983 27.56-3.121-4.803-2.307 4.807z"/><path d="m42.533 27.081-2.698 4.292 5.813.098z"/><path d="m47.955 26.664-5.422.417 3.115 4.39zm12.518 35.498 4.679-1.439-3.953-4.439zm-3.542-4.048-1.348 5.553 4.89-1.505zm-16.092-8.781-2.597-4.61-2.596 4.815zm-7.89-4.44-2.415 4.791 5.112-.146z"/><path d="m38.242 44.723-5.293.17 2.697 4.645zM7.553 77.34l-1.537 4.611 5.348-.381zm5.188 17.903L10.072 100h5.141zm-3.544-9.067-4.798.626 4.997 4.012z"/><path d="m6.016 81.951 3.181 4.225 2.167-4.606zm-1.617 4.851 4.798-.626-3.181-4.225zm12.718-38.154 4.869-1.719-3.103-3.579zm4.869-1.719-4.869 1.719 3.86 4.175zm56.563-18.38L75.31 25.31l-2.315 5.968zm-8.456-1.358 5.217-1.881-3.498-3.498z"/><path d="m72.995 31.278 2.315-5.968-5.217 1.881zm5.554-2.729-5.554 2.729 4.118 2.046zm-15.266-9.271 4.947-1.048-3.776-3.776zM31.122 67.205l.526-4.39-5.259.509zm.526-4.39-.526 4.39 5.385-2.755zm-14.46.263 1.588-5.312-4.988.869zm-1.701-9.539 3.289 4.227 2.201-4.943z"/><path d="m18.776 57.766-3.289-4.227-1.699 5.096zm0 0-1.588 5.312 4.608-.512z"/><path d="m23.766 57.866-4.99-.1 3.02 4.8zm-4.99-.1 4.99.1-2.789-5.043z"/><path d="m23.766 57.866 3.166-3.788-5.955-1.255z"/><path d="m26.932 54.078-1.654-4.136-4.301 2.881z"/><path d="m25.278 49.942 1.654 4.136 3.602-4.394zm33.81 29.617-5.47-.612 4.541 5.256zm-.929 4.644-4.541-5.256-.419 6.169zm-4.541-5.256 1.848-4.854-4.748-.949zm5.47.612L60 75l-4.534-.907z"/><path d="m47.526 76.956 6.092 1.991-2.9-5.803zm6.092 1.991-4.172 2.62 3.753 3.549zm-9.561 2.199 3.469-4.19-5.934-.794zm0 0 5.389.421-1.92-4.611z"/><path d="m47.526 76.956-2.264-4.904-3.67 4.11z"/><path d="m45.262 72.052 2.264 4.904 3.192-3.812zm-1.233-13.677-1.314-4.382-3.525 5.186zm-2.225 5.074 2.225-5.074-4.839.804zm0 0 3.676 3.326 1.699-5.267zm29.453-9.808-5.093 1.91 4.001 3.629zm-.988-17.003 2.726-5.36-5.485.809zm-7.854 14.443 2.958-5.032-5.531.428zm5.67-9.263-2.712 4.231 5.868 1.346zm10.161.086 3.669 3.902 1.966-4.91z"/><path d="m80.438 37.274-2.192 4.63 5.635-1.008z"/><path d="m87.438 44.419 1.833-5.148-5.39 1.625zm0 0-1.609 5.062 5.302-1.516z"/><path d="m92.803 42.803-5.365 1.616 3.693 3.546zm-6.974 6.678 1.609-5.062-5.523 1.387z"/><path d="m85.829 49.481-3.914-3.675-1.3 5.106zm-3.914-3.675 5.523-1.387-3.557-3.523zm-65.4 36.082 2.781 4.801 2.544-4.735zm8.254 13.5-2.95-4.31-3.089 4.268zM21.819 91.078l2.95 4.31 2.954-4.633zM9.073 72.78l5.583-.287-4.053-4.301zm30.875-1.79-4.176 4.604 5.82.568z"/><path d="m45.262 72.052-5.314-1.062 1.644 5.172zm-9.49 3.542-5.087-3.023-.948 4.48zM30.685 72.571l-5.382.254 4.434 4.226zm5.087 3.023L35 70l-4.315 2.571z"/><path d="m35.772 75.594 4.176-4.604L35 70zm-10.469-2.769 5.382-.254-4.227-4.259z"/><path d="m31.122 67.205-4.664 1.107 4.227 4.259zm7.966 23.141-5.642.1 2.765 4.661zm8.311-4.25-3.342-4.95-2.397 4.514zm2.047-4.529-2.047 4.529 5.8-.98z"/><path d="m44.057 81.146 3.342 4.95 2.047-4.529zm12.085 13.145.982-4.913-5.992.897zm-4.387 1.103L49.618 100H55zM27.454 81.687l3.158 4.208 2.628-5.037zm5.992 8.759-2.834-4.551-2.889 4.86zm-1.539-72.353 4.833 1.188-1.08-4.941zm9.254-.99-4.421 2.178 2.857 3.64zm-7.644 6.308 3.223-4.13-4.833-1.188z"/><path d="m36.74 19.281-3.223 4.13 6.08-.49zM25 25l5.072 2.225-1.675-5.622zm8.517-1.589-5.12-1.808 1.675 5.622z"/><path d="m28.397 21.603 5.12 1.808-1.61-5.318zM25 25l-1.398 4.193 6.47-1.968zm2.988 6.885-5.881 1.794 4.05 3.113zm-4.386-2.692 4.386 2.692 2.084-4.66z"/><path d="m27.988 31.885-4.386-2.692-1.495 4.486zm0 0 5.826-.631-3.742-4.029zm5.826-.631 3.573 4.381 2.448-4.262zm20.814 15.161 2.686 5.293 2.528-5.231zM43.953 13.241l-2.792 3.862 5.91.613zm-1.489-5.705 1.489 5.705 3.191-3.509zm9.242 33.708-2.985-5.065-2.485 4.4zm-2.985-5.065 2.355-4.712-5.428.004z"/><path d="m33.814 31.254 2.727-4.033-6.469.004zm-.297-7.843 3.024 3.81 3.056-4.3z"/><path d="m36.541 27.221-3.024-3.81-3.445 3.814zm0 0-2.727 4.033 6.021.119zm5.992-.14-5.992.14 3.294 4.152zm-5.992.14 5.992-.14-2.936-4.16zm8.113-5.24-3.493-4.878-1.564 5.818zm0 0 5.732.123-3.315-4.388z"/><path d="m41.161 17.103 3.493 4.878 2.417-4.265z"/><path d="m50.386 22.104-5.732-.123 3.301 4.683zm-5.732-.123-2.121 5.1 5.422-.417zm-2.121 5.1 2.121-5.1-5.057.94zm14.781 24.627 3.885 4.576 1.216-5.203zm-5.51 8.049 5.127-1.643-3.527-3.329z"/><path d="m56.931 58.114.383-6.406-3.91 3.077zm.383-6.406-.383 6.406 4.268-1.83zm-.383 6.406-5.127 1.643 3.779 3.91zm0 0 3.542 4.048.726-5.878zm-44.786 5.452-1.542 4.626 5.614-.283zm0 0 5.043-.488-3.4-4.443zM1.511 95.467l5.518-.319-4.027-4.153zm5.518-.319 5.712.095-3.345-4.429z"/><path d="m3.002 90.995 4.027 4.153 2.367-4.334z"/><path d="m3.002 90.995 6.394-.181-4.997-4.012zm4.027 4.153L10.072 100l2.669-4.757zM10.072 100l-3.043-4.852L5.032 100zm10.461-61.598 3.698 3.391 1.926-5.001z"/><path d="m24.231 41.793-3.698-3.391-1.65 4.948zm0 0 5.524-1.217-3.598-3.784zm-2.245 5.136 2.245-5.136-5.348 1.557zm28.4-24.825 3.107 4.689 2.6-4.675zm3.107 4.689-2.417 4.674 5.289.55z"/><path d="m53.493 26.793-3.107-4.689-2.431 4.56zm-2.417 4.674 2.417-4.674-5.538-.129z"/><path d="m58.721 27.604-5.228-.811 2.872 5.224zm-5.228-.811 5.228.811-2.628-5.486zm13.13-3.41 3.47 3.808 1.719-5.379z"/><path d="m68.23 18.23-1.607 5.153 5.189-1.571zm-1.607 5.153-2.336 4.415 5.806-.607z"/><path d="m63.283 19.278 3.34 4.105 1.607-5.153zM26.389 63.324l-2.623-5.458-1.97 4.7zm4.733 3.881-4.733-3.881.069 4.988zm-.588-17.521 1.865 4.631 3.247-4.777z"/><path d="m26.932 54.078 5.467.237-1.865-4.631zm8.84 21.516 2.809 5.051 3.011-4.483z"/><path d="m38.581 80.645-2.809-5.051-2.532 5.264zm5.476.501-5.476-.501 3.079 5.015z"/><path d="m38.581 80.645 5.476.501-2.465-4.984zm5.448-22.27 4.246-3.014-5.56-1.368zm36.586-7.463 1.3-5.106-5.415 1.039zm-.868 5.32-4.161-4.312-.558 5.764z"/><path d="m75.586 51.92 4.161 4.312.868-5.32zm0 0-4.329 1.721 3.771 4.043zM58.721 27.604l3.184 4.763 2.382-4.569z"/><path d="m61.905 32.367-3.184-4.763-2.356 4.413zm2.382-4.569-2.382 4.569 5.605-.28zm-4.895 9.089 2.513-4.52-5.54-.35zm3.023 14.194-1.216 5.203 4.965-.733zm0 0 3.749 4.47 1.266-5.027zm5.015-.557 3.827 3.117-.016-6.246z"/><path d="m71.257 53.641-3.827-3.117-1.266 5.027zm-3.827-3.117-2.057-4.475-2.958 5.032z"/><path d="m65.373 46.049 2.057 4.475 3.811-3.129zm-2.987-4.454 2.987 4.454 2.712-4.231z"/><path d="m65.373 46.049-2.987-4.454-2.544 4.882zm9.467-8.56 5.598-.215-3.325-3.95z"/><path d="m72.995 31.278 1.845 6.211 2.273-4.165z"/><path d="m70.269 36.638 4.571.851-1.845-6.211zm4.571.851 3.406 4.415 2.192-4.63zM9.197 86.176l4.767.492-2.6-5.098z"/><path d="m13.964 86.668-4.767-.492.199 4.638zm2.551-4.78-2.551 4.78 5.332.021z"/><path d="m13.964 86.668 2.551-4.78-5.151-.318zm9.999-9.333 3.491 4.352 2.283-4.636z"/><path d="m27.454 81.687-3.491-4.352-2.123 4.619zm-3.491-4.352 1.34-4.51-5.182-.396z"/><path d="m25.303 72.825-1.34 4.51 5.774-.284zm-8.115-9.747-.971 4.831 5.354-.344zM12.145 63.566l4.072 4.343.971-4.831zm4.072 4.343-1.561 4.584 5.465-.064z"/><path d="m14.656 72.493 1.561-4.584-5.614.283zm1.859 9.395-3.409-4.853-1.742 4.535zm-3.409-4.853-5.553.305 3.811 4.23zM7.553 77.34l5.553-.305-4.033-4.255z"/><path d="m13.106 77.035 1.55-4.542-5.583.287zm28.546 18.051-2.564-4.74-2.877 4.761zM39.337 100l-3.126-4.893L34.245 100zm2.315-4.914L39.337 100h5.173z"/><path d="m39.337 100 2.315-4.914-5.441.021zm8.062-13.904 3.733 4.179 2.067-5.159zm3.733 4.179 5.992-.897-3.925-4.262zm.623 5.119-.623-5.119-4.182 4.581z"/><path d="m56.142 94.291-5.01-4.016.623 5.119zm-14.49.795L44.51 100l2.44-5.144zm5.298-.23L44.51 100h5.108zm0 0L49.618 100l2.137-4.606zm-25.131-3.778 3.077-4.643-5.6.254zm3.077-4.643 2.558-4.748-5.614.267z"/><path d="m19.296 86.689 5.6-.254-3.056-4.481zm5.6-.254-3.077 4.643 5.904-.323zm0 0 5.716-.54-3.158-4.208z"/><path d="m30.612 85.895-5.716.54 2.827 4.32zM50.003 5.768l2.915 3.953 1.009-5.794zm2.915 3.953-2.915-3.953-2.859 3.964zm0 0 4.668-2.135-3.659-3.659zm0 0 3.255 3.535 1.413-5.67zm.319 8.044-2.851 4.339 5.707.014z"/><path d="m50.386 22.104 2.851-4.339-6.166-.049zm8.638-4.931-5.787.592 2.856 4.353z"/><path d="m56.173 13.256-2.936 4.509 5.787-.592z"/><path d="m64.454 14.454-3.306-3.306-2.124 6.025zm0 0-5.43 2.719 4.259 2.105z"/><path d="m61.148 11.148-4.975 2.108 2.851 3.917z"/><path d="m56.173 13.256 4.975-2.108-3.562-3.562zM40.724 40.263l-5.526-.104 3.044 4.564z"/><path d="m32.949 44.893 2.249-4.734-5.443.417zm2.249-4.734-2.249 4.734 5.293-.17zm2.189-4.524-2.189 4.524 5.526.104zm3.774-18.532L35.66 14.34l1.08 4.941zm0 0-2.223-6.041-3.278 3.278zm-2.223-6.041 5.015 2.179-1.489-5.705zm5.015 2.179-5.015-2.179 2.223 6.041zm-4.118 18.132 3.268 4.474 2.545-4.376z"/><path d="m37.387 35.635 5.716.212-3.268-4.474zm5.716.212-2.379 4.416 5.512.316zm0 0-5.716-.212 3.337 4.628zm0 0 5.618.332-3.073-4.708z"/><path d="m48.721 36.179-5.618-.332 3.133 4.732zm2.355-4.712 2.93 5.12 2.359-4.57zm2.93 5.12 5.386.3-3.027-4.87zm-5.285-.408 5.285.408-2.93-5.12z"/><path d="m54.006 36.587-5.285-.408 2.985 5.065zm-26.407 8.749-2.321 4.606 5.256-.258zM32.949 44.893l-5.35.443 2.935 4.348z"/><path d="m27.599 45.336 5.35-.443-3.194-4.317zm0 0-5.613 1.593 3.292 3.013z"/><path d="m27.599 45.336-3.368-3.543-2.245 5.136z"/><path d="m24.231 41.793 3.368 3.543 2.156-4.76zm36.695-18.562-1.902-6.058-2.931 4.945z"/><path d="m58.721 27.604 2.205-4.373-4.833-1.113zm2.205-4.373-2.205 4.373 5.566.194zm0 0 2.357-3.953-4.259-2.105zm0 0 5.697.152-3.34-4.105z"/><path d="m66.623 23.383-5.697-.152 3.361 4.567zm-28.93 30.809 3.146-4.859-5.193.205zm5.022-.199-5.022.199 1.497 4.987zm-1.876-4.66-3.146 4.859 5.022-.199zM32.399 54.315l5.294-.123-2.047-4.654zm-6.01 9.009 2.599-4.698-5.222-.76zm2.599-4.698-2.056-4.548-3.166 3.788zm0 0-2.599 4.698 5.259-.509zm0 0 3.411-4.311-5.467-.237zm1.624 27.269 5.539-.293-2.911-4.744zm5.539-.293 2.937 4.744 2.572-4.686zM39.088 90.346l-2.937-4.744-2.705 4.844z"/><path d="m36.151 85.602-5.539.293 2.834 4.551zm0 0 2.43-4.957-5.341.213z"/><path d="m38.581 80.645-2.43 4.957 5.509.058zm7.714-30.5-5.456-.812 1.876 4.66zM48.275 55.361l-1.98-5.216-3.58 3.848zm0 0 3.529 4.396 1.6-4.972zm3.529 4.396-4.625 1.751 3.437 3.687zm-4.625 1.751-1.699 5.267 5.136-1.58zm-5.375 1.941 5.375-1.941-3.15-3.133z"/><path d="m47.179 61.508 1.096-6.147-4.246 3.014z"/><path d="m48.275 55.361-1.096 6.147 4.625-1.751zm27.311-3.441-4.345-4.525.016 6.246zm2.66-10.016L76.5 46.845l5.415-1.039zm-2.66 10.016.914-5.075-5.259.55zm5.029-1.008L76.5 46.845l-.914 5.075zM64.97 37.016l5.299-.378-2.759-4.551z"/><path d="m61.905 32.367 3.065 4.649 2.54-4.929zm8.364 4.271-5.299.378 3.115 4.802z"/><path d="m64.97 37.016-3.065-4.649-2.513 4.52zm-2.584 4.579 2.584-4.579-5.578-.129zM64.97 37.016l-2.584 4.579 5.699.223zM12.741 95.243l2.961-4.115-6.306-.314z"/><path d="m21.819 91.078-6.117.05 3.028 4.218z"/><path d="m15.702 91.128-2.961 4.115 5.989.103zm0 0 6.117-.05-2.523-4.389zm-1.738-4.46 1.738 4.46 3.594-4.439z"/><path d="m15.702 91.128-1.738-4.46-4.568 4.146zm10.687-27.804-4.818 4.241 4.887.747z"/><path d="m21.571 67.565 3.732 5.26 1.155-4.513z"/><path d="m25.303 72.825-3.732-5.26-1.45 4.864zm-3.732-5.26 4.818-4.241-4.593-.758zm0 0-5.354.344 3.904 4.52zm-4.383-4.487 4.383 4.487.225-4.999zm-2.532 9.415 3.859 4.648 1.606-4.712zm9.307 4.842-5.448-.194 3.325 4.813zm-5.448-.194-2 4.747 5.325.066z"/><path d="m18.515 77.141 5.448.194-3.842-4.906zm-5.409-.106 5.409.106-3.859-4.648zm5.409.106-5.409-.106 3.409 4.853zm26.33 13.198 2.554-4.243-5.739-.436zm-5.757.007 5.757-.007-3.185-4.679zm5.757-.007-3.193 4.747 5.298-.23z"/><path d="m41.652 95.086 3.193-4.747-5.757.007zm3.193-4.747 6.287-.064-3.733-4.179zm6.287-.064-6.287.064 2.105 4.517zm-1.045-76.392 2.831-4.162-5.774.011z"/><path d="m43.953 13.241 6.134.642-2.943-4.151zm6.134.642-6.134-.642 3.118 4.475z"/><path d="m52.918 9.721-2.831 4.162 6.086-.627zm-2.831 4.162 3.15 3.882 2.936-4.509zm3.15 3.882-3.15-3.882-3.016 3.833zM29.755 40.576l1.992-4.748-5.59.964z"/><path d="m31.747 35.828-3.759-3.943-1.831 4.907z"/><path d="m27.988 31.885 3.759 3.943 2.067-4.574zm3.759 3.943 5.64-.193-3.573-4.381zm0 0 3.451 4.331 2.189-4.524z"/><path d="m35.198 40.159-3.451-4.331-1.992 4.748zm21.776 1.433 5.412.003-2.994-4.708zm0 0-2.346 4.823 5.214.062z"/><path d="m54.628 46.415 2.346-4.823-5.268-.348zm7.758-4.82-5.412-.003 2.868 4.885z"/><path d="m54.006 36.587 2.968 5.005 2.418-4.705z"/><path d="m56.974 41.592-2.968-5.005-2.3 4.657zm-19.281 12.6-3.145 4.728 4.642.259z"/><path d="m34.548 58.92 1.959 5.53 2.683-5.271z"/><path d="m34.548 58.92-2.9 3.895 4.859 1.635zm0 0 3.145-4.728-5.294.123z"/><path d="m28.988 58.626 5.56.294-2.149-4.605zm5.56.294-5.56-.294 2.66 4.189zm6.176-18.657 3.021 4.813 2.491-4.497zm.115 9.07 2.906-4.257-5.503-.353z"/><path d="m43.745 45.076-3.021-4.813-2.482 4.46zm2.55 5.069-2.55-5.069-2.906 4.257zm5.196.233-3.216 4.983 5.129-.576zM57.314 51.708l-5.823-1.33 1.913 4.407z"/><path d="m54.628 46.415-3.137 3.963 5.823 1.33zm-3.137 3.963-5.196-.233 1.98 5.216zm21.429-8.054-2.651-5.686-2.184 5.18z"/><path d="m72.92 42.324 1.92-4.835-4.571-.851zm0 0-4.835-.506 3.156 5.577zm1.92-4.835-1.92 4.835 5.326-.42zm-1.92 4.835 3.58 4.521 1.746-4.941z"/><path d="m76.5 46.845-3.58-4.521-1.679 5.071zm-27.426-1.324 5.554.894-2.922-5.171zm-5.329-.445 5.329.445-2.838-4.942z"/><path d="m49.074 45.521 2.632-4.277-5.47-.665zm0 0-5.329-.445 2.55 5.069zm2.417 4.857-2.417-4.857-2.779 4.624z"/><path d="m49.074 45.521 2.417 4.857 3.137-3.963zM45.48 66.775l-3.676-3.326-1.684 4.975z"/></svg>