<svg xmlns="http://www.w3.org/2000/svg" viewBox="-50 -50 100 100"><style>path{fill:#c8c5bd;stroke:navy;stroke-width:.5;stroke-linejoin:bevel}</style><path d="M-41.014 21.119-50 27.047l9.915 3.227zM-25.038 50l-3.526-9.261L-36.495 50z"/><path d="m-25.038 50 5.976-8.538-9.502-.723zM-50 50h13.505l-2.639-9.975zm24.962 0h10.249l-4.273-8.538zm64.571-10.008L36.073 50H50zM39.533 39.992l-11.18.667L36.073 50zm0 0 1.863-11.218-7.798 2.981zM-8.674-42.119.51-42.3-4.257-50zM-36.181-50l-3.028 9.726 10.944-1.044z"/><path d="m-36.181-50 7.916 8.682 3.95-8.682zM.51-42.3l-4.916 5.974 7.552.526zm-40.552 11.864.833-9.838L-50-37.604zm0 0 8.96-2.736-8.127-7.102zm8.96-2.736-8.96 2.736 7.368 5.554z"/><path d="m-40.042-30.436-1.033 8.948 8.401-3.394zM-50-26.955v9.669l8.925-4.202z"/><path d="m-50-26.955 8.925 5.467 1.033-8.948zm9.915 57.229L-50 27.047v10.631zm0 0L-50 37.678l10.866 2.347z"/><path d="m-50 50 10.866-9.975L-50 37.678zm71.725-23.311 1.31-6.25-5.321 1.983zm-40.787 14.773 9.419.835-4.122-6.526z"/><path d="m-22.215 33.716 3.153 7.746 5.297-5.691zm3.153 7.746L-14.789 50l5.146-7.703zM13.77 50h10.645l-6.42-7.994zm14.583-9.341L24.415 50h11.658zM-8.949 30.81l3.268 5.509 2.762-5.701zm0 0 6.03-.192-2.585-4.57z"/><path d="m-13.765 35.771 4.122 6.526 3.962-5.978z"/><path d="m-13.765 35.771 8.084.548-3.268-5.509zM50 4.763l-7.923-2.425-.572 8.003z"/><path d="M42.077 2.338 50 4.763v-9.6z"/><path d="M42.077 2.338 50-4.837l-8.884.407zM28.353 40.659l-2.047-8.543-6.044 2.58zm4.025-72.462-8.626-2.717 2.727 7.495zm-8.626-2.717 8.626 2.717-2.956-9.052zm8.626 2.717 8.041 2.974-.523-10.717zm8.526 11.928-8.177-2.648 1.616 7.717zm-.485-8.954L50-36.347l-10.104-3.199zm0 0L50-24.892v-11.455z"/><path d="M39.896-39.546 36.696-50l-7.274 9.145zm-7.169 17.023 7.692-6.306-8.041-2.974zM50-14.676l-9.096-5.199.83 8.309z"/><path d="M50-14.676v-10.216l-9.096 5.017zm-61.07 40.539-.484-4.889-4.282 2.602z"/><path d="m-15.836 23.576 4.282-2.602-3.997-1.928zm-6.379 10.14 8.45 2.055-1.679-5.915zm13.266-2.906-2.121-4.947-4.374 3.993zM-50 8.911l8.962 3.84-.878-7.769zm8.962 3.84L-50 17.506l8.986 3.613z"/><path d="M-41.038 12.751-50 8.911v8.595zm.996-43.187L-50-37.604v10.649zM-50-50l10.791 9.726L-36.181-50z"/><path d="M-50-50v12.396l10.791-2.67zm41.326 7.881L-13.908-50l-4.043 8.183z"/><path d="m-13.908-50 5.234 7.881L-4.257-50zm-4.043 8.183L-13.908-50h-10.407zm-11.508 23.062 4.435-3.542-7.65-2.585zm-6.068 2.149 2.853-8.276-8.401 3.394zm5.444 4.055 4.876 1.851.691-5.08zM-24.315-50l-3.95 8.682 10.314-.499zm-6.767 16.828 2.817-8.146-10.944 1.044zm13.131-8.645-10.314.499 6.443 6.141zm-7.073 19.52-.018-6.028-7.632 3.443z"/><path d="m-25.042-28.325-6.04-4.847-1.592 8.29zm0 0 5.825 4.278 1.375-5.856zm-10.485 11.719 6.068-2.149-3.215-6.127zm-3.607 56.631L-36.495 50l7.931-9.261zm-.951-9.751.951 9.751 8.112-7.515zm11.521 10.465-2.458-8.229-8.112 7.515zm46.559 1.267L24.415 50l3.938-9.341zM-5.504 26.048l4.414-1.098-2.815-3.86zM4.459 50h9.311l-5.444-8.597zm0 0-4.897-7.691L-5.017 50zm-9.476 0-4.626-7.703L-14.789 50zm-4.626-7.703 9.205.012-5.243-5.99z"/><path d="M-9.643 42.297-5.017 50l4.579-7.691zM20.791-3.907l3.796-2.362-4.347-1.346zm0 0-.107 3.581 4.163-1.215zM9.434-41.377 14.508-50H5.211z"/><path d="M9.434-41.377 5.211-50 .51-42.3z"/><path d="M.51-42.3 5.211-50h-9.468zm0 0-9.184.181 4.268 5.793zm-13.259 6.714-5.202-6.231-3.871 6.64zm34.474 62.275 6.47-1.931-5.16-4.319zm6.47-1.931-1.889 7.358 7.292-.361zM34.554-.657l-5.472 2.893 6.265 3.667z"/><path d="m35.347 5.903 6.73-3.565-7.523-2.995zm-6.019-9.68-.246 6.013 5.472-2.893zM50 14.279l-8.495-3.938-.077 8.412zM33.598 31.755l1.018-9.48-6.421 2.483z"/><path d="m28.195 24.758 6.421-2.483-5.951-4.504zM50-4.837v-9.839l-8.266 3.11zm-8.884.407L34.554-.657l7.523 2.995z"/><path d="m41.116-4.43-6.583-3.244.021 7.017zM28.964-9.776l-5.074-1.235.697 4.742z"/><path d="m34.533-7.674-5.205 3.897 5.226 3.12zm-5.205 3.897-4.481 2.236 4.235 3.777z"/><path d="m24.847-1.541 4.481-2.236-4.741-2.492zm15.049-38.005-10.474-1.309 2.956 9.052zM25.075-50l4.347 9.145L36.696-50zM50-50H36.696l3.2 10.454zm0 0L39.896-39.546 50-36.347zm-9.096 30.125-.485-8.954-7.692 6.306zM14.508-50l4.637 8.052L25.075-50zm-5.074 8.623 5.907 5.761 3.804-6.332zm9.711-.571 10.277 1.093L25.075-50zm4.607 7.428-4.607-7.428-3.804 6.332zm-44.848 55.453 5.26 2.643.285-4.53zm10.638-6.891 3.315-.852-1.769-1.125zm-8.81-2.128.764 4.364 2.563-3.23zm0 0 .193-3.588-4.308 2.726zm6.509.044-2.518-2.063-.664 3.153zm1.689 13.905 2.121 4.947 3.445-4.762zm2.121 4.947-6.495-.954 1.679 5.915z"/><path d="m-11.07 25.863 5.566.185-2.136-3.553zm-4.374 3.993 4.374-3.993-4.766-2.287zm-9.598-58.181 3.22-6.852-9.26 2.005z"/><path d="m-21.822-35.177-6.443-6.141-2.817 8.146zm13.148-6.942-9.277.302 5.202 6.231z"/><path d="m-12.749-35.586-9.073.409 3.98 5.274zm-29.379 23.417 1.053-9.319L-50-17.286zm0 0 6.601-4.437-5.548-4.882zm37.4 29.329-2.739 1.733 3.562 2.197zm-3.001-1.486 2.7-1.542-2.114-.942zm4.904-.943-2.204-.599.301 3.028zm0 0-1.903 2.429 2.856.609z"/><path d="m-7.467 18.893-.173 3.602 3.735-1.405zm2.739-1.733.823 3.93 2.033-3.321zm26.453 9.529-5.46 1.971 3.997 6.036zm-3.73 15.317 2.267-7.31-7.176.523z"/><path d="m21.725 26.689-4.011-4.267-1.449 6.238zm-1.463 8.007 6.044-2.58-4.581-5.427zm-2.267 7.31 10.358-1.347-8.091-5.963zM1.549 35.74l.328-6.597-4.796 1.475zM4.459 50l3.867-8.597-8.764.906z"/><path d="m-.438 42.309 8.764-.906-6.777-5.663zm8.764-.906L13.77 50l4.225-7.994z"/><path d="M6.908 33.541 1.549 35.74l6.777 5.663zM-.529-30.724 3.146-35.8l-7.552-.526zm5.324 1.623-5.324-1.623 2.1 5.463zm-29.819 6.804 4.611 3.445 1.196-5.195zm-.018-6.028 7.2-1.578-3.98-5.274zm64.575 68.317-5.935-8.237-5.245 8.904z"/><path d="m33.598 31.755 7.798-2.981-6.78-6.499zm0 0-7.292.361 2.047 8.543z"/><path d="m28.195 24.758-6.47 1.931 4.581 5.427zM50 36.487l-10.467 3.505L50 50z"/><path d="m50 36.487-8.604-7.713-1.863 11.218z"/><path d="m50 24.567-8.604 4.207L50 36.487zm-21.805.191.47-6.987-5.63 2.668z"/><path d="m28.665 17.771-5.851-2.699.221 5.367zm5.645-3.965 7.118 4.947.077-8.412z"/><path d="m50 14.279-8.572 4.474L50 24.567z"/><path d="m50 24.567-8.572-5.814-.032 10.021z"/><path d="m41.396 28.774.032-10.021-6.812 3.522zm-.28-33.204.618-7.136-7.201 3.892zM50-24.892l-9.581-3.937.485 8.954zm0 20.055-8.266-6.729-.618 7.136zM8.923-33.391l6.418-2.225-5.907-5.761z"/><path d="m3.146-35.8 6.288-5.577L.51-42.3zm0 0 1.649 6.699 4.128-4.29zm-18.697 54.846 4.659-1.647-2.858-1.888zm-9.435-15.911 1.884 3.856 2.735-2.405zm5.911 5.191-4.027-1.335-.281 4.061zM-30.25 3.512l-5.713-.581 1.786 6.423zm0 0-3.927 5.842 6.259-1.337zM9.741 14.135l2.661-1.674-2.59-1.115zm-2.003 2.214-.002-3.498-1.886.961zM7.738 16.349l2.003-2.214-2.005-1.284zM5.85 13.812l-2.032.694.73 2.315zm5.069 14.799 2.167 6.608 3.179-6.559zM20.262 34.696l-3.997-6.036-3.179 6.559zM-1.09 24.95l-1.829 5.668 4.796-1.475zm2.967 4.193 4.246-1.682-2.767-3.82zm1.479-5.502-.262-3.773-3.32 1.036zm-2.161-6.226 1.899 2.453 1.454-3.047zm-1.421 3.489-1.646-3.135-2.033 3.321zm15.322-6.428 3.32-1.905-3.597-1.995zm0 0 3.425 2.726-.105-4.631zm10.33-7.71 3.656-4.53-5.176.43z"/><path d="m25.426 6.766-1.52-4.1-2.996 3.627zm7.301-29.289-7.252 2.079 2.723 4.792zm0 0-6.248-4.502-1.004 6.581zM16.505-8.063l3.735.448-.907-3.706zM2.94-20.683l2.863-2.914-4.232-1.664zm6.448-5.822-3.585 2.908 4.704 1.699zm-4.593-2.596 1.008 5.504 3.585-2.908zM-21.503-8.918l1.008-4.309-4.712 2.527zM34.31 13.806l-7.025-1.57 1.38 5.535z"/><path d="m34.616 22.275 6.812-3.522-7.118-4.947zm-.306-8.469 1.037-7.903-4.957 2.152zm1.037-7.903-1.037 7.903 7.195-3.465z"/><path d="m35.347 5.903 6.158 4.438.572-8.003zM50 4.763l-8.495 5.578L50 14.279zM28.964-9.776l5.379-5.03-6.145-.846zm12.77-1.79-7.391-3.24.19 7.132z"/><path d="m41.734-11.566-.83-8.309-6.561 5.069zm-12.77 1.79 5.569 2.102-.19-7.132zm0 0-4.377 3.507 4.741 2.492z"/><path d="m28.964-9.776.364 5.999 5.205-3.897zM3.146-35.8l5.777 2.409.511-7.986zm1.649 6.699L3.146-35.8l-3.675 5.076zm0 0-3.224 3.84 4.232 1.664z"/><path d="m6.983-19.678-1.18-3.919-2.863 2.914zm8.034-4.146 5.553-.079-1.273-5.457zm11.462-3.201-5.909 3.122 4.905 3.459zM25.475-20.444l-4.905-3.459-1.444 4.531zM14.447-19.12l-.887 3.828 3.906-.006zm4.679-.252-4.679.252 3.019 3.822zm-52.31 43.574-7.83-3.083.929 9.155zm-7.83-3.083L-50 17.506v9.541z"/><path d="m-33.941 16.598-7.073 4.521 7.83 3.083zm7.837 9.747 3.889 7.371 1.866-6.912zm-7.08-2.143-6.901 6.072 9.063 2.236zm10.969 9.514 6.771-3.86-4.905-3.052zm-.876-17.98-.292-4.684-5.09 2.351zM-17.1 4.955l-3.267-.369 1.292 3.74zM-50-8.057l7.872-4.112L-50-17.286zm21.649 6.796-1.472-5.586-4.19 4.304zM1.757 14.897l-2.35.091 1.788 2.427zm-.562 2.518-1.421 3.489 3.32-1.036z"/><path d="m4.548 16.821-2.791-1.924-.562 2.518zm-2.791-1.924 2.791 1.924-.73-2.315zm4.093-1.085-1.302 3.009 3.19-.472zM1.877 29.143l5.031 4.398-.785-6.08zm9.042-.532-4.011 4.93 6.178 1.678zm-4.796-1.15.785 6.08 4.011-4.93zm-4.246 1.682-.328 6.597 5.359-2.199zm6.449 12.26 9.669.603-4.909-6.787zm0 0 4.76-6.184-6.178-1.678zm5.625-35.892 3.185-.554-2.512-1.621zM15.494 7.585l1.642-2.628-3.185.554zm5.416-1.292 1.363 4.06 3.153-3.587zm1.363 4.06-4.059-1.586.202 3.804zm.013-25.798 3.189-4.999-6.349 1.072z"/><path d="m22.286-15.445 5.912-.207-2.723-4.792zm-8.139 5.856 1.655-2.36-3.331-.296zm-.587-5.703-3.335.965 2.246 2.082zm0 0 2.242 3.343 1.664-3.349zm2.945 7.229-2.358-1.526-1.11 2.17zM1.571-25.261l-2.1-5.463-2.663 4.466zm0 0-4.763-.997 2.219 4.281zm-2.544 3.284 3.913 1.294-1.369-4.578zm-11.776-13.609.764 6.074 5.363-1.492z"/><path d="m-17.842-29.903 5.857.391-.764-6.074zm-1.375 5.856 4.105 4.106 1.172-4.669zm46.502 36.283 7.025 1.57-3.92-5.751z"/><path d="m34.31 13.806-5.645 3.965 5.951 4.504zm-8.884-7.04 1.859 5.47 3.105-4.181zm-2.612 8.306 5.851 2.699-1.38-5.535zM22.273 10.353l5.012 1.883-1.859-5.47zm1.617-21.364 4.308-4.641-5.912.207zM23.89-11.011l-1.604-4.434-2.953 4.124zm-13.379-6.8 3.936-1.309-3.94-2.778zM10.511-17.811l-.004-4.087-3.524 2.22zm-31.607 38.744-1.995-5.197-4.218 3.946zm-5.008 5.412-4.918 6.165 8.807 1.206zm5.008-5.412.747 5.871 4.513-3.228z"/><path d="m-21.096 20.933-5.008 5.412 5.755.459zm.747 5.871 4.905 3.052-.392-6.28zm-8.215 13.935 6.349-7.023-8.807-1.206zm6.349-7.023-6.349 7.023 9.502.723zM-26.104 26.345l-7.08-2.143 2.162 8.308zm3.013-10.609-5.382-2.333 1.164 6.279zm-4.827-7.719 4.535 3.035.281-4.061zm-.555 5.386.555-5.386-6.259 1.337z"/><path d="m-33.941 16.598 5.468-3.195-5.704-4.049zm12.845 4.335 2.592-4.655-4.587-.542zm0 0 5.545-1.887-2.953-2.768z"/><path d="m-19.268 11.914-3.823 3.822 4.587.542z"/><path d="m-23.091 15.736 3.823-3.822-4.115-.862zm9.341-.225.991-3.553-3.182 1.09zm-4.754.767 4.754-.767-2.191-2.463zm2.953 2.768 1.801-3.535-4.754.767zm5.093-5.004-3.292 1.469 2.858 1.888zM-13.75 15.511l3.292-1.469-2.301-2.084zm6.021.163-2.729-1.632-.434 3.357zm0 0 3.001 1.486-.301-3.028z"/><path d="m-10.458 14.042 2.729 1.632.586-2.484zm2.729 1.632.262 3.219 2.739-1.733zm-5.449-8.509-2.716.191.617 2.539zm-3.922-2.21-.432-2.801-2.835 2.432zm-6.742-6.119 4.079-1.036-1.923-2.648zm-17.653-2.243 5.706-5.501-6.339-3.261z"/><path d="m-35.789-8.908.262-7.698-6.601 4.437zm.262-7.698-.262 7.698 5.706-3.643zm10.152 10.905-2.976 4.44 4.509.097zm-2.976 4.44 2.976-4.44-4.448-1.146zm3.365 4.396-5.264.377 2.332 4.505zm40.082 11.341-.713 4.362 4.138-1.636zm3.425 2.726-.807 5.22 5.321-1.983zM18.521 17.202l-4.138 1.636 3.331 3.584zm-5.669 6.285-4.63-.105 2.697 5.229z"/><path d="m12.852 23.487 3.413 5.173 1.449-6.238z"/><path d="m14.383 18.838-1.531 4.649 4.862-1.065zm-7.991 1.02-1.844-3.037-1.454 3.047zM4.548 16.821l1.844 3.037 1.346-3.509zM14.953 1.188l2.366.179-2.352-2.356z"/><path d="m14.624 3.336 2.695-1.969-2.366-.179zM13.56-15.292l-1.089 3.047 3.331.296zM-6.622-31.004l3.43 4.746 2.663-4.466z"/><path d="m-6.622-31.004 6.093.28-3.877-5.602zm-1.71 5.328 1.71-5.328-5.363 1.492zM-8.332-25.676l5.14-.582-3.43-4.746zm-5.608 1.066 1.955-4.902-5.857-.391z"/><path d="m-19.217-24.047 5.277-.563-3.902-5.293zm-1.278 10.82.082-5.625-4.103 3.072zm-1.008 4.309-3.704-1.782-.168 4.999zm-3.704-1.782 4.712-2.527-4.021-2.553zm4.794-8.152 5.301-1.089-4.105-4.106zm3.079 2.727 3.696.576-1.474-4.392zm-7.69-6.172 5.807-1.75-5.825-4.278z"/><path d="m-17.334-16.125 2.222-3.816-5.301 1.089zm41.921 9.856-.697-4.742-3.65 3.396zm3.611-9.383-4.308 4.641 5.074 1.235zm-8.865 4.331-1.867-3.977-1.664 3.349z"/><path d="m16.505-8.063 2.828-3.258-3.531-.628zm-43.814 27.745-5.875 4.52 7.08 2.143zm-6.632-3.084 6.632 3.084-1.164-6.279z"/><path d="m-27.309 19.682-6.632-3.084.757 7.604zm6.213 1.251-6.213-1.251 1.205 6.663zm-12.845-4.335-.236-7.244-6.861 3.397zm-7.073 4.521 7.073-4.521-7.097-3.847zm28.98-12.165-3.243.941 2.518 2.063z"/><path d="m-12.034 8.954-1.144-1.789-2.099 2.73zm-12.952-5.819 4.158-1.896-3.014-2.403zm6.362-9.293.712-3.584-3.591.824zm-17.339 9.089 5.713.581-3.763-6.055zm1.786 6.423-7.739-4.372.878 7.769zm-7.318-12.761L-50-8.057V.334z"/><path d="m-34.013-2.543-1.776-6.365-5.706 5.501zm-1.514-14.063 5.444 4.055.624-6.204z"/><path d="m-35.789-8.908 5.966 2.061-.26-5.704zM7.738 16.349l3.972-.276-1.969-1.938zm3.972-.276-1.531 3.339 4.204-.574z"/><path d="m15.096 14.476-3.386 1.597 2.673 2.765zm-5.355-.341 1.969 1.938.692-3.612zm3.111 9.352-1.933 5.124 5.346.049zm-.45-11.026-.889-2.846-1.701 1.731zm-2.661 1.674.071-2.789-2.076 1.505zm.484-28.462-2.566-1.61.065 3.078zm-2.566-1.61-2.092 2.008 2.157 1.07zm9.916 14.019-.256 3.285 3.365-1.693zm3.109 1.592-3.365 1.693 2.571 1.684zm-7.647-7.093 1.11-2.17-2.645-.039zM-10.411-21.64l4.882-.811-2.803-3.225zm4.882-.811 1.876 2.937 2.68-2.463zm-4.882.811-3.529-2.97-1.172 4.669z"/><path d="m-11.14-17.814.729-3.826-4.701 1.699zm-1.656 5.736-.842-3.471-2.482 2.944zm1.656-5.736.525 3.766 2.312-1.617zm.614 28.501.068 3.355 1.546-1.977z"/><path d="m-10.458 14.042-.068-3.355-2.233 1.271z"/><path d="m-10.526 10.687-1.508-1.733-.725 3.004zm-2.27-22.765 2.181-1.97-3.023-1.501zm-4.538-4.047 1.214 3.52 2.482-2.944zM-50 8.911l8.084-3.929L-50 .334z"/><path d="m-34.177 9.354-1.786-6.423-5.953 2.051z"/><path d="M-41.495-3.407-50 .334l8.084 4.648zm-.421 8.389 5.953-2.051-5.532-6.338zM3.356 23.641l3.036-3.783-3.298.01zm2.767 3.82 2.099-4.079-4.866.259zm0 0 4.796 1.15-2.697-5.229zm-20.865-24.69-2.79-.617.432 2.801zm-3.882-8.929 2.816-.77-2.104-2.814zm8.009-7.89 2.461 1.458-.149-3.075zm.52 2.954-.52-2.954-2.181 1.97zm2.6-8.005 3.842-.415-1.876-2.937z"/><path d="m-3.192-26.258-5.14.582 2.803 3.225zm20.767 24.34 3.109 1.592.107-3.581zm-2.608.929 2.352 2.356.256-3.285zM14.967-.989l2.608-.929-2.934-1.342z"/><path d="m14.641-3.26 2.934 1.342-.41-3.125zM-.973-21.977l-2.68 2.463 3.527 1.195zm-4.556-.474 4.556.474-2.219-4.281zm3.026 5.579 2.377-1.447-3.527-1.195zm9.486-2.806L2.94-20.683l2.051 3.528zm0 0-1.992 2.523 2.668 1.218zM-14.149 4.98l-.593-2.209-2.358 2.184zm-1.745 2.376 1.745-2.376-2.951-.025z"/><path d="m-13.178 7.165-.971-2.185-1.745 2.376zm5.024-19.755 2.096-1.132-2.245-1.943zm-2.461-1.458.52 2.954 1.941-1.496zm-3.913 4.43-1.592-2.987-1.792 2.863z"/><path d="m-16.12-12.605 1.592 2.987 1.732-2.46zm1.592 2.987-1.28 2.69 2.614-.207z"/><path d="m-15.808-6.928 1.28-2.69-3.384-.124zm13.305-9.944-1.234 2.345 2.608-.43zm2.377-1.447 2.467.998.599-3.362zm0 0 3.066-2.364-3.913-1.294z"/><path d="m3.388-14.612-1.047-2.709-1.358 2.353zm-1.047-2.709-2.467-.998 1.109 3.351zm0 0 2.65.166-2.051-3.528zm2.65.166-1.603 2.543 2.179.683zM-15.808-6.928l1.56 2.238 1.054-2.445zm.813 7.329.146-2.521-2.536 1.495zm.253 2.37-.253-2.37-2.537 1.753zm2.959-12.053 1.688-1.812-2.701-.984zm0 0-2.745-.336 1.334 2.483z"/><path d="m-14.528-9.618 2.745.336-1.013-2.796zm9.024-6.989 3.001-.265-1.15-2.642z"/><path d="m-5.504-16.607 1.851-2.907-3.842.415zm1.767 2.08-1.767-2.08-.554 2.885zm-1.767-2.08 1.767 2.08 1.234-2.345zM-16.872-3.768l1.064-3.16-2.816.77zm2.023 1.648-2.023-1.648-.513 3.143z"/><path d="m-14.248-4.69-2.624.922 2.023 1.648z"/><path d="m-16.872-3.768 2.624-.922-1.56-2.238zm5.318 24.742 3.914 1.521.173-3.602zM-1.09 24.95l-4.414 1.098 2.585 4.57z"/><path d="m-11.07 25.863 3.43-3.368-3.914-1.521zM1.549 35.74l-4.468-5.122-2.762 5.701z"/><path d="m-.438 42.309 1.987-6.569-7.23.579zm25.285-43.85-.941 4.207 5.176-.43zm-.941 4.207.941-4.207-4.163 1.215zm5.176-.43-3.656 4.53 4.964 1.289z"/><path d="m29.082 2.236 1.308 5.819 4.957-2.152zm-2.603-29.261 6.248 4.502-.349-9.28zm6.248 4.502-4.529 6.871 6.145.846zm-62.186 3.768 4.943 2.975-.508-6.517zm0 0-.624 6.204 5.567-3.229zM9.434-41.377l9.711-.571L14.508-50zm14.318 6.857 5.67-6.335-10.277-1.093zm0 0-8.411-1.096 3.956 6.256zm2.727 7.495-7.182-2.335 1.273 5.457z"/><path d="m23.752-34.52-4.455 5.16 7.182 2.335zM-17.1 4.955l-1.975 3.371 3.181-.97z"/><path d="m-19.075 8.326-1.292-3.74-2.735 2.405zm13.571 17.722 1.599-4.958-3.735 1.405zm7.381 3.095 1.479-5.502-4.446 1.309zM17.136 4.957l3.774 1.336-1.02-3.242z"/><path d="m19.89 3.051 1.02 3.242 2.996-3.627zM8.923-33.391l4.578 4.315 1.84-6.54z"/><path d="m8.923-33.391.465 6.886 4.113-2.571z"/><path d="m8.923-33.391-4.128 4.29 4.593 2.596zm6.094 9.567 4.28-5.536-5.796.284zm-1.516-5.252 5.796-.284-3.956-6.256zm1.516 5.252-.57 4.704 4.679-.252z"/><path d="m15.017-23.824 4.109 4.452 1.444-4.531zm-34.285 35.738 3.327 1.134.664-3.153z"/><path d="m-19.268 11.914 3.991-2.019-3.798-1.569zm.193-3.588 3.798 1.569-.617-2.539zm17.203 9.443 3.067-.354-1.788-2.427zm0 0 1.279-2.781-2.232-.257z"/><path d="m-1.872 17.769 1.646 3.135 1.421-3.489zm16.691-7.193 3.597 1.995-.202-3.804z"/><path d="m14.819 10.576 3.395-1.809-2.72-1.182zm7.454-.223.541 4.719 4.471-2.836z"/><path d="m22.814 15.072-.541-4.719-3.857 2.218zM20.91 6.293l-3.774-1.336 1.078 3.81z"/><path d="m20.91 6.293-2.696 2.474 4.059 1.586zm1.376-21.738-4.82.147 1.867 3.977z"/><path d="m22.286-15.445-3.16-3.927-1.66 4.074zm-11.779-6.453 3.94 2.778.57-4.704z"/><path d="m9.388-26.505 1.119 4.607 4.51-1.926z"/><path d="m9.388-26.505 5.629 2.681-1.516-5.252zm-32.49 33.496-1.884-3.856-2.932 4.882zm-4.816 1.026-.555 5.386 5.09-2.351zm20.451 10.876-.262-3.219-3.163 1.725z"/><path d="m-7.467 18.893-3.425-1.494-.662 3.575z"/><path d="m-10.892 17.399-4.659 1.647 3.997 1.928zm-12.95-18.563 2.156-3.684-3.689-.853zM-21.503-8.918l-3.872 3.217 3.689.853zm-12.51 6.375 4.19-4.304-5.966-2.061zm3.763 6.055 1.899-4.773-5.662-1.282z"/><path d="m-24.986 3.135 1.144-4.299-4.509-.097z"/><path d="m-28.351-1.261-1.899 4.773 5.264-.377zm51.165 16.333-4.293 2.13 4.514 3.237z"/><path d="m18.521 17.202 4.293-2.13-4.398-2.501zm-8.342 2.21-2.441-3.063-1.346 3.509zM7.738 16.349l2.441 3.063 1.531-3.339zm7.756-8.764 2.72 1.182-1.078-3.81zm-2.696.239-1.285 1.791 3.306.961zm2.696-.239-1.543-2.074-1.153 2.313zM17.136 4.957l.183-3.59-2.695 1.969zm0 0 2.754-1.906-2.571-1.684zm-4.665-17.202-2.744.826 1.775 1.791zm1.676 2.656 2.358 1.526-.703-3.886zM12.471-12.245l-.969 2.617 2.645.039zm-5.488-7.433 3.524-2.22-4.704-1.699zm3.528 1.867 3.049 2.519.887-3.828z"/><path d="m13.56-15.292-3.049-2.519-.286 3.484zm3.605 10.249.41 3.125 3.216-1.989zM17.165-5.043l3.626 1.136-.551-3.708zm-29.914-30.543 6.127 4.582 2.216-5.322z"/><path d="m-12.749-35.586 8.343-.74-4.268-5.793zm-7.746 22.359 3.161-2.898-3.079-2.727zm.082-5.625-4.611-3.445.508 6.517zM20.24-7.615l3.65-3.396-4.557-.31z"/><path d="m16.505-8.063.66 3.02 3.075-2.572zM-19.763-2.2l-1.065 3.439 3.443-1.864z"/><path d="m-19.763-2.2-4.079 1.036 3.014 2.403zm-.604 6.786-.461-3.347-4.158 1.896z"/><path d="m-20.367 4.586 2.835-2.432-3.296-.915zm1.743-10.744-2.879-2.76-.183 4.07zM-18.624-6.158l-3.062 1.31 1.923 2.648zm-22.871 2.751-.633-8.762L-50-8.057zm0 0 5.532 6.338 1.95-5.474zm16.288-7.293-4.876-1.851.26 5.704z"/><path d="m-25.207-10.7-4.616 3.853 4.448 1.146zm35.386 30.112 2.673 4.075 1.531-4.649zM10.179 19.412l-1.957 3.97 4.63.105zm2.619-11.588 2.021 2.752.675-2.991zm2.298 6.652-.277-3.9-2.417 1.885z"/><path d="m14.819 10.576-3.306-.961.889 2.846zm.277 3.9-2.694-2.015-.692 3.612zm-4.871-28.803-2.501 1.468 2.003 1.44z"/><path d="m9.727-11.419 2.744-.826-2.246-2.082zM23.906 2.666 20.684-.326l-.794 3.377zm-3.115-6.573 4.056 2.366-.26-4.728zm-35.903-16.034 1.474 4.392 2.498-2.265zm1.474 4.392 3.023 1.501-.525-3.766zm-4.274 5.807-2.583-3.485-1.008 4.309zM-20.495-13.227l4.375.622-1.214-3.52z"/><path d="m-20.495-13.227 2.583 3.485 1.792-2.863zM3.356 23.641l-3.582-2.737-.864 4.046z"/><path d="m-1.09 24.95.864-4.046-3.679.186zm9.312-1.568-1.83-3.524-3.036 3.783z"/><path d="m8.222 23.382 1.957-3.97-3.787.446zm8.283-31.445-3.468.644.932 1.955zm0 0-2.536 2.599 3.196.421zM14.641-3.26l2.524-1.783-3.196-.421zm-25.052-18.38-.729 3.826 3.645-1.285z"/><path d="m-10.411-21.64 2.916 2.541 1.966-3.352zm2.079-4.036-3.653-3.836-1.955 4.902zM-8.332-25.676l-5.608 1.066 3.529 2.97zm7.203 10.719 1.003-3.362-2.377 1.447zm0 0 2.112-.011-1.109-3.351zm8.112-4.721.676 3.741 2.852-1.874z"/><path d="m5.567-13.929 2.092-2.008-2.668-1.218zm2.092-2.008 2.566 1.61.286-3.484zm-2.668-1.218-2.65-.166 1.047 2.709zM-17.532 2.154l.147-2.779-3.443 1.864zm0 0 2.537-1.753-2.39-1.026zm9.229-17.819.808-3.434-3.645 1.285zm0 0 2.245 1.943.554-2.885zm0 0 2.799-.942-1.991-2.492zM-19.763-2.2l2.891-1.568-1.752-2.39zm0 0 2.378 1.575.513-3.143z"/></svg>