<svg xmlns="http://www.w3.org/2000/svg" viewBox="-50 -40.17 100 93.683"><style>path{fill:#c8c5bd;stroke:navy;stroke-width:.5;stroke-linejoin:bevel}</style><path d="m44.998 31.223 3.905 3.105.806-3.647zM-45.145 24-50 26.657l3.467.955zm18.837-42.535-.45 3.674 4.786-1.273zm55.19 67.994 2.922-2.349-4.658-1.046zm-50.996 4.054 3.96-.458-2.567-3.46zm-9.69-6.403 2.227-4.059-4.014-.055z"/><path d="m-24.751 49.697 2.637 3.816 1.393-3.918zm1.467-17.907 4.254-.05-2.184-3.643zm36.911 15.133.528 5.038 2.486-2.775zM-4.675-30.373l2.396 3.756L0-29.814zm2.433 25.451-2.141 3.544L0-1.376z"/><path d="M2.242-4.922h-4.484L0-1.376zm-25.631-7.889-3.369-2.05.109 4.2zm25.502 29.82 2.094-3.718L0 13.343zm4.198 0-2.104-3.718-2.094 3.718z"/><path d="M4.207 13.291 2.101 9.597 0 13.343z"/><path d="m2.101 9.597 2.106 3.694 2.118-3.696zm8.705-7.31L6.49 2.242l2.017 3.68zM6.49 2.242l4.316.045-2.058-3.666zm18.69-24.855-2.582 2.896 3.71 1.182z"/><path d="m26.308-18.535-3.71-1.182-.626 3.583zm.341 7.874.109-4.2-3.369 2.05zM2.242-4.922l4.517.013-2.293-3.507zm19.26-24.518-2.669 2.806 4.726.418zm23.807 71.325-4.111-.09 1.433 3.4zm-16.427 7.574-2.891 3.931 3.698-.651zm0 0 4.383 2.116-1.461-4.465z"/><path d="m33.265 51.575-4.383-2.116.807 3.28zm-62.842-8.524-1.91-3.85-2.104 3.795zm4.826 6.646-1.24 3.693 3.877.123zm-4.826-6.646 2.431 3.013 2.059-3.54zM-27.146 46.064l-2.431-3.013-2.227 4.059zm47.786-3.568-2-3.327-2.617 3.805zm8.937.555 2.227 4.059 1.787-4.114zm2.227 4.059-2.227-4.059-2.431 3.013zm-46.593-15.387-4.241.017 2.239 3.667zm-2.133-10.949-2.174 3.652 4.266-.048zm-2.174 3.652 2.174-3.652-4.277-.009zm16.983-7.417h4.226L0 13.343z"/><path d="m-4.207 13.291 2.094 3.718L0 13.343zM0 20.697l-2.113-3.688-2.094 3.697z"/><path d="M-2.113 17.009 0 20.697l2.113-3.688zm-16.308 28.892 4.794 1.022-2.396-3.949zM-32.899 5.507l-2.988 2.848 4.475.581zm-10.56 3.691 4.104.63-1.154-3.546zM9.67 45.759l-1.987 2.823 3.136 1.919z"/><path d="m7.683 48.582 1.987-2.823-4.836.487zm10.471 4.473-1.513-3.869-2.486 2.775zM-21.502-29.44l4.918-.544-2.505-2.272zm4.918-.544.33-4.77-2.835 2.498zm.33-4.77-.33 4.77 3.509-1.168zm5.495.599-2.492-2.586-3.003 1.987z"/><path d="m-10.759-34.155-5.495-.599 3.179 3.602zm-11.839 14.438-2.582-2.896-1.128 4.078zm24.801 7.72 2.144-3.606L0-15.604z"/><path d="M-2.203-11.997h4.406L0-15.604zm-20.173 2.938-4.273-1.602.685 3.829zm-3.932-9.476 4.336 2.401-.626-3.583zm3.71-1.182.626 3.583 3.27-3.256zm.626 3.583-1.417 3.323 3.971.524zM-23.389-12.811l1.417-3.323-4.786 1.273zm19.182 26.102-2.118-3.696-2.086 3.74zm14.868-40.376L8.472-23.09l3.969.072zM8.472-23.09l2.189-3.995-4.174.408zM-39.355 9.828l1.951 3.189 1.517-4.662zm13.902 18.248 2.169 3.714 2.07-3.693zM2.029-40.17h-4.058L0-36.545zm8.632 13.085 3.815.381-1.401-4.448z"/><path d="m14.476-26.704-3.815-.381 1.78 4.067zm0 0 2.093 3.669 2.264-3.599z"/><path d="m16.569-23.035-2.093-3.669-2.035 3.686zm0 0 4.191-.202-1.927-3.397z"/><path d="m18.833-26.634 1.927 3.397 2.799-2.979zm6.347 4.021-4.42-.624 1.838 3.52zm-4.42-.624 4.42.624-1.621-3.603zm5.204 16.405-4.89 1.197 3.748 2.274zm12.022 50.204 4.645 1.823-1.433-3.4zm0 0 1.891 4.345 2.754-2.522zm7.254-8.58 2.137 3.511 1.526-3.975zM25.991 53.39l-1.24-3.693-2.637 3.816zm-1.24-3.693 4.131-.238-1.736-3.395z"/><path d="m24.751 49.697 1.24 3.693 2.891-3.931zm-60.354-10.271-2.383 3.946 4.395-.376zm0 0-1.911-4.422-1.632 3.579z"/><path d="m-37.986 43.372 2.383-3.946-3.543-.843zm.472-8.368 1.911 4.422 1.931-3.93z"/><path d="m-35.603 39.426 4.116-.225-2.185-3.705zm4.116-.225-4.116.225 2.012 3.57zm4.095-.016-2.185 3.866 4.49-.527z"/><path d="m-23.017 38.979-4.375.206 2.305 3.339zm-4.375.206-4.095.016 1.91 3.85zm1.401 14.205-2.891-3.931-.807 3.28zm-2.891-3.931-4.383 2.116 3.576 1.164z"/><path d="m-33.265 51.575 4.383-2.116-2.922-2.349zm4.383-2.116 2.891 3.931 1.24-3.693z"/><path d="m-27.146 46.064-1.736 3.395 4.131.238z"/><path d="m-28.882 49.459 1.736-3.395-4.658 1.046zm6.077-3.462-1.946 3.7 4.03-.102zm4.384-.096-4.384.096 2.084 3.598zm-8.725.163 4.341-.067-2.282-3.473z"/><path d="m-22.805 45.997-4.341.067 2.395 3.633zm-24.572-7.694 2.068 3.582 2.069-3.579zM-50 26.657l.291 4.024 3.176-3.069zm.291 4.024 4.711.542-1.535-3.611zm8.278 3.943-1.809 3.682 4.094.277zM-37.514 35.004l-3.917-.38 2.285 3.959zm5.71 12.106-4.738 2.871 3.277 1.594zm0 0-3.821-.603-.917 3.474zM-35.625 46.507l3.821.603-1.787-4.114zm-2.361-3.135 2.361 3.135 2.034-3.511z"/><path d="m-39.877 47.717 4.252-1.21-2.361-3.135zm4.252-1.21-4.252 1.21 3.335 2.264zm-5.573-4.712 3.212 1.577-1.16-4.789zm0 0-4.111.09 2.678 3.31zm-2.042-3.489 2.042 3.489 2.052-3.212z"/><path d="m-45.309 41.885 4.111-.09-2.042-3.489zm7.323 1.487-4.645 1.823 2.754 2.522z"/><path d="m-37.986 43.372-3.212-1.577-1.433 3.4zm67.633-30.25-1.968-3.555-2.229 3.77zm-12.725 7.652 2.079-3.606-4.241-.081zm1.499 25.127 2.219-3.405-4.617.478zm11.156-2.85-4.49-.527 2.059 3.54zM4.115 35.365l4.409-.312-2.273-3.403zm-14.73-3.81 4.364.095-2.163-3.644zm-10.373 3.888 1.958-3.703-4.254.05zm1.958-3.703-1.958 3.703 4.197-.036zm.39 7.429-2.348-3.726-2.029 3.536z"/><path d="m-20.988 35.443 2.348 3.726 1.849-3.762zm6.406 3.696-4.058.03 2.617 3.805zm-4.058.03 4.058-.03-2.209-3.732zm3.851-7.446-2.165-3.656-2.076 3.673zm-4.241.017 2.076-3.673-4.26.03zm-.066-7.314 2.142 3.641 2.124-3.689z"/><path d="m-16.954 28.067-2.142-3.641-2.118 3.671zm10.662-3.669-4.258-.038 2.136 3.646zm-2.128-3.694 2.128 3.694 2.085-3.692z"/><path d="m-6.292 24.398-2.128-3.694-2.13 3.656zm10.499-3.692 2.104-3.697H2.113zM0 20.697l4.207.009-2.094-3.697zm-4.115 14.668-2.844 3.205 3.461.936zm.617 4.141-3.461-.936-.069 4.017z"/><path d="m-7.028 42.587.069-4.017-3.544.65z"/><path d="m-3.498 39.506-3.53 3.081 4.714.932zM-32.899 5.507l2.008-4.436-3.447 1.297zm-7.61.775 1.154 3.546 3.468-1.473z"/><path d="m-40.509 6.282 4.622 2.073-1.687-4.232zm2.935-2.159 4.675 1.384-1.439-3.139z"/><path d="m-32.899 5.507-4.675-1.384 1.687 4.232zm7.536 1.323-2.316 2.737 4.558.489zm.96-3.475-2.866-3.1-1.564 4.566z"/><path d="m-27.269.255 2.866 3.1 1.198-3.41zm-8.618 8.1 2.218 4.061 2.257-3.48zm2.218 4.061-3.735.601 1.838 3.633zm-3.735.601 3.735-.601-2.218-4.061zm44.432 29.57 2.642 3.172 2.213-3.002zm0 0-4.714.932 2.52 2.727z"/><path d="m9.67 45.759-2.642-3.172-2.194 3.659zm-33.229-71.975 4.726-.418-2.669-2.806zm4.726-.418 2.249-3.35-4.918.544zm10.137-3.915-2.063-3.606-2.316 3.003zM-4-36.554l1.971-3.616-4.141.643zm1.971-3.616L-4-36.554l4 .009zm-.092 20.896-2.144-3.655-2.128 3.66zm6.468 3.671-2.226-3.671L0-15.604z"/><path d="m6.393-19.269-4.272-.005 2.226 3.671zm-4.272-.005h-4.242L0-15.604zM-11.368-4.889l-4.79.137 3.132 3.388zm7.021-10.714 2.144 3.606L0-15.604z"/><path d="m-2.121-19.274-2.226 3.671L0-15.604z"/><path d="m-4.347-15.603 2.226-3.671-4.272.005zm0 0-2.244 3.663 4.388-.057zM0-8.446l2.242 3.524 2.224-3.494z"/><path d="M2.242-4.922 0-8.446l-2.242 3.524zM0-8.446l2.203-3.551h-4.406zm2.203-3.551L0-8.446l4.466.03zm-25.592-.814 1.013 3.752 2.958-3.228zm1.013 3.752-1.013-3.752-3.26 2.15zM-2.101 9.597l-2.106 3.694L0 13.343zm0 0-4.224-.002 2.118 3.696z"/><path d="m-6.325 9.595 4.224.002-2.154-3.7zm2.07-3.698 2.154 3.7L0 5.89z"/><path d="M-2.101 9.597h4.202L0 5.89zm4.202 0h-4.202L0 13.343zM8.672-15.52l-2.279-3.749-2.046 3.666zm2.696 10.631-4.609-.02 1.989 3.53zm9.392-18.348-2.058 3.847 3.896-.327zm-2.058 3.847 2.058-3.847-4.191.202zm.299 36.558-2.145-3.712-2.096 3.631zM-6.49 2.242l4.326-.009-2.219-3.611z"/><path d="m-4.383-1.378 2.219 3.611L0-1.376z"/><path d="m-2.164 2.233-2.091 3.664L0 5.89z"/><path d="m-2.164 2.233-4.326.009 2.235 3.655zm4.328 0h-4.328L0 5.89zm-4.328 0h4.328L0-1.376zm4.265 7.364 2.154-3.7L0 5.89zm2.154-3.7 2.07 3.698 2.182-3.673z"/><path d="m4.255 5.897-2.154 3.7 4.224-.002zM6.49 2.242 4.255 5.897l4.252.025z"/><path d="m2.164 2.233 2.091 3.664L6.49 2.242zm2.091 3.664L2.164 2.233 0 5.89zM6.759-4.909 4.383-1.378l4.365-.001zM4.383-1.378 2.242-4.922 0-1.376z"/><path d="m4.383-1.378 2.107 3.62 2.258-3.621zm0 0 2.376-3.531-4.517-.013z"/><path d="M4.383-1.378 2.164 2.233l4.326.009z"/><path d="m2.164 2.233 2.219-3.611L0-1.376zm-43.916 10.924-1.707-3.959-2.38 3.2z"/><path d="m-43.459 9.198 1.707 3.959 2.397-3.329zm1.707 3.959 4.348-.14-1.951-3.189zM-45.145 24l-4.596-.977-.259 3.634zm3.714 10.624 1.044-3.487-4.611.086zm1.044-3.487-1.044 3.487 3.917.38zm51.048-58.222-1.965-3.464-2.209 3.872z"/><path d="m8.696-30.549 1.965 3.464 2.414-4.067zm-4.021.176 4.021-.176L6.9-34.532zm4.021-.176-4.021.176 1.812 3.696zm-4.021.176L2.258-33.11 0-29.814z"/><path d="m2.258-33.11 2.417 2.737L6.9-34.532zm14.326 3.126 4.918.544-2.413-2.816zm0 0-.33-4.77-3.179 3.602z"/><path d="m16.254-34.754.33 4.77 2.505-2.272z"/><path d="m21.502-29.44-4.918-.544 2.249 3.35z"/><path d="m16.584-29.984-2.108 3.28 4.357.07z"/><path d="m14.476-26.704 2.108-3.28-3.509-1.168zm7.9 17.645 4.273-1.602-3.26-2.15zm3.588 2.227-3.588-2.227-1.302 3.424zm-3.588-2.227 3.588 2.227.685-3.829zM15.042 2.659l4.674-.25-2.84-3.076zm4.674-.25-4.674.25 2.039 3.38zm.391-4.672.967-3.372-4.916.883z"/><path d="m19.716 2.409.391-4.672-3.231 1.596zm.391-4.672 3.098 2.208 1.617-3.306z"/><path d="m20.107-2.263 4.715-1.098-3.748-2.274zm15.518 48.77 2.361-3.135-4.395-.376z"/><path d="m31.804 47.11 3.821-.603-2.034-3.511zm0 0 1.461 4.465 3.277-1.594z"/><path d="m31.804 47.11 4.738 2.871-.917-3.474zm3.821-.603 4.252 1.21-1.891-4.345zm4.252 1.21-4.252-1.21.917 3.474zm7.5-9.414-4.137.003 2.069 3.579zm-2.068 3.582-2.069-3.579-2.042 3.489z"/><path d="m43.24 38.306 4.137-.003-2.137-3.511zm-70.784-6.568 2.091-3.662-4.234-.036zm2.091-3.662-2.091 3.662 4.26.052zm-6.365 3.652 4.274.01-2.143-3.698zm11.178 10.768 2-3.327-4.377-.19z"/><path d="m-20.64 42.496-2.377-3.517-2.07 3.545zm0 0 2.219 3.405 2.398-2.927zm2-3.327-2 3.327 4.617.478z"/><path d="m-20.64 42.496-2.165 3.501 4.384-.096z"/><path d="m-22.805 45.997 2.165-3.501-4.447.028zm-24.572-7.694 2.137-3.511-3.663-.464z"/><path d="m-44.998 31.223-3.905 3.105 3.663.464zm-.242 3.569-2.137 3.511 4.137.003z"/><path d="m-44.998 31.223-4.711-.542.806 3.647z"/><path d="m-45.24 34.792 3.809-.168-3.567-3.401zm3.809-.168-3.809.168 2 3.514zm78.835-21.607-1.517-4.662-2.218 4.061zm-5.992-4.081-1.765 4.186 4.022-.706z"/><path d="m35.887 8.355-4.475.581 2.257 3.48zm-4.475.581-3.733.631 1.968 3.555zM45.145 24l-3.236-3.509-1.395 3.615zm-7.159 19.372-2.383-3.946-2.012 3.57zM10.55 24.36l-2.136 3.646 4.305-.03zm-2.136 3.646 2.136-3.646-4.258.038zm5.213 18.917L9.67 45.759l1.149 4.742z"/><path d="m11.883 42.757 1.744 4.166 2.396-3.949zm1.744 4.166-2.808 3.578 3.336 1.46zM9.67 45.759l3.957 1.164-1.744-4.166zM18.421 45.901l-4.794 1.022 3.014 2.263z"/><path d="m13.627 46.923 4.794-1.022-2.398-2.927zm7.094 2.672-2.567 3.46 3.96.458z"/><path d="m18.154 53.055 2.567-3.46-4.08-.409zm6.597-3.358-4.03-.102 1.393 3.918zm-4.03-.102-2.3-3.694-1.78 3.285zm-6.139-10.456-2.699 3.618 4.14.217zm4.058.03-4.058-.03 1.441 3.835zM14.582 39.139l2.209-3.732-4.199.016z"/><path d="m16.791 35.407-2.209 3.732 4.058.03zm0 0-2.002-3.684-2.197 3.7z"/><path d="m12.719 27.976 2.07 3.747 2.165-3.656zM-2.314 43.519 0 40.138l-3.498-.632zM0 40.138l3.498-.632L0 36.054zm3.498-.632L0 40.138l2.314 3.381zm-16.09-4.083 1.977-3.868-4.174.168zM-12.592 35.423l-2.197-3.7-2.002 3.684zm0 0-1.99 3.716 4.079.081z"/><path d="m-14.582 39.139 1.99-3.716-4.199-.016zm1.863-11.163 2.104 3.579 2.201-3.549zM-10.55 24.36l-2.169 3.616 4.305.03z"/><path d="m-12.719 27.976 2.169-3.616-4.28.018zm2.104 3.579-2.104-3.579-2.07 3.747zM-12.719 27.976l-4.235.091 2.165 3.656zm-4.235.091 4.235-.091-2.111-3.598zm.032-7.293-2.079-3.606-2.198 3.597zm-4.157-7.185 2.109-3.758-4.151.225zM0 36.054l-4.115-.689.617 4.141zm0 0 3.498 3.452.617-4.141zm0 4.084v-4.084l-3.498 3.452zm4.207-19.432-2.116 3.698 4.201-.006zM2.091 24.404l2.116-3.698L0 20.697zm-8.342 7.246 2.114-3.533-4.277-.111z"/><path d="m-4.137 28.117-2.155-3.719-2.122 3.608zm-12.504 21.069-1.513 3.869 3.999-1.094zm0 0-1.78-3.285-2.3 3.694zm-1.513 3.869 1.513-3.869-4.08.409z"/><path d="m-16.641 49.186 3.014-2.263-4.794-1.022zm2.486 2.775.528-5.038-3.014 2.263z"/><path d="m-14.155 51.961 3.336-1.46-2.808-3.578zm7.127-9.374 2.194 3.659 2.52-2.727zm-4.855.17-2.699-3.618-1.441 3.835z"/><path d="m-14.582 39.139 2.699 3.618 1.38-3.537zm.955 7.784 1.744-4.166-4.14.217z"/><path d="m-11.883 42.757 4.855-.17-3.475-3.367zM-30.891 1.071l2.058 3.75 1.564-4.566zm2.058 3.75-4.066.686 1.487 3.429zm4.43-1.466-4.43 1.466 3.47 2.009z"/><path d="m-28.833 4.821-2.058-3.75-2.008 4.436zm0 0 1.154 4.746 2.316-2.737z"/><path d="m-27.679 9.567-1.154-4.746-2.579 4.115zm2.229 3.77 4.371.252-2.042-3.533z"/><path d="m-27.679 9.567 2.229 3.77 2.329-3.281zm11.521-14.319-.718 4.085 3.85-.697zm-9.295 32.828-2.149-3.728-2.085 3.692zm-4.182-7.544-2.054-3.921-2.022 3.872zm-2.054-3.921-3.877.039 1.855 3.833z"/><path d="m-31.689 16.611 2.054 3.921 2.116-3.591zm0 0-1.98-4.195-1.897 4.234zM7.028 42.587l-3.53-3.081-1.184 4.013zm-.069-4.017 1.565-3.517-4.409.312zm-3.461.936 3.461-.936-2.844-3.205z"/><path d="m7.028 42.587-.069-4.017-3.461.936zM-20.76-23.237l-1.838 3.52 3.896.327zm4.191.202-4.191-.202 2.058 3.847z"/><path d="m-25.18-22.613 4.42-.624-2.799-2.979z"/><path d="m-20.76-23.237-4.42.624 2.582 2.896zm0 0 1.927-3.397-4.726.418zm1.927-3.397-1.927 3.397 4.191.202zm2.249-3.35 2.108 3.28 1.401-4.448z"/><path d="m-12.441-23.018-2.035-3.686-2.093 3.669z"/><path d="m-18.833-26.634 4.357-.07-2.108-3.28z"/><path d="m-14.476-26.704-4.357.07 2.264 3.599zm7.576-7.828-1.796 3.983 4.021.176zm-1.796 3.983 1.796-3.983-3.859.377zM-8.696-30.549l2.209 3.872 1.812-3.696zm4.021.176-1.812 3.696 4.208.06zm-1.812 3.696 2.222 3.748 1.986-3.688zm11.162-3.696-2.396 3.756 4.208-.06zm-6.954 3.756h4.558L0-29.814z"/><path d="m2.279-26.617 2.396-3.756L0-29.814zm-16.906 7.356-1.942-3.774-2.133 3.645z"/><path d="m-14.627-19.261 2.186-3.757-4.128-.017zm0 0 4.109.038-1.923-3.795zm7.868 14.352 2.376 3.531 2.141-3.544zm-8.487-7.053 1.748 3.713 2.524-3.614z"/><path d="m-11.368-4.889-2.13-3.36-2.66 3.497zm4.777-7.051-2.081-3.58-2.302 3.657zm-3.927-7.283 1.846 3.703 2.279-3.749z"/><path d="m-4.347-15.603-4.325.083 2.081 3.58z"/><path d="m-8.672-15.52 4.325-.083-2.046-3.666zm-17.292 8.688 1.142 3.471 3.748-2.274zM-6.325 9.595l-4.206.096 2.12 3.644zM22.376-9.059l-4.488.618 3.186 2.806zm-2.958-3.228 2.958 3.228 1.013-3.752z"/><path d="m19.418-12.287-1.53 3.846 4.488-.618z"/><path d="m17.888-8.441 1.53-3.846-4.172.325zm-6.914-3.422 2.017-3.68-4.319.023zm2.017-3.68-2.017 3.68 4.272-.099zm-2.185 17.83 2.22-3.651-4.278-.015zm2.22-3.651-1.658-3.525-2.62 3.51zm2.016 4.023-2.016-4.023-2.22 3.651z"/><path d="m13.026-1.364 2.016 4.023 1.834-3.326zm8.053 14.953-4.223-.133 2.145 3.712zm-62.988 6.902L-45.145 24l4.631.106zm-.566 7.116L-45.145 24l-1.388 3.612z"/><path d="m-44.998 31.223 2.523-3.616-4.058.005zM-45.145 24l2.67 3.607 1.961-3.501z"/><path d="m-40.387 31.137-2.088-3.53-2.523 3.616zm8.569.591-4.198-.29 2.344 4.058z"/><path d="m-36.016 31.438-1.498 3.566 3.842.492zm0 0-4.371-.301 2.873 3.867zm46.775-65.593 5.495-.599-3.003-1.987z"/><path d="m10.759-34.155 2.316 3.003 3.179-3.602zm-1.093-4.288 1.093 4.288 2.492-2.586z"/><path d="m10.759-34.155-1.093-4.288L6.9-34.532z"/><path d="m8.696-30.549 2.063-3.606-3.859-.377zm2.063-3.606-2.063 3.606 4.379-.603zM4-36.554 2.029-40.17 0-36.545z"/><path d="M2.029-40.17 4-36.554l2.17-2.973zm4.141.643.73 4.995 2.766-3.911z"/><path d="M6.17-39.527 4-36.554l2.9 2.022zM4-36.554 2.258-33.11 6.9-34.532z"/><path d="M2.258-33.11 4-36.554l-4 .009zM24.403 3.355l.96 3.475 3.47-2.009zm0 0 2.866-3.1-4.064-.31z"/><path d="m19.716 2.409 3.489-2.464-3.098-2.208z"/><path d="m19.716 2.409 4.687.946-1.198-3.41zm-49.228 33.014-2.306-3.695-1.854 3.768zm-1.975 3.778 1.975-3.778-4.16.073z"/><path d="m-27.392 39.185-2.12-3.762-1.975 3.778zm-2.12-3.762 1.968-3.685-4.274-.01zm75.351-23.025-2.38-3.2-1.707 3.959zm.694 15.214 3.176 3.069.291-4.024z"/><path d="m45.145 24 1.388 3.612L50 26.657z"/><path d="M45.145 24 50 26.657l-.259-3.634zm-7.741-10.983 2.276 3.749 2.072-3.609z"/><path d="m49.741 23.023-4.024-2.731L45.145 24z"/><path d="m45.717 20.292 4.024 2.731-.782-3.681zm0 0-3.808.199L45.145 24zm-14.23 18.909-1.91 3.85 4.014-.055zm4.116.225-4.116-.225 2.104 3.795zM21.079 13.589l2.231 3.489 2.14-3.741z"/><path d="m23.31 17.078-2.231-3.489-2.078 3.579zm18.121 17.546 1.809 3.682 2-3.514zM8.42 20.704l2.113-3.674-4.222-.021z"/><path d="m4.207 20.706 4.213-.002-2.109-3.695zm4.213-.002-4.213.002 2.085 3.692zm2.13 3.656-2.13-3.656-2.128 3.694zm4.28.018-2.111 3.598 4.235.091zM14.83 24.378l-4.28-.018 2.169 3.616zm10.257 18.146-2.282 3.473 4.341.067zm-6.666 3.377 4.384.096-2.165-3.501zm4.384.096 1.946 3.7 2.395-3.633z"/><path d="m22.805 45.997 2.282-3.473-4.447-.028zm-2.084 3.598 2.084-3.598-4.384-.096zm2.084-3.598-2.084 3.598 4.03.102zm-12.19-14.442-2.201-3.549-2.163 3.644z"/><path d="m8.524 35.053 2.091-3.498-4.364.095zm2.091-3.498-2.091 3.498 4.068.37z"/><path d="m8.414 28.006 2.201 3.549 2.104-3.579zm2.201 3.549 4.174.168-2.07-3.747zm4.174.168-4.174-.168 1.977 3.868zm-23.313 3.33 4.409.312-2.136-3.715zm-2.091-3.498 2.091 3.498 2.273-3.403zm3.656 7.015-1.565-3.517-1.979 4.167z"/><path d="m-8.524 35.053 1.565 3.517 2.844-3.205zm-4.068.37 4.068-.37-2.091-3.498zM-8.524 35.053l-4.068.37 2.089 3.797zM-21.182 6.194l-3.221-2.839-.96 3.475zm0 0-4.181.636 2.242 3.226zm0 0 2.212 3.637 1.889-3.792z"/><path d="m-18.97 9.831-2.212-3.637-1.939 3.862zm12.659 7.178h4.198l-2.094-3.718zm0 0 2.104-3.718-4.204.044zm4.198 0h-4.198l2.104 3.697zM-6.311 17.009l-2.109 3.695 4.213.002zm0 0-4.222.021 2.113 3.674z"/><path d="m-10.533 17.03 4.222-.021-2.1-3.674zm-.017 7.33-2.112-3.639-2.168 3.657z"/><path d="m-12.662 20.721-4.26.053 2.092 3.604zm4.242-.017-4.242.017 2.112 3.639z"/><path d="m-10.533 17.03-2.129 3.691 4.242-.017zm12.52 14.915 2.128 3.42 2.136-3.715z"/><path d="M1.987 31.945 0 36.054l4.115-.689zm-4.078-7.541h4.182L0 20.697z"/><path d="M-2.091 24.404 0 20.697l-4.207.009zm-4.201-.006 4.201.006-2.116-3.698zm8.383.006h-4.182L0 28.143z"/><path d="m-2.091 24.404-2.046 3.713L0 28.143z"/><path d="m-4.137 28.117 2.046-3.713-4.201-.006zm-6.682 22.384 1.149-4.742-3.957 1.164zm1.149-4.742-1.149 4.742 3.136-1.919zM-4.834 46.246l-4.836-.487 1.987 2.823z"/><path d="m-9.67 45.759 4.836.487-2.194-3.659z"/><path d="m-11.883 42.757 2.213 3.002 2.642-3.172zm2.213 3.002-2.213-3.002-1.744 4.166zm-9.331-28.591-4.309-.09 2.111 3.687zm-4.309-.09 4.309.09-2.078-3.579zm-2.14-3.741 2.14 3.741 2.231-3.489z"/><path d="m-23.31 17.078-2.14-3.741-2.069 3.604zm8.268-14.419 4.236-.372-2.22-3.651zm-1.834-3.326 1.834 3.326 2.016-4.023zm-14.922 24.919 2.163-3.72-4.076-.049zm-4.275-.093 4.275.093-1.913-3.769zm4.275.093 4.196.096-2.033-3.816zm4.196.096-4.196-.096 2.111 3.788zm8.506.078-4.256-.009 2.138 3.68z"/><path d="m-23.352 24.417 4.256.009-2.103-3.661zm0 0-2.101 3.659 4.239.021z"/><path d="m-23.352 24.417-4.25-.069 2.149 3.728zm-6.295-11.295 1.968-3.555-3.733-.631z"/><path d="m-33.669 12.416 4.022.706-1.765-4.186zm8.219.921-4.197-.215 2.128 3.819z"/><path d="m-29.647 13.122 4.197.215-2.229-3.77zm-2.042 3.489 2.042-3.489-4.022-.706zm2.042-3.489-2.042 3.489 4.17.33zm40.15 26.098-3.475 3.367 4.855.17zm-1.979-4.167 1.979 4.167 2.089-3.797z"/><path d="m14.582 39.139-4.079.081 1.38 3.537zm-4.079.081 4.079-.081-1.99-3.716zm0 0-3.544-.65.069 4.017zM6.959 38.57l3.544.65-1.979-4.167zM-4-36.554l1.742 3.444L0-36.545zm1.742 3.444-2.417 2.737L0-29.814zm0 0h4.516L0-36.545z"/><path d="M2.258-33.11h-4.516L0-29.814zM-6.9-34.532l4.642 1.422L-4-36.554zm4.642 1.422L-6.9-34.532l2.225 4.159zm-3.912-6.417-3.496 1.084 2.766 3.911zm-4.589 5.372 1.093-4.288-3.585 1.702z"/><path d="m-6.9-34.532-2.766-3.911-1.093 4.288zm.73-4.995-.73 4.995 2.9-2.022zM-8.472-23.09l-2.046 3.867 4.125-.046z"/><path d="m-4.265-22.929-4.207-.161 2.079 3.821zm-6.253 3.706 2.046-3.867-3.969.072z"/><path d="m-6.487-26.677-1.985 3.587 4.207.161zM8.472-23.09l-4.207.161 2.128 3.66z"/><path d="m4.265-22.929 4.207-.161-1.985-3.587zm0 0-2.144 3.655 4.272.005zm-1.986-3.688 1.986 3.688 2.222-3.748zm-17.525 14.655-2.136-3.758-2.036 3.433zm-6.726-4.172 4.59.414-1.32-3.67zm4.59.414-4.59-.414 2.554 3.847z"/><path d="m-17.382-15.72 2.755-3.541-4.075-.129zm8.634 14.341 2.258 3.621 2.107-3.62zm0 0-2.62-3.51-1.658 3.525z"/><path d="m-10.806 2.287 2.058-3.666-4.278.015zm2.058-3.666-2.058 3.666 4.316-.045zm0 0 1.989-3.53-4.609.02z"/><path d="m-6.759-4.909-1.989 3.53 4.365.001zm.168-7.031 2.125 3.524 2.263-3.581zM0-8.446l-4.466.03 2.224 3.494z"/><path d="M-4.466-8.416 0-8.446l-2.203-3.551zm0 0-2.293 3.507 4.517-.013zm-13.422-.025 2.642-3.521-4.172-.325zm-4.488-.618 4.488.618-1.53-3.846zm8.878.81-4.39-.192 1.73 3.689z"/><path d="m-17.888-8.441 4.39.192-1.748-3.713zm-6.934 5.08 4.715 1.098-.967-3.372zm5.106 5.77-3.489-2.464-1.198 3.41zm13.226-.167-2.017 3.68 4.252-.025zm-4.316.045 2.299 3.635 2.017-3.68zM-8.507 5.922l2.182 3.673 2.07-3.698z"/><path d="m-8.507 5.922-2.024 3.769 4.206-.096zm-10.494 11.246 2.145-3.712-4.223.133zM-16.856 13.456l-2.114-3.625-2.109 3.758zM2.203-11.997l4.388.057-2.244-3.663z"/><path d="m6.591-11.94-4.388-.057 2.263 3.581zm0 0 2.081-3.58-4.325-.083zm0 0 4.383.077-2.302-3.657zm6.907 3.691 4.39-.192-2.642-3.521zM10.974-11.863l2.524 3.614 1.748-3.713zm15.334-6.672-4.336 2.401 4.786 1.273zm.45 3.674-4.786-1.273 1.417 3.323zm-8.056-4.529 3.27 3.256.626-3.583z"/><path d="m21.972-16.134-2.554 3.847 3.971-.524zm-11.454-3.089L8.472-23.09l-2.079 3.821z"/><path d="m8.472-23.09 2.046 3.867 1.923-3.795z"/><path d="m8.672-15.52 1.846-3.703-4.125-.046zm4.319-.023-2.473-3.68-1.846 3.703zm-.343 28.908-2.115 3.665 4.227.057zm4.208.091-4.208-.091 2.112 3.722zM14.798 9.701l-2.15 3.664 4.208.091zm.244-7.042-2.329 3.44 4.368-.06z"/><path d="m12.713 6.099 2.329-3.44-4.236-.372zm0 0-1.907-3.812-2.299 3.635zm0 0 2.085 3.602 2.283-3.662zm10.408 3.957 4.558-.489-2.316-2.737zm4.558-.489-4.558.489 2.329 3.281z"/><path d="m23.121 10.056-2.042 3.533 4.371-.252zm-58.687 6.594-2.247 3.835 4.102-.002z"/><path d="m-37.813 20.485 1.74 3.674 2.362-3.676z"/><path d="m-36.073 24.159-1.74-3.674-2.701 3.621z"/><path d="m-37.813 20.485-4.096.006 1.395 3.615zm-7.904-.193-1.955-4.476-1.287 3.526zM-49.741 23.023l4.024-2.731-3.242-.95z"/><path d="m-45.145 24-.572-3.708-4.024 2.731zm3.236-3.509-3.808-.199.572 3.708zm3.775 7.2 2.061-3.532-4.441-.053z"/><path d="m-42.475 27.607 4.341.084-2.38-3.585zm4.341.084-4.341-.084 2.088 3.53zm2.118 3.747-2.118-3.747-2.253 3.446zm73.59-27.315-4.675 1.384 2.988 2.848zm-4.675 1.384 4.675-1.384-3.236-1.755zM32.899 5.507l-1.487 3.429 4.475-.581zm-2.008-4.436 2.008 4.436 1.439-3.139zM-25.315 35.45l-2.077 3.735 4.375-.206zm0 0 4.327-.007-2.296-3.653z"/><path d="m-20.988 35.443-4.327.007 2.298 3.529z"/><path d="m-27.544 31.738 2.229 3.712 2.031-3.66zm-1.968 3.685 4.197.027-2.229-3.712zm4.197.027-4.197-.027 2.12 3.762zM35.887 8.355l3.468 1.473 1.154-3.546zm0 0 4.622-2.073-2.935-2.159z"/><path d="m37.404 13.017 1.951-3.189-3.468-1.473z"/><path d="m39.355 9.828-1.951 3.189 4.348.14zm4.104-.63-4.104.63 2.397 3.329zm-4.104.63 4.104-.63-2.95-2.916zm3.12 17.779L45.145 24l-4.631.106zm0 0 4.058.005L45.145 24z"/><path d="m35.566 16.65 1.838-3.633-3.735-.601z"/><path d="m35.566 16.65 4.114.116-2.276-3.749zm12.106-.834-1.955 4.476 3.242-.95zM20.988 35.443l-4.197-.036 1.849 3.762zm22.252 2.863-4.094.277 2.052 3.212z"/><path d="m39.146 38.583-1.16 4.789 3.212-1.577z"/><path d="m39.146 38.583-3.543.843 2.383 3.946zm2.285-3.959-2.285 3.959 4.094-.277zM8.42 20.704l4.242.017-2.129-3.691z"/><path d="m10.533 17.03 2.129 3.691 2.098-3.634zm2.129 3.691 4.26.053-2.162-3.687z"/><path d="m12.662 20.721-4.242-.017 2.13 3.656z"/><path d="m14.83 24.378-2.168-3.657-2.112 3.639zm-2.168-3.657 2.168 3.657 2.092-3.604zm-4.248 7.285-4.277.111 2.114 3.533zm-4.277.111-2.046-3.713L0 28.143z"/><path d="m4.137 28.117 4.277-.111-2.122-3.608z"/><path d="m2.091 24.404 2.046 3.713 2.155-3.719zm-.104 7.541 2.15-3.828L0 28.143z"/><path d="m4.137 28.117-2.15 3.828 4.264-.295zm-8.252 7.248 2.128-3.42-4.264-.295zM0 36.054l-1.987-4.109-2.128 3.42zm-4.137-7.937 2.15 3.828L0 28.143z"/><path d="m-1.987 31.945-2.15-3.828-2.114 3.533zm3.974 0h-3.974L0 36.054zm-3.974 0h3.974L0 28.143zm-27.648-11.413 4.197.181-2.081-3.772z"/><path d="m-27.602 24.348 2.164-3.635-4.197-.181zm4.292-7.27-2.128 3.635 4.239.052z"/><path d="m-25.438 20.713 2.128-3.635-4.209-.137zm2.086 3.704-2.086-3.704-2.164 3.635z"/><path d="m-25.438 20.713 2.086 3.704 2.153-3.652zm10.962-47.417 3.815-.381-2.414-4.067zm3.815-.381 1.965-3.464-4.379-.603zm0 0-3.815.381 2.035 3.686zm0 0 4.174.408-2.209-3.872zm0 0 2.189 3.995 1.985-3.587z"/><path d="m-8.472-23.09-2.189-3.995-1.78 4.067zm4.207.161L0-23.018l-2.279-3.599z"/><path d="m0-23.018-4.265.089 2.144 3.655z"/><path d="M2.121-19.274 0-23.018l-2.121 3.744zM0-23.018l2.279-3.599h-4.558zm0 0 4.265.089-1.986-3.688z"/><path d="M4.265-22.929 0-23.018l2.121 3.744zm-18.892 3.668 1.636 3.718 2.473-3.68zm1.636 3.718-2.255 3.581 4.272.099z"/><path d="m-8.672-15.52-4.319-.023 2.017 3.68z"/><path d="m-12.991-15.543 4.319.023-1.846-3.703zm-4.391-.177 4.391.177-1.636-3.718zm4.391.177-4.391-.177 2.136 3.758zm4.029 7.19 2.371-3.587-4.383.077zm2.203 3.444-2.203-3.444-2.406 3.464z"/><path d="m-13.498-8.249 4.536-.104-2.012-3.51zm4.536-.104-4.536.104 2.13 3.36zm4.496-.063-4.496.063 2.203 3.444z"/><path d="m-8.962-8.353 4.496-.063-2.125-3.524zm-17.002 1.521 4.89 1.197-1.302-3.424zm5.857 4.569 3.949-2.489-4.916-.883z"/><path d="m-17.888-8.441-3.186 2.806 4.916.883z"/><path d="m-21.074-5.635 3.186-2.806-4.488-.618zm-3.748 2.274 1.617 3.306 3.098-2.208zm4.715 1.098 3.231 1.596.718-4.085zm.391 4.672-1.466 3.785 4.101-.155z"/><path d="m-15.042 2.659-4.674-.25 2.635 3.63z"/><path d="m-21.182 6.194 1.466-3.785-4.687.946z"/><path d="m-19.716 2.409 4.674.25-1.834-3.326zm0 0-.391-4.672-3.098 2.208z"/><path d="m-20.107-2.263.391 4.672 2.84-3.076zm7.394 8.362-2.329-3.44-2.039 3.38z"/><path d="m-15.042 2.659 2.329 3.44 1.907-3.812z"/><path d="m-8.507 5.922-4.206.177 2.182 3.592z"/><path d="m-12.713 6.099 4.206-.177-2.299-3.635zm.051 14.622-2.098-3.634-2.162 3.687z"/><path d="m-14.76 17.087-4.241.081 2.079 3.606zm0 0 2.098 3.634 2.129-3.691zm0 0-2.096-3.631-2.145 3.712zM17.888-8.441l-1.73 3.689 4.916-.883zm2.219 6.178-3.949-2.489.718 4.085z"/><path d="m16.158-4.752-3.132 3.388 3.85.697zm-3.132 3.388 3.132-3.388-4.79-.137zm.472-6.885 2.66 3.497 1.73-3.689z"/><path d="m16.158-4.752-2.66-3.497-2.13 3.36zM8.962-8.353 6.591-11.94 4.466-8.416zM6.759-4.909l2.203-3.444-4.496-.063zm4.609.02L8.962-8.353 6.759-4.909z"/><path d="m6.591-11.94 2.371 3.587 2.012-3.51zm2.371 3.587 4.536.104-2.524-3.614zm4.536.104-4.536-.104 2.406 3.464zm3.884-7.471-4.391.177 2.255 3.581zM19.418-12.287l-2.036-3.433-2.136 3.758zm2.554-3.847-4.59.414 2.036 3.433z"/><path d="m17.382-15.72 4.59-.414-3.27-3.256zM4.207 13.291l4.204.044-2.086-3.74zm4.204.044-4.204-.044 2.104 3.718zm2.122 3.695-2.122-3.695-2.1 3.674z"/><path d="m12.648 13.365-4.237-.03 2.122 3.695zm6.322-3.534-4.172-.13 2.058 3.755z"/><path d="m14.798 9.701 4.172.13-1.889-3.792z"/><path d="M21.079 13.589 18.97 9.831l-2.114 3.625zm2.042-3.533-4.151-.225 2.109 3.758zm-60.525 2.961-2.276 3.749 4.114-.116zM-41.752 13.157l2.072 3.609 2.276-3.749zm3.939 7.328-1.867-3.719-2.229 3.725z"/><path d="m-39.68 16.766 1.867 3.719 2.247-3.835zm5.808 11.118-2.144 3.554 4.198.29zm2.074-3.632-2.074 3.632 4.185.156z"/><path d="m-33.872 27.884 2.054 3.844 2.131-3.688zm0 0 2.074-3.632-4.275-.093zm0 0-4.262-.193 2.118 3.747z"/><path d="m-38.134 27.691 4.262.193-2.201-3.725zM24.403 3.355l4.43 1.466L27.269.255zm3.276 6.212 1.154-4.746-3.47 2.009zm3.733-.631-2.579-4.115-1.154 4.746z"/><path d="m28.833 4.821 2.058-3.75-3.622-.816zm0 0 4.066.686-2.008-4.436z"/><path d="m32.899 5.507-4.066-.686 2.579 4.115zm13.634 22.105-1.535 3.611 4.711-.542zm-1.535 3.611.242 3.569 3.663-.464zM44.998 31.223l-3.567 3.401 3.809.168z"/><path d="m41.431 34.624 3.567-3.401-4.611-.086zm1.044-7.017 2.523 3.616 1.535-3.611zm2.523 3.616-2.523-3.616-2.088 3.53z"/><path d="m40.387 31.137-2.253-3.446-2.118 3.747z"/><path d="m38.134 27.691-4.262.193 2.144 3.554zm0 0 4.341-.084-1.961-3.501zm4.341-.084-4.341.084 2.253 3.446z"/><path d="m36.073 24.159 2.061 3.532 2.38-3.585z"/><path d="m38.134 27.691-2.061-3.532-2.201 3.725zm1.546-10.925 4.176-.17-2.104-3.439z"/><path d="m43.856 16.596 1.983-4.198-4.087.759zm0 0-4.176.17 2.229 3.725z"/><path d="m45.717 20.292-1.861-3.696-1.947 3.895z"/><path d="m47.672 15.816-3.816.78 1.861 3.696z"/><path d="m43.856 16.596 3.816-.78-1.833-3.418zm-10.184 18.9-2.185 3.705 4.116.225zM33.672 35.496l-4.16-.073 1.975 3.778z"/><path d="m29.512 35.423-2.12 3.762 4.095.016zm-2.12 3.762-2.305 3.339 4.49.527z"/><path d="m31.487 39.201-4.095-.016 2.185 3.866zm-16.698-7.478 4.241.017-2.076-3.673z"/><path d="m19.03 31.74-4.241-.017 2.002 3.684zm0 0 1.958 3.703 2.296-3.653z"/><path d="M20.988 35.443 19.03 31.74l-2.239 3.667zM14.83 24.378l4.266.048-2.174-3.652zm4.266.048-4.266-.048 2.124 3.689zm-35.952-10.97 2.058-3.755-4.172.13zm-2.114-3.625 4.172-.13-2.283-3.662zm6.257-3.732-2.085 3.602 4.267-.01z"/><path d="m-14.798 9.701 2.085-3.602-4.368-.06zm25.316-28.924 4.109-.038-2.186-3.757zM14.627-19.261l1.942-3.774-4.128.017zm0 0 4.075-.129-2.133-3.645zm0 0-4.109.038 2.473 3.68zm2.755 3.541-2.755-3.541-1.636 3.718z"/><path d="m14.627-19.261 2.755 3.541 1.32-3.67zM10.531 9.691l2.117 3.674 2.15-3.664zm0 0 2.182-3.592-4.206-.177z"/><path d="m6.325 9.595 4.206.096-2.024-3.769z"/><path d="m12.713 6.099-2.182 3.592 4.267.01z"/><path d="m10.531 9.691-2.12 3.644 4.237.03zm-2.12 3.644 2.12-3.644-4.206-.096zm12.771-7.141-1.466-3.785-2.635 3.63zm3.221-2.839-3.221 2.839 4.181.636z"/><path d="m21.182 6.194 3.221-2.839-4.687-.946zm0 0 1.939 3.862 2.242-3.226z"/><path d="M21.182 6.194 18.97 9.831l4.151.225zM18.97 9.831l2.212-3.637-4.101-.155zm-66.642 5.985 3.816.78-1.983-4.198zm1.955 4.476 1.861-3.696-3.816-.78z"/><path d="m-43.856 16.596 2.104-3.439-4.087-.759zm0 0-1.861 3.696 3.808.199z"/><path d="m-39.68 16.766-4.176-.17 1.947 3.895z"/><path d="m-43.856 16.596 4.176.17-2.072-3.609zm83.536.17-1.867 3.719 4.096.006zm2.229 3.725-4.096-.006 2.701 3.621z"/><path d="m35.566 16.65 2.247 3.835 1.867-3.719zm2.247 3.835-1.74 3.674 4.441-.053zm-12.36 7.591 2.091 3.662 2.143-3.698zM27.544 31.738l-2.091-3.662-2.169 3.714zm9.97 3.266 2.873-3.867-4.371.301zm0 0 3.917-.38-1.044-3.487zm1.632 3.579-1.632-3.579-1.911 4.422z"/><path d="m37.514 35.004 1.632 3.579 2.285-3.959zm0 0-3.842.492 1.931 3.93z"/><path d="m33.672 35.496 3.842-.492-1.498-3.566zm.2-7.612-2.054 3.844 4.198-.29z"/><path d="m31.818 31.728 2.054-3.844-4.185.156z"/><path d="m27.544 31.738 4.274-.01-2.131-3.688zm4.274-.01-4.274.01 1.968 3.685z"/><path d="m33.672 35.496-1.854-3.768-2.306 3.695zm-1.854-3.768 1.854 3.768 2.344-4.058zm-6.731 10.796-2.07-3.545-2.377 3.517z"/><path d="m20.64 42.496 2.377-3.517-4.377.19z"/><path d="m23.017 38.979-2.029-3.536-2.348 3.726zm4.375.206-4.375-.206 2.07 3.545zm-10.47-18.411 4.277-.009-2.198-3.597zM21.199 20.765l2.111-3.687-4.309.09zm0 0-2.103 3.661 4.256-.009z"/><path d="m19.096 24.426 2.103-3.661-4.277.009zm-31.744-11.061-2.112 3.722 4.227-.057z"/><path d="m-12.648 13.365 2.115 3.665 2.122-3.695z"/><path d="m-10.531 9.691-2.117 3.674 4.237-.03zm-4.229 7.396 2.112-3.722-4.208.091z"/><path d="m-12.648 13.365-2.15-3.664-2.058 3.755z"/><path d="m-14.798 9.701 2.15 3.664 2.117-3.674zm46.487 6.91 3.877.039-1.897-4.234zm-2.042-3.489 2.042 3.489 1.98-4.195zm4.225 14.762-2.074-3.632-2.111 3.788z"/><path d="m36.073 24.159-4.275.093 2.074 3.632zm-16.977.267 2.118 3.671 2.138-3.68z"/><path d="m19.03 31.74 2.184-3.643-4.26-.03z"/><path d="M21.214 28.097 19.03 31.74l4.254.05zm0 0-2.118-3.671-2.142 3.641z"/><path d="m25.453 28.076-4.239.021 2.07 3.693z"/><path d="m21.214 28.097 4.239-.021-2.101-3.659zm-.226 7.346 4.327.007-2.031-3.66z"/><path d="m25.315 35.45 2.229-3.712-4.26.052z"/><path d="m27.544 31.738-2.229 3.712 4.197-.027zm-2.229 3.712 2.077 3.735 2.12-3.762z"/><path d="m25.315 35.45-2.298 3.529 4.375.206zm-2.298 3.529 2.298-3.529-4.327-.007zm2.421-18.266-4.239.052 2.153 3.652z"/><path d="m21.199 20.765 4.239-.052-2.128-3.635zm10.49-4.154 2.022 3.872 1.855-3.833zm2.022 3.872 4.102.002-2.247-3.835zm4.102.002-4.102-.002 2.362 3.676z"/><path d="m33.711 20.483-2.022-3.872-2.054 3.921z"/><path d="m31.798 24.252 1.913-3.769-4.076.049zm1.913-3.769-1.913 3.769 4.275-.093zm-6.109 3.865-2.149 3.728 4.234-.036z"/><path d="m27.602 24.348 4.196-.096-2.163-3.72zm-2.149 3.728 2.149-3.728-4.25.069z"/><path d="m31.798 24.252-4.196.096 2.085 3.692z"/><path d="m25.438 20.713 2.164 3.635 2.033-3.816z"/><path d="m27.602 24.348-2.164-3.635-2.086 3.704zm4.087-7.737-4.17.33 2.116 3.591zm-4.17.33 2.128-3.819-4.197.215z"/><path d="m23.31 17.078 4.209-.137-2.069-3.604zm4.209-.137 4.17-.33-2.042-3.489zm-2.081 3.772 2.081-3.772-4.209.137zM27.519 16.941l-2.081 3.772 4.197-.181z"/></svg>